<svg xmlns="http://www.w3.org/2000/svg" x="0px" y="0px" width="140px" height="100px" viewBox="0 0 140 100">
  <g stroke="#7BC144" fill="none" stroke-width="2" stroke-miterlimit="10">
    <rect x="15" y="17" width="14" height="14"/>
    <rect x="15" y="43" width="14" height="14"/>
    <rect x="15" y="69" width="14" height="14"/>
  </g>
  <g stroke="#7BC144" fill="none" stroke-width="6" stroke-miterlimit="10">
    <line x1="38" y1="19" x2="108" y2="19"/>
    <line x1="38" y1="45" x2="128" y2="45"/>
    <line x1="38" y1="29" x2="58" y2="29"/>
    <line x1="68" y1="29" x2="118" y2="29"/>
    <line x1="38" y1="71" x2="118" y2="71"/>
    <line x1="38" y1="81" x2="58" y2="81"/>
    <line x1="68" y1="81" x2="98" y2="81"/>
    <line x1="68" y1="55" x2="108" y2="55"/>
    <line x1="38" y1="45" x2="38" y2="45"/>
    <line x1="38" y1="45" x2="38" y2="45"/>
    <line x1="38" y1="55" x2="58" y2="55"/>
  </g>
</svg>
