<?xml version="1.0" encoding="utf-8"?>
<!-- Generator: Adobe Illustrator 16.0.0, SVG Export Plug-In . SVG Version: 6.00 Build 0)  -->
<!DOCTYPE svg PUBLIC "-//W3C//DTD SVG 1.1//EN" "http://www.w3.org/Graphics/SVG/1.1/DTD/svg11.dtd">
<svg version="1.1" id="Layer_1" xmlns="http://www.w3.org/2000/svg" xmlns:xlink="http://www.w3.org/1999/xlink" x="0px" y="0px"
	 width="140px" height="100px" viewBox="0 0 140 100" enable-background="new 0 0 140 100" xml:space="preserve">
<rect x="15" y="17" fill="none" stroke="#7BC144" stroke-width="2" stroke-miterlimit="10" width="14" height="14"/>
<line fill="none" stroke="#7BC144" stroke-width="6" stroke-miterlimit="10" x1="38" y1="19" x2="108" y2="19"/>
<line fill="none" stroke="#7BC144" stroke-width="6" stroke-miterlimit="10" x1="38" y1="45" x2="128" y2="45"/>
<line fill="none" stroke="#7BC144" stroke-width="6" stroke-miterlimit="10" x1="38" y1="29" x2="58" y2="29"/>
<line fill="none" stroke="#7BC144" stroke-width="6" stroke-miterlimit="10" x1="68" y1="29" x2="118" y2="29"/>
<rect x="15" y="69" fill="none" stroke="#7BC144" stroke-width="2" stroke-miterlimit="10" width="14" height="14"/>
<line fill="none" stroke="#7BC144" stroke-width="6" stroke-miterlimit="10" x1="38" y1="71" x2="118" y2="71"/>
<line fill="none" stroke="#7BC144" stroke-width="6" stroke-miterlimit="10" x1="38" y1="81" x2="58" y2="81"/>
<line fill="none" stroke="#7BC144" stroke-width="6" stroke-miterlimit="10" x1="68" y1="81" x2="98" y2="81"/>
<line fill="none" stroke="#7BC144" stroke-width="6" stroke-miterlimit="10" x1="68" y1="55" x2="108" y2="55"/>
<line fill="none" stroke="#7BC144" stroke-width="6" stroke-miterlimit="10" x1="38" y1="45" x2="38" y2="45"/>
<rect x="15" y="43" fill="none" stroke="#7BC144" stroke-width="2" stroke-miterlimit="10" width="14" height="14"/>
<line fill="none" stroke="#7BC144" stroke-width="6" stroke-miterlimit="10" x1="38" y1="45" x2="38" y2="45"/>
<line fill="none" stroke="#7BC144" stroke-width="6" stroke-miterlimit="10" x1="38" y1="55" x2="58" y2="55"/>
</svg>
