<svg version="1.1" id="Layer_1" xmlns="http://www.w3.org/2000/svg" xmlns:xlink="http://www.w3.org/1999/xlink" x="0px" y="0px"
	 width="900px" height="400px" viewBox="0 0 900 400" enable-background="new 0 0 900 400" xml:space="preserve">
<path fill="none" stroke="#333333" stroke-width="4" stroke-linecap="round" stroke-linejoin="round" stroke-miterlimit="10" d="
	M880.8,359c0.1-117.7,1.3-235.3,2.8-353C594.8,6.3,308.9,32.4,20.8,13.4C9.9,64.3,17.7,125.1,17,177c-0.8,60.4,5.1,120.6,9.1,180.8"
	/>
<path fill="none" stroke="#333333" stroke-width="4" stroke-miterlimit="10" d="M16.3,58.8c290.1,0,576-5.4,865.9-5.4"/>
<circle fill="#333333" cx="42" cy="39.5" r="7.5"/>
<circle fill="#333333" cx="66" cy="39.5" r="7.5"/>
<circle fill="#333333" cx="90" cy="39.5" r="7.5"/>
<rect y="300" fill="#333333" width="900" height="100"/>
<g>
	<g>
		<path fill="#FFFFFF" d="M64.8,372.4c-1.9,0-3.4-0.7-4.5-2.2c-1.1-1.5-1.7-3.5-1.7-6v-18.4h3.9v17.8c0,1.7,0.3,2.9,0.9,3.8
			c0.6,0.9,1.5,1.3,2.6,1.3c1,0,2.1-0.3,3-1c1-0.7,1.8-1.6,2.5-2.9v-19h3.9V372h-3.9v-3.4h-1c-0.4,1.2-1.1,2.1-2.1,2.8
			C67.4,372,66.2,372.4,64.8,372.4z"/>
		<path fill="#FFFFFF" d="M93,372.4c-1.7,0-3.4-0.3-5-0.8c-1.7-0.6-3.1-1.3-4.3-2.4l1.4-3.2c1.1,0.8,2.3,1.5,3.7,2
			c1.4,0.5,2.8,0.8,4.2,0.8c1.5,0,2.7-0.3,3.4-0.9c0.7-0.6,1.1-1.5,1.1-2.7c0-1.4-0.4-2.4-1.2-3c-0.8-0.6-2.2-1.1-4.3-1.7
			c-2.8-0.7-4.8-1.7-6-2.9c-1.2-1.2-1.7-2.8-1.7-4.9c0-2.4,0.7-4.2,2.1-5.5c1.4-1.3,3.3-2,5.7-2c1.5,0,3,0.3,4.6,0.9
			c1.5,0.6,2.9,1.4,4,2.4l-1.4,3.2c-1-0.8-2.1-1.4-3.4-2c-1.3-0.6-2.5-0.9-3.8-0.9c-1.3,0-2.3,0.3-2.9,0.9c-0.6,0.6-0.9,1.5-0.9,2.7
			c0,1.4,0.4,2.4,1.2,3s2.3,1.1,4.4,1.7c2.7,0.7,4.7,1.7,5.8,2.9c1.1,1.2,1.7,2.8,1.7,4.8c0,2.4-0.8,4.2-2.3,5.5
			C97.7,371.8,95.7,372.4,93,372.4z"/>
		<path fill="#FFFFFF" d="M126.8,366.3c-0.7,2.1-1.6,3.7-2.9,4.7c-1.3,1-3.1,1.5-5.7,1.5c-2.6,0-4.7-0.8-6.2-2.3s-2.3-3.8-2.3-6.8
			v-8.8c0-3.1,0.8-5.4,2.4-6.9c1.6-1.5,3.6-2.3,6.1-2.3c2.5,0,4.6,0.8,6.1,2.4c1.5,1.6,2.3,4,2.3,7.2v4.7h-13v3.6
			c0,2,0.4,3.5,1.1,4.3c0.8,0.9,1.9,1.3,3.4,1.3c1.5,0,2.5-0.3,3.3-0.9c0.7-0.6,1.3-1.6,1.6-2.9L126.8,366.3z M113.6,354.7v1.8h9
			v-1.4c0-2.2-0.4-3.8-1.1-4.8c-0.7-1-1.9-1.5-3.4-1.5c-1.5,0-2.7,0.5-3.4,1.5C114,351.3,113.6,352.7,113.6,354.7z"/>
		<path fill="#FFFFFF" d="M136.6,372v-26.2h4v3.8h1c0.4-1.5,1.1-2.6,2.1-3.3c1-0.7,2.2-1,3.5-1c1.5,0,2.8,0.6,3.8,1.8
			c1,1.2,1.5,2.9,1.5,5.2v4.2h-3.8v-2.7c0-1.6-0.2-2.8-0.7-3.5c-0.5-0.8-1.3-1.1-2.4-1.1c-1,0-1.9,0.3-2.7,1
			c-0.8,0.7-1.5,1.6-2.2,2.9v19H136.6z"/>
		<path fill="#FFFFFF" d="M169.6,372.4c-1.7,0-3.4-0.3-5-0.8c-1.7-0.6-3.1-1.3-4.3-2.4l1.4-3.2c1.1,0.8,2.3,1.5,3.7,2
			c1.4,0.5,2.8,0.8,4.2,0.8c1.5,0,2.7-0.3,3.4-0.9c0.7-0.6,1.1-1.5,1.1-2.7c0-1.4-0.4-2.4-1.2-3c-0.8-0.6-2.2-1.1-4.3-1.7
			c-2.8-0.7-4.8-1.7-6-2.9c-1.2-1.2-1.7-2.8-1.7-4.9c0-2.4,0.7-4.2,2.1-5.5c1.4-1.3,3.3-2,5.7-2c1.5,0,3,0.3,4.6,0.9
			c1.5,0.6,2.9,1.4,4,2.4l-1.4,3.2c-1-0.8-2.1-1.4-3.4-2c-1.3-0.6-2.5-0.9-3.8-0.9c-1.3,0-2.3,0.3-2.9,0.9c-0.6,0.6-0.9,1.5-0.9,2.7
			c0,1.4,0.4,2.4,1.2,3s2.3,1.1,4.4,1.7c2.7,0.7,4.7,1.7,5.8,2.9c1.1,1.2,1.7,2.8,1.7,4.8c0,2.4-0.8,4.2-2.3,5.5
			C174.3,371.8,172.2,372.4,169.6,372.4z"/>
		<path fill="#FFFFFF" d="M223.1,372l-2.8-17l-2.7,17h-4.1l-3.5-26.2h3.6l2.3,22l2.5-17.8h3.8l2.7,17.5l2.1-21.7h3.6l-3.5,26.2
			H223.1z"/>
		<path fill="#FFFFFF" d="M237.4,372v-3.6h6.4v-19h-6.4v-3.6h10.4v22.6h6.4v3.6H237.4z M245.8,340.8c-0.9,0-1.6-0.2-2.2-0.5
			c-0.6-0.3-0.9-1-0.9-1.9v-0.3c0-0.9,0.3-1.6,0.9-1.9c0.6-0.3,1.3-0.5,2.2-0.5c0.9,0,1.6,0.2,2.2,0.5c0.6,0.3,0.9,1,0.9,1.9v0.3
			c0,0.9-0.3,1.5-0.9,1.9C247.5,340.7,246.8,340.8,245.8,340.8z"/>
		<path fill="#FFFFFF" d="M275.3,372.4c-2.4,0-4.2-0.7-5.5-2.2c-1.3-1.5-2-3.5-2-6v-14.7h-5.4v-3.6h5.4v-8.7h3.9v8.7h8.2v3.6h-8.2
			v14.2c0,1.7,0.3,2.9,0.9,3.8s1.5,1.3,2.7,1.3c0.8,0,1.5-0.1,2.2-0.2c0.7-0.1,1.4-0.4,2-0.7l0.7,3.7c-0.6,0.2-1.3,0.5-2.2,0.7
			C277,372.2,276.1,372.4,275.3,372.4z"/>
		<path fill="#FFFFFF" d="M288.4,372v-34.9h3.9v12.1h1c0.4-1.2,1.1-2.1,2.1-2.8c1-0.7,2.3-1,3.7-1c1.8,0,3.3,0.7,4.5,2.2
			c1.1,1.5,1.7,3.5,1.7,6V372h-3.9v-17.8c0-1.7-0.3-3-0.9-3.8c-0.6-0.9-1.5-1.3-2.6-1.3c-1.1,0-2.1,0.3-3,1
			c-0.9,0.6-1.8,1.6-2.5,2.9v19H288.4z"/>
		<path fill="#FFFFFF" d="M339.4,372v-3.5h6.5v-27.9h-6.5v-3.5h17.1v3.5h-6.5v27.9h6.5v3.5H339.4z"/>
		<path fill="#FFFFFF" d="M365,372v-26.2h3.9v3.4h1c0.6-1.2,1.5-2.1,2.5-2.8c1-0.7,2.2-1,3.4-1c1.9,0,3.4,0.7,4.5,2.2
			c1.1,1.5,1.6,3.5,1.6,6.1V372h-3.9v-17.6c0-1.7-0.3-3.1-0.9-3.9c-0.6-0.9-1.5-1.3-2.6-1.3c-1.1,0-2.1,0.3-3,1
			c-0.9,0.7-1.8,1.7-2.5,3V372H365z"/>
		<path fill="#FFFFFF" d="M402.9,372.4c-2.4,0-4.2-0.7-5.5-2.2c-1.3-1.5-2-3.5-2-6v-14.7H390v-3.6h5.4v-8.7h3.9v8.7h8.2v3.6h-8.2
			v14.2c0,1.7,0.3,2.9,0.9,3.8s1.5,1.3,2.7,1.3c0.8,0,1.5-0.1,2.2-0.2c0.7-0.1,1.4-0.4,2-0.7l0.7,3.7c-0.6,0.2-1.3,0.5-2.2,0.7
			C404.7,372.2,403.8,372.4,402.9,372.4z"/>
		<path fill="#FFFFFF" d="M433.1,366.3c-0.7,2.1-1.6,3.7-2.9,4.7c-1.3,1-3.1,1.5-5.7,1.5c-2.6,0-4.7-0.8-6.2-2.3s-2.3-3.8-2.3-6.8
			v-8.8c0-3.1,0.8-5.4,2.4-6.9c1.6-1.5,3.6-2.3,6.1-2.3c2.5,0,4.6,0.8,6.1,2.4c1.5,1.6,2.3,4,2.3,7.2v4.7h-13v3.6
			c0,2,0.4,3.5,1.1,4.3c0.8,0.9,1.9,1.3,3.4,1.3c1.5,0,2.5-0.3,3.3-0.9c0.7-0.6,1.3-1.6,1.6-2.9L433.1,366.3z M420,354.7v1.8h9v-1.4
			c0-2.2-0.4-3.8-1.1-4.8c-0.7-1-1.9-1.5-3.4-1.5c-1.5,0-2.7,0.5-3.4,1.5C420.3,351.3,420,352.7,420,354.7z"/>
		<path fill="#FFFFFF" d="M443,372v-26.2h4v3.8h1c0.4-1.5,1.1-2.6,2.1-3.3c1-0.7,2.2-1,3.5-1c1.5,0,2.8,0.6,3.8,1.8
			c1,1.2,1.5,2.9,1.5,5.2v4.2H455v-2.7c0-1.6-0.2-2.8-0.7-3.5c-0.5-0.8-1.3-1.1-2.4-1.1c-1,0-1.9,0.3-2.7,1
			c-0.8,0.7-1.5,1.6-2.2,2.9v19H443z"/>
		<path fill="#FFFFFF" d="M467.1,372v-26.2h3.9v3.4h1c0.6-1.2,1.5-2.1,2.5-2.8c1-0.7,2.2-1,3.4-1c1.9,0,3.4,0.7,4.5,2.2
			c1.1,1.5,1.6,3.5,1.6,6.1V372H480v-17.6c0-1.7-0.3-3.1-0.9-3.9c-0.6-0.9-1.5-1.3-2.6-1.3c-1.1,0-2.1,0.3-3,1
			c-0.9,0.7-1.8,1.7-2.5,3V372H467.1z"/>
		<path fill="#FFFFFF" d="M509.7,366.3c-0.7,2.1-1.6,3.7-2.9,4.7c-1.3,1-3.1,1.5-5.7,1.5c-2.6,0-4.7-0.8-6.2-2.3s-2.3-3.8-2.3-6.8
			v-8.8c0-3.1,0.8-5.4,2.4-6.9c1.6-1.5,3.6-2.3,6.1-2.3c2.5,0,4.6,0.8,6.1,2.4c1.5,1.6,2.3,4,2.3,7.2v4.7h-13v3.6
			c0,2,0.4,3.5,1.1,4.3s1.9,1.3,3.4,1.3c1.5,0,2.5-0.3,3.3-0.9c0.7-0.6,1.3-1.6,1.6-2.9L509.7,366.3z M496.5,354.7v1.8h9v-1.4
			c0-2.2-0.4-3.8-1.1-4.8c-0.7-1-1.9-1.5-3.4-1.5c-1.5,0-2.7,0.5-3.4,1.5C496.9,351.3,496.5,352.7,496.5,354.7z"/>
		<path fill="#FFFFFF" d="M530.5,372.4c-2.4,0-4.2-0.7-5.5-2.2c-1.3-1.5-2-3.5-2-6v-14.7h-5.4v-3.6h5.4v-8.7h3.9v8.7h8.2v3.6h-8.2
			v14.2c0,1.7,0.3,2.9,0.9,3.8s1.5,1.3,2.7,1.3c0.8,0,1.5-0.1,2.2-0.2c0.7-0.1,1.4-0.4,2-0.7l0.7,3.7c-0.6,0.2-1.3,0.5-2.2,0.7
			C532.3,372.2,531.4,372.4,530.5,372.4z"/>
		<path fill="#FFFFFF" d="M569.1,372v-34.9h17.6v3.5h-13.6v10.6h12v3.6h-12v13.7h13.6v3.5H569.1z"/>
		<path fill="#FFFFFF" d="M607.8,372l-4.8-9.5l-4.5,9.5h-4.2l6.9-13.2l-6.6-13h4.3l4.6,9l4.5-9h4.2l-6.8,12.8L612,372H607.8z"/>
		<path fill="#FFFFFF" d="M628.8,372.4c-0.8,0-1.5-0.1-2.3-0.3c-0.8-0.2-1.5-0.6-2.3-1v9.6h-3.9v-34.9h3.9v3.4h1
			c0.4-1.2,1.1-2.1,2.1-2.8c1-0.7,2.2-1,3.7-1c1.9,0,3.5,0.8,4.6,2.5s1.6,3.9,1.6,6.8v8.7c0,2.9-0.7,5.1-2.2,6.7
			C633.4,371.6,631.4,372.4,628.8,372.4z M628.5,369c1.6,0,2.7-0.5,3.5-1.4c0.8-1,1.2-2.4,1.2-4.3v-8.9c0-1.7-0.3-3-0.9-3.9
			c-0.6-0.9-1.5-1.3-2.7-1.3c-1.1,0-2.1,0.3-3,1c-0.9,0.7-1.7,1.7-2.4,3.1v14c0.6,0.6,1.3,1,2,1.3C626.9,368.8,627.7,369,628.5,369z
			"/>
		<path fill="#FFFFFF" d="M645.9,372v-3.6h6.5v-27.8h-6.5v-3.6h10.4v31.3h6.4v3.6H645.9z"/>
		<path fill="#FFFFFF" d="M679.8,372.4c-2.7,0-4.8-0.8-6.3-2.4c-1.5-1.6-2.2-3.8-2.2-6.7v-8.8c0-2.9,0.7-5.2,2.2-6.8
			c1.5-1.6,3.6-2.4,6.3-2.4c2.7,0,4.7,0.8,6.2,2.4c1.5,1.6,2.2,3.9,2.2,6.8v8.8c0,2.9-0.7,5.1-2.2,6.7
			C684.5,371.6,682.4,372.4,679.8,372.4z M679.8,368.8c1.5,0,2.6-0.4,3.4-1.2c0.8-0.8,1.1-2.2,1.1-4.1v-8.9c0-1.9-0.4-3.3-1.1-4.2
			c-0.8-0.9-1.9-1.4-3.4-1.4c-1.5,0-2.6,0.5-3.4,1.4c-0.8,0.9-1.1,2.3-1.1,4.2v8.9c0,1.9,0.4,3.3,1.1,4.1S678.3,368.8,679.8,368.8z"
			/>
		<path fill="#FFFFFF" d="M698.2,372v-26.2h4v3.8h1c0.4-1.5,1.1-2.6,2.1-3.3c1-0.7,2.2-1,3.5-1c1.5,0,2.8,0.6,3.8,1.8
			c1,1.2,1.5,2.9,1.5,5.2v4.2h-3.8v-2.7c0-1.6-0.2-2.8-0.7-3.5c-0.5-0.8-1.3-1.1-2.4-1.1c-1,0-1.9,0.3-2.7,1
			c-0.8,0.7-1.5,1.6-2.2,2.9v19H698.2z"/>
		<path fill="#FFFFFF" d="M739.4,366.3c-0.7,2.1-1.6,3.7-2.9,4.7c-1.3,1-3.1,1.5-5.7,1.5c-2.6,0-4.7-0.8-6.2-2.3s-2.3-3.8-2.3-6.8
			v-8.8c0-3.1,0.8-5.4,2.4-6.9s3.6-2.3,6.1-2.3c2.5,0,4.6,0.8,6.1,2.4c1.5,1.6,2.3,4,2.3,7.2v4.7h-13v3.6c0,2,0.4,3.5,1.1,4.3
			c0.8,0.9,1.9,1.3,3.4,1.3c1.5,0,2.5-0.3,3.3-0.9c0.7-0.6,1.3-1.6,1.6-2.9L739.4,366.3z M726.3,354.7v1.8h9v-1.4
			c0-2.2-0.4-3.8-1.1-4.8c-0.7-1-1.9-1.5-3.4-1.5c-1.5,0-2.7,0.5-3.4,1.5C726.7,351.3,726.3,352.7,726.3,354.7z"/>
		<path fill="#FFFFFF" d="M749.3,372v-26.2h4v3.8h1c0.4-1.5,1.1-2.6,2.1-3.3c1-0.7,2.2-1,3.5-1c1.5,0,2.8,0.6,3.8,1.8
			c1,1.2,1.5,2.9,1.5,5.2v4.2h-3.8v-2.7c0-1.6-0.2-2.8-0.7-3.5c-0.5-0.8-1.3-1.1-2.4-1.1c-1,0-1.9,0.3-2.7,1
			c-0.8,0.7-1.5,1.6-2.2,2.9v19H749.3z"/>
		<path fill="#FFFFFF" d="M799.9,372v-3.5h7v-26.6H806c-0.5,1.3-1.4,2.4-2.6,3.1c-1.2,0.7-2.6,1-4.1,0.8l-0.3-3.9
			c1.6,0.1,3.2-0.4,4.7-1.2c1.5-0.9,2.6-2.1,3.4-3.6h3.8v31.4h6.4v3.5H799.9z"/>
		<path fill="#FFFFFF" d="M825.4,372v-3.5h7v-26.6h-0.9c-0.5,1.3-1.4,2.4-2.6,3.1c-1.2,0.7-2.6,1-4.1,0.8l-0.3-3.9
			c1.6,0.1,3.2-0.4,4.7-1.2c1.5-0.9,2.6-2.1,3.4-3.6h3.8v31.4h6.4v3.5H825.4z"/>
	</g>
</g>
<path fill="none" stroke="#333333" stroke-width="4" stroke-miterlimit="10" d="M105.7,108.1C99.5,111.2,116.3,102.8,105.7,108.1
	c-9.2,4.6-17.4,10.4-21.4,20.2c-1.8,4.4-3.8,7.7-6.7,11.3c-3.3,4.2-4.3,9.1-5.9,14c-0.3,1-0.9,2.1-0.3,3.1c6.1,1.1,8.9-6.4,11.9-9.9
	c3.3-4,8-6.3,12-9.7c2.3-1.9,4.1-4.3,6.4-6.2c1.4-1.2,4.7-4,4.7-1.1c0.1,3.7-8,9-10.2,11.4c-4.9,5.4-7.2,12.9-11.2,18.9
	c-8.5,12.4-17.5,22.4-21.2,37.3c-1.7,6.8-5.4,13-7.2,19.8c-2,7.7,0,15.7,0,23.5c0,6.4-1.2,13.5,2.9,19.1c4.2,5.7,12.6,8.6,19.4,9
	c6.7,0.4,13.3-1.3,19.7-3.1c3.8-1.1,7.8-1.4,11.3-3.2c3.7-1.9,6.7-4.8,10.1-7.3c2.4-1.7,4.1-0.7,6.5,0.5c4,1.9,8.3,3.1,12.7,3.8
	c8.1,1.2,16.6,0.9,24.7-0.4c15.9-2.5,31.8-9.7,43.4-21.1c5.7-5.7,9.4-12.7,14-19.3c2-2.8,3.5-6,4.7-9.2c0.8-2.3,2.9-6.1,3-8.5
	c0.1-5.6-9.7-2.8-12.8-2.5c-5.5,0.4-11,1-16.5,1.5c-3.9,0.4-8.1,0.3-11.9,0.8c-3.9,0.6-4.5,6.1-6.5,8.6c-5.7,7.1-14.8,9.5-23.5,10.3
	c-10.2,0.9-17.3,2.6-25.5-4.4c-6.3-5.3-11.5-7.6-14.2-16c-0.6-1.8-1.1-3.7-1.4-5.6c-0.5-2.8-1.3-3.4,2-3.7
	c5.4-0.4,10.9-0.9,16.3-1.3c21.4-1.3,42.9-1.8,64.2-4.1c9.6-1,19-3,28.6-4.5c1.6-0.2,5,0.1,6.3-1.4c1.4-1.5,0.6-4.6,0.5-6.5
	c-0.1-5.3-0.5-10.6-1.8-15.8c-1.1-4.4-3-8.6-5.3-12.5c-1.8-3-4.9-6.4-5.3-10c-0.8-7.8,5.9-14.1,4.7-22.1c-0.7-4.6-1.7-9-2.1-13.6
	c-0.4-3.9-0.6-8.6-3.5-11.7c-6.1-6.5-13.7-6.5-22-6.8c-8.5-0.3-17.1-0.1-25.4,1.8c-4.1,1-8.1,2.4-11.8,4.4c-4.1,2.2-7.5,5.9-12,7.3
	c-3.6,1.1-7.2-0.2-10.8,0.4c-3.7,0.6-7.3,1.7-10.8,3.2C120.1,99.9,113.1,104.4,105.7,108.1z"/>
<path fill="none" stroke="#333333" stroke-width="4" stroke-miterlimit="10" d="M76.1,211.8c-2.1,0.7-2.6,4.7-3.4,6.4
	c-1.7,3.3-3.5,6.6-3.9,10.4c-0.6,6.4-0.8,16.2,1.6,22.2c3.5,8.6,13.3,9.8,21.4,8.9c3.5-0.4,25.8-4.6,22.5-11.1
	c-0.9-1.8-6.3-3-8.1-4.1c-4.7-2.8-8.5-7.1-12-11.4c-3.5-4.2-6.6-8.6-10.2-12.7c-1.7-2-4.6-9.2-7.7-8.6
	C76.3,211.8,76.2,211.8,76.1,211.8z"/>
<path fill="none" stroke="#333333" stroke-width="4" stroke-miterlimit="10" d="M118.1,148.4c9.1-12.4,24.5-21.3,40.1-18.9
	c13.6,2.1,27.9,19.5,28.5,32.8c-9.6,0.8-19.1,2-28.7,2.9c-8.7,0.8-17.5,0.9-26.1,2.5c-5.1,1-14.8,3.5-18-2.5
	C111.3,160,115,152.6,118.1,148.4C121.2,144.3,115,152.7,118.1,148.4z"/>
<path fill="none" stroke="#333333" stroke-width="4" stroke-miterlimit="10" d="M176.9,97c0-1.4,3.1-2.5,4.9-3.4
	c3-1.6,6.1-3.2,9.4-4c5-1.2,13.1-3.1,18.1-1.2c5.5,2.1,7.8,10.9,8.5,16c0.4,3.1-0.3,5.9-1.2,8.9c-1,3.1,0.7,12.3-4.5,7.2
	c-1.7-1.7-2.9-4-4.5-5.7c-3.4-3.6-7.3-6.6-11.5-9.1c-5.5-3.4-12.1-4.1-17.7-7.1C177.4,98,177,97.5,176.9,97z"/>
<g>
	<path fill="#0071BC" d="M526.6,262.8c-16.7,0-29.4-4.1-38-12.3c-8.6-8.2-13.2-20.7-13.9-37.4l37.6-2.1c0.6,8.6,2,14.9,4.2,18.8
		c2.2,3.9,5.3,5.9,9.2,5.9c3.9,0,6.7-1.4,8.4-4.1c1.7-2.7,2.5-7.1,2.5-13.1v-14c0-6-1.2-10.5-3.6-13.5c-2.4-3-5.6-4.5-9.8-4.5h-15.9
		v-27.2h15.9c3.9,0,6.6-0.9,8-2.8s2.2-5.6,2.2-11.2v-13c0-4.9-0.7-8.4-2-10.6c-1.3-2.2-3.3-3.2-6-3.2c-3.1,0-5.4,1.6-6.9,4.9
		c-1.5,3.3-2.6,8.5-3.1,15.8l-37.6-2.1c0.7-15.3,4.8-26.8,12.3-34.4c7.5-7.6,18.7-11.4,33.5-11.4c15.6,0,27.4,3.2,35.4,9.5
		c8,6.3,12,15.8,12,28.3v8.8c0,8.1-2.1,15.1-6.3,20.9c-4.2,5.9-9.6,9.3-16.3,10.2v6.1c7.5,1.1,13.7,5,18.5,11.7
		c4.8,6.7,7.2,14.7,7.2,24v8.4c0,14.4-4,25.2-12,32.5C554.2,259.2,542.3,262.8,526.6,262.8z"/>
	<path fill="#0071BC" d="M620.9,260.7c6.8-42,12.4-70.7,16.6-86.1c4.2-15.5,11.4-33.1,21.4-52.9h-60.2V93.5h97.9v28.2
		c-10.9,24-18.6,44.9-23.3,62.7c-4.7,17.8-9,43.3-13.1,76.3H620.9z"/>
	<path fill="#0071BC" d="M722.5,209.9l108.9-81.3l11.7,18l-108.7,80.5L722.5,209.9z M761.4,162.9c-9.3,0-16.9-2.5-22.7-7.4
		c-5.8-4.9-8.7-12.6-8.7-22.9V120c0-10.5,2.9-18.2,8.8-23.2c5.9-5,13.4-7.5,22.6-7.5c9.3,0,16.9,2.5,22.6,7.5
		c5.7,5,8.6,12.8,8.6,23.2v12.5c0,10.3-2.9,17.9-8.7,22.9C778.1,160.4,770.6,162.9,761.4,162.9z M761.4,143.8c2,0,3.5-0.7,4.6-2.1
		c1.1-1.4,1.7-3.6,1.7-6.7v-15.5c0-3.1-0.6-5.4-1.7-6.9c-1.1-1.5-2.6-2.3-4.6-2.3c-2,0-3.5,0.8-4.7,2.3c-1.2,1.5-1.8,3.8-1.8,6.9
		v15.5c0,3.1,0.6,5.3,1.8,6.7C757.9,143.2,759.5,143.8,761.4,143.8z M804.5,265.3c-9.3,0-16.9-2.5-22.7-7.4
		c-5.8-4.9-8.7-12.6-8.7-22.9v-12.5c0-10.5,2.9-18.2,8.8-23.2c5.9-5,13.4-7.5,22.6-7.5c9.3,0,16.9,2.5,22.6,7.5
		c5.7,5,8.6,12.8,8.6,23.2V235c0,10.3-2.9,17.9-8.7,22.9C821.2,262.9,813.7,265.3,804.5,265.3z M804.5,246.3c2,0,3.5-0.7,4.6-2.1
		c1.1-1.4,1.7-3.6,1.7-6.7V222c0-3.1-0.6-5.4-1.7-6.9c-1.1-1.5-2.6-2.3-4.6-2.3c-2,0-3.5,0.8-4.7,2.3c-1.2,1.5-1.8,3.8-1.8,6.9v15.5
		c0,3.1,0.6,5.3,1.8,6.7C801,245.6,802.5,246.3,804.5,246.3z"/>
</g>
</svg>
