<svg version="1.1" id="Layer_1" xmlns="http://www.w3.org/2000/svg" xmlns:xlink="http://www.w3.org/1999/xlink" x="0px" y="0px"
	 width="900px" height="400px" viewBox="0 0 900 400" enable-background="new 0 0 900 400" xml:space="preserve">
<rect y="300" fill="#2D2D2D" width="900" height="100"/>
<g>
	<path fill="#ED1C24" d="M284.1,260.7v-27.6h30.1V127.3h-4.6c-1.1,8.8-4.1,15.7-9,20.7c-4.9,5-10.7,7.5-17.4,7.3l-1.7-27.8
		c7.9-0.3,15.1-3.7,21.3-10.1c6.3-6.5,10.2-14.5,11.7-23.9h37.2v139.7h24.9v27.6H284.1z"/>
	<path fill="#ED1C24" d="M452,262.8c-7.8,0-14.1-1.9-18.9-5.8c-4.8-3.8-7.2-9.3-7.2-16.4v-14.4c0-7.2,2.4-12.8,7.2-16.7
		c4.8-3.9,11.1-5.9,18.9-5.9c7.8,0,14,2,18.7,5.9c4.7,3.9,7,9.5,7,16.7v14.4c0,7.1-2.4,12.6-7.2,16.4
		C465.7,260.9,459.5,262.8,452,262.8z"/>
	<path fill="#ED1C24" d="M525.4,260.7v-34.9c0-13,2-23,6.1-30.2c4-7.2,11.8-14.6,23.4-22.3l12.5-8.4c7.5-5,12.2-8.9,13.9-11.5
		c1.7-2.6,2.6-7.1,2.6-13.4v-4.8c0-6-0.8-10.5-2.3-13.4c-1.5-2.9-4-4.4-7.3-4.4c-3.5,0-5.9,2-7.2,6.1c-1.3,4-2.2,11.5-2.6,22.4
		l-37.6-2.1c0.7-18.3,4.8-31.6,12.3-39.9c7.5-8.4,19.2-12.5,34.9-12.5c15.6,0,27.4,3.7,35.4,11c8,7.3,12,18.2,12,32.5v9.8
		c0,10.3-2,18.6-6,24.9s-11.7,13.2-23.1,20.7l-12.5,8.4c-7.7,5.3-12.4,9.3-14.2,12.1c-1.8,2.8-2.7,7.7-2.7,14.6v7.7h60.2v27.6H525.4
		z"/>
	<path fill="#ED1C24" d="M753.3,218.9h-18.8v41.8h-37.6v-41.8H646v-26.1l43.7-99.3h44.7v99.3h18.8V218.9z M676.6,192.8h20.3v-45.2
		L676.6,192.8z"/>
	<path fill="#ED1C24" d="M808.3,211.6l-10.9-59.2l4.4,108.3H769V93.5h32.2l18.2,76.1l18-76.1h31.4v167.3h-32.8l4.4-104.1l-10.5,55
		H808.3z"/>
</g>
<g>
	<g>
		<path fill="#FFFFFF" d="M57.8,370.6c-0.4,1.2-1.2,2.1-2.2,2.8c-1,0.7-2.2,1-3.6,1c-1.9,0-3.4-0.8-4.5-2.5
			c-1.1-1.6-1.7-3.9-1.7-6.8v-8.7c0-2.9,0.7-5.1,2.2-6.7c1.5-1.6,3.5-2.4,6.2-2.4c0.7,0,1.5,0.1,2.3,0.3c0.8,0.2,1.6,0.6,2.3,1v-9.6
			h3.9V374h-3.9v-3.4H57.8z M53.4,370.6c1.1,0,2.1-0.3,3-1c0.9-0.7,1.7-1.7,2.4-3.1v-14c-0.6-0.6-1.3-1.1-2-1.3
			c-0.7-0.3-1.5-0.4-2.3-0.4c-1.6,0-2.8,0.5-3.6,1.4c-0.8,0.9-1.1,2.4-1.1,4.4v8.9c0,1.8,0.3,3.1,0.9,4
			C51.3,370.2,52.2,370.6,53.4,370.6z"/>
		<path fill="#FFFFFF" d="M88.5,368.3c-0.7,2.1-1.6,3.7-2.9,4.7c-1.3,1-3.1,1.5-5.7,1.5c-2.6,0-4.7-0.8-6.2-2.3s-2.3-3.8-2.3-6.8
			v-8.8c0-3.1,0.8-5.4,2.4-6.9c1.6-1.5,3.6-2.3,6.1-2.3c2.5,0,4.6,0.8,6.1,2.4c1.5,1.6,2.3,4,2.3,7.2v4.7h-13v3.6
			c0,2,0.4,3.5,1.1,4.3c0.8,0.9,1.9,1.3,3.4,1.3c1.5,0,2.5-0.3,3.3-0.9c0.7-0.6,1.3-1.6,1.6-2.9L88.5,368.3z M75.3,356.7v1.8h9v-1.4
			c0-2.2-0.4-3.8-1.1-4.8c-0.7-1-1.9-1.5-3.4-1.5c-1.5,0-2.7,0.5-3.4,1.5C75.7,353.3,75.3,354.7,75.3,356.7z"/>
		<path fill="#FFFFFF" d="M97.1,374v-3.6h6.5v-27.8h-6.5v-3.6h10.4v31.3h6.4v3.6H97.1z"/>
		<path fill="#FFFFFF" d="M139.5,368.3c-0.7,2.1-1.6,3.7-2.9,4.7c-1.3,1-3.1,1.5-5.7,1.5c-2.6,0-4.7-0.8-6.2-2.3s-2.3-3.8-2.3-6.8
			v-8.8c0-3.1,0.8-5.4,2.4-6.9c1.6-1.5,3.6-2.3,6.1-2.3c2.5,0,4.6,0.8,6.1,2.4c1.5,1.6,2.3,4,2.3,7.2v4.7h-13v3.6
			c0,2,0.4,3.5,1.1,4.3c0.8,0.9,1.9,1.3,3.4,1.3c1.5,0,2.5-0.3,3.3-0.9c0.7-0.6,1.3-1.6,1.6-2.9L139.5,368.3z M126.4,356.7v1.8h9
			v-1.4c0-2.2-0.4-3.8-1.1-4.8c-0.7-1-1.9-1.5-3.4-1.5c-1.5,0-2.7,0.5-3.4,1.5C126.8,353.3,126.4,354.7,126.4,356.7z"/>
		<path fill="#FFFFFF" d="M160.4,374.4c-2.4,0-4.2-0.7-5.5-2.2c-1.3-1.5-2-3.5-2-6v-14.7h-5.4v-3.6h5.4v-8.7h3.9v8.7h8.2v3.6h-8.2
			v14.2c0,1.7,0.3,2.9,0.9,3.8s1.5,1.3,2.7,1.3c0.8,0,1.5-0.1,2.2-0.2c0.7-0.1,1.4-0.4,2-0.7l0.7,3.7c-0.6,0.2-1.3,0.5-2.2,0.7
			C162.2,374.2,161.3,374.4,160.4,374.4z"/>
		<path fill="#FFFFFF" d="M173.6,374v-3.6h6.4v-19h-6.4v-3.6H184v22.6h6.4v3.6H173.6z M182,342.8c-0.9,0-1.6-0.2-2.2-0.5
			c-0.6-0.3-0.9-1-0.9-1.9v-0.3c0-0.9,0.3-1.6,0.9-1.9c0.6-0.3,1.3-0.5,2.2-0.5c0.9,0,1.6,0.2,2.2,0.5c0.6,0.3,0.9,1,0.9,1.9v0.3
			c0,0.9-0.3,1.5-0.9,1.9C183.7,342.7,182.9,342.8,182,342.8z"/>
		<path fill="#FFFFFF" d="M207.5,374.4c-2.7,0-4.8-0.8-6.3-2.4c-1.5-1.6-2.2-3.8-2.2-6.7v-8.8c0-2.9,0.7-5.2,2.2-6.8
			c1.5-1.6,3.6-2.4,6.3-2.4c2.7,0,4.7,0.8,6.2,2.4c1.5,1.6,2.2,3.9,2.2,6.8v8.8c0,2.9-0.7,5.1-2.2,6.7
			C212.3,373.6,210.2,374.4,207.5,374.4z M207.5,370.8c1.5,0,2.6-0.4,3.4-1.2c0.8-0.8,1.1-2.2,1.1-4.1v-8.9c0-1.9-0.4-3.3-1.1-4.2
			c-0.8-0.9-1.9-1.4-3.4-1.4c-1.5,0-2.6,0.5-3.4,1.4c-0.8,0.9-1.1,2.3-1.1,4.2v8.9c0,1.9,0.4,3.3,1.1,4.1
			C204.9,370.4,206,370.8,207.5,370.8z"/>
		<path fill="#FFFFFF" d="M224.6,374v-26.2h3.9v3.4h1c0.6-1.2,1.5-2.1,2.5-2.8c1-0.7,2.2-1,3.4-1c1.9,0,3.4,0.7,4.5,2.2
			c1.1,1.5,1.6,3.5,1.6,6.1V374h-3.9v-17.6c0-1.7-0.3-3.1-0.9-3.9c-0.6-0.9-1.5-1.3-2.6-1.3c-1.1,0-2.1,0.3-3,1
			c-0.9,0.7-1.8,1.7-2.5,3V374H224.6z"/>
		<path fill="#FFFFFF" d="M259,374.4c-1.7,0-3.4-0.3-5-0.8c-1.7-0.6-3.1-1.3-4.3-2.4l1.4-3.2c1.1,0.8,2.3,1.5,3.7,2
			c1.4,0.5,2.8,0.8,4.2,0.8c1.5,0,2.7-0.3,3.4-0.9c0.7-0.6,1.1-1.5,1.1-2.7c0-1.4-0.4-2.4-1.2-3c-0.8-0.6-2.2-1.1-4.3-1.7
			c-2.8-0.7-4.8-1.7-6-2.9c-1.2-1.2-1.7-2.8-1.7-4.9c0-2.4,0.7-4.2,2.1-5.5c1.4-1.3,3.3-2,5.7-2c1.5,0,3,0.3,4.6,0.9
			c1.5,0.6,2.9,1.4,4,2.4l-1.4,3.2c-1-0.8-2.1-1.4-3.4-2c-1.3-0.6-2.5-0.9-3.8-0.9c-1.3,0-2.3,0.3-2.9,0.9c-0.6,0.6-0.9,1.5-0.9,2.7
			c0,1.4,0.4,2.4,1.2,3s2.3,1.1,4.4,1.7c2.7,0.7,4.7,1.7,5.8,2.9c1.1,1.2,1.7,2.8,1.7,4.8c0,2.4-0.8,4.2-2.3,5.5
			C263.6,373.8,261.6,374.4,259,374.4z"/>
		<path fill="#FFFFFF" d="M309.4,374.4c-1.6,0-3.1-0.2-4.5-0.7c-1.4-0.5-2.6-1.1-3.7-2.1v-32.6h3.9v12.1h1c0.4-1.2,1.1-2.2,2.1-2.9
			c1-0.7,2.2-1,3.6-1c2,0,3.5,0.8,4.6,2.4c1.1,1.6,1.6,3.9,1.6,6.9v8.7c0,2.9-0.7,5.2-2.2,6.8C314.3,373.7,312.2,374.4,309.4,374.4z
			 M309.4,371c1.7,0,2.9-0.5,3.6-1.4c0.7-0.9,1.1-2.4,1.1-4.4v-8.8c0-1.9-0.3-3.2-0.9-4s-1.5-1.2-2.8-1.2c-1.2,0-2.2,0.3-3,1
			c-0.8,0.6-1.6,1.7-2.4,3.1v14.4c0.6,0.5,1.3,0.8,2,1C307.7,370.9,308.5,371,309.4,371z"/>
		<path fill="#FFFFFF" d="M329.9,382.9c-0.6,0-1.2,0-1.9-0.1c-0.7-0.1-1.4-0.2-2.1-0.3l0.5-3.6c0.6,0.1,1.2,0.3,1.8,0.3
			c0.5,0.1,1,0.1,1.5,0.1c1.3,0,2.3-0.4,2.9-1.1s1.2-1.9,1.7-3.5l0.1-0.5h-2l-6.6-26.4h4.2l5.3,22.9l5.2-22.9h4.1l-6.5,27.1
			c-0.8,3.1-1.8,5.2-3.3,6.3C333.2,382.4,331.7,382.9,329.9,382.9z"/>
		<path fill="#FFFFFF" d="M386.2,374.4c-2.7,0-4.8-0.8-6.3-2.4c-1.5-1.6-2.2-3.8-2.2-6.7v-8.8c0-2.9,0.7-5.2,2.2-6.8
			c1.5-1.6,3.6-2.4,6.3-2.4c2.7,0,4.7,0.8,6.2,2.4c1.5,1.6,2.2,3.9,2.2,6.8v8.8c0,2.9-0.7,5.1-2.2,6.7
			C391,373.6,388.9,374.4,386.2,374.4z M386.2,370.8c1.5,0,2.6-0.4,3.4-1.2c0.8-0.8,1.1-2.2,1.1-4.1v-8.9c0-1.9-0.4-3.3-1.1-4.2
			c-0.8-0.9-1.9-1.4-3.4-1.4c-1.5,0-2.6,0.5-3.4,1.4c-0.8,0.9-1.1,2.3-1.1,4.2v8.9c0,1.9,0.4,3.3,1.1,4.1
			C383.6,370.4,384.7,370.8,386.2,370.8z"/>
		<path fill="#FFFFFF" d="M403.3,374v-26.2h3.9v3.4h1c0.6-1.2,1.5-2.1,2.5-2.8c1-0.7,2.2-1,3.4-1c1.9,0,3.4,0.7,4.5,2.2
			c1.1,1.5,1.6,3.5,1.6,6.1V374h-3.9v-17.6c0-1.7-0.3-3.1-0.9-3.9c-0.6-0.9-1.5-1.3-2.6-1.3c-1.1,0-2.1,0.3-3,1
			c-0.9,0.7-1.8,1.7-2.5,3V374H403.3z"/>
		<path fill="#FFFFFF" d="M445.9,368.3c-0.7,2.1-1.6,3.7-2.9,4.7c-1.3,1-3.1,1.5-5.7,1.5c-2.6,0-4.7-0.8-6.2-2.3s-2.3-3.8-2.3-6.8
			v-8.8c0-3.1,0.8-5.4,2.4-6.9c1.6-1.5,3.6-2.3,6.1-2.3c2.5,0,4.6,0.8,6.1,2.4c1.5,1.6,2.3,4,2.3,7.2v4.7h-13v3.6
			c0,2,0.4,3.5,1.1,4.3c0.8,0.9,1.9,1.3,3.4,1.3c1.5,0,2.5-0.3,3.3-0.9c0.7-0.6,1.3-1.6,1.6-2.9L445.9,368.3z M432.7,356.7v1.8h9
			v-1.4c0-2.2-0.4-3.8-1.1-4.8c-0.7-1-1.9-1.5-3.4-1.5c-1.5,0-2.7,0.5-3.4,1.5C433.1,353.3,432.7,354.7,432.7,356.7z"/>
		<path fill="#FFFFFF" d="M491.8,370.6c-0.4,1.2-1.2,2.1-2.2,2.8c-1,0.7-2.2,1-3.6,1c-1.9,0-3.4-0.8-4.5-2.5
			c-1.1-1.6-1.7-3.9-1.7-6.8v-8.7c0-2.9,0.7-5.1,2.2-6.7c1.5-1.6,3.5-2.4,6.2-2.4c0.7,0,1.5,0.1,2.3,0.3c0.8,0.2,1.6,0.6,2.3,1v-9.6
			h3.9V374h-3.9v-3.4H491.8z M487.4,370.6c1.1,0,2.1-0.3,3-1c0.9-0.7,1.7-1.7,2.4-3.1v-14c-0.6-0.6-1.3-1.1-2-1.3
			c-0.7-0.3-1.5-0.4-2.3-0.4c-1.6,0-2.8,0.5-3.6,1.4s-1.1,2.4-1.1,4.4v8.9c0,1.8,0.3,3.1,0.9,4C485.2,370.2,486.1,370.6,487.4,370.6
			z"/>
		<path fill="#FFFFFF" d="M522.4,368.3c-0.7,2.1-1.6,3.7-2.9,4.7c-1.3,1-3.1,1.5-5.7,1.5c-2.6,0-4.7-0.8-6.2-2.3s-2.3-3.8-2.3-6.8
			v-8.8c0-3.1,0.8-5.4,2.4-6.9s3.6-2.3,6.1-2.3c2.5,0,4.6,0.8,6.1,2.4c1.5,1.6,2.3,4,2.3,7.2v4.7h-13v3.6c0,2,0.4,3.5,1.1,4.3
			c0.8,0.9,1.9,1.3,3.4,1.3c1.5,0,2.5-0.3,3.3-0.9c0.7-0.6,1.3-1.6,1.6-2.9L522.4,368.3z M509.3,356.7v1.8h9v-1.4
			c0-2.2-0.4-3.8-1.1-4.8c-0.7-1-1.9-1.5-3.4-1.5c-1.5,0-2.7,0.5-3.4,1.5C509.7,353.3,509.3,354.7,509.3,356.7z"/>
		<path fill="#FFFFFF" d="M541.9,374h-5.1l-6.7-26.2h4.1l5.2,22.6l5.1-22.6h4L541.9,374z"/>
		<path fill="#FFFFFF" d="M573.5,368.3c-0.7,2.1-1.6,3.7-2.9,4.7c-1.3,1-3.1,1.5-5.7,1.5c-2.6,0-4.7-0.8-6.2-2.3s-2.3-3.8-2.3-6.8
			v-8.8c0-3.1,0.8-5.4,2.4-6.9c1.6-1.5,3.6-2.3,6.1-2.3c2.5,0,4.6,0.8,6.1,2.4c1.5,1.6,2.3,4,2.3,7.2v4.7h-13v3.6
			c0,2,0.4,3.5,1.1,4.3c0.8,0.9,1.9,1.3,3.4,1.3c1.5,0,2.5-0.3,3.3-0.9c0.7-0.6,1.3-1.6,1.6-2.9L573.5,368.3z M560.4,356.7v1.8h9
			v-1.4c0-2.2-0.4-3.8-1.1-4.8s-1.9-1.5-3.4-1.5c-1.5,0-2.7,0.5-3.4,1.5C560.7,353.3,560.4,354.7,560.4,356.7z"/>
		<path fill="#FFFFFF" d="M582.1,374v-3.6h6.5v-27.8h-6.5v-3.6h10.4v31.3h6.4v3.6H582.1z"/>
		<path fill="#FFFFFF" d="M615.9,374.4c-2.7,0-4.8-0.8-6.3-2.4c-1.5-1.6-2.2-3.8-2.2-6.7v-8.8c0-2.9,0.7-5.2,2.2-6.8
			c1.5-1.6,3.6-2.4,6.3-2.4c2.7,0,4.7,0.8,6.2,2.4c1.5,1.6,2.2,3.9,2.2,6.8v8.8c0,2.9-0.7,5.1-2.2,6.7S618.6,374.4,615.9,374.4z
			 M615.9,370.8c1.5,0,2.6-0.4,3.4-1.2c0.8-0.8,1.1-2.2,1.1-4.1v-8.9c0-1.9-0.4-3.3-1.1-4.2c-0.8-0.9-1.9-1.4-3.4-1.4
			c-1.5,0-2.6,0.5-3.4,1.4c-0.8,0.9-1.1,2.3-1.1,4.2v8.9c0,1.9,0.4,3.3,1.1,4.1C613.3,370.4,614.4,370.8,615.9,370.8z"/>
		<path fill="#FFFFFF" d="M641.5,374.4c-0.8,0-1.5-0.1-2.3-0.3c-0.8-0.2-1.5-0.6-2.3-1v9.6H633v-34.9h3.9v3.4h1
			c0.4-1.2,1.1-2.1,2.1-2.8c1-0.7,2.2-1,3.7-1c1.9,0,3.5,0.8,4.6,2.5c1.1,1.6,1.6,3.9,1.6,6.8v8.7c0,2.9-0.7,5.1-2.2,6.7
			C646.2,373.6,644.1,374.4,641.5,374.4z M641.3,371c1.6,0,2.7-0.5,3.5-1.4s1.2-2.4,1.2-4.3v-8.9c0-1.7-0.3-3-0.9-3.9
			c-0.6-0.9-1.5-1.3-2.7-1.3c-1.1,0-2.1,0.3-3,1c-0.9,0.7-1.7,1.7-2.4,3.1v14c0.6,0.6,1.3,1,2,1.3C639.7,370.8,640.4,371,641.3,371z
			"/>
		<path fill="#FFFFFF" d="M675.6,368.3c-0.7,2.1-1.6,3.7-2.9,4.7c-1.3,1-3.1,1.5-5.7,1.5c-2.6,0-4.7-0.8-6.2-2.3s-2.3-3.8-2.3-6.8
			v-8.8c0-3.1,0.8-5.4,2.4-6.9c1.6-1.5,3.6-2.3,6.1-2.3c2.5,0,4.6,0.8,6.1,2.4c1.5,1.6,2.3,4,2.3,7.2v4.7h-13v3.6
			c0,2,0.4,3.5,1.1,4.3s1.9,1.3,3.4,1.3c1.5,0,2.5-0.3,3.3-0.9c0.7-0.6,1.3-1.6,1.6-2.9L675.6,368.3z M662.5,356.7v1.8h9v-1.4
			c0-2.2-0.4-3.8-1.1-4.8c-0.7-1-1.9-1.5-3.4-1.5c-1.5,0-2.7,0.5-3.4,1.5C662.8,353.3,662.5,354.7,662.5,356.7z"/>
		<path fill="#FFFFFF" d="M685.5,374v-26.2h4v3.8h1c0.4-1.5,1.1-2.6,2.1-3.3c1-0.7,2.2-1,3.5-1c1.5,0,2.8,0.6,3.8,1.8
			c1,1.2,1.5,2.9,1.5,5.2v4.2h-3.8v-2.7c0-1.6-0.2-2.8-0.7-3.5c-0.5-0.8-1.3-1.1-2.4-1.1c-1,0-1.9,0.3-2.7,1
			c-0.8,0.7-1.5,1.6-2.2,2.9v19H685.5z"/>
		<path fill="#FFFFFF" d="M740.5,374.4c-2,0-3.6-0.7-4.7-2s-1.7-3.1-1.7-5.5c0-2.3,0.6-4.1,1.8-5.4c1.2-1.3,2.9-2,5-2h5.5v-4.3
			c0-1.3-0.3-2.3-1-3.1c-0.7-0.8-1.7-1.2-3-1.2c-1.4,0-2.5,0.3-3.1,1c-0.6,0.7-1.1,1.9-1.5,3.8l-3.4-1c0.4-2.5,1.3-4.3,2.6-5.5
			c1.3-1.2,3.1-1.8,5.3-1.8c2.3,0,4.2,0.6,5.7,1.8c1.5,1.2,2.2,3.1,2.2,5.5v13c0,1.3,0.3,2.2,0.9,2.7c0.6,0.4,1.5,0.5,2.8,0.1v3.7
			c-1.9,0.3-3.3,0.1-4.3-0.5s-1.5-1.8-1.7-3.6h-0.7c-0.6,1.3-1.5,2.3-2.8,3.1C743.4,374,742,374.4,740.5,374.4z M741.2,370.9
			c1.3,0,2.3-0.3,3.2-0.8c0.9-0.6,1.6-1.5,2.1-2.7v-4.6h-4.9c-1.2,0-2.1,0.3-2.7,0.9c-0.6,0.6-0.9,1.6-0.9,3.1
			c0,1.3,0.2,2.4,0.7,3.1C739.2,370.5,740.1,370.9,741.2,370.9z"/>
		<path fill="#FFFFFF" d="M760.8,374v-3.6h6.5v-27.8h-6.5v-3.6h10.4v31.3h6.4v3.6H760.8z"/>
		<path fill="#FFFFFF" d="M794.6,374.4c-2.7,0-4.8-0.8-6.3-2.4c-1.5-1.6-2.2-3.8-2.2-6.7v-8.8c0-2.9,0.7-5.2,2.2-6.8
			c1.5-1.6,3.6-2.4,6.3-2.4c2.7,0,4.7,0.8,6.2,2.4c1.5,1.6,2.2,3.9,2.2,6.8v8.8c0,2.9-0.7,5.1-2.2,6.7S797.3,374.4,794.6,374.4z
			 M794.6,370.8c1.5,0,2.6-0.4,3.4-1.2c0.8-0.8,1.1-2.2,1.1-4.1v-8.9c0-1.9-0.4-3.3-1.1-4.2c-0.8-0.9-1.9-1.4-3.4-1.4
			c-1.5,0-2.6,0.5-3.4,1.4c-0.8,0.9-1.1,2.3-1.1,4.2v8.9c0,1.9,0.4,3.3,1.1,4.1C792,370.4,793.1,370.8,794.6,370.8z"/>
		<path fill="#FFFFFF" d="M811.7,374v-26.2h3.9v3.4h1c0.6-1.2,1.5-2.1,2.5-2.8c1-0.7,2.2-1,3.4-1c1.9,0,3.4,0.7,4.5,2.2
			c1.1,1.5,1.6,3.5,1.6,6.1V374h-3.9v-17.6c0-1.7-0.3-3.1-0.9-3.9c-0.6-0.9-1.5-1.3-2.6-1.3c-1.1,0-2.1,0.3-3,1
			c-0.9,0.7-1.8,1.7-2.5,3V374H811.7z"/>
		<path fill="#FFFFFF" d="M854.3,368.3c-0.7,2.1-1.6,3.7-2.9,4.7c-1.3,1-3.1,1.5-5.7,1.5c-2.6,0-4.7-0.8-6.2-2.3s-2.3-3.8-2.3-6.8
			v-8.8c0-3.1,0.8-5.4,2.4-6.9c1.6-1.5,3.6-2.3,6.1-2.3c2.5,0,4.6,0.8,6.1,2.4c1.5,1.6,2.3,4,2.3,7.2v4.7h-13v3.6
			c0,2,0.4,3.5,1.1,4.3s1.9,1.3,3.4,1.3c1.5,0,2.5-0.3,3.3-0.9c0.7-0.6,1.3-1.6,1.6-2.9L854.3,368.3z M841.2,356.7v1.8h9v-1.4
			c0-2.2-0.4-3.8-1.1-4.8c-0.7-1-1.9-1.5-3.4-1.5c-1.5,0-2.7,0.5-3.4,1.5C841.5,353.3,841.2,354.7,841.2,356.7z"/>
	</g>
</g>
<g>
	<path fill="#333333" d="M128.9,50c-6.8,0-12.6,0-20.2,0l0,0c-7.6,0-17.3,0-23.1,0l0,0c-5.8,0-7.9,0-10.1,0l0,0
		c-1.7,0-4.7,0-6.6-0.7l0,0c-0.6-0.3-1.3-0.6-1.6-1.5l0,0c-0.1-0.5-0.2-1-0.2-1.6l0,0c0-1.4,0.2-3.2,1.2-4.4l0,0
		c0.3-0.4,0.9-0.7,1.5-0.7l0,0c0.1,0,0.3,0,0.4,0l0,0l0,0c0.2,0,0.5,0.1,0.8,0.1l0,0c2,0,5-1.2,8.2-1.2l0,0c0.3,0,0.7,0,1,0.1l0,0
		c3.6,0.4,7.1,0.7,17.9,0.7l0,0c10.8,0,29.9,0,36.4,0l0,0c6.5,0,9.4,0,14,0l0,0c4.7,0,7.2,0,10.8,0l0,0c3.7,0,6.4,2.1,6.4,4.9l0,0
		c0,0.2,0,0.4-0.1,0.6l0,0c-0.4,1.8-2.1,2.6-4,3.2l0,0c-2,0.6-4.6,0.8-7.4,0.8l0,0C149.1,50.4,135.8,50,128.9,50L128.9,50z
		 M161.4,47.6c1.8-0.5,2.6-1.3,2.6-1.6l0,0c0-0.1,0-0.2,0-0.3l0,0c0-0.6-0.3-1.3-1.1-1.9l0,0c-0.7-0.6-1.9-1-3.4-1l0,0
		c-3.6,0-6.1,0-10.8,0l0,0c-4.7,0-7.6,0-14,0l0,0c-6.5,0-25.6,0-36.4,0l0,0c-10.8,0-14.5-0.4-18.1-0.7l0,0c-0.3,0-0.5,0-0.8,0l0,0
		c-2.6,0-5.6,1.2-8.2,1.2l0,0c-0.4,0-0.8,0-1.2-0.1l0,0v0c0,0,0,0-0.1,0.1l0,0c-0.1,0.1-0.2,0.3-0.3,0.7l0,0
		c-0.2,0.7-0.3,1.6-0.3,2.4l0,0c0,0.4,0,0.8,0.1,1l0,0c0,0,0,0,0,0l0,0c0,0,0.2,0.1,0.4,0.2l0,0c0.4,0.2,1,0.3,1.7,0.4l0,0
		c1.4,0.2,3.1,0.2,4.2,0.2l0,0c2.2,0,4.3,0,10.1,0l0,0c5.8,0,15.5,0,23.1,0l0,0c7.6,0,13.3,0,20.2,0l0,0c6.9,0,20.2,0.4,25.6,0.4
		l0,0C157.1,48.4,159.6,48.1,161.4,47.6L161.4,47.6z M70,43.2l0.2-1L70,43.2L70,43.2L70,43.2z"/>
	<path fill="#333333" d="M173.9,266.9c-1-0.1-2-0.2-3.1-0.2l0,0c-2.1,0-4.6,0.2-8,0.2l0,0c-5.1,0-27.8-0.4-34.9-0.4l0,0
		c-7.2,0-11.9,0-19.1,0l0,0c-7.2,0-29.9-0.7-36.7-0.7l0,0c-6.8,0-18.7,0-18.7,0l0,0c-0.5,0-0.9-0.4-1-0.9l0,0c0,0-0.7-5.4-0.7-7.3
		l0,0c0-1.9,0.4-5.5,0.7-9.8l0,0c0.4-4.3,0.7-10.8,0.7-17.2l0,0c0-6.5,0-9.4,0-12.6l0,0v-2.2c0-0.3,0.1-0.5,0.3-0.7l0,0
		c0.2-0.2,0.5-0.3,0.8-0.3l0,0c0,0,4.7,0.4,7.1,0.4l0,0c2.5,0,3.2,0,7.6,0l0,0c4.4,0,12.6,0.4,21.6,0.4l0,0c8.3,0,34.9,1.5,49.3,1.5
		l0,0c1.4,0,2.8,0,3.9,0l0,0c4.3-0.1,7.4-0.2,10-0.2l0,0c5.1,0,8.2,0.2,14.9,0.2l0,0c10.1,0,13.7,0,13.7,0l0,0c0.5,0,1,0.4,1,0.9
		l0,0c0,0,0.4,4.7,0.4,6.2l0,0c0,1.4,0,9,0,12.2l0,0c0,3.2,0,11.9,0,18.4l0,0c0,6.5,0,11.5,0,11.5l0,0c0,0.3-0.1,0.5-0.3,0.7l0,0
		c-0.2,0.2-0.4,0.3-0.7,0.3l0,0C182.6,267.3,177.2,267.3,173.9,266.9L173.9,266.9z M174.1,264.9c2.3,0.3,5.8,0.3,7.5,0.3l0,0
		c0-1.8,0-5.8,0-10.5l0,0c0-6.5,0-15.1,0-18.4l0,0c0-3.2,0-10.8,0-12.2l0,0c0-1-0.2-3.7-0.3-5.1l0,0c-1.6,0-5.5,0-12.8,0l0,0
		c-6.7,0-9.8-0.2-14.9-0.2l0,0c-2.6,0-5.6,0-9.9,0.2l0,0c-1.2,0-2.5,0-4,0l0,0c-14.6,0-41.2-1.5-49.3-1.5l0,0
		c-9,0-17.3-0.4-21.6-0.4l0,0c-4.3,0-5,0-7.6,0l0,0c-1.8,0-4.7-0.2-6.2-0.3l0,0v1.1c0,3.2,0,6.1,0,12.6l0,0c0,6.5-0.4,13-0.7,17.4
		l0,0c-0.4,4.3-0.7,8-0.7,9.6l0,0c0,1.2,0.4,4.6,0.6,6.2l0,0c2.9,0,12.1,0,17.9,0l0,0c6.9,0,29.6,0.7,36.7,0.7l0,0
		c7.2,0,11.9,0,19.1,0l0,0c7.2,0,29.9,0.4,34.9,0.4l0,0c3.3,0,5.7-0.2,8-0.2l0,0C171.9,264.8,173,264.8,174.1,264.9L174.1,264.9z"/>
	<path fill="#333333" d="M158.9,254.2c-2.4,0-6.5-0.7-15.2-1l0,0c-2.9-0.1-6.2-0.2-9.5-0.2l0,0c-6.7,0-13.8,0.2-18.8,0.2l0,0
		c-7.5,0-17.7,0.7-23.5,0.7l0,0c-5.7,0-19.7,0-20.8,0l0,0c-0.4,0-0.9-0.2-1.2-0.5l0,0c-0.3-0.4-0.3-0.8-0.3-1l0,0
		c0-1.1,0.5-2.2,0.5-2.8l0,0c0-1.4,0-6.8,0-11.6l0,0c0-4.8,0-7.2,0-9.2l0,0l0-0.2l0.4-1.7c0.1-0.5,0.6-0.8,1.1-0.8l0,0l2.6,0.3
		c0,0,4.1,0.3,8.2,0.3l0,0c4.3,0,6.9,0.7,12.1,0.7l0,0c5.3,0,11.4,0,22.3,0l0,0c11,0,8.7,0,18.5,0l0,0c9.9,0,8.4,0.3,20.4,0.3l0,0
		c10.8,0,11.4,0,11.4,0l0,0c0.3,0,0.5,0.1,0.7,0.3l0,0c0.2,0.2,0.3,0.4,0.3,0.7l0,0l0.7,4.3l0,0.2c0,0,0,5.8,0,8.5l0,0
		c0,2.7,0,11.6,0,11.6l0,0c0,0.3-0.1,0.5-0.3,0.7l0,0c-0.2,0.2-0.4,0.3-0.7,0.3l0,0C168,254.2,161.2,254.2,158.9,254.2L158.9,254.2z
		 M143.8,251.2c8.7,0.3,13,1,15.1,1l0,0c1.7,0,6.1,0,8.1,0l0,0c0-2.4,0-8.4,0-10.6l0,0c0-2.5,0-7.7,0-8.5l0,0l-0.6-3.5
		c-1.2,0-4,0-10.5,0l0,0c-12.1,0-10.6-0.3-20.4-0.3l0,0c-9.8,0-7.6,0-18.5,0l0,0c-11,0-17,0-22.3,0l0,0c-5.4,0-8.1-0.7-12.1-0.7l0,0
		c-4.2,0-8.4-0.3-8.5-0.3l0,0l-1.7-0.2l-0.2,0.7c0,2,0,4.4,0,9.1l0,0c0,4.8,0,10.2,0,11.6l0,0c0,0.9-0.3,1.9-0.4,2.4l0,0
		c2.9,0,15.1,0,20.3,0l0,0c5.6,0,15.8-0.7,23.5-0.7l0,0c5,0,12.1-0.2,18.8-0.2l0,0C137.6,251.1,140.9,251.1,143.8,251.2L143.8,251.2
		z"/>
	<path fill="#333333" d="M173,217.7l-0.3-3.7c0,0,0,0-0.1-0.1l0,0c-0.1-0.2-0.4-0.4-0.7-0.7l0,0c-0.6-0.5-1.5-1-2.7-1.2l0,0
		c-0.8-0.1-1.4-0.1-2-0.1l0,0c-1.3,0-2.2,0.2-4.3,0.5l0,0c-3,0.4-5.9,0.4-12,0.4l0,0c-6.2,0-6.6-0.4-13.7-0.7l0,0
		c-7.3-0.4-17-1.8-22.6-1.8l0,0c-5.8,0-10.8,0-18.4,0l0,0c-7.6,0-12.4-0.7-17-1.1l0,0c-4.7-0.4-5.3-0.4-7.8-0.4l0,0
		c-2,0-3.2,1.4-4.6,3.2l0,0c-0.4,0.5-0.5,1.1-0.5,1.7l0,0c0,0.4,0.1,0.9,0.2,1.2l0,0c0.1,0.3,0.1,0.5,0.1,0.5l0,0v0
		c0.2,0.5,0,1.1-0.5,1.3l0,0c-0.5,0.2-1.1,0-1.3-0.5l0,0c0-0.1-0.5-1.1-0.5-2.4l0,0c0-0.9,0.2-2,1-2.9l0,0c1.4-1.8,3.1-4,6.2-4l0,0
		c2.5,0,3.3,0,8,0.4l0,0c4.7,0.4,9.4,1.1,16.9,1.1l0,0c7.6,0,12.6,0,18.4,0l0,0c5.9,0,15.6,1.5,22.7,1.8l0,0
		c7.3,0.4,7.6,0.7,13.6,0.7l0,0c6.1,0,9,0,11.8-0.4l0,0c2-0.2,3-0.5,4.5-0.5l0,0c0.6,0,1.3,0,2.2,0.2l0,0c3.4,0.4,5,2.9,5,3l0,0
		c0.1,0.1,0.1,0.3,0.2,0.5l0,0l0.4,4c0,0.5-0.4,1-0.9,1.1l0,0c0,0-0.1,0-0.1,0l0,0C173.5,218.6,173,218.2,173,217.7L173,217.7z"/>
	<path fill="#333333" d="M115.9,174c-8.9-0.4-14.1-7.7-17.8-14.2l0,0c-3.6-6.5-9.8-18.4-12.7-27.9l0,0c-2.9-9.5-7.6-37.5-8.3-44.9
		l0,0c-0.7-7.3-0.4-13.5-0.7-17.7l0,0c-0.4-4.3-1.8-20.1-1.8-20.2l0,0l0,0c-0.1-0.6,0.4-1,0.9-1.1l0,0c0.6-0.1,1,0.4,1.1,0.9l0,0
		c0,0,1.4,15.8,1.8,20.2l0,0c0.4,4.4,0,10.5,0.7,17.6l0,0c0.7,7.1,5.4,35.3,8.2,44.5l0,0c2.8,9.2,8.9,21.1,12.5,27.5l0,0
		c3.6,6.4,8.4,12.9,16.1,13.2l0,0c3.1,0.1,5.6,0.3,7.7,0.3l0,0c3.3,0,5.2-0.4,6.4-1.5l0,0c2.3-1.9,12.2-14.4,13-18.9l0,0
		c1.1-5.2,5.1-14.1,7.6-27.4l0,0c2.5-13.4,6.8-30,6.8-39.8l0,0c0-10.1,0-21.3,0-24.5l0,0c0-3.2-0.4-10.4-0.4-10.4l0,0
		c0-0.6,0.4-1,0.9-1l0,0c0.6,0,1,0.4,1,0.9l0,0c0,0,0.4,7.2,0.4,10.5l0,0c0,3.2,0,14.4,0,24.5l0,0c0,10.3-4.4,26.9-6.9,40.2l0,0
		c-2.5,13.4-6.5,22.6-7.6,27.4l0,0c-1.3,5.6-10.9,17.5-13.7,20l0,0c-1.9,1.6-4.3,2-7.7,2l0,0C121.6,174.2,119.1,174.1,115.9,174
		L115.9,174z"/>
	<path fill="#333333" d="M75,208.5c-0.5-0.2-0.8-0.7-0.7-1.2l0,0c0,0,1.5-5.1,3.7-8.9l0,0c2.2-3.7,4.2-5.3,6.8-7.1l0,0
		c2-1.4,5.6-4.2,6.9-5.3l0,0c0,0,0-0.1-0.1-0.1l0,0c-0.2-0.5-0.6-1.1-1.3-1.7l0,0c-0.5-0.5-1.2-1.2-1.8-1.8l0,0
		c-0.6-0.7-1.1-1.5-1.1-2.5l0,0c0-0.6,0.3-1.3,0.8-1.8l0,0c1.5-1.6,3.1-2.1,5-2.1l0,0c1.8,0,4.3,0.3,5.3,0.4l0,0c0,0,0,0,0,0l0,0
		c0.1-0.1,0.3-0.4,0.5-0.8l0,0c0.4-0.7,0.9-1.8,1.9-2.5l0,0c1.2-0.9,1.4-1,1.4-1.1l0,0l3.6-2.9c0.4-0.3,1.1-0.3,1.4,0.2l0,0
		c0.3,0.4,0.3,1.1-0.2,1.4l0,0l-3.6,2.9c0,0,0,0-1.4,1.1l0,0c-0.7,0.5-1.2,1.9-2,3l0,0c-0.3,0.4-0.8,0.8-1.5,0.8l0,0
		c-1.2,0-3.7-0.4-5.4-0.4l0,0c-1.7,0-2.3,0.2-3.6,1.5l0,0c-0.2,0.2-0.2,0.2-0.2,0.3l0,0c0,0.2,0.2,0.7,0.7,1.2l0,0
		c0.5,0.5,1.1,1.1,1.7,1.7l0,0c1.6,1.6,2,3.2,2.1,3.3l0,0c0.1,0.4,0,0.8-0.4,1l0,0c0,0-5,4-7.6,5.8l0,0c-2.5,1.8-4.1,3.1-6.2,6.5
		l0,0c-1,1.7-1.9,3.8-2.5,5.5l0,0c-0.6,1.7-1,2.9-1,2.9l0,0c-0.1,0.4-0.5,0.7-1,0.7l0,0C75.2,208.6,75.1,208.5,75,208.5L75,208.5z"
		/>
	<path fill="#333333" d="M158.9,211.3l-0.4-2.8c0-0.2-0.2-0.8-0.6-1.8l0,0c-0.5-1.2-1.3-2.8-2.5-4.8l0,0c-2.3-3.6-6.8-5.4-9.5-7.7
		l0,0c-2.6-2.2-5.1-4.7-5.1-4.7l0,0c-0.3-0.3-0.4-0.7-0.2-1l0,0c0.1-0.4,0.4-0.6,0.8-0.7l0,0c0,0,0.6-0.1,1.4-0.3l0,0
		c0.8-0.2,1.7-0.4,2.3-0.7l0,0c0.8-0.3,1.3-2.1,1.2-3.8l0,0c0-0.5-0.3-0.9-0.9-1.4l0,0c-0.6-0.4-1.4-0.8-2-0.9l0,0
		c-1.3-0.3-4.9-0.7-4.9-0.7l0,0c-0.5-0.1-0.9-0.5-0.9-1l0,0v-1.2c-0.2-0.5-0.8-1.6-1.7-3l0,0c-0.2-0.4-1.6-1.3-2.9-1.7l0,0
		c-1.3-0.5-2.5-0.7-2.5-0.7l0,0l0,0c-0.5-0.1-0.9-0.6-0.8-1.2l0,0c0.1-0.5,0.6-0.9,1.2-0.8l0,0c0,0,1.3,0.3,2.8,0.8l0,0
		c1.5,0.6,3.1,1.2,4,2.5l0,0c1.1,1.8,1.8,3.3,1.8,3.3l0,0c0.1,0.1,0.1,0.3,0.1,0.4l0,0v0.5c1.2,0.1,3.2,0.4,4.3,0.6l0,0
		c0.8,0.2,1.8,0.6,2.7,1.3l0,0c0.9,0.6,1.7,1.6,1.7,3l0,0c0,1.9-0.2,4.4-2.4,5.6l0,0c-0.7,0.4-1.6,0.6-2.3,0.8l0,0
		c1,0.9,2.3,2.2,3.6,3.3l0,0c2.3,2,7.2,3.9,9.9,8.1l0,0c2.6,4.1,3.3,7.1,3.4,7.1l0,0l0,0.1l0.4,2.9c0.1,0.5-0.3,1-0.9,1.1l0,0
		c0,0-0.1,0-0.1,0l0,0C159.4,212.2,159,211.8,158.9,211.3L158.9,211.3z"/>
	<path fill="#333333" d="M136.1,189.8c-1.9,0-5.5-0.4-8.4-0.7l0,0c-0.9-0.1-1.6-0.2-2.2-0.2l0,0c-1.3,0-2.8,0.2-6.7,0.2l0,0
		c-5.7,0-8,0-11.4-0.7l0,0c-1.5-0.3-5.2-0.6-8.4-0.8l0,0c-3.3-0.2-6.1-0.3-6.1-0.3l0,0c-0.6,0-1-0.5-1-1l0,0c0-0.6,0.5-1,1-1l0,0
		c0,0,11.5,0.3,15,1.1l0,0c3.1,0.7,5.2,0.7,11,0.7l0,0c3.8,0,5.2-0.2,6.7-0.2l0,0c0.7,0,1.5,0,2.5,0.2l0,0c2.9,0.4,6.5,0.7,8.2,0.7
		l0,0c1.8,0,5.4,0,5.4,0l0,0c0.6,0,1,0.4,1,1l0,0c0,0.6-0.4,1-1,1l0,0C141.5,189.8,137.9,189.8,136.1,189.8L136.1,189.8z"/>
	<path fill="#333333" d="M108.7,179.7c-6.9-0.4-10.3-1.5-10.4-1.5l0,0v0c-0.5-0.2-0.8-0.7-0.6-1.3l0,0c0.2-0.5,0.7-0.8,1.3-0.6l0,0
		c0,0,0.7,0.2,2.3,0.6l0,0c1.6,0.3,4.1,0.7,7.5,0.8l0,0c6.9,0.4,11.6,1.1,14.7,1.1l0,0c3.2,0,4.7,0,7.2,0l0,0c2.4,0,7.8-0.7,7.8-0.7
		l0,0c0.5-0.1,1,0.3,1.1,0.9l0,0c0.1,0.5-0.3,1-0.9,1.1l0,0c0,0-5.4,0.7-8.1,0.7l0,0c-2.5,0-4,0-7.2,0l0,0
		C120.2,180.8,115.5,180.1,108.7,179.7L108.7,179.7z"/>
	<path fill="#333333" d="M86.4,147l-0.2,0c0,0,0,0-4.3-0.7l0,0c-2.3-0.4-3.6-1-4.6-1.8l0,0c-1.1-0.8-1.8-1.6-3.3-2.7l0,0
		c-1.9-1.3-4.8-4.8-7.9-8.9l0,0c-3.1-4.1-6.2-8.7-8.3-12l0,0c-4.1-6.8-7-21.5-7.4-28.2l0,0C50.2,86.9,49,73.8,49,67l0,0
		c0-0.8,0-1.6,0.1-2.2l0,0c0.3-5.6,2.6-6.7,4.2-8.5l0,0c2.1-2.4,6.7-4.9,9.6-5.4l0,0c0.5-0.1,1-0.1,1.5-0.1l0,0
		c2.4,0,4.8,0.7,6.9,1.6l0,0c2.5,1.1,4.6,1.8,4.6,1.8l0,0h0c0.5,0.2,0.8,0.7,0.6,1.3l0,0c-0.2,0.5-0.7,0.8-1.3,0.6l0,0
		c0,0-2.2-0.7-4.8-1.8l0,0c-2-0.9-4.2-1.5-6.2-1.5l0,0c-0.4,0-0.8,0-1.2,0.1l0,0c-2.1,0.2-6.9,2.8-8.4,4.7l0,0
		c-2.1,2.5-3.3,2.2-3.7,7.4l0,0c0,0.6-0.1,1.3-0.1,2.1l0,0c0,6.6,1.2,19.8,1.5,25.6l0,0c0.3,6.3,3.3,21.1,7.1,27.3l0,0
		c2,3.2,5.1,7.8,8.1,11.8l0,0c3,4,6.1,7.5,7.4,8.4l0,0c1.7,1.1,2.6,2.1,3.4,2.7l0,0c0.8,0.6,1.7,1.1,3.7,1.4l0,0
		c3.2,0.5,4,0.7,4.2,0.7l0,0h5.3c0.6,0,1,0.4,1,1l0,0c0,0.6-0.4,1-1,1l0,0H86.4L86.4,147z"/>
	<path fill="#333333" d="M83.5,137.5c-3.1-1.5-7.7-5.1-10.3-7.8l0,0c-2.6-2.6-4.2-4.9-6-8.9l0,0c-1.8-4-2.9-7.4-3.7-11.8l0,0
		c-0.7-4.4-1.1-13-2.9-19l0,0c-1.8-6.3-2.2-13.2-2.2-16.9l0,0c0-3,1.6-8.9,4-12.1l0,0c0.8-1,1.8-1.9,3.1-1.9l0,0
		c3.4,0,6.7,0.7,8.4,1.5l0,0c1.6,0.8,3.8,2.6,3.8,2.6l0,0c0.4,0.4,0.5,1,0.1,1.4l0,0c-0.4,0.4-1,0.5-1.4,0.1l0,0c0,0-0.5-0.4-1.2-1
		l0,0c-0.7-0.5-1.6-1.1-2.2-1.4l0,0c-1.2-0.6-4.4-1.3-7.5-1.3l0,0c-0.3,0-0.9,0.3-1.5,1.1l0,0c-0.6,0.8-1.3,2-1.8,3.4l0,0
		c-1.1,2.7-1.8,5.9-1.8,7.5l0,0c0,3.5,0.4,10.3,2.1,16.3l0,0c1.8,6.3,2.2,15,2.9,19.2l0,0c0.7,4.2,1.7,7.4,3.5,11.3l0,0
		c1.8,3.9,3.1,5.9,5.6,8.4l0,0c2.4,2.4,7.1,6,9.8,7.4l0,0c1.8,0.9,2.9,1,3.4,1l0,0c0.1,0,0.2,0,0.2,0l0,0l0,0
		c0.5-0.1,1.1,0.2,1.2,0.7l0,0c0.1,0.5-0.2,1.1-0.7,1.2l0,0c-0.1,0-0.3,0.1-0.7,0.1l0,0C86.9,138.7,85.5,138.5,83.5,137.5
		L83.5,137.5z"/>
	<path fill="#333333" d="M146.7,141.9c-0.2-0.5,0.1-1.1,0.6-1.3l0,0l3.3-1.1c0,0,0.6-0.2,1.4-0.5l0,0c0.8-0.3,1.9-0.7,2.7-1.2l0,0
		c1.6-1,9.6-7.2,12.7-10.9l0,0c3-3.7,10-18.6,12.1-24.6l0,0c2.1-6,7.6-24.8,8.3-27.6l0,0c0.1-0.2,0.1-0.6,0.1-1.1l0,0
		c0-3.5-2-11.1-2.6-14.3l0,0c-0.3-1.4-1.6-3.2-3.4-4.7l0,0c-1.7-1.5-3.9-2.7-5.3-3.2l0,0c-0.7-0.2-1.4-0.3-2.1-0.3l0,0
		c-2.1,0-4.4,0.9-6.6,1.8l0,0c-2.8,1-8.9,3.9-8.9,3.9l0,0c-0.5,0.2-1.1,0-1.3-0.5l0,0c-0.2-0.5,0-1.1,0.5-1.3l0,0c0,0,6.1-2.9,9.1-4
		l0,0c2.1-0.8,4.6-1.9,7.3-1.9l0,0c0.9,0,1.8,0.1,2.7,0.4l0,0c1.8,0.6,4,1.9,6,3.6l0,0c1.9,1.7,3.6,3.6,4.1,5.8l0,0
		c0.6,3.1,2.7,10.7,2.7,14.7l0,0c0,0.6,0,1.1-0.2,1.6l0,0c-0.7,3-6.1,21.6-8.3,27.8l0,0c-2.2,6.3-9,20.9-12.4,25.2l0,0
		c-3.4,4.2-11.3,10.2-13.2,11.4l0,0c-2,1.2-4.5,1.9-4.5,1.9l0,0l-3.2,1.1c-0.1,0-0.2,0.1-0.3,0.1l0,0
		C147.3,142.6,146.9,142.4,146.7,141.9L146.7,141.9z"/>
	<path fill="#333333" d="M149.2,132.4c-0.1-0.5,0.3-1.1,0.8-1.2l0,0c0,0,0.4-0.1,1-0.2l0,0c0.6-0.2,1.5-0.4,2.4-0.8l0,0
		c1.9-0.8,4-2.2,5.3-4.2l0,0c3-4.8,8.7-11.3,10.8-14.4l0,0c0.9-1.4,2.8-6,4.6-11.2l0,0c1.8-5.2,3.6-11,4.7-15.1l0,0
		c1.3-5.1,2.4-10.5,2.4-14.8l0,0c0-2.6-0.4-4.7-1.2-6.1l0,0c-2.1-3.6-5.2-4.9-8.2-5l0,0c-0.3,0-0.6,0-1,0l0,0
		c-3.7,0.4-5.2,0.4-6.7,1.6l0,0c-1.8,1.4-4.6,3.9-4.6,3.9l0,0c-0.4,0.4-1,0.3-1.4-0.1l0,0c-0.4-0.4-0.3-1,0.1-1.4l0,0
		c0,0,2.9-2.5,4.7-4l0,0c2.1-1.7,4.2-1.7,7.7-2l0,0c0.4,0,0.8-0.1,1.2-0.1l0,0c3.6,0,7.5,1.8,9.9,6l0,0c1.1,1.9,1.5,4.3,1.5,7.1l0,0
		c0,4.6-1.1,10.1-2.5,15.3l0,0c-1.1,4.2-2.9,10-4.7,15.3l0,0c-1.8,5.3-3.6,9.8-4.8,11.7l0,0c-2.2,3.4-8,9.8-10.8,14.4l0,0
		c-3.3,5.2-10,6.2-10.1,6.2l0,0c-0.1,0-0.1,0-0.2,0l0,0C149.7,133.3,149.3,132.9,149.2,132.4L149.2,132.4z"/>
	<path fill="#333333" d="M75.4,230.7c1.3,0,1.5,1.3,1.5,1.9s-0.7,1.1-1.6,1.1c-1,0-1.2-1-1.2-1.8S74.7,230.7,75.4,230.7z"/>
	<path fill="#333333" d="M75.9,247.2c1.2,0.6,0.7,1.8,0.4,2.4c-0.3,0.6-1.1,0.7-1.9,0.2c-0.9-0.4-0.6-1.5-0.2-2.1
		C74.5,247,75.3,246.8,75.9,247.2z"/>
	<path fill="#333333" d="M162.8,231.5c1-0.8,1.9,0,2.4,0.5c0.4,0.5,0.2,1.3-0.6,1.9s-1.6-0.1-2-0.6
		C162.1,232.7,162.2,231.9,162.8,231.5z"/>
	<path fill="#333333" d="M163.7,247.2c1.3,0,1.5,1.3,1.5,1.9s-0.7,1.1-1.6,1.1c-1,0-1.2-1-1.2-1.8
		C162.4,247.7,163,247.2,163.7,247.2z"/>
</g>
</svg>
