<svg version="1.1" id="Layer_1" xmlns="http://www.w3.org/2000/svg" xmlns:xlink="http://www.w3.org/1999/xlink" x="0px" y="0px"
	 width="900px" height="400px" viewBox="0 0 900 400" enable-background="new 0 0 900 400" xml:space="preserve">
<rect y="300" fill="#333333" width="900" height="100"/>
<g>
	<path fill="#ED1C24" d="M508.7,218.9h-18.8v41.8h-37.6v-41.8h-50.8v-26.1l43.7-99.3h44.7v99.3h18.8V218.9z M431.9,192.8h20.3v-45.2
		L431.9,192.8z"/>
	<path fill="#ED1C24" d="M528.7,260.7v-27.6h30.1V127.3h-4.6c-1.1,8.8-4.1,15.7-9,20.7c-4.9,5-10.7,7.5-17.4,7.3l-1.7-27.8
		c7.9-0.3,15.1-3.7,21.3-10.1c6.3-6.5,10.2-14.5,11.7-23.9h37.2v139.7h24.9v27.6H528.7z"/>
	<path fill="#ED1C24" d="M696.6,262.8c-15.3,0-27.3-5.8-36-17.2c-8.6-11.5-13-27.6-13-48.2v-39.7c0-20.9,4.3-37.2,13-48.8
		c8.6-11.6,20.6-17.5,36-17.5c15.3,0,27.3,5.8,36,17.5c8.6,11.6,13,27.9,13,48.8v39.7c0,20.6-4.3,36.7-13,48.2
		C723.9,257.1,712,262.8,696.6,262.8z M696.6,236.7c6,0,10.1-3,12.3-9c2.2-6,3.3-17.1,3.3-33.2v-33.9c0-16.4-1.1-27.7-3.3-33.9
		c-2.2-6.1-6.3-9.2-12.3-9.2c-6,0-10.1,3.1-12.3,9.2c-2.2,6.1-3.3,17.4-3.3,33.9v33.9c0,16.2,1.1,27.3,3.3,33.2
		C686.5,233.7,690.6,236.7,696.6,236.7z M696.6,194.9c-3.5,0-6.2-0.8-8.3-2.3c-2-1.5-3-4.5-3-8.8v-13.2c0-4.2,1-7.1,3-8.7
		c2-1.6,4.8-2.4,8.3-2.4c3.3,0,6,0.8,8,2.4c2,1.6,3,4.5,3,8.7v13.2c0,4.3-1,7.2-3.1,8.8C702.5,194.1,699.8,194.9,696.6,194.9z"/>
	<path fill="#ED1C24" d="M875.6,218.9h-18.8v41.8h-37.6v-41.8h-50.8v-26.1L812,93.5h44.7v99.3h18.8V218.9z M798.9,192.8h20.3v-45.2
		L798.9,192.8z"/>
</g>
<g>
	<g>
		<path fill="#FFFFFF" d="M45.1,370.6c-0.4,1.2-1.2,2.1-2.2,2.8c-1,0.7-2.2,1-3.6,1c-1.9,0-3.4-0.8-4.5-2.5
			c-1.1-1.6-1.7-3.9-1.7-6.8v-8.7c0-2.9,0.7-5.1,2.2-6.7c1.5-1.6,3.5-2.4,6.2-2.4c0.7,0,1.5,0.1,2.3,0.3c0.8,0.2,1.6,0.6,2.3,1v-9.6
			H50V374h-3.9v-3.4H45.1z M40.7,370.6c1.1,0,2.1-0.3,3-1c0.9-0.7,1.7-1.7,2.4-3.1v-14c-0.6-0.6-1.3-1.1-2-1.3
			c-0.7-0.3-1.5-0.4-2.3-0.4c-1.6,0-2.8,0.5-3.6,1.4c-0.8,0.9-1.1,2.4-1.1,4.4v8.9c0,1.8,0.3,3.1,0.9,4
			C38.5,370.2,39.4,370.6,40.7,370.6z"/>
		<path fill="#FFFFFF" d="M75.7,368.3c-0.7,2.1-1.6,3.7-2.9,4.7c-1.3,1-3.1,1.5-5.7,1.5c-2.6,0-4.7-0.8-6.2-2.3s-2.3-3.8-2.3-6.8
			v-8.8c0-3.1,0.8-5.4,2.4-6.9c1.6-1.5,3.6-2.3,6.1-2.3c2.5,0,4.6,0.8,6.1,2.4c1.5,1.6,2.3,4,2.3,7.2v4.7h-13v3.6
			c0,2,0.4,3.5,1.1,4.3c0.8,0.9,1.9,1.3,3.4,1.3c1.5,0,2.5-0.3,3.3-0.9c0.7-0.6,1.3-1.6,1.6-2.9L75.7,368.3z M62.6,356.7v1.8h9v-1.4
			c0-2.2-0.4-3.8-1.1-4.8c-0.7-1-1.9-1.5-3.4-1.5c-1.5,0-2.7,0.5-3.4,1.5C62.9,353.3,62.6,354.7,62.6,356.7z"/>
		<path fill="#FFFFFF" d="M92.7,374.4c-0.8,0-1.5-0.1-2.3-0.3c-0.8-0.2-1.5-0.6-2.3-1v9.6h-3.9v-34.9h3.9v3.4h1
			c0.4-1.2,1.1-2.1,2.1-2.8c1-0.7,2.2-1,3.7-1c1.9,0,3.5,0.8,4.6,2.5s1.6,3.9,1.6,6.8v8.7c0,2.9-0.7,5.1-2.2,6.7
			C97.4,373.6,95.3,374.4,92.7,374.4z M92.4,371c1.6,0,2.7-0.5,3.5-1.4c0.8-1,1.2-2.4,1.2-4.3v-8.9c0-1.7-0.3-3-0.9-3.9
			c-0.6-0.9-1.5-1.3-2.7-1.3c-1.1,0-2.1,0.3-3,1c-0.9,0.7-1.7,1.7-2.4,3.1v14c0.6,0.6,1.3,1,2,1.3C90.8,370.8,91.6,371,92.4,371z"/>
		<path fill="#FFFFFF" d="M109.8,374v-3.6h6.5v-27.8h-6.5v-3.6h10.4v31.3h6.4v3.6H109.8z"/>
		<path fill="#FFFFFF" d="M143.7,374.4c-2.7,0-4.8-0.8-6.3-2.4c-1.5-1.6-2.2-3.8-2.2-6.7v-8.8c0-2.9,0.7-5.2,2.2-6.8
			c1.5-1.6,3.6-2.4,6.3-2.4c2.7,0,4.7,0.8,6.2,2.4c1.5,1.6,2.2,3.9,2.2,6.8v8.8c0,2.9-0.7,5.1-2.2,6.7
			C148.4,373.6,146.4,374.4,143.7,374.4z M143.7,370.8c1.5,0,2.6-0.4,3.4-1.2c0.8-0.8,1.1-2.2,1.1-4.1v-8.9c0-1.9-0.4-3.3-1.1-4.2
			c-0.8-0.9-1.9-1.4-3.4-1.4c-1.5,0-2.6,0.5-3.4,1.4c-0.8,0.9-1.1,2.3-1.1,4.2v8.9c0,1.9,0.4,3.3,1.1,4.1
			C141,370.4,142.2,370.8,143.7,370.8z"/>
		<path fill="#FFFFFF" d="M164,382.9c-0.6,0-1.2,0-1.9-0.1c-0.7-0.1-1.4-0.2-2.1-0.3l0.5-3.6c0.6,0.1,1.2,0.3,1.8,0.3
			c0.5,0.1,1,0.1,1.5,0.1c1.3,0,2.3-0.4,2.9-1.1s1.2-1.9,1.7-3.5l0.1-0.5h-2l-6.6-26.4h4.2l5.3,22.9l5.2-22.9h4.1l-6.5,27.1
			c-0.8,3.1-1.8,5.2-3.3,6.3C167.3,382.4,165.7,382.9,164,382.9z"/>
		<path fill="#FFFFFF" d="M195.1,374.4c-1.7,0-3.4-0.3-5-0.8c-1.7-0.6-3.1-1.3-4.3-2.4l1.4-3.2c1.1,0.8,2.3,1.5,3.7,2
			c1.4,0.5,2.8,0.8,4.2,0.8c1.5,0,2.7-0.3,3.4-0.9c0.7-0.6,1.1-1.5,1.1-2.7c0-1.4-0.4-2.4-1.2-3c-0.8-0.6-2.2-1.1-4.3-1.7
			c-2.8-0.7-4.8-1.7-6-2.9c-1.2-1.2-1.7-2.8-1.7-4.9c0-2.4,0.7-4.2,2.1-5.5c1.4-1.3,3.3-2,5.7-2c1.5,0,3,0.3,4.6,0.9
			c1.5,0.6,2.9,1.4,4,2.4l-1.4,3.2c-1-0.8-2.1-1.4-3.4-2c-1.3-0.6-2.5-0.9-3.8-0.9c-1.3,0-2.3,0.3-2.9,0.9c-0.6,0.6-0.9,1.5-0.9,2.7
			c0,1.4,0.4,2.4,1.2,3s2.3,1.1,4.4,1.7c2.7,0.7,4.7,1.7,5.8,2.9c1.1,1.2,1.7,2.8,1.7,4.8c0,2.4-0.8,4.2-2.3,5.5
			C199.8,373.8,197.8,374.4,195.1,374.4z"/>
		<path fill="#FFFFFF" d="M249.7,374.4c-2.4,0-4.2-0.7-5.5-2.2c-1.3-1.5-2-3.5-2-6v-14.7h-5.4v-3.6h5.4v-8.7h3.9v8.7h8.2v3.6h-8.2
			v14.2c0,1.7,0.3,2.9,0.9,3.8s1.5,1.3,2.7,1.3c0.8,0,1.5-0.1,2.2-0.2c0.7-0.1,1.4-0.4,2-0.7l0.7,3.7c-0.6,0.2-1.3,0.5-2.2,0.7
			C251.5,374.2,250.6,374.4,249.7,374.4z"/>
		<path fill="#FFFFFF" d="M271.3,374.4c-2.7,0-4.8-0.8-6.3-2.4c-1.5-1.6-2.2-3.8-2.2-6.7v-8.8c0-2.9,0.7-5.2,2.2-6.8
			c1.5-1.6,3.6-2.4,6.3-2.4c2.7,0,4.7,0.8,6.2,2.4c1.5,1.6,2.2,3.9,2.2,6.8v8.8c0,2.9-0.7,5.1-2.2,6.7
			C276.1,373.6,274,374.4,271.3,374.4z M271.3,370.8c1.5,0,2.6-0.4,3.4-1.2c0.8-0.8,1.1-2.2,1.1-4.1v-8.9c0-1.9-0.4-3.3-1.1-4.2
			c-0.8-0.9-1.9-1.4-3.4-1.4c-1.5,0-2.6,0.5-3.4,1.4c-0.8,0.9-1.1,2.3-1.1,4.2v8.9c0,1.9,0.4,3.3,1.1,4.1
			C268.7,370.4,269.8,370.8,271.3,370.8z"/>
		<path fill="#FFFFFF" d="M313.8,374v-34.9h9.4c2.9,0,5.1,0.7,6.4,2.2c1.3,1.5,2,3.8,2,7v3.9c0,3.3-0.7,5.6-2,7.1
			c-1.4,1.5-3.5,2.2-6.4,2.2h-5.4V374H313.8z M317.8,358.1h5.2c1.7,0,2.9-0.5,3.6-1.4c0.7-0.9,1.1-2.4,1.1-4.5v-4
			c0-2-0.4-3.5-1.1-4.4c-0.7-0.9-1.9-1.4-3.6-1.4h-5.2V358.1z"/>
		<path fill="#FFFFFF" d="M343.3,374h-4v-34.9h10.1c2.7,0,4.8,0.8,6.2,2.3c1.4,1.5,2.1,3.8,2.1,6.8v2.7c0,2.7-0.5,4.8-1.5,6.3
			c-1,1.5-2.5,2.5-4.6,2.9l6.5,13.9h-4.4l-6.4-13.7h-3.9V374z M343.3,356.8h5.8c1.6,0,2.8-0.5,3.5-1.4s1.1-2.5,1.1-4.5v-2.7
			c0-1.9-0.4-3.3-1.1-4.2c-0.7-0.9-1.9-1.4-3.5-1.4h-5.8V356.8z"/>
		<path fill="#FFFFFF" d="M373.4,374.4c-2.9,0-5.2-1-6.7-3.1c-1.6-2-2.3-5-2.3-8.8v-11.9c0-3.9,0.8-6.9,2.3-8.9
			c1.6-2.1,3.8-3.1,6.7-3.1c2.9,0,5.2,1,6.7,3.1c1.5,2.1,2.3,5,2.3,8.9v11.9c0,3.8-0.8,6.8-2.3,8.8
			C378.6,373.4,376.4,374.4,373.4,374.4z M373.4,370.9c1.8,0,3.1-0.6,3.9-1.9c0.8-1.2,1.2-3.4,1.2-6.4v-12.1c0-3.1-0.4-5.3-1.2-6.5
			c-0.8-1.3-2.1-1.9-3.9-1.9c-1.9,0-3.2,0.6-3.9,1.9c-0.8,1.3-1.2,3.4-1.2,6.5v12.1c0,3,0.4,5.2,1.2,6.4
			C370.3,370.3,371.6,370.9,373.4,370.9z"/>
		<path fill="#FFFFFF" d="M390.4,374v-34.9h7.8c3,0,5.4,1.1,7.2,3.2c1.8,2.1,2.7,5,2.7,8.6v11.4c0,3.5-0.9,6.4-2.7,8.5
			c-1.8,2.1-4.2,3.2-7.2,3.2H390.4z M394.4,370.5h3.7c1.9,0,3.4-0.7,4.4-2.1c1-1.4,1.5-3.4,1.5-6v-11.7c0-2.7-0.5-4.7-1.5-6.1
			c-1-1.4-2.5-2.1-4.4-2.1h-3.7V370.5z"/>
		<path fill="#FFFFFF" d="M453.9,374.4c-2.4,0-4.2-0.7-5.5-2.2c-1.3-1.5-2-3.5-2-6v-14.7H441v-3.6h5.4v-8.7h3.9v8.7h8.2v3.6h-8.2
			v14.2c0,1.7,0.3,2.9,0.9,3.8c0.6,0.8,1.5,1.3,2.7,1.3c0.8,0,1.5-0.1,2.2-0.2c0.7-0.1,1.4-0.4,2-0.7l0.7,3.7
			c-0.6,0.2-1.3,0.5-2.2,0.7C455.7,374.2,454.8,374.4,453.9,374.4z"/>
		<path fill="#FFFFFF" d="M467.1,374v-34.9h3.9v12.1h1c0.4-1.2,1.1-2.1,2.1-2.8c1-0.7,2.3-1,3.7-1c1.8,0,3.3,0.7,4.5,2.2
			c1.1,1.5,1.7,3.5,1.7,6V374H480v-17.8c0-1.7-0.3-3-0.9-3.8c-0.6-0.9-1.5-1.3-2.6-1.3c-1.1,0-2.1,0.3-3,1c-0.9,0.6-1.8,1.6-2.5,2.9
			v19H467.1z"/>
		<path fill="#FFFFFF" d="M509.7,368.3c-0.7,2.1-1.6,3.7-2.9,4.7c-1.3,1-3.1,1.5-5.7,1.5c-2.6,0-4.7-0.8-6.2-2.3s-2.3-3.8-2.3-6.8
			v-8.8c0-3.1,0.8-5.4,2.4-6.9s3.6-2.3,6.1-2.3c2.5,0,4.6,0.8,6.1,2.4c1.5,1.6,2.3,4,2.3,7.2v4.7h-13v3.6c0,2,0.4,3.5,1.1,4.3
			c0.8,0.9,1.9,1.3,3.4,1.3c1.5,0,2.5-0.3,3.3-0.9c0.7-0.6,1.3-1.6,1.6-2.9L509.7,368.3z M496.5,356.7v1.8h9v-1.4
			c0-2.2-0.4-3.8-1.1-4.8c-0.7-1-1.9-1.5-3.4-1.5c-1.5,0-2.7,0.5-3.4,1.5C496.9,353.3,496.5,354.7,496.5,356.7z"/>
		<path fill="#FFFFFF" d="M552.2,374.4c-0.8,0-1.5-0.1-2.3-0.3s-1.5-0.6-2.3-1v9.6h-3.9v-34.9h3.9v3.4h1c0.4-1.2,1.1-2.1,2.1-2.8
			c1-0.7,2.2-1,3.7-1c1.9,0,3.5,0.8,4.6,2.5c1.1,1.6,1.6,3.9,1.6,6.8v8.7c0,2.9-0.7,5.1-2.2,6.7
			C556.8,373.6,554.8,374.4,552.2,374.4z M551.9,371c1.6,0,2.7-0.5,3.5-1.4c0.8-1,1.2-2.4,1.2-4.3v-8.9c0-1.7-0.3-3-0.9-3.9
			c-0.6-0.9-1.5-1.3-2.7-1.3c-1.1,0-2.1,0.3-3,1c-0.9,0.7-1.7,1.7-2.4,3.1v14c0.6,0.6,1.3,1,2,1.3C550.3,370.8,551.1,371,551.9,371z
			"/>
		<path fill="#FFFFFF" d="M574.6,374.4c-2,0-3.6-0.7-4.7-2s-1.7-3.1-1.7-5.5c0-2.3,0.6-4.1,1.8-5.4c1.2-1.3,2.9-2,5-2h5.5v-4.3
			c0-1.3-0.3-2.3-1-3.1c-0.7-0.8-1.7-1.2-3-1.2c-1.4,0-2.5,0.3-3.1,1c-0.6,0.7-1.1,1.9-1.5,3.8l-3.4-1c0.4-2.5,1.3-4.3,2.6-5.5
			c1.3-1.2,3.1-1.8,5.3-1.8c2.3,0,4.2,0.6,5.7,1.8c1.5,1.2,2.2,3.1,2.2,5.5v13c0,1.3,0.3,2.2,0.9,2.7c0.6,0.4,1.5,0.5,2.8,0.1v3.7
			c-1.9,0.3-3.3,0.1-4.3-0.5s-1.5-1.8-1.7-3.6h-0.7c-0.6,1.3-1.5,2.3-2.8,3.1C577.5,374,576.1,374.4,574.6,374.4z M575.3,370.9
			c1.3,0,2.3-0.3,3.2-0.8c0.9-0.6,1.6-1.5,2.1-2.7v-4.6h-4.9c-1.2,0-2.1,0.3-2.7,0.9c-0.6,0.6-0.9,1.6-0.9,3.1
			c0,1.3,0.2,2.4,0.7,3.1C573.3,370.5,574.1,370.9,575.3,370.9z"/>
		<path fill="#FFFFFF" d="M603.6,374.4c-1.7,0-3.4-0.3-5-0.8c-1.7-0.6-3.1-1.3-4.3-2.4l1.4-3.2c1.1,0.8,2.3,1.5,3.7,2
			s2.8,0.8,4.2,0.8c1.5,0,2.7-0.3,3.4-0.9c0.7-0.6,1.1-1.5,1.1-2.7c0-1.4-0.4-2.4-1.2-3c-0.8-0.6-2.2-1.1-4.3-1.7
			c-2.8-0.7-4.8-1.7-6-2.9c-1.2-1.2-1.7-2.8-1.7-4.9c0-2.4,0.7-4.2,2.1-5.5c1.4-1.3,3.3-2,5.7-2c1.5,0,3,0.3,4.6,0.9
			c1.5,0.6,2.9,1.4,4,2.4l-1.4,3.2c-1-0.8-2.1-1.4-3.4-2c-1.3-0.6-2.5-0.9-3.8-0.9c-1.3,0-2.3,0.3-2.9,0.9c-0.6,0.6-0.9,1.5-0.9,2.7
			c0,1.4,0.4,2.4,1.2,3c0.8,0.6,2.3,1.1,4.4,1.7c2.7,0.7,4.7,1.7,5.8,2.9c1.1,1.2,1.7,2.8,1.7,4.8c0,2.4-0.8,4.2-2.3,5.5
			C608.3,373.8,606.2,374.4,603.6,374.4z"/>
		<path fill="#FFFFFF" d="M632.6,374.4c-2.4,0-4.2-0.7-5.5-2.2c-1.3-1.5-2-3.5-2-6v-14.7h-5.4v-3.6h5.4v-8.7h3.9v8.7h8.2v3.6H629
			v14.2c0,1.7,0.3,2.9,0.9,3.8c0.6,0.8,1.5,1.3,2.7,1.3c0.8,0,1.5-0.1,2.2-0.2c0.7-0.1,1.4-0.4,2-0.7l0.7,3.7
			c-0.6,0.2-1.3,0.5-2.2,0.7C634.4,374.2,633.5,374.4,632.6,374.4z"/>
		<path fill="#FFFFFF" d="M679.5,374.4c-3.4,0-5.7-0.8-7-2.4c-1.3-1.6-2-4.1-2.1-7.4l4-0.4c0.2,2.7,0.6,4.6,1.3,5.5s2,1.4,3.8,1.4
			c1.9,0,3.3-0.5,4.1-1.5c0.8-1,1.2-2.6,1.2-5v-1.2c0-2.3-0.4-4-1.1-4.9c-0.7-0.9-2.1-1.3-4-1.3h-3.4v-3.6h3.4
			c1.7,0,2.8-0.4,3.4-1.1c0.6-0.7,1-2,1-3.8v-1.4c0-1.9-0.3-3.3-1-4.1c-0.7-0.8-1.9-1.2-3.6-1.2c-1.5,0-2.6,0.4-3.3,1.3
			c-0.7,0.9-1.1,2.5-1.2,4.9l-4-0.4c0.1-3.3,0.9-5.6,2.3-7c1.4-1.4,3.4-2.1,6.1-2.1c2.6,0,4.7,0.7,6.3,2.1c1.6,1.4,2.4,3.6,2.4,6.7
			v1.5c0,1.7-0.5,3.1-1.4,4.1s-2.1,1.6-3.7,1.7v1.3c1.8,0.2,3.2,1,4.2,2.4c1,1.4,1.5,3,1.5,4.9v1.2c0,3-0.7,5.5-2.2,7.2
			C685.2,373.5,682.8,374.4,679.5,374.4z"/>
		<path fill="#FFFFFF" d="M705.3,374.4c-3,0-5.3-1-6.8-3.1c-1.5-2.1-2.3-5.2-2.3-9.3v-11.5c0-4,0.8-6.9,2.3-8.9
			c1.5-2,3.8-2.9,6.8-2.9c2.8,0,4.8,0.6,6.1,1.8c1.3,1.2,2.2,3.2,2.6,6l-4.3,1c-0.3-2.1-0.8-3.5-1.4-4.2c-0.6-0.7-1.7-1-3.2-1
			c-1.8,0-3.1,0.6-3.8,1.9c-0.8,1.3-1.1,3.4-1.1,6.3v5.1h0.5c0.6-1.2,1.3-2,2.2-2.6s2-0.8,3.4-0.8c2.8,0,4.8,1,6.1,2.9
			c1.3,1.9,1.9,4.4,1.9,7.4v1c0,3.6-0.8,6.3-2.3,8.2C710.5,373.5,708.3,374.4,705.3,374.4z M705.2,370.8c1.7,0,3-0.6,3.8-1.7
			s1.2-3,1.2-5.5v-0.6c0-2.5-0.4-4.3-1.2-5.5s-2.1-1.7-3.8-1.7s-3,0.6-3.8,1.7c-0.8,1.1-1.2,3-1.2,5.5v0.6c0,2.5,0.4,4.3,1.2,5.5
			C702.2,370.2,703.5,370.8,705.2,370.8z"/>
		<path fill="#FFFFFF" d="M730.5,374.4c-3.3,0-5.6-0.7-6.9-2.1c-1.3-1.4-2-4-2.1-7.8l4-0.4c0.1,2.8,0.5,4.6,1.2,5.5
			c0.7,0.8,1.9,1.3,3.9,1.3c2,0,3.4-0.5,4.2-1.5c0.8-1,1.2-2.5,1.2-4.5v-2.2c0-2-0.3-3.5-1-4.6c-0.7-1.1-1.8-1.6-3.4-1.6h-9.1v-17.3
			h16.2v3.6h-12.2v9.9h5.6c2.5,0,4.4,0.8,5.8,2.3c1.4,1.5,2.1,4,2.1,7.4v2.7c0,2.9-0.8,5.2-2.3,6.8S733.6,374.4,730.5,374.4z"/>
		<path fill="#FFFFFF" d="M785.4,370.6c-0.4,1.2-1.2,2.1-2.2,2.8c-1,0.7-2.2,1-3.6,1c-1.9,0-3.4-0.8-4.5-2.5
			c-1.1-1.6-1.7-3.9-1.7-6.8v-8.7c0-2.9,0.7-5.1,2.2-6.7c1.5-1.6,3.5-2.4,6.2-2.4c0.7,0,1.5,0.1,2.3,0.3c0.8,0.2,1.6,0.6,2.3,1v-9.6
			h3.9V374h-3.9v-3.4H785.4z M781,370.6c1.1,0,2.1-0.3,3-1c0.9-0.7,1.7-1.7,2.4-3.1v-14c-0.6-0.6-1.3-1.1-2-1.3s-1.5-0.4-2.3-0.4
			c-1.6,0-2.8,0.5-3.6,1.4c-0.8,0.9-1.1,2.4-1.1,4.4v8.9c0,1.8,0.3,3.1,0.9,4S779.7,370.6,781,370.6z"/>
		<path fill="#FFFFFF" d="M804.3,374.4c-2,0-3.6-0.7-4.7-2s-1.7-3.1-1.7-5.5c0-2.3,0.6-4.1,1.8-5.4c1.2-1.3,2.9-2,5-2h5.5v-4.3
			c0-1.3-0.3-2.3-1-3.1c-0.7-0.8-1.7-1.2-3-1.2c-1.4,0-2.5,0.3-3.1,1s-1.1,1.9-1.5,3.8l-3.4-1c0.4-2.5,1.3-4.3,2.6-5.5
			c1.3-1.2,3.1-1.8,5.3-1.8c2.3,0,4.2,0.6,5.7,1.8c1.5,1.2,2.2,3.1,2.2,5.5v13c0,1.3,0.3,2.2,0.9,2.7c0.6,0.4,1.5,0.5,2.8,0.1v3.7
			c-1.9,0.3-3.3,0.1-4.3-0.5c-1-0.7-1.5-1.8-1.7-3.6h-0.7c-0.6,1.3-1.5,2.3-2.7,3.1C807.2,374,805.9,374.4,804.3,374.4z M805,370.9
			c1.2,0,2.3-0.3,3.2-0.8c0.9-0.6,1.6-1.5,2.1-2.7v-4.6h-4.9c-1.2,0-2.1,0.3-2.7,0.9c-0.6,0.6-0.9,1.6-0.9,3.1
			c0,1.3,0.2,2.4,0.7,3.1C803.1,370.5,803.9,370.9,805,370.9z"/>
		<path fill="#FFFFFF" d="M827.7,382.9c-0.6,0-1.2,0-1.9-0.1c-0.7-0.1-1.4-0.2-2.1-0.3l0.5-3.6c0.6,0.1,1.2,0.3,1.8,0.3
			c0.5,0.1,1,0.1,1.5,0.1c1.3,0,2.3-0.4,2.9-1.1s1.2-1.9,1.7-3.5l0.1-0.5h-2l-6.6-26.4h4.2l5.3,22.9l5.2-22.9h4.1l-6.5,27.1
			c-0.8,3.1-1.8,5.2-3.3,6.3C831,382.4,829.4,382.9,827.7,382.9z"/>
		<path fill="#FFFFFF" d="M858.8,374.4c-1.7,0-3.4-0.3-5-0.8c-1.7-0.6-3.1-1.3-4.3-2.4l1.4-3.2c1.1,0.8,2.3,1.5,3.7,2
			c1.4,0.5,2.8,0.8,4.2,0.8c1.5,0,2.7-0.3,3.4-0.9s1.1-1.5,1.1-2.7c0-1.4-0.4-2.4-1.2-3c-0.8-0.6-2.2-1.1-4.3-1.7
			c-2.8-0.7-4.8-1.7-6-2.9c-1.2-1.2-1.7-2.8-1.7-4.9c0-2.4,0.7-4.2,2.1-5.5c1.4-1.3,3.3-2,5.7-2c1.5,0,3,0.3,4.6,0.9
			c1.5,0.6,2.9,1.4,4,2.4l-1.4,3.2c-1-0.8-2.1-1.4-3.4-2c-1.3-0.6-2.5-0.9-3.8-0.9c-1.3,0-2.3,0.3-2.9,0.9c-0.6,0.6-0.9,1.5-0.9,2.7
			c0,1.4,0.4,2.4,1.2,3s2.3,1.1,4.4,1.7c2.7,0.7,4.7,1.7,5.8,2.9c1.1,1.2,1.7,2.8,1.7,4.8c0,2.4-0.8,4.2-2.3,5.5
			C863.5,373.8,861.5,374.4,858.8,374.4z"/>
	</g>
</g>
<g>
	<circle fill="#333333" cx="49" cy="85.3" r="7.5"/>
	<circle fill="#333333" cx="73" cy="85.3" r="7.5"/>
	<circle fill="#333333" cx="97" cy="85.3" r="7.5"/>
</g>
<g>
	<circle fill="#333333" cx="49" cy="158.2" r="7.5"/>
	<circle fill="#333333" cx="73" cy="158.2" r="7.5"/>
	<circle fill="#333333" cx="97" cy="158.2" r="7.5"/>
</g>
<g>
	<circle fill="#333333" cx="49" cy="231" r="7.5"/>
	<circle fill="#333333" cx="73" cy="231" r="7.5"/>
	<circle fill="#333333" cx="97" cy="231" r="7.5"/>
</g>
<rect x="20" y="201" fill="none" stroke="#333333" stroke-width="4" stroke-miterlimit="10" width="340" height="60"/>
<rect x="20" y="128" fill="none" stroke="#333333" stroke-width="4" stroke-miterlimit="10" width="340" height="60"/>
<rect x="20" y="55" fill="none" stroke="#333333" stroke-width="4" stroke-miterlimit="10" width="340" height="60"/>
</svg>
