<svg version="1.1" id="Layer_1" xmlns="http://www.w3.org/2000/svg" xmlns:xlink="http://www.w3.org/1999/xlink" x="0px" y="0px"
	 width="900px" height="400px" viewBox="0 0 900 400" enable-background="new 0 0 900 400" xml:space="preserve">
<rect y="300" fill="#333333" width="900" height="100"/>
<g>
	<path fill="#0071BC" d="M258.8,262.4c-13.1,0-23-3.2-29.7-9.7c-6.7-6.4-10.3-16.2-10.9-29.3l29.5-1.6c0.4,6.8,1.5,11.7,3.3,14.7
		c1.7,3.1,4.1,4.6,7.2,4.6c3.1,0,5.2-1.1,6.5-3.2c1.3-2.1,2-5.5,2-10.2v-11c0-4.7-0.9-8.2-2.8-10.6c-1.9-2.3-4.4-3.5-7.7-3.5h-12.4
		v-21.3h12.4c3.1,0,5.2-0.7,6.3-2.2c1.1-1.5,1.7-4.4,1.7-8.8v-10.1c0-3.8-0.5-6.6-1.6-8.3c-1-1.7-2.6-2.5-4.7-2.5
		c-2.4,0-4.2,1.3-5.4,3.8c-1.2,2.6-2,6.7-2.5,12.4l-29.5-1.6c0.5-12,3.8-21,9.7-26.9c5.9-5.9,14.6-8.9,26.2-8.9
		c12.2,0,21.5,2.5,27.7,7.4c6.3,5,9.4,12.4,9.4,22.2v6.9c0,6.3-1.6,11.8-4.9,16.4c-3.3,4.6-7.5,7.3-12.8,8v4.7
		c5.9,0.9,10.7,3.9,14.5,9.2c3.8,5.2,5.6,11.5,5.6,18.8v6.5c0,11.2-3.1,19.7-9.4,25.4C280.5,259.5,271.2,262.4,258.8,262.4z"/>
	<path fill="#0071BC" d="M353.4,262.4c-13.9,0-23.8-3.1-29.7-9.3c-5.9-6.2-9.2-16.9-9.7-31.9l29.5-1.6c0.8,8.8,1.8,14.8,3.2,17.8
		c1.4,3.1,3.7,4.6,7,4.6c3.5,0,5.8-1.1,7-3.4c1.2-2.3,1.8-6.7,1.8-13.3v-12.1c0-5.9-1.1-10-3.3-12.2c-2.2-2.2-6.2-3.4-11.9-3.4
		h-29.5v-67.7h70.9v20.5h-41.4v25.5h12.3c10.9,0,19,2.7,24.4,8.2c5.3,5.5,8,13.7,8,24.7v17.2c0,12.1-3.2,21.2-9.7,27.3
		C375.8,259.3,366.2,262.4,353.4,262.4z"/>
	<path fill="#0071BC" d="M413.6,260.7v-21.6h23.6v-82.8h-3.6c-0.9,6.9-3.2,12.3-7,16.2c-3.8,3.9-8.3,5.8-13.6,5.7l-1.3-21.8
		c6.2-0.2,11.8-2.9,16.7-7.9c4.9-5.1,8-11.3,9.2-18.7h29.1v109.3h19.5v21.6H413.6z"/>
	<path fill="#0071BC" d="M546,262.4c-13.1,0-23-3.2-29.7-9.7c-6.7-6.4-10.3-16.2-10.9-29.3l29.5-1.6c0.4,6.8,1.5,11.7,3.3,14.7
		c1.7,3.1,4.1,4.6,7.2,4.6c3.1,0,5.2-1.1,6.5-3.2c1.3-2.1,2-5.5,2-10.2v-11c0-4.7-0.9-8.2-2.8-10.6c-1.9-2.3-4.4-3.5-7.7-3.5H531
		v-21.3h12.4c3.1,0,5.2-0.7,6.3-2.2s1.7-4.4,1.7-8.8v-10.1c0-3.8-0.5-6.6-1.6-8.3c-1-1.7-2.6-2.5-4.7-2.5c-2.4,0-4.2,1.3-5.4,3.8
		c-1.2,2.6-2,6.7-2.5,12.4l-29.5-1.6c0.5-12,3.8-21,9.7-26.9c5.9-5.9,14.6-8.9,26.2-8.9c12.2,0,21.5,2.5,27.7,7.4
		c6.3,5,9.4,12.4,9.4,22.2v6.9c0,6.3-1.6,11.8-4.9,16.4s-7.5,7.3-12.8,8v4.7c5.9,0.9,10.7,3.9,14.5,9.2c3.8,5.2,5.6,11.5,5.6,18.8
		v6.5c0,11.2-3.1,19.7-9.4,25.4C567.6,259.5,558.3,262.4,546,262.4z"/>
	<path fill="#0071BC" d="M640.8,262.4c-12.7,0-22.2-2.9-28.6-8.8c-6.4-5.8-9.7-14.6-9.7-26.3v-6.9c0-7.2,1.9-13.1,5.6-17.8
		c3.7-4.7,8.8-7.5,15.4-8.5v-4.7c-5.3-0.7-9.8-2.9-13.3-6.7c-3.5-3.8-5.2-8.8-5.2-15.1v-8.5c0-10.3,3-18,9-23.2
		c6-5.2,14.9-7.8,26.8-7.8c11.9,0,20.8,2.6,26.8,7.8c6,5.2,9,12.9,9,23.2v8.5c0,6.2-1.8,11.2-5.3,15.1c-3.5,3.8-8,6.1-13.3,6.7v4.7
		c6.5,1,11.7,3.8,15.5,8.6c3.8,4.7,5.6,10.7,5.6,17.8v6.9c0,11.7-3.2,20.4-9.7,26.3C663,259.4,653.4,262.4,640.8,262.4z
		 M640.8,241.1c3.3,0,5.6-1.1,6.9-3.4c1.3-2.2,2-6.1,2-11.5v-8.8c0-5.6-0.7-9.5-2-11.8c-1.3-2.3-3.6-3.4-6.9-3.4
		c-3.3,0-5.6,1.1-6.9,3.4c-1.3,2.3-2,6.2-2,11.8v8.8c0,5.5,0.7,9.3,2,11.5C635.2,240,637.5,241.1,640.8,241.1z M640.8,181.7
		c2.4,0,4.1-0.8,5-2.5c0.9-1.7,1.4-4.6,1.4-8.6v-10.3c0-4-0.5-6.8-1.4-8.4c-0.9-1.6-2.6-2.4-5-2.4c-2.4,0-4.1,0.8-5,2.4
		c-0.9,1.6-1.4,4.4-1.4,8.4v10.3c0,4,0.5,6.9,1.4,8.6C636.7,180.8,638.4,181.7,640.8,181.7z"/>
	<path fill="#0071BC" d="M736.5,262.4c-12.7,0-22.2-2.9-28.6-8.8c-6.4-5.8-9.7-14.6-9.7-26.3v-6.9c0-7.2,1.9-13.1,5.6-17.8
		c3.7-4.7,8.8-7.5,15.4-8.5v-4.7c-5.3-0.7-9.8-2.9-13.3-6.7c-3.5-3.8-5.2-8.8-5.2-15.1v-8.5c0-10.3,3-18,9-23.2
		c6-5.2,14.9-7.8,26.8-7.8c11.9,0,20.8,2.6,26.8,7.8c6,5.2,9,12.9,9,23.2v8.5c0,6.2-1.8,11.2-5.3,15.1c-3.5,3.8-8,6.1-13.3,6.7v4.7
		c6.5,1,11.7,3.8,15.5,8.6c3.8,4.7,5.6,10.7,5.6,17.8v6.9c0,11.7-3.2,20.4-9.7,26.3C758.7,259.4,749.1,262.4,736.5,262.4z
		 M736.5,241.1c3.3,0,5.6-1.1,6.9-3.4c1.3-2.2,2-6.1,2-11.5v-8.8c0-5.6-0.7-9.5-2-11.8c-1.3-2.3-3.6-3.4-6.9-3.4
		c-3.3,0-5.6,1.1-6.9,3.4c-1.3,2.3-2,6.2-2,11.8v8.8c0,5.5,0.7,9.3,2,11.5C730.9,240,733.2,241.1,736.5,241.1z M736.5,181.7
		c2.4,0,4.1-0.8,5-2.5c0.9-1.7,1.4-4.6,1.4-8.6v-10.3c0-4-0.5-6.8-1.4-8.4c-0.9-1.6-2.6-2.4-5-2.4c-2.4,0-4.1,0.8-5,2.4
		c-0.9,1.6-1.4,4.4-1.4,8.4v10.3c0,4,0.5,6.9,1.4,8.6C732.4,180.8,734.1,181.7,736.5,181.7z"/>
	<path fill="#0071BC" d="M811.3,260.7c5.3-32.8,9.7-55.3,13-67.4c3.3-12.1,8.9-25.9,16.8-41.4h-47.1v-22.1h76.6v22.1
		c-8.5,18.8-14.6,35.1-18.2,49.1c-3.7,14-7.1,33.9-10.2,59.7H811.3z"/>
</g>
<g>
	<g>
		<path fill="#FFFFFF" d="M29.2,374.4c-1.7,0-3.4-0.3-5-0.8c-1.7-0.6-3.1-1.3-4.3-2.4l1.4-3.2c1.1,0.8,2.3,1.5,3.7,2
			c1.4,0.5,2.8,0.8,4.2,0.8c1.5,0,2.7-0.3,3.4-0.9c0.7-0.6,1.1-1.5,1.1-2.7c0-1.4-0.4-2.4-1.2-3c-0.8-0.6-2.2-1.1-4.3-1.7
			c-2.8-0.7-4.8-1.7-6-2.9c-1.2-1.2-1.7-2.8-1.7-4.9c0-2.4,0.7-4.2,2.1-5.5c1.4-1.3,3.3-2,5.7-2c1.5,0,3,0.3,4.6,0.9
			c1.5,0.6,2.9,1.4,4,2.4l-1.4,3.2c-1-0.8-2.1-1.4-3.4-2c-1.3-0.6-2.5-0.9-3.8-0.9c-1.3,0-2.3,0.3-2.9,0.9c-0.6,0.6-0.9,1.5-0.9,2.7
			c0,1.4,0.4,2.4,1.2,3s2.3,1.1,4.4,1.7c2.7,0.7,4.7,1.7,5.8,2.9c1.1,1.2,1.7,2.8,1.7,4.8c0,2.4-0.8,4.2-2.3,5.5
			C33.9,373.8,31.8,374.4,29.2,374.4z"/>
		<path fill="#FFFFFF" d="M62.9,368.3c-0.7,2.1-1.6,3.7-2.9,4.7c-1.3,1-3.1,1.5-5.7,1.5c-2.6,0-4.7-0.8-6.2-2.3s-2.3-3.8-2.3-6.8
			v-8.8c0-3.1,0.8-5.4,2.4-6.9c1.6-1.5,3.6-2.3,6.1-2.3c2.5,0,4.6,0.8,6.1,2.4c1.5,1.6,2.3,4,2.3,7.2v4.7h-13v3.6
			c0,2,0.4,3.5,1.1,4.3c0.8,0.9,1.9,1.3,3.4,1.3c1.5,0,2.5-0.3,3.3-0.9c0.7-0.6,1.3-1.6,1.6-2.9L62.9,368.3z M49.8,356.7v1.8h9v-1.4
			c0-2.2-0.4-3.8-1.1-4.8c-0.7-1-1.9-1.5-3.4-1.5c-1.5,0-2.7,0.5-3.4,1.5C50.2,353.3,49.8,354.7,49.8,356.7z"/>
		<path fill="#FFFFFF" d="M80.3,374.4c-3,0-5.2-0.8-6.7-2.4c-1.5-1.6-2.2-3.8-2.2-6.6v-8.9c0-2.9,0.7-5.2,2.2-6.8
			c1.5-1.6,3.7-2.4,6.6-2.4c2.7,0,4.7,0.7,6,2.1c1.4,1.4,2.1,3.7,2.3,6.7l-3.8,0.2c-0.1-2.2-0.5-3.6-1.2-4.4
			c-0.7-0.7-1.8-1.1-3.3-1.1c-1.6,0-2.8,0.4-3.6,1.2c-0.8,0.8-1.2,2.2-1.2,4.3v9.1c0,1.9,0.4,3.2,1.2,4.1s2,1.2,3.6,1.2
			c1.5,0,2.7-0.3,3.3-0.9c0.7-0.6,1.1-1.8,1.2-3.7l3.8,0.2c-0.1,2.8-0.9,4.8-2.2,6.1C85,373.8,83,374.4,80.3,374.4z"/>
		<path fill="#FFFFFF" d="M105.4,374.4c-2.7,0-4.8-0.8-6.3-2.4c-1.5-1.6-2.2-3.8-2.2-6.7v-8.8c0-2.9,0.7-5.2,2.2-6.8
			c1.5-1.6,3.6-2.4,6.3-2.4c2.7,0,4.7,0.8,6.2,2.4c1.5,1.6,2.2,3.9,2.2,6.8v8.8c0,2.9-0.7,5.1-2.2,6.7
			C110.2,373.6,108.1,374.4,105.4,374.4z M105.4,370.8c1.5,0,2.6-0.4,3.4-1.2c0.8-0.8,1.1-2.2,1.1-4.1v-8.9c0-1.9-0.4-3.3-1.1-4.2
			c-0.8-0.9-1.9-1.4-3.4-1.4c-1.5,0-2.6,0.5-3.4,1.4c-0.8,0.9-1.1,2.3-1.1,4.2v8.9c0,1.9,0.4,3.3,1.1,4.1
			C102.8,370.4,103.9,370.8,105.4,370.8z"/>
		<path fill="#FFFFFF" d="M122.5,374v-26.2h3.9v3.4h1c0.6-1.2,1.5-2.1,2.5-2.8c1-0.7,2.2-1,3.4-1c1.9,0,3.4,0.7,4.5,2.2
			c1.1,1.5,1.6,3.5,1.6,6.1V374h-3.9v-17.6c0-1.7-0.3-3.1-0.9-3.9c-0.6-0.9-1.5-1.3-2.6-1.3c-1.1,0-2.1,0.3-3,1
			c-0.9,0.7-1.8,1.7-2.5,3V374H122.5z"/>
		<path fill="#FFFFFF" d="M160,370.6c-0.4,1.2-1.2,2.1-2.2,2.8c-1,0.7-2.2,1-3.6,1c-1.9,0-3.4-0.8-4.5-2.5c-1.1-1.6-1.7-3.9-1.7-6.8
			v-8.7c0-2.9,0.7-5.1,2.2-6.7c1.5-1.6,3.5-2.4,6.2-2.4c0.7,0,1.5,0.1,2.3,0.3c0.8,0.2,1.6,0.6,2.3,1v-9.6h3.9V374H161v-3.4H160z
			 M155.5,370.6c1.1,0,2.1-0.3,3-1c0.9-0.7,1.7-1.7,2.4-3.1v-14c-0.6-0.6-1.3-1.1-2-1.3c-0.7-0.3-1.5-0.4-2.3-0.4
			c-1.6,0-2.8,0.5-3.6,1.4c-0.8,0.9-1.1,2.4-1.1,4.4v8.9c0,1.8,0.3,3.1,0.9,4C153.4,370.2,154.3,370.6,155.5,370.6z"/>
		<path fill="#FFFFFF" d="M182.4,374.4c-1.7,0-3.4-0.3-5-0.8c-1.7-0.6-3.1-1.3-4.3-2.4l1.4-3.2c1.1,0.8,2.3,1.5,3.7,2
			c1.4,0.5,2.8,0.8,4.2,0.8c1.5,0,2.7-0.3,3.4-0.9c0.7-0.6,1.1-1.5,1.1-2.7c0-1.4-0.4-2.4-1.2-3c-0.8-0.6-2.2-1.1-4.3-1.7
			c-2.8-0.7-4.8-1.7-6-2.9c-1.2-1.2-1.7-2.8-1.7-4.9c0-2.4,0.7-4.2,2.1-5.5c1.4-1.3,3.3-2,5.7-2c1.5,0,3,0.3,4.6,0.9
			c1.5,0.6,2.9,1.4,4,2.4l-1.4,3.2c-1-0.8-2.1-1.4-3.4-2c-1.3-0.6-2.5-0.9-3.8-0.9c-1.3,0-2.3,0.3-2.9,0.9c-0.6,0.6-0.9,1.5-0.9,2.7
			c0,1.4,0.4,2.4,1.2,3s2.3,1.1,4.4,1.7c2.7,0.7,4.7,1.7,5.8,2.9c1.1,1.2,1.7,2.8,1.7,4.8c0,2.4-0.8,4.2-2.3,5.5
			C187.1,373.8,185,374.4,182.4,374.4z"/>
		<path fill="#FFFFFF" d="M236.5,370.6c-0.4,1.2-1.2,2.1-2.2,2.8c-1,0.7-2.2,1-3.6,1c-1.9,0-3.4-0.8-4.5-2.5
			c-1.1-1.6-1.7-3.9-1.7-6.8v-8.7c0-2.9,0.7-5.1,2.2-6.7c1.5-1.6,3.5-2.4,6.2-2.4c0.7,0,1.5,0.1,2.3,0.3c0.8,0.2,1.6,0.6,2.3,1v-9.6
			h3.9V374h-3.9v-3.4H236.5z M232.1,370.6c1.1,0,2.1-0.3,3-1c0.9-0.7,1.7-1.7,2.4-3.1v-14c-0.6-0.6-1.3-1.1-2-1.3
			c-0.7-0.3-1.5-0.4-2.3-0.4c-1.6,0-2.8,0.5-3.6,1.4c-0.8,0.9-1.1,2.4-1.1,4.4v8.9c0,1.8,0.3,3.1,0.9,4
			C230,370.2,230.9,370.6,232.1,370.6z"/>
		<path fill="#FFFFFF" d="M256.3,374.4c-1.9,0-3.4-0.7-4.5-2.2c-1.1-1.5-1.7-3.5-1.7-6v-18.4h3.9v17.8c0,1.7,0.3,2.9,0.9,3.8
			c0.6,0.9,1.5,1.3,2.6,1.3c1,0,2.1-0.3,3-1c1-0.7,1.8-1.6,2.5-2.9v-19h3.9V374h-3.9v-3.4h-1c-0.4,1.2-1.1,2.1-2.1,2.8
			C258.9,374,257.7,374.4,256.3,374.4z"/>
		<path fill="#FFFFFF" d="M277,374v-26.2h4v3.8h1c0.4-1.5,1.1-2.6,2.1-3.3c1-0.7,2.2-1,3.5-1c1.5,0,2.8,0.6,3.8,1.8
			c1,1.2,1.5,2.9,1.5,5.2v4.2H289v-2.7c0-1.6-0.2-2.8-0.7-3.5c-0.5-0.8-1.3-1.1-2.4-1.1c-1,0-1.9,0.3-2.7,1
			c-0.8,0.7-1.5,1.6-2.2,2.9v19H277z"/>
		<path fill="#FFFFFF" d="M306.6,374.4c-2,0-3.6-0.7-4.7-2c-1.1-1.3-1.7-3.1-1.7-5.5c0-2.3,0.6-4.1,1.8-5.4c1.2-1.3,2.9-2,5-2h5.5
			v-4.3c0-1.3-0.3-2.3-1-3.1c-0.7-0.8-1.7-1.2-3-1.2c-1.4,0-2.5,0.3-3.1,1s-1.1,1.9-1.5,3.8l-3.4-1c0.4-2.5,1.3-4.3,2.6-5.5
			c1.3-1.2,3.1-1.8,5.3-1.8c2.3,0,4.2,0.6,5.7,1.8c1.5,1.2,2.2,3.1,2.2,5.5v13c0,1.3,0.3,2.2,0.9,2.7c0.6,0.4,1.5,0.5,2.8,0.1v3.7
			c-1.9,0.3-3.3,0.1-4.3-0.5s-1.5-1.8-1.7-3.6h-0.7c-0.6,1.3-1.5,2.3-2.7,3.1C309.5,374,308.1,374.4,306.6,374.4z M307.3,370.9
			c1.3,0,2.3-0.3,3.2-0.8c0.9-0.6,1.6-1.5,2.1-2.7v-4.6h-4.9c-1.2,0-2.1,0.3-2.7,0.9c-0.6,0.6-0.9,1.6-0.9,3.1
			c0,1.3,0.2,2.4,0.7,3.1C305.3,370.5,306.1,370.9,307.3,370.9z"/>
		<path fill="#FFFFFF" d="M339.1,374.4c-2.4,0-4.2-0.7-5.5-2.2c-1.3-1.5-2-3.5-2-6v-14.7h-5.4v-3.6h5.4v-8.7h3.9v8.7h8.2v3.6h-8.2
			v14.2c0,1.7,0.3,2.9,0.9,3.8s1.5,1.3,2.7,1.3c0.8,0,1.5-0.1,2.2-0.2c0.7-0.1,1.4-0.4,2-0.7l0.7,3.7c-0.6,0.2-1.3,0.5-2.2,0.7
			C340.9,374.2,339.9,374.4,339.1,374.4z"/>
		<path fill="#FFFFFF" d="M352.3,374v-3.6h6.4v-19h-6.4v-3.6h10.4v22.6h6.4v3.6H352.3z M360.7,342.8c-0.9,0-1.6-0.2-2.2-0.5
			c-0.6-0.3-0.9-1-0.9-1.9v-0.3c0-0.9,0.3-1.6,0.9-1.9c0.6-0.3,1.3-0.5,2.2-0.5c0.9,0,1.6,0.2,2.2,0.5c0.6,0.3,0.9,1,0.9,1.9v0.3
			c0,0.9-0.3,1.5-0.9,1.9C362.4,342.7,361.6,342.8,360.7,342.8z"/>
		<path fill="#FFFFFF" d="M386.2,374.4c-2.7,0-4.8-0.8-6.3-2.4c-1.5-1.6-2.2-3.8-2.2-6.7v-8.8c0-2.9,0.7-5.2,2.2-6.8
			c1.5-1.6,3.6-2.4,6.3-2.4c2.7,0,4.7,0.8,6.2,2.4c1.5,1.6,2.2,3.9,2.2,6.8v8.8c0,2.9-0.7,5.1-2.2,6.7
			C391,373.6,388.9,374.4,386.2,374.4z M386.2,370.8c1.5,0,2.6-0.4,3.4-1.2c0.8-0.8,1.1-2.2,1.1-4.1v-8.9c0-1.9-0.4-3.3-1.1-4.2
			c-0.8-0.9-1.9-1.4-3.4-1.4c-1.5,0-2.6,0.5-3.4,1.4c-0.8,0.9-1.1,2.3-1.1,4.2v8.9c0,1.9,0.4,3.3,1.1,4.1
			C383.6,370.4,384.7,370.8,386.2,370.8z"/>
		<path fill="#FFFFFF" d="M403.3,374v-26.2h3.9v3.4h1c0.6-1.2,1.5-2.1,2.5-2.8c1-0.7,2.2-1,3.4-1c1.9,0,3.4,0.7,4.5,2.2
			c1.1,1.5,1.6,3.5,1.6,6.1V374h-3.9v-17.6c0-1.7-0.3-3.1-0.9-3.9c-0.6-0.9-1.5-1.3-2.6-1.3c-1.1,0-2.1,0.3-3,1
			c-0.9,0.7-1.8,1.7-2.5,3V374H403.3z"/>
		<path fill="#FFFFFF" d="M459.3,374v-22.6h-5.5v-3.6h5.5V346c0-2.2,0.7-4,2.1-5.3c1.4-1.3,3-1.9,4.9-1.9c1.2,0,2.2,0.2,3.2,0.5
			c1,0.3,1.7,0.6,2.3,1l-0.7,3.3c-0.8-0.4-1.6-0.7-2.4-0.9c-0.8-0.2-1.5-0.3-2.3-0.3c-1,0-1.8,0.3-2.3,0.8c-0.6,0.5-0.9,1.4-0.9,2.6
			v2h7.9v3.6h-7.9V374H459.3z"/>
		<path fill="#FFFFFF" d="M488.3,374.4c-2.7,0-4.8-0.8-6.3-2.4c-1.5-1.6-2.2-3.8-2.2-6.7v-8.8c0-2.9,0.7-5.2,2.2-6.8
			c1.5-1.6,3.6-2.4,6.3-2.4c2.7,0,4.7,0.8,6.2,2.4c1.5,1.6,2.2,3.9,2.2,6.8v8.8c0,2.9-0.7,5.1-2.2,6.7
			C493.1,373.6,491,374.4,488.3,374.4z M488.3,370.8c1.5,0,2.6-0.4,3.4-1.2s1.1-2.2,1.1-4.1v-8.9c0-1.9-0.4-3.3-1.1-4.2
			c-0.8-0.9-1.9-1.4-3.4-1.4c-1.5,0-2.6,0.5-3.4,1.4c-0.8,0.9-1.1,2.3-1.1,4.2v8.9c0,1.9,0.4,3.3,1.1,4.1
			C485.7,370.4,486.8,370.8,488.3,370.8z"/>
		<path fill="#FFFFFF" d="M506.8,374v-26.2h4v3.8h1c0.4-1.5,1.1-2.6,2.1-3.3c1-0.7,2.2-1,3.5-1c1.5,0,2.8,0.6,3.8,1.8
			c1,1.2,1.5,2.9,1.5,5.2v4.2h-3.8v-2.7c0-1.6-0.2-2.8-0.7-3.5c-0.5-0.8-1.3-1.1-2.4-1.1c-1,0-1.9,0.3-2.7,1
			c-0.8,0.7-1.5,1.6-2.2,2.9v19H506.8z"/>
		<path fill="#FFFFFF" d="M568.4,370.6c-0.4,1.2-1.2,2.1-2.2,2.8c-1,0.7-2.2,1-3.6,1c-1.9,0-3.4-0.8-4.5-2.5
			c-1.1-1.6-1.7-3.9-1.7-6.8v-8.7c0-2.9,0.7-5.1,2.2-6.7c1.5-1.6,3.5-2.4,6.2-2.4c0.7,0,1.5,0.1,2.3,0.3c0.8,0.2,1.6,0.6,2.3,1v-9.6
			h3.9V374h-3.9v-3.4H568.4z M564,370.6c1.1,0,2.1-0.3,3-1c0.9-0.7,1.7-1.7,2.4-3.1v-14c-0.6-0.6-1.3-1.1-2-1.3s-1.5-0.4-2.3-0.4
			c-1.6,0-2.8,0.5-3.6,1.4c-0.8,0.9-1.1,2.4-1.1,4.4v8.9c0,1.8,0.3,3.1,0.9,4S562.7,370.6,564,370.6z"/>
		<path fill="#FFFFFF" d="M599,368.3c-0.7,2.1-1.6,3.7-2.9,4.7c-1.3,1-3.1,1.5-5.7,1.5c-2.6,0-4.7-0.8-6.2-2.3s-2.3-3.8-2.3-6.8
			v-8.8c0-3.1,0.8-5.4,2.4-6.9c1.6-1.5,3.6-2.3,6.1-2.3c2.5,0,4.6,0.8,6.1,2.4c1.5,1.6,2.3,4,2.3,7.2v4.7h-13v3.6
			c0,2,0.4,3.5,1.1,4.3c0.8,0.9,1.9,1.3,3.4,1.3c1.5,0,2.5-0.3,3.2-0.9c0.7-0.6,1.3-1.6,1.6-2.9L599,368.3z M585.9,356.7v1.8h9v-1.4
			c0-2.2-0.4-3.8-1.1-4.8s-1.9-1.5-3.4-1.5c-1.5,0-2.7,0.5-3.4,1.5C586.3,353.3,585.9,354.7,585.9,356.7z"/>
		<path fill="#FFFFFF" d="M616,374.4c-0.8,0-1.5-0.1-2.3-0.3c-0.8-0.2-1.5-0.6-2.3-1v9.6h-3.9v-34.9h3.9v3.4h1
			c0.4-1.2,1.1-2.1,2.1-2.8c1-0.7,2.2-1,3.7-1c1.9,0,3.5,0.8,4.6,2.5c1.1,1.6,1.6,3.9,1.6,6.8v8.7c0,2.9-0.7,5.1-2.2,6.7
			C620.7,373.6,618.6,374.4,616,374.4z M615.7,371c1.6,0,2.7-0.5,3.5-1.4s1.2-2.4,1.2-4.3v-8.9c0-1.7-0.3-3-0.9-3.9
			c-0.6-0.9-1.5-1.3-2.7-1.3c-1.1,0-2.1,0.3-3,1c-0.9,0.7-1.7,1.7-2.4,3.1v14c0.6,0.6,1.3,1,2,1.3C614.2,370.8,614.9,371,615.7,371z
			"/>
		<path fill="#FFFFFF" d="M633.1,374v-3.6h6.5v-27.8h-6.5v-3.6h10.4v31.3h6.4v3.6H633.1z"/>
		<path fill="#FFFFFF" d="M667,374.4c-2.7,0-4.8-0.8-6.3-2.4c-1.5-1.6-2.2-3.8-2.2-6.7v-8.8c0-2.9,0.7-5.2,2.2-6.8
			c1.5-1.6,3.6-2.4,6.3-2.4c2.7,0,4.7,0.8,6.2,2.4c1.5,1.6,2.2,3.9,2.2,6.8v8.8c0,2.9-0.7,5.1-2.2,6.7
			C671.8,373.6,669.7,374.4,667,374.4z M667,370.8c1.5,0,2.6-0.4,3.4-1.2c0.8-0.8,1.1-2.2,1.1-4.1v-8.9c0-1.9-0.4-3.3-1.1-4.2
			c-0.8-0.9-1.9-1.4-3.4-1.4c-1.5,0-2.6,0.5-3.4,1.4c-0.8,0.9-1.1,2.3-1.1,4.2v8.9c0,1.9,0.4,3.3,1.1,4.1S665.5,370.8,667,370.8z"/>
		<path fill="#FFFFFF" d="M687.3,382.9c-0.6,0-1.2,0-1.9-0.1c-0.7-0.1-1.4-0.2-2.1-0.3l0.5-3.6c0.6,0.1,1.2,0.3,1.8,0.3
			c0.5,0.1,1,0.1,1.5,0.1c1.3,0,2.3-0.4,2.9-1.1c0.7-0.8,1.2-1.9,1.7-3.5l0.1-0.5h-2l-6.6-26.4h4.2l5.3,22.9l5.2-22.9h4.1l-6.5,27.1
			c-0.8,3.1-1.8,5.2-3.3,6.3S689,382.9,687.3,382.9z"/>
		<path fill="#FFFFFF" d="M744,374.4c-1.7,0-3.4-0.3-5-0.8c-1.7-0.6-3.1-1.3-4.3-2.4l1.4-3.2c1.1,0.8,2.3,1.5,3.7,2s2.8,0.8,4.2,0.8
			c1.5,0,2.7-0.3,3.4-0.9c0.7-0.6,1.1-1.5,1.1-2.7c0-1.4-0.4-2.4-1.2-3c-0.8-0.6-2.2-1.1-4.3-1.7c-2.8-0.7-4.8-1.7-6-2.9
			c-1.2-1.2-1.7-2.8-1.7-4.9c0-2.4,0.7-4.2,2.1-5.5c1.4-1.3,3.3-2,5.7-2c1.5,0,3,0.3,4.6,0.9c1.5,0.6,2.9,1.4,4,2.4l-1.4,3.2
			c-1-0.8-2.1-1.4-3.4-2c-1.3-0.6-2.5-0.9-3.8-0.9c-1.3,0-2.3,0.3-2.9,0.9c-0.6,0.6-0.9,1.5-0.9,2.7c0,1.4,0.4,2.4,1.2,3
			s2.3,1.1,4.4,1.7c2.7,0.7,4.7,1.7,5.8,2.9c1.1,1.2,1.7,2.8,1.7,4.8c0,2.4-0.8,4.2-2.3,5.5C748.7,373.8,746.6,374.4,744,374.4z"/>
		<path fill="#FFFFFF" d="M769.5,374.4c-3,0-5.2-0.8-6.7-2.4c-1.5-1.6-2.2-3.8-2.2-6.6v-8.9c0-2.9,0.7-5.2,2.2-6.8
			c1.5-1.6,3.7-2.4,6.6-2.4c2.7,0,4.7,0.7,6,2.1c1.4,1.4,2.1,3.7,2.3,6.7l-3.8,0.2c-0.1-2.2-0.5-3.6-1.2-4.4
			c-0.7-0.7-1.8-1.1-3.3-1.1c-1.6,0-2.8,0.4-3.6,1.2c-0.8,0.8-1.2,2.2-1.2,4.3v9.1c0,1.9,0.4,3.2,1.2,4.1c0.8,0.8,2,1.2,3.6,1.2
			c1.5,0,2.7-0.3,3.3-0.9c0.7-0.6,1.1-1.8,1.2-3.7l3.8,0.2c-0.1,2.8-0.9,4.8-2.2,6.1C774.3,373.8,772.2,374.4,769.5,374.4z"/>
		<path fill="#FFFFFF" d="M787.6,374v-26.2h4v3.8h1c0.4-1.5,1.1-2.6,2.1-3.3c1-0.7,2.2-1,3.5-1c1.5,0,2.8,0.6,3.8,1.8
			c1,1.2,1.5,2.9,1.5,5.2v4.2h-3.8v-2.7c0-1.6-0.2-2.8-0.7-3.5c-0.5-0.8-1.3-1.1-2.4-1.1c-1,0-1.9,0.3-2.7,1
			c-0.8,0.7-1.5,1.6-2.2,2.9v19H787.6z"/>
		<path fill="#FFFFFF" d="M811.7,374v-3.6h6.4v-19h-6.4v-3.6h10.4v22.6h6.4v3.6H811.7z M820.2,342.8c-0.9,0-1.6-0.2-2.2-0.5
			s-0.9-1-0.9-1.9v-0.3c0-0.9,0.3-1.6,0.9-1.9c0.6-0.3,1.3-0.5,2.2-0.5s1.6,0.2,2.2,0.5c0.6,0.3,0.9,1,0.9,1.9v0.3
			c0,0.9-0.3,1.5-0.9,1.9S821.1,342.8,820.2,342.8z"/>
		<path fill="#FFFFFF" d="M845.7,374.4c-0.8,0-1.5-0.1-2.3-0.3c-0.8-0.2-1.5-0.6-2.3-1v9.6h-3.9v-34.9h3.9v3.4h1
			c0.4-1.2,1.1-2.1,2.1-2.8c1-0.7,2.2-1,3.7-1c1.9,0,3.5,0.8,4.6,2.5c1.1,1.6,1.6,3.9,1.6,6.8v8.7c0,2.9-0.7,5.1-2.2,6.7
			C850.4,373.6,848.4,374.4,845.7,374.4z M845.5,371c1.6,0,2.7-0.5,3.5-1.4s1.2-2.4,1.2-4.3v-8.9c0-1.7-0.3-3-0.9-3.9
			c-0.6-0.9-1.5-1.3-2.7-1.3c-1.1,0-2.1,0.3-3,1c-0.9,0.7-1.7,1.7-2.4,3.1v14c0.6,0.6,1.3,1,2,1.3C843.9,370.8,844.7,371,845.5,371z
			"/>
		<path fill="#FFFFFF" d="M875.1,374.4c-2.4,0-4.2-0.7-5.5-2.2c-1.3-1.5-2-3.5-2-6v-14.7h-5.4v-3.6h5.4v-8.7h3.9v8.7h8.2v3.6h-8.2
			v14.2c0,1.7,0.3,2.9,0.9,3.8c0.6,0.8,1.5,1.3,2.7,1.3c0.8,0,1.5-0.1,2.2-0.2c0.7-0.1,1.4-0.4,2-0.7l0.7,3.7
			c-0.6,0.2-1.3,0.5-2.2,0.7C876.9,374.2,876,374.4,875.1,374.4z"/>
	</g>
</g>
<path fill="#333333" d="M61.8,166.5c-13.8-7.1-26.2-17-32.3-29l0,0c-5.6-10.9-8.2-24.4-8.2-38l0,0c0-17.7,4.5-35.8,13.4-49l0,0
	C49.5,28.7,75.8,20.6,89,18.8l0,0c0.9-0.1,1.9-0.2,2.7-0.3l0,0c0.8-0.1,1.6-0.1,2.5-0.1l0,0c14.7,0,41.7,6.3,61.3,26.4l0,0
	c13.9,14.2,18.2,28.3,18.2,46.1l0,0c0,8.7-1,18.3-2.2,29.5l0,0c-2,17.7-11.8,31.4-24,41l0,0c-12.2,9.5-26.9,14.9-39.3,16.1l0,0
	c-1.5,0.1-3,0.2-4.6,0.2l0,0C91.1,177.7,75.7,173.5,61.8,166.5L61.8,166.5z M92,22.7c-0.7,0-1.5,0.1-2.4,0.3l0,0
	c-12.5,1.6-37.9,9.6-51.5,29.9l0,0c-8.3,12.3-12.7,29.6-12.7,46.6l0,0c0,13.1,2.6,26,7.8,36.1l0,0c5.5,10.8,17.2,20.4,30.5,27.2l0,0
	c13.3,6.8,28.3,10.8,39.9,10.8l0,0c1.5,0,2.9-0.1,4.2-0.2l0,0c11.5-1.1,25.6-6.2,37.2-15.2l0,0c11.5-9,20.5-21.8,22.4-38.1l0,0
	c1.3-11.1,2.2-20.6,2.2-29l0,0c-0.1-17.2-3.8-29.5-17-43.2l0,0c-18.5-19-44.7-25.2-58.3-25.2l0,0C93.5,22.6,92.7,22.7,92,22.7
	L92,22.7l-0.1-2.1L92,22.7L92,22.7z"/>
<path fill="#333333" d="M104.8,62.9l-8.6-10.5c-0.9,0.9-2,2.2-3.2,3.4l0,0c-2.4,2.6-5.1,5.5-5.4,5.9l0,0l0,0c-0.7,0.9-2,1-2.9,0.3
	l0,0c-0.9-0.7-1-2-0.3-2.9l0,0c1-1.3,10.3-11.3,10.3-11.3l0,0c0.4-0.4,1-0.7,1.6-0.7l0,0c0.6,0,1.2,0.3,1.6,0.8l0,0L108,60.2
	c0.7,0.9,0.6,2.2-0.3,2.9l0,0c-0.4,0.3-0.9,0.5-1.3,0.5l0,0C105.8,63.6,105.2,63.4,104.8,62.9L104.8,62.9z"/>
<path fill="#333333" d="M126.7,109.6c-0.9-0.7-1.1-2-0.4-2.9l0,0l5-6.8l-6.9-7.3h0c-0.8-0.8-0.8-2.2,0.1-3l0,0
	c0.8-0.8,2.2-0.8,3,0.1l0,0l8.1,8.6c0.7,0.7,0.8,1.9,0.2,2.7l0,0l-6,8.2c-0.4,0.6-1,0.9-1.7,0.9l0,0
	C127.5,110,127.1,109.9,126.7,109.6L126.7,109.6z"/>
<path fill="#333333" d="M96.3,99.8c0,0-0.8-13.7-1.2-17.4l0,0C94.6,78.2,94,50.7,94,50.6l0,0c0-1.2,0.9-2.1,2-2.1l0,0
	c1.2,0,2.1,0.9,2.1,2l0,0c0,0,0.2,6.9,0.4,14.3l0,0c0.2,7.4,0.5,15.4,0.7,17.1l0,0c0.3,3.1,0.9,11.7,1.1,15.6l0,0c1.2,0,2.8,0,4.5,0
	l0,0c3.3,0,7.1-0.1,8-0.2l0,0c0.7-0.1,1.7-0.1,3.1-0.1l0,0c5.6,0,16.5,0.3,16.5,0.3l0,0c1.2,0,2.1,1,2,2.1l0,0c0,1.2-1,2.1-2.1,2
	l0,0c0,0-10.9-0.3-16.4-0.3l0,0c-1.3,0-2.4,0-2.6,0.1l0,0c-2.6,0.3-14.8,0.3-14.9,0.3l0,0C97.2,101.8,96.3,100.9,96.3,99.8
	L96.3,99.8z"/>
<g>
	<path fill="#333333" d="M103.1,157c2.9-0.3,5,3.7,4.9,5.7c-0.1,2-2.5,3.9-5.8,3.9c-3.3,0-3.6-3.2-3.5-5.5
		C98.7,158.7,100.5,157.2,103.1,157z"/>
	<path fill="#333333" d="M98.6,165.2c-0.6-1.1-0.7-2.5-0.7-3.6l0,0c0-0.2,0-0.4,0-0.6l0,0c0.1-2.7,2.3-4.5,5.1-4.7l0,0v0
		c0.1,0,0.3,0,0.4,0l0,0c3.3,0.1,5.2,4,5.2,6.2l0,0c0,0.1,0,0.1,0,0.2l0,0c-0.2,2.5-3,4.5-6.5,4.5l0,0c0,0,0,0,0,0l0,0
		c0,0,0,0-0.1,0l0,0C100.4,167.2,99.2,166.4,98.6,165.2L98.6,165.2z M103.1,157.7c-2.4,0.3-3.8,1.5-3.8,3.4l0,0c0,0.2,0,0.3,0,0.5
		l0,0c0,1.1,0.1,2.2,0.6,3l0,0c0.4,0.8,1,1.2,2.3,1.3l0,0c0,0,0,0,0,0l0,0c3,0,5.1-1.8,5.1-3.2l0,0c0,0,0-0.1,0-0.1l0,0
		c0-0.8-0.4-2.1-1.1-3.1l0,0c-0.7-1-1.7-1.8-2.7-1.7l0,0C103.3,157.7,103.2,157.7,103.1,157.7L103.1,157.7l-0.1-0.7L103.1,157.7
		L103.1,157.7z"/>
</g>
<g>
	<path fill="#333333" d="M94.3,31.1c2.9-0.3,5,3.7,4.9,5.7c-0.1,2-2.5,3.9-5.8,3.9c-3.3,0-3.6-3.2-3.5-5.5
		C89.9,32.9,91.7,31.4,94.3,31.1z"/>
	<path fill="#333333" d="M89.9,39.4c-0.6-1.1-0.7-2.5-0.7-3.6l0,0c0-0.2,0-0.4,0-0.6l0,0c0.1-2.7,2.3-4.5,5.1-4.7l0,0l0,0
		c0.1,0,0.3,0,0.4,0l0,0c3.3,0.1,5.2,4,5.2,6.2l0,0c0,0.1,0,0.1,0,0.2l0,0c-0.2,2.5-3,4.5-6.5,4.5l0,0h0c0,0,0,0-0.1,0l0,0
		C91.6,41.4,90.4,40.5,89.9,39.4L89.9,39.4z M94.4,31.8c-2.4,0.3-3.8,1.5-3.8,3.4l0,0c0,0.2,0,0.3,0,0.5l0,0c0,1.1,0.1,2.2,0.6,3
		l0,0c0.4,0.8,1,1.2,2.3,1.3l0,0c0,0,0,0,0,0l0,0c3,0,5.1-1.8,5.1-3.2l0,0c0,0,0-0.1,0-0.1l0,0c0-0.8-0.4-2.1-1.1-3.1l0,0
		c-0.7-1-1.7-1.8-2.7-1.7l0,0C94.6,31.8,94.5,31.8,94.4,31.8L94.4,31.8l-0.1-0.7L94.4,31.8L94.4,31.8z"/>
</g>
<g>
	<path fill="#333333" d="M156.6,91.5c2.9-0.3,5,3.7,4.9,5.7c-0.1,2-2.5,3.9-5.8,3.9c-3.3,0-3.6-3.2-3.5-5.5
		C152.2,93.3,154,91.8,156.6,91.5z"/>
	<path fill="#333333" d="M152.1,99.8c-0.6-1.1-0.7-2.5-0.7-3.6l0,0c0-0.2,0-0.4,0-0.6l0,0c0.1-2.7,2.3-4.5,5.1-4.7l0,0l0,0
		c0.1,0,0.3,0,0.4,0l0,0c3.3,0.1,5.2,4,5.2,6.2l0,0c0,0.1,0,0.1,0,0.2l0,0c-0.2,2.5-3,4.5-6.5,4.5l0,0c0,0,0,0,0,0l0,0
		c0,0,0,0-0.1,0l0,0C153.9,101.8,152.7,100.9,152.1,99.8L152.1,99.8z M156.7,92.2c-2.4,0.3-3.8,1.5-3.8,3.4l0,0c0,0.2,0,0.3,0,0.5
		l0,0c0,1.1,0.1,2.2,0.6,3l0,0c0.4,0.8,1,1.2,2.3,1.3l0,0c0,0,0,0,0,0l0,0c3,0,5.1-1.8,5.1-3.2l0,0c0-0.1,0-0.1,0-0.1l0,0
		c0-0.8-0.4-2.1-1.1-3.1l0,0c-0.7-1-1.7-1.8-2.7-1.7l0,0C156.8,92.2,156.8,92.2,156.7,92.2L156.7,92.2l-0.1-0.7L156.7,92.2
		L156.7,92.2z"/>
</g>
<g>
	<path fill="#333333" d="M39.8,98.6c2.9-0.3,5,3.7,4.9,5.7c-0.1,2-2.5,3.9-5.8,3.9c-3.3,0-3.6-3.2-3.5-5.5
		C35.4,100.4,37.2,98.9,39.8,98.6z"/>
	<path fill="#333333" d="M35.3,106.8c-0.6-1.1-0.7-2.5-0.7-3.6l0,0c0-0.2,0-0.4,0-0.6l0,0c0.1-2.7,2.3-4.5,5.1-4.7l0,0v0
		c0.1,0,0.3,0,0.4,0l0,0c3.3,0.1,5.2,4,5.2,6.2l0,0c0,0.1,0,0.1,0,0.2l0,0c-0.2,2.5-3,4.5-6.5,4.5l0,0h0c0,0,0,0-0.1,0l0,0
		C37.1,108.9,35.9,108,35.3,106.8L35.3,106.8z M39.9,99.3c-2.4,0.3-3.8,1.5-3.9,3.4l0,0c0,0.2,0,0.3,0,0.5l0,0c0,1.1,0.1,2.2,0.6,3
		l0,0c0.4,0.8,1,1.3,2.3,1.3l0,0c0,0,0,0,0,0l0,0c3,0,5.1-1.8,5.1-3.2l0,0c0,0,0-0.1,0-0.1l0,0c0-0.8-0.4-2.1-1.1-3.1l0,0
		c-0.7-1-1.7-1.8-2.7-1.8l0,0C40,99.3,39.9,99.3,39.9,99.3L39.9,99.3l-0.1-0.7L39.9,99.3L39.9,99.3z"/>
</g>
<g>
	<path fill="#333333" d="M42,71.9c1.9-0.2,3.3,2.4,3.2,3.7s-1.7,2.5-3.8,2.6c-2.1,0-2.4-2.1-2.3-3.6C39.1,73.1,40.3,72.1,42,71.9z"
		/>
	<path fill="#333333" d="M38.9,77.5c-0.4-0.8-0.5-1.7-0.5-2.5l0,0c0-0.1,0-0.3,0-0.4l0,0c0.1-1.9,1.6-3.2,3.6-3.3l0,0l0,0
		c0.1,0,0.2,0,0.3,0l0,0c2.4,0.1,3.6,2.7,3.7,4.3l0,0c0,0,0,0.1,0,0.2l0,0c-0.2,1.8-2.1,3.2-4.5,3.2l0,0h0c0,0,0,0-0.1,0l0,0
		C40.1,78.9,39.3,78.3,38.9,77.5L38.9,77.5z M42.1,72.6c-1.5,0.2-2.3,0.9-2.3,2l0,0c0,0.1,0,0.2,0,0.3l0,0c0,0.7,0.1,1.4,0.3,1.9
		l0,0c0.3,0.4,0.5,0.7,1.3,0.7l0,0c0,0,0,0,0,0l0,0c1.9,0,3.1-1.2,3.1-1.9l0,0c0,0,0-0.1,0-0.1l0,0c0-0.4-0.3-1.3-0.7-1.9l0,0
		c-0.5-0.7-1-1.1-1.6-1l0,0C42.2,72.6,42.1,72.6,42.1,72.6L42.1,72.6L42,71.9L42.1,72.6L42.1,72.6z"/>
</g>
<g>
	<path fill="#333333" d="M57.6,46.8c1.9-0.2,3.3,2.4,3.2,3.7c-0.1,1.3-1.7,2.5-3.8,2.6c-2.1,0-2.4-2.1-2.3-3.6
		C54.7,48,55.9,47,57.6,46.8z"/>
	<path fill="#333333" d="M54.5,52.3c-0.4-0.8-0.5-1.7-0.5-2.5l0,0c0-0.1,0-0.3,0-0.4l0,0c0.1-1.9,1.6-3.2,3.6-3.3l0,0v0
		c0.1,0,0.2,0,0.3,0l0,0c2.4,0.1,3.6,2.7,3.7,4.3l0,0c0,0,0,0.1,0,0.2l0,0c-0.2,1.9-2.1,3.2-4.5,3.2l0,0h0c0,0,0,0-0.1,0l0,0
		C55.8,53.8,54.9,53.1,54.5,52.3L54.5,52.3z M57.7,47.5c-1.5,0.2-2.3,0.9-2.3,2l0,0c0,0.1,0,0.2,0,0.3l0,0c0,0.7,0.1,1.4,0.3,1.9
		l0,0c0.3,0.4,0.5,0.7,1.3,0.7l0,0c0,0,0,0,0,0l0,0c1.9,0,3.1-1.2,3.1-1.9l0,0c0,0,0,0,0-0.1l0,0c0-0.4-0.3-1.3-0.7-1.9l0,0
		c-0.5-0.7-1-1.1-1.6-1l0,0C57.8,47.5,57.8,47.5,57.7,47.5L57.7,47.5l-0.1-0.7L57.7,47.5L57.7,47.5z"/>
</g>
<g>
	<path fill="#333333" d="M126.1,41.8c1.9-0.2,3.3,2.4,3.2,3.7c-0.1,1.3-1.7,2.5-3.8,2.5c-2.1,0-2.4-2.1-2.3-3.6
		C123.2,43,124.4,42,126.1,41.8z"/>
	<path fill="#333333" d="M122.9,47.3c-0.4-0.8-0.5-1.7-0.5-2.5l0,0c0-0.1,0-0.3,0-0.4l0,0c0.1-1.9,1.6-3.2,3.6-3.3l0,0v0
		c0.1,0,0.2,0,0.3,0l0,0c2.4,0.1,3.6,2.7,3.7,4.3l0,0c0,0,0,0.1,0,0.1l0,0c-0.2,1.8-2.1,3.2-4.5,3.2l0,0h0c0,0,0,0-0.1,0l0,0
		C124.2,48.8,123.3,48.1,122.9,47.3L122.9,47.3z M128.5,45.5C128.5,45.5,128.5,45.5,128.5,45.5L128.5,45.5c0-0.5-0.3-1.4-0.7-2l0,0
		c-0.5-0.7-1-1.1-1.6-1l0,0c0,0-0.1,0-0.1,0l0,0l-0.1-0.7l0.1,0.7c-1.5,0.2-2.3,0.9-2.3,2l0,0c0,0.1,0,0.2,0,0.3l0,0
		c0,0.7,0.1,1.4,0.3,1.9l0,0c0.3,0.4,0.5,0.7,1.3,0.7l0,0c0,0,0,0,0,0l0,0C127.3,47.4,128.5,46.2,128.5,45.5L128.5,45.5z"/>
</g>
<g>
	<path fill="#333333" d="M151,64c1.9-0.2,3.3,2.4,3.2,3.7c-0.1,1.3-1.7,2.5-3.8,2.5c-2.1,0-2.4-2.1-2.3-3.6
		C148.1,65.2,149.3,64.2,151,64z"/>
	<path fill="#333333" d="M147.8,69.5c-0.4-0.8-0.5-1.7-0.5-2.5l0,0c0-0.1,0-0.3,0-0.4l0,0c0.1-1.9,1.6-3.2,3.6-3.3l0,0v0
		c0.1,0,0.2,0,0.3,0l0,0c2.4,0.1,3.6,2.7,3.7,4.3l0,0c0,0,0,0.1,0,0.2l0,0c-0.2,1.9-2.1,3.2-4.5,3.2l0,0h0c0,0,0,0-0.1,0l0,0
		C149.1,71,148.2,70.3,147.8,69.5L147.8,69.5z M153.4,67.7C153.4,67.7,153.4,67.7,153.4,67.7L153.4,67.7c0-0.5-0.2-1.4-0.7-2l0,0
		c-0.5-0.6-1-1.1-1.6-1l0,0c0,0-0.1,0-0.1,0l0,0L151,64l0.1,0.7c-1.5,0.2-2.3,0.9-2.3,2l0,0c0,0.1,0,0.2,0,0.3l0,0
		c0,0.7,0.1,1.4,0.3,1.9l0,0c0.3,0.4,0.5,0.7,1.3,0.7l0,0c0,0,0,0,0,0l0,0C152.2,69.6,153.4,68.4,153.4,67.7L153.4,67.7z
		 M150.3,69.6C150.3,69.6,150.3,69.6,150.3,69.6L150.3,69.6C150.3,69.6,150.3,69.6,150.3,69.6L150.3,69.6z"/>
</g>
<g>
	<path fill="#333333" d="M154.6,125.8c1.9-0.2,3.3,2.4,3.2,3.7c-0.1,1.3-1.7,2.5-3.8,2.5c-2.1,0-2.4-2.1-2.3-3.6
		C151.7,126.9,152.9,126,154.6,125.8z"/>
	<path fill="#333333" d="M151.5,131.3c-0.4-0.8-0.5-1.7-0.5-2.5l0,0c0-0.1,0-0.3,0-0.4l0,0c0.1-1.9,1.7-3.2,3.6-3.3l0,0v0
		c0.1,0,0.2,0,0.3,0l0,0c2.4,0.1,3.6,2.7,3.7,4.3l0,0c0,0,0,0.1,0,0.2l0,0c-0.2,1.9-2.1,3.2-4.5,3.2l0,0h0c0,0,0,0-0.1,0l0,0
		C152.7,132.8,151.8,132.1,151.5,131.3L151.5,131.3z M157.1,129.5C157.1,129.5,157.1,129.4,157.1,129.5L157.1,129.5
		c0-0.5-0.3-1.4-0.7-2l0,0c-0.5-0.7-1-1.1-1.6-1l0,0c0,0-0.1,0-0.1,0l0,0l-0.1-0.7l0.1,0.7c-1.5,0.2-2.3,0.9-2.3,2l0,0
		c0,0.1,0,0.2,0,0.3l0,0c0,0.7,0.1,1.4,0.3,1.8l0,0c0.3,0.4,0.5,0.7,1.3,0.7l0,0c0,0,0,0,0,0l0,0
		C155.9,131.4,157.1,130.2,157.1,129.5L157.1,129.5z M154,131.4C154,131.4,154,131.4,154,131.4L154,131.4
		C154,131.4,154,131.4,154,131.4L154,131.4z"/>
</g>
<g>
	<path fill="#333333" d="M132.5,149.1c1.9-0.2,3.3,2.4,3.2,3.7c-0.1,1.3-1.7,2.5-3.8,2.5c-2.1,0-2.4-2.1-2.3-3.6
		C129.6,150.2,130.8,149.2,132.5,149.1z"/>
	<path fill="#333333" d="M129.4,154.6c-0.4-0.8-0.5-1.7-0.5-2.5l0,0c0-0.1,0-0.3,0-0.4l0,0c0.1-1.9,1.6-3.2,3.6-3.3l0,0l0,0
		c0.1,0,0.2,0,0.3,0l0,0c2.4,0.1,3.6,2.7,3.7,4.3l0,0c0,0,0,0.1,0,0.2l0,0c-0.2,1.8-2.1,3.2-4.5,3.2l0,0h0c0,0,0,0-0.1,0l0,0
		C130.6,156,129.8,155.4,129.4,154.6L129.4,154.6z M135,152.8C135,152.8,135,152.7,135,152.8L135,152.8c0-0.5-0.3-1.4-0.7-2l0,0
		c-0.5-0.7-1-1.1-1.6-1l0,0c0,0-0.1,0-0.1,0l0,0l-0.1-0.7l0.1,0.7c-1.5,0.2-2.3,0.9-2.3,2l0,0c0,0.1,0,0.2,0,0.3l0,0
		c0,0.7,0.1,1.4,0.3,1.9l0,0c0.3,0.4,0.5,0.7,1.3,0.7l0,0c0,0,0,0,0,0l0,0C133.8,154.7,135,153.5,135,152.8L135,152.8z"/>
</g>
<g>
	<path fill="#333333" d="M75.1,150.1c1.9-0.2,3.3,2.4,3.2,3.7c-0.1,1.3-1.7,2.5-3.8,2.6c-2.1,0-2.4-2.1-2.3-3.6
		C72.2,151.3,73.4,150.3,75.1,150.1z"/>
	<path fill="#333333" d="M72,155.7c-0.4-0.8-0.5-1.7-0.5-2.5l0,0c0-0.1,0-0.3,0-0.4l0,0c0.1-1.9,1.6-3.2,3.5-3.3l0,0l0,0
		c0.1,0,0.2,0,0.3,0l0,0c2.4,0.1,3.6,2.7,3.7,4.3l0,0c0,0,0,0.1,0,0.2l0,0c-0.2,1.9-2.1,3.2-4.5,3.2l0,0h0c0,0,0,0-0.1,0l0,0
		C73.2,157.1,72.3,156.5,72,155.7L72,155.7z M75.2,150.8c-1.5,0.2-2.3,0.9-2.3,2l0,0c0,0.1,0,0.2,0,0.3l0,0c0,0.7,0.1,1.4,0.3,1.9
		l0,0c0.3,0.4,0.5,0.7,1.3,0.7l0,0c0,0,0,0,0,0l0,0c1.9,0,3.1-1.2,3.1-1.9l0,0c0,0,0-0.1,0-0.1l0,0c0-0.4-0.3-1.3-0.7-1.9l0,0
		c-0.5-0.7-1-1.1-1.6-1l0,0C75.3,150.8,75.2,150.8,75.2,150.8L75.2,150.8l-0.1-0.7L75.2,150.8L75.2,150.8z"/>
</g>
<g>
	<path fill="#333333" d="M47.4,131.5c1.9-0.2,3.3,2.4,3.2,3.7c-0.1,1.3-1.7,2.5-3.8,2.6c-2.2,0-2.4-2.1-2.3-3.6
		C44.5,132.7,45.7,131.7,47.4,131.5z"/>
	<path fill="#333333" d="M44.2,137.1c-0.4-0.8-0.5-1.7-0.5-2.5l0,0c0-0.1,0-0.3,0-0.4l0,0c0.1-1.9,1.6-3.2,3.6-3.3l0,0v0
		c0.1,0,0.2,0,0.3,0l0,0c2.4,0.1,3.6,2.7,3.7,4.3l0,0c0,0,0,0.1,0,0.2l0,0c-0.2,1.9-2.1,3.2-4.5,3.2l0,0h0c0,0,0,0-0.1,0l0,0
		C45.5,138.5,44.6,137.9,44.2,137.1L44.2,137.1z M49.8,135.3C49.8,135.2,49.8,135.2,49.8,135.3L49.8,135.3c0-0.5-0.3-1.4-0.7-2l0,0
		c-0.5-0.7-1-1.1-1.6-1l0,0c0,0-0.1,0-0.1,0l0,0l-0.1-0.7l0.1,0.7c-1.5,0.2-2.3,0.9-2.3,2l0,0c0,0.1,0,0.2,0,0.3l0,0
		c0,0.7,0.1,1.4,0.3,1.8l0,0c0.3,0.4,0.5,0.7,1.3,0.7l0,0c0,0,0,0,0,0l0,0C48.6,137.1,49.8,136,49.8,135.3L49.8,135.3z M46.7,137.1
		C46.7,137.1,46.7,137.1,46.7,137.1L46.7,137.1L46.7,137.1L46.7,137.1z"/>
</g>
<g>
	<path fill="#333333" d="M98.5,95.5c2.9-0.3,4.9,3.7,4.8,5.6c-0.1,1.9-2.5,3.8-5.7,3.8c-3.2,0-3.5-3.2-3.5-5.4
		C94.2,97.2,96,95.7,98.5,95.5z"/>
	<path fill="#333333" d="M94.1,103.6c-0.6-1.1-0.7-2.4-0.7-3.6l0,0c0-0.2,0-0.4,0-0.6l0,0c0.1-2.7,2.3-4.4,5-4.7l0,0v0
		c0.1,0,0.3,0,0.4,0l0,0c3.3,0.1,5.1,3.9,5.2,6.1l0,0c0,0.1,0,0.1,0,0.2l0,0c-0.2,2.5-2.9,4.4-6.4,4.5l0,0h0c0,0,0,0-0.1,0l0,0
		C95.9,105.6,94.7,104.7,94.1,103.6L94.1,103.6z M98.6,96.2c-2.3,0.3-3.7,1.5-3.8,3.3l0,0c0,0.2,0,0.3,0,0.5l0,0
		c0,1,0.1,2.2,0.5,2.9l0,0c0.4,0.8,1,1.2,2.2,1.2l0,0c0,0,0,0,0,0l0,0c3,0,5-1.8,5-3.1l0,0c0-0.1,0-0.1,0-0.2l0,0c0-0.7-0.4-2-1.1-3
		l0,0c-0.7-1-1.7-1.7-2.6-1.7l0,0C98.8,96.1,98.7,96.1,98.6,96.2L98.6,96.2l-0.1-0.7L98.6,96.2L98.6,96.2z"/>
</g>
</svg>
