<svg version="1.1" id="Layer_1" xmlns="http://www.w3.org/2000/svg" xmlns:xlink="http://www.w3.org/1999/xlink" x="0px" y="0px"
	 width="900px" height="400px" viewBox="0 0 900 400" enable-background="new 0 0 900 400" xml:space="preserve">
<rect y="300" fill="#333333" width="900" height="100"/>
<g>
	<path fill="#0071BC" d="M451.6,262.8c-15.8,0-27.3-3.3-34.6-9.9c-7.3-6.6-11.5-17.6-12.6-32.9l39.1-4.8c0.3,8.5,1.1,14.2,2.6,17.1
		c1.5,2.9,4.3,4.4,8.5,4.4c3.2,0,5.5-2.1,6.8-6.4c1.3-4.3,2-11.7,2-22.3v-24.7h-1.5c-3.1,4.9-6.9,8.5-11.5,11
		c-4.6,2.4-10,3.7-16.1,3.7c-10.3,0-18.1-3.8-23.3-11.5c-5.2-7.7-7.8-19-7.8-34.1v-13c0-15.9,4.1-27.9,12.3-36
		c8.2-8.1,20.4-12.1,36.6-12.1c16.2,0,28.4,4.7,36.6,14c8.2,9.3,12.3,23.2,12.3,41.6v59c0,19-4.1,33.2-12.4,42.7
		C480.2,258.1,467.9,262.8,451.6,262.8z M452,174.6c4.2,0,7.1-1.8,8.8-5.3c1.7-3.6,2.5-9.7,2.5-18.5v-11.1c0-8.2-0.8-14-2.5-17.2
		c-1.7-3.3-4.6-4.9-8.8-4.9c-4,0-6.9,1.6-8.6,4.9c-1.7,3.3-2.5,9-2.5,17.2v11.1c0,8.8,0.8,15,2.5,18.5S447.9,174.6,452,174.6z"/>
	<path fill="#0071BC" d="M631,218.9h-18.8v41.8h-37.6v-41.8h-50.8v-26.1l43.7-99.3h44.7v99.3H631V218.9z M554.2,192.8h20.3v-45.2
		L554.2,192.8z"/>
	<path fill="#0071BC" d="M696.4,262.8c-17.7,0-30.4-4-38-11.9c-7.6-7.9-11.7-21.5-12.4-40.8l37.6-2.1c1,11.3,2.3,18.9,4.1,22.8
		c1.7,3.9,4.7,5.9,8.9,5.9c4.5,0,7.5-1.5,9-4.4c1.5-2.9,2.3-8.6,2.3-16.9v-15.5c0-7.5-1.4-12.7-4.2-15.6c-2.8-2.9-7.9-4.3-15.3-4.3
		h-37.6V93.5h90.5v26.1h-52.9v32.6h15.7c13.9,0,24.3,3.5,31.2,10.5c6.8,7,10.2,17.5,10.2,31.6v22c0,15.5-4.1,27.1-12.3,34.9
		C725,258.9,712.7,262.8,696.4,262.8z"/>
	<path fill="#0071BC" d="M818.5,262.8c-15.8,0-27.3-3.3-34.6-9.9c-7.3-6.6-11.5-17.6-12.7-32.9l39.1-4.8c0.3,8.5,1.2,14.2,2.6,17.1
		c1.5,2.9,4.3,4.4,8.5,4.4c3.2,0,5.5-2.1,6.8-6.4c1.3-4.3,2-11.7,2-22.3v-24.7h-1.5c-3.1,4.9-6.9,8.5-11.5,11
		c-4.6,2.4-10,3.7-16.1,3.7c-10.3,0-18.1-3.8-23.3-11.5c-5.2-7.7-7.8-19-7.8-34.1v-13c0-15.9,4.1-27.9,12.3-36
		c8.2-8.1,20.4-12.1,36.6-12.1c16.2,0,28.4,4.7,36.6,14c8.2,9.3,12.3,23.2,12.3,41.6v59c0,19-4.1,33.2-12.4,42.7
		C847.1,258.1,834.8,262.8,818.5,262.8z M818.9,174.6c4.2,0,7.1-1.8,8.8-5.3c1.7-3.6,2.5-9.7,2.5-18.5v-11.1c0-8.2-0.8-14-2.5-17.2
		c-1.7-3.3-4.6-4.9-8.8-4.9c-4,0-6.9,1.6-8.6,4.9c-1.7,3.3-2.5,9-2.5,17.2v11.1c0,8.8,0.8,15,2.5,18.5
		C812,172.8,814.9,174.6,818.9,174.6z"/>
</g>
<g>
	<g>
		<path fill="#FFFFFF" d="M70.6,368.6c-0.4,1.2-1.2,2.1-2.2,2.8c-1,0.7-2.2,1-3.6,1c-1.9,0-3.4-0.8-4.5-2.5
			c-1.1-1.6-1.7-3.9-1.7-6.8v-8.7c0-2.9,0.7-5.1,2.2-6.7c1.5-1.6,3.5-2.4,6.2-2.4c0.7,0,1.5,0.1,2.3,0.3c0.8,0.2,1.6,0.6,2.3,1v-9.6
			h3.9V372h-3.9v-3.4H70.6z M66.2,368.6c1.1,0,2.1-0.3,3-1c0.9-0.7,1.7-1.7,2.4-3.1v-14c-0.6-0.6-1.3-1.1-2-1.3
			c-0.7-0.3-1.5-0.4-2.3-0.4c-1.6,0-2.8,0.5-3.6,1.4c-0.8,0.9-1.1,2.4-1.1,4.4v8.9c0,1.8,0.3,3.1,0.9,4
			C64,368.2,64.9,368.6,66.2,368.6z"/>
		<path fill="#FFFFFF" d="M101.2,366.3c-0.7,2.1-1.6,3.7-2.9,4.7c-1.3,1-3.1,1.5-5.7,1.5c-2.6,0-4.7-0.8-6.2-2.3s-2.3-3.8-2.3-6.8
			v-8.8c0-3.1,0.8-5.4,2.4-6.9c1.6-1.5,3.6-2.3,6.1-2.3c2.5,0,4.6,0.8,6.1,2.4c1.5,1.6,2.3,4,2.3,7.2v4.7h-13v3.6
			c0,2,0.4,3.5,1.1,4.3c0.8,0.9,1.9,1.3,3.4,1.3c1.5,0,2.5-0.3,3.3-0.9c0.7-0.6,1.3-1.6,1.6-2.9L101.2,366.3z M88.1,354.7v1.8h9
			v-1.4c0-2.2-0.4-3.8-1.1-4.8c-0.7-1-1.9-1.5-3.4-1.5c-1.5,0-2.7,0.5-3.4,1.5C88.5,351.3,88.1,352.7,88.1,354.7z"/>
		<path fill="#FFFFFF" d="M118.2,372.4c-0.8,0-1.5-0.1-2.3-0.3c-0.8-0.2-1.5-0.6-2.3-1v9.6h-3.9v-34.9h3.9v3.4h1
			c0.4-1.2,1.1-2.1,2.1-2.8c1-0.7,2.2-1,3.7-1c1.9,0,3.5,0.8,4.6,2.5s1.6,3.9,1.6,6.8v8.7c0,2.9-0.7,5.1-2.2,6.7
			C122.9,371.6,120.8,372.4,118.2,372.4z M118,369c1.6,0,2.7-0.5,3.5-1.4c0.8-1,1.2-2.4,1.2-4.3v-8.9c0-1.7-0.3-3-0.9-3.9
			c-0.6-0.9-1.5-1.3-2.7-1.3c-1.1,0-2.1,0.3-3,1c-0.9,0.7-1.7,1.7-2.4,3.1v14c0.6,0.6,1.3,1,2,1.3C116.4,368.8,117.1,369,118,369z"
			/>
		<path fill="#FFFFFF" d="M135.4,372v-3.6h6.5v-27.8h-6.5v-3.6h10.4v31.3h6.4v3.6H135.4z"/>
		<path fill="#FFFFFF" d="M169.2,372.4c-2.7,0-4.8-0.8-6.3-2.4c-1.5-1.6-2.2-3.8-2.2-6.7v-8.8c0-2.9,0.7-5.2,2.2-6.8
			c1.5-1.6,3.6-2.4,6.3-2.4c2.7,0,4.7,0.8,6.2,2.4c1.5,1.6,2.2,3.9,2.2,6.8v8.8c0,2.9-0.7,5.1-2.2,6.7
			C174,371.6,171.9,372.4,169.2,372.4z M169.2,368.8c1.5,0,2.6-0.4,3.4-1.2c0.8-0.8,1.1-2.2,1.1-4.1v-8.9c0-1.9-0.4-3.3-1.1-4.2
			c-0.8-0.9-1.9-1.4-3.4-1.4c-1.5,0-2.6,0.5-3.4,1.4c-0.8,0.9-1.1,2.3-1.1,4.2v8.9c0,1.9,0.4,3.3,1.1,4.1
			C166.6,368.4,167.7,368.8,169.2,368.8z"/>
		<path fill="#FFFFFF" d="M189.5,380.9c-0.6,0-1.2,0-1.9-0.1c-0.7-0.1-1.4-0.2-2.1-0.3l0.5-3.6c0.6,0.1,1.2,0.3,1.8,0.3
			c0.5,0.1,1,0.1,1.5,0.1c1.3,0,2.3-0.4,2.9-1.1s1.2-1.9,1.7-3.5l0.1-0.5h-2l-6.6-26.4h4.2l5.3,22.9l5.2-22.9h4.1l-6.5,27.1
			c-0.8,3.1-1.8,5.2-3.3,6.3C192.8,380.4,191.3,380.9,189.5,380.9z"/>
		<path fill="#FFFFFF" d="M220.7,372.4c-1.7,0-3.4-0.3-5-0.8c-1.7-0.6-3.1-1.3-4.3-2.4l1.4-3.2c1.1,0.8,2.3,1.5,3.7,2
			c1.4,0.5,2.8,0.8,4.2,0.8c1.5,0,2.7-0.3,3.4-0.9c0.7-0.6,1.1-1.5,1.1-2.7c0-1.4-0.4-2.4-1.2-3c-0.8-0.6-2.2-1.1-4.3-1.7
			c-2.8-0.7-4.8-1.7-6-2.9c-1.2-1.2-1.7-2.8-1.7-4.9c0-2.4,0.7-4.2,2.1-5.5c1.4-1.3,3.3-2,5.7-2c1.5,0,3,0.3,4.6,0.9
			c1.5,0.6,2.9,1.4,4,2.4l-1.4,3.2c-1-0.8-2.1-1.4-3.4-2c-1.3-0.6-2.5-0.9-3.8-0.9c-1.3,0-2.3,0.3-2.9,0.9c-0.6,0.6-0.9,1.5-0.9,2.7
			c0,1.4,0.4,2.4,1.2,3s2.3,1.1,4.4,1.7c2.7,0.7,4.7,1.7,5.8,2.9c1.1,1.2,1.7,2.8,1.7,4.8c0,2.4-0.8,4.2-2.3,5.5
			C225.4,371.8,223.3,372.4,220.7,372.4z"/>
		<path fill="#FFFFFF" d="M275.3,372.4c-2.4,0-4.2-0.7-5.5-2.2c-1.3-1.5-2-3.5-2-6v-14.7h-5.4v-3.6h5.4v-8.7h3.9v8.7h8.2v3.6h-8.2
			v14.2c0,1.7,0.3,2.9,0.9,3.8s1.5,1.3,2.7,1.3c0.8,0,1.5-0.1,2.2-0.2c0.7-0.1,1.4-0.4,2-0.7l0.7,3.7c-0.6,0.2-1.3,0.5-2.2,0.7
			C277,372.2,276.1,372.4,275.3,372.4z"/>
		<path fill="#FFFFFF" d="M296.9,372.4c-2.7,0-4.8-0.8-6.3-2.4c-1.5-1.6-2.2-3.8-2.2-6.7v-8.8c0-2.9,0.7-5.2,2.2-6.8
			c1.5-1.6,3.6-2.4,6.3-2.4c2.7,0,4.7,0.8,6.2,2.4c1.5,1.6,2.2,3.9,2.2,6.8v8.8c0,2.9-0.7,5.1-2.2,6.7
			C301.6,371.6,299.5,372.4,296.9,372.4z M296.9,368.8c1.5,0,2.6-0.4,3.4-1.2c0.8-0.8,1.1-2.2,1.1-4.1v-8.9c0-1.9-0.4-3.3-1.1-4.2
			c-0.8-0.9-1.9-1.4-3.4-1.4c-1.5,0-2.6,0.5-3.4,1.4c-0.8,0.9-1.1,2.3-1.1,4.2v8.9c0,1.9,0.4,3.3,1.1,4.1
			C294.2,368.4,295.3,368.8,296.9,368.8z"/>
		<path fill="#FFFFFF" d="M357.4,380.2c-2.7,0.7-5.1,0.6-7.2-0.3c-2.1-0.9-3.2-3.3-3.3-7.3c-2.6-0.2-4.6-1.3-6-3.4
			c-1.4-2.1-2.1-4.9-2.1-8.4v-12.1c0-3.8,0.8-6.8,2.4-8.9c1.6-2.1,3.8-3.1,6.7-3.1c2.9,0,5.1,1,6.7,3.1c1.6,2.1,2.4,5.1,2.4,8.9
			v12.1c0,3.2-0.6,5.7-1.7,7.7c-1.1,2-2.7,3.2-4.8,3.8c0.1,2.6,0.9,4.1,2.2,4.5c1.4,0.4,2.8,0.4,4.1,0L357.4,380.2z M347.9,369
			c1.8,0,3.1-0.6,3.9-1.8c0.8-1.2,1.2-3.2,1.2-6v-12.9c0-2.9-0.4-5-1.2-6.3c-0.8-1.2-2.1-1.9-3.9-1.9c-1.8,0-3.1,0.6-3.9,1.9
			c-0.8,1.3-1.2,3.3-1.2,6.3v12.9c0,2.8,0.4,4.8,1.2,6C344.8,368.4,346.1,369,347.9,369z"/>
		<path fill="#FFFFFF" d="M379.8,372l-2.2-10.4h-8.4l-2.2,10.4h-3.9l8.2-34.9h4.4l8.2,34.9H379.8z M376.8,358.1l-3.4-16.3l-3.5,16.3
			H376.8z"/>
		<path fill="#FFFFFF" d="M428.4,372.4c-2.4,0-4.2-0.7-5.5-2.2c-1.3-1.5-2-3.5-2-6v-14.7h-5.4v-3.6h5.4v-8.7h3.9v8.7h8.2v3.6h-8.2
			v14.2c0,1.7,0.3,2.9,0.9,3.8s1.5,1.3,2.7,1.3c0.8,0,1.5-0.1,2.2-0.2c0.7-0.1,1.4-0.4,2-0.7l0.7,3.7c-0.6,0.2-1.3,0.5-2.2,0.7
			C430.2,372.2,429.3,372.4,428.4,372.4z"/>
		<path fill="#FFFFFF" d="M441.6,372v-34.9h3.9v12.1h1c0.4-1.2,1.1-2.1,2.1-2.8c1-0.7,2.3-1,3.7-1c1.8,0,3.3,0.7,4.5,2.2
			c1.1,1.5,1.7,3.5,1.7,6V372h-3.9v-17.8c0-1.7-0.3-3-0.9-3.8c-0.6-0.9-1.5-1.3-2.6-1.3c-1.1,0-2.1,0.3-3,1
			c-0.9,0.6-1.8,1.6-2.5,2.9v19H441.6z"/>
		<path fill="#FFFFFF" d="M484.1,366.3c-0.7,2.1-1.6,3.7-2.9,4.7c-1.3,1-3.1,1.5-5.7,1.5c-2.6,0-4.7-0.8-6.2-2.3s-2.3-3.8-2.3-6.8
			v-8.8c0-3.1,0.8-5.4,2.4-6.9c1.6-1.5,3.6-2.3,6.1-2.3c2.5,0,4.6,0.8,6.1,2.4c1.5,1.6,2.3,4,2.3,7.2v4.7h-13v3.6
			c0,2,0.4,3.5,1.1,4.3s1.9,1.3,3.4,1.3c1.5,0,2.5-0.3,3.3-0.9c0.7-0.6,1.3-1.6,1.6-2.9L484.1,366.3z M471,354.7v1.8h9v-1.4
			c0-2.2-0.4-3.8-1.1-4.8c-0.7-1-1.9-1.5-3.4-1.5c-1.5,0-2.7,0.5-3.4,1.5C471.4,351.3,471,352.7,471,354.7z"/>
		<path fill="#FFFFFF" d="M526.6,372.4c-0.8,0-1.5-0.1-2.3-0.3s-1.5-0.6-2.3-1v9.6h-3.9v-34.9h3.9v3.4h1c0.4-1.2,1.1-2.1,2.1-2.8
			c1-0.7,2.2-1,3.7-1c1.9,0,3.5,0.8,4.6,2.5s1.6,3.9,1.6,6.8v8.7c0,2.9-0.7,5.1-2.2,6.7C531.3,371.6,529.3,372.4,526.6,372.4z
			 M526.4,369c1.6,0,2.8-0.5,3.5-1.4s1.2-2.4,1.2-4.3v-8.9c0-1.7-0.3-3-0.9-3.9c-0.6-0.9-1.5-1.3-2.7-1.3c-1.1,0-2.1,0.3-3,1
			s-1.7,1.7-2.4,3.1v14c0.6,0.6,1.3,1,2,1.3C524.8,368.8,525.6,369,526.4,369z"/>
		<path fill="#FFFFFF" d="M549.1,372.4c-2,0-3.6-0.7-4.7-2s-1.7-3.1-1.7-5.5c0-2.3,0.6-4.1,1.8-5.4c1.2-1.3,2.9-2,5-2h5.5v-4.3
			c0-1.3-0.3-2.3-1-3.1c-0.7-0.8-1.7-1.2-3-1.2c-1.4,0-2.5,0.3-3.1,1c-0.6,0.7-1.1,1.9-1.5,3.8l-3.4-1c0.4-2.5,1.3-4.3,2.6-5.5
			c1.3-1.2,3.1-1.8,5.3-1.8c2.3,0,4.2,0.6,5.7,1.8c1.5,1.2,2.2,3.1,2.2,5.5v13c0,1.3,0.3,2.2,0.9,2.7c0.6,0.4,1.5,0.5,2.8,0.1v3.7
			c-1.9,0.3-3.3,0.1-4.3-0.5s-1.5-1.8-1.7-3.6H556c-0.6,1.3-1.5,2.3-2.8,3.1C552,372,550.6,372.4,549.1,372.4z M549.8,368.9
			c1.3,0,2.3-0.3,3.2-0.8c0.9-0.6,1.6-1.5,2.1-2.7v-4.6h-4.9c-1.2,0-2.1,0.3-2.7,0.9c-0.6,0.6-0.9,1.6-0.9,3.1
			c0,1.3,0.2,2.4,0.7,3.1C547.8,368.5,548.6,368.9,549.8,368.9z"/>
		<path fill="#FFFFFF" d="M578.1,372.4c-1.7,0-3.4-0.3-5-0.8c-1.7-0.6-3.1-1.3-4.3-2.4l1.4-3.2c1.1,0.8,2.3,1.5,3.7,2
			s2.8,0.8,4.2,0.8c1.5,0,2.7-0.3,3.4-0.9c0.7-0.6,1.1-1.5,1.1-2.7c0-1.4-0.4-2.4-1.2-3c-0.8-0.6-2.2-1.1-4.3-1.7
			c-2.8-0.7-4.8-1.7-6-2.9c-1.2-1.2-1.7-2.8-1.7-4.9c0-2.4,0.7-4.2,2.1-5.5c1.4-1.3,3.3-2,5.7-2c1.5,0,3,0.3,4.6,0.9
			c1.5,0.6,2.9,1.4,4,2.4l-1.4,3.2c-1-0.8-2.1-1.4-3.4-2c-1.3-0.6-2.5-0.9-3.8-0.9c-1.3,0-2.3,0.3-2.9,0.9c-0.6,0.6-0.9,1.5-0.9,2.7
			c0,1.4,0.4,2.4,1.2,3s2.3,1.1,4.4,1.7c2.7,0.7,4.7,1.7,5.8,2.9c1.1,1.2,1.7,2.8,1.7,4.8c0,2.4-0.8,4.2-2.3,5.5
			C582.7,371.8,580.7,372.4,578.1,372.4z"/>
		<path fill="#FFFFFF" d="M607.1,372.4c-2.4,0-4.2-0.7-5.5-2.2c-1.3-1.5-2-3.5-2-6v-14.7h-5.4v-3.6h5.4v-8.7h3.9v8.7h8.2v3.6h-8.2
			v14.2c0,1.7,0.3,2.9,0.9,3.8c0.6,0.8,1.5,1.3,2.7,1.3c0.8,0,1.5-0.1,2.2-0.2c0.7-0.1,1.4-0.4,2-0.7l0.7,3.7
			c-0.6,0.2-1.3,0.5-2.2,0.7S608,372.4,607.1,372.4z"/>
		<path fill="#FFFFFF" d="M654,372.4c-3.4,0-5.7-0.8-7-2.4c-1.3-1.6-2-4.1-2.1-7.4l4-0.4c0.2,2.7,0.6,4.6,1.3,5.5s2,1.4,3.8,1.4
			c1.9,0,3.3-0.5,4.1-1.5c0.8-1,1.2-2.6,1.2-5v-1.2c0-2.3-0.4-4-1.1-4.9c-0.7-0.9-2.1-1.3-4-1.3h-3.4v-3.6h3.4
			c1.7,0,2.8-0.4,3.4-1.1c0.6-0.7,1-2,1-3.8v-1.4c0-1.9-0.3-3.3-1-4.1c-0.7-0.8-1.9-1.2-3.6-1.2c-1.5,0-2.6,0.4-3.3,1.3
			c-0.7,0.9-1.1,2.5-1.2,4.9l-4-0.4c0.1-3.3,0.9-5.6,2.3-7c1.4-1.4,3.4-2.1,6.1-2.1c2.6,0,4.7,0.7,6.3,2.1c1.6,1.4,2.4,3.6,2.4,6.7
			v1.5c0,1.7-0.5,3.1-1.4,4.1s-2.1,1.6-3.7,1.7v1.3c1.8,0.2,3.2,1,4.2,2.4c1,1.4,1.5,3,1.5,4.9v1.2c0,3-0.7,5.5-2.2,7.2
			C659.6,371.5,657.3,372.4,654,372.4z"/>
		<path fill="#FFFFFF" d="M679.8,372.4c-3,0-5.3-1-6.8-3.1c-1.5-2.1-2.3-5.2-2.3-9.3v-11.5c0-4,0.8-6.9,2.3-8.9
			c1.5-2,3.8-2.9,6.8-2.9c2.8,0,4.8,0.6,6.1,1.8c1.3,1.2,2.2,3.2,2.6,6l-4.3,1c-0.3-2.1-0.8-3.5-1.4-4.2c-0.6-0.7-1.7-1-3.2-1
			c-1.8,0-3.1,0.6-3.8,1.9c-0.8,1.3-1.1,3.4-1.1,6.3v5.1h0.5c0.6-1.2,1.3-2,2.2-2.6c0.9-0.6,2-0.8,3.4-0.8c2.8,0,4.8,1,6.1,2.9
			c1.3,1.9,1.9,4.4,1.9,7.4v1c0,3.6-0.8,6.3-2.3,8.2C685,371.5,682.8,372.4,679.8,372.4z M679.7,368.8c1.7,0,3-0.6,3.8-1.7
			c0.8-1.1,1.2-3,1.2-5.5v-0.6c0-2.5-0.4-4.3-1.2-5.5c-0.8-1.1-2.1-1.7-3.8-1.7c-1.7,0-3,0.6-3.8,1.7c-0.8,1.1-1.2,3-1.2,5.5v0.6
			c0,2.5,0.4,4.3,1.2,5.5C676.7,368.2,678,368.8,679.7,368.8z"/>
		<path fill="#FFFFFF" d="M704.9,372.4c-3.3,0-5.6-0.7-6.9-2.1s-2-4-2.1-7.8l4-0.4c0.1,2.8,0.5,4.6,1.2,5.5s1.9,1.3,3.9,1.3
			c2,0,3.4-0.5,4.2-1.5c0.8-1,1.2-2.5,1.2-4.5v-2.2c0-2-0.3-3.5-1-4.6c-0.7-1.1-1.8-1.6-3.4-1.6h-9.1v-17.3h16.2v3.6h-12.2v9.9h5.6
			c2.5,0,4.4,0.8,5.8,2.3c1.4,1.5,2.1,4,2.1,7.4v2.7c0,2.9-0.8,5.2-2.3,6.8S708.1,372.4,704.9,372.4z"/>
		<path fill="#FFFFFF" d="M759.8,368.6c-0.4,1.2-1.2,2.1-2.2,2.8c-1,0.7-2.2,1-3.6,1c-1.9,0-3.4-0.8-4.5-2.5
			c-1.1-1.6-1.7-3.9-1.7-6.8v-8.7c0-2.9,0.7-5.1,2.2-6.7c1.5-1.6,3.5-2.4,6.2-2.4c0.7,0,1.5,0.1,2.3,0.3c0.8,0.2,1.6,0.6,2.3,1v-9.6
			h3.9V372h-3.9v-3.4H759.8z M755.4,368.6c1.1,0,2.1-0.3,3-1c0.9-0.7,1.7-1.7,2.4-3.1v-14c-0.6-0.6-1.3-1.1-2-1.3s-1.5-0.4-2.3-0.4
			c-1.6,0-2.8,0.5-3.6,1.4c-0.8,0.9-1.1,2.4-1.1,4.4v8.9c0,1.8,0.3,3.1,0.9,4S754.2,368.6,755.4,368.6z"/>
		<path fill="#FFFFFF" d="M778.8,372.4c-2,0-3.6-0.7-4.7-2s-1.7-3.1-1.7-5.5c0-2.3,0.6-4.1,1.8-5.4c1.2-1.3,2.9-2,5-2h5.5v-4.3
			c0-1.3-0.3-2.3-1-3.1c-0.7-0.8-1.7-1.2-3-1.2c-1.4,0-2.5,0.3-3.1,1c-0.6,0.7-1.1,1.9-1.5,3.8l-3.4-1c0.4-2.5,1.3-4.3,2.6-5.5
			c1.3-1.2,3.1-1.8,5.3-1.8c2.3,0,4.2,0.6,5.7,1.8c1.5,1.2,2.2,3.1,2.2,5.5v13c0,1.3,0.3,2.2,0.9,2.7c0.6,0.4,1.5,0.5,2.8,0.1v3.7
			c-1.9,0.3-3.3,0.1-4.3-0.5s-1.5-1.8-1.7-3.6h-0.7c-0.6,1.3-1.5,2.3-2.8,3.1C781.7,372,780.3,372.4,778.8,372.4z M779.5,368.9
			c1.3,0,2.3-0.3,3.2-0.8c0.9-0.6,1.6-1.5,2.1-2.7v-4.6h-4.9c-1.2,0-2.1,0.3-2.7,0.9c-0.6,0.6-0.9,1.6-0.9,3.1
			c0,1.3,0.2,2.4,0.7,3.1C777.5,368.5,778.4,368.9,779.5,368.9z"/>
		<path fill="#FFFFFF" d="M802.2,380.9c-0.6,0-1.2,0-1.9-0.1c-0.7-0.1-1.4-0.2-2.1-0.3l0.5-3.6c0.6,0.1,1.2,0.3,1.8,0.3
			c0.5,0.1,1,0.1,1.5,0.1c1.3,0,2.3-0.4,2.9-1.1s1.2-1.9,1.7-3.5l0.1-0.5h-2l-6.6-26.4h4.2l5.3,22.9l5.2-22.9h4.1l-6.5,27.1
			c-0.8,3.1-1.8,5.2-3.3,6.3C805.5,380.4,803.9,380.9,802.2,380.9z"/>
		<path fill="#FFFFFF" d="M833.3,372.4c-1.7,0-3.4-0.3-5-0.8c-1.7-0.6-3.1-1.3-4.3-2.4l1.4-3.2c1.1,0.8,2.3,1.5,3.7,2
			s2.8,0.8,4.2,0.8c1.5,0,2.7-0.3,3.4-0.9c0.7-0.6,1.1-1.5,1.1-2.7c0-1.4-0.4-2.4-1.2-3c-0.8-0.6-2.2-1.1-4.3-1.7
			c-2.8-0.7-4.8-1.7-6-2.9c-1.2-1.2-1.7-2.8-1.7-4.9c0-2.4,0.7-4.2,2.1-5.5c1.4-1.3,3.3-2,5.7-2c1.5,0,3,0.3,4.6,0.9
			c1.5,0.6,2.9,1.4,4,2.4l-1.4,3.2c-1-0.8-2.1-1.4-3.4-2c-1.3-0.6-2.5-0.9-3.8-0.9c-1.3,0-2.3,0.3-2.9,0.9c-0.6,0.6-0.9,1.5-0.9,2.7
			c0,1.4,0.4,2.4,1.2,3c0.8,0.6,2.3,1.1,4.4,1.7c2.7,0.7,4.7,1.7,5.8,2.9c1.1,1.2,1.7,2.8,1.7,4.8c0,2.4-0.8,4.2-2.3,5.5
			C838,371.8,835.9,372.4,833.3,372.4z"/>
	</g>
</g>
<g>
	<circle fill="#333333" cx="49" cy="85.3" r="7.5"/>
	<circle fill="#333333" cx="73" cy="85.3" r="7.5"/>
	<circle fill="#333333" cx="97" cy="85.3" r="7.5"/>
</g>
<g>
	<circle fill="#333333" cx="49" cy="158.2" r="7.5"/>
	<circle fill="#333333" cx="73" cy="158.2" r="7.5"/>
	<circle fill="#333333" cx="97" cy="158.2" r="7.5"/>
</g>
<g>
	<circle fill="#333333" cx="49" cy="231" r="7.5"/>
	<circle fill="#333333" cx="73" cy="231" r="7.5"/>
	<circle fill="#333333" cx="97" cy="231" r="7.5"/>
</g>
<path fill="none" stroke="#333333" stroke-width="4" stroke-miterlimit="10" d="M360,261c-2,0-4.1,0-6.1,0c-16.3,0-32.6,0-48.9,0
	c-26.6,0-53.1,0-79.7,0c-17.1,0-34.2,0-51.3,0c-8.4,0-17.3,0.9-25.7,0c-3.2-0.3-5.9-1.5-9.2-1.2c-3.1,0.2-6,1.2-9.1,1.2
	c-7.5,0-15,0-22.5,0c-15.3,0-30.5,0-45.8,0c-8.6,0-17.1,0-25.7,0c-2.9,0-5.8,0-8.7,0c-6.9-0.1-7.3-4.6-7.3-10.7c0-5.2,0-10.3,0-15.5
	c0-6.6,0-13.2,0-19.8c0-5.5-2.1-13.5,5-14c2.5-0.2,5.1,0,7.6,0c8,0,15.9,0,23.9,0c24.4,0,48.8,0,73.1,0c29.5,0,58.9,0,88.4,0
	c27.1,0,54.3,0,81.4,0c17.4,0,34.9,0,52.3,0c2.8,0,5.5,0,8.3,0C360,201,360,261,360,261z"/>
<path fill="none" stroke="#333333" stroke-width="4" stroke-miterlimit="10" d="M360,188c-9.6,0-19.1,0-28.7,0c-10.5,0-21,0-31.5,0
	c-5.6,0-11.3-0.4-16.7,0.6c-4.7,0.9-7.5-0.7-12.1-1.6c-5-1-11.2,1-16.3,1c-6.1,0.1-12.2,0-18.2,0c-12.4,0-24.8,0-37.1,0
	c-40.9,0-81.8,0-122.6,0c-18.9,0-37.8,0-56.7,0c0-8.8,0-17.5,0-26.3c0-6.6,0-13.2,0-19.8c0-2.6,0-5.3,0-7.9
	c-0.1-8.3,9.5-5.8,15.3-5.8c7.5,0,15,0,22.5-0.1c15.8-0.1,31.5-0.2,47.3-0.4c4.4-0.1,8.9,0.1,13.3-0.3c2.2-0.2,4.4-0.6,6.6-0.6
	c5.4,0,10.4,1.3,15.9,1.3c5.5,0,11.1,0,16.6,0c11.3,0,22.6,0,33.9,0c22.1,0,44.3,0,66.4,0c31.1,0,62.2,0,93.3,0c3,0,5.9,0,8.9,0V188
	z"/>
<path fill="none" stroke="#333333" stroke-width="4" stroke-miterlimit="10" d="M357.9,112.9c-1.4,1.3-3.4,2.1-5.8,2.1
	c-1.9,0-3.7,0-5.6,0c-19.4,0-38.8,0-58.2,0c-28,0-56,0-84,0c-29.2,0-58.3,0-87.5,0c-22.9,0-45.9,0-68.8,0c-9.3,0-18.6,0-27.9,0V55
	c9.8,0,19.6,0,29.4,0c24,0,48,0,72,0c30.1,0,60.3,0,90.4,0c28.2,0,56.5,0,84.7,0c18.6,0,37.2,0.1,55.7-0.1
	c12.1-0.1,7.8,25.2,7.8,32.8c0,6.7,0.5,13.7,0,20.4C359.8,110.1,359.1,111.7,357.9,112.9z"/>
</svg>
