<svg version="1.1" id="Layer_1" xmlns="http://www.w3.org/2000/svg" xmlns:xlink="http://www.w3.org/1999/xlink" x="0px" y="0px"
	 width="900px" height="400px" viewBox="0 0 900 400" enable-background="new 0 0 900 400" xml:space="preserve">
<path fill="#DDDDDD" stroke="#111111" stroke-width="3.2154" stroke-miterlimit="10" d="M410,352.1c-9.9-4.1-12.6-176,38.2-176
	c55.3,0,48.5,168.6,42.2,173.3C484.1,354.1,419.2,356,410,352.1z"/>
<path fill="#DDDDDD" stroke="#111111" stroke-width="3.2154" stroke-miterlimit="10" d="M409.4,143.2c0-22.2,14.5-40.2,37.5-40.2
	c25,0,37.5,18,37.5,40.2s-23.7,40.2-37.5,40.2C433.3,183.4,409.4,165.4,409.4,143.2z"/>
<path fill="#777777" stroke="#111111" stroke-width="3.2154" stroke-linecap="round" stroke-linejoin="round" stroke-miterlimit="10" d="
	M429.1,156.5c10.3-7.6,26.4-6.5,34.4-2.4c7.3,3.7,10.2,17.3,8.8,26.8c-1.5,10.1-16.1,29.3-18.5,34.8c-2.5,5.6-0.6,13.9-0.1,19.4
	c-24.8-2.8-13.9-33.4-16.6-37.5c-3.3-4.9-13.8-8.7-15-16.1C421,174.4,423,161,429.1,156.5z"/>
<path fill="#555555" stroke="#111111" stroke-width="3.2154" stroke-linecap="round" stroke-linejoin="round" stroke-miterlimit="10" d="
	M472.1,116.7c-6.8-6.8-20.3,4.5-27.1,5.7c-5.1,0.9-16.9-4.1-26,0.1c-5,2.3-4.2,21-9.5,24.1c-4.2-3.7-6.3-13.1-4.9-16.2
	c3.7-8,4.9-11.7-3.2-11.7c5.3-4.5,14.9-4.5,18.6-4.9c-3.5-2.7-16.6-5.2-20.1-7.9c6.9,2.5,18.9,0.4,23.8,1.3
	c-6.2-2.3-13.3-6.3-14.8-11.7c14.4,6.3,24.4,7.5,46.8,1.9c27-6.8,41.1,24.6,28.7,47.1C475.9,137.6,478.9,123.9,472.1,116.7
	C471.9,116.5,473,117.7,472.1,116.7z"/>
<path fill="#555555" stroke="#111111" stroke-width="3.2154" stroke-miterlimit="10" d="M521.7,352.9
	c-15.6-14.9-7.4-174.5,44.6-174.5c46.3,0,46.9,158.4,29.9,174.5C585.8,362.7,529.2,360,521.7,352.9z"/>
<path fill="#EEEEEE" stroke="#111111" stroke-width="3.2154" stroke-miterlimit="10" d="M527.3,145.4c0-22.2,17.2-40.2,39.4-40.2
	c22.2,0,39,18,39,40.2c0,22.2-16.8,43.8-39,43.8C544.5,189.2,527.3,167.6,527.3,145.4z"/>
<g>
	<ellipse fill="#111111" cx="579.8" cy="141.5" rx="5" ry="5"/>
	<ellipse fill="#111111" cx="553.7" cy="141.5" rx="5" ry="5"/>
</g>
<path fill="#555555" stroke="#111111" stroke-width="3.2154" stroke-linecap="round" stroke-linejoin="round" stroke-miterlimit="10" d="
	M538,160.9c-9.1-11.8-14.2-41.6,31.3-46.6c1.2,4.1,0.2,12.6-4.1,15.4c11.1,0.4,20.5-4.4,25.5-14.1c19.6,22.5,12,41.8,3.1,49.8
	c22.6-3.7,20-32.9,19.5-37.7C610,97.3,582.7,90.5,572.5,90c-11.8-0.6-41.3,8-48.4,32C519.3,138.2,524.8,159.3,538,160.9z"/>
<path fill="#333333" stroke="#111111" stroke-width="3.2154" stroke-miterlimit="10" d="M333.6,97.9c-19.2-3.5-38.2,0.4-52.9,15.3
	c-12.5,12.7-14,41.5-10.5,62.4c2.3,13.5,8.3,20.6,8.3,31.2c0,9.2-10.5,16.7-16.4,22.8c-5.5,5.7-15.2,14.7-5.8,19.7
	c18.8,10,77.8-28.2,96.2-17.7c35.4,20.1,4.3-27.9,2.7-32.6c-3.5-9.9,6-12.9,14.7-32.8C380.2,142.6,370.2,104.6,333.6,97.9z"/>
<path fill="#DDDDDD" stroke="#111111" stroke-width="3.2154" stroke-miterlimit="10" d="M279.6,367.6
	c-5.5-5.7-15.6-185.5,40.2-185.6c61.2-0.1,43.9,177.3,37.7,182C351.1,368.6,292.1,380.7,279.6,367.6z"/>
<path fill="#999999" stroke="#111111" stroke-width="3.2154" stroke-linecap="round" stroke-linejoin="round" stroke-miterlimit="10" d="
	M354.2,132c-16-0.7-30.5-19.9-30.5-19.9c-7.5,14.8-29.5,26.2-38.8,29.7c-0.5,2.7-0.7,5.5-0.7,8.3c0,22.9,16.5,41.4,36.9,41.4
	c20.4,0,36.9-18.5,36.9-41.4C357.8,143.6,356.5,137.5,354.2,132z"/>
<g>

		<path fill="#EEEEEE" stroke="#111111" stroke-width="3.2154" stroke-linecap="round" stroke-linejoin="round" stroke-miterlimit="10" d="
		M321,177.5c7.4-1.2,14.8-16,14.4-16.6c-0.4-0.6-26.8-0.3-28.7,0.6C304.7,162.6,313.2,178.7,321,177.5z"/>
	<circle fill="#111111" cx="333.6" cy="144" r="5"/>
	<circle fill="#111111" cx="307.5" cy="144" r="5"/>
</g>
<path fill="#333333" stroke="#111111" stroke-width="3.2154" stroke-miterlimit="10" d="M141.8,327.3c-9-17.7-1.2-151,47.5-151
	c43.5,0,41.4,127.5,35.2,147.9C219.3,341.8,149.7,342.9,141.8,327.3z"/>
<path fill="#EEEEEE" stroke="#111111" stroke-width="3.2154" stroke-miterlimit="10" d="M152.2,143c-2.9-22,7.2-35,35-35
	c26.2,0,38.6,13.1,35,35c-3.5,21.2-15.7,40.2-35,40.2C167.9,183.2,155.2,165.4,152.2,143z"/>
<g>

		<path fill="#EEEEEE" stroke="#111111" stroke-width="3.2154" stroke-linecap="round" stroke-linejoin="round" stroke-miterlimit="10" d="
		M168.9,154.5c4.7,4.2,10.5,17.7,17.5,17.2c6.9-0.4,14.1-14.5,19.1-19.2L168.9,154.5z"/>

		<path fill="none" stroke="#111111" stroke-width="3.2154" stroke-linecap="round" stroke-linejoin="round" stroke-miterlimit="10" d="
		M167.6,137.8c4.3-3.3,8.8-4.6,13.7-0.8"/>

		<path fill="none" stroke="#111111" stroke-width="3.2154" stroke-linecap="round" stroke-linejoin="round" stroke-miterlimit="10" d="
		M194.1,137.8c4.3-3.3,8.8-4.6,13.7-0.8"/>
</g>
<path fill="#777777" stroke="#111111" stroke-width="3.2154" stroke-linecap="round" stroke-linejoin="round" stroke-miterlimit="10" d="
	M153.2,148.7c-0.8-7,2.5-23.8,8-27.9c6.5-4.9,19,2.7,27.5,2.8c4.9,0,18.8-6.8,22.4-5.1c8,3.9,8.6,11.3,11.3,23.1
	c16.4-31.1-12.5-31.2-11.3-59.2c-10.1,6-10.3,25.6-18.1,25.7c1.3-6.1-1.4-19.9-4.4-27.2c-4.8,10,1.2,16.2-8.3,22.8
	c-3.3-6.8-13.1-11.4-18.4-26.5c-3.8,10,8.8,27.4,2.1,29.9c-4.3-7.1-8.6-3.3-15.9-7C158,121.4,142.4,141.8,153.2,148.7z"/>
<path fill="#EEEEEE" stroke="#111111" stroke-width="3.2154" stroke-miterlimit="10" d="M30,344.2c-5.5-5.7,4.8-151.2,44.2-150.3
	c56.8,1.3,46.5,160.6,40.2,165.3C108.1,363.9,42.6,357.3,30,344.2z"/>
<path fill="#999999" stroke="#111111" stroke-width="3.2154" stroke-miterlimit="10" d="M38,160.9c0-22.2,15.2-40.2,37.1-40.2
	c21.9,0,37.5,18,37.5,40.2c0,22.2-8.5,39.4-37.5,39.4C44,200.3,38,183.1,38,160.9z"/>
<g>
	<circle fill="#111111" cx="87.7" cy="154.3" r="5"/>
	<circle fill="#111111" cx="61.5" cy="154.3" r="5"/>

		<path fill="none" stroke="#111111" stroke-width="3.2154" stroke-linecap="round" stroke-linejoin="round" stroke-miterlimit="10" d="
		M55.9,172.6c13.1,18.9,25.8,16,38.2-0.8"/>
</g>
<path fill="#333333" stroke="#111111" stroke-width="3.2154" stroke-miterlimit="10" d="M96.5,130.1c8.6-0.4,9.1,28.2,16.5,28.2
	c4,0,3.6-33.1-5-43.4c-5.5-6.5-19.7-12-33.4-11.9c-14.5,0.2-28.4,6.4-34,13.5c-12.8,16.4-7,42.8-3.2,42.8c5.5,0,5.9-28.5,14.7-28.3
	c8.8,0.2,16.4,8.8,23.1,8.6C83.4,139.3,89.7,130.3,96.5,130.1z"/>
<circle fill="#111111" cx="459.9" cy="141.6" r="5"/>
<circle fill="#111111" cx="433.8" cy="141.6" r="5"/>
<path fill="none" stroke="#111111" stroke-width="3.2154" stroke-linecap="round" stroke-linejoin="round" stroke-miterlimit="10" d="
	M555.9,164.8c1.3,4.4,9.8,10,14.5,8.3c4.6-1.6,6.2-9.8,10.2-12.6"/>
<path fill="none" stroke="#111111" stroke-width="3.2154" stroke-linecap="round" stroke-linejoin="round" stroke-miterlimit="10" d="
	M437.7,168.4c5.1,3.1,12.2,5.6,18.1,3.6"/>
<rect y="300" fill="#2D2D2D" width="900" height="100"/>
<g>
	<path fill="#22B573" d="M753.3,218.9h-18.8v41.8h-37.6v-41.8H646v-26.1l43.7-99.3h44.7v99.3h18.8V218.9z M676.6,192.8h20.3v-45.2
		L676.6,192.8z"/>
	<path fill="#22B573" d="M770,260.7v-34.9c0-13,2-23,6.1-30.2c4-7.2,11.8-14.6,23.4-22.3L812,165c7.5-5,12.2-8.9,13.9-11.5
		c1.7-2.6,2.6-7.1,2.6-13.4v-4.8c0-6-0.8-10.5-2.3-13.4c-1.5-2.9-4-4.4-7.3-4.4c-3.5,0-5.9,2-7.2,6.1c-1.3,4-2.2,11.5-2.6,22.4
		l-37.6-2.1c0.7-18.3,4.8-31.6,12.3-39.9c7.5-8.4,19.2-12.5,34.9-12.5c15.6,0,27.4,3.7,35.4,11c8,7.3,12,18.2,12,32.5v9.8
		c0,10.3-2,18.6-6,24.9s-11.7,13.2-23.1,20.7l-12.5,8.4c-7.7,5.3-12.4,9.3-14.2,12.1c-1.8,2.8-2.7,7.7-2.7,14.6v7.7h60.2v27.6H770z"
		/>
</g>
<g>
	<g>
		<path fill="#FFFFFF" d="M117.7,370.6c-0.4,1.2-1.2,2.1-2.2,2.8c-1,0.7-2.2,1-3.6,1c-1.9,0-3.4-0.8-4.5-2.5
			c-1.1-1.6-1.7-3.9-1.7-6.8v-8.7c0-2.9,0.7-5.1,2.2-6.7c1.5-1.6,3.5-2.4,6.2-2.4c0.7,0,1.5,0.1,2.3,0.3c0.8,0.2,1.6,0.6,2.3,1v-9.6
			h3.9V374h-3.9v-3.4H117.7z M113.3,370.6c1.1,0,2.1-0.3,3-1c0.9-0.7,1.7-1.7,2.4-3.1v-14c-0.6-0.6-1.3-1.1-2-1.3
			c-0.7-0.3-1.5-0.4-2.3-0.4c-1.6,0-2.8,0.5-3.6,1.4c-0.8,0.9-1.1,2.4-1.1,4.4v8.9c0,1.8,0.3,3.1,0.9,4
			C111.1,370.2,112,370.6,113.3,370.6z"/>
		<path fill="#FFFFFF" d="M148.3,368.3c-0.7,2.1-1.6,3.7-2.9,4.7c-1.3,1-3.1,1.5-5.7,1.5c-2.6,0-4.7-0.8-6.2-2.3s-2.3-3.8-2.3-6.8
			v-8.8c0-3.1,0.8-5.4,2.4-6.9c1.6-1.5,3.6-2.3,6.1-2.3c2.5,0,4.6,0.8,6.1,2.4c1.5,1.6,2.3,4,2.3,7.2v4.7h-13v3.6
			c0,2,0.4,3.5,1.1,4.3c0.8,0.9,1.9,1.3,3.4,1.3c1.5,0,2.5-0.3,3.3-0.9c0.7-0.6,1.3-1.6,1.6-2.9L148.3,368.3z M135.2,356.7v1.8h9
			v-1.4c0-2.2-0.4-3.8-1.1-4.8c-0.7-1-1.9-1.5-3.4-1.5c-1.5,0-2.7,0.5-3.4,1.5C135.6,353.3,135.2,354.7,135.2,356.7z"/>
		<path fill="#FFFFFF" d="M167.7,374h-5.1l-6.7-26.2h4.1l5.2,22.6l5.1-22.6h4L167.7,374z"/>
		<path fill="#FFFFFF" d="M199.4,368.3c-0.7,2.1-1.6,3.7-2.9,4.7c-1.3,1-3.1,1.5-5.7,1.5c-2.6,0-4.7-0.8-6.2-2.3s-2.3-3.8-2.3-6.8
			v-8.8c0-3.1,0.8-5.4,2.4-6.9c1.6-1.5,3.6-2.3,6.1-2.3c2.5,0,4.6,0.8,6.1,2.4c1.5,1.6,2.3,4,2.3,7.2v4.7h-13v3.6
			c0,2,0.4,3.5,1.1,4.3c0.8,0.9,1.9,1.3,3.4,1.3c1.5,0,2.5-0.3,3.3-0.9c0.7-0.6,1.3-1.6,1.6-2.9L199.4,368.3z M186.2,356.7v1.8h9
			v-1.4c0-2.2-0.4-3.8-1.1-4.8c-0.7-1-1.9-1.5-3.4-1.5c-1.5,0-2.7,0.5-3.4,1.5C186.6,353.3,186.2,354.7,186.2,356.7z"/>
		<path fill="#FFFFFF" d="M208,374v-3.6h6.5v-27.8H208v-3.6h10.4v31.3h6.4v3.6H208z"/>
		<path fill="#FFFFFF" d="M241.8,374.4c-2.7,0-4.8-0.8-6.3-2.4c-1.5-1.6-2.2-3.8-2.2-6.7v-8.8c0-2.9,0.7-5.2,2.2-6.8
			c1.5-1.6,3.6-2.4,6.3-2.4c2.7,0,4.7,0.8,6.2,2.4c1.5,1.6,2.2,3.9,2.2,6.8v8.8c0,2.9-0.7,5.1-2.2,6.7
			C246.6,373.6,244.5,374.4,241.8,374.4z M241.8,370.8c1.5,0,2.6-0.4,3.4-1.2c0.8-0.8,1.1-2.2,1.1-4.1v-8.9c0-1.9-0.4-3.3-1.1-4.2
			c-0.8-0.9-1.9-1.4-3.4-1.4c-1.5,0-2.6,0.5-3.4,1.4c-0.8,0.9-1.1,2.3-1.1,4.2v8.9c0,1.9,0.4,3.3,1.1,4.1
			C239.2,370.4,240.3,370.8,241.8,370.8z"/>
		<path fill="#FFFFFF" d="M267.4,374.4c-0.8,0-1.5-0.1-2.3-0.3c-0.8-0.2-1.5-0.6-2.3-1v9.6h-3.9v-34.9h3.9v3.4h1
			c0.4-1.2,1.1-2.1,2.1-2.8c1-0.7,2.2-1,3.7-1c1.9,0,3.5,0.8,4.6,2.5s1.6,3.9,1.6,6.8v8.7c0,2.9-0.7,5.1-2.2,6.7
			C272.1,373.6,270,374.4,267.4,374.4z M267.1,371c1.6,0,2.7-0.5,3.5-1.4c0.8-1,1.2-2.4,1.2-4.3v-8.9c0-1.7-0.3-3-0.9-3.9
			c-0.6-0.9-1.5-1.3-2.7-1.3c-1.1,0-2.1,0.3-3,1c-0.9,0.7-1.7,1.7-2.4,3.1v14c0.6,0.6,1.3,1,2,1.3C265.6,370.8,266.3,371,267.1,371z
			"/>
		<path fill="#FFFFFF" d="M301.5,368.3c-0.7,2.1-1.6,3.7-2.9,4.7c-1.3,1-3.1,1.5-5.7,1.5c-2.6,0-4.7-0.8-6.2-2.3s-2.3-3.8-2.3-6.8
			v-8.8c0-3.1,0.8-5.4,2.4-6.9c1.6-1.5,3.6-2.3,6.1-2.3c2.5,0,4.6,0.8,6.1,2.4c1.5,1.6,2.3,4,2.3,7.2v4.7h-13v3.6
			c0,2,0.4,3.5,1.1,4.3c0.8,0.9,1.9,1.3,3.4,1.3c1.5,0,2.5-0.3,3.3-0.9c0.7-0.6,1.3-1.6,1.6-2.9L301.5,368.3z M288.3,356.7v1.8h9
			v-1.4c0-2.2-0.4-3.8-1.1-4.8c-0.7-1-1.9-1.5-3.4-1.5c-1.5,0-2.7,0.5-3.4,1.5C288.7,353.3,288.3,354.7,288.3,356.7z"/>
		<path fill="#FFFFFF" d="M311.3,374v-26.2h4v3.8h1c0.4-1.5,1.1-2.6,2.1-3.3c1-0.7,2.2-1,3.5-1c1.5,0,2.8,0.6,3.8,1.8
			c1,1.2,1.5,2.9,1.5,5.2v4.2h-3.8v-2.7c0-1.6-0.2-2.8-0.7-3.5c-0.5-0.8-1.3-1.1-2.4-1.1c-1,0-1.9,0.3-2.7,1
			c-0.8,0.7-1.5,1.6-2.2,2.9v19H311.3z"/>
		<path fill="#FFFFFF" d="M344.3,374.4c-1.7,0-3.4-0.3-5-0.8c-1.7-0.6-3.1-1.3-4.3-2.4l1.4-3.2c1.1,0.8,2.3,1.5,3.7,2
			c1.4,0.5,2.8,0.8,4.2,0.8c1.5,0,2.7-0.3,3.4-0.9c0.7-0.6,1.1-1.5,1.1-2.7c0-1.4-0.4-2.4-1.2-3c-0.8-0.6-2.2-1.1-4.3-1.7
			c-2.8-0.7-4.8-1.7-6-2.9c-1.2-1.2-1.7-2.8-1.7-4.9c0-2.4,0.7-4.2,2.1-5.5c1.4-1.3,3.3-2,5.7-2c1.5,0,3,0.3,4.6,0.9
			c1.5,0.6,2.9,1.4,4,2.4l-1.4,3.2c-1-0.8-2.1-1.4-3.4-2c-1.3-0.6-2.5-0.9-3.8-0.9c-1.3,0-2.3,0.3-2.9,0.9c-0.6,0.6-0.9,1.5-0.9,2.7
			c0,1.4,0.4,2.4,1.2,3s2.3,1.1,4.4,1.7c2.7,0.7,4.7,1.7,5.8,2.9c1.1,1.2,1.7,2.8,1.7,4.8c0,2.4-0.8,4.2-2.3,5.5
			C349,373.8,346.9,374.4,344.3,374.4z"/>
		<path fill="#FFFFFF" d="M397.8,374l-2.8-17l-2.7,17h-4.1l-3.5-26.2h3.6l2.3,22l2.5-17.8h3.8l2.7,17.5l2.1-21.7h3.6l-3.5,26.2
			H397.8z"/>
		<path fill="#FFFFFF" d="M420.5,374.4c-2.7,0-4.8-0.8-6.3-2.4c-1.5-1.6-2.2-3.8-2.2-6.7v-8.8c0-2.9,0.7-5.2,2.2-6.8
			c1.5-1.6,3.6-2.4,6.3-2.4c2.7,0,4.7,0.8,6.2,2.4c1.5,1.6,2.2,3.9,2.2,6.8v8.8c0,2.9-0.7,5.1-2.2,6.7
			C425.3,373.6,423.2,374.4,420.5,374.4z M420.5,370.8c1.5,0,2.6-0.4,3.4-1.2c0.8-0.8,1.1-2.2,1.1-4.1v-8.9c0-1.9-0.4-3.3-1.1-4.2
			c-0.8-0.9-1.9-1.4-3.4-1.4c-1.5,0-2.6,0.5-3.4,1.4c-0.8,0.9-1.1,2.3-1.1,4.2v8.9c0,1.9,0.4,3.3,1.1,4.1
			C417.9,370.4,419,370.8,420.5,370.8z"/>
		<path fill="#FFFFFF" d="M439,374v-26.2h4v3.8h1c0.4-1.5,1.1-2.6,2.1-3.3c1-0.7,2.2-1,3.5-1c1.5,0,2.8,0.6,3.8,1.8
			c1,1.2,1.5,2.9,1.5,5.2v4.2H451v-2.7c0-1.6-0.2-2.8-0.7-3.5c-0.5-0.8-1.3-1.1-2.4-1.1c-1,0-1.9,0.3-2.7,1
			c-0.8,0.7-1.5,1.6-2.2,2.9v19H439z"/>
		<path fill="#FFFFFF" d="M468.4,361.9V374h-4v-34.9h4v19.5h1.6l6-10.7h4.5l-7.5,12.2l7.4,14h-4.4l-6.1-12.1H468.4z"/>
		<path fill="#FFFFFF" d="M522.6,374.4c-2.7,0-4.8-0.8-6.3-2.4c-1.5-1.6-2.2-3.8-2.2-6.7v-8.8c0-2.9,0.7-5.2,2.2-6.8
			c1.5-1.6,3.6-2.4,6.3-2.4c2.7,0,4.7,0.8,6.2,2.4c1.5,1.6,2.2,3.9,2.2,6.8v8.8c0,2.9-0.7,5.1-2.2,6.7S525.3,374.4,522.6,374.4z
			 M522.6,370.8c1.5,0,2.6-0.4,3.4-1.2c0.8-0.8,1.1-2.2,1.1-4.1v-8.9c0-1.9-0.4-3.3-1.1-4.2c-0.8-0.9-1.9-1.4-3.4-1.4
			c-1.5,0-2.6,0.5-3.4,1.4c-0.8,0.9-1.1,2.3-1.1,4.2v8.9c0,1.9,0.4,3.3,1.1,4.1C520,370.4,521.1,370.8,522.6,370.8z"/>
		<path fill="#FFFFFF" d="M539.7,374v-26.2h3.9v3.4h1c0.6-1.2,1.5-2.1,2.5-2.8c1-0.7,2.2-1,3.4-1c1.9,0,3.4,0.7,4.5,2.2
			c1.1,1.5,1.6,3.5,1.6,6.1V374h-3.9v-17.6c0-1.7-0.3-3.1-0.9-3.9s-1.5-1.3-2.6-1.3c-1.1,0-2.1,0.3-3,1c-0.9,0.7-1.8,1.7-2.5,3V374
			H539.7z"/>
		<path fill="#FFFFFF" d="M603.1,374.4c-2.4,0-4.2-0.7-5.5-2.2c-1.3-1.5-2-3.5-2-6v-14.7h-5.4v-3.6h5.4v-8.7h3.9v8.7h8.2v3.6h-8.2
			v14.2c0,1.7,0.3,2.9,0.9,3.8c0.6,0.8,1.5,1.3,2.7,1.3c0.8,0,1.5-0.1,2.2-0.2c0.7-0.1,1.4-0.4,2-0.7l0.7,3.7
			c-0.6,0.2-1.3,0.5-2.2,0.7C604.9,374.2,604,374.4,603.1,374.4z"/>
		<path fill="#FFFFFF" d="M616.3,374v-34.9h3.9v12.1h1c0.4-1.2,1.1-2.1,2.1-2.8c1-0.7,2.3-1,3.7-1c1.8,0,3.3,0.7,4.5,2.2
			c1.1,1.5,1.7,3.5,1.7,6V374h-3.9v-17.8c0-1.7-0.3-3-0.9-3.8c-0.6-0.9-1.5-1.3-2.6-1.3c-1.1,0-2.1,0.3-3,1
			c-0.9,0.6-1.8,1.6-2.5,2.9v19H616.3z"/>
		<path fill="#FFFFFF" d="M658.9,368.3c-0.7,2.1-1.6,3.7-2.9,4.7c-1.3,1-3.1,1.5-5.7,1.5c-2.6,0-4.7-0.8-6.2-2.3s-2.3-3.8-2.3-6.8
			v-8.8c0-3.1,0.8-5.4,2.4-6.9c1.6-1.5,3.6-2.3,6.1-2.3c2.5,0,4.6,0.8,6.1,2.4c1.5,1.6,2.3,4,2.3,7.2v4.7h-13v3.6
			c0,2,0.4,3.5,1.1,4.3s1.9,1.3,3.4,1.3c1.5,0,2.5-0.3,3.3-0.9c0.7-0.6,1.3-1.6,1.6-2.9L658.9,368.3z M645.7,356.7v1.8h9v-1.4
			c0-2.2-0.4-3.8-1.1-4.8c-0.7-1-1.9-1.5-3.4-1.5c-1.5,0-2.7,0.5-3.4,1.5C646.1,353.3,645.7,354.7,645.7,356.7z"/>
		<path fill="#FFFFFF" d="M704.1,374l-2.8-17l-2.7,17h-4.1l-3.5-26.2h3.6l2.3,22l2.5-17.8h3.8l2.7,17.5l2.1-21.7h3.6l-3.5,26.2
			H704.1z"/>
		<path fill="#FFFFFF" d="M735.4,368.3c-0.7,2.1-1.6,3.7-2.9,4.7c-1.3,1-3.1,1.5-5.7,1.5c-2.6,0-4.7-0.8-6.2-2.3s-2.3-3.8-2.3-6.8
			v-8.8c0-3.1,0.8-5.4,2.4-6.9c1.6-1.5,3.6-2.3,6.1-2.3c2.5,0,4.6,0.8,6.1,2.4c1.5,1.6,2.3,4,2.3,7.2v4.7h-13v3.6
			c0,2,0.4,3.5,1.1,4.3c0.8,0.9,1.9,1.3,3.4,1.3c1.5,0,2.5-0.3,3.3-0.9c0.7-0.6,1.3-1.6,1.6-2.9L735.4,368.3z M722.3,356.7v1.8h9
			v-1.4c0-2.2-0.4-3.8-1.1-4.8s-1.9-1.5-3.4-1.5c-1.5,0-2.7,0.5-3.4,1.5C722.7,353.3,722.3,354.7,722.3,356.7z"/>
		<path fill="#FFFFFF" d="M752.1,374.4c-1.6,0-3.1-0.2-4.5-0.7c-1.4-0.5-2.6-1.1-3.7-2.1v-32.6h3.9v12.1h1c0.4-1.2,1.1-2.2,2.1-2.9
			c1-0.7,2.2-1,3.6-1c2,0,3.5,0.8,4.6,2.4c1.1,1.6,1.6,3.9,1.6,6.9v8.7c0,2.9-0.7,5.2-2.2,6.8C757,373.7,754.9,374.4,752.1,374.4z
			 M752.2,371c1.7,0,2.9-0.5,3.6-1.4s1.1-2.4,1.1-4.4v-8.8c0-1.9-0.3-3.2-0.9-4c-0.6-0.8-1.5-1.2-2.8-1.2c-1.2,0-2.2,0.3-3,1
			s-1.6,1.7-2.4,3.1v14.4c0.6,0.5,1.3,0.8,2,1C750.5,370.9,751.2,371,752.2,371z"/>
		<path fill="#FFFFFF" d="M781.8,374.4c-2.4,0-4.2-0.7-5.5-2.2c-1.3-1.5-2-3.5-2-6v-14.7h-5.4v-3.6h5.4v-8.7h3.9v8.7h8.2v3.6h-8.2
			v14.2c0,1.7,0.3,2.9,0.9,3.8s1.5,1.3,2.7,1.3c0.8,0,1.5-0.1,2.2-0.2c0.7-0.1,1.4-0.4,2-0.7l0.7,3.7c-0.6,0.2-1.3,0.5-2.2,0.7
			C783.6,374.2,782.7,374.4,781.8,374.4z"/>
		<path fill="#FFFFFF" d="M812,368.3c-0.7,2.1-1.6,3.7-2.9,4.7c-1.3,1-3.1,1.5-5.7,1.5c-2.6,0-4.7-0.8-6.2-2.3s-2.3-3.8-2.3-6.8
			v-8.8c0-3.1,0.8-5.4,2.4-6.9c1.6-1.5,3.6-2.3,6.1-2.3c2.5,0,4.6,0.8,6.1,2.4c1.5,1.6,2.3,4,2.3,7.2v4.7h-13v3.6
			c0,2,0.4,3.5,1.1,4.3s1.9,1.3,3.4,1.3c1.5,0,2.5-0.3,3.3-0.9c0.7-0.6,1.3-1.6,1.6-2.9L812,368.3z M798.9,356.7v1.8h9v-1.4
			c0-2.2-0.4-3.8-1.1-4.8c-0.7-1-1.9-1.5-3.4-1.5c-1.5,0-2.7,0.5-3.4,1.5C799.3,353.3,798.9,354.7,798.9,356.7z"/>
		<path fill="#FFFFFF" d="M825.9,374.4c-2,0-3.6-0.7-4.7-2c-1.1-1.3-1.7-3.1-1.7-5.5c0-2.3,0.6-4.1,1.8-5.4c1.2-1.3,2.9-2,5-2h5.5
			v-4.3c0-1.3-0.3-2.3-1-3.1c-0.7-0.8-1.7-1.2-3-1.2c-1.4,0-2.5,0.3-3.1,1c-0.6,0.7-1.1,1.9-1.5,3.8l-3.4-1c0.4-2.5,1.3-4.3,2.6-5.5
			c1.3-1.2,3.1-1.8,5.3-1.8c2.3,0,4.2,0.6,5.7,1.8c1.5,1.2,2.2,3.1,2.2,5.5v13c0,1.3,0.3,2.2,0.9,2.7c0.6,0.4,1.5,0.5,2.8,0.1v3.7
			c-1.9,0.3-3.3,0.1-4.3-0.5s-1.5-1.8-1.7-3.6h-0.7c-0.6,1.3-1.5,2.3-2.7,3.1C828.8,374,827.4,374.4,825.9,374.4z M826.6,370.9
			c1.2,0,2.3-0.3,3.2-0.8s1.6-1.5,2.1-2.7v-4.6H827c-1.2,0-2.1,0.3-2.7,0.9c-0.6,0.6-0.9,1.6-0.9,3.1c0,1.3,0.2,2.4,0.7,3.1
			C824.6,370.5,825.4,370.9,826.6,370.9z"/>
		<path fill="#FFFFFF" d="M848.3,354.7V374h-3.5v-26.2h3.5v3.1h0.7c0.4-1.2,0.9-2,1.5-2.6c0.6-0.6,1.3-0.9,2.2-0.9
			c0.8,0,1.5,0.3,2.1,0.9c0.6,0.6,0.9,1.5,1.2,2.6h0.8c0.4-1.2,0.9-2,1.6-2.6c0.7-0.6,1.5-0.9,2.4-0.9c1.1,0,2,0.5,2.6,1.6
			c0.6,1.1,0.9,2.6,0.9,4.6V374h-3.5v-20c0-1.1-0.1-1.9-0.4-2.4s-0.6-0.8-1.1-0.8c-0.5,0-1,0.3-1.5,1c-0.5,0.7-1,1.7-1.5,3V374h-3.4
			v-20c0-1.1-0.1-1.9-0.3-2.4c-0.2-0.6-0.6-0.8-1-0.8c-0.5,0-1,0.3-1.5,1C849.3,352.4,848.8,353.4,848.3,354.7z"/>
	</g>
</g>
</svg>
