<svg version="1.1" id="Layer_1" xmlns="http://www.w3.org/2000/svg" xmlns:xlink="http://www.w3.org/1999/xlink" x="0px" y="0px"
	 width="900px" height="400px" viewBox="0 0 900 400" enable-background="new 0 0 900 400" xml:space="preserve">
<path fill="#DDDDDD" stroke="#333333" stroke-width="4" stroke-miterlimit="10" d="M134,56.9c-12.3-10.6-66.4,3.3-84.5,1.3
	c-11.8-1.4-16.5-1.3-14.8,8.3c2.9,15.8,3,32.3,3.3,48.2c1.2,60.6,7.4,122-0.7,182.5c-3.2,24,60.8,14.7,79.4,13.2
	c23.2-1.8,16.9-9,17.1-23.9c0.2-16.7-0.2-33.4-0.6-50.1c-0.7-31.8,0.1-63.6,0.5-95.4c0.2-17.7-0.3-35.4,1.8-53.1
	C136.5,79.5,142.5,64.2,134,56.9C128,51.7,134.6,57.4,134,56.9z"/>
<path fill="#DDDDDD" stroke="#333333" stroke-width="3.8542" stroke-miterlimit="10" d="M237.2,82.7c-4.2-4.3-80.1-5.6-84.7,0.3
	c-3.9,5,1.7,21,1.9,26c0.8,17.7,1.6,35.5,0.2,53.2c-2.3,30.3-3.8,60.7-3.4,91.1c0.1,9.9-4.3,70.5,14,66.1c14.4-3.5,77.6,3.3,80.3-8
	c5-21.1-1.8-46.9-3.5-68.1c-2.4-28.9-5.1-57.8-4-86.7c0.5-11.8,1-23.6,0.8-35.5C238.7,112,244.6,90.3,237.2,82.7
	C235.7,81.1,238,83.4,237.2,82.7z"/>
<g>
	<g>
		<path fill="#ED1C24" d="M354.6,262.4c-13.1,0-23-3.2-29.7-9.7c-6.7-6.4-10.3-16.2-10.9-29.3l29.5-1.6c0.4,6.8,1.5,11.7,3.3,14.7
			c1.7,3.1,4.1,4.6,7.2,4.6c3.1,0,5.2-1.1,6.5-3.2c1.3-2.1,2-5.5,2-10.2v-11c0-4.7-0.9-8.2-2.8-10.6c-1.9-2.3-4.4-3.5-7.7-3.5h-12.4
			v-21.3h12.4c3.1,0,5.2-0.7,6.3-2.2c1.1-1.5,1.7-4.4,1.7-8.8v-10.1c0-3.8-0.5-6.6-1.6-8.3c-1-1.7-2.6-2.5-4.7-2.5
			c-2.4,0-4.2,1.3-5.4,3.8c-1.2,2.6-2,6.7-2.5,12.4l-29.5-1.6c0.5-12,3.8-21,9.7-26.9c5.9-5.9,14.6-8.9,26.2-8.9
			c12.2,0,21.5,2.5,27.7,7.4c6.3,5,9.4,12.4,9.4,22.2v6.9c0,6.3-1.6,11.8-4.9,16.4c-3.3,4.6-7.5,7.3-12.8,8v4.7
			c5.9,0.9,10.7,3.9,14.5,9.2c3.8,5.2,5.6,11.5,5.6,18.8v6.5c0,11.2-3.1,19.7-9.4,25.4C376.2,259.5,366.9,262.4,354.6,262.4z"/>
		<path fill="#ED1C24" d="M449.3,262.4c-12,0-21.4-4.5-28.1-13.5c-6.8-9-10.1-21.6-10.1-37.7v-31.1c0-16.4,3.4-29.1,10.1-38.2
			c6.8-9.1,16.1-13.7,28.1-13.7c12,0,21.4,4.6,28.1,13.7c6.8,9.1,10.1,21.8,10.1,38.2v31.1c0,16.1-3.4,28.7-10.1,37.7
			C470.7,257.9,461.3,262.4,449.3,262.4z M449.3,241.9c4.7,0,7.9-2.3,9.7-7c1.7-4.7,2.6-13.4,2.6-26v-26.5c0-12.9-0.9-21.7-2.6-26.5
			c-1.7-4.8-5-7.2-9.7-7.2c-4.7,0-7.9,2.4-9.7,7.2c-1.7,4.8-2.6,13.6-2.6,26.5v26.5c0,12.7,0.9,21.3,2.6,26
			C441.4,239.6,444.6,241.9,449.3,241.9z M449.3,209.2c-2.7,0-4.9-0.6-6.5-1.8c-1.6-1.2-2.4-3.5-2.4-6.9v-10.3
			c0-3.3,0.8-5.5,2.4-6.8c1.6-1.3,3.7-1.9,6.5-1.9c2.6,0,4.7,0.6,6.3,1.9c1.6,1.3,2.4,3.5,2.4,6.8v10.3c0,3.4-0.8,5.7-2.5,6.9
			C453.9,208.6,451.8,209.2,449.3,209.2z"/>
		<path fill="#ED1C24" d="M509.4,260.7v-21.6h23.6v-82.8h-3.6c-0.9,6.9-3.2,12.3-7,16.2c-3.8,3.9-8.3,5.8-13.6,5.7l-1.3-21.8
			c6.2-0.2,11.8-2.9,16.7-7.9c4.9-5.1,8-11.3,9.2-18.7h29.1v109.3h19.5v21.6H509.4z"/>
		<path fill="#ED1C24" d="M641.7,262.4c-13.1,0-23-3.2-29.7-9.7c-6.7-6.4-10.3-16.2-10.9-29.3l29.5-1.6c0.4,6.8,1.5,11.7,3.3,14.7
			c1.7,3.1,4.1,4.6,7.2,4.6c3.1,0,5.2-1.1,6.5-3.2c1.3-2.1,2-5.5,2-10.2v-11c0-4.7-0.9-8.2-2.8-10.6c-1.9-2.3-4.4-3.5-7.7-3.5h-12.4
			v-21.3h12.4c3.1,0,5.2-0.7,6.3-2.2s1.7-4.4,1.7-8.8v-10.1c0-3.8-0.5-6.6-1.6-8.3c-1-1.7-2.6-2.5-4.7-2.5c-2.4,0-4.2,1.3-5.4,3.8
			c-1.2,2.6-2,6.7-2.5,12.4l-29.5-1.6c0.5-12,3.8-21,9.7-26.9c5.9-5.9,14.6-8.9,26.2-8.9c12.2,0,21.5,2.5,27.7,7.4
			c6.3,5,9.4,12.4,9.4,22.2v6.9c0,6.3-1.6,11.8-4.9,16.4s-7.5,7.3-12.8,8v4.7c5.9,0.9,10.7,3.9,14.5,9.2c3.8,5.2,5.6,11.5,5.6,18.8
			v6.5c0,11.2-3.1,19.7-9.4,25.4C663.4,259.5,654.1,262.4,641.7,262.4z"/>
		<path fill="#ED1C24" d="M737.5,262.4c-13.1,0-23-3.2-29.7-9.7c-6.7-6.4-10.3-16.2-10.9-29.3l29.5-1.6c0.4,6.8,1.5,11.7,3.3,14.7
			c1.7,3.1,4.1,4.6,7.2,4.6c3.1,0,5.2-1.1,6.5-3.2c1.3-2.1,2-5.5,2-10.2v-11c0-4.7-0.9-8.2-2.8-10.6c-1.9-2.3-4.4-3.5-7.7-3.5h-12.4
			v-21.3h12.4c3.1,0,5.2-0.7,6.3-2.2c1.1-1.5,1.7-4.4,1.7-8.8v-10.1c0-3.8-0.5-6.6-1.6-8.3c-1-1.7-2.6-2.5-4.7-2.5
			c-2.4,0-4.2,1.3-5.4,3.8c-1.2,2.6-2,6.7-2.5,12.4l-29.5-1.6c0.5-12,3.8-21,9.7-26.9c5.9-5.9,14.6-8.9,26.2-8.9
			c12.2,0,21.5,2.5,27.7,7.4c6.3,5,9.4,12.4,9.4,22.2v6.9c0,6.3-1.6,11.8-4.9,16.4c-3.3,4.6-7.5,7.3-12.8,8v4.7
			c5.9,0.9,10.7,3.9,14.5,9.2c3.8,5.2,5.6,11.5,5.6,18.8v6.5c0,11.2-3.1,19.7-9.4,25.4C759.1,259.5,749.8,262.4,737.5,262.4z"/>
		<path fill="#ED1C24" d="M811.3,260.7c5.3-32.8,9.7-55.3,13-67.4c3.3-12.1,8.9-25.9,16.8-41.4h-47.1v-22.1h76.6v22.1
			c-8.5,18.8-14.6,35.1-18.2,49.1c-3.7,14-7.1,33.9-10.2,59.7H811.3z"/>
	</g>
</g>
<rect y="300" fill="#333333" width="900" height="100"/>
<g>
	<g>
		<path fill="#FFFFFF" d="M54.7,372.4c-1.7,0-3.4-0.3-5-0.8c-1.7-0.6-3.1-1.3-4.3-2.4l1.4-3.2c1.1,0.8,2.3,1.5,3.7,2
			c1.4,0.5,2.8,0.8,4.2,0.8c1.5,0,2.7-0.3,3.4-0.9c0.7-0.6,1.1-1.5,1.1-2.7c0-1.4-0.4-2.4-1.2-3c-0.8-0.6-2.2-1.1-4.3-1.7
			c-2.8-0.7-4.8-1.7-6-2.9c-1.2-1.2-1.7-2.8-1.7-4.9c0-2.4,0.7-4.2,2.1-5.5c1.4-1.3,3.3-2,5.7-2c1.5,0,3,0.3,4.6,0.9
			c1.5,0.6,2.9,1.4,4,2.4l-1.4,3.2c-1-0.8-2.1-1.4-3.4-2c-1.3-0.6-2.5-0.9-3.8-0.9c-1.3,0-2.3,0.3-2.9,0.9c-0.6,0.6-0.9,1.5-0.9,2.7
			c0,1.4,0.4,2.4,1.2,3s2.3,1.1,4.4,1.7c2.7,0.7,4.7,1.7,5.8,2.9c1.1,1.2,1.7,2.8,1.7,4.8c0,2.4-0.8,4.2-2.3,5.5
			C59.4,371.8,57.4,372.4,54.7,372.4z"/>
		<path fill="#FFFFFF" d="M83.8,372.4c-2.4,0-4.2-0.7-5.5-2.2c-1.3-1.5-2-3.5-2-6v-14.7h-5.4v-3.6h5.4v-8.7h3.9v8.7h8.2v3.6h-8.2
			v14.2c0,1.7,0.3,2.9,0.9,3.8s1.5,1.3,2.7,1.3c0.8,0,1.5-0.1,2.2-0.2c0.7-0.1,1.4-0.4,2-0.7l0.7,3.7c-0.6,0.2-1.3,0.5-2.2,0.7
			C85.6,372.2,84.7,372.4,83.8,372.4z"/>
		<path fill="#FFFFFF" d="M114,366.3c-0.7,2.1-1.6,3.7-2.9,4.7c-1.3,1-3.1,1.5-5.7,1.5c-2.6,0-4.7-0.8-6.2-2.3s-2.3-3.8-2.3-6.8
			v-8.8c0-3.1,0.8-5.4,2.4-6.9c1.6-1.5,3.6-2.3,6.1-2.3c2.5,0,4.6,0.8,6.1,2.4c1.5,1.6,2.3,4,2.3,7.2v4.7h-13v3.6
			c0,2,0.4,3.5,1.1,4.3c0.8,0.9,1.9,1.3,3.4,1.3c1.5,0,2.5-0.3,3.3-0.9c0.7-0.6,1.3-1.6,1.6-2.9L114,366.3z M100.9,354.7v1.8h9v-1.4
			c0-2.2-0.4-3.8-1.1-4.8c-0.7-1-1.9-1.5-3.4-1.5c-1.5,0-2.7,0.5-3.4,1.5C101.2,351.3,100.9,352.7,100.9,354.7z"/>
		<path fill="#FFFFFF" d="M131,372.4c-0.8,0-1.5-0.1-2.3-0.3c-0.8-0.2-1.5-0.6-2.3-1v9.6h-3.9v-34.9h3.9v3.4h1
			c0.4-1.2,1.1-2.1,2.1-2.8c1-0.7,2.2-1,3.7-1c1.9,0,3.5,0.8,4.6,2.5s1.6,3.9,1.6,6.8v8.7c0,2.9-0.7,5.1-2.2,6.7
			C135.6,371.6,133.6,372.4,131,372.4z M130.7,369c1.6,0,2.7-0.5,3.5-1.4c0.8-1,1.2-2.4,1.2-4.3v-8.9c0-1.7-0.3-3-0.9-3.9
			c-0.6-0.9-1.5-1.3-2.7-1.3c-1.1,0-2.1,0.3-3,1c-0.9,0.7-1.7,1.7-2.4,3.1v14c0.6,0.6,1.3,1,2,1.3C129.1,368.8,129.9,369,130.7,369z
			"/>
		<path fill="#FFFFFF" d="M156.9,372.4c-1.7,0-3.4-0.3-5-0.8c-1.7-0.6-3.1-1.3-4.3-2.4l1.4-3.2c1.1,0.8,2.3,1.5,3.7,2
			c1.4,0.5,2.8,0.8,4.2,0.8c1.5,0,2.7-0.3,3.4-0.9c0.7-0.6,1.1-1.5,1.1-2.7c0-1.4-0.4-2.4-1.2-3c-0.8-0.6-2.2-1.1-4.3-1.7
			c-2.8-0.7-4.8-1.7-6-2.9c-1.2-1.2-1.7-2.8-1.7-4.9c0-2.4,0.7-4.2,2.1-5.5c1.4-1.3,3.3-2,5.7-2c1.5,0,3,0.3,4.6,0.9
			c1.5,0.6,2.9,1.4,4,2.4l-1.4,3.2c-1-0.8-2.1-1.4-3.4-2c-1.3-0.6-2.5-0.9-3.8-0.9c-1.3,0-2.3,0.3-2.9,0.9c-0.6,0.6-0.9,1.5-0.9,2.7
			c0,1.4,0.4,2.4,1.2,3s2.3,1.1,4.4,1.7c2.7,0.7,4.7,1.7,5.8,2.9c1.1,1.2,1.7,2.8,1.7,4.8c0,2.4-0.8,4.2-2.3,5.5
			C161.5,371.8,159.5,372.4,156.9,372.4z"/>
		<path fill="#FFFFFF" d="M210.3,372l-2.8-17l-2.7,17h-4.1l-3.5-26.2h3.6l2.3,22l2.5-17.8h3.8l2.7,17.5l2.1-21.7h3.6l-3.5,26.2
			H210.3z"/>
		<path fill="#FFFFFF" d="M241.6,366.3c-0.7,2.1-1.6,3.7-2.9,4.7c-1.3,1-3.1,1.5-5.7,1.5c-2.6,0-4.7-0.8-6.2-2.3s-2.3-3.8-2.3-6.8
			v-8.8c0-3.1,0.8-5.4,2.4-6.9c1.6-1.5,3.6-2.3,6.1-2.3c2.5,0,4.6,0.8,6.1,2.4c1.5,1.6,2.3,4,2.3,7.2v4.7h-13v3.6
			c0,2,0.4,3.5,1.1,4.3c0.8,0.9,1.9,1.3,3.4,1.3c1.5,0,2.5-0.3,3.3-0.9c0.7-0.6,1.3-1.6,1.6-2.9L241.6,366.3z M228.5,354.7v1.8h9
			v-1.4c0-2.2-0.4-3.8-1.1-4.8c-0.7-1-1.9-1.5-3.4-1.5c-1.5,0-2.7,0.5-3.4,1.5C228.9,351.3,228.5,352.7,228.5,354.7z"/>
		<path fill="#FFFFFF" d="M253.1,354.2l3.5-17.1h7.1l-7.5,17.1H253.1z"/>
		<path fill="#FFFFFF" d="M286.6,372h-5.1l-6.7-26.2h4.1l5.2,22.6l5.1-22.6h4L286.6,372z"/>
		<path fill="#FFFFFF" d="M318.2,366.3c-0.7,2.1-1.6,3.7-2.9,4.7c-1.3,1-3.1,1.5-5.7,1.5c-2.6,0-4.7-0.8-6.2-2.3s-2.3-3.8-2.3-6.8
			v-8.8c0-3.1,0.8-5.4,2.4-6.9c1.6-1.5,3.6-2.3,6.1-2.3c2.5,0,4.6,0.8,6.1,2.4c1.5,1.6,2.3,4,2.3,7.2v4.7h-13v3.6
			c0,2,0.4,3.5,1.1,4.3c0.8,0.9,1.9,1.3,3.4,1.3c1.5,0,2.5-0.3,3.3-0.9c0.7-0.6,1.3-1.6,1.6-2.9L318.2,366.3z M305.1,354.7v1.8h9
			v-1.4c0-2.2-0.4-3.8-1.1-4.8c-0.7-1-1.9-1.5-3.4-1.5c-1.5,0-2.7,0.5-3.4,1.5C305.5,351.3,305.1,352.7,305.1,354.7z"/>
		<path fill="#FFFFFF" d="M361.1,372.4c-3,0-5.2-0.8-6.7-2.4c-1.5-1.6-2.2-3.8-2.2-6.6v-8.9c0-2.9,0.7-5.2,2.2-6.8
			c1.5-1.6,3.7-2.4,6.6-2.4c2.7,0,4.7,0.7,6,2.1c1.4,1.4,2.1,3.7,2.3,6.7l-3.8,0.2c-0.1-2.2-0.5-3.6-1.2-4.4
			c-0.7-0.7-1.8-1.1-3.3-1.1c-1.6,0-2.8,0.4-3.6,1.2c-0.8,0.8-1.2,2.2-1.2,4.3v9.1c0,1.9,0.4,3.2,1.2,4.1s2,1.2,3.6,1.2
			c1.5,0,2.7-0.3,3.3-0.9c0.7-0.6,1.1-1.8,1.2-3.7l3.8,0.2c-0.1,2.8-0.9,4.8-2.2,6.1C365.8,371.8,363.8,372.4,361.1,372.4z"/>
		<path fill="#FFFFFF" d="M377.9,372v-3.6h6.5v-27.8h-6.5v-3.6h10.4v31.3h6.4v3.6H377.9z"/>
		<path fill="#FFFFFF" d="M403.3,372v-3.6h6.4v-19h-6.4v-3.6h10.4v22.6h6.4v3.6H403.3z M411.8,340.8c-0.9,0-1.6-0.2-2.2-0.5
			c-0.6-0.3-0.9-1-0.9-1.9v-0.3c0-0.9,0.3-1.6,0.9-1.9c0.6-0.3,1.3-0.5,2.2-0.5c0.9,0,1.6,0.2,2.2,0.5c0.6,0.3,0.9,1,0.9,1.9v0.3
			c0,0.9-0.3,1.5-0.9,1.9C413.4,340.7,412.7,340.8,411.8,340.8z"/>
		<path fill="#FFFFFF" d="M431.1,352.7V372h-3.5v-26.2h3.5v3.1h0.7c0.4-1.2,0.9-2,1.5-2.6c0.6-0.6,1.3-0.9,2.2-0.9
			c0.8,0,1.5,0.3,2.1,0.9c0.6,0.6,0.9,1.5,1.2,2.6h0.8c0.4-1.2,0.9-2,1.6-2.6c0.7-0.6,1.5-0.9,2.4-0.9c1.1,0,2,0.5,2.6,1.6
			c0.6,1.1,0.9,2.6,0.9,4.6V372h-3.5v-20c0-1.1-0.1-1.9-0.4-2.4c-0.2-0.6-0.6-0.8-1.1-0.8c-0.5,0-1,0.3-1.5,1c-0.5,0.7-1,1.7-1.5,3
			V372h-3.4v-20c0-1.1-0.1-1.9-0.3-2.4c-0.2-0.6-0.6-0.8-1-0.8c-0.5,0-1,0.3-1.5,1C432.1,350.4,431.6,351.4,431.1,352.7z"/>
		<path fill="#FFFFFF" d="M462.5,372.4c-1.6,0-3.1-0.2-4.5-0.7c-1.4-0.5-2.6-1.1-3.7-2.1v-32.6h3.9v12.1h1c0.4-1.2,1.1-2.2,2.1-2.9
			c1-0.7,2.2-1,3.6-1c2,0,3.5,0.8,4.6,2.4c1.1,1.6,1.6,3.9,1.6,6.9v8.7c0,2.9-0.7,5.2-2.2,6.8C467.5,371.7,465.3,372.4,462.5,372.4z
			 M462.6,369c1.7,0,2.9-0.5,3.6-1.4c0.7-0.9,1.1-2.4,1.1-4.4v-8.8c0-1.9-0.3-3.2-0.8-4c-0.6-0.8-1.5-1.2-2.8-1.2
			c-1.2,0-2.2,0.3-3,1c-0.8,0.6-1.6,1.7-2.4,3.1v14.4c0.6,0.5,1.3,0.8,2,1C460.9,368.9,461.7,369,462.6,369z"/>
		<path fill="#FFFFFF" d="M496.9,366.3c-0.7,2.1-1.6,3.7-2.9,4.7c-1.3,1-3.1,1.5-5.7,1.5c-2.6,0-4.7-0.8-6.2-2.3s-2.3-3.8-2.3-6.8
			v-8.8c0-3.1,0.8-5.4,2.4-6.9c1.6-1.5,3.6-2.3,6.1-2.3c2.5,0,4.6,0.8,6.1,2.4c1.5,1.6,2.3,4,2.3,7.2v4.7h-13v3.6
			c0,2,0.4,3.5,1.1,4.3s1.9,1.3,3.4,1.3c1.5,0,2.5-0.3,3.3-0.9c0.7-0.6,1.3-1.6,1.6-2.9L496.9,366.3z M483.8,354.7v1.8h9v-1.4
			c0-2.2-0.4-3.8-1.1-4.8c-0.7-1-1.9-1.5-3.4-1.5c-1.5,0-2.7,0.5-3.4,1.5C484.1,351.3,483.8,352.7,483.8,354.7z"/>
		<path fill="#FFFFFF" d="M517.3,368.6c-0.4,1.2-1.2,2.1-2.2,2.8c-1,0.7-2.2,1-3.6,1c-1.9,0-3.4-0.8-4.5-2.5
			c-1.1-1.6-1.7-3.9-1.7-6.8v-8.7c0-2.9,0.7-5.1,2.2-6.7c1.5-1.6,3.5-2.4,6.2-2.4c0.7,0,1.5,0.1,2.3,0.3s1.6,0.6,2.3,1v-9.6h3.9V372
			h-3.9v-3.4H517.3z M512.9,368.6c1.1,0,2.1-0.3,3-1c0.9-0.7,1.7-1.7,2.4-3.1v-14c-0.6-0.6-1.3-1.1-2-1.3s-1.5-0.4-2.3-0.4
			c-1.6,0-2.8,0.5-3.6,1.4c-0.8,0.9-1.1,2.4-1.1,4.4v8.9c0,1.8,0.3,3.1,0.9,4S511.7,368.6,512.9,368.6z"/>
		<path fill="#FFFFFF" d="M561.8,372.4c-2,0-3.6-0.7-4.7-2s-1.7-3.1-1.7-5.5c0-2.3,0.6-4.1,1.8-5.4c1.2-1.3,2.9-2,5-2h5.5v-4.3
			c0-1.3-0.3-2.3-1-3.1c-0.7-0.8-1.7-1.2-3-1.2c-1.4,0-2.5,0.3-3.1,1c-0.6,0.7-1.1,1.9-1.5,3.8l-3.4-1c0.4-2.5,1.3-4.3,2.6-5.5
			c1.3-1.2,3.1-1.8,5.3-1.8c2.3,0,4.2,0.6,5.7,1.8c1.5,1.2,2.2,3.1,2.2,5.5v13c0,1.3,0.3,2.2,0.9,2.7c0.6,0.4,1.5,0.5,2.8,0.1v3.7
			c-1.9,0.3-3.3,0.1-4.3-0.5s-1.5-1.8-1.7-3.6h-0.7c-0.6,1.3-1.5,2.3-2.8,3.1C564.7,372,563.4,372.4,561.8,372.4z M562.5,368.9
			c1.3,0,2.3-0.3,3.2-0.8c0.9-0.6,1.6-1.5,2.1-2.7v-4.6h-4.9c-1.2,0-2.1,0.3-2.7,0.9c-0.6,0.6-0.9,1.6-0.9,3.1
			c0,1.3,0.2,2.4,0.7,3.1C560.5,368.5,561.4,368.9,562.5,368.9z"/>
		<path fill="#FFFFFF" d="M594.3,372.4c-2.4,0-4.2-0.7-5.5-2.2c-1.3-1.5-2-3.5-2-6v-14.7h-5.4v-3.6h5.4v-8.7h3.9v8.7h8.2v3.6h-8.2
			v14.2c0,1.7,0.3,2.9,0.9,3.8c0.6,0.8,1.5,1.3,2.7,1.3c0.8,0,1.5-0.1,2.2-0.2c0.7-0.1,1.4-0.4,2-0.7l0.7,3.7
			c-0.6,0.2-1.3,0.5-2.2,0.7S595.2,372.4,594.3,372.4z"/>
		<path fill="#FFFFFF" d="M632.9,372v-34.9h9.4c2.9,0,5.1,0.7,6.4,2.2s2,3.8,2,7v3.9c0,3.3-0.7,5.6-2,7.1c-1.4,1.5-3.5,2.2-6.4,2.2
			h-5.4V372H632.9z M636.9,356.1h5.2c1.7,0,2.9-0.5,3.6-1.4c0.7-0.9,1.1-2.4,1.1-4.5v-4c0-2-0.4-3.5-1.1-4.4
			c-0.7-0.9-1.9-1.4-3.6-1.4h-5.2V356.1z"/>
		<path fill="#FFFFFF" d="M667,372.4c-2.7,0-4.8-0.8-6.3-2.4c-1.5-1.6-2.2-3.8-2.2-6.7v-8.8c0-2.9,0.7-5.2,2.2-6.8
			c1.5-1.6,3.6-2.4,6.3-2.4c2.7,0,4.7,0.8,6.2,2.4c1.5,1.6,2.2,3.9,2.2,6.8v8.8c0,2.9-0.7,5.1-2.2,6.7
			C671.8,371.6,669.7,372.4,667,372.4z M667,368.8c1.5,0,2.6-0.4,3.4-1.2c0.8-0.8,1.1-2.2,1.1-4.1v-8.9c0-1.9-0.4-3.3-1.1-4.2
			c-0.8-0.9-1.9-1.4-3.4-1.4c-1.5,0-2.6,0.5-3.4,1.4c-0.8,0.9-1.1,2.3-1.1,4.2v8.9c0,1.9,0.4,3.3,1.1,4.1S665.5,368.8,667,368.8z"/>
		<path fill="#FFFFFF" d="M692.9,372.4c-1.7,0-3.4-0.3-5-0.8c-1.7-0.6-3.1-1.3-4.3-2.4l1.4-3.2c1.1,0.8,2.3,1.5,3.7,2
			c1.4,0.5,2.8,0.8,4.2,0.8c1.5,0,2.7-0.3,3.4-0.9s1.1-1.5,1.1-2.7c0-1.4-0.4-2.4-1.2-3c-0.8-0.6-2.2-1.1-4.3-1.7
			c-2.8-0.7-4.8-1.7-6-2.9c-1.2-1.2-1.7-2.8-1.7-4.9c0-2.4,0.7-4.2,2.1-5.5c1.4-1.3,3.3-2,5.7-2c1.5,0,3,0.3,4.6,0.9
			c1.5,0.6,2.9,1.4,4,2.4l-1.4,3.2c-1-0.8-2.1-1.4-3.4-2c-1.3-0.6-2.5-0.9-3.8-0.9c-1.3,0-2.3,0.3-2.9,0.9c-0.6,0.6-0.9,1.5-0.9,2.7
			c0,1.4,0.4,2.4,1.2,3s2.3,1.1,4.4,1.7c2.7,0.7,4.7,1.7,5.8,2.9c1.1,1.2,1.7,2.8,1.7,4.8c0,2.4-0.8,4.2-2.3,5.5
			C697.6,371.8,695.5,372.4,692.9,372.4z"/>
		<path fill="#FFFFFF" d="M722,372.4c-2.4,0-4.2-0.7-5.5-2.2c-1.3-1.5-2-3.5-2-6v-14.7h-5.4v-3.6h5.4v-8.7h3.9v8.7h8.2v3.6h-8.2
			v14.2c0,1.7,0.3,2.9,0.9,3.8s1.5,1.3,2.7,1.3c0.8,0,1.5-0.1,2.2-0.2c0.7-0.1,1.4-0.4,2-0.7l0.7,3.7c-0.6,0.2-1.3,0.5-2.2,0.7
			C723.8,372.2,722.9,372.4,722,372.4z"/>
		<path fill="#FFFFFF" d="M735.1,372v-34.9h3.9v12.1h1c0.4-1.2,1.1-2.1,2.1-2.8c1-0.7,2.3-1,3.7-1c1.8,0,3.3,0.7,4.5,2.2
			c1.1,1.5,1.7,3.5,1.7,6V372h-3.9v-17.8c0-1.7-0.3-3-0.9-3.8c-0.6-0.9-1.5-1.3-2.6-1.3c-1.1,0-2.1,0.3-3,1
			c-0.9,0.6-1.8,1.6-2.5,2.9v19H735.1z"/>
		<path fill="#FFFFFF" d="M766.8,372.4c-1.9,0-3.4-0.7-4.5-2.2s-1.7-3.5-1.7-6v-18.4h3.9v17.8c0,1.7,0.3,2.9,0.9,3.8
			c0.6,0.9,1.5,1.3,2.6,1.3c1,0,2.1-0.3,3-1c1-0.7,1.8-1.6,2.5-2.9v-19h3.9V372h-3.9v-3.4h-1c-0.4,1.2-1.1,2.1-2.1,2.8
			C769.4,372,768.2,372.4,766.8,372.4z"/>
		<path fill="#FFFFFF" d="M795,372.4c-1.7,0-3.4-0.3-5-0.8c-1.7-0.6-3.1-1.3-4.3-2.4l1.4-3.2c1.1,0.8,2.3,1.5,3.7,2s2.8,0.8,4.2,0.8
			c1.5,0,2.7-0.3,3.4-0.9c0.7-0.6,1.1-1.5,1.1-2.7c0-1.4-0.4-2.4-1.2-3c-0.8-0.6-2.2-1.1-4.3-1.7c-2.8-0.7-4.8-1.7-6-2.9
			c-1.2-1.2-1.7-2.8-1.7-4.9c0-2.4,0.7-4.2,2.1-5.5c1.4-1.3,3.3-2,5.7-2c1.5,0,3,0.3,4.6,0.9c1.5,0.6,2.9,1.4,4,2.4l-1.4,3.2
			c-1-0.8-2.1-1.4-3.4-2c-1.3-0.6-2.5-0.9-3.8-0.9c-1.3,0-2.3,0.3-2.9,0.9c-0.6,0.6-0.9,1.5-0.9,2.7c0,1.4,0.4,2.4,1.2,3
			s2.3,1.1,4.4,1.7c2.7,0.7,4.7,1.7,5.8,2.9c1.1,1.2,1.7,2.8,1.7,4.8c0,2.4-0.8,4.2-2.3,5.5C799.7,371.8,797.6,372.4,795,372.4z"/>
		<path fill="#FFFFFF" d="M828.8,366.3c-0.7,2.1-1.6,3.7-2.9,4.7c-1.3,1-3.1,1.5-5.7,1.5c-2.6,0-4.7-0.8-6.2-2.3s-2.3-3.8-2.3-6.8
			v-8.8c0-3.1,0.8-5.4,2.4-6.9c1.6-1.5,3.6-2.3,6.1-2.3c2.5,0,4.6,0.8,6.1,2.4c1.5,1.6,2.3,4,2.3,7.2v4.7h-13v3.6
			c0,2,0.4,3.5,1.1,4.3c0.8,0.9,1.9,1.3,3.4,1.3c1.5,0,2.5-0.3,3.2-0.9c0.7-0.6,1.3-1.6,1.6-2.9L828.8,366.3z M815.6,354.7v1.8h9
			v-1.4c0-2.2-0.4-3.8-1.1-4.8s-1.9-1.5-3.4-1.5c-1.5,0-2.7,0.5-3.4,1.5C816,351.3,815.6,352.7,815.6,354.7z"/>
		<path fill="#FFFFFF" d="M849.6,372.4c-2.4,0-4.2-0.7-5.5-2.2c-1.3-1.5-2-3.5-2-6v-14.7h-5.4v-3.6h5.4v-8.7h3.9v8.7h8.2v3.6H846
			v14.2c0,1.7,0.3,2.9,0.9,3.8c0.6,0.8,1.5,1.3,2.7,1.3c0.8,0,1.5-0.1,2.2-0.2c0.7-0.1,1.4-0.4,2-0.7l0.7,3.7
			c-0.6,0.2-1.3,0.5-2.2,0.7C851.4,372.2,850.5,372.4,849.6,372.4z"/>
	</g>
</g>
<path fill="none" stroke="#333333" stroke-width="4" stroke-miterlimit="10" d="M135,110c4.2,1.9,12.8,0.5,18,0.5"/>
<path fill="#22B573" d="M199.2,57.1c1-0.8,2.6,0.3,3.1-0.9c0.5-1,0.6-2.7,1.5-3.4c1.3-1.1,2.5-1.8,4.2-2c1.8-0.3,3.1,0.4,4.4,1.7
	c1,1,0.9,2.5,1.5,3.7c0.7,1.4,2.6,0.9,3.9,0.9c2,0,4.1-0.2,6.1-0.3c1.5-0.1,1.5,0,1.5-1.5c-0.1-1.3-0.2-2.7-0.9-3.9
	c-0.8-1.3-2-2.3-3-3.4c-1.1-1.2-2.2-2.2-3.8-2.6c-1.8-0.4-3.6-1.1-5.5-1c-3.3,0.1-6.7,1.4-8.8,4c-1.2,1.5-2.5,3.2-3.3,5
	C199.5,54.5,199.4,55.8,199.2,57.1z"/>
<path fill="#919195" d="M199.8,59.6c0.4,0,2.4-0.1,2.5,0.1c0.3,1.2,0.5,2.7,1.1,3.7c0.8,1.2,3,1.5,4.3,1.6c1.4,0.1,3.2-0.2,4.2-1.2
	c0.6-0.5,1-1.4,1.4-2c0.2-0.4,0.3-1.6,0.5-1.8c0.5-0.5,2.3-0.5,3-0.6c2.5-0.4,5.4-0.5,7.9,0c-0.9,2.6-1.4,4.9-3,7.2
	c-1.1,1.5-2.2,3.1-4,3.8c-1.5,0.5-3.5,0.9-5.1,0.8c-3.3-0.2-5.7-0.9-8.3-3c-1.6-1.2-2.7-2.8-3.5-4.6C200.2,62.3,200.1,61,199.8,59.6
	z"/>
<path fill="#ED1C24" d="M195.6,58.3c-1,0.8-2.6-0.3-3.1,0.9c-0.5,1-0.6,2.7-1.5,3.4c-1.3,1.1-2.5,1.8-4.2,2
	c-1.8,0.3-3.1-0.4-4.4-1.7c-1-1-0.9-2.5-1.5-3.7c-0.7-1.4-2.6-0.9-3.9-0.9c-2,0-4.1,0.2-6.1,0.3c-1.5,0.1-1.5,0-1.5,1.5
	c0.1,1.3,0.2,2.7,0.9,3.9c0.8,1.3,2,2.3,3,3.4c1.1,1.2,2.2,2.2,3.8,2.6c1.8,0.4,3.6,1.1,5.5,1c3.3-0.1,6.7-1.4,8.8-4
	c1.3-1.5,2.5-3.2,3.3-5C195.2,61,195.3,59.6,195.6,58.3z"/>
<path fill="#919195" d="M194.6,55.9c-0.4,0-2.4,0.1-2.5-0.1c-0.3-1.2-0.5-2.7-1.1-3.7c-0.8-1.2-3-1.5-4.3-1.6
	c-1.4-0.1-3.2,0.2-4.2,1.2c-0.6,0.5-1,1.4-1.4,2c-0.2,0.4-0.3,1.6-0.5,1.8c-0.5,0.5-2.3,0.5-3,0.6c-2.5,0.4-5.4,0.5-7.9,0
	c0.9-2.6,1.4-4.9,3-7.2c1.1-1.5,2.2-3.1,4-3.8c1.5-0.5,3.5-0.9,5.1-0.8c3.3,0.2,5.7,0.9,8.3,3c1.6,1.2,2.7,2.8,3.5,4.6
	C194.3,53.2,194.4,54.5,194.6,55.9z"/>
</svg>
