<svg version="1.1" id="Layer_1" xmlns="http://www.w3.org/2000/svg" xmlns:xlink="http://www.w3.org/1999/xlink" x="0px" y="0px"
	 width="900px" height="400px" viewBox="0 0 900 400" enable-background="new 0 0 900 400" xml:space="preserve">
<g>
	<path fill="none" stroke="#333333" stroke-width="4" stroke-linecap="round" stroke-linejoin="round" stroke-miterlimit="10" d="
		M34.6,113.5c0,0-0.7,8.8-0.6,15.5c0.2,6.8-0.5,17.8-0.4,23.3c0.1,5.5,0.3,10.3,0.4,15.2c0.1,4.8-0.6,13.3-0.5,18.1
		c0.1,4.8,1.3,11,1.4,15.5c0.1,4.5,0.2,5.8,0.2,5.8s36.7,9.8,43.3,12.2c6.5,2.4,11.9,3.9,15.5,4.2c3.6,0.2,10.6,1.7,15.2,3.2
		c4.6,1.5,13.4,4.3,19.2,6.1c5.9,1.8,13.4,3.9,13.4,3.9s5.1-4,9.9-6.4c4.8-2.4,28.4-15.6,32.5-18.6c4.1-3,9.6-4.5,13.1-6.5
		c3.5-2,6.4-4,6.4-4s-0.6-12,0.2-17.8c0.8-5.8,0.5-31.4,0.4-35.6c-0.1-4.2,0.8-18.5,1.2-26.6c0.4-8.1,1.2-14.3,1.2-14.3
		s-18.6,5.3-21.8,7.7c-3.2,2.3-10.5,4.8-17.9,7.9s-20.2,8.9-21.7,10c-1.6,1-5.8,2.7-5.8,2.7s-17.5-1.8-21.7-2.7
		c-4.2-0.9-24.1-5.2-29.6-6.3c-5.5-1.1-20.8-4.3-23.8-5.5c-2.9-1.2-9.1-2-13.7-3.2c-4.6-1.2-4.9-0.8-7.2-1.8
		C41.1,114.7,34.6,113.5,34.6,113.5z"/>
	<path fill="none" stroke="#333333" stroke-width="4" stroke-linecap="round" stroke-linejoin="round" stroke-miterlimit="10" d="
		M34.6,113.5c0,0-5.6-6.2-8.2-9.2c-2.7-2.9-7.6-8.4-9.3-10.3c-1.8-1.9-6.3-8.9-8.1-11.4c-1.8-2.5-3.4-5.5-3.4-5.5s9.4,3.4,13.1,4.6
		c17.6,5.7,36,7.9,54.2,10.7c14.4,2.2,29.5,8.1,44,8.3c0,0,7.4,11,9.2,13.1c1.8,2.1,8.5,10.6,9.2,12.1c0.7,1.5,4.1,9.2,4.1,9.2
		s0.3,4.7,0.5,9.9c0.1,5.2,0.2,6.9,0.3,11.6c0.1,4.7,0.2,6.9,0.3,11.6c0.3,10.7,1,21.4,0.6,32.1c-0.1,3.7-0.6,3.5-0.4,8.9
		c0.2,9.4-0.5,18.1,1,27.4"/>
	<path fill="none" stroke="#333333" stroke-width="4" stroke-linecap="round" stroke-linejoin="round" stroke-miterlimit="10" d="
		M206.6,106.8c0,0,3.3-4.4,4.4-5.7c1-1.3,3.5-5.9,6.5-9c2.9-3.1,6.1-6.8,7.9-9.9c1.9-3.1,10.4-14.7,10.4-14.7s-11.5,6.3-15.5,8
		c-4.1,1.6-6.2,3-10.2,4.4c-4.1,1.4-13,4.2-16.2,5.4c-3.2,1.2-11.5,4.8-13.9,6c-2.3,1.1-11.1,3.3-11.1,3.3s-4.9,9-7.3,11.4
		c-2.3,2.4-9,12.3-9.4,13.4c-0.4,1.1-12.7,15.9-12.7,15.9"/>
	<path fill="none" stroke="#333333" stroke-width="4" stroke-linecap="round" stroke-linejoin="round" stroke-miterlimit="10" d="
		M73.7,92.4c2.3-1.1,7.1-4.6,8.4-5.3c1.3-0.7,5.7-4.3,5.7-4.3s5,1.2,8,1.5c3,0.4,4.8,0.5,6.7,0.5c11.8-0.3,23.4,2.5,34.9,5
		c8.4,1.8,17.3,2.6,25.5,5.1c1.3,0.4,4.6,1,4.6,1"/>
	<path fill="none" stroke="#333333" stroke-width="4" stroke-linecap="round" stroke-linejoin="round" stroke-miterlimit="10" d="
		M211.4,78.8c0,0,1.2-5.2,2.4-7.2c1.2-2,3.7-7.9,4.3-10c0.6-2.2,3.2-8.5,3.2-8.5s-3.9-0.1-7.1-0.7c-17.4-3-35.3-4-52.6-7.3
		c-5-0.9-12.5-1.2-17.1-1.5c-4.5-0.3-7.8-1.1-11-1.2c-3.2-0.1-9.5-0.4-14.7-0.7c-5.2-0.3-10.2-1-10.8-1.2c-0.7-0.2-2.8-0.6-2.8-0.6
		s-1.8,5.9-4,10.7c-2.2,4.8-5.1,10.7-6.9,14.6c-1.8,3.9-3,7.4-4.1,9.4c-1,2-2.4,8.3-2.4,8.3s-2.6-2.3-4-3.8
		c-1.3-1.5-8.7-10.1-10-11.4c-1.3-1.3-6.7-9.3-8.7-11.2c-2-1.9-3.3-3.6-4.5-5.5c-1.1-1.9-2.9-4.5-2.9-4.5s-6,1.9-9.8,3.5
		c-3.8,1.6-10.2,4.4-14.5,5.8C29,57.3,22.4,59.6,19,61.4c-3.4,1.8-5.7,3-8.7,4.1c-3,1.2-6.6,3-6.6,3s3.4,2.6,5.7,5
		c2.3,2.4,3.2,3.3,4.3,4.3c1.1,1.1,3.1,3.2,3.1,3.2"/>

		<path fill="#FFFFFF" stroke="#ED1C24" stroke-width="4" stroke-linecap="round" stroke-linejoin="round" stroke-miterlimit="10" d="
		M135,83.2c0,0-0.4-3.8-1.6-5.6c-1.2-1.9-3.5-3.3-4.5-3.5c-1.1-0.2-2.9,0.4-3.7,0.9c-0.8,0.5-1,0.6-1.8,2.2
		c-0.8,1.5-1.3,3.4-1.5,4.3c-0.1,1,0.1,4.3,0.6,5.2c0.5,0.9,1.2,2.3,1.8,3.5c1.4,2.7,3.1,6,4.9,8.5c0.6,0.8,1.4,2,1.9,2.9
		c0.4,0.9,1,2.2,1,2.2s1.4-1.4,2.2-2.3c0.7-0.8,2-1.5,3.2-2.9c2.4-2.8,5.4-5.1,7.9-7.9c1.5-1.7,3.1-5.5,3.4-7.2c0.3-1.7-0.4-4-1.1-5
		c-2-2.6-6.7-3.1-9.1-0.9c-1.2,1.1-1.1,1.3-1.8,2.1C136.1,80.6,135,83.2,135,83.2z"/>

		<path fill="#FFFFFF" stroke="#ED1C24" stroke-width="4" stroke-linecap="round" stroke-linejoin="round" stroke-miterlimit="10" d="
		M63.8,62.6c0,0-2.5-2.8-4.6-3.6c-2.1-0.8-4.8-0.6-5.7-0.1c-1,0.5-2.1,2-2.4,2.9c-0.3,0.9-0.4,1.1-0.1,2.8c0.3,1.7,0.9,3.5,1.4,4.4
		c0.5,0.9,2.6,3.4,3.6,3.9c1,0.5,2.3,1.1,3.5,1.7c2.7,1.3,6.1,3,9,3.9c1,0.3,2.3,0.7,3.2,1.2c0.9,0.5,2.1,1.1,2.1,1.1s0.3-2,0.4-3.1
		c0.1-1.1,0.8-2.4,0.9-4.2c0.3-3.7,1.4-7.3,1.7-11c0.2-2.2-0.7-6.3-1.5-7.8c-0.8-1.5-2.7-3-3.9-3.4c-3.1-1-7.2,1.4-7.9,4.6
		c-0.3,1.5-0.1,1.7-0.2,2.8C63.1,59.8,63.8,62.6,63.8,62.6z"/>

		<path fill="#FFFFFF" stroke="#ED1C24" stroke-width="4" stroke-linecap="round" stroke-linejoin="round" stroke-miterlimit="10" d="
		M186.9,51.8c0,0,0.6-3.7-0.2-5.8c-0.7-2.1-2.5-4.1-3.5-4.5c-1-0.4-2.9-0.4-3.8,0c-0.9,0.3-1.1,0.4-2.3,1.7
		c-1.2,1.3-2.1,2.9-2.5,3.8c-0.4,0.9-1,4.2-0.7,5.2c0.3,1,0.6,2.5,0.9,3.8c0.7,3,1.5,6.6,2.7,9.4c0.4,0.9,0.9,2.2,1.1,3.3
		c0.2,1,0.5,2.4,0.5,2.4s1.8-1,2.6-1.7c0.9-0.6,2.3-0.9,3.8-2c3-2.2,6.5-3.6,9.6-5.6c1.8-1.2,4.4-4.5,5.1-6.1c0.7-1.6,0.6-4,0.1-5.1
		c-1.2-3-5.7-4.7-8.6-3.2c-1.4,0.7-1.3,1-2.2,1.6C188.6,49.6,186.9,51.8,186.9,51.8z"/>

		<path fill="#FFFFFF" stroke="#ED1C24" stroke-width="4" stroke-linecap="round" stroke-linejoin="round" stroke-miterlimit="10" d="
		M79.8,11.9c0,0-1.2-3.6-2.8-5.1c-1.6-1.5-4.1-2.5-5.2-2.4c-1.1,0.1-2.7,1-3.4,1.7c-0.7,0.7-0.8,0.9-1.2,2.5
		c-0.4,1.7-0.5,3.6-0.4,4.6c0.1,1,1,4.2,1.7,5c0.7,0.8,1.7,2,2.5,3c2,2.3,4.4,5.2,6.7,7.2c0.8,0.7,1.8,1.6,2.5,2.4
		c0.6,0.8,1.5,1.9,1.5,1.9s1.1-1.7,1.6-2.7c0.5-1,1.7-1.9,2.5-3.5c1.7-3.3,4.2-6.2,6-9.4c1.1-1.9,1.8-6,1.7-7.7
		c-0.1-1.7-1.3-3.9-2.2-4.6C88.7,2.4,84,3,82.1,5.7c-0.9,1.3-0.7,1.5-1.2,2.5C80.3,9.1,79.8,11.9,79.8,11.9z"/>

		<path fill="#FFFFFF" stroke="#ED1C24" stroke-width="4" stroke-linecap="round" stroke-linejoin="round" stroke-miterlimit="10" d="
		M131.2,29.6c0,0-1.9-3.3-3.8-4.5c-1.9-1.2-4.5-1.6-5.6-1.3c-1,0.3-2.5,1.5-3,2.3c-0.5,0.8-0.6,1-0.7,2.7c-0.1,1.7,0.2,3.6,0.5,4.6
		c0.3,1,1.8,3.9,2.7,4.5c0.9,0.7,2,1.6,3.1,2.4c2.4,1.9,5.3,4.2,8,5.7c0.9,0.5,2.1,1.2,2.9,1.9c0.8,0.7,1.9,1.6,1.9,1.6s0.7-1.9,1-3
		c0.3-1,1.2-2.2,1.7-3.9c1-3.6,2.9-6.9,4-10.4c0.7-2.1,0.6-6.3,0.1-7.9c-0.5-1.7-2-3.5-3.1-4.1c-2.9-1.6-7.4-0.1-8.7,2.9
		c-0.6,1.4-0.4,1.6-0.7,2.7C131.2,26.7,131.2,29.6,131.2,29.6z"/>
</g>
<rect y="300" fill="#333333" width="900" height="100"/>
<g>
	<path fill="#998675" d="M257.9,262.4c-12.7,0-22.2-2.9-28.6-8.8c-6.4-5.8-9.7-14.6-9.7-26.3v-6.9c0-7.2,1.9-13.1,5.6-17.8
		c3.7-4.7,8.8-7.5,15.4-8.5v-4.7c-5.3-0.7-9.8-2.9-13.3-6.7c-3.5-3.8-5.2-8.8-5.2-15.1v-8.5c0-10.3,3-18,9-23.2
		c6-5.2,14.9-7.8,26.8-7.8c11.9,0,20.8,2.6,26.8,7.8c6,5.2,9,12.9,9,23.2v8.5c0,6.2-1.8,11.2-5.3,15.1c-3.5,3.8-8,6.1-13.3,6.7v4.7
		c6.5,1,11.7,3.8,15.5,8.6c3.8,4.7,5.6,10.7,5.6,17.8v6.9c0,11.7-3.2,20.4-9.7,26.3C280.1,259.4,270.5,262.4,257.9,262.4z
		 M257.9,241.1c3.3,0,5.6-1.1,6.9-3.4c1.3-2.2,2-6.1,2-11.5v-8.8c0-5.6-0.7-9.5-2-11.8c-1.3-2.3-3.6-3.4-6.9-3.4
		c-3.3,0-5.6,1.1-6.9,3.4c-1.3,2.3-2,6.2-2,11.8v8.8c0,5.5,0.7,9.3,2,11.5C252.3,240,254.6,241.1,257.9,241.1z M257.9,181.7
		c2.4,0,4.1-0.8,5-2.5c0.9-1.7,1.4-4.6,1.4-8.6v-10.3c0-4-0.5-6.8-1.4-8.4c-0.9-1.6-2.6-2.4-5-2.4c-2.4,0-4.1,0.8-5,2.4
		c-0.9,1.6-1.4,4.4-1.4,8.4v10.3c0,4,0.5,6.9,1.4,8.6C253.8,180.8,255.5,181.7,257.9,181.7z"/>
	<path fill="#998675" d="M353.3,262.4c-12.3,0-21.4-2.6-27.1-7.8c-5.7-5.2-9-13.8-9.9-25.8l30.6-3.8c0.2,6.7,0.9,11.1,2,13.4
		s3.4,3.4,6.6,3.4c2.5,0,4.3-1.7,5.3-5c1-3.3,1.6-9.1,1.6-17.4v-19.3h-1.1c-2.4,3.8-5.4,6.7-9,8.6c-3.6,1.9-7.8,2.9-12.6,2.9
		c-8.1,0-14.2-3-18.2-9c-4.1-6-6.1-14.9-6.1-26.7v-10.1c0-12.4,3.2-21.8,9.7-28.1c6.4-6.3,16-9.5,28.6-9.5c12.7,0,22.2,3.7,28.6,11
		c6.4,7.3,9.7,18.2,9.7,32.6v46.1c0,14.8-3.2,26-9.7,33.4C375.6,258.7,366,262.4,353.3,262.4z M353.6,193.3c3.3,0,5.6-1.4,6.9-4.2
		s2-7.6,2-14.5V166c0-6.4-0.7-10.9-2-13.5c-1.3-2.6-3.6-3.8-6.9-3.8c-3.2,0-5.4,1.3-6.7,3.8c-1.3,2.6-2,7.1-2,13.5v8.7
		c0,6.9,0.7,11.7,2,14.5S350.4,193.3,353.6,193.3z"/>
	<path fill="#998675" d="M413.6,260.7v-21.6h23.6v-82.8h-3.6c-0.9,6.9-3.2,12.3-7,16.2c-3.8,3.9-8.3,5.8-13.6,5.7l-1.3-21.8
		c6.2-0.2,11.8-2.9,16.7-7.9c4.9-5.1,8-11.3,9.2-18.7h29.1v109.3h19.5v21.6H413.6z"/>
	<path fill="#998675" d="M545,262.4c-12.7,0-22.2-3.7-28.6-11c-6.4-7.3-9.7-18.2-9.7-32.6v-46.1c0-14.8,3.2-26,9.7-33.4
		c6.4-7.4,16-11.1,28.8-11.1c12.3,0,21.4,2.6,27.1,7.8c5.7,5.2,9,13.8,9.9,25.8l-30.6,3.8c-0.2-6.7-1-11.1-2.5-13.4
		c-1.4-2.3-3.3-3.4-5.7-3.4c-2.7,0-4.6,1.6-5.6,4.7c-1,3.1-1.6,8.5-1.6,16.3v20.8h0.7c2.4-3.8,5.5-6.7,9.2-8.6
		c3.8-1.9,8.3-2.9,13.5-2.9c7.9,0,13.8,3,17.8,9c4,6,6,14.9,6,26.7v10.1c0,12.4-3.2,21.8-9.7,28.1
		C567.2,259.2,557.7,262.4,545,262.4z M544.9,241.9c3.2,0,5.4-1.3,6.7-3.8c1.3-2.6,2-7.1,2-13.5v-8.7c0-6.9-0.7-11.7-2-14.5
		c-1.3-2.8-3.5-4.2-6.7-4.2c-3.2,0-5.4,1.4-6.7,4.2c-1.3,2.8-2,7.6-2,14.5v8.7c0,6.4,0.7,10.9,2,13.5
		C539.5,240.6,541.7,241.9,544.9,241.9z"/>
	<path fill="#998675" d="M602.5,260.7v-27.3c0-10.1,1.6-18,4.7-23.6c3.2-5.6,9.3-11.4,18.3-17.4l9.8-6.5c5.9-3.9,9.5-6.9,10.9-9
		c1.4-2.1,2-5.6,2-10.5v-3.8c0-4.7-0.6-8.2-1.8-10.5c-1.2-2.3-3.1-3.4-5.7-3.4c-2.7,0-4.6,1.6-5.6,4.7c-1,3.2-1.7,9-2,17.5
		l-29.5-1.6c0.5-14.3,3.8-24.7,9.7-31.3c5.9-6.5,15-9.8,27.3-9.8c12.2,0,21.5,2.9,27.7,8.6c6.3,5.7,9.4,14.2,9.4,25.4v7.7
		c0,8.1-1.6,14.6-4.7,19.5s-9.1,10.3-18.1,16.2l-9.8,6.5c-6,4.1-9.7,7.3-11.1,9.5c-1.4,2.2-2.1,6-2.1,11.5v6.1h47.1v21.6H602.5z"/>
	<path fill="#998675" d="M736.2,262.4c-12.3,0-21.4-2.6-27.1-7.8c-5.7-5.2-9-13.8-9.9-25.8l30.6-3.8c0.2,6.7,0.9,11.1,2,13.4
		c1.1,2.3,3.4,3.4,6.6,3.4c2.5,0,4.3-1.7,5.3-5c1-3.3,1.6-9.1,1.6-17.4v-19.3h-1.1c-2.4,3.8-5.4,6.7-9,8.6
		c-3.6,1.9-7.8,2.9-12.6,2.9c-8.1,0-14.2-3-18.2-9c-4.1-6-6.1-14.9-6.1-26.7v-10.1c0-12.4,3.2-21.8,9.7-28.1
		c6.4-6.3,16-9.5,28.6-9.5c12.7,0,22.2,3.7,28.6,11c6.4,7.3,9.7,18.2,9.7,32.6v46.1c0,14.8-3.2,26-9.7,33.4
		C758.6,258.7,748.9,262.4,736.2,262.4z M736.5,193.3c3.3,0,5.6-1.4,6.9-4.2s2-7.6,2-14.5V166c0-6.4-0.7-10.9-2-13.5
		c-1.3-2.6-3.6-3.8-6.9-3.8c-3.2,0-5.4,1.3-6.7,3.8c-1.3,2.6-2,7.1-2,13.5v8.7c0,6.9,0.7,11.7,2,14.5S733.3,193.3,736.5,193.3z"/>
	<path fill="#998675" d="M832.1,262.4c-13.9,0-23.8-3.1-29.7-9.3c-5.9-6.2-9.2-16.9-9.7-31.9l29.5-1.6c0.8,8.8,1.8,14.8,3.2,17.8
		c1.4,3.1,3.7,4.6,7,4.6c3.5,0,5.8-1.1,7-3.4c1.2-2.3,1.8-6.7,1.8-13.3v-12.1c0-5.9-1.1-10-3.3-12.2c-2.2-2.2-6.2-3.4-11.9-3.4
		h-29.5v-67.7h70.9v20.5h-41.4v25.5h12.3c10.9,0,19,2.7,24.4,8.2c5.3,5.5,8,13.7,8,24.7v17.2c0,12.1-3.2,21.2-9.7,27.3
		C854.4,259.3,844.8,262.4,832.1,262.4z"/>
</g>
<g>
	<g>
		<path fill="#FFFFFF" d="M96.6,374.4c-2.4,0-4.2-0.7-5.5-2.2c-1.3-1.5-2-3.5-2-6v-14.7h-5.4v-3.6H89v-8.7h3.9v8.7h8.2v3.6h-8.2
			v14.2c0,1.7,0.3,2.9,0.9,3.8s1.5,1.3,2.7,1.3c0.8,0,1.5-0.1,2.2-0.2c0.7-0.1,1.4-0.4,2-0.7l0.7,3.7c-0.6,0.2-1.3,0.5-2.2,0.7
			C98.3,374.2,97.4,374.4,96.6,374.4z"/>
		<path fill="#FFFFFF" d="M111.1,374v-26.2h4v3.8h1c0.4-1.5,1.1-2.6,2.1-3.3c1-0.7,2.2-1,3.5-1c1.5,0,2.8,0.6,3.8,1.8
			c1,1.2,1.5,2.9,1.5,5.2v4.2h-3.8v-2.7c0-1.6-0.2-2.8-0.7-3.5c-0.5-0.8-1.3-1.1-2.4-1.1c-1,0-1.9,0.3-2.7,1
			c-0.8,0.7-1.5,1.6-2.2,2.9v19H111.1z"/>
		<path fill="#FFFFFF" d="M140.6,374.4c-2,0-3.6-0.7-4.7-2c-1.1-1.3-1.7-3.1-1.7-5.5c0-2.3,0.6-4.1,1.8-5.4c1.2-1.3,2.9-2,5-2h5.5
			v-4.3c0-1.3-0.3-2.3-1-3.1c-0.7-0.8-1.7-1.2-3-1.2c-1.4,0-2.5,0.3-3.1,1s-1.1,1.9-1.5,3.8l-3.4-1c0.4-2.5,1.3-4.3,2.6-5.5
			c1.3-1.2,3.1-1.8,5.3-1.8c2.3,0,4.2,0.6,5.7,1.8c1.5,1.2,2.2,3.1,2.2,5.5v13c0,1.3,0.3,2.2,0.9,2.7c0.6,0.4,1.5,0.5,2.8,0.1v3.7
			c-1.9,0.3-3.3,0.1-4.3-0.5s-1.5-1.8-1.7-3.6h-0.7c-0.6,1.3-1.5,2.3-2.7,3.1C143.5,374,142.2,374.4,140.6,374.4z M141.3,370.9
			c1.3,0,2.3-0.3,3.2-0.8c0.9-0.6,1.6-1.5,2.1-2.7v-4.6h-4.9c-1.2,0-2.1,0.3-2.7,0.9c-0.6,0.6-0.9,1.6-0.9,3.1
			c0,1.3,0.2,2.4,0.7,3.1C139.3,370.5,140.2,370.9,141.3,370.9z"/>
		<path fill="#FFFFFF" d="M169.6,374.4c-3,0-5.2-0.8-6.7-2.4c-1.5-1.6-2.2-3.8-2.2-6.6v-8.9c0-2.9,0.7-5.2,2.2-6.8
			c1.5-1.6,3.7-2.4,6.6-2.4c2.7,0,4.7,0.7,6,2.1c1.4,1.4,2.1,3.7,2.3,6.7l-3.8,0.2c-0.1-2.2-0.5-3.6-1.2-4.4
			c-0.7-0.7-1.8-1.1-3.3-1.1c-1.6,0-2.8,0.4-3.6,1.2c-0.8,0.8-1.2,2.2-1.2,4.3v9.1c0,1.9,0.4,3.2,1.2,4.1s2,1.2,3.6,1.2
			c1.5,0,2.7-0.3,3.3-0.9c0.7-0.6,1.1-1.8,1.2-3.7l3.8,0.2c-0.1,2.8-0.9,4.8-2.2,6.1C174.4,373.8,172.4,374.4,169.6,374.4z"/>
		<path fill="#FFFFFF" d="M191.6,361.9V374h-4v-34.9h4v19.5h1.6l6-10.7h4.5l-7.5,12.2l7.4,14h-4.4l-6.1-12.1H191.6z"/>
		<path fill="#FFFFFF" d="M211.9,374v-3.6h6.4v-19h-6.4v-3.6h10.4v22.6h6.4v3.6H211.9z M220.3,342.8c-0.9,0-1.6-0.2-2.2-0.5
			c-0.6-0.3-0.9-1-0.9-1.9v-0.3c0-0.9,0.3-1.6,0.9-1.9c0.6-0.3,1.3-0.5,2.2-0.5c0.9,0,1.6,0.2,2.2,0.5c0.6,0.3,0.9,1,0.9,1.9v0.3
			c0,0.9-0.3,1.5-0.9,1.9C222,342.7,221.2,342.8,220.3,342.8z"/>
		<path fill="#FFFFFF" d="M237.3,374v-26.2h3.9v3.4h1c0.6-1.2,1.5-2.1,2.5-2.8c1-0.7,2.2-1,3.4-1c1.9,0,3.4,0.7,4.5,2.2
			c1.1,1.5,1.6,3.5,1.6,6.1V374h-3.9v-17.6c0-1.7-0.3-3.1-0.9-3.9c-0.6-0.9-1.5-1.3-2.6-1.3c-1.1,0-2.1,0.3-3,1
			c-0.9,0.7-1.8,1.7-2.5,3V374H237.3z"/>
		<path fill="#FFFFFF" d="M281.3,376.2c0,2.4-0.7,4.1-2,5.2c-1.3,1.1-3,1.7-4.9,1.7h-6.1c-2.1,0-3.8-0.5-5.1-1.5
			c-1.3-1-1.9-2.7-1.9-4.9c0-1.4,0.3-2.5,0.9-3.3c0.6-0.8,1.4-1.3,2.5-1.4V371c-0.8-0.1-1.4-0.6-1.9-1.2c-0.5-0.7-0.7-1.7-0.7-3.1
			c0-1.2,0.3-2.3,1-3.3c0.6-1,1.6-1.6,3-1.7v-0.8c-1.1-0.5-1.8-1.2-2.2-2.2c-0.4-1-0.6-1.9-0.6-2.7v-1.4c0-2,0.7-3.6,2-5
			c1.3-1.3,3.1-2,5.4-2h10.1v3.8l-5.1-1.1v0.9c0.8,0.3,1.5,0.9,2,1.8c0.5,0.9,0.7,1.8,0.7,2.7v1.3c0,2-0.6,3.6-1.9,4.8
			c-1.2,1.3-3.1,1.9-5.6,1.9H267c-0.6,0-1.1,0.2-1.4,0.6c-0.3,0.4-0.5,1.1-0.5,2.1c0,0.9,0.2,1.6,0.6,2.1c0.4,0.5,1,0.7,1.9,0.7h7.1
			c1.9,0,3.5,0.5,4.7,1.6C280.7,372,281.3,373.8,281.3,376.2z M268.3,379.9h6.4c0.9,0,1.7-0.3,2.2-0.8c0.6-0.5,0.9-1.4,0.9-2.7
			c0-1.2-0.3-2.1-0.8-2.6c-0.5-0.5-1.2-0.8-2.1-0.8h-9.7v3.1c0,1.3,0.3,2.2,0.8,2.9C266.5,379.5,267.3,379.9,268.3,379.9z
			 M270.7,360.7c1.3,0,2.2-0.3,2.8-1c0.6-0.7,0.9-1.7,0.9-3.2v-1.3c0-1.5-0.3-2.5-0.9-3.1c-0.6-0.6-1.6-1-2.8-1
			c-1.3,0-2.2,0.3-2.8,1c-0.6,0.6-0.9,1.7-0.9,3.1v1.3c0,1.5,0.3,2.5,0.9,3.2C268.5,360.3,269.4,360.7,270.7,360.7z"/>
		<path fill="#FFFFFF" d="M315.3,374v-26.2h4v3.8h1c0.4-1.5,1.1-2.6,2.1-3.3c1-0.7,2.2-1,3.5-1c1.5,0,2.8,0.6,3.8,1.8
			c1,1.2,1.5,2.9,1.5,5.2v4.2h-3.8v-2.7c0-1.6-0.2-2.8-0.7-3.5c-0.5-0.8-1.3-1.1-2.4-1.1c-1,0-1.9,0.3-2.7,1
			c-0.8,0.7-1.5,1.6-2.2,2.9v19H315.3z"/>
		<path fill="#FFFFFF" d="M356.5,368.3c-0.7,2.1-1.6,3.7-2.9,4.7c-1.3,1-3.1,1.5-5.7,1.5c-2.6,0-4.7-0.8-6.2-2.3s-2.3-3.8-2.3-6.8
			v-8.8c0-3.1,0.8-5.4,2.4-6.9c1.6-1.5,3.6-2.3,6.1-2.3c2.5,0,4.6,0.8,6.1,2.4c1.5,1.6,2.3,4,2.3,7.2v4.7h-13v3.6
			c0,2,0.4,3.5,1.1,4.3c0.8,0.9,1.9,1.3,3.4,1.3c1.5,0,2.5-0.3,3.3-0.9c0.7-0.6,1.3-1.6,1.6-2.9L356.5,368.3z M343.4,356.7v1.8h9
			v-1.4c0-2.2-0.4-3.8-1.1-4.8c-0.7-1-1.9-1.5-3.4-1.5c-1.5,0-2.7,0.5-3.4,1.5C343.7,353.3,343.4,354.7,343.4,356.7z"/>
		<path fill="#FFFFFF" d="M377.9,382.7v-12.1h-1c-0.6,1.2-1.3,2.1-2.4,2.8c-1,0.7-2.2,1-3.4,1c-1.9,0-3.4-0.8-4.5-2.5
			c-1.1-1.6-1.7-3.9-1.7-6.8v-8.7c0-2.9,0.8-5.1,2.3-6.7c1.5-1.6,3.7-2.4,6.4-2.4c1.5,0,3,0.2,4.4,0.6c1.5,0.4,2.7,1,3.8,1.7v33.1
			H377.9z M372.5,370.6c1.1,0,2.1-0.3,3-1c0.9-0.7,1.7-1.7,2.4-3.1v-14.4c-0.6-0.4-1.2-0.8-1.9-1c-0.7-0.2-1.5-0.3-2.4-0.3
			c-1.6,0-2.7,0.5-3.5,1.4c-0.8,1-1.2,2.4-1.2,4.3v8.3c0,1.9,0.3,3.4,0.9,4.3C370.4,370.2,371.3,370.6,372.5,370.6z"/>
		<path fill="#FFFFFF" d="M396.7,374.4c-1.9,0-3.4-0.7-4.5-2.2c-1.1-1.5-1.7-3.5-1.7-6v-18.4h3.9v17.8c0,1.7,0.3,2.9,0.9,3.8
			c0.6,0.9,1.5,1.3,2.6,1.3c1,0,2.1-0.3,3-1c1-0.7,1.8-1.6,2.5-2.9v-19h3.9V374h-3.9v-3.4h-1c-0.4,1.2-1.1,2.1-2.1,2.8
			C399.3,374,398.1,374.4,396.7,374.4z"/>
		<path fill="#FFFFFF" d="M433.1,368.3c-0.7,2.1-1.6,3.7-2.9,4.7c-1.3,1-3.1,1.5-5.7,1.5c-2.6,0-4.7-0.8-6.2-2.3s-2.3-3.8-2.3-6.8
			v-8.8c0-3.1,0.8-5.4,2.4-6.9c1.6-1.5,3.6-2.3,6.1-2.3c2.5,0,4.6,0.8,6.1,2.4c1.5,1.6,2.3,4,2.3,7.2v4.7h-13v3.6
			c0,2,0.4,3.5,1.1,4.3c0.8,0.9,1.9,1.3,3.4,1.3c1.5,0,2.5-0.3,3.3-0.9c0.7-0.6,1.3-1.6,1.6-2.9L433.1,368.3z M420,356.7v1.8h9v-1.4
			c0-2.2-0.4-3.8-1.1-4.8c-0.7-1-1.9-1.5-3.4-1.5c-1.5,0-2.7,0.5-3.4,1.5C420.3,353.3,420,354.7,420,356.7z"/>
		<path fill="#FFFFFF" d="M450.4,374.4c-1.7,0-3.4-0.3-5-0.8c-1.7-0.6-3.1-1.3-4.3-2.4l1.4-3.2c1.1,0.8,2.3,1.5,3.7,2
			c1.4,0.5,2.8,0.8,4.2,0.8c1.5,0,2.7-0.3,3.4-0.9s1.1-1.5,1.1-2.7c0-1.4-0.4-2.4-1.2-3c-0.8-0.6-2.2-1.1-4.3-1.7
			c-2.8-0.7-4.8-1.7-6-2.9c-1.2-1.2-1.7-2.8-1.7-4.9c0-2.4,0.7-4.2,2.1-5.5c1.4-1.3,3.3-2,5.7-2c1.5,0,3,0.3,4.6,0.9
			c1.5,0.6,2.9,1.4,4,2.4l-1.4,3.2c-1-0.8-2.1-1.4-3.4-2c-1.3-0.6-2.5-0.9-3.8-0.9c-1.3,0-2.3,0.3-2.9,0.9c-0.6,0.6-0.9,1.5-0.9,2.7
			c0,1.4,0.4,2.4,1.2,3s2.3,1.1,4.4,1.7c2.7,0.7,4.7,1.7,5.8,2.9c1.1,1.2,1.7,2.8,1.7,4.8c0,2.4-0.8,4.2-2.3,5.5
			C455.1,373.8,453,374.4,450.4,374.4z"/>
		<path fill="#FFFFFF" d="M479.5,374.4c-2.4,0-4.2-0.7-5.5-2.2c-1.3-1.5-2-3.5-2-6v-14.7h-5.4v-3.6h5.4v-8.7h3.9v8.7h8.2v3.6h-8.2
			v14.2c0,1.7,0.3,2.9,0.9,3.8c0.6,0.8,1.5,1.3,2.7,1.3c0.8,0,1.5-0.1,2.2-0.2c0.7-0.1,1.4-0.4,2-0.7l0.7,3.7
			c-0.6,0.2-1.3,0.5-2.2,0.7C481.2,374.2,480.3,374.4,479.5,374.4z"/>
		<path fill="#FFFFFF" d="M501.5,374.4c-1.7,0-3.4-0.3-5-0.8c-1.7-0.6-3.1-1.3-4.3-2.4l1.4-3.2c1.1,0.8,2.3,1.5,3.7,2
			c1.4,0.5,2.8,0.8,4.2,0.8c1.5,0,2.7-0.3,3.4-0.9c0.7-0.6,1.1-1.5,1.1-2.7c0-1.4-0.4-2.4-1.2-3c-0.8-0.6-2.2-1.1-4.3-1.7
			c-2.8-0.7-4.8-1.7-6-2.9c-1.2-1.2-1.7-2.8-1.7-4.9c0-2.4,0.7-4.2,2.1-5.5c1.4-1.3,3.3-2,5.7-2c1.5,0,3,0.3,4.6,0.9
			c1.5,0.6,2.9,1.4,4,2.4l-1.4,3.2c-1-0.8-2.1-1.4-3.4-2c-1.3-0.6-2.5-0.9-3.8-0.9c-1.3,0-2.3,0.3-2.9,0.9c-0.6,0.6-0.9,1.5-0.9,2.7
			c0,1.4,0.4,2.4,1.2,3c0.8,0.6,2.3,1.1,4.4,1.7c2.7,0.7,4.7,1.7,5.8,2.9c1.1,1.2,1.7,2.8,1.7,4.8c0,2.4-0.8,4.2-2.3,5.5
			S504.1,374.4,501.5,374.4z"/>
		<path fill="#FFFFFF" d="M543.7,374v-3.6h6.4v-19h-6.4v-3.6h10.4v22.6h6.4v3.6H543.7z M552.2,342.8c-0.9,0-1.6-0.2-2.2-0.5
			c-0.6-0.3-0.9-1-0.9-1.9v-0.3c0-0.9,0.3-1.6,0.9-1.9c0.6-0.3,1.3-0.5,2.2-0.5c0.9,0,1.6,0.2,2.2,0.5c0.6,0.3,0.9,1,0.9,1.9v0.3
			c0,0.9-0.3,1.5-0.9,1.9C553.8,342.7,553.1,342.8,552.2,342.8z"/>
		<path fill="#FFFFFF" d="M569.2,374v-26.2h3.9v3.4h1c0.6-1.2,1.5-2.1,2.5-2.8c1-0.7,2.2-1,3.4-1c1.9,0,3.4,0.7,4.5,2.2
			c1.1,1.5,1.6,3.5,1.6,6.1V374h-3.9v-17.6c0-1.7-0.3-3.1-0.9-3.9s-1.5-1.3-2.6-1.3c-1.1,0-2.1,0.3-3,1c-0.9,0.7-1.8,1.7-2.5,3V374
			H569.2z"/>
		<path fill="#FFFFFF" d="M628.7,374.4c-2.7,0-4.8-0.8-6.3-2.4c-1.5-1.6-2.2-3.8-2.2-6.7v-8.8c0-2.9,0.7-5.2,2.2-6.8
			c1.5-1.6,3.6-2.4,6.3-2.4c2.7,0,4.7,0.8,6.2,2.4c1.5,1.6,2.2,3.9,2.2,6.8v8.8c0,2.9-0.7,5.1-2.2,6.7
			C633.5,373.6,631.4,374.4,628.7,374.4z M628.7,370.8c1.5,0,2.6-0.4,3.4-1.2c0.8-0.8,1.1-2.2,1.1-4.1v-8.9c0-1.9-0.4-3.3-1.1-4.2
			c-0.8-0.9-1.9-1.4-3.4-1.4c-1.5,0-2.6,0.5-3.4,1.4c-0.8,0.9-1.1,2.3-1.1,4.2v8.9c0,1.9,0.4,3.3,1.1,4.1S627.2,370.8,628.7,370.8z"
			/>
		<path fill="#FFFFFF" d="M645.8,374v-26.2h3.9v3.4h1c0.6-1.2,1.5-2.1,2.5-2.8c1-0.7,2.2-1,3.4-1c1.9,0,3.4,0.7,4.5,2.2
			c1.1,1.5,1.6,3.5,1.6,6.1V374h-3.9v-17.6c0-1.7-0.3-3.1-0.9-3.9c-0.6-0.9-1.5-1.3-2.6-1.3c-1.1,0-2.1,0.3-3,1
			c-0.9,0.7-1.8,1.7-2.5,3V374H645.8z"/>
		<path fill="#FFFFFF" d="M688.4,368.3c-0.7,2.1-1.6,3.7-2.9,4.7c-1.3,1-3.1,1.5-5.7,1.5c-2.6,0-4.7-0.8-6.2-2.3s-2.3-3.8-2.3-6.8
			v-8.8c0-3.1,0.8-5.4,2.4-6.9c1.6-1.5,3.6-2.3,6.1-2.3c2.5,0,4.6,0.8,6.1,2.4c1.5,1.6,2.3,4,2.3,7.2v4.7h-13v3.6
			c0,2,0.4,3.5,1.1,4.3s1.9,1.3,3.4,1.3c1.5,0,2.5-0.3,3.3-0.9c0.7-0.6,1.3-1.6,1.6-2.9L688.4,368.3z M675.2,356.7v1.8h9v-1.4
			c0-2.2-0.4-3.8-1.1-4.8c-0.7-1-1.9-1.5-3.4-1.5c-1.5,0-2.7,0.5-3.4,1.5C675.6,353.3,675.2,354.7,675.2,356.7z"/>
		<path fill="#FFFFFF" d="M733.6,374l-2.8-17l-2.7,17H724l-3.5-26.2h3.6l2.3,22l2.5-17.8h3.8l2.7,17.5l2.1-21.7h3.6l-3.5,26.2H733.6
			z"/>
		<path fill="#FFFFFF" d="M764.9,368.3c-0.7,2.1-1.6,3.7-2.9,4.7c-1.3,1-3.1,1.5-5.7,1.5c-2.6,0-4.7-0.8-6.2-2.3s-2.3-3.8-2.3-6.8
			v-8.8c0-3.1,0.8-5.4,2.4-6.9c1.6-1.5,3.6-2.3,6.1-2.3c2.5,0,4.6,0.8,6.1,2.4c1.5,1.6,2.3,4,2.3,7.2v4.7h-13v3.6
			c0,2,0.4,3.5,1.1,4.3c0.8,0.9,1.9,1.3,3.4,1.3c1.5,0,2.5-0.3,3.3-0.9c0.7-0.6,1.3-1.6,1.6-2.9L764.9,368.3z M751.8,356.7v1.8h9
			v-1.4c0-2.2-0.4-3.8-1.1-4.8s-1.9-1.5-3.4-1.5c-1.5,0-2.7,0.5-3.4,1.5C752.2,353.3,751.8,354.7,751.8,356.7z"/>
		<path fill="#FFFFFF" d="M790.5,368.3c-0.7,2.1-1.6,3.7-2.9,4.7c-1.3,1-3.1,1.5-5.7,1.5c-2.6,0-4.7-0.8-6.2-2.3s-2.3-3.8-2.3-6.8
			v-8.8c0-3.1,0.8-5.4,2.4-6.9c1.6-1.5,3.6-2.3,6.1-2.3c2.5,0,4.6,0.8,6.1,2.4c1.5,1.6,2.3,4,2.3,7.2v4.7h-13v3.6
			c0,2,0.4,3.5,1.1,4.3c0.8,0.9,1.9,1.3,3.4,1.3c1.5,0,2.5-0.3,3.3-0.9c0.7-0.6,1.3-1.6,1.6-2.9L790.5,368.3z M777.3,356.7v1.8h9
			v-1.4c0-2.2-0.4-3.8-1.1-4.8s-1.9-1.5-3.4-1.5c-1.5,0-2.7,0.5-3.4,1.5C777.7,353.3,777.3,354.7,777.3,356.7z"/>
		<path fill="#FFFFFF" d="M804.3,361.9V374h-4v-34.9h4v19.5h1.6l6-10.7h4.5l-7.5,12.2l7.4,14h-4.4l-6.1-12.1H804.3z"/>
	</g>
</g>
</svg>
