<?xml version="1.0" encoding="utf-8"?>
<!-- Generator: Adobe Illustrator 25.0.1, SVG Export Plug-In . SVG Version: 6.00 Build 0)  -->
<svg version="1.1" xmlns="http://www.w3.org/2000/svg" xmlns:xlink="http://www.w3.org/1999/xlink" x="0px" y="0px"
	 viewBox="0 0 496.06 212.6" style="enable-background:new 0 0 496.06 212.6;" xml:space="preserve">
<style type="text/css">
	.st0{fill:#7BC144;}
	.st1{fill:#BFC0C4;}
</style>
<path class="st0" d="M228.27,108.04c-6.78,0-14.2,0.77-18.93,5.63v-24.7h-14.46v82.53h13.05v-4.99c3.84,3.45,9.73,6.01,18.04,6.01
	c24.95,0,26.61-16.88,26.61-32.11C252.58,121.47,249.64,108.04,228.27,108.04z M225.08,159.47c-12.41,0-15.99-3.45-15.99-19.06
	c0-15.61,3.58-19.06,15.99-19.06c10.75,0,13.05,4.48,13.05,19.06C238.12,154.99,235.82,159.47,225.08,159.47z M289.75,108.04
	c-7.3,0-13.05,2.3-17.15,6.66v-5.56h-12.54v62.36h14.46v-27.12c0-4.86-0.25-11.77,1.41-16.25c1.53-4.22,5.24-7.42,11.26-7.42
	c6.02,0,8.4,1.28,8.4,7.04h14.37C309.97,114.05,303.19,108.04,289.75,108.04z M371.31,108.04c-8.83,0-14.45,2.81-18.04,6.01v-4.92
	h-12.54v62.36h14.45v-29.04c0-10.87-1.15-21.62,14.46-21.62c12.54,0,11.39,5.76,11.39,17.79v32.88h14.46v-34.03
	C395.49,123.9,396.52,108.04,371.31,108.04z M447.58,109.13v4.92c-4.85-4.35-12.79-6.01-19.44-6.01
	c-21.49,0-24.95,12.92-24.95,31.86c0,14.97,1.41,31.6,25.07,31.6c6.01,0,13.43-1.41,17.91-5.5c0,3.2,0.13,7.7-0.25,10.9
	c-0.77,5.88-6.78,8.44-15.1,8.44c-8.06,0-10.61-2.27-10.61-6.75h-15.74c0,15.87,14.2,19.04,26.73,19.04
	c11.52,0,26.61-3.07,28.92-17.91c0.51-3.46,0.51-9.11,0.51-14.87v-55.71H447.58z M430.56,158.45c-10.74,0-12.92-3.97-12.92-18.55
	c0-14.59,2.18-19.07,12.92-19.07c12.41,0,15.74,3.46,15.74,19.07C446.3,155.5,442.97,158.45,430.56,158.45z M316.9,171.5h14.46
	v-62.36H316.9V171.5z M316.9,103.46h14.46V89.01H316.9V103.46z"/>
<path class="st1" d="M111.84,109.13c-1.45,18.24-16.7,32.6-35.31,32.6c-18.61,0-33.86-14.36-35.31-32.6H35.5
	c1.49,37.82,32.61,68.03,70.79,68.03c38.19,0,69.3-30.21,70.79-68.03H111.84z"/>
<path class="st0" d="M41.23,103.46c1.45-18.24,16.7-32.6,35.31-32.6c18.61,0,33.86,14.36,35.31,32.6h65.25
	c-1.49-37.82-32.61-68.03-70.79-68.03c-38.19,0-69.3,30.21-70.79,68.03H41.23z"/>
</svg>
