<?xml version="1.0" encoding="UTF-8"?>
<svg version="1.1" viewBox="0 0 134.85 41.02" xmlns="http://www.w3.org/2000/svg" xmlns:cc="http://creativecommons.org/ns#" xmlns:dc="http://purl.org/dc/elements/1.1/" xmlns:rdf="http://www.w3.org/1999/02/22-rdf-syntax-ns#">
<metadata>
<rdf:RDF>
<cc:Work rdf:about="">
<dc:format>image/svg+xml</dc:format>
<dc:type rdf:resource="http://purl.org/dc/dcmitype/StillImage"/>
<dc:title/>
</cc:Work>
</rdf:RDF>
</metadata>
<g transform="translate(-121.26 -455.31)">
<path d="m202.79 481.11c-1.645-0.1-2.7212-0.1-2.655-1.9488 0.0337-1.0762 0.31125-1.8475 3.5712-1.7475 2.2175 0.0675 2.9125 0.5375 2.9125 2.1175h3.495c0-3.8988-2.375-5.1088-6.4412-5.175-4.3688-0.0675-7.2662 0.84-7.3338 4.9062-0.10125 5.0412 3.6625 4.9062 7.325 5.1075 1.8825 0.1 3.0238 0.13375 2.9575 2.0825-0.0337 1.1775-0.41875 1.9162-3.6788 1.8162-2.6875-0.0675-3.18-0.74-3.18-2.1512h-3.4975c0 4.0325 2.5775 5.1075 6.7112 5.175 4.4025 0.0675 7.3412-0.97375 7.4088-5.0075 0.10125-5.2412-3.8312-4.9388-7.595-5.175m16.051 7.0912c-1.8488-0.035-2.0725-0.97-2.0725-2.2188v-8.05h7.4675v-3.2775h-7.4675v-5.3h-3.7975v5.3h-2.21v3.2775h2.21v8.05c0 3.6638 2.1838 5.31 5.9825 5.31 3.2588 0 5.3275-1.2425 5.3275-5.175h-3.4488c-0.0387 1.0462-0.2775 2.1162-1.9912 2.0838m30.909-13.845c-2.3188 0-3.7962 0.73875-4.7375 1.5788v-1.28h-3.2938v16.369h3.7975v-7.6288c0-2.8562-0.30375-5.6788 3.7975-5.6788 3.2925 0 2.99 1.5125 2.99 4.6712v8.6362h3.7988v-8.9388c0-3.5625 0.26875-7.7288-6.3525-7.7288m-20.759 6.8212c0-2.1838 0.335-3.6962 3.6625-3.6962 3.5288 0 3.7288 1.345 3.7288 3.6962h-7.3912zm3.6625-6.8212c-6.5875 0-7.5275 3.7625-7.5275 8.6688 0 4.7725 1.0425 8.2675 7.6275 8.2675 3.0912 0 7.1925-0.7725 7.1925-5.175h-3.675c-0.0325 1.8488-2.0062 2.05-3.3825 2.05-3.2612 0-3.9662-1.1088-3.9662-3.8988h11.225c0-5.7112-0.33625-9.9125-7.4938-9.9125m-45.239 13.576c-3.6638 0-3.9988-1.4112-3.9988-5.1088 0-3.6962 0.335-5.1075 3.9988-5.1075 3.6625 0 4 1.4112 4 5.1075 0 3.6975-0.3375 5.1088-4 5.1088m0-13.576c-2.655 0-4.6375 0.47-6.0488 1.8488-1.445 1.3762-1.7475 3.4938-1.7475 6.6188 0 3.1262 0.3025 5.2425 1.7475 6.62 1.4112 1.3788 3.3938 1.8488 6.0488 1.8488 2.6212 0 4.6375-0.47 6.05-1.8488 1.4438-1.3775 1.745-3.4938 1.745-6.62 0-3.125-0.30125-5.2425-1.745-6.6188-1.4125-1.3788-3.4288-1.8488-6.05-1.8488m-16.394 13.576c-3.26 0-4.1675-0.975-4.1675-5.0738 0-4.1012 0.9075-5.1425 4.1675-5.1425 2.8225 0 3.4275 1.31 3.4275 5.1425 0 3.83-0.605 5.0738-3.4275 5.0738m0.605-13.576c-1.7488-0.0338-3.73 0.36875-5.1088 1.5788v-1.28h-3.4275v21.672h3.7975v-6.4812c1.1088 1.1775 2.52 1.4462 4.3012 1.4462 6.3488 0 7.0538-4.47 7.0538-8.4338 0-5.21-0.7725-8.4362-6.6162-8.5025" fill="#f00"/>
<path d="m156.92 474.66c-0.37875 4.7888-4.3825 8.5575-9.2688 8.5575s-8.89-3.7688-9.2688-8.5575h-17.128c0.39125 9.9288 8.5588 17.859 18.584 17.859 10.024 0 18.192-7.93 18.584-17.859h-1.5025z" fill="#f00"/>
<path d="m138.38 473.17c0.37875-4.7888 4.3825-8.5575 9.2688-8.5575s8.89 3.7688 9.2688 8.5575h1.5025c-0.39125-9.9288-8.56-17.859-18.584-17.859-10.025 0-18.192 7.93-18.584 17.859h17.128z" fill="#bcbdbf"/>
</g>
</svg>
