<?xml version="1.0" encoding="UTF-8" standalone="no"?>
<svg
   xmlns:dc="http://purl.org/dc/elements/1.1/"
   xmlns:cc="http://creativecommons.org/ns#"
   xmlns:rdf="http://www.w3.org/1999/02/22-rdf-syntax-ns#"
   xmlns:svg="http://www.w3.org/2000/svg"
   xmlns="http://www.w3.org/2000/svg"
   viewBox="0 0 793.70135 854.85199"
   height="854.85199"
   width="793.70135"
   xml:space="preserve"
   id="svg2"
   version="1.1"><metadata
     id="metadata8"><rdf:RDF><cc:Work
         rdf:about=""><dc:format>image/svg+xml</dc:format><dc:type
           rdf:resource="http://purl.org/dc/dcmitype/StillImage" /></cc:Work></rdf:RDF></metadata><defs
     id="defs6"><clipPath
       id="clipPath18"
       clipPathUnits="userSpaceOnUse"><path
         id="path16"
         d="M 0,641.139 H 595.276 V 0 H 0 Z" /></clipPath><clipPath
       id="clipPath62"
       clipPathUnits="userSpaceOnUse"><path
         id="path60"
         d="M 0,641.139 H 595.276 V 0 H 0 Z" /></clipPath></defs><g
     transform="matrix(1.3333333,0,0,-1.3333333,0,854.852)"
     id="g10"><g
       id="g12"><g
         clip-path="url(#clipPath18)"
         id="g14"><g
           transform="translate(495.881,575.7886)"
           id="g20"><path
             id="path22"
             style="fill:#C8DC8C;fill-opacity:1;fill-rule:nonzero;stroke:none"
             d="m 0,0 c 0,-1.82 1.683,-459.727 1.683,-459.727 l -165.995,51.16 1.225,418.15 6.291,3.661 c 0,0 147.346,-9.279 151.908,-9.279 C -0.326,3.965 0,1.82 0,0" /></g><g
           transform="translate(388.8775,202.0636)"
           id="g24"><path
             id="path26"
             style="fill:#d6d6d6;fill-opacity:1;fill-rule:nonzero;stroke:none"
             d="m 0,0 54.629,-13.921 v 329.774 l -55.739,7.228 -1.791,-5.099 z" /></g><g
           transform="translate(333.5509,155.1715)"
           id="g28"><path
             id="path30"
             style="fill:#002F19;fill-opacity:1;fill-rule:nonzero;stroke:none"
             d="m 0,0 c 2.337,-0.726 4.674,-1.452 7.012,-2.179 6.224,-1.933 12.448,-3.868 18.673,-5.802 l 26.794,-8.327 c 10.46,-3.25 20.919,-6.5 31.379,-9.751 10.808,-3.358 21.998,-5.336 32.806,-8.694 9.976,-3.1 44.767,-15.411 52.732,-17.887 3.344,-1.038 7.355,-2.376 10.746,-3.346 1.33,-0.381 2.713,-0.789 3.734,-1.724 1.021,-0.935 1.348,-3.353 -1.47,-4.761 -12.614,-6.303 -75.106,-31.849 -91.611,-37.718 -2.714,-0.965 -7.176,-1.032 -10.015,-0.508 -8.087,1.49 -19.488,4.634 -20.596,4.96 -9.286,2.739 -100.697,29.7 -107.206,31.62 -1.668,0.491 -3.347,0.956 -5.005,1.475 -0.002,0.001 -47.831,14.984 -47.831,14.984 l 42.609,3.506 z" /></g><g
           transform="translate(475.3639,319.1417)"
           id="g32"><path
             id="path34"
             style="fill:#7BC144;fill-opacity:1;fill-rule:nonzero;stroke:none"
             d="m 0,0 c 0.11,-0.773 0.107,-2.477 -0.083,-3.243 -0.219,-0.887 -0.595,-1.725 -1.021,-2.531 -0.351,-0.663 -0.867,-1.194 -1.42,-1.704 -1.111,-1.021 -2.551,-1.659 -4.07,-1.659 -1.689,0 -3.263,0.788 -4.415,1.999 -0.619,0.652 -1.423,2.034 -1.658,2.9 -0.896,3.312 -0.391,5.199 0.458,7.454 0.316,0.841 0.937,1.598 1.531,2.263 0.619,0.691 1.435,1.2 2.318,1.482 1.07,0.342 2.245,0.292 3.31,-0.044 C -4.515,6.748 -3.982,6.534 -3.536,6.193 -1.878,4.931 -0.406,2.848 0,0" /></g><g
           transform="translate(474.1793,344.4781)"
           id="g36"><path
             id="path38"
             style="fill:#7BC144;fill-opacity:1;fill-rule:nonzero;stroke:none"
             d="m 0,0 c -0.812,2.184 -1.871,3.426 -4.125,4.016 -2.254,0.589 -4.632,0.268 -6.961,0.321 -5.076,0.116 -9.914,2.011 -14.806,3.369 -2.898,0.804 -6.133,1.394 -8.804,0.01 -2.676,-1.386 -4.059,-4.374 -5.109,-7.199 -0.755,-2.032 -1.299,-4.663 0.34,-6.081 1.431,-1.238 3.61,-0.722 5.416,-0.16 4.364,1.358 9.017,2.595 13.449,1.479 3.85,-0.97 8.108,-2.567 12.138,-3.786 2.42,-0.732 4.998,-1.018 7.481,1.465 C 0.5,-5.084 0.642,-1.728 0,0" /></g><g
           transform="translate(443.5064,517.9161)"
           id="g40"><path
             id="path42"
             style="fill:#767676;fill-opacity:1;fill-rule:nonzero;stroke:none"
             d="m 0,0 c 0,0 -37.737,3.893 -51.183,5.315 -5.982,0.633 -4.446,-4.822 -4.477,-8.985 -0.079,-10.597 1.031,-300.522 1.031,-312.183 -0.743,-0.703 -1.772,-0.598 -2.479,-0.299 -0.968,0.407 -1.555,1.201 -1.887,3.302 -0.546,3.448 -1.006,144.867 -1.075,198.935 -0.061,48.623 -1.098,98.061 -0.878,116.795 0.035,2.986 -0.031,6.405 7.661,5.862 C -38.623,7.708 -15.024,4.868 -9.818,4.23 0.66,2.947 0,0 0,0" /></g><g
           transform="translate(497.5641,116.0621)"
           id="g44"><path
             id="path46"
             style="fill:#00643A;fill-opacity:1;fill-rule:nonzero;stroke:none"
             d="m 0,0 c 7.113,-1.941 5.383,-8.998 5.383,-13.53 -3.402,0.845 -139.109,43.14 -139.109,43.14 l -20.418,17.935 z" /></g><g
           transform="translate(339.0851,155.1715)"
           id="g48"><path
             id="path50"
             style="fill:#7BC144;fill-opacity:1;fill-rule:nonzero;stroke:none"
             d="m 0,0 h -7.516 v 431.485 c 0,2.43 1.128,2.669 2.86,2.669 1.732,0 4.656,-0.293 4.656,-0.293 z" /></g><g
           transform="translate(436.7364,346.1246)"
           id="g52"><path
             id="path54"
             style="fill:#C8DC8C;fill-opacity:1;fill-rule:nonzero;stroke:none"
             d="M 0,0 C 1.648,1.92 4.984,3.902 7.489,4.261 10.643,4.714 13.741,3.406 16.815,2.567 19.522,1.828 22.326,1.444 25.132,1.426 28.981,1.403 32.355,2.387 36.614,0.08 35.763,1.432 34.72,2.297 33.561,2.522 28.392,3.526 22.932,3.155 18.001,5.004 14.73,6.23 11.721,8.421 8.233,8.633 5.19,8.817 2.167,7.379 0.112,5.129 -1.704,3.141 -4.094,-1.152 -3.494,-3.998 -3.384,-4.516 -3.263,-5.048 -2.981,-5.57 -2.604,-3.662 -1.119,-1.304 0,0" /></g></g></g><g
       id="g56"><g
         clip-path="url(#clipPath62)"
         id="g58"><g
           transform="translate(239.8907,91.5299)"
           id="g64"><path
             id="path66"
             style="fill:#767676;fill-opacity:1;fill-rule:nonzero;stroke:none"
             d="m 0,0 c 18.023,-1.474 34.668,-0.492 40.27,-0.124 1.123,0.074 5.062,1.272 5.531,4.651 0.309,2.226 0.469,5.128 -2.065,7.864 -2.784,3.005 -5.377,6.046 -8.713,7.611 -8.612,4.04 -21.096,3.277 -27.964,10.722 -16.913,-0.81 -56.15,12.944 -56.15,12.944 l 11.395,-13.473 z" /></g><g
           transform="translate(279.3731,271.69)"
           id="g68"><path
             id="path70"
             style="fill:#767676;fill-opacity:1;fill-rule:nonzero;stroke:none"
             d="m 0,0 c 0.265,-0.755 0.55,-1.503 0.848,-2.246 1.513,-3.773 3.325,-7.425 5.201,-11.028 2.377,-4.563 4.901,-9.05 7.487,-13.498 2.912,-5.011 5.91,-9.971 8.956,-14.902 3.157,-5.109 6.367,-10.185 9.612,-15.238 3.12,-4.856 6.273,-9.691 9.453,-14.507 2.806,-4.25 5.632,-8.487 8.478,-12.71 1.247,-1.851 2.474,-3.657 3.502,-5.641 1.05,-2.027 1.985,-4.114 2.798,-6.247 0.47,-1.23 -0.405,-1.645 -1.301,-2.277 -1.134,-0.801 -2.447,-1.453 -3.713,-2.017 -1.465,-0.651 -2.914,-1.337 -4.347,-2.057 -2.696,-1.355 -5.338,-2.822 -7.895,-4.425 -0.178,-0.112 -2.716,-1.949 -2.821,-1.87 0,0 -19.174,14.559 -30.54,29.257 -17.405,22.505 -36.008,48.333 -35.666,48.592 7.019,5.333 -0.057,32.459 6.963,37.791 3.99,3.032 7.365,14.62 12.123,16.1 C -9.283,23.568 -3.096,8.829 0,0" /></g><g
           transform="translate(268.5108,294.7672)"
           id="g72"><path
             id="path74"
             style="fill:#00643A;fill-opacity:1;fill-rule:nonzero;stroke:none"
             d="m 0,0 9.639,-2.146 c 0,0 20.09,-56.441 20.417,-57.219 -0.143,0.045 -0.756,0.543 -1.238,1.199 C 26.094,-54.459 18.675,-42.072 14.699,-33.4 9.624,-22.329 0,0 0,0" /></g><g
           transform="translate(123.8712,236.9595)"
           id="g76"><path
             id="path78"
             style="fill:#002F19;fill-opacity:1;fill-rule:nonzero;stroke:none"
             d="m 0,0 c 0,0 -6.02,0.659 -11.011,-1.335 -4.529,-1.811 -8.211,-5.805 -5.782,-14.458 2.829,-10.079 0.318,-24.889 6.462,-38.388 6.507,-14.295 22.86,-27.509 32.066,-41.309 17.293,-25.923 28.631,-49.439 37.61,-54.606 2.534,-1.458 30.39,-17.422 52.43,-12.951 2.1,0.426 4.495,0.541 5.464,2.6 1.49,3.172 2.362,6.167 2.731,9.907 0.485,4.922 -0.175,10.953 -2.172,17.501 -8.529,27.963 -33.706,68.011 -43.094,90.239 C 49.712,16.367 0,0 0,0" /></g><g
           transform="translate(203.1461,187.1417)"
           id="g80"><path
             id="path82"
             style="fill:#7BC144;fill-opacity:1;fill-rule:nonzero;stroke:none"
             d="m 0,0 c 15.381,0.118 40.064,14.325 41.634,16.554 1.53,2.172 2.491,12.892 8.636,24.73 5.24,10.096 13.26,25.539 14.083,27.804 6.535,18.004 6.971,35.018 -1.776,41.724 -0.307,2.844 -2.242,7.34 -3.609,9.811 -5.633,10.168 -16.067,14.036 -26.864,16.474 -10.505,4.986 -41.471,-8.597 -48.072,-14.262 -5.73,-4.916 -36.768,-26.023 -44.596,-35.437 -0.784,-0.942 -11.913,-13.317 -11.913,-13.317 0,0 -2.548,-2.172 0,-4.993 12.833,-14.2 55.75,-57.454 68.968,-67.147 0.388,-0.284 1.03,-0.749 1.155,-0.468 0.125,0.281 0.319,-0.553 0.5,-0.665 C -1.004,0.278 -0.375,-0.002 0,0" /></g><g
           transform="translate(235.8155,342.3238)"
           id="g84"><path
             id="path86"
             style="fill:#002F19;fill-opacity:1;fill-rule:nonzero;stroke:none"
             d="m 0,0 8.127,-0.463 6.487,-5.123 -0.052,-7.963 0.263,-10.348 -8.619,3.976 -11.427,2.103 -9.392,12.888 z" /></g><g
           transform="translate(252.6573,233.0318)"
           id="g88"><path
             id="path90"
             style="fill:#002F19;fill-opacity:1;fill-rule:nonzero;stroke:none"
             d="m 0,0 c 7.083,2.835 15.964,0.427 21.387,-4.939 4.623,-4.574 6.289,-11.333 6.999,-17.797 2.211,-20.136 -34.094,-88.042 -34.094,-88.042 l -20.013,-0.237 -35.826,6.665 9.413,59.614 c 0,0 -0.61,0.196 -0.435,0.408 0.645,0.785 3.173,2.836 6.074,5.509 C -34.034,-27.344 -5.699,-2.281 0,0" /></g><g
           transform="translate(123.9879,110.8834)"
           id="g92"><path
             id="path94"
             style="fill:#767676;fill-opacity:1;fill-rule:nonzero;stroke:none"
             d="m 0,0 c -1.46,2.138 -3.031,4.138 -4.702,6.148 -2.98,3.587 -6.973,8.281 -6.879,13.225 -0.824,7.848 8.249,24.09 7.732,24.511 -4.446,3.624 -10.244,5.778 -16.088,6.571 -5.938,0.805 -9.917,-1.539 -13.35,-6.369 -6.442,-9.065 -8.699,-20.548 -6.354,-30.949 0.546,-2.423 1.759,-4.382 2.546,-6.633 0.84,-2.401 0.603,-5.417 1.147,-7.939 1.177,-5.454 3.296,-10.692 6.249,-15.448 5.835,-9.395 22.016,-12.418 32.72,-10.134 2.28,0.487 4.56,1.211 6.464,2.534 3.269,2.269 3.811,5.605 4.119,9.129 0.309,3.526 -1.153,7.438 -4.319,9.3 C 5.954,-4.094 2.311,-3.383 0,0" /></g><g
           transform="translate(204.0894,60.3941)"
           id="g96"><path
             id="path98"
             style="fill:#002F19;fill-opacity:1;fill-rule:nonzero;stroke:none"
             d="m 0,0 c 34.915,-7.166 39.868,20.843 39.868,30.844 0,10.001 -32.978,7.322 -32.978,7.322 0,0 -25.567,18.182 -51.477,34.01 -24.14,14.746 -26.662,21.165 -38.189,25.82 -2.812,1.135 -12.756,-13 -14.459,-18.69 -1.912,-6.392 -1.689,-11.587 0.245,-20.086 0.455,-2 1.022,-4.028 2.213,-5.699 2.141,-3.001 39.981,-30.194 48.058,-34.843 C -31.689,10.027 -17.404,4.423 -1.937,0.454 -1.294,0.289 -0.65,0.133 0,0" /></g><g
           transform="translate(115.2325,190.2618)"
           id="g100"><path
             id="path102"
             style="fill:#00643A;fill-opacity:1;fill-rule:nonzero;stroke:none"
             d="m 0,0 c 3.2,-9.742 10.349,-21.267 17.798,-28.226 12.815,-11.972 28.025,-24.098 34.552,-34.021 0.586,-0.891 0.49,-1.429 -0.213,-0.816 -7.773,6.775 -29.433,15.26 -44.001,32.721 -8.004,9.594 -14.565,21.032 -17.385,32.461 -3.641,14.757 -2.126,29.418 -0.741,39.224 0.3,2.124 1.67,3.156 3.502,2.323 C -4.504,42.763 -5.898,17.955 0,0" /></g><g
           transform="translate(189.586,308.022)"
           id="g104"><path
             id="path106"
             style="fill:#767676;fill-opacity:1;fill-rule:nonzero;stroke:none"
             d="m 0,0 c -6.393,-5.297 -10.955,-16.211 -12.945,-22.702 -3.918,-12.777 -2.896,-22.222 -0.375,-32.139 1.473,-5.797 3.771,-11.355 6.541,-16.646 1.391,-2.656 2.902,-5.247 4.497,-7.785 1.303,-2.075 1.902,-4.143 2.975,-6.313 4.34,-8.782 9.194,-17.309 14.29,-25.671 9.731,-15.973 20.259,-31.765 32.432,-46 2.989,-3.496 6.106,-7.087 9.779,-9.89 2.64,-2.016 4.305,-0.943 4.966,-0.457 2.654,1.954 4.924,4.95 7.291,7.045 6.004,5.317 12.785,5.67 17.806,10.799 0.863,0.881 2.899,2.275 3.055,3.497 0.205,1.616 -6.477,8.081 -8.527,11.069 -10.551,15.376 -26.531,44.021 -27.938,47.914 -9.661,26.745 -17.552,47.366 -29.871,68.23 -2.87,4.86 -10.438,18.816 -17.737,16.58 C 1.3,-3.981 4.037,3.345 0,0" /></g><g
           transform="translate(250.4293,316.9449)"
           id="g108"><path
             id="path110"
             style="fill:#00643A;fill-opacity:1;fill-rule:nonzero;stroke:none"
             d="m 0,0 c 0,0 -0.118,0.059 -1.009,2.318 -1.388,3.52 -3.819,9.919 -4.189,10.812 -0.61,1.466 -1.329,1.815 -2.106,0.97 -2.495,-2.713 -7.468,-9.64 -6.129,-9.125 3.205,1.23 -8.433,8.704 -10.396,6.888 -0.809,-0.748 -1.796,-1.808 -1.436,-3.007 0.272,-0.9 1.345,-1.198 1.672,-1.991 -4.031,-1.974 -8.425,-3.132 -12.436,-5.324 -3.81,-2.083 -7.719,-0.182 -11.518,-2.246 -3.563,-1.936 -8.182,-5.971 -10.441,-9.368 -1.182,-1.779 -2.076,-3.733 -2.891,-5.707 -1.527,-3.698 -1.171,-10.529 -0.705,-14.503 0.166,-1.412 0.55,-2.789 0.935,-4.158 1.184,-4.221 2.399,-8.495 4.64,-12.262 1.614,-2.714 3.723,-5.097 5.875,-7.408 2.083,-2.237 4.278,-4.465 7.019,-5.815 3.948,-1.945 7.863,-1.039 12.047,-1.063 4.053,-0.024 8.138,-0.103 12.189,0.091 3.709,0.178 15.381,0.314 16.318,1.34 2.18,2.389 6.194,0.42 9.442,0.414 1.405,-0.698 10.188,-1.571 10.188,-1.571 0,0 2.589,6.431 3.279,8.487 1.045,3.111 2.205,6.183 3.478,9.208 0.459,1.089 0.936,2.186 1.319,3.305 0.195,0.573 0.387,0.418 0.539,0.063 0.178,-0.418 0.378,-0.861 0.378,-0.861 0,0 -0.503,5.302 -1.073,6.766 -1.276,3.276 -3.679,9.016 -5.885,11.864 -3.279,4.235 -6.14,8.816 -9,13.337 C 7.791,-4.891 2.222,-3.711 0,0" /></g><g
           transform="translate(229.171,263.9283)"
           id="g112"><path
             id="path114"
             style="fill:#d6d6d6;fill-opacity:1;fill-rule:nonzero;stroke:none"
             d="M 0,0 C -0.003,0.109 0.086,0.371 0.095,0.396 0.152,0.559 0.221,0.718 0.312,0.865 0.545,1.242 0.918,1.521 1.331,1.683 1.74,1.843 2.187,1.905 2.625,1.878 3.034,1.853 3.508,1.762 3.84,1.509 4.076,1.33 4.281,1.108 4.442,0.859 4.5,0.771 4.55,0.679 4.593,0.582 4.724,0.286 4.767,-0.07 4.781,-0.39 c 0,0 -0.233,-0.006 -0.256,-0.007 C 4.54,-0.396 4.401,0.071 4.384,0.112 4.278,0.358 4.085,0.555 3.834,0.653 3.535,0.77 3.157,0.827 2.864,0.692 2.416,0.486 2.244,0.011 2.219,-0.1 2.208,-0.147 2.2,-0.171 2.154,-0.177 2.109,-0.183 2.062,-0.178 2.017,-0.176 c -0.328,0.014 -0.656,0.029 -0.983,0.043 -0.297,0 -0.602,0.021 -0.896,0.05 C 0.079,-0.078 0.002,-0.078 0,0" /></g><g
           transform="translate(233.6715,263.2672)"
           id="g116"><path
             id="path118"
             style="fill:#fff5f0;fill-opacity:1;fill-rule:nonzero;stroke:none"
             d="m 0,0 c -0.163,-0.481 -0.41,-0.667 -0.559,-0.756 -0.217,-0.131 -0.532,-0.172 -0.78,-0.136 -0.604,0.087 -0.885,0.713 -0.945,1.012 -0.014,0.069 -0.07,0.057 -0.129,0.062 -0.069,0.005 -0.138,0.01 -0.208,0.011 -0.307,0.006 -0.614,0.015 -0.921,0.029 -0.155,0.007 -0.31,0.015 -0.464,0.025 -0.135,0.008 -0.277,0.032 -0.411,0.014 -0.096,-0.012 -0.068,-0.137 -0.065,-0.208 0.003,-0.105 0.013,-0.21 0.029,-0.313 0.033,-0.21 0.094,-0.416 0.185,-0.608 0.168,-0.355 0.446,-0.663 0.795,-0.842 0.758,-0.387 1.663,-0.562 2.467,-0.228 0.482,0.2 0.77,0.552 0.932,0.84 0.187,0.334 0.33,0.658 0.341,1.045 0.001,0.012 0.001,0.026 -0.006,0.037 C 0.25,0 0.229,0.003 0.209,0.005 0.161,0.01 0.112,0.012 0.063,0.011 0.047,0.011 0.03,0.011 0,0" /></g><g
           transform="translate(235.9679,262.022)"
           id="g120"><path
             id="path122"
             style="fill:#fff5f0;fill-opacity:1;fill-rule:nonzero;stroke:none"
             d="m 0,0 c -0.064,-0.103 -0.171,-0.164 -0.288,-0.156 -0.111,0.007 -0.283,0.081 -0.344,0.176 -0.106,0.166 -0.08,0.348 -0.064,0.535 0.005,0.061 0.011,0.122 0.03,0.18 0.037,0.109 0.121,0.201 0.226,0.247 0.105,0.047 0.229,0.047 0.334,0.001 C -0.012,0.942 0.052,0.87 0.078,0.772 0.098,0.694 0.099,0.612 0.096,0.531 0.09,0.408 0.061,0.098 0,0 M 0.524,0.824 C 0.515,0.881 0.502,0.937 0.486,0.989 0.381,1.336 0.085,1.503 -0.264,1.506 -0.451,1.507 -0.611,1.465 -0.77,1.323 -0.773,1.391 -0.767,1.487 -0.776,1.513 -0.906,1.523 -1.138,1.511 -1.226,1.394 -1.317,1.271 -1.287,1.06 -1.292,0.918 -1.301,0.698 -1.308,0.478 -1.314,0.258 -1.327,-0.183 -1.335,-0.623 -1.34,-1.063 c 0.19,0.01 0.345,0.005 0.537,0.01 0.01,0.231 0.019,0.462 0.028,0.692 -0.002,-0.04 0.17,-0.113 0.201,-0.126 0.074,-0.03 0.153,-0.047 0.233,-0.051 0.163,-0.01 0.335,0.02 0.48,0.098 0.155,0.084 0.266,0.235 0.325,0.401 0.056,0.154 0.06,0.319 0.077,0.478 0.012,0.122 0.006,0.257 -0.017,0.385" /></g><g
           transform="translate(237.9893,262.3091)"
           id="g124"><path
             id="path126"
             style="fill:#fff5f0;fill-opacity:1;fill-rule:nonzero;stroke:none"
             d="m 0,0 c -0.02,-0.131 -0.068,-0.258 -0.147,-0.362 -0.021,-0.028 -0.044,-0.055 -0.074,-0.074 -0.05,-0.033 -0.165,-0.075 -0.291,-0.063 -0.125,0.013 -0.254,0.105 -0.3,0.22 -0.025,0.064 -0.03,0.133 -0.032,0.201 -0.004,0.092 -0.003,0.183 0.002,0.276 0.005,0.111 0.018,0.228 0.088,0.315 0.1,0.125 0.282,0.145 0.442,0.131 C -0.159,0.631 -0.083,0.558 -0.035,0.415 0.009,0.285 0.021,0.14 0,0 m 0.021,-0.819 c 0.082,0.04 0.161,0.086 0.226,0.15 0.095,0.093 0.153,0.22 0.182,0.35 0.029,0.13 0.031,0.264 0.029,0.398 C 0.455,0.238 0.444,0.4 0.395,0.552 0.39,0.565 0.385,0.578 0.38,0.592 0.328,0.728 0.241,0.854 0.116,0.929 0.009,0.994 -0.114,1.029 -0.239,1.044 -0.33,1.055 -0.426,1.052 -0.518,1.055 -0.742,1.062 -0.885,1.026 -1.064,0.881 -1.139,0.821 -1.207,0.751 -1.252,0.667 -1.317,0.546 -1.329,0.404 -1.338,0.267 -1.35,0.095 -1.36,-0.079 -1.333,-0.249 c 0.022,-0.137 0.071,-0.274 0.166,-0.375 0.066,-0.07 0.117,-0.128 0.204,-0.166 0.292,-0.128 0.689,-0.173 0.984,-0.029" /></g><g
           transform="translate(239.7877,263.2847)"
           id="g128"><path
             id="path130"
             style="fill:#fff5f0;fill-opacity:1;fill-rule:nonzero;stroke:none"
             d="m 0,0 c -0.107,0.048 -0.226,0.065 -0.343,0.071 -0.125,0.006 -0.251,0 -0.371,-0.036 -0.185,-0.056 -0.347,-0.19 -0.437,-0.361 -0.032,-0.059 -0.049,-0.105 -0.054,-0.171 -0.004,-0.071 -0.005,-0.143 0.009,-0.213 0.027,-0.128 0.104,-0.244 0.211,-0.32 0.092,-0.067 0.206,-0.102 0.32,-0.107 0.115,-0.004 0.23,0.01 0.346,0.003 0.05,-0.004 0.101,-0.007 0.149,-0.023 0.047,-0.015 0.093,-0.045 0.117,-0.089 0.041,-0.077 0.007,-0.175 -0.048,-0.244 -0.057,-0.07 -0.31,-0.127 -0.51,-0.084 -0.076,0.016 -0.142,0.055 -0.174,0.134 -0.018,0.044 -0.024,0.094 -0.027,0.143 -0.125,0.007 -0.25,0.009 -0.375,0.009 -0.067,-10e-4 -0.071,-0.01 -0.073,-0.076 -0.002,-0.062 0.002,-0.124 0.016,-0.183 0.02,-0.082 0.061,-0.16 0.122,-0.217 0.109,-0.099 0.255,-0.155 0.396,-0.175 0.391,-0.057 0.896,-0.078 1.078,0.316 0.064,0.137 0.075,0.294 0.048,0.443 -0.012,0.065 -0.031,0.129 -0.067,0.184 -0.071,0.113 -0.2,0.178 -0.331,0.206 -0.13,0.029 -0.265,0.026 -0.398,0.036 -0.074,0.004 -0.145,0.023 -0.212,0.056 -0.077,0.037 -0.141,0.115 -0.136,0.2 0.005,0.083 0.089,0.145 0.161,0.173 0.062,0.024 0.128,0.031 0.194,0.03 0.045,-0.001 0.091,-0.006 0.134,-0.021 0.113,-0.04 0.194,-0.157 0.193,-0.276 0.087,-0.009 0.175,-0.013 0.263,-0.013 0.059,0 0.158,-0.021 0.168,0.059 0.007,0.061 -0.017,0.108 -0.033,0.164 -0.015,0.056 -0.037,0.105 -0.07,0.153 C 0.2,-0.132 0.107,-0.048 0,0" /></g><g
           transform="translate(241.0221,263.8619)"
           id="g132"><path
             id="path134"
             style="fill:#fff5f0;fill-opacity:1;fill-rule:nonzero;stroke:none"
             d="m 0,0 c 0.008,-0.217 -0.03,-0.396 -0.03,-0.618 0.268,-0.004 0.463,-0.005 0.707,-0.018 0.026,-0.001 0.054,-0.004 0.073,-0.021 0.017,-0.015 0.023,-0.038 0.028,-0.06 0.02,-0.091 0.021,-0.186 0.005,-0.278 -0.002,-0.013 -0.044,-0.04 -0.062,-0.04 -0.262,-0.004 -0.523,-0.003 -0.784,0.004 -0.041,-0.294 -0.036,-0.59 -0.029,-0.887 0.002,-0.075 0.035,-0.15 0.088,-0.202 0.054,-0.051 0.149,-0.067 0.201,-0.014 0.037,0.036 0.043,0.09 0.041,0.143 -0.001,0.013 0.013,0.036 0.038,0.036 0.11,-0.003 0.406,0.006 0.441,0.002 0.005,0 0.01,-10e-4 0.013,-0.005 C 0.735,-1.962 0.735,-1.97 0.734,-1.977 0.727,-2.051 0.72,-2.125 0.7,-2.196 0.68,-2.268 0.647,-2.337 0.595,-2.39 0.546,-2.439 0.482,-2.471 0.417,-2.496 0.278,-2.549 0.125,-2.57 -0.022,-2.548 c -0.148,0.023 -0.29,0.091 -0.394,0.199 -0.061,0.064 -0.159,0.227 -0.157,0.476 0.003,0.283 0.006,0.566 0.009,0.848 -0.062,0.01 -0.111,0.006 -0.179,0.012 -0.009,10e-4 -0.036,0.009 -0.033,0.041 0.002,0.016 0.018,0.206 0.022,0.317 0.001,0.023 0.023,0.04 0.034,0.041 0.046,0.006 0.101,-0.02 0.142,0.006 0.036,0.022 0.039,0.071 0.04,0.113 0,0.128 0.005,0.385 0.06,0.475 C -0.438,0.046 0,0.014 0,0" /></g><g
           transform="translate(242.6715,262.8541)"
           id="g136"><path
             id="path138"
             style="fill:#fff5f0;fill-opacity:1;fill-rule:nonzero;stroke:none"
             d="m 0,0 c 0.055,-0.001 0.11,-0.004 0.163,-0.018 0.111,-0.03 0.216,-0.092 0.28,-0.187 0.033,-0.049 0.054,-0.105 0.071,-0.161 0.006,-0.019 0,-0.055 -0.047,-0.055 -0.053,0.001 -0.105,0 -0.157,0.001 -0.111,0 -0.222,0.001 -0.332,0.008 -0.128,0.008 -0.257,0.013 -0.382,0.045 -0.003,0.049 0.016,0.096 0.034,0.14 0.015,0.035 0.091,0.114 0.105,0.124 0.015,0.013 0.032,0.024 0.05,0.035 C -0.152,-0.03 -0.075,0.001 0,0 m -0.353,-0.752 c 0.018,0.015 0.044,0.015 0.067,0.014 0.205,-0.007 0.411,-0.027 0.617,-0.031 0.161,-0.002 0.325,-0.014 0.484,-0.012 0.067,0.001 0.083,0.061 0.086,0.093 C 0.916,-0.53 0.924,-0.37 0.896,-0.213 0.863,-0.025 0.771,0.161 0.612,0.265 0.529,0.319 0.432,0.349 0.336,0.375 0.181,0.416 0.023,0.424 -0.135,0.401 -0.438,0.357 -0.712,0.14 -0.788,-0.157 c -0.075,-0.289 -0.073,-0.609 0.014,-0.902 0.044,-0.149 0.107,-0.3 0.224,-0.402 0.078,-0.068 0.175,-0.11 0.274,-0.14 0.254,-0.075 0.531,-0.068 0.781,0.019 0.087,0.03 0.159,0.094 0.222,0.161 C 0.851,-1.288 0.86,-1.157 0.87,-1 0.802,-0.992 0.603,-0.985 0.569,-0.983 0.545,-0.982 0.499,-0.974 0.49,-1.006 0.467,-1.087 0.419,-1.147 0.347,-1.189 0.272,-1.233 0.185,-1.255 0.099,-1.264 c -0.082,-0.008 -0.167,-0.005 -0.246,0.017 -0.091,0.024 -0.172,0.09 -0.208,0.178 -0.032,0.079 -0.026,0.167 -0.02,0.252 0.002,0.023 0.005,0.049 0.022,0.065" /></g><g
           transform="translate(243.7091,261.2706)"
           id="g140"><path
             id="path142"
             style="fill:#fff5f0;fill-opacity:1;fill-rule:nonzero;stroke:none"
             d="m 0,0 c 0.153,-0.011 0.307,-0.013 0.461,-0.006 0.014,0.001 0.041,0.03 0.042,0.045 l 0.01,0.618 C 0.516,0.787 0.518,0.917 0.539,1.045 0.567,1.216 0.647,1.4 0.81,1.46 0.864,1.479 0.923,1.483 0.98,1.482 1.041,1.481 1.105,1.474 1.152,1.436 1.224,1.379 1.232,1.274 1.233,1.183 1.241,0.791 1.238,0.398 1.227,0.006 c 0,-0.012 0.023,-0.04 0.035,-0.042 0.135,-0.015 0.272,-0.01 0.405,0.014 0.017,0.003 0.051,0.037 0.051,0.051 C 1.735,0.321 1.752,0.614 1.769,0.906 1.776,1.029 1.783,1.153 1.767,1.275 1.753,1.378 1.724,1.479 1.679,1.572 1.647,1.639 1.607,1.703 1.551,1.751 1.469,1.824 1.359,1.857 1.251,1.878 1.094,1.908 0.932,1.914 0.772,1.896 0.634,1.88 0.476,1.827 0.436,1.694 0.435,1.756 0.434,1.819 0.433,1.882 0.433,1.898 0.412,1.928 0.381,1.929 0.304,1.929 0.164,1.934 0.147,1.927 0.072,1.898 0.085,1.888 0.076,1.804 0.055,1.605 0.065,1.398 0.057,1.198 0.04,0.812 0.014,0.427 -0.02,0.042 -0.021,0.029 -0.008,0 0,0" /></g><g
           transform="translate(187.025,304.9571)"
           id="g144"><path
             id="path146"
             style="fill:#00643A;fill-opacity:1;fill-rule:nonzero;stroke:none"
             d="m 0,0 c -2.201,-3.268 -3.813,-7.95 -4.429,-13.495 -0.793,-7.13 -0.131,-15.345 1.037,-20.194 1.799,-7.463 6.339,-14.055 12.072,-19.16 5.734,-5.106 12.466,-8.936 19.141,-12.727 6.887,-3.911 13.614,-8.194 20.529,-11.969 1.647,-0.899 3.319,-1.756 5.022,-2.545 0.201,-0.093 1.781,-0.597 1.838,-0.814 0,0 -10.223,39.059 -19.784,57.668 -2.828,5.505 -6.153,10.995 -10.624,15.335 -1.851,1.797 -5.658,5.904 -7.565,7.601 C 14.773,1.891 14.486,9.878 14.486,9.878 14.486,9.878 6.888,10.225 0,0" /></g><g
           transform="translate(252.127,178.1246)"
           id="g148"><path
             id="path150"
             style="fill:#d6d6d6;fill-opacity:1;fill-rule:nonzero;stroke:none"
             d="m 0,0 c -1.817,-1.227 -3.474,-3.002 -4.516,-4.931 -1.041,-1.928 -0.852,-4.691 0.966,-5.917 1.153,-0.776 2.645,-0.777 4.032,-0.692 6.937,0.425 18.477,6.659 18.477,6.659 0,0 -4.9,7.514 -7.037,10.904 C 6.905,4.188 2.97,2.004 0,0" /></g><g
           transform="translate(250.4405,261.1895)"
           id="g152"><path
             id="path154"
             style="fill:#7BC144;fill-opacity:1;fill-rule:nonzero;stroke:none"
             d="m 0,0 c -0.399,-0.613 -0.798,-1.226 -1.197,-1.839 -0.811,-1.244 -1.365,-2.189 -2.704,-2.416 -1.01,-0.172 -1.88,-2.077 -2.597,-2.809 2.452,0.096 4.902,0.191 7.353,0.287 0.905,0.035 1.814,0.071 2.705,0.236 1.051,0.194 2.095,0.568 3.16,0.471 0.33,-0.03 0.664,-0.106 0.99,-0.045 0.327,0.061 0.651,0.312 0.655,0.644 0.003,0.25 -0.605,1.795 -0.845,1.863 -1.248,0.348 -1.622,0.702 -1.561,1.47 0.028,0.354 0.421,1.706 0.608,2.233 2.533,7.142 6.984,13.394 10.337,20.135 0.106,0.215 0.215,0.467 0.115,0.685 -0.087,0.189 -0.298,0.28 -0.493,0.353 -1.001,0.374 -1.595,0.579 -2.636,0.821 C 12.966,20.312 4.955,7.274 2.888,4.357 2.264,3.476 1.674,2.571 1.084,1.666 0.723,1.11 0.361,0.555 0,0" /></g><g
           transform="translate(207.6563,317.5123)"
           id="g156"><path
             id="path158"
             style="fill:#C8DC8C;fill-opacity:1;fill-rule:nonzero;stroke:none"
             d="M 0,0 C 17.413,7.431 34.607,5.079 20.696,6.372 3.519,7.969 -16.82,1.8 -55.888,-31.501 c -6.229,-5.311 -13.502,-12.021 -25.554,-23.23 -2.467,-6.024 0.173,-8.442 5.657,-3.022 4.549,4.496 11.381,9.579 25.366,21.755 9.823,8.554 20.152,18.105 29.943,24.88 C -10.005,-3.873 -3.737,-1.595 0,0" /></g><g
           transform="translate(179.8927,231.8775)"
           id="g160"><path
             id="path162"
             style="fill:#767676;fill-opacity:1;fill-rule:nonzero;stroke:none"
             d="m 0,0 c 0,0 24.462,-39.333 23.112,-40.768 -0.775,-0.823 -2.152,-2.359 -2.462,-2.623 -26.142,12.547 -83.208,28.452 -91.09,31.564 -6.824,2.694 -7.564,4.324 -7.379,7.651 0.167,2.991 1.948,6.342 3.529,9.358 2.947,5.623 8.446,8.597 10.464,14.996 3.219,3.759 6.926,7.805 10.148,10.726 C -50.916,29.958 0,0 0,0" /></g><g
           transform="translate(138.9552,229.5992)"
           id="g164"><path
             id="path166"
             style="fill:#d6d6d6;fill-opacity:1;fill-rule:nonzero;stroke:none"
             d="m 0,0 c -0.908,-2.372 -3.158,-3.281 -7.246,-2.372 -10.518,2.337 -16.807,5.4 -26.107,9.832 0.22,0.459 1.953,3.687 4.304,7.076 2.625,3.784 5.896,7.751 6.161,7.921 C -22.2,21.962 -11.944,13.529 -4.167,7.874 -0.281,5.047 0.909,2.372 0,0" /></g><g
           transform="translate(212.4508,312.503)"
           id="g168"><path
             id="path170"
             style="fill:#767676;fill-opacity:1;fill-rule:nonzero;stroke:none"
             d="M 0,0 C -3.776,1.644 -7.862,3.551 -17.577,3.909 -20.437,16.414 -1.06,25.3 8.949,30.595 22.513,37.772 41.566,30.307 39.03,23.474 38.789,22.823 33.389,27.027 28.199,28.478 24.564,29.493 21.271,28.812 19.877,26.646 15.789,20.292 22.683,16.051 25.104,12.549 28.521,7.607 32.015,2.3 34.031,-3.358 37.462,-12.987 36.534,-20.741 36.534,-20.741 36.534,-20.741 5.283,-2.3 0,0" /></g><g
           transform="translate(265.4239,297.1866)"
           id="g172"><path
             id="path174"
             style="fill:#7BC144;fill-opacity:1;fill-rule:nonzero;stroke:none"
             d="m 0,0 c 3.291,-2.877 6.894,-5.352 10.881,-7.134 0.75,-0.335 1.572,-0.651 2.374,-0.475 0.749,0.165 1.369,0.616 2.135,0.736 0.858,0.135 1.729,0.251 2.586,0.433 1.626,0.344 3.218,0.828 4.768,1.426 2.413,0.932 4.666,2.22 7.072,3.16 2.935,1.148 5.608,0.896 8.167,-1.013 0,0 -1.123,18.039 8.882,18.056 C 56.87,15.207 25.633,63.825 25.633,63.825 L 0.228,58.294 c 0,0 -16.346,-21.754 -15.721,-25.151 0.687,-3.738 -1.149,-7.32 -0.511,-11.066 2.722,-8.29 6.267,-19.668 7.56,-23.559 C -7.544,-1.94 -2.692,2.354 0,0" /></g><g
           transform="translate(288.1432,322.7525)"
           id="g176"><path
             id="path178"
             style="fill:#002F19;fill-opacity:1;fill-rule:nonzero;stroke:none"
             d="m 0,0 c 1.529,0.962 3.022,1.981 4.497,3.026 2.29,1.625 4.535,3.314 6.738,5.055 0.25,0.197 0.5,0.395 0.747,0.595 0.423,0.342 -13.752,22.192 -14.703,23.727 -1.427,2.304 -3.234,7.122 -5.445,8.666 -2.206,1.541 -5.501,-0.047 -7.835,-0.883 -6.616,-2.373 -11.568,-8.154 -15.704,-13.884 -4.185,-5.797 -7.35,-11.601 -6.507,-18.725 0.424,-3.587 -1.647,-7.724 -0.511,-11.066 l 0.015,-0.044 c 0.916,0.04 13.769,6.24 15.212,9.613 0.391,0.912 2.229,3.505 2.672,4.393 0.905,1.814 2.333,3.303 3.902,4.562 2.382,1.911 10.257,-0.829 10.257,-2.172 0,-2.752 -2.115,-5.635 -2.693,-7 -0.611,-1.441 -0.826,-3.039 -0.675,-4.597 0.206,-2.135 1.339,-3.988 3.667,-3.83 C -4.187,-2.417 -1.807,-1.137 0,0" /></g><g
           transform="translate(276.9986,334.2852)"
           id="g180"><path
             id="path182"
             style="fill:#C8DC8C;fill-opacity:1;fill-rule:nonzero;stroke:none"
             d="M 0,0 C 1.218,-0.21 2.538,-0.572 3.64,-0.024 3.971,0.14 4.269,0.394 4.401,0.727 4.598,1.22 4.396,1.775 4.119,2.229 3.424,3.367 2.266,4.194 1.008,4.73 -1.858,5.951 -5.134,5.541 -7.387,3.351 -8.225,2.537 -8.846,1.544 -9.414,0.54 c -1.324,-2.34 -4.255,-7.65 -4.255,-7.65 0,0 1.844,1.477 2.255,1.885 l 1.669,1.654 c 0.906,0.898 1.788,1.599 2.863,2.293 C -4.876,0.015 -2.353,0.406 0,0" /></g><g
           transform="translate(263.4244,300.2247)"
           id="g184"><path
             id="path186"
             style="fill:#C8DC8C;fill-opacity:1;fill-rule:nonzero;stroke:none"
             d="m 0,0 c 2.358,0.996 3.714,0.507 4.8,-0.546 3.771,-3.657 9.368,-5.33 14.528,-4.343 2.953,0.566 5.69,1.927 8.576,2.768 2.887,0.841 6.166,1.11 8.759,-0.413 -0.064,4.51 0.988,9.128 3.576,12.822 2.589,3.694 6.831,6.347 11.341,6.431 0.653,0.012 1.341,-0.039 1.889,-0.394 1.094,-0.711 1.153,-2.386 0.49,-3.511 C 53.296,11.69 52.132,10.975 51.035,10.266 47.654,8.082 44.364,5.372 42.881,1.63 42.102,-0.335 42.074,-2.487 41.348,-4.451 41.056,-5.241 40.556,-5.983 39.825,-6.404 39.143,-6.798 38.328,-6.877 37.541,-6.906 36.279,-6.951 35.029,-6.821 33.773,-6.829 32.494,-6.836 31.231,-7.15 30.021,-7.54 28.773,-7.941 27.552,-8.418 26.339,-8.912 24.183,-9.79 21.895,-10.741 19.086,-11.124 12.286,-12.051 5.7,-7.677 3.71,-5.96 c -1.487,1.282 -4.484,-0.454 -6.506,-1.811 -0.366,-0.246 -1.363,-0.39 -1.787,0.102 -0.711,0.825 -1.444,2.061 -1.862,3.148 C -6.409,-4.408 -1.567,-0.662 0,0" /></g><g
           transform="translate(262.7091,357.98)"
           id="g188"><path
             id="path190"
             style="fill:#767676;fill-opacity:1;fill-rule:nonzero;stroke:none"
             d="m 0,0 c 0.223,0.48 6.137,6.721 12.73,11.748 4.568,3.482 8.579,5.149 14.813,5.104 12.614,-0.091 27.05,-14.872 29.721,-17.828 3.162,-3.499 1.739,-28.475 1.794,-30.504 2.322,-2.444 17.327,-23.52 10.619,-25.895 -5.003,-1.773 -11.966,-1.399 -17.219,1.25 -14.11,7.119 -19.075,26.449 -19.075,26.449 0,0 -32.474,23.658 -33.383,29.676" /></g><g
           transform="translate(296.0924,328.3038)"
           id="g192"><path
             id="path194"
             style="fill:#7BC144;fill-opacity:1;fill-rule:nonzero;stroke:none"
             d="m 0,0 c 11.633,-4.988 21.125,-3.779 25.675,-1.804 2.366,6.934 6.094,16.025 0.746,26.689 -2.065,4.117 -6.527,8.831 -12.358,9.583 C 7.715,35.288 3.846,31.317 2.683,26.239 0.332,15.97 1.414,5.247 0,0" /></g><g
           transform="translate(296.0924,328.3038)"
           id="g196"><path
             id="path198"
             style="fill:#d6d6d6;fill-opacity:1;fill-rule:nonzero;stroke:none"
             d="M 0,0 C 0,0 10.079,-27.843 35.041,-28.084 35.041,-28.084 8.5,-37.577 0,0" /></g><g
           transform="translate(262.7091,357.98)"
           id="g200"><path
             id="path202"
             style="fill:#7BC144;fill-opacity:1;fill-rule:nonzero;stroke:none"
             d="m 0,0 2.314,-3.749 c 0,0 -11.392,-14.063 -13.057,-21.347 -0.519,-2.267 -1.325,-3.786 -1.909,-3.636 -1.292,0.33 -1.91,6.376 1.145,13.243 0.986,2.215 2.101,4.21 3.24,5.974 C -4.278,-3.338 0,0 0,0" /></g><g
           transform="translate(186.7135,229.6988)"
           id="g204"><path
             id="path206"
             style="fill:#7BC144;fill-opacity:1;fill-rule:nonzero;stroke:none"
             d="m 0,0 c 0,0 8.831,-17.31 19.449,-35.486 -1.113,-1.127 -1.82,-1.813 -3.157,-3.103 -1.291,1.977 -1.916,3.089 -3.259,5.52 -2.297,4.156 -15.313,27.175 -18.918,33.592 -1.128,2.008 -3.346,3.073 -3.346,3.073 z" /></g><g
           transform="translate(238.9044,236.9688)"
           id="g208"><path
             id="path210"
             style="fill:#767676;fill-opacity:1;fill-rule:nonzero;stroke:none"
             d="m 0,0 c 0.969,-3.756 2.168,-9.235 3.331,-12.916 0.147,-0.466 1.096,-3.865 0.856,-3.87 -0.401,-0.005 -0.663,0.407 -0.838,0.768 -0.839,1.722 -2.205,2.075 -2.885,3.86 -3.401,8.922 -5.951,17.564 -8.953,27.646 -1.099,3.692 -2.937,8.157 -2.602,11.994 0.059,0.677 0.208,1.385 0.668,1.884 2.83,3.066 4.008,-4.491 4.32,-5.701 0.618,-2.394 1.235,-4.788 1.852,-7.181 z" /></g><g
           transform="translate(279.3111,163.2066)"
           id="g212"><path
             id="path214"
             style="fill:#00643A;fill-opacity:1;fill-rule:nonzero;stroke:none"
             d="m 0,0 c -0.619,-0.183 -2.123,-5.085 -3.23,-7.181 -2.61,-4.939 -5.22,-9.879 -7.83,-14.818 -1.312,-2.483 -2.624,-4.967 -3.936,-7.45 -1.274,-2.412 -2.819,-4.697 -3.055,-7.474 -0.058,-0.686 -0.041,-1.381 0.123,-2.053 0.491,-2.009 2.151,-2.704 3.747,-3.732 1.51,-0.972 3.02,-1.944 4.53,-2.916 3.844,-2.476 7.688,-4.95 11.532,-7.425 4.411,-2.84 8.821,-5.68 13.231,-8.519 4.338,-2.792 8.675,-5.584 13.012,-8.377 3.624,-2.333 7.248,-4.667 10.872,-7 2.272,-1.463 4.543,-2.925 6.815,-4.388 0.449,-0.289 0.897,-0.578 1.346,-0.866 l 6.057,4.009 9.582,39.74 z" /></g><g
           transform="translate(415.3888,122.2535)"
           id="g216"><path
             id="path218"
             style="fill:#7BC144;fill-opacity:1;fill-rule:nonzero;stroke:none"
             d="m 0,0 c 0,0 -12.358,-42.742 -12.814,-44.522 -0.457,-1.781 -1.487,-2.062 -2.58,-2.015 -1.092,0.046 -73.448,3.408 -73.448,3.408 l 15.236,44.853 z" /></g><g
           transform="translate(290.7389,111.0211)"
           id="g220"><path
             id="path222"
             style="fill:#7BC144;fill-opacity:1;fill-rule:nonzero;stroke:none"
             d="m 0,0 c 0,0 33.886,-24.227 35.255,-25.031 1.369,-0.805 2.905,-1.03 3.588,1.039 0.683,2.067 -0.923,-8.551 -3.219,-7.873 -1.686,0.497 -6.813,3.851 -6.813,3.851 L -3.983,-5.876 Z" /></g><g
           transform="translate(290.9542,148.1988)"
           id="g224"><path
             id="path226"
             style="fill:#7BC144;fill-opacity:1;fill-rule:nonzero;stroke:none"
             d="m 0,0 c -1.358,1.849 -2.748,3.674 -4.169,5.475 -2.976,3.772 -6.058,8.24 -11.624,6.383 -1.394,-0.464 -2.582,-1.386 -3.74,-2.291 -3.429,-2.679 -6.858,-5.358 -10.287,-8.038 -0.82,-0.639 -1.669,-1.317 -2.097,-2.263 -0.386,-0.853 -0.385,-1.823 -0.376,-2.758 0,-2.771 0.049,-5.542 0.074,-8.312 0.024,-2.733 -0.157,-5.465 0.179,-8.191 0.351,-2.838 1.267,-5.226 2.973,-7.504 1.907,-2.548 3.815,-5.095 5.722,-7.643 1.734,-2.315 3.947,-4.871 6.836,-4.737 0.513,0.024 1.029,0.136 1.535,0.053 0.895,-0.148 1.572,-0.864 2.18,-1.538 1.63,-1.807 3.326,-3.639 5.497,-4.74 2.17,-1.1 4.947,-1.334 6.956,0.04 0.475,0.325 0.908,0.737 1.454,0.922 0.571,0.195 1.2,0.12 1.783,0.273 1.19,0.314 1.954,1.548 2.102,2.769 0.148,1.223 -0.081,2.483 -0.527,3.63 -0.733,1.884 -3.752,5.791 -6.446,12.288 -2.118,5.111 -3.735,11.483 -4.183,13.679 -0.756,3.705 1.971,2.651 3.743,1.14 2.034,-1.735 3.978,-2.363 6.697,-2.637 2.985,-0.303 4.284,1.413 2.61,4.004 C 4.696,-6.596 2.397,-3.262 0,0" /></g><g
           transform="translate(265.983,126.1988)"
           id="g228"><path
             id="path230"
             style="fill:#00643A;fill-opacity:1;fill-rule:nonzero;stroke:none"
             d="m 0,0 c -0.49,-0.039 -0.588,-0.722 -0.484,-1.202 0.28,-1.29 0.973,-2.446 1.662,-3.572 4.106,-6.713 8.68,-14.75 15.467,-18.733 -1.612,2.738 -4.216,5.951 -6.326,8.327 -1.222,1.376 -2.285,2.895 -3.16,4.514 C 6.026,-8.569 5.188,-6.314 3.834,-4.342 3.086,-3.25 1.623,0.13 0,0" /></g><g
           transform="translate(274.4029,130.0465)"
           id="g232"><path
             id="path234"
             style="fill:#00643A;fill-opacity:1;fill-rule:nonzero;stroke:none"
             d="m 0,0 c -0.34,0.633 -0.697,1.794 -1.395,1.582 -0.698,-0.211 0.006,-2.519 0.472,-3.703 2.074,-5.283 4.956,-10.204 7.825,-15.101 1.864,-3.181 3.789,-6.433 6.647,-8.761 0.794,-0.647 1.913,-1.229 2.787,-0.696 -0.559,1.384 -1.472,2.591 -2.374,3.781 -2.598,3.422 -5.249,6.692 -7.285,10.48 C 4.455,-8.285 2.099,-4.197 0,0" /></g><g
           transform="translate(279.3111,163.2066)"
           id="g236"><path
             id="path238"
             style="fill:#C8DC8C;fill-opacity:1;fill-rule:nonzero;stroke:none"
             d="m 0,0 c 0.448,0.191 56.478,4.503 56.478,4.503 l 79.6,-45.456 c 0,0 -67.316,-0.592 -69.893,-0.592 -1.244,0 -3.102,0.2 -4.319,0.516 C 59.185,-40.335 -0.419,-0.18 0,0" /></g><g
           transform="translate(348.9806,160.0992)"
           id="g240"><path
             id="path242"
             style="fill:#7BC144;fill-opacity:1;fill-rule:nonzero;stroke:none"
             d="M 0,0 C 0.663,-0.341 3.458,-1.475 4.733,-2.098 5.699,-2.568 6.73,-2.965 7.659,-3.506 8.043,-3.73 9.188,-4.149 9.409,-4.544 8.195,-2.375 6.876,-0.258 5.532,1.832 4.313,3.728 3.22,5.059 1.495,6.468 c -2.203,1.799 -15.129,7.511 -15.129,7.511 0,0 -11.47,-5.035 -16.802,-7.704 1.756,0.091 11.376,0.897 13.777,-0.605 1.055,-0.659 1.79,-1.715 2.454,-2.766 1.893,-2.996 3.317,-6.935 6.311,-8.832 1.483,-0.939 3.941,-1.509 5.139,-1.058 1.271,0.476 1.927,1.251 1.589,2.424 -0.199,0.69 -1.192,1.37 -1.967,2.383 -0.437,0.572 -0.944,1.4 -1.321,2.013 -0.497,0.811 -0.762,1.762 -0.755,2.712 10e-4,0.151 0.11,0.432 0.11,0.432 0,0 4.603,-2.723 5.099,-2.978" /></g><g
           transform="translate(404.0709,128.608)"
           id="g244"><path
             id="path246"
             style="fill:#7BC144;fill-opacity:1;fill-rule:nonzero;stroke:none"
             d="m 0,0 c 4.711,-3.159 9.938,-6.12 7.641,-6.387 1.049,-0.564 3.677,0.033 3.677,0.033 0,0 0.695,2.459 0.191,3.112 -0.503,0.652 -1.271,1.032 -1.974,1.462 -2.207,1.348 -34.847,19.49 -39.469,22.048 -6.872,3.804 -15.264,7.636 -23.973,11.616 -4.116,1.881 -1.183,-0.393 -1.183,-0.393 0,0 52.964,-30.065 55.09,-31.491" /></g><g
           transform="translate(357.1578,146.1881)"
           id="g248"><path
             id="path250"
             style="fill:#f2f2f2;fill-opacity:1;fill-rule:nonzero;stroke:none"
             d="m 0,0 22.26,-12.922 c 0,0 2.384,-1.598 0.305,-1.607 -7.882,-0.036 -27.769,-0.126 -28.299,-0.126 -0.669,0 -2.068,0.295 -2.974,0.804 -4.727,2.659 -17.06,11.361 -18.016,11.975 -1.139,0.733 -0.81,0.972 0.621,0.972 C -24.672,-0.904 0,0 0,0" /></g><g
           transform="translate(342.8346,141.8385)"
           id="g252"><path
             id="path254"
             style="fill:#d6d6d6;fill-opacity:1;fill-rule:nonzero;stroke:none"
             d="m 0,0 c 0.437,0.238 1.246,0.156 1.929,-0.041 0.553,-0.159 1.552,-0.387 2.127,-0.378 1.012,0.015 1.881,0.953 2.868,1.175 1.801,0.404 3.553,-0.965 5.398,-0.952 1.369,0.009 2.754,0.776 4.049,0.333 0.437,-0.15 0.873,-0.546 0.779,-0.998 C 17.046,-1.362 16.417,-1.517 15.908,-1.568 14.88,-1.674 13.852,-1.779 12.823,-1.885 12.156,-1.953 11.484,-2.021 10.816,-1.957 9.622,-1.842 8.483,-1.306 7.284,-1.309 6.307,-1.312 5.371,-1.673 4.459,-2.025 3.549,-2.379 2.609,-2.733 1.632,-2.723 c -0.736,0.007 -1.914,0.324 -2.265,1.07 -0.333,0.71 0,1.307 0.633,1.653" /></g><g
           transform="translate(350.4679,137.5836)"
           id="g256"><path
             id="path258"
             style="fill:#d6d6d6;fill-opacity:1;fill-rule:nonzero;stroke:none"
             d="m 0,0 c -0.237,-0.049 -0.491,-0.112 -0.645,-0.298 -0.242,-0.294 -0.114,-0.748 0.122,-1.047 0.476,-0.601 1.292,-0.843 2.059,-0.833 0.768,0.01 1.513,0.235 2.262,0.405 1.464,0.331 2.974,0.457 4.473,0.373 2.528,-0.143 5.022,-0.88 7.549,-0.722 0.233,0.015 0.484,0.045 0.656,0.202 0.244,0.224 0.228,0.637 0.043,0.912 -0.185,0.275 -0.494,0.439 -0.8,0.566 -0.81,0.335 -1.696,0.483 -2.57,0.431 -0.523,-0.03 -1.041,-0.132 -1.564,-0.151 C 10.744,-0.191 9.913,-0.009 9.082,0.12 8.004,0.287 6.914,0.365 5.823,0.353 3.797,0.329 2.008,0.418 0,0" /></g><g
           transform="translate(345.1241,145.7535)"
           id="g260"><path
             id="path262"
             style="fill:#d6d6d6;fill-opacity:1;fill-rule:nonzero;stroke:none"
             d="m 0,0 c 4.018,0.57 12.269,0.981 12.752,0.927 0.519,-0.06 0.984,-0.338 1.432,-0.609 6.702,-4.06 21.111,-12.617 21.771,-13.77 0.286,-0.499 0.041,-0.566 -0.296,-0.617 -0.441,-0.069 -1.06,-0.026 -1.06,-0.026 0,0 -16.609,10.45 -19.627,12.334 -1.396,0.872 -2.472,1.134 -3.076,1.304 C 9.986,0.078 0.986,-0.111 0,0" /></g><g
           transform="translate(260.0196,133.4801)"
           id="g264"><path
             id="path266"
             style="fill:#C8DC8C;fill-opacity:1;fill-rule:nonzero;stroke:none"
             d="m 0,0 c 0.419,-4.502 0.893,-9.176 3.216,-13.055 1.411,-2.357 3.408,-4.445 4.163,-7.088 -4.032,1.747 -7.578,5.737 -8.94,10.27 -1.362,4.533 -1.307,9.349 -1.596,14.073 -0.124,2.027 -0.335,4.083 0.067,6.073 0.651,3.222 2.88,4.825 2.88,4.825 0,0 -0.098,-2.805 -0.174,-3.686 C -0.709,7.609 -0.353,3.787 0,0" /></g><g
           transform="translate(299.5826,331.6568)"
           id="g268"><path
             id="path270"
             style="fill:#d6d6d6;fill-opacity:1;fill-rule:nonzero;stroke:none"
             d="M 0,0 C 0.006,0.103 0.111,0.341 0.121,0.363 0.188,0.512 0.266,0.655 0.364,0.786 0.613,1.12 0.986,1.352 1.386,1.47 1.783,1.586 2.207,1.608 2.616,1.547 2.998,1.49 3.435,1.365 3.726,1.101 3.932,0.913 4.106,0.689 4.237,0.442 4.284,0.355 4.324,0.264 4.356,0.17 c 0.098,-0.288 0.109,-0.626 0.096,-0.927 0,0 -0.218,0.013 -0.241,0.014 0.015,-0.001 -0.077,0.45 -0.089,0.489 C 4.042,-0.014 3.877,0.186 3.65,0.298 3.379,0.433 3.029,0.517 2.743,0.415 2.306,0.258 2.105,-0.173 2.073,-0.275 2.059,-0.319 2.05,-0.34 2.005,-0.342 1.963,-0.344 1.919,-0.335 1.877,-0.33 1.571,-0.29 1.265,-0.25 0.959,-0.209 0.68,-0.185 0.396,-0.141 0.123,-0.09 0.067,-0.079 -0.004,-0.073 0,0" /></g><g
           transform="translate(303.7501,330.6685)"
           id="g272"><path
             id="path274"
             style="fill:#fff5f0;fill-opacity:1;fill-rule:nonzero;stroke:none"
             d="M 0,0 C -0.192,-0.438 -0.439,-0.592 -0.586,-0.664 -0.801,-0.769 -1.1,-0.781 -1.33,-0.728 -1.889,-0.597 -2.101,0.014 -2.133,0.299 -2.14,0.365 -2.194,0.359 -2.249,0.368 -2.313,0.378 -2.377,0.389 -2.442,0.395 -2.73,0.426 -3.018,0.459 -3.304,0.498 -3.449,0.517 -3.594,0.538 -3.738,0.56 -3.863,0.578 -3.995,0.613 -4.121,0.606 -4.213,0.602 -4.197,0.483 -4.2,0.417 -4.206,0.318 -4.205,0.219 -4.198,0.12 c 0.013,-0.199 0.053,-0.397 0.123,-0.585 0.129,-0.347 0.364,-0.658 0.678,-0.855 0.678,-0.425 1.513,-0.664 2.294,-0.416 0.469,0.148 0.768,0.455 0.943,0.712 0.203,0.297 0.364,0.59 0.406,0.952 0.002,0.011 0.003,0.024 -0.003,0.035 C 0.234,-0.021 0.214,-0.016 0.197,-0.013 0.151,-0.005 0.106,0.001 0.06,0.005 0.044,0.006 0.029,0.007 0,0" /></g><g
           transform="translate(305.8018,329.3121)"
           id="g276"><path
             id="path278"
             style="fill:#fff5f0;fill-opacity:1;fill-rule:nonzero;stroke:none"
             d="m 0,0 c -0.068,-0.091 -0.174,-0.139 -0.283,-0.123 -0.104,0.016 -0.259,0.099 -0.308,0.193 -0.086,0.164 -0.047,0.333 -0.016,0.508 0.009,0.056 0.02,0.113 0.043,0.166 0.043,0.099 0.129,0.178 0.231,0.214 0.103,0.035 0.22,0.025 0.314,-0.027 C 0.066,0.885 0.12,0.812 0.136,0.718 0.149,0.643 0.143,0.566 0.133,0.49 0.118,0.375 0.065,0.086 0,0 M 0.56,0.73 C 0.555,0.785 0.547,0.837 0.537,0.887 0.466,1.222 0.204,1.402 -0.125,1.434 -0.299,1.451 -0.453,1.424 -0.613,1.304 -0.611,1.368 -0.597,1.458 -0.604,1.482 -0.726,1.503 -0.944,1.51 -1.035,1.408 -1.131,1.301 -1.12,1.1 -1.137,0.967 -1.163,0.761 -1.187,0.556 -1.211,0.35 -1.26,-0.062 -1.304,-0.475 -1.344,-0.888 c 0.179,-0.006 0.324,-0.023 0.505,-0.034 0.027,0.215 0.055,0.431 0.082,0.647 -0.004,-0.037 0.15,-0.12 0.179,-0.135 0.067,-0.033 0.14,-0.056 0.214,-0.067 0.152,-0.023 0.316,-0.008 0.459,0.053 0.152,0.066 0.269,0.199 0.338,0.35 0.064,0.139 0.081,0.293 0.11,0.442 C 0.565,0.48 0.57,0.608 0.56,0.73" /></g><g
           transform="translate(307.7218,329.4156)"
           id="g280"><path
             id="path282"
             style="fill:#fff5f0;fill-opacity:1;fill-rule:nonzero;stroke:none"
             d="m 0,0 c -0.029,-0.122 -0.085,-0.236 -0.167,-0.327 -0.023,-0.025 -0.047,-0.048 -0.076,-0.064 -0.05,-0.027 -0.161,-0.056 -0.278,-0.034 -0.116,0.021 -0.23,0.119 -0.264,0.23 -0.018,0.062 -0.017,0.127 -0.013,0.191 0.004,0.087 0.012,0.172 0.024,0.258 0.014,0.104 0.036,0.213 0.108,0.289 0.104,0.109 0.277,0.113 0.425,0.087 C -0.097,0.605 -0.033,0.53 0.001,0.392 0.032,0.267 0.031,0.129 0,0 m -0.047,-0.77 c 0.079,0.031 0.158,0.068 0.224,0.122 0.096,0.08 0.161,0.194 0.199,0.314 0.038,0.119 0.051,0.245 0.06,0.371 0.01,0.15 0.013,0.302 -0.021,0.448 C 0.412,0.498 0.409,0.511 0.405,0.524 0.367,0.656 0.295,0.781 0.185,0.862 0.09,0.932 -0.023,0.975 -0.139,0.999 -0.223,1.017 -0.313,1.022 -0.399,1.032 -0.609,1.057 -0.746,1.035 -0.926,0.914 -1.001,0.863 -1.071,0.804 -1.12,0.729 -1.191,0.62 -1.214,0.488 -1.234,0.36 -1.259,0.2 -1.282,0.038 -1.271,-0.125 c 0.01,-0.129 0.044,-0.262 0.125,-0.365 0.056,-0.071 0.099,-0.129 0.177,-0.172 0.264,-0.144 0.633,-0.219 0.922,-0.108" /></g><g
           transform="translate(309.4884,330.1832)"
           id="g284"><path
             id="path286"
             style="fill:#fff5f0;fill-opacity:1;fill-rule:nonzero;stroke:none"
             d="m 0,0 c -0.097,0.054 -0.207,0.08 -0.316,0.095 -0.117,0.016 -0.236,0.021 -0.351,-0.003 -0.179,-0.038 -0.341,-0.15 -0.44,-0.303 -0.034,-0.053 -0.054,-0.095 -0.063,-0.156 -0.011,-0.066 -0.017,-0.133 -0.01,-0.2 0.014,-0.122 0.078,-0.238 0.171,-0.318 0.082,-0.07 0.185,-0.113 0.292,-0.126 0.107,-0.014 0.217,-0.01 0.325,-0.027 0.047,-0.007 0.094,-0.014 0.138,-0.033 0.043,-0.018 0.083,-0.05 0.102,-0.093 0.033,-0.076 -0.007,-0.165 -0.065,-0.225 -0.059,-0.061 -0.301,-0.094 -0.485,-0.037 -0.07,0.022 -0.129,0.063 -0.152,0.139 -0.013,0.044 -0.015,0.091 -0.014,0.137 -0.116,0.017 -0.234,0.03 -0.351,0.039 -0.063,0.005 -0.067,-0.003 -0.075,-0.065 -0.007,-0.057 -0.008,-0.116 0.001,-0.173 0.012,-0.078 0.043,-0.154 0.097,-0.213 0.093,-0.103 0.225,-0.167 0.356,-0.197 0.362,-0.085 0.834,-0.146 1.037,0.208 0.071,0.124 0.095,0.27 0.081,0.411 -0.006,0.062 -0.018,0.124 -0.047,0.18 -0.058,0.111 -0.173,0.182 -0.293,0.219 -0.12,0.038 -0.247,0.047 -0.371,0.066 -0.069,0.011 -0.134,0.034 -0.194,0.07 -0.069,0.042 -0.123,0.119 -0.111,0.199 0.011,0.078 0.094,0.129 0.164,0.15 0.06,0.017 0.123,0.018 0.185,0.011 0.042,-0.005 0.085,-0.013 0.124,-0.03 0.102,-0.047 0.169,-0.163 0.158,-0.275 0.082,-0.015 0.164,-0.027 0.246,-0.034 0.055,-0.005 0.147,-0.033 0.162,0.042 0.012,0.057 -0.007,0.102 -0.017,0.157 -0.01,0.053 -0.026,0.101 -0.053,0.149 C 0.177,-0.14 0.097,-0.054 0,0" /></g><g
           transform="translate(310.6935,330.6236)"
           id="g288"><path
             id="path290"
             style="fill:#fff5f0;fill-opacity:1;fill-rule:nonzero;stroke:none"
             d="M 0,0 C -0.01,-0.204 -0.061,-0.369 -0.079,-0.577 0.172,-0.603 0.355,-0.62 0.583,-0.652 0.607,-0.655 0.633,-0.66 0.65,-0.678 0.665,-0.693 0.668,-0.715 0.671,-0.736 0.682,-0.823 0.676,-0.913 0.653,-0.998 0.65,-1.009 0.609,-1.031 0.592,-1.03 c -0.246,0.018 -0.491,0.04 -0.736,0.069 -0.063,-0.273 -0.081,-0.551 -0.1,-0.831 -0.004,-0.07 0.021,-0.143 0.067,-0.196 0.046,-0.053 0.134,-0.075 0.187,-0.03 0.037,0.031 0.047,0.081 0.05,0.131 0.001,0.013 0.015,0.033 0.039,0.031 0.103,-0.012 0.381,-0.028 0.413,-0.035 0.005,0 0.01,-0.002 0.013,-0.005 C 0.529,-1.901 0.528,-1.908 0.527,-1.914 0.514,-1.983 0.501,-2.052 0.477,-2.117 0.452,-2.183 0.416,-2.245 0.362,-2.29 0.312,-2.333 0.25,-2.357 0.187,-2.375 0.052,-2.414 -0.093,-2.421 -0.23,-2.388 c -0.137,0.034 -0.264,0.109 -0.352,0.219 -0.053,0.065 -0.131,0.226 -0.108,0.46 0.025,0.265 0.051,0.529 0.077,0.794 -0.057,0.015 -0.103,0.015 -0.167,0.026 -0.009,0.002 -0.033,0.012 -0.028,0.041 0.003,0.015 0.035,0.192 0.047,0.296 0.003,0.021 0.025,0.035 0.036,0.035 0.043,0.002 0.093,-0.026 0.133,-0.006 0.035,0.018 0.043,0.064 0.047,0.104 0.011,0.119 0.036,0.36 0.095,0.44 C -0.407,0.08 0.001,0.013 0,0" /></g><g
           transform="translate(312.1583,329.5435)"
           id="g292"><path
             id="path294"
             style="fill:#fff5f0;fill-opacity:1;fill-rule:nonzero;stroke:none"
             d="M 0,0 C 0.051,-0.005 0.103,-0.013 0.151,-0.031 0.253,-0.067 0.347,-0.134 0.399,-0.229 0.426,-0.278 0.44,-0.332 0.452,-0.386 0.456,-0.404 0.447,-0.437 0.403,-0.433 0.354,-0.428 0.305,-0.424 0.255,-0.42 c -0.103,0.009 -0.207,0.02 -0.31,0.035 -0.119,0.018 -0.239,0.033 -0.354,0.074 0.001,0.045 0.022,0.088 0.043,0.128 0.016,0.032 0.095,0.1 0.109,0.108 0.015,0.011 0.032,0.02 0.049,0.029 C -0.146,-0.016 -0.071,0.007 0,0 m -0.393,-0.677 c 0.018,0.013 0.042,0.011 0.064,0.008 0.192,-0.023 0.384,-0.06 0.576,-0.08 0.151,-0.015 0.304,-0.039 0.453,-0.05 0.064,-0.005 0.083,0.05 0.089,0.079 0.026,0.148 0.047,0.297 0.034,0.447 C 0.808,-0.095 0.737,0.087 0.596,0.198 0.522,0.256 0.434,0.292 0.345,0.324 0.204,0.375 0.056,0.396 -0.094,0.387 -0.382,0.371 -0.656,0.189 -0.752,-0.083 -0.846,-0.348 -0.871,-0.648 -0.813,-0.93 c 0.029,-0.144 0.076,-0.29 0.178,-0.396 0.067,-0.07 0.154,-0.117 0.244,-0.153 0.233,-0.091 0.494,-0.108 0.735,-0.046 0.084,0.021 0.156,0.074 0.22,0.132 0.128,0.115 0.147,0.237 0.17,0.384 C 0.67,-0.996 0.485,-0.974 0.453,-0.969 0.431,-0.966 0.388,-0.955 0.376,-0.984 0.349,-1.058 0.299,-1.11 0.228,-1.145 0.154,-1.18 0.07,-1.193 -0.011,-1.194 c -0.077,-0.001 -0.156,0.009 -0.229,0.036 -0.084,0.031 -0.155,0.099 -0.181,0.184 -0.023,0.077 -0.01,0.159 0.003,0.238 0.003,0.022 0.008,0.046 0.025,0.059" /></g><g
           transform="translate(313.0016,327.9732)"
           id="g296"><path
             id="path298"
             style="fill:#fff5f0;fill-opacity:1;fill-rule:nonzero;stroke:none"
             d="m 0,0 c 0.143,-0.023 0.287,-0.037 0.432,-0.043 0.013,-0.001 0.042,0.024 0.043,0.038 0.02,0.192 0.04,0.386 0.061,0.579 C 0.548,0.695 0.561,0.817 0.591,0.936 0.632,1.094 0.722,1.26 0.879,1.303 0.932,1.316 0.987,1.315 1.041,1.31 1.098,1.304 1.157,1.292 1.198,1.252 1.261,1.193 1.26,1.094 1.254,1.008 1.229,0.64 1.194,0.272 1.151,-0.095 1.15,-0.106 1.17,-0.135 1.181,-0.137 c 0.125,-0.026 0.254,-0.032 0.381,-0.02 0.016,0.001 0.05,0.031 0.052,0.043 0.04,0.273 0.08,0.546 0.119,0.819 C 1.75,0.819 1.767,0.935 1.762,1.051 1.758,1.148 1.738,1.245 1.704,1.336 1.679,1.402 1.646,1.465 1.599,1.515 1.527,1.59 1.427,1.63 1.328,1.659 1.182,1.699 1.031,1.718 0.88,1.715 0.749,1.711 0.596,1.674 0.548,1.553 0.552,1.612 0.556,1.67 0.56,1.729 0.562,1.745 0.544,1.775 0.516,1.777 0.443,1.784 0.312,1.8 0.296,1.795 0.223,1.774 0.234,1.763 0.219,1.686 0.183,1.501 0.176,1.306 0.151,1.119 0.104,0.758 0.048,0.399 -0.015,0.041 -0.018,0.028 -0.007,0.001 0,0" /></g></g></g></g></svg>
