<svg version="1.1" id="Layer_1" width="800" height="800" viewBox="0 0 800 800" fill="none" xmlns="http://www.w3.org/2000/svg" xmlns:xlink="http://www.w3.org/1999/xlink" x="0px" y="0px">
    <path d="M169.342 461.599C162.991 459.482 156.5 457.648 150.996 454.12C149.585 453.273 148.315 452.144 147.045 451.015C140.554 445.088 137.449 437.609 136.461 429.001C136.179 426.743 136.038 424.485 135.473 422.368C133.921 416.865 128.135 411.22 122.349 411.079C109.084 410.655 95.1135 423.356 92.5734 435.915C91.8678 439.585 91.8678 443.254 90.88 446.782C86.2231 462.587 67.4544 466.397 60.5396 480.65C55.1771 491.657 57.7172 506.192 49.6734 515.506C44.8754 521.151 36.6906 524.256 34.4327 531.312C30.9047 542.601 45.4399 552.62 44.8754 564.474C44.5932 571.107 39.654 576.469 37.1139 582.537C34.7149 588.041 34.1504 594.533 35.7027 600.318C37.1139 605.54 40.3596 610.197 44.5932 613.725C49.5323 617.817 56.4471 620.922 57.435 627.272C57.9994 630.377 56.7294 633.622 56.0238 636.727C52.6369 653.802 60.6807 666.926 75.357 673.982C85.2353 678.639 96.2425 686.683 96.2425 697.972C96.2425 704.323 96.1014 713.354 96.1014 716.741C96.1014 721.257 96.9481 723.515 101.746 723.515C112.048 723.515 120.091 723.515 129.688 723.515C132.651 723.515 134.768 723.656 136.32 722.668C139.284 720.692 139.284 714.483 139.284 710.814C139.284 700.936 139.142 695.291 139.142 686.118C139.142 674.264 148.033 663.963 152.69 659.447C156.641 655.637 166.519 650.839 171.459 648.44C173.575 647.452 175.692 646.887 177.244 645.053C179.785 642.231 182.607 639.973 184.865 636.868C188.957 631.505 191.356 625.296 191.921 618.664C192.626 609.209 189.945 599.754 185.288 591.569C183.595 588.464 181.478 585.36 180.349 581.973C179.22 578.586 179.079 574.494 181.055 571.53C182.889 568.708 186.135 567.297 188.534 564.898C192.344 561.229 193.755 555.302 192.767 550.08C191.78 544.859 188.816 540.061 185.147 536.251C182.042 533.005 178.232 529.618 179.502 524.679C180.067 522.421 180.772 520.869 182.184 519.034C184.159 516.494 186.135 513.954 187.828 511.132C191.215 505.769 193.896 499.842 194.461 493.492C195.308 483.755 190.792 473.876 183.03 467.949C179.22 465.268 174.281 463.292 169.342 461.599Z" fill="#00643A"/>
    <path d="M38.5249 585.359C42.194 578.303 51.79 574.493 52.4956 566.449C53.4834 556.007 40.6417 547.963 41.6295 537.661C42.7584 527.359 56.1647 523.267 60.6805 513.953C63.7851 507.744 62.3739 500.406 62.9384 493.632C63.7851 483.613 69.0065 474.017 77.0502 468.09C82.4127 464.138 89.0453 461.457 92.7143 455.812C97.2301 449.039 95.8189 440.007 98.0768 432.105C101.04 421.521 111.201 411.925 122.208 411.078C107.391 406.986 90.0331 419.122 87.2107 434.362C86.6463 437.608 86.6463 441.277 85.2351 444.382C84.1061 446.922 81.566 448.192 79.3081 449.603C73.3811 453.555 66.6074 456.095 61.2449 460.752C56.1647 465.126 52.4956 471.336 51.2255 477.968C49.9555 484.601 50.9433 491.374 49.6732 498.007C48.8265 502.382 46.7098 506.615 43.8874 510.002C41.065 513.53 37.3959 516.211 34.2913 519.457C29.3522 524.537 26.6709 531.17 27.2354 538.367C27.941 546.834 36.1259 552.902 36.9726 561.369C37.6782 567.296 34.8558 572.941 33.5857 578.868C32.4568 584.089 31.1867 594.955 35.7025 600.6C34.7147 595.379 35.9848 590.157 38.5249 585.359Z" fill="#7BC144"/>
    <path d="M169.2 708.979C237.361 703.899 305.944 706.721 374.245 708.979C407.832 710.108 441.7 711.096 475.004 706.298C476.697 689.505 478.391 672.571 480.084 655.778C481.213 644.629 482.342 633.34 480.931 622.191C480.649 619.792 480.225 617.252 479.661 614.853C477.685 605.116 474.581 595.661 473.028 585.783C472.182 580.985 471.899 576.187 472.182 571.389C472.464 566.873 474.157 562.498 471.335 558.265C469.783 555.866 467.242 554.313 464.42 554.313C462.444 554.313 460.61 555.019 458.916 555.866C454.26 558.124 449.885 561.087 445.228 563.486C445.087 563.486 445.087 563.627 444.946 563.627C442.829 564.615 440.289 566.026 438.031 566.45C435.632 566.873 432.951 566.732 430.411 566.732C425.048 567.014 419.686 567.155 414.323 567.438C403.598 567.861 392.732 568.002 382.007 568.143C360.416 568.284 338.966 567.861 317.375 567.014C295.784 566.026 274.334 564.615 252.884 562.498C237.219 560.946 221.273 559.253 205.75 562.216C190.368 565.321 168.354 576.046 169.2 594.391C170.329 618.099 169.483 642.089 169.342 665.797C169.2 680.191 169.2 694.585 169.2 708.979Z" fill="#D6D6D6"/>
    <path d="M462.586 550.786V709.12H719.139L719.28 701.641L719.139 547.681L524.255 536.956L462.586 550.786Z" fill="#767676"/>
    <path d="M544.857 658.882C574.069 660.434 603.28 659.164 632.21 654.93C632.492 655.495 631.363 654.93 631.363 654.366C632.068 642.23 632.774 629.952 633.339 617.816C634.185 603.422 634.891 588.746 631.081 574.916C630.94 574.211 630.657 573.646 630.234 573.223C629.811 572.8 629.105 572.8 628.399 572.658C605.962 569.977 583.383 570.118 560.945 573.082C552.196 574.211 546.551 574.634 546.127 584.512C545.563 596.225 545.704 608.079 545.563 619.933C545.422 632.775 545.14 645.899 544.857 658.882Z" fill="#00643A"/>
    <path d="M628.682 653.378C629.811 672.429 629.529 691.621 627.835 710.672C628.118 710.813 627.835 710.249 627.553 710.249C606.527 710.108 585.5 709.825 564.473 709.684C558.97 709.684 553.325 709.543 547.962 707.991C547.398 698.818 547.257 689.504 547.257 680.191C547.257 675.392 547.398 670.594 547.68 665.796C547.821 662.268 547.116 657.188 548.527 653.943C551.067 648.016 560.804 653.096 560.804 653.096C560.804 653.096 628.682 652.955 628.682 653.378Z" fill="#002F19"/>
    <path d="M519.174 703.052C537.096 702.911 554.877 703.475 572.658 704.746C578.585 705.169 584.653 705.733 590.721 706.016C614.57 707.003 638.419 703.193 662.409 702.488C664.385 663.68 663.679 624.731 660.151 586.065C660.01 585.218 660.01 584.372 659.304 583.807C658.74 583.243 657.893 583.243 657.188 583.101C622.331 580.561 587.334 580.279 552.478 580.702C540.342 580.844 527.076 578.303 525.665 593.403C524.113 610.337 523.972 627.554 522.984 644.629C522.561 649.568 520.021 703.052 519.174 703.052Z" fill="#002F19"/>
    <path d="M164.826 703.476C164.826 703.476 164.967 711.802 166.52 713.072C169.06 711.661 173.011 710.955 175.975 710.532C175.975 673.7 175.269 637.291 175.269 599.613C175.269 596.367 175.269 596.508 172.447 594.25C169.765 592.133 166.096 596.931 164.544 599.613C164.544 607.939 164.826 658.318 164.826 676.663C164.826 686.824 164.826 703.476 164.826 703.476Z" fill="#002F19"/>
    <path d="M712.365 452.144C714.058 456.942 713.635 462.304 713.353 467.385C711.659 493.915 711.941 520.445 713.917 546.975C681.036 552.62 647.733 553.326 614.429 554.031C607.937 554.172 601.305 554.314 594.813 554.455C581.407 554.737 568.142 555.019 554.736 555.301C548.103 555.443 541.329 555.725 534.697 555.725C528.488 555.725 522.702 554.737 516.634 553.89C512.823 553.326 509.013 553.185 505.203 552.902C494.619 552.338 484.035 551.915 473.593 550.503C472.322 550.362 470.911 550.08 469.923 549.233C468.512 548.104 468.512 545.564 468.23 543.871C467.807 541.472 467.666 539.073 467.524 536.815C467.383 531.876 467.807 527.078 468.371 522.28C469.641 512.543 471.758 502.946 472.322 493.068C473.169 477.545 469.641 462.022 471.476 446.499C529.193 443.959 586.911 444.241 644.628 447.487C658.034 448.193 671.44 449.039 684.706 446.781C689.927 445.935 695.713 442.689 701.075 442.548C706.297 442.407 710.812 447.487 712.365 452.144Z" fill="#F1F7E9"/>
    <path d="M466.678 180.632V452.708H712.506V184.865L466.678 180.632Z" fill="#7BC144"/>
    <path d="M166.66 201.8V559.958C166.66 559.958 172.446 559.958 172.728 559.958C180.349 559.958 188.11 559.958 195.731 559.958C207.726 559.958 219.721 559.958 231.857 559.958C246.674 559.958 261.633 559.958 276.45 559.958C292.679 559.958 308.907 559.958 325.136 559.958C341.224 559.958 357.311 559.958 373.399 559.958C387.934 559.958 402.328 559.958 416.863 559.958C423.072 559.958 429.14 559.958 435.35 559.958C440.43 559.958 450.167 561.511 453.554 557.701C454.824 556.148 455.106 553.89 456.799 552.761C458.352 551.774 460.469 551.915 462.303 552.056C466.396 552.338 470.629 552.056 474.722 551.491C474.722 547.54 474.863 543.589 474.863 539.637C474.863 532.017 474.863 524.397 474.863 516.776C474.863 507.039 474.863 497.302 474.863 487.565C474.863 476.275 474.863 464.986 474.863 453.555C474.863 441.137 474.863 428.859 474.863 416.441C474.863 403.599 474.863 390.616 474.863 377.775C474.863 364.933 474.863 351.95 474.863 339.108C474.863 326.69 474.863 314.412 474.863 301.994C474.863 290.705 474.863 279.415 474.863 268.126C474.863 258.388 474.863 248.792 474.863 239.055C474.863 231.435 474.863 223.956 474.863 216.335C474.863 211.396 474.863 206.457 474.863 201.518C474.863 199.683 474.863 197.99 474.863 196.155L166.66 201.8Z" fill="#C8DC8C"/>
    <path d="M159.887 199.683L218.31 139.284H465.549L485.588 202.082L159.887 199.683Z" fill="#00643A"/>
    <path d="M458.211 151.843L482.06 196.014C484.036 196.155 650.979 195.026 706.72 193.473C713.635 193.332 704.745 184.865 702.769 182.043C698.818 176.398 694.866 170.753 690.915 165.109C689.504 162.992 679.626 145.493 677.085 145.493C677.227 145.634 458.211 151.843 458.211 151.843Z" fill="#002F19"/>
    <path d="M678.778 152.549C667.066 151.703 469.218 152.549 465.831 152.549C464.42 152.549 462.867 152.549 461.879 153.678C460.609 155.089 460.892 156.783 461.879 158.617C460.468 159.041 458.916 159.887 457.505 159.887C457.223 159.887 456.94 159.887 456.658 159.746C456.376 159.605 456.376 159.323 456.235 159.041C455.67 158.053 454.4 157.63 454.118 156.501C453.977 155.936 454.118 155.372 454.118 154.807C454.259 153.255 453.836 151.703 454.118 150.15C454.682 147.751 457.081 145.493 458.916 143.8C460.751 142.107 462.726 139.284 465.549 139.284C470.77 139.284 488.41 139.425 493.631 139.425C507.178 139.425 520.585 139.425 534.132 139.425C564.472 139.425 594.813 139.425 625.153 139.425C633.762 139.425 654.647 139.708 667.912 139.849C670.311 140.554 670.876 140.413 672.71 140.413C677.085 140.413 692.185 153.396 678.778 152.549Z" fill="#00643A"/>
    <path d="M159.886 199.682C159.322 201.094 158.757 202.787 159.322 204.198C160.31 206.738 163.979 207.303 166.66 207.303C271.793 207.021 375.515 208.15 480.507 207.867C481.918 207.867 484.317 206.315 485.587 205.751C489.256 203.916 488.41 196.155 484.317 196.155C440.994 196.013 178.655 196.578 166.519 196.155C163.132 196.013 169.906 187.405 166.801 189.24C163.414 191.357 161.58 196.155 159.886 199.682Z" fill="#7BC144"/>
    <path d="M211.96 140.131C212.524 139.708 213.371 139.284 214.218 139.284C215.205 139.284 223.249 139.284 226.213 139.284C205.892 160.593 192.344 174.705 173.434 194.32C169.765 198.131 165.532 202.223 166.661 207.303C163.556 207.303 160.169 207.444 157.77 206.739C155.089 206.033 152.831 204.34 151.843 201.8C150.714 199.118 151.42 195.873 152.972 193.333C154.524 190.792 156.641 188.817 158.758 186.841C166.378 179.785 174.14 172.729 181.76 165.673C185.429 162.286 208.573 142.248 211.96 140.131Z" fill="#002F19"/>
    <path d="M481.496 272.924C484.459 273.065 487.564 272.783 490.527 273.065C493.491 273.347 496.736 274.476 498.289 277.016C499.982 279.697 499.135 283.508 496.595 285.483C495.043 286.612 493.208 287.035 491.233 287.318C488.834 287.741 486.152 287.882 482.483 288.306C479.661 288.588 475.004 289.576 475.004 293.527C475.004 297.478 474.016 295.644 473.029 298.325C472.182 300.442 470.912 300.583 471.053 297.76C471.476 286.471 471.053 275.323 471.194 264.033C472.887 264.739 474.722 265.162 475.004 268.267C475.286 271.371 478.391 272.783 481.496 272.924Z" fill="#C8DC8C"/>
    <path d="M481.213 365.074C484.6 365.497 487.987 365.92 491.515 366.344C492.926 366.485 495.466 367.049 496.454 369.448C498.571 374.387 496.736 376.928 492.785 378.48C488.975 380.032 486.435 380.173 481.778 380.879C477.685 381.443 475.004 383.419 475.004 387.794C475.004 392.027 472.041 388.923 471.758 388.781C471.476 388.64 471.476 388.358 471.476 388.217C470.771 382.855 469.924 378.339 470.206 372.976C470.629 367.049 475.004 354.631 475.004 354.631C475.004 354.631 474.722 362.675 477.968 364.368C478.814 364.791 479.802 364.933 480.79 365.074C480.931 364.933 481.072 365.074 481.213 365.074Z" fill="#C8DC8C"/>
    <path d="M175.833 459.764C175.833 457.506 175.974 455.107 177.526 453.555C179.079 452.003 181.478 452.003 183.595 452.003C236.796 452.003 289.998 452.003 343.199 451.862C363.379 451.862 383.7 451.862 403.88 451.862C414.041 451.862 424.06 451.862 434.221 451.862C439.301 451.862 444.381 451.862 449.32 451.862C452.425 451.862 459.057 451.579 460.469 453.555C461.598 455.107 461.598 457.224 461.739 459.059C462.162 475.146 462.021 491.234 462.585 507.18C463.009 518.893 462.585 529.759 462.303 541.754C462.303 542.601 462.303 544.294 461.88 545C460.751 547.116 456.235 547.399 454.118 547.399C451.155 547.399 448.191 546.975 445.228 546.975C438.878 546.975 432.527 546.975 426.177 547.116C413.194 547.116 400.211 547.258 387.228 547.258C361.262 547.399 335.297 547.54 309.331 547.54C284.635 547.681 259.798 547.681 235.103 547.822C222.825 547.822 210.548 547.963 198.412 547.963C190.65 547.963 176.821 552.338 176.821 541.613C176.397 528.489 175.833 473.312 175.833 459.764Z" fill="#F1F7E9"/>
    <path d="M709.966 188.535C709.824 188.535 709.683 188.535 709.542 188.535C704.462 189.523 705.168 196.014 705.168 199.683C705.309 224.379 705.45 249.075 705.591 273.77C705.873 365.215 705.45 456.66 704.18 548.104C706.155 548.104 708.131 547.963 710.107 547.963C712.082 547.963 713.917 547.681 715.893 547.681C717.021 547.681 718.15 547.963 719.279 547.822C719.279 547.822 719.421 547.822 719.421 547.681V547.54C719.138 544.294 719.138 530.888 719.279 527.501C719.562 520.727 719.703 513.954 719.985 507.18C720.126 500.406 720.267 493.633 720.408 486.859C720.549 480.085 720.549 473.312 720.691 466.538C720.691 459.764 720.691 452.991 720.691 446.217C720.691 442.407 720.691 438.597 720.691 434.645C720.691 432.105 720.691 429.424 720.691 426.884C720.691 415.735 720.549 404.446 720.549 393.298C720.549 379.75 720.549 366.062 720.549 352.514C720.549 337.556 720.549 322.597 720.549 307.78C720.549 292.68 720.549 277.581 720.549 262.34C720.549 248.087 720.549 233.834 720.549 219.722C720.549 213.231 720.549 206.88 720.549 200.389C720.549 197.849 720.549 195.167 718.856 193.051C716.457 190.652 713.211 188.111 709.966 188.535Z" fill="#C8DC8C"/>
    <path d="M680.754 141.965C682.589 143.235 684.141 144.788 685.693 146.481C699.946 162.851 718.433 185.571 723.796 192.627C729.299 199.824 725.489 203.634 722.666 204.763C720.55 205.61 718.151 205.751 715.893 205.751C709.26 205.892 702.769 205.892 696.136 205.751C694.866 200.388 694.584 200.247 695.29 194.885C696.701 194.603 696.419 193.897 697.83 193.756C698.676 193.756 699.382 193.756 699.946 193.615C700.934 193.474 701.358 192.486 701.358 192.062C701.499 190.228 699.523 187.97 698.818 186.841C696.983 184.019 685.27 166.802 681.46 161.016C677.791 155.372 667.771 139.849 667.771 139.849C667.771 139.849 670.735 139.849 673.134 139.99C676.097 140.272 678.355 140.413 680.754 141.965Z" fill="#7BC144"/>
    <path d="M718.716 544.012C718.857 544.012 718.998 544.153 718.998 544.294C719.139 544.435 719.139 544.576 719.139 544.717C719.28 546.552 719.28 549.939 719.28 551.773C719.28 553.608 719.421 555.442 719.139 557.277C719.139 557.559 718.857 557.559 718.575 557.559C715.611 557.559 712.648 557.418 709.543 557.559C706.438 557.7 674.969 556.995 668.619 556.995C665.514 556.995 526.512 558.124 462.445 557.559C461.88 555.019 458.07 548.245 459.905 545.987C461.739 543.588 459.622 542.036 462.162 542.036C471.194 542.177 621.626 544.435 657.611 544.294C659.305 544.294 660.857 544.294 662.551 544.294C665.655 544.294 668.76 544.294 671.864 544.294C675.816 544.294 679.767 544.294 683.577 544.153C687.67 544.153 691.903 544.153 695.996 544.012C699.806 544.012 703.475 544.012 707.285 544.012C710.249 544.012 713.353 544.012 716.317 544.012C717.022 544.012 718.575 543.871 718.716 544.012Z" fill="#00643A"/>
    <path d="M198.271 670.453C209.561 670.453 220.991 669.042 232.281 669.466C242.3 669.748 252.179 671.018 262.198 671.441C273.064 671.865 284.071 671.018 294.937 670.312C295.784 670.312 294.232 667.772 293.667 667.067L297.901 653.237V577.739C300.441 577.739 302.981 577.88 305.521 578.021C280.826 577.315 256.13 576.892 231.434 576.751C225.225 576.751 219.016 576.751 212.948 576.751C209.279 576.751 202.646 575.622 199.824 578.727C197.001 581.831 198.271 588.887 198.271 592.697C198.271 616.828 198.271 640.96 198.271 664.95C198.271 665.514 198.271 670.453 198.271 670.453Z" fill="#F1F7E9"/>
    <path d="M313 667.913C325.983 667.913 338.966 668.196 351.949 668.619C375.515 669.466 422.226 653.096 422.226 653.096L422.084 589.734C423.072 589.734 423.355 588.323 422.649 587.617C421.943 586.912 420.956 586.77 419.968 586.629C387.087 582.396 354.065 576.187 320.903 575.904C313.141 575.904 313 579.997 313 586.206C313 591.427 313 596.79 313 602.011C313 615.417 313 628.824 313 642.089C313 643.5 313 667.913 313 667.913Z" fill="#F1F7E9"/>
    <path d="M297.901 653.237C297.901 659.447 297.901 663.68 297.901 671.583C297.901 674.546 295.502 675.534 293.526 675.534C264.879 675.534 236.232 675.816 207.585 676.099C205.468 676.099 203.492 676.099 200.952 675.957C199.541 675.957 198.412 675.816 198.271 673.558C197.989 667.349 198.271 654.366 198.271 654.366C198.271 654.366 270.806 653.237 285.764 653.237C289.01 653.237 294.09 653.237 297.901 653.237Z" fill="#7BC144"/>
    <path d="M313.988 674.97C314.835 675.534 316.246 675.534 318.08 675.393C319.774 675.252 402.61 674.97 419.403 674.97C421.661 674.97 422.367 674.264 422.367 673.135C422.367 672.006 422.226 656.624 422.226 652.955C419.403 652.955 415.734 652.955 412.771 652.955C395.695 653.096 378.761 653.237 361.686 653.378C345.881 653.52 313 654.084 313 654.084C313 654.084 313 668.478 313 672.147C313 673.841 313.423 674.687 313.988 674.97Z" fill="#7BC144"/>
    <path d="M139.706 590.016C185.711 595.661 227.199 591.71 273.627 591.004C322.454 590.44 371.281 593.685 420.108 593.121C423.495 593.121 427.023 592.98 430.269 591.71C433.938 590.299 436.901 583.525 439.724 580.703C444.804 575.763 449.884 570.683 455.106 565.744C460.891 560.099 467.101 553.326 466.536 545.282C466.536 544.294 466.254 543.165 465.407 542.459C464.56 541.754 463.432 541.754 462.444 541.754C416.863 543.306 176.397 541.895 176.397 541.895C176.397 541.895 163.132 554.313 158.616 558.829C149.443 568.143 148.879 580.844 139.706 590.016Z" fill="#00643A"/>
    <path d="M133.498 589.734C130.676 593.968 131.24 595.943 133.639 598.06C134.909 599.189 137.167 599.471 138.86 599.471C166.52 599.471 407.267 599.048 421.662 599.471C423.073 599.471 424.625 599.612 426.036 599.189C428.435 598.483 429.141 596.79 429.423 594.532C429.705 592.556 430.975 589.311 429.988 587.476C428.717 587.617 426.318 588.746 426.318 588.746C426.318 588.746 150.15 588.464 148.739 588.464C147.469 588.464 147.751 587.476 148.315 586.488C154.948 575.763 174.846 545.423 176.398 542.177C173.152 541.613 166.661 541.895 166.661 541.895C166.661 541.895 135.332 587.053 133.498 589.734Z" fill="#7BC144"/>
    <path d="M424.766 589.592C423.496 591.004 422.367 592.133 421.52 594.39C420.815 596.507 422.226 599.471 424.202 599.471C426.883 599.471 428.153 598.201 429.564 597.354C431.822 595.943 456.094 566.026 462.586 557.7C462.586 550.926 462.304 547.398 462.304 542.177C458.493 548.527 430.128 583.807 424.766 589.592Z" fill="#002F19"/>
    <path d="M524.678 703.052C534.274 703.193 543.87 702.911 553.466 702.629C554.877 702.629 556.288 702.488 557.276 701.5C558.405 700.512 558.546 698.818 558.687 697.266C561.086 662.41 561.792 627.271 560.945 592.274C560.945 591.004 560.804 589.734 560.381 588.746C558.828 585.077 553.889 584.795 549.938 584.654C545.14 584.654 540.342 584.23 535.544 583.666C533.145 583.384 524.537 580.843 522.843 582.537C521.291 584.089 522.843 594.25 522.843 596.508C522.843 601.306 522.984 606.104 522.984 611.043C523.267 630.799 523.549 650.556 523.972 670.454C523.972 673.135 524.537 703.052 524.678 703.052Z" fill="#D6D6D6"/>
    <path d="M620.921 702.911C633.903 703.757 647.027 703.334 660.01 701.923C663.115 667.067 661.563 631.928 659.869 596.931C659.587 590.016 659.164 583.101 658.881 576.186C648.297 575.904 637.714 576.469 627.271 577.739C625.295 578.021 622.473 577.88 621.485 579.291C620.638 580.561 621.626 585.924 621.767 587.617C621.908 592.838 621.908 598.201 621.767 603.422C621.485 624.731 620.074 646.181 619.792 667.49C619.792 670.736 619.509 702.77 620.921 702.911Z" fill="#D6D6D6"/>
    <path d="M557.559 702.911C557.559 702.911 563.203 702.488 567.86 702.488C568.848 690.775 568.989 599.895 569.695 586.488C569.695 586.488 560.804 586.347 559.675 586.912C557.276 587.9 556.147 591.992 556.147 591.992L557.559 702.911Z" fill="#F1F7E9"/>
    <path d="M612.736 701.782C617.11 701.499 627.271 704.745 627.271 704.745C627.271 704.745 626.706 620.074 625.719 590.581C625.719 588.746 625.577 586.77 624.166 585.5C622.332 583.666 617.675 583.948 615.417 584.654C611.748 585.783 612.171 587.053 612.171 590.863C612.312 599.753 612.453 608.644 612.595 617.534C612.736 635.456 612.877 653.519 612.877 671.441C612.877 681.461 612.877 691.621 612.736 701.782Z" fill="#F1F7E9"/>
    <path d="M513.247 702.911C513.247 702.911 521.009 702.911 524.96 703.052C525.807 703.052 526.653 703.052 527.218 702.488C527.641 702.064 527.782 701.359 527.782 700.794C527.782 673.417 526.936 597.355 526.936 597.355C526.936 597.355 528.206 591.71 528.064 590.299C527.923 589.311 527.782 588.323 527.077 587.759C526.512 587.335 525.665 587.194 524.819 587.194C522.843 587.053 515.646 585.36 514.094 586.63C512.4 588.041 512.683 595.802 512.683 597.919C512.4 606.104 513.247 702.911 513.247 702.911Z" fill="#C8DC8C"/>
    <path d="M164.825 718.575C164.825 716.74 164.825 703.475 164.825 703.475C164.825 703.475 203.068 703.334 220.99 703.193C239.336 703.052 257.54 702.77 275.885 702.628C294.231 702.487 312.435 702.205 330.78 702.064C349.126 701.923 367.33 701.641 385.675 701.5C403.88 701.358 462.585 701.782 462.585 701.782C462.585 701.782 462.726 702.064 462.867 702.205C463.855 708.979 463.291 717.446 462.303 724.078C458.21 723.796 173.575 724.078 169.764 724.078C168.777 724.078 167.506 724.22 166.66 723.655C164.966 722.385 164.825 720.409 164.825 718.575Z" fill="#767676"/>
    <path d="M202.786 303.687C214.076 303.687 248.65 303.546 251.754 303.546C255.565 303.546 256.976 301.853 256.976 299.312C256.976 296.772 257.258 273.911 257.399 261.069C257.399 259.376 257.399 257.683 256.835 256.13C255.988 254.155 255.141 253.449 252.46 252.885C247.803 252.038 240.324 252.602 237.36 252.602C229.317 252.602 219.862 252.885 211.677 252.885C208.995 252.885 203.774 252.885 200.952 254.86C199.541 255.848 199.258 257.824 199.258 259.658C199.258 267.42 198.976 271.794 198.835 278.709C198.835 280.261 198.976 293.668 199.117 300.159C199.258 302.276 200.67 303.687 202.786 303.687Z" fill="#F1F7E9"/>
    <path d="M291.691 301.288C291.691 301.712 291.691 301.994 291.974 302.276C292.256 302.7 292.961 302.841 293.526 302.841C306.509 302.841 318.927 302.841 331.769 302.841C334.732 302.841 341.788 302.841 344.752 302.841C348.28 302.841 351.384 301.429 351.384 298.325C351.384 285.201 350.961 270.666 350.961 256.977C350.961 253.59 348.139 252.603 345.74 252.603C328.382 252.603 319.351 253.167 302.558 253.167C299.453 253.167 294.373 253.59 292.679 256.413C291.55 258.388 291.974 265.444 291.974 270.807C291.833 281.108 291.833 291.269 291.691 301.288Z" fill="#F1F7E9"/>
    <path d="M383.982 297.76C383.982 299.595 384.124 301.57 385.535 302.558C386.381 303.123 387.51 303.264 388.498 303.264C404.868 303.828 419.685 304.11 436.055 302.84C436.761 302.84 437.607 302.699 438.172 302.276C438.877 301.711 439.019 300.582 439.16 299.595C439.442 295.643 439.301 265.021 438.736 254.013C438.736 253.308 438.595 252.461 438.313 251.897C437.607 250.909 436.196 250.627 434.926 250.627C420.673 250.485 408.255 251.05 388.498 251.473C385.394 251.473 384.124 253.59 384.124 256.554C383.982 263.045 383.982 269.678 383.982 276.169C384.124 283.366 384.124 290.563 383.982 297.76Z" fill="#F1F7E9"/>
    <path d="M197.848 390.051C197.848 390.616 197.989 391.321 198.271 391.886C198.977 393.015 200.529 393.156 201.799 393.156C218.592 393.438 235.526 393.579 252.319 393.861C253.589 393.861 254.859 393.861 255.847 393.015C256.835 392.168 256.835 390.757 256.835 389.487C256.835 381.019 256.976 353.784 256.976 346.446C256.976 341.224 252.884 341.365 248.509 341.365C244.134 341.365 236.655 341.224 230.728 341.224C221.979 341.224 213.371 341.224 204.621 341.083C202.928 341.083 201.093 341.083 199.823 342.212C198.553 343.341 198.13 345.175 198.13 347.01C198.13 354.489 197.989 360.416 197.848 366.767C197.848 374.669 197.848 380.596 197.848 390.051Z" fill="#F1F7E9"/>
    <path d="M309.049 394.85C321.044 394.85 343.482 394.003 346.869 394.003C350.256 394.003 351.243 392.592 351.243 389.77C351.243 386.947 351.243 346.87 351.243 344.33C351.243 341.648 348.985 339.955 345.599 339.673C342.353 339.39 318.645 339.532 303.545 339.673C298.042 339.673 294.655 340.237 294.09 346.305C293.385 353.502 293.667 359.853 293.667 367.05C293.667 374.811 294.09 386.242 294.09 390.475C293.949 394.85 295.643 394.85 309.049 394.85Z" fill="#F1F7E9"/>
    <path d="M384.406 389.911C384.406 390.899 384.547 391.886 385.253 392.592C385.958 393.298 386.946 393.156 387.934 393.156C404.445 393.298 418.133 393.721 433.374 393.015C434.503 393.015 435.632 392.874 436.62 392.31C438.737 391.181 439.019 388.358 439.019 385.959C439.16 372.835 439.16 348.704 439.16 344.753C439.16 340.802 436.761 338.967 432.951 338.967C429.141 338.967 428.435 338.826 426.177 338.967C419.827 339.108 413.618 339.108 407.267 339.249C401.199 339.39 394.425 338.403 388.498 339.532C383.559 340.378 384.688 346.023 384.688 350.115C384.547 356.325 384.406 362.534 384.406 368.884C384.124 375.799 384.124 382.855 384.406 389.911Z" fill="#F1F7E9"/>
    <path d="M513.247 287.882C513.247 288.729 513.388 289.575 513.811 290.281C514.658 291.269 516.21 291.41 517.481 291.551C533.85 292.257 550.361 292.257 566.731 291.551C570.4 291.41 573.363 291.551 574.492 288.164C575.762 284.354 575.48 279.415 575.339 275.322C575.057 266.855 574.916 260.364 574.916 249.921C574.916 246.816 573.646 243.006 570.682 241.736C569.835 241.313 568.706 241.313 567.719 241.172C562.356 240.889 522.42 241.736 518.186 242.16C517.057 242.301 515.787 242.442 515.081 243.288C514.376 243.994 514.235 244.982 514.235 245.97C512.965 260.082 512.682 273.911 513.247 287.882Z" fill="#D6D6D6"/>
    <path d="M617.816 288.729C620.497 288.729 650.697 287.741 668.054 287.741C672.288 287.741 672.711 283.366 672.852 279.98C672.993 275.887 672.429 253.59 671.3 241.454C671.159 239.479 670.03 236.092 666.079 236.092C662.551 236.092 623.179 237.785 618.804 237.785C614.429 237.785 612.877 241.737 612.877 243.007C612.03 257.824 613.3 280.121 613.3 283.508C613.3 287.035 615.276 288.729 617.816 288.729Z" fill="#D6D6D6"/>
    <path d="M570.259 342.213C567.437 342.213 530.181 342.777 524.537 342.777C520.444 342.777 517.199 344.753 516.352 347.716C515.223 351.95 515.646 357.877 515.787 361.828C515.928 370.719 516.07 386.806 516.07 390.616C516.07 394.427 519.456 396.12 521.15 396.12C536.25 396.261 563.485 396.543 568.001 396.12C577.174 395.132 575.48 383.702 575.339 377.21C575.057 367.05 574.493 348.987 574.493 346.87C574.493 344.753 573.081 342.213 570.259 342.213Z" fill="#D6D6D6"/>
    <path d="M616.263 390.334C616.828 394.708 618.945 396.402 626.988 396.402C632.915 396.402 660.01 396.966 668.054 395.555C669.606 395.273 671.158 394.849 672.429 393.862C676.803 390.334 675.392 377.21 675.392 372.27C675.392 363.521 674.969 356.606 674.969 347.857C674.969 344.893 674.686 341.224 672.146 339.813C671.017 339.108 669.606 339.108 668.336 339.108C658.881 339.108 652.954 338.966 640.112 339.249C626.565 339.531 619.227 338.402 617.11 341.083C615.417 343.341 615.417 347.716 615.134 350.397C614.993 355.195 615.699 385.959 616.263 390.334Z" fill="#D6D6D6"/>
    <path d="M195.307 477.403C195.307 475.004 195.73 473.17 199.682 473.17C203.633 473.17 250.202 473.17 252.178 473.17C254.295 473.17 255.424 474.863 255.424 477.827C255.565 481.496 255.706 511.131 255.424 517.904C255.282 522.42 255.282 523.973 255.141 528.488C249.355 528.912 243.57 528.771 237.925 528.63C229.74 528.488 221.696 528.347 213.511 528.206C209.419 528.065 200.105 529.9 197.847 525.243C196.577 522.42 195.166 518.469 195.166 518.469C195.166 518.469 195.307 479.944 195.307 477.403Z" fill="#D6D6D6"/>
    <path d="M286.188 477.545C286.188 475.287 287.175 473.876 289.998 473.735C293.385 473.453 326.547 473.735 346.868 473.594C348.28 473.594 349.832 473.594 350.82 474.582C352.09 475.711 352.09 477.686 352.09 479.521C352.09 495.044 351.808 517.199 351.808 517.199C351.808 517.199 339.671 528.065 333.603 528.348C326.406 528.63 319.35 528.912 312.153 529.194C305.803 529.477 298.465 530.606 292.256 529.336C286.752 528.207 286.188 523.409 286.188 518.611C286.187 504.216 286.188 479.803 286.188 477.545Z" fill="#D6D6D6"/>
    <path d="M379.749 479.661C379.749 477.262 379.749 475.851 382.29 474.158C383.419 473.452 386.664 473.17 393.72 473.029C411.219 472.747 435.632 472.888 439.16 472.888C442.688 472.888 444.099 474.44 444.099 477.404C444.099 479.238 444.523 515.929 444.523 515.929C444.523 515.929 442.829 524.114 441.559 524.819C440.995 525.243 442.124 525.384 441.418 525.525C427.306 526.231 413.053 526.654 398.942 526.654C394.144 526.654 386.946 528.347 382.29 526.513C381.02 525.948 380.032 521.009 379.749 516.493C379.467 512.965 379.749 481.355 379.749 479.661Z" fill="#D6D6D6"/>
    <path d="M195.308 518.328L255.565 517.764C255.565 517.764 255.424 524.114 255.424 527.219C255.424 527.924 255.424 528.63 255.142 529.335C254.86 530.323 254.295 530.747 253.448 531.17C252.461 531.593 249.779 531.876 248.791 531.876C245.969 531.876 202.505 531.734 199.965 531.734C198.836 531.734 197.566 531.593 196.719 530.747C195.449 529.477 195.308 526.654 195.308 524.255C195.308 522.138 195.308 518.328 195.308 518.328Z" fill="#C8DC8C"/>
    <path d="M287.881 530.606C288.305 530.888 288.869 531.17 289.293 531.311C291.692 532.017 294.514 531.876 297.054 531.876C299.876 531.876 302.699 531.876 305.521 531.876C311.166 531.876 316.811 531.876 322.455 531.734C331.346 531.593 340.095 531.452 348.986 531.17C351.102 531.029 351.667 529.336 351.667 527.36C351.808 525.525 351.667 518.893 351.667 516.917C341.365 516.917 286.047 518.046 286.047 518.046C286.047 518.046 286.047 523.55 286.188 526.09C286.188 527.219 286.188 528.489 286.752 529.335C287.176 529.9 287.458 530.323 287.881 530.606Z" fill="#C8DC8C"/>
    <path d="M380.595 526.936C380.878 527.642 381.16 528.206 381.724 528.771C383.418 530.323 386.099 530.041 388.216 530.182C390.897 530.323 437.889 529.617 439.018 529.617C442.97 529.617 444.381 529.053 444.663 526.795C444.804 524.96 444.522 518.61 444.522 515.929C442.546 515.929 439.865 515.929 437.325 515.929C434.644 515.929 431.821 515.929 429.14 515.929C423.778 515.929 418.415 516.07 413.194 516.07C408.113 516.07 403.033 516.211 397.812 516.211C393.155 516.211 385.535 516.493 379.749 516.493C379.608 522.702 380.172 525.807 380.595 526.936Z" fill="#C8DC8C"/>
    <path d="M512.683 589.31C512.683 592.133 512.683 594.814 512.683 597.636C517.763 597.636 521.15 597.777 525.948 597.777C535.544 597.777 545.14 597.777 554.736 597.777C566.167 597.777 577.597 597.636 589.169 597.495C599.612 597.354 639.407 597.213 643.076 597.213C645.475 597.213 647.874 597.213 650.273 597.213C651.402 597.213 652.672 597.213 653.519 598.06C654.366 598.906 654.366 600.035 654.366 601.164C654.648 611.042 655.071 620.921 655.071 630.799C655.071 640.96 654.93 650.979 654.93 661.14C654.789 678.074 654.789 695.149 654.648 712.083C659.023 712.083 663.397 712.083 667.772 712.083C667.772 659.587 668.76 556.994 668.76 556.994C668.76 556.994 534.133 557.417 521.009 557.7C511.977 557.841 512.824 561.51 512.683 569.13C512.542 576.186 512.683 582.395 512.683 589.31Z" fill="#7BC144"/>
    <path d="M462.585 701.641C462.585 701.641 539.918 701.782 556.006 701.5C572.093 701.217 588.181 701.076 604.127 700.935C620.215 700.794 711.377 700.371 718.151 700.512C718.433 700.512 718.715 700.512 718.856 700.653C719.28 700.935 719.28 701.359 719.28 701.782C719.28 707.285 719.139 714.906 719.139 720.692C719.139 721.397 718.998 722.103 718.574 722.809C718.292 723.373 717.586 723.796 716.881 723.937C715.893 723.796 715.187 724.079 715.187 724.079C715.187 724.079 710.813 724.079 708.978 724.079C705.168 724.079 463.856 724.079 462.162 724.079C462.162 722.667 462.585 701.641 462.585 701.641Z" fill="#00643A"/>
    <path d="M585.358 462.445C595.378 459.764 606.244 458.776 615.981 462.445C621.343 464.421 626.141 467.808 631.081 470.63C637.431 474.017 644.204 476.557 651.26 478.11C663.397 480.65 676.803 480.367 686.963 487.564C691.197 490.528 694.584 495.044 694.584 500.265C694.584 505.628 690.491 510.426 685.552 512.684C680.754 515.083 675.109 515.365 669.747 515.506C664.384 515.647 658.881 515.506 653.659 516.917C650.273 517.905 647.027 519.457 643.922 520.868C619.65 531.735 590.862 534.557 566.448 523.973C561.368 521.715 556.57 519.034 551.066 518.187C545.139 517.34 539.354 518.893 533.427 519.457C525.806 520.163 518.045 518.893 510.989 516.07C505.203 513.671 499.417 509.72 497.724 503.652C496.171 498.007 498.853 491.798 502.663 487.423C508.025 481.355 515.787 477.686 523.548 475.852C527.923 474.864 532.439 474.299 536.955 474.017C540.624 473.735 544.152 473.876 547.821 473.17C551.49 472.465 555.3 471.9 558.969 470.771C563.203 469.501 567.295 468.09 571.387 466.679C576.044 465.268 580.701 463.715 585.358 462.445Z" fill="#7BC144"/>
    <path d="M552.054 481.778C552.619 487.705 542.882 491.657 544.857 497.301C551.066 496.455 556.147 492.08 561.65 488.975C567.154 485.871 574.774 484.46 579.149 488.975C579.713 489.54 580.278 490.387 580.984 490.81C583.806 492.927 587.757 490.81 590.721 488.834C593.966 486.717 597.353 484.742 601.163 484.036C604.974 483.331 609.207 484.036 612.03 486.576C612.876 487.423 613.582 488.411 614.57 488.975C616.686 490.245 619.509 489.681 621.767 488.411C624.025 487.282 626 485.73 628.399 485.024C630.657 484.46 633.056 484.883 635.032 486.012C637.431 487.564 639.124 490.104 641.523 491.657C645.051 493.773 649.567 493.209 653.659 493.209C657.752 493.209 662.691 494.338 664.243 498.289C666.078 502.805 661.421 507.885 656.623 508.45C651.684 509.014 647.027 506.615 642.652 504.357C638.278 502.099 633.621 499.7 628.682 500.406C624.166 500.97 620.356 504.216 616.263 506.192C612.171 508.167 606.385 509.014 603.421 505.486C602.716 504.64 602.151 503.652 601.446 502.946C599.47 501.253 596.365 501.817 594.249 503.369C592.132 504.781 590.438 506.897 588.322 508.45C583.947 511.554 577.597 511.272 573.363 508.026C571.952 506.897 570.823 505.627 569.412 504.781C566.731 503.228 563.203 503.369 560.239 504.357C557.276 505.345 554.453 507.039 551.631 508.309C547.962 510.002 543.728 510.849 539.777 510.143C535.543 509.296 532.58 506.756 530.745 502.805C529.052 503.087 522.984 505.345 522.843 502.099C522.702 499.277 525.665 497.725 527.641 496.455C532.862 492.927 537.237 488.129 542.74 484.883C545.422 483.048 548.667 481.778 552.054 481.778Z" fill="#D6D6D6"/>
    <path d="M702.769 627.836H756.817C756.817 627.836 744.963 723.232 744.963 723.514C744.963 723.796 744.822 723.938 744.54 723.938C744.398 723.938 729.581 723.938 729.581 723.938L725.771 723.796L724.642 710.955L704.603 710.39L702.769 723.938H688.516L702.769 627.836Z" fill="#7BC144"/>
    <path d="M757.381 627.836H703.333C703.333 627.836 715.187 723.373 715.187 723.514C715.187 723.655 715.187 723.796 715.328 723.796C715.469 723.796 729.581 723.796 729.581 723.796L728.17 710.813C728.17 710.813 754.559 710.249 754.982 710.249C755.406 710.249 755.547 710.39 755.547 710.813C755.829 713.213 757.24 723.091 757.24 723.373C757.24 723.655 757.381 723.796 757.805 723.796C758.228 723.796 770.505 723.796 770.505 723.796L771.634 723.655L757.381 627.836Z" fill="#C8DC8C"/>
    <path d="M495.466 669.325C495.325 667.349 494.478 665.515 493.35 663.821C490.527 659.588 491.515 656.06 493.067 652.814C496.172 646.605 496.172 641.242 494.902 637.573C493.208 632.775 489.398 629.247 484.459 627.695C484.036 627.554 483.753 627.413 483.471 627.131C483.33 626.848 483.33 626.566 483.471 626.284C483.895 623.885 484.6 621.345 483.753 619.087C482.624 615.982 481.496 614.571 480.225 611.608C479.52 609.914 478.391 608.221 476.839 606.951C475.569 605.963 472.605 605.963 471.053 605.822C468.23 605.539 465.408 606.527 463.009 607.938C461.175 608.926 459.34 610.338 457.364 609.773C456.659 609.632 456.094 609.209 455.389 608.926C452.707 607.939 449.603 609.067 447.909 611.325C446.216 613.583 445.793 616.547 446.216 619.369C446.639 622.05 447.909 625.155 446.075 627.131C444.381 629.106 437.749 629.247 438.878 633.058C439.16 634.045 439.866 634.751 440.43 635.598C440.995 636.444 441.418 637.573 440.995 638.42C440.571 639.549 439.16 639.831 438.031 640.396C435.773 641.242 435.068 649.286 436.197 651.403C438.031 654.366 439.301 656.907 442.688 658.318C441.277 660.717 436.902 662.834 435.632 668.761C434.644 673.135 436.055 677.228 438.454 680.897C440.854 684.707 445.793 687.529 447.204 689.082C448.333 690.352 449.603 691.904 449.603 693.597C449.603 694.444 449.462 695.432 449.744 696.279C450.732 698.537 454.401 698.113 455.53 700.512C456.518 702.629 456.094 706.016 456.376 708.415C456.659 710.814 457.788 712.931 458.917 715.047C459.199 715.471 459.481 716.035 459.904 716.317C460.469 716.741 461.175 716.741 461.88 716.741C463.009 716.882 464.279 716.882 465.408 716.882C467.666 717.023 469.924 717.164 472.182 716.6C473.734 716.176 475.145 715.33 476.133 714.201C476.556 713.636 476.98 713.072 476.98 712.366C476.98 711.802 476.839 711.237 476.839 710.532C476.698 707.992 476.274 705.451 476.839 703.052C477.121 701.5 477.968 700.089 479.52 699.242C480.649 698.678 482.06 698.678 483.33 698.254C486.294 697.408 488.551 694.444 488.693 691.34C488.693 688.376 486.999 684.989 488.551 682.449C489.116 681.461 490.245 680.756 491.092 679.909C492.503 678.498 494.055 676.663 494.761 674.829C495.607 673.417 495.607 671.301 495.466 669.325Z" fill="#C8DC8C"/>
    <path d="M462.162 723.937C462.444 723.937 470.347 723.655 474.298 723.655C476.838 723.655 479.519 723.514 481.777 722.526C482.624 722.102 484.035 721.397 484.176 720.268C484.317 718.574 484.317 716.74 484.458 715.047C484.741 709.825 485.305 704.463 485.023 699.382C485.023 699.241 485.023 698.959 484.882 698.818C484.741 698.536 484.317 698.536 484.035 698.536C474.157 698.536 464.278 698.536 454.4 698.395C453.977 698.395 453.412 698.395 453.271 698.818C453.13 698.959 453.13 699.241 453.13 699.524C452.989 704.039 453.13 714.764 453.13 716.175C453.13 717.587 453.13 719.421 453.836 720.691C455.247 723.09 459.198 723.796 462.162 723.937Z" fill="#00643A"/>
    <path d="M439.442 642.936C440.289 641.807 441.418 640.819 441.841 639.549C442.264 638.42 441.841 637.15 441.841 635.88C441.418 631.787 444.24 631.928 446.921 629.953C449.461 628.259 449.603 624.59 449.461 621.627C449.32 618.522 447.909 613.724 450.873 611.325C454.401 608.362 457.787 611.89 460.61 612.172C463.714 612.454 465.69 609.208 468.23 608.079C472.746 606.104 477.262 607.233 480.507 611.89C481.072 606.104 475.004 600.741 468.654 603.564C467.383 604.128 464.42 606.104 461.88 606.104C459.622 606.104 458.07 605.116 456.658 604.551C454.259 603.564 451.296 604.128 448.897 605.539C445.651 607.656 444.24 609.914 443.676 613.724C443.111 617.393 444.946 622.05 442.97 625.155C441.559 627.271 438.595 628.259 437.466 630.376C436.337 632.775 436.62 635.033 436.478 637.009C436.478 638.843 436.196 640.537 435.35 642.089C433.515 645.335 433.515 649.286 435.35 652.673C436.761 655.354 438.031 657.33 442.688 658.741C435.067 652.532 437.607 646.04 439.16 643.641C439.301 643.218 439.442 643.077 439.442 642.936Z" fill="#7BC144"/>
    <path d="M481.495 700.795C482.342 701.077 483.048 701.641 483.048 702.629C483.189 704.887 483.189 713.354 482.624 715.189C481.072 719.563 476.415 721.821 472.181 723.938C473.31 723.938 475.992 723.938 475.992 723.938C475.992 723.938 480.084 723.938 481.072 723.938C482.06 723.938 483.471 722.668 483.753 722.244C483.894 722.103 483.894 722.103 484.035 721.962C485.588 720.128 486.434 717.87 486.858 715.471C487.704 711.096 487.846 703.758 487.422 701.782C487.14 700.371 487.14 698.537 485.87 697.549C479.096 698.537 462.444 698.396 462.444 698.396C462.444 698.396 470.065 699.242 470.488 699.242C473.593 699.524 476.697 699.948 479.661 700.371C480.366 700.512 480.931 700.512 481.495 700.795Z" fill="#7BC144"/>
    <path d="M706.297 628.965C712.083 628.965 741.859 629.388 753.289 629.388C754.136 629.388 755.124 629.388 755.829 629.812C756.394 630.235 756.817 631.223 757.382 634.892C758.229 640.678 765.002 695.855 770.365 723.796C771.353 723.796 772.905 723.796 773.046 723.796C773.187 723.796 773.187 723.655 773.187 723.655C773.893 717.446 765.849 661.281 760.91 631.505C760.628 630.094 760.486 628.683 760.204 627.413C759.922 626.001 758.652 625.437 756.676 625.437C748.491 625.437 740.307 625.155 731.981 625.155C723.796 625.014 715.611 624.872 707.285 624.872C706.156 624.872 703.616 624.59 703.051 625.86C702.628 626.707 702.628 627.413 702.628 628.4C702.769 629.106 704.321 628.965 706.297 628.965Z" fill="#7BC144"/>
</svg>
