<svg version="1.1" id="api" xmlns="http://www.w3.org/2000/svg" xmlns:xlink="http://www.w3.org/1999/xlink" x="0px" y="0px"
	 width="300px" height="250px" viewBox="0 0 300 250" enable-background="new 0 0 300 250" xml:space="preserve">
<g>
	<path fill="none" stroke="#444444" stroke-width="2" stroke-linecap="round" stroke-linejoin="round" stroke-miterlimit="10" d="
		M62.112,174.746c0.426-0.426,0.896-0.895,1.351-1.35c1.351-1.35,1.483-1.615,2.235-1.916c0.75-0.301,3.301-0.301,6.304-0.451
		c3.001-0.15,3.751-0.449,7.804-0.449c4.053,0,13.809,0.6,17.112,0.6c3.302,0,12.308,0.15,16.211,0.15
		c3.902,0,8.105,0.75,10.055,0.15c1.952-0.602,0.301-5.104-0.75-6.605c-1.051-1.501-4.203-5.252-4.803-6.453
		c-0.6-1.201-0.75-1.201-0.3-2.401c0.451-1.201,1.953-5.252,3.453-9.006c1.501-3.753,5.853-18.313,6.153-20.113
		c0.3-1.801,3.599-10.957,3.897-13.208c0.302-2.251,2.851-5.253,3.451-6.005l4.601-0.782l5.448-0.52"/>
	<path fill="none" stroke="#444444" stroke-width="2" stroke-linecap="round" stroke-linejoin="round" stroke-miterlimit="10" d="
		M130.685,113.093c0,0-4.199,0.6-7.05,0.6s-16.209,1.801-21.614,2.251c-5.404,0.45-12.759,0.9-17.562,1.05
		c-4.804,0.149-10.806,0.9-12.758,0.9c-1.95,0-9.756,0.451-9.756,1.953c0,1.5,0.901,12.908,1.2,17.26
		c0.302,4.352,1.954,12.458,1.954,14.709c0,2.251-0.152,6.153,1.35,6.304c1.5,0.15,14.56-0.299,18.762-0.299
		s13.508-0.152,16.061-0.152c2.552,0,6.605-0.449,9.155-0.449c2.552,0,6.305,0.149,6.305,0.149"/>
	<path fill="none" stroke="#444444" stroke-width="2" stroke-linecap="round" stroke-linejoin="round" stroke-miterlimit="10" d="
		M110.236,171.662c2.818,0.402,6.185,4.895,4.897,8.246c-1.288,3.352-4.252,3.607-7.088,3.607c-2.835,0-5.154-2.961-5.154-6.053
		C102.891,174.369,106.627,171.146,110.236,171.662z"/>
	<path fill="none" stroke="#444444" stroke-width="2" stroke-linecap="round" stroke-linejoin="round" stroke-miterlimit="10" d="
		M109.816,174.676c1.387,0.199,3.047,2.412,2.412,4.062c-0.635,1.652-2.095,1.777-3.491,1.777c-1.398,0-2.542-1.461-2.542-2.984
		S108.038,174.42,109.816,174.676z"/>
	<path fill="none" stroke="#444444" stroke-width="2" stroke-linecap="round" stroke-linejoin="round" stroke-miterlimit="10" d="
		M80.215,174.416c1.388,0.197,3.046,2.412,2.412,4.062c-0.636,1.648-2.095,1.777-3.493,1.777c-1.397,0-2.54-1.459-2.54-2.982
		S78.437,174.162,80.215,174.416z"/>
	<path fill="none" stroke="#444444" stroke-width="2" stroke-linecap="round" stroke-linejoin="round" stroke-miterlimit="10" d="
		M80.229,171.014c2.333,0,7.087,2.836,5.54,7.477c-1.546,4.639-4.123,4.768-7.086,4.768c-2.964,0-6.314-3.867-5.928-6.443
		C73.142,174.238,76.621,171.014,80.229,171.014z"/>
	<path fill="none" stroke="#444444" stroke-width="2" stroke-linecap="round" stroke-linejoin="round" stroke-miterlimit="10" d="
		M74.178,117.895c0,0,0.75,6.004,0.75,9.907c0,3.903,0.149,6.454,0.149,10.506c0,4.054,0.301,10.058,0.301,11.408
		c0,1.351,0.301,7.954,0.301,7.954"/>
	<path fill="none" stroke="#444444" stroke-width="2" stroke-linecap="round" stroke-linejoin="round" stroke-miterlimit="10" d="
		M85.889,117.017c0,0,0.75,6.138,0.75,10.127s0.149,6.596,0.149,10.737c0,4.143,0.301,10.279,0.301,11.66
		c0,1.38,0.301,8.129,0.301,8.129"/>
	<path fill="none" stroke="#444444" stroke-width="2" stroke-linecap="round" stroke-linejoin="round" stroke-miterlimit="10" d="
		M99.154,116.545c0,0.75-0.3,9.005-0.3,13.058s0.15,7.806,0.3,10.957c0.149,3.152,0.299,4.953,0.299,7.956c0,3.002,0,8.854,0,8.854"
		/>
	<path fill="none" stroke="#444444" stroke-width="2" stroke-linecap="round" stroke-linejoin="round" stroke-miterlimit="10" d="
		M115.936,114.894c0,0-1.352,5.854-1.651,10.206c-0.301,4.353-1.651,10.506-2.402,15.161c-0.751,4.651-2.401,8.705-2.853,11.256
		c-0.45,2.551-1.051,5.401-1.051,5.401"/>
	<path fill="none" stroke="#444444" stroke-width="2" stroke-linecap="round" stroke-linejoin="round" stroke-miterlimit="10" d="
		M126.937,125.235c-0.75,0-10.205,0-17.111,0.45c-6.904,0.45-11.257,1.351-16.961,1.501c-5.703,0.151-16.661,1.351-20.862,1.5
		c-4.202,0.15-9.157,1.051-9.157,1.051"/>
	<path fill="none" stroke="#444444" stroke-width="2" stroke-linecap="round" stroke-linejoin="round" stroke-miterlimit="10" d="
		M120.743,146.894c-0.589,0-16.49,0.149-23.263,0.3c-6.772,0.15-11.338,0.301-17.963,0.301c-6.625,0-6.772-0.151-9.276,0
		c-2.501,0.15-5.595,0.451-5.595,0.451"/>
	<path fill="none" stroke="#444444" stroke-width="2" stroke-linecap="round" stroke-linejoin="round" stroke-miterlimit="10" d="
		M123.983,136.898c-0.635,0-17.769,0.15-25.068,0.301c-7.297,0.151-12.217,0.3-19.356,0.3c-7.138,0-7.296-0.149-9.993,0
		c-2.697,0.149-6.032,0.451-6.032,0.451"/>
</g>
<path fill="none" stroke="#444444" stroke-width="2" stroke-linecap="round" stroke-linejoin="round" stroke-miterlimit="10" d="
	M42.455,53.2c-0.476,2.233-0.91,37.646-1.021,46.613c-0.11,8.964,3.436,48.91,3.319,58.324c-0.115,9.412,1.791,36.781,1.791,36.781
	s63.229-1.016,80.714-0.803c17.497,0.217,66.821,1.273,78.48,0.963c11.659-0.301,32.741-0.941,38.124-1.324
	c5.382-0.381,13.901-0.277,13.901-0.277s-0.685-53.806-0.548-65.015c0.141-11.207,0.754-61.414,0.813-66.344
	c0.061-4.93,0.135-10.757,0.135-10.757s-32.729,0.045-46.627-0.126c-13.896-0.17-78.068,2.632-87.044,2.522
	c-8.968-0.109-35.882,1.354-46.64,1.221C67.095,54.846,42.455,53.2,42.455,53.2z"/>
<path fill="none" stroke="#444444" stroke-width="2" stroke-miterlimit="10" d="M41.333,67.682c48.843,0,98.753-2.208,147.985,0
	c22.832,1.024,45.649-1.333,68.016-1.333"/>
<path fill="#444444" d="M95.772,82.075c0.191,0,0.912,0.432,1.057,0.528c0.111,0.08,0.159,0.192,0.159,0.304
	c0,0.064-0.031,0.144-0.031,0.144c-0.881,2.177-3.378,6.723-5.715,9.46c-0.08,0.096-0.191,0.16-0.32,0.16
	c-0.08,0-0.144-0.032-0.144-0.032c-0.288-0.128-0.673-0.4-0.944-0.608c-0.064-0.048-0.112-0.128-0.112-0.208
	c0-0.064,0.032-0.128,0.08-0.176c0.353-0.4,1.04-1.249,1.841-2.385c0.032-0.048,0.048-0.096,0.048-0.128
	c0-0.08-0.08-0.144-0.176-0.192l-0.24-0.096c-0.224-0.096-0.288-0.256-0.336-0.4c-0.496-1.409-1.121-5.058-1.121-5.906
	c0-0.144,0.097-0.288,0.24-0.336c0.32-0.08,0.896-0.16,1.137-0.16c0.145,0,0.256,0.112,0.272,0.256
	c0.144,1.745,0.464,3.746,0.88,5.554c0.017,0.08,0.048,0.128,0.096,0.128c0.032,0,0.064-0.032,0.097-0.08
	c0.96-1.521,2.001-3.458,2.913-5.634C95.5,82.139,95.645,82.075,95.772,82.075z M99.291,92.623c-0.88,0-1.969-0.56-2.353-1.008
	c-0.513-0.592-0.753-1.361-0.753-2.193c0-1.937,1.169-4.882,3.378-4.882c0.864,0,2.305,0.833,2.801,1.841
	c0.128,0.256,0.24,0.816,0.256,1.329C102.62,89.229,101.692,92.623,99.291,92.623z M100.924,87.597c0-0.929-0.336-1.585-0.992-1.585
	c-1.201,0-2.098,2.049-2.098,3.649c0,0.865,0.305,1.537,1.009,1.537C100.123,91.198,100.924,89.149,100.924,87.597z M110.332,85.148
	c0,0.08-0.032,0.192-0.032,0.192c-0.688,2.128-1.088,5.554-1.152,7.011c0,0.144-0.096,0.256-0.24,0.256
	c-0.144,0-0.656-0.128-0.896-0.224c-0.192-0.08-0.257-0.256-0.272-0.416c-0.016-0.24-0.032-0.688-0.032-1.057
	c0-0.096-0.032-0.128-0.063-0.128c-0.032,0-0.064,0.016-0.097,0.08c-0.704,1.041-1.553,1.761-2.112,1.761
	c-0.833,0-1.985-1.072-1.985-2.417c0-1.921,0.704-4.434,1.089-5.426c0.048-0.128,0.176-0.224,0.304-0.224
	c0.192,0,0.801,0.288,1.057,0.448c0.112,0.064,0.16,0.176,0.16,0.288c0,0.096-0.032,0.176-0.032,0.176
	c-0.368,1.072-1.072,4.018-1.072,5.138c0,0.272,0.048,0.432,0.145,0.432c0.576,0,1.664-0.8,2.496-1.729
	c0.112-0.128,0.209-0.352,0.24-0.512c0.24-1.504,0.608-3.201,0.896-4.018c0.048-0.144,0.192-0.24,0.336-0.24
	c0.145,0,0.849,0.224,1.089,0.32C110.269,84.908,110.332,85.02,110.332,85.148z M115.291,84.572c0.128,0,0.24,0.08,0.272,0.224
	c0.048,0.336,0.08,0.896,0.096,1.329c0,0.16-0.128,0.304-0.288,0.336c-0.544,0.096-1.329,0.32-1.905,0.592
	c-0.144,0.064-0.271,0.224-0.319,0.416c-0.353,1.409-0.785,3.858-0.944,4.882c-0.032,0.144-0.145,0.24-0.289,0.24
	c-0.224,0-0.768-0.16-1.024-0.272c-0.128-0.048-0.208-0.192-0.208-0.336c0-0.096,0.032-0.256,0.032-0.256l1.152-6.931
	c0.032-0.144,0.145-0.24,0.288-0.24c0.112,0,0.769,0.192,0.961,0.256c0.144,0.048,0.256,0.176,0.256,0.336
	c0,0.112-0.016,0.32-0.016,0.464c0,0.096,0.016,0.144,0.08,0.144c0.031,0,0.063-0.016,0.111-0.064
	C113.866,85.34,114.73,84.572,115.291,84.572z M125.164,82.683c0.24,1.409,0.336,4.866,0.336,7.395c0,1.072-0.032,1.873-0.096,2.385
	c-0.032,0.144-0.16,0.224-0.305,0.224c-0.144,0-0.88-0.064-1.104-0.16c-0.16-0.08-0.24-0.208-0.24-0.432
	c0.017-0.8,0.032-1.44,0.032-2.161c0-0.144-0.128-0.24-0.272-0.24c-0.768,0.032-1.969,0.032-2.608,0.08
	c-0.177,0.016-0.272,0.128-0.336,0.256c-0.368,0.849-0.721,1.713-1.041,2.529c-0.048,0.112-0.16,0.176-0.271,0.176
	c-0.032,0-0.08-0.016-0.112-0.032c-0.256-0.128-0.608-0.336-0.801-0.48c-0.128-0.096-0.176-0.176-0.176-0.288
	c0-0.032,0.016-0.112,0.032-0.144c0.208-0.528,0.399-1.136,0.656-1.792c0.032-0.08,0.063-0.176,0.063-0.208
	c0-0.048-0.063-0.064-0.08-0.064c-0.111-0.016-0.16-0.032-0.224-0.208c-0.048-0.128-0.08-0.496-0.08-0.624
	c0-0.144,0.063-0.256,0.192-0.288l0.432-0.096c0.16-0.032,0.433-0.096,0.496-0.288c1.281-2.721,2.449-4.978,3.138-5.81
	c0.063-0.08,0.176-0.144,0.304-0.144c0.145,0,0.32,0.096,0.433,0.096c0.08,0,0.112-0.064,0.144-0.208
	c0.032-0.112,0.097-0.176,0.208-0.176c0.177,0,0.816,0.192,1.009,0.304C125.084,82.395,125.147,82.539,125.164,82.683z
	 M121.466,88.157c0,0.08,0.08,0.144,0.208,0.144c0.08,0,1.697-0.048,1.841-0.048c0.16,0,0.288-0.112,0.305-0.272
	c-0.017-1.696-0.048-3.153-0.08-4.209c0,0,0-0.112-0.064-0.112c-0.048,0-0.08,0.08-0.08,0.08c-0.512,1.024-1.312,2.593-2.112,4.338
	C121.466,88.109,121.466,88.141,121.466,88.157z M135.148,84.556c0.208,0,0.929,0.496,1.072,0.625
	c0.112,0.112,0.176,0.24,0.176,0.368c0,0.08-0.016,0.16-0.016,0.16c-0.32,1.632-1.713,5.538-2.801,6.723
	c-0.097,0.096-0.257,0.16-0.4,0.16c-0.384,0-1.232-0.416-1.617-0.736c-0.128-0.096-0.208-0.32-0.239-0.48
	c-0.064-0.416-0.208-1.745-0.257-3.025c0-0.08-0.016-0.096-0.031-0.096c-0.017,0-0.032,0.016-0.049,0.08
	c-0.448,1.552-0.992,3.201-1.601,4.065c-0.08,0.112-0.256,0.192-0.399,0.192c-0.337,0-1.281-0.448-1.633-0.736
	c-0.177-0.145-0.225-0.32-0.24-0.48c-0.017-0.192-0.017-0.448-0.017-0.768c0-1.265,0.08-3.377,0.08-4.962
	c0-0.304-0.016-0.592-0.016-0.848c0-0.16,0.128-0.288,0.288-0.288c0.336,0.016,0.864,0.064,1.217,0.128
	c0.144,0.016,0.256,0.192,0.256,0.352c-0.144,2.481-0.272,4.898-0.304,5.794c0,0.08,0.016,0.128,0.048,0.128
	c0.016,0,0.048-0.032,0.08-0.096c0.512-1.104,1.792-4.594,2.225-6.035c0.048-0.128,0.176-0.24,0.32-0.24
	c0.208,0,0.88,0.16,1.072,0.224c0.16,0.048,0.256,0.208,0.256,0.368c0,0.224-0.032,0.977-0.032,1.441
	c0,1.889,0.145,3.505,0.177,4.209c0,0.096,0.032,0.128,0.063,0.128c0.032,0,0.064-0.032,0.097-0.08
	c0.608-0.993,1.616-4.274,2.001-6.067C134.956,84.636,135.036,84.556,135.148,84.556z M140.059,84.54
	c0.704,0,1.889,0.721,2.24,1.313c0.177,0.304,0.24,0.672,0.24,0.912c0,1.024-0.928,2.497-3.089,2.497
	c-0.305,0-0.576-0.032-0.816-0.08c0,0-0.128-0.032-0.16-0.032c-0.096,0-0.144,0.096-0.144,0.224c0,0.929,0.288,1.665,1.152,1.665
	c0.576,0,1.12-0.288,1.681-0.576c0,0,0.063-0.032,0.111-0.032c0.097,0,0.145,0.048,0.209,0.16c0.079,0.16,0.336,0.688,0.336,0.8
	c0,0.16-0.08,0.272-0.177,0.352c-0.592,0.448-1.248,0.88-2,0.88c-0.673,0-1.569-0.416-2.209-1.008
	c-0.385-0.352-0.736-1.104-0.736-2.417C136.697,87.037,138.17,84.54,140.059,84.54z M138.649,87.917
	c0,0.176,0.192,0.176,0.353,0.176c1.345,0,1.904-0.833,1.904-1.473c0-0.4-0.144-0.768-0.576-0.768
	C139.61,85.853,138.649,87.373,138.649,87.917z M145.209,87.517c0,1.136,3.186,1.008,3.186,2.849c0,1.056-1.072,2.273-2.609,2.273
	c-0.992,0-2.272-0.496-2.673-0.929c-0.096-0.096-0.144-0.224-0.144-0.32c0-0.16,0.16-0.496,0.336-0.849
	c0.048-0.096,0.112-0.144,0.192-0.144s0.16,0.048,0.16,0.048c0.464,0.256,1.393,0.752,2.097,0.752c0.496,0,0.96-0.256,0.992-0.544
	c0-0.896-3.249-1.008-3.249-3.042c0-1.296,1.312-3.073,2.448-3.073c0.769,0,2.993,0.801,2.993,1.873c0,0.32-0.208,1.041-0.416,1.329
	c-0.111,0.16-0.224,0.224-0.416,0.224h-0.832c-0.16,0-0.24-0.112-0.24-0.192c0-0.16,0.24-0.656,0.24-1.12
	c0-0.4-0.128-0.736-0.593-0.736C145.882,85.917,145.209,86.989,145.209,87.517z M152.666,92.623c-0.88,0-1.969-0.56-2.353-1.008
	c-0.513-0.592-0.753-1.361-0.753-2.193c0-1.937,1.169-4.882,3.378-4.882c0.864,0,2.305,0.833,2.801,1.841
	c0.128,0.256,0.24,0.816,0.256,1.329C155.995,89.229,155.067,92.623,152.666,92.623z M154.299,87.597
	c0-0.929-0.336-1.585-0.992-1.585c-1.201,0-2.098,2.049-2.098,3.649c0,0.865,0.305,1.537,1.009,1.537
	C153.498,91.198,154.299,89.149,154.299,87.597z M165.5,84.508c0.849,0,1.761,1.168,1.761,1.969c0,0.752-0.496,3.762-1.072,5.89
	c-0.032,0.128-0.177,0.24-0.305,0.24c-0.176,0-0.848-0.208-1.088-0.32c-0.128-0.064-0.192-0.208-0.192-0.336
	c0-0.064,0.032-0.192,0.032-0.192c0.256-0.993,0.929-3.746,0.929-4.978c0-0.352-0.064-0.576-0.209-0.576
	c-0.368,0-1.312,0.512-2.128,1.473c-0.112,0.112-0.209,0.336-0.225,0.496c-0.208,1.232-0.561,2.913-0.912,4.193
	c-0.032,0.128-0.177,0.24-0.305,0.24c-0.271,0-0.976-0.256-1.088-0.32c-0.112-0.064-0.192-0.176-0.192-0.32
	c0-0.096,0.032-0.208,0.032-0.208c0.256-0.993,0.929-3.746,0.929-4.978c0-0.352-0.064-0.576-0.209-0.576
	c-0.352,0-1.264,0.48-2.064,1.393c-0.112,0.112-0.224,0.352-0.256,0.496c-0.305,1.44-0.688,3.394-0.849,4.258
	c-0.016,0.144-0.144,0.24-0.272,0.24c-0.256,0-0.864-0.224-1.024-0.288c-0.159-0.064-0.208-0.176-0.208-0.32
	c0-0.08,0.032-0.24,0.032-0.24c0.24-1.296,0.961-5.57,1.152-6.947c0.017-0.16,0.128-0.24,0.288-0.24
	c0.192,0,0.801,0.176,0.977,0.256c0.208,0.096,0.272,0.24,0.272,0.4c0,0.048-0.017,0.432-0.017,0.608
	c0,0.096,0.017,0.144,0.064,0.144c0.032,0,0.064-0.032,0.112-0.08c0.672-0.784,1.408-1.376,1.937-1.376
	c0.721,0,1.488,0.816,1.729,1.553c0.032,0.08,0.064,0.128,0.128,0.128c0.048,0,0.112-0.08,0.112-0.08
	C164.107,85.212,164.924,84.508,165.5,84.508z M171.466,84.54c0.704,0,1.889,0.721,2.24,1.313c0.177,0.304,0.24,0.672,0.24,0.912
	c0,1.024-0.928,2.497-3.089,2.497c-0.305,0-0.576-0.032-0.816-0.08c0,0-0.128-0.032-0.16-0.032c-0.096,0-0.144,0.096-0.144,0.224
	c0,0.929,0.288,1.665,1.152,1.665c0.576,0,1.12-0.288,1.681-0.576c0,0,0.063-0.032,0.111-0.032c0.097,0,0.145,0.048,0.209,0.16
	c0.079,0.16,0.336,0.688,0.336,0.8c0,0.16-0.08,0.272-0.177,0.352c-0.592,0.448-1.248,0.88-2,0.88c-0.673,0-1.569-0.416-2.209-1.008
	c-0.385-0.352-0.736-1.104-0.736-2.417C168.104,87.037,169.577,84.54,171.466,84.54z M170.057,87.917
	c0,0.176,0.192,0.176,0.353,0.176c1.345,0,1.904-0.833,1.904-1.473c0-0.4-0.144-0.768-0.576-0.768
	C171.018,85.853,170.057,87.373,170.057,87.917z M181.834,90.062c0-0.672-0.8-1.088-1.681-1.553
	c-1.104-0.592-2.225-1.36-2.225-2.865c0-1.696,1.521-3.649,3.058-3.649c0.752,0,3.329,0.96,3.329,2.225
	c0,0.464-0.24,1.249-0.448,1.617c-0.128,0.224-0.208,0.272-0.384,0.272c-0.112,0.016-0.608,0.016-0.881,0.016
	c-0.192,0-0.288-0.16-0.288-0.256c0-0.24,0.224-0.736,0.224-1.408c0-0.608-0.384-1.024-1.072-1.024
	c-1.024,0-1.856,1.488-1.856,2.193c0,0.72,0.624,1.136,1.488,1.584c1.121,0.576,2.401,1.216,2.401,2.641
	c0,1.584-1.457,2.849-3.025,2.849c-0.752,0-2.049-0.592-2.673-1.168c-0.32-0.288-0.576-0.528-0.704-1.537
	c0,0-0.017-0.144-0.017-0.208c0-0.208,0.128-0.288,0.288-0.352c0.32-0.128,0.593-0.256,0.753-0.272c0.224,0,0.271,0.16,0.288,0.272
	c0.176,0.864,0.672,1.776,1.744,1.776C181.162,91.214,181.834,90.574,181.834,90.062z M189.498,84.508
	c0.849,0,1.745,1.168,1.761,1.969c0,0.752-0.544,3.746-1.089,5.875c-0.048,0.128-0.176,0.24-0.319,0.24
	c-0.192,0-0.865-0.208-1.073-0.32c-0.128-0.064-0.191-0.192-0.191-0.32c0-0.064,0.032-0.192,0.032-0.192
	c0.256-1.008,0.928-3.793,0.928-5.01c0-0.336-0.048-0.544-0.192-0.544c-0.399,0-1.568,0.64-2.496,1.681
	c-0.112,0.112-0.209,0.352-0.24,0.496c-0.24,1.296-0.448,2.657-0.593,3.954c-0.016,0.144-0.128,0.256-0.271,0.256
	c-0.24,0-0.849-0.176-1.009-0.24c-0.191-0.08-0.256-0.256-0.256-0.417c0.112-2.593,1.425-8.611,2.097-10.148
	c0.048-0.128,0.208-0.208,0.352-0.208c0.145,0,0.801,0.192,1.009,0.272c0.128,0.048,0.192,0.176,0.192,0.288
	c0,0.048-0.017,0.096-0.017,0.096c-0.271,0.752-0.64,1.969-1.024,3.746c0,0-0.016,0.08-0.016,0.144c0,0.048,0.016,0.064,0.032,0.064
	c0.016,0,0.048-0.016,0.096-0.064C188.025,85.212,188.922,84.508,189.498,84.508z M195.192,92.623c-0.88,0-1.969-0.56-2.353-1.008
	c-0.513-0.592-0.753-1.361-0.753-2.193c0-1.937,1.169-4.882,3.378-4.882c0.864,0,2.305,0.833,2.801,1.841
	c0.128,0.256,0.24,0.816,0.257,1.329C198.522,89.229,197.594,92.623,195.192,92.623z M196.825,87.597
	c0-0.929-0.336-1.585-0.992-1.585c-1.2,0-2.097,2.049-2.097,3.649c0,0.865,0.304,1.537,1.008,1.537
	C196.025,91.198,196.825,89.149,196.825,87.597z M203.081,84.476c0.96,0,2.721,1.825,2.721,2.945c0,2.561-1.552,5.202-3.857,5.202
	c-0.336,0-0.704-0.192-1.088-0.496c-0.048-0.032-0.08-0.048-0.128-0.048c-0.064,0-0.128,0.048-0.145,0.144l-0.432,2.833
	c-0.017,0.144-0.129,0.24-0.272,0.24c-0.176,0-0.721-0.16-0.929-0.272c-0.16-0.08-0.224-0.208-0.224-0.352
	c0-0.064,0.016-0.272,0.016-0.272c0.192-1.793,0.849-5.603,1.329-7.763c0,0,0.016-0.08,0.016-0.144c0-0.176-0.112-0.608-0.112-0.72
	c0-0.16,0.097-0.256,0.208-0.32C201.24,84.764,202.152,84.476,203.081,84.476z M204.138,87.581c0-1.312-0.736-1.584-1.568-1.584
	c-0.112,0-0.177,0-0.288,0.016c-0.145,0.016-0.337,0.096-0.417,0.304c-0.384,1.121-1.008,4.098-1.008,4.338
	c0,0.32,0.448,0.448,0.672,0.448C203.385,91.103,204.138,88.958,204.138,87.581z"/>
<path fill="#444444" d="M47.786,61.674l-0.009,0.001c-0.022-0.094-0.024-0.223-0.024-0.225l0,0c0.048-1.041,0.689-2.325,2.25-2.444
	l0,0c0.114,0,0.187,0.013,0.23,0.018l0,0l0,0c1.234,0.09,2.072,1.146,2.016,2.088l0,0c-0.008,0.771-0.379,1.519-1.133,1.928l0,0
	c-0.362,0.184-0.744,0.263-1.11,0.263l0,0C49.04,63.262,48.009,62.846,47.786,61.674L47.786,61.674z"/>
<path fill="#444444" d="M57.514,58.939l-0.001-0.009c0.094-0.022,0.223-0.024,0.225-0.024l0,0c1.041,0.048,2.325,0.689,2.444,2.25
	l0,0c0,0.114-0.013,0.187-0.018,0.23l0,0l0,0c-0.09,1.234-1.146,2.072-2.088,2.016l0,0c-0.771-0.008-1.519-0.379-1.928-1.133l0,0
	c-0.184-0.362-0.263-0.744-0.263-1.11l0,0C55.926,60.193,56.342,59.163,57.514,58.939L57.514,58.939z"/>
<path fill="#444444" d="M66.351,63.371l0.001,0.009c-0.094,0.022-0.223,0.024-0.225,0.024l0,0c-1.041-0.048-2.325-0.689-2.444-2.25
	l0,0c0-0.114,0.013-0.187,0.018-0.23l0,0l0,0c0.09-1.234,1.146-2.072,2.088-2.016l0,0c0.771,0.008,1.519,0.379,1.928,1.133l0,0
	c0.184,0.362,0.263,0.744,0.263,1.11l0,0C67.938,62.117,67.522,63.147,66.351,63.371L66.351,63.371z"/>
<path fill="#444444" d="M204.865,168.564c0.172,2.072,1.019,1.971,4.123,1.869c3.324-0.107,6.721-0.174,10.07-0.074
	c4.725,0.139,9.506,0.346,14.248,0.504c1.477,0.049,2.965,0.109,4.438,0.221c0.991,0.076,2.228,0.375,3.173-0.072
	c1.225-0.58,0.639-2.549,0.631-3.639c-0.014-1.9-0.081-3.799-0.15-5.698c-1.535-0.388-3.131,0.033-4.686-0.106
	c-1.516-0.136-2.975-0.236-4.516-0.283c-4.664-0.145-9.327-0.416-13.992-0.543c-3.027-0.082-6.408-0.277-9.477,0.016
	c-0.558,0.053-3.421-0.236-3.718,0.229c-0.534,0.834-0.396,2.879-0.478,3.861C204.432,166.074,204.763,167.348,204.865,168.564z"/>
<path fill="none" stroke="#444444" stroke-width="2" stroke-linecap="round" stroke-linejoin="round" stroke-miterlimit="10" d="
	M166.967,150.524c1.387-0.482,3.037-0.083,4.435,0.153c1.493,0.252,2.689,0.203,4.191,0.224c3.608,0.051,7.205-0.077,10.812-0.084
	c6.734-0.015,13.467,0,20.199,0c8.289,0,16.482-0.317,24.73-0.333"/>
<path fill="none" stroke="#444444" stroke-width="2" stroke-linecap="round" stroke-linejoin="round" stroke-miterlimit="10" d="
	M224.091,142.741c-3.854-1.06-9.454-0.343-13.584-0.334c-4.973,0.01-9.848-0.34-14.822-0.332c-2.332,0.003-4.66,0.106-6.986,0.21
	c-2.228,0.1-3.914-0.267-6.081-0.414c-5.24-0.355-10.574-0.258-15.784,0.287"/>
<path fill="none" stroke="#444444" stroke-width="2" stroke-linecap="round" stroke-linejoin="round" stroke-miterlimit="10" d="
	M229.522,133c-5.481-1.094-12.438-0.365-18.053,0c-7.283,0.474-14.647,0.615-21.925,0.89c-7.524,0.284-15.176-0.292-22.712-0.294"/>
<path fill="none" stroke="#444444" stroke-width="2" stroke-linecap="round" stroke-linejoin="round" stroke-miterlimit="10" d="
	M229.522,114.35c-5.481-1.094-12.438-0.365-18.053,0c-7.283,0.474-14.647,0.615-21.925,0.89c-7.524,0.284-15.176-0.292-22.712-0.294
	"/>
<path fill="none" stroke="#444444" stroke-width="2" stroke-linecap="round" stroke-linejoin="round" stroke-miterlimit="10" d="
	M167.06,124.483c5.34,1.664,15.114,0.443,20.915,0.259c4.977-0.158,9.848-0.567,14.833-0.592c6.933-0.034,13.953-0.491,20.83-0.333"
	/>
</svg>
