<svg xmlns="http://www.w3.org/2000/svg" viewBox="0 0 300 250">

  <g id="illustration03">
    <g fill="none" stroke="#444444" stroke-width="2" stroke-linejoin="round">
      <path d="M85.2,109.9c-1.1,13.8-0.2,27.7-0.4,41.5c-0.1,7.8,0.4,15.3,0.6,23.1c0.1,5,0.1,4.3,4.7,5.5c23.4,6.3,46.6,12.6,69.8,19.4c5.7,1.7,6.7-1,12-3.8c4.4-2.3,8.7-4.8,13-7.2c4.2-2.4,8.1-5.2,12.3-7.5c5.2-2.8,12.5-3.4,12.3-9.9c-0.3-10.9,0.7-21.8,0.6-32.7c-0.2-11.1,0.4-22.4,1.8-33.4c-10.7,3.1-20.5,7.7-30.7,12.1c-5.3,2.3-10.6,4.8-15.7,7.4c-4.6,2.3-9.6,0.7-14.6,0.1C128.6,121.6,107.2,113.8,85.2,109.9z"/>
      <path d="M85.2,109.9c-7.6-8.5-15.9-16.7-21.4-26.9c17.1,6.2,34.3,8.4,52,11.7c10,1.9,19.7,5.5,30,5.7c3.1,1.9,5.7,8.3,8.1,11.3c3.4,4.2,5.8,8,8,12.9c2.4,5.3,1,13.6,1.1,19.4c0.3,10,0.9,20,0.6,29.9c-0.3,8.8-1,17.9,0.5,26.7"/>
      <path d="M211.9,104.9c7.3-9.6,14.4-19.3,21.5-29c-7.6,4.2-15.3,7.9-23.5,10.6c-8.4,2.7-16.3,6.9-24.9,9.1c-2.4,0.6-3.7,4.9-5,6.9c-2.2,3.2-4.8,6.2-7,9.5c-3.2,4.9-6.9,9.3-10.7,13.8"/>
      <path d="M114,94.4c3.5-1.7,7-4.3,10-6.8c1.4-1.1,11.5,1.1,13.8,1.2c15.3,0.4,30.3,5.7,45.3,8.1"/>
      <path d="M215.5,84.3c1.4-6.3,4.8-12.9,7.3-19c-22.2-0.8-44.2-7-66.4-7.9c-5.5-0.2-11.1-0.3-16.5-1.2c-0.9-0.1-2.6-1-2.9-0.1c-0.8,2.5-1.7,5-2.8,7.4c-3.6,7.7-8.1,15.4-9.9,23.8c-8.3-7.2-15.6-17.2-21.8-26.2c-1.2-1.8-17.5,6-20,6.9c-6.9,2.3-13.7,5.5-20.2,8.7c3.5,2.7,6.7,6,9.7,9.2"/>
    </g>
  </g>

</svg>
