<svg xmlns="http://www.w3.org/2000/svg" viewBox="0 0 300 250">

  <g id="illustration02">
    <path fill="#444444" d="M82.3,47.7c-1.8,8.3-0.5,18.1-0.6,26.5c-0.1,9.2,0.8,18.4,1.5,27.6c0.6,9.4,0.7,18.7,1.3,28.1c0,0.7,0.1,7,0.7,7c2.9,0,5.9-0.1,8.8-0.1c19.7-0.3,39.4-0.4,59.1-0.1c21.7,0.4,43.3-0.9,65-0.7c-0.4-29.9-0.1-59.7,0.3-89.6C173,46.6,127.3,50.7,82.3,47.7z"/>
    <g fill="none" stroke="#444444" stroke-width="2" stroke-linecap="round" stroke-linejoin="round">
      <path d="M76.2,41.5c47.3-1,95.1-4.2,142.3-1.4c6.2,0.4,5.8-0.2,6,6c0.2,5.2,0.1,10.4,0.2,15.6c0.3,11.8,0.8,23.6,1.3,35.4c0.3,9.4,0.4,18.7,0.5,28.1c0.1,4.3,0,8.7,0.3,13.1c0.3,5.3,2.5,6.1,6.5,9.7c14.4,13.1,25.9,28.7,39.4,42.6c2.3,2.3,8.5,5.7,9.6,8.7c0.4,1.1-0.8,6.2-1.2,7.4c-0.4,1.2-2.6,0.8-3.6,0.8c-10.5,0.7-21.1,1.4-31.6,1.4c-43.5-0.1-87-0.8-130.5-1.3c-21.4-0.3-42.9-0.8-64.3-0.6c-2.1,0-33.4,0.7-33.4,0c0-2.2-1-8.2,0.5-9.8c4-4.3,8-8.5,12.1-12.6C45,169.8,61,155.9,77.1,142.8c1.8-1.5,0.8-4.1,0.7-6.3c-0.3-6.1-0.6-12.3-0.9-18.4c-0.4-8.9-0.4-17.8-0.7-26.7C75.8,74.8,74.1,57.9,76.2,41.5z"/>
      <path d="M78.7,142c25.1,0.3,50.2,0.7,75.4,0.8c24.2,0.1,48.3-0.8,72.4-0.5"/>
      <path d="M17.8,197.4c2.5,0.7,100.7,1.2,120.7,1.3c43.4,0.2,139.3,0.6,143.8,0.5"/>
      <path d="M135.2,183.6c-1.5,3.2-3.5,6.2-4.7,9.5c5.7,0.3,11.4,0.6,17.1,0.7c2.5,0.1,27.1-1.7,27.7,0c-0.9-2.7-3.7-5.9-5.5-8.1c-2-2.6-7.8-1.3-10.8-1.3C151.1,184.3,143.2,184,135.2,183.6z"/>
      <path d="M135.4,199.1c-0.3,3.7-0.2,3.8,3.2,3.9c4.2,0.2,8.4,0.3,12.7,0.4c5.3,0.1,10.5,0.1,15.8-0.1c4.7-0.1,6.3,1.2,6.3-3.7"/>
      <path d="M78.8,146.1c-3.6,3.3-7.2,6.6-10.8,10c-4.6,4.3-10.6,8.6-14.2,13.7c-2.1,3-7,5.1-6.5,9.2c0.6,4.5,4.1,2.8,8.3,2.8c19.6,0.1,39.1-0.4,58.8-1c44.2-1.4,88.3,2.1,132.5,0.1c1.4-0.1,2.9-0.1,4.3-0.3c-0.5-6.8-7.2-11.5-11.6-16.5c-4.7-5.3-8.9-11.1-13.3-16.7c-1.9-2.3-14.5-0.4-17.3-0.4c-9.3,0.1-18.6,0.2-27.9,0.1c-17.1-0.1-34.2,1.5-51.2,0.9C112.9,147.4,95.8,146.5,78.8,146.1z"/>
      <path d="M47.8,177.6c30.2,1.3,60.4-0.5,90.6-1.5c37.1-1.2,74.5,0.4,111.7,0.9"/>
      <path d="M219.5,147.3c0,1.6,2.5,4.6,3.2,5.9c1.7,2.9,3.5,5.8,5,8.8c2.5,5.2,5.8,8.9,7.7,14.4"/>
      <path d="M210.7,147.2c1.6,10,6,19.5,9.5,28.9"/>
      <path d="M201.9,147.4c-0.1,4.8,2.8,10.7,4.1,15.3c1.3,4.5,2.6,8.9,3.9,13.4"/>
      <path d="M201,176.7c-2.3-9.8-4.9-19.5-7.7-29.2"/>
      <path d="M184.9,147.6c2.7,9.5,5.1,19.1,7.7,28.6"/>
      <path d="M174.2,147.6c-0.1,4.3,3.2,9.5,4.3,13.7c1.3,4.9,2.7,9.8,4.1,14.7"/>
      <path d="M166.2,147.5c1.1,9.4,2.1,18.7,3.9,28"/>
      <path d="M157.3,147.9c0.1,9.1,0.3,18.1,1,27.2"/>
      <path d="M146.9,148.4c-0.1,8.9-0.2,17.9-0.3,26.8"/>
      <path d="M138.6,148.8c-0.1,8.9-0.4,17.8-0.8,26.6"/>
      <path d="M132.1,148.6c-0.1,9.2-1.3,18.1-2.5,27.3"/>
      <path d="M121,176.2c1.5-9.3,2.7-18.6,3.8-27.9"/>
      <path d="M116.8,147.7c-2.2,9.5-3.9,19.2-5.9,28.7"/>
      <path d="M98.8,176.8c1.1-5,4-10.1,5.9-14.8c1.8-4.6,3.1-9.5,4.7-14.2"/>
      <path d="M102,147.2c-3.4,3.3-4.9,11.2-6.9,15.5c-2.1,4.7-4.2,9.4-6.3,14.1"/>
      <path d="M75.9,177.6c6-10.2,11.9-20.3,17.5-30.7"/>
      <path d="M86,146.5c-3.2,6.2-8.9,11.7-13.1,17.2c-3.5,4.5-6.6,9.4-9.8,14.2"/>
      <path d="M54.6,169.7c5.8,1,12.6-0.1,18.4-0.2c8.1-0.2,16.2-0.5,24.3-0.5c15.2,0,30.4-0.3,45.5-0.4c33.5-0.4,67,0.9,100.5,0.7"/>
      <path d="M237.7,162.5c-28.9-0.2-57.8-0.4-86.7-1.4c-29.1-1-58.2,0.1-87.4-0.2"/>
      <path d="M71.6,152.9c52.9,0.6,106.1,2.9,159,1"/>
    </g>
    <g fill="none" stroke="#FFFFFF" stroke-width="2" stroke-linecap="round">
      <path d="M94.5,59.7c4.5,1.6,11.4-0.1,16.1-0.2c6.6-0.2,13.1,1.1,19.6,0.7"/>
      <path d="M106.5,66.3c3.6,1.7,10.3,0.2,14.1,0.2c6.6,0,13.3,0,19.9,0c13.1,0,26.4,1.9,39.5,1.2"/>
      <path d="M106.2,75.1c3.4,1.4,8.9,0.3,12.5,0.1c6.3-0.2,12.5-0.9,18.8-1.2c12.3-0.7,24.6,1.5,36.9,1.6"/>
      <path d="M107,82.9c4.1,1.2,8.6,0.2,12.7-0.2c5.8-0.5,11.7-0.6,17.5-0.7c10.6-0.2,21.6,0.9,32.1,0.1"/>
      <path d="M94.5,89.7c3.1,1.1,7.1,0,10.3,0c3.9,0,7.8,0.1,11.6,0c8.3-0.2,16.6-0.2,24.8-0.2"/>
      <path d="M108,96.7c6.8,2.1,16-0.2,23.1-0.4c9.2-0.2,18.5-0.6,27.7,0.1"/>
      <path d="M108.2,104.9c3.7,1,8.2,0,11.9-0.1c4.9-0.1,9.7-0.2,14.6-0.5c10.1-0.7,20.1-0.9,30.3-0.9"/>
      <path d="M108.2,111.2c4.2,1.2,8.8,0.6,13.1,0.5c3.9-0.1,8.4,1,12.2-0.3"/>
      <path d="M95,118c7.1,0,14.2,0.2,21.2,0.2"/>
      <path d="M109,124.2c5.3,1.7,11.6,0.2,17,0.2c7.5,0,15,0,22.5,0"/>
    </g>
  </g>

</svg>
