<svg version="1.1" id="Layer_1" width="729" height="800" viewBox="0 0 729 800" fill="none"  xmlns="http://www.w3.org/2000/svg" xmlns:xlink="http://www.w3.org/1999/xlink" x="0px" y="0px">
    <path d="M477.899 404.819C477.578 411.632 477.064 418.444 475.907 425.256C475.778 425.963 475.65 426.67 475.264 427.249C474.943 427.763 471.858 430.976 468.902 433.354C469.737 432.969 467.231 429.37 467.552 428.406C468.195 426.349 468.966 424.292 469.609 422.172C470.894 417.93 472.051 413.624 472.629 409.254C473.208 404.948 473.272 400.578 473.272 396.208C473.465 380.269 473.657 364.331 472.758 348.393C472.693 347.814 472.693 347.172 473.079 346.593C473.786 345.565 479.699 345.372 479.699 348.264C479.763 364.395 478.542 390.359 477.899 404.819Z" fill="#7BC144"/>
    <path d="M359.903 125.964C359.903 125.964 365.687 149.743 379.312 158.29C379.312 158.29 372.178 167.545 368.9 183.74C367.872 188.946 364.787 191.709 356.69 196.658C354.119 198.2 352.769 210.09 348.785 216.388C345.893 220.951 340.558 220.694 337.538 220.758C317.037 221.208 296.021 184.062 295.571 167.481C295.121 150.964 311.767 114.589 359.903 125.964Z" fill="#7BC144"/>
    <path d="M334.582 224.036C328.027 223.2 317.615 218.83 306.24 202.506C298.078 190.745 292.423 176.735 292.166 167.609C291.844 157.326 297.371 141.516 310.032 131.169C326.227 117.995 346.471 119.216 360.675 122.558C361.96 122.879 362.924 123.843 363.245 125.128C363.952 128.085 364.98 130.977 366.073 133.804C366.844 135.797 367.423 137.789 368.001 139.845C370.507 149.614 375.906 150.835 378.734 153.663C380.533 155.462 381.047 156.748 380.726 158.74C380.469 160.668 378.541 162.21 377.77 163.946C376.356 167.159 375.263 170.501 374.621 173.971C373.978 177.506 373.014 180.912 372.307 184.447C371.022 191.002 367.101 194.408 358.811 199.486C358.232 200.385 357.333 203.47 356.69 205.719C355.469 209.961 354.055 214.717 351.806 218.316C348.142 224.164 341.78 224.228 338.31 224.293H337.667C336.767 224.228 335.739 224.228 334.582 224.036ZM351.099 127.827C336.381 125.899 323.785 128.856 314.402 136.568C302.77 146.015 298.849 160.218 299.042 167.416C299.235 175.192 304.569 187.982 311.896 198.586C320.315 210.668 329.633 217.545 337.474 217.352H338.117C341.459 217.288 344.286 217.031 345.829 214.588C347.564 211.825 348.849 207.519 349.942 203.727C351.42 198.586 352.448 195.18 354.826 193.701C357.783 191.902 361.06 190.038 363.31 187.403C366.844 183.226 367.294 177.506 368.387 172.365C368.965 169.665 369.736 166.966 371.086 164.524C371.986 162.917 375.456 160.282 374.364 158.226C374.171 157.84 373.785 157.519 373.464 157.262C370.957 155.141 368.644 152.827 366.587 150.321C364.788 148.072 363.502 145.115 362.217 142.545C360.932 139.91 359.839 137.21 358.811 134.511C358.618 133.997 357.397 129.049 357.011 128.984C355.083 128.406 353.091 128.085 351.099 127.827Z" fill="#00643A"/>
    <path d="M356.625 718.573C356.625 718.573 346.728 763.11 356.625 766.195C361.317 767.673 371.6 767.416 373.592 767.159C376.034 766.838 378.476 766.388 380.918 765.809C382.846 765.36 384.71 764.781 386.702 764.781C388.309 764.781 389.852 765.167 391.394 765.488C405.726 768.573 420.7 767.416 435.289 766.902C439.466 766.773 443.643 766.645 447.821 766.195C460.546 764.781 470.121 753.084 460.803 739.845C451.484 726.606 420.7 736.632 415.494 721.915C410.224 707.198 356.625 718.573 356.625 718.573Z" fill="#767676"/>
    <path d="M412.989 409.576C418.452 447.622 423.529 488.368 428.542 523.715C431.627 545.309 433.233 567.995 430.727 589.717C429.249 602.507 427.771 615.296 426.293 628.085C423.208 655.077 420.059 682.134 416.974 709.126C416.46 713.432 416.01 717.738 415.496 721.98C415.496 721.98 364.853 721.98 359.39 721.98C358.426 721.98 357.334 722.172 356.627 721.98C353.221 721.016 352.514 717.738 352.321 716.131C350.907 703.599 350.714 660.861 350.329 648.201C349.365 617.545 352.128 605.399 353.799 582.712C355.149 564.203 348.015 537.211 346.344 528.085C345.509 523.522 343.195 504.884 341.524 504.82C339.853 504.756 338.054 519.345 336.704 526.414C334.776 536.375 319.609 670.501 314.982 710.861C314.275 717.159 311.897 720.823 305.406 721.787C304.442 721.915 305.149 722.429 303.863 722.429C296.151 722.429 270.509 722.429 260.483 722.429C257.976 722.429 257.141 721.722 257.141 721.722C257.141 721.722 256.37 721.658 256.305 720.18C255.534 706.234 251.614 630.784 252.899 600.321C254.313 566.71 240.624 496.144 258.491 428.213C276.293 426.992 294.159 425.836 311.961 424.615C326.935 423.586 341.974 422.622 356.948 421.594C370.894 420.63 386.318 421.594 399.429 416.453C404.056 414.653 412.604 407.134 412.989 409.576Z" fill="#002F19"/>
    <path d="M403.026 355.977C403.411 337.596 407.91 303.535 407.91 303.535L400.326 256.041L258.874 281.041C258.874 281.041 259.195 282.519 259.709 285.09L246.92 273.907C242.164 287.339 237.473 300.835 232.717 314.267C229.118 324.55 225.519 334.897 221.856 345.18C219.992 350.45 216.843 354.691 214.787 359.961C211.316 368.959 210.673 373.843 210.159 383.547C209.452 397.815 243.321 429.177 248.72 429.306C249.941 429.306 251.226 429.242 252.447 429.627C253.411 429.884 254.311 430.463 255.211 430.977C266.458 437.211 284.452 434.769 297.049 434.897C314.465 435.154 331.882 434.961 349.298 434.062C388.951 431.941 402.833 428.278 410.995 417.352C411.766 416.388 412.473 415.231 412.73 413.689C414.851 401.157 402.64 372.365 403.026 355.977Z" fill="#767676"/>
    <path d="M269.992 280.849C269.992 280.849 278.668 306.041 278.925 318.702C279.182 331.363 281.882 365.039 281.882 365.039L391.779 360.54C391.779 360.54 395.056 298.394 397.563 270.245C397.563 270.245 392.679 231.234 374.941 226.864C372.948 226.35 371.342 225.707 369.992 224.936C364.208 221.53 363.951 215.617 364.915 210.99C365.751 207.07 364.401 204.049 359.195 204.306C355.853 204.499 306.046 204.306 306.046 204.306L313.18 226.414L308.617 245.245L269.992 280.849Z" fill="#7BC144"/>
    <path d="M340.685 284.705C341.649 282.648 341.971 280.399 342.099 278.085C342.163 276.735 342.099 275.322 342.099 273.972C342.099 269.28 342.549 264.525 342.549 259.769C342.549 254.949 342.485 250.064 342.485 245.244C342.485 241.967 342.421 238.689 342.421 235.412C342.421 233.741 342.742 229.627 340.878 228.599C340.493 228.406 340.043 228.342 339.593 228.278C335.93 227.957 332.395 227.442 328.732 226.993C314.014 225.257 298.912 225 284.194 227.121C267.421 229.563 250.325 235.412 238.243 247.815C214.014 284.64 202.768 336.761 210.158 371.915C210.158 371.915 234.966 367.674 245.184 335.797C253.153 310.861 254.374 291.774 261.058 283.676C263.372 280.849 266.714 280.013 270.056 280.913C273.14 281.748 276.225 282.455 279.31 283.162C288.822 285.283 298.462 286.761 308.166 287.468C313.822 287.918 319.477 288.046 325.133 287.789C328.025 287.661 330.852 287.468 333.68 287.147C335.673 286.954 339.336 287.211 340.428 285.283C340.493 285.09 340.621 284.897 340.685 284.705Z" fill="#00643A"/>
    <path d="M401.806 282.262C402.384 284.512 400.97 288.432 400.649 290.681C400.006 296.401 399.62 302.249 399.942 308.033C400.135 310.99 400.263 314.332 401.227 317.159C402.577 320.951 404.055 321.337 407.782 323.265C415.237 327.057 422.628 330.913 430.083 334.704C434.389 336.954 440.045 338.818 443.387 342.481C438.566 323.522 431.497 305.206 424.428 287.018C421.536 279.563 418.579 272.044 414.016 265.488C412.602 263.432 410.932 261.44 408.682 260.411C395.443 253.792 400.456 276.8 401.806 282.262Z" fill="#767676"/>
    <path d="M353.411 230.077C353.54 244.923 354.89 259.769 357.396 274.422C357.782 276.671 358.167 278.856 358.874 281.041C359.067 281.684 359.324 282.391 359.902 282.776C360.288 283.033 360.802 283.098 361.252 283.162C365.494 283.483 369.35 282.262 373.463 281.555C376.869 280.977 380.275 279.434 383.36 277.956C391.329 274.293 400.391 264.846 409.067 271.594C417.229 277.892 421.985 287.532 428.797 298.072C427.64 288.56 420.571 261.761 419.286 259.062C415.558 251.092 412.409 241.26 405.211 235.668C399.491 230.334 390.108 227.056 382.46 226.478C372.756 225.707 363.116 228.149 353.411 228.792C353.347 229.242 353.347 229.627 353.411 230.077Z" fill="#00643A"/>
    <path d="M287.151 714.075C294.927 713.689 298.334 721.337 307.267 721.337C309.388 727.378 314.529 737.661 314.722 743.638C315.172 757.905 313.051 767.095 284.773 767.095C252.897 767.095 249.555 761.568 249.555 744.602C249.555 735.99 258.038 726.285 264.722 718.895C269.092 714.075 275.39 714.653 287.151 714.075Z" fill="#767676"/>
    <path d="M252.45 510.218C252.643 517.737 252.835 525.257 253.285 532.84C255.599 571.272 257.912 609.704 260.226 648.136C261.576 670.694 263.311 696.465 264.661 718.958C263.439 720.501 261.576 722.365 261.576 722.365C261.576 722.365 258.298 722.493 257.077 722.365C254.892 722.172 253.028 720.372 252.771 718.059C252.128 711.503 252.643 705.012 252.257 698.521C251.807 691.516 251.421 683.483 251.036 676.478C250.265 662.66 249.558 648.778 248.851 634.897C247.051 598.393 245.445 561.953 243.324 525.449C242.424 509.447 242.553 493.38 244.031 477.442C244.416 473.457 249.429 430.591 249.429 430.591C249.429 430.591 255.984 433.354 261.383 435.218C260.547 447.172 251.743 485.796 252.45 510.218Z" fill="#00643A"/>
    <path d="M327.127 203.406L325.648 209.897C325.713 209.512 332.139 209.383 332.589 209.319C335.995 208.998 339.209 209.19 341.458 212.147C342.551 213.561 343.258 215.296 343.836 217.031C344.093 217.867 344.35 218.702 344.929 219.28C345.507 219.859 346.664 220.052 347.178 219.409C347.435 219.088 347.564 218.638 347.628 218.188C347.821 216.645 347.821 215.039 348.142 213.496C348.977 209.448 351.934 208.419 355.726 208.483C356.304 208.483 364.466 208.741 364.273 209.897C363.245 216.453 362.345 224.679 374.941 226.8C387.538 228.921 391.522 227.699 400.648 232.262C400.648 232.262 391.394 223.715 381.882 221.787C372.371 219.859 368.258 216.131 368.643 210.926C369.029 205.784 366.265 201.607 356.882 202.121C347.499 202.635 327.127 203.406 327.127 203.406Z" fill="#C8DC8C"/>
    <path d="M263.693 430.591C263.693 430.591 266.585 421.401 269.863 409.575C273.141 397.75 259.259 393.637 255.338 405.848C251.482 418.059 250.133 425.964 250.133 425.964C250.133 425.964 256.688 428.534 263.693 430.591Z" fill="#D6D6D6"/>
    <path d="M331.047 435.282C335.867 438.239 341.523 439.46 347.114 440.617C380.34 447.429 412.41 450.835 447.243 450.835C447.243 446.786 454.119 443.251 454.569 439.331C455.533 431.169 450.777 422.622 453.605 414.845C457.783 403.213 456.497 391.388 456.047 379.305C455.34 362.082 456.883 333.74 461.446 317.159C445.058 314.203 362.088 318.509 338.759 319.794C334.711 319.987 334.839 327.313 334.839 327.313L332.718 405.527C332.718 405.527 332.076 416.388 331.754 421.786C331.754 423.072 329.955 434.64 331.047 435.282Z" fill="#00643A"/>
    <path d="M391.266 305.913C394.415 305.27 451.099 305.72 475.906 307.455C471.729 315.681 452.963 320.951 452.963 320.951C452.642 320.951 452.256 320.951 451.935 320.951C448.914 320.887 445.894 320.887 442.873 320.823C437.539 320.758 432.14 320.694 426.806 320.63C420.058 320.566 413.246 320.501 406.498 320.373C399.235 320.309 392.038 320.18 384.775 320.116C377.963 320.051 371.215 319.987 364.403 319.859C361.446 319.794 358.554 319.794 355.598 319.73C352.449 319.666 349.621 319.537 345.637 319.666C342.744 319.794 339.66 319.473 337.089 321.722C335.611 323.008 335.418 324.422 334.904 326.478C334.775 324.871 334.968 323.008 335.739 321.658C336.189 320.951 336.832 320.373 337.539 319.859C339.788 318.316 342.423 317.545 345.122 317.031C346.215 316.838 371.472 310.861 376.935 309.447C381.626 308.29 386.446 306.941 391.266 305.913Z" fill="#C8DC8C"/>
    <path d="M308.554 432.455C315.752 441.066 328.155 446.593 338.374 447.814C344.544 448.521 350.778 448.007 357.011 447.493C360.546 447.172 364.724 446.465 367.616 444.408C364.402 438.946 356.24 439.46 350.135 437.724C340.495 434.961 333.168 425.449 333.104 415.424C333.104 413.753 333.297 411.953 334.389 410.668C335.353 409.511 336.831 408.997 338.181 408.483C341.202 407.39 344.158 406.298 347.179 405.205C349.042 404.498 351.292 403.341 351.227 401.349C351.163 398.907 347.885 398.136 345.379 398.072C337.86 397.75 330.405 396.336 323.335 393.894C315.945 391.323 313.502 389.01 309.261 397.172C305.79 403.791 302.191 410.925 302.706 418.637C303.027 423.778 305.212 428.406 308.554 432.455Z" fill="#7BC144"/>
    <path d="M473.527 427.378C474.041 426.157 474.17 423.265 474.17 422.301C474.813 403.599 473.913 327.957 473.913 307.584C465.301 314.782 452.897 320.887 452.897 320.887C452.897 320.887 450.841 370.309 450.134 387.79C449.491 403.921 448.72 443.124 447.885 444.473C446.921 446.016 445.185 447.044 443.45 447.558C441.651 448.072 439.787 448.201 437.923 448.265C424.041 448.779 387.409 446.594 383.617 447.108C393.707 449.743 408.36 451.414 418.771 451.543C428.926 451.671 448.72 450.964 449.298 450.772C450.005 450.515 466.715 435.09 468.9 433.291C469.8 432.648 472.627 429.563 473.527 427.378Z" fill="#002F19"/>
    <path d="M245.828 241.324C245.828 241.324 231.818 265.36 219.35 317.995C213.823 341.324 208.232 350 212.859 375C219.093 408.355 278.347 435.219 278.347 435.219C278.347 435.219 267.936 435.925 261.445 435.219C248.142 433.74 191.458 413.046 204.761 337.596C213.566 287.725 218.9 269.28 229.761 253.535C249.427 225 245.828 241.324 245.828 241.324Z" fill="#C8DC8C"/>
    <path d="M331.689 129.563C331.689 129.563 332.846 152.7 313.823 153.664C306.946 153.985 308.746 171.466 311.83 175.772C314.979 180.206 316.779 182.198 321.406 186.119C325.005 189.204 327.769 193.445 327.833 198.137C327.897 202.121 326.291 205.977 325.648 209.898C324.105 219.409 331.175 222.751 331.753 231.941C332.46 244.345 328.411 252.378 315.429 257.97C301.74 263.818 298.591 270.245 283.039 271.08C273.784 271.594 260.931 270.116 248.013 256.556C245.185 253.599 243.707 249.036 243.064 245.18C241.393 235.283 241.972 226.479 253.154 222.88C253.154 222.88 244.478 215.939 251.162 202.571C255.789 193.317 261.316 196.402 266.843 188.111C272.37 179.821 270.378 176.222 280.532 167.096C291.843 153.471 331.689 129.563 331.689 129.563Z" fill="#002F19"/>
    <path d="M318.707 101.221C312.859 101.542 314.08 98.4576 306.304 102.635C275.07 119.409 271.857 135.283 280.468 167.159L304.826 148.265L318.707 101.221Z" fill="#767676"/>
    <path d="M299.427 152.378C299.427 152.378 291.522 126.8 298.784 112.147C303.861 101.928 309.517 100.771 313.694 99.0362C329.825 92.5452 338.501 100.836 347.499 106.62L299.427 152.378Z" fill="#7BC144"/>
    <path d="M338.44 130.27C350.522 125.514 362.283 124.421 374.365 129.177C375.201 125.964 377 122.686 376.808 117.545C376.422 110.025 371.281 104.756 364.083 102.506C356.885 100.257 348.916 101.671 342.232 105.077C335.548 108.483 329.892 113.753 324.815 119.216C321.73 122.558 299.43 152.442 299.43 152.442C299.43 152.442 313.247 143.959 314.725 143.059C322.309 138.239 330.085 133.547 338.44 130.27Z" fill="#767676"/>
    <path d="M342.552 138.689C361.125 143.509 366.395 140.167 372.115 133.419C376.357 128.471 374.879 120.566 373.85 118.766C372.758 116.774 370.83 115.36 368.902 114.268C363.632 111.376 353.735 113.561 348.593 116.646C339.917 121.787 331.562 133.355 331.562 133.355C331.562 133.355 337.475 137.34 342.552 138.689Z" fill="#002F19"/>
    <path d="M310.674 166.838C308.939 161.633 310.031 159.512 312.088 157.198C313.244 155.913 315.879 153.085 313.052 150.386C311.574 148.908 308.424 149.486 305.725 152.956C304.183 154.949 301.998 159.19 306.047 168.959C307.91 173.393 311.766 175.771 311.766 175.771C311.766 175.771 312.987 173.843 310.674 166.838Z" fill="#00643A"/>
    <path d="M242.999 245.244C242.999 245.244 242.549 230.784 252.382 225.449C253.796 224.678 255.531 222.365 253.925 220.051C251.932 217.159 250.069 212.725 251.739 207.776C254.696 198.779 259.966 198.007 265.75 193.637C271.534 189.267 271.47 176.349 280.467 167.095C280.467 167.095 269.927 174.614 266.392 181.812C260.48 193.766 255.081 189.781 250.261 197.429C245.441 204.948 248.976 217.93 247.305 221.786C245.57 225.642 237.858 232.133 242.999 245.244Z" fill="#7BC144"/>
    <path d="M425.327 306.555C433.36 306.877 441.394 307.134 449.427 307.391C454.311 307.519 459.132 307.648 464.016 307.841C465.237 307.905 466.522 307.905 467.743 307.969C468.707 307.969 469.736 308.226 470.7 308.226C471.728 308.162 472.821 308.548 473.27 309.447C473.527 309.961 473.592 310.54 473.592 311.118C473.656 313.368 473.592 315.681 473.335 317.931C473.335 318.252 473.27 318.638 473.463 318.959C473.785 319.537 475.327 318.959 475.713 318.573C476.098 318.252 476.162 317.674 476.162 317.159C476.227 314.974 476.355 312.854 476.419 310.668C476.484 308.869 477.062 307.391 475.134 306.555C471.599 305.013 467.422 305.206 463.63 305.27C449.62 305.463 407.718 302.699 400.713 302.956C398.656 303.021 391.137 305.977 391.137 305.977C391.137 305.977 417.615 306.298 425.327 306.555Z" fill="#7BC144"/>
    <path d="M441.91 329.948C443.131 329.948 444.481 329.948 445.38 330.977C445.894 331.555 445.894 331.555 446.216 332.198C446.537 335.668 445.445 354.048 445.316 354.82C445.252 355.077 445.188 355.334 445.059 355.527C444.93 355.655 444.802 355.719 444.673 355.848C443.645 356.426 442.745 356.298 441.653 356.298C440.367 356.298 418.067 356.555 412.154 356.555C409.776 356.555 406.627 356.683 406.627 355.976C406.563 354.691 407.977 331.491 407.977 331.491C407.977 331.491 434.134 330.077 441.91 329.948Z" fill="#F1F7E9"/>
    <path d="M427.512 340.424C431.882 340.039 436.252 339.653 440.622 339.267C442.358 339.139 442.743 337.854 442.55 336.954C442.422 336.054 440.687 336.054 439.787 336.118C435.545 336.44 431.239 335.668 427.062 336.054C422.563 336.44 418.129 336.504 413.63 337.339C412.409 337.596 409.131 338.111 409.774 340.424C410.481 342.995 415.944 341.388 417.486 341.26C420.892 341.003 424.234 340.746 427.512 340.424Z" fill="#D6D6D6"/>
    <path d="M428.028 349.678C431.049 349.55 434.069 349.421 437.09 349.357C438.375 349.293 440.239 349.679 441.46 349.164C441.974 348.972 443.645 347.493 443.003 346.465C442.553 345.694 441.653 345.63 440.882 345.63C432.013 345.373 423.015 344.73 414.211 346.015C412.99 346.208 409.712 346.529 410.29 348.907C410.933 351.542 416.396 350.128 418.003 350.064C421.344 349.936 424.686 349.807 428.028 349.678Z" fill="#D6D6D6"/>
    <path d="M421.729 332.327C418.837 332.584 416.009 332.776 413.246 333.612C411.703 334.062 410.097 334.769 409.197 336.375C408.554 337.596 408.361 339.075 408.233 340.488C407.719 345.63 407.14 350.771 406.626 355.977C405.919 348.908 406.176 341.774 406.433 334.64C406.498 333.098 406.626 331.427 407.526 330.463C408.169 329.82 409.004 329.627 409.775 329.499C412.41 328.985 415.045 328.47 417.744 328.535C419.93 328.599 433.619 328.663 438.31 328.728C440.559 328.792 442.552 329.177 444.737 330.077C445.058 330.206 446.086 330.463 446.215 332.198C444.544 330.784 435.932 331.17 433.876 331.362C429.827 331.684 425.778 332.005 421.729 332.327Z" fill="#D6D6D6"/>
    <path d="M485.288 314.139C486.38 315.167 487.666 316.581 487.923 318.059C488.116 319.666 487.409 321.337 488.18 322.815C488.565 323.586 489.337 324.036 489.722 324.807C490.301 325.9 490.108 327.185 489.722 328.406C489.337 329.563 488.822 330.72 488.887 331.941C488.951 333.226 489.594 334.448 489.786 335.733C490.172 337.854 489.272 339.846 488.244 341.645C487.344 343.188 486.702 344.923 485.609 346.401C483.36 349.422 479.889 352.057 476.033 352.442C472.499 352.764 468.964 352.699 465.493 352.185C463.887 351.993 462.344 351.671 460.866 350.964C460.031 350.579 459.195 350.065 458.745 349.229C458.295 348.458 458.167 347.365 458.81 346.594C457.589 346.08 457.01 344.602 457.139 343.252C457.267 341.517 459.067 339.975 458.745 338.368C457.91 334.19 459.774 331.17 462.473 328.214C464.08 326.478 465.686 324.743 467.486 323.201C469.349 321.594 472.113 320.18 473.463 318.124C474.941 315.874 475.712 312.789 476.162 310.219C479.504 310.412 482.781 311.697 485.159 313.946C485.224 314.075 485.224 314.075 485.288 314.139Z" fill="#7BC144"/>
    <path d="M470.187 336.44C474.044 334.576 477.578 332.07 480.02 328.471C480.213 328.214 480.406 327.828 480.277 327.507C478.799 328.214 477.578 329.499 476.229 330.399C474.75 331.299 473.272 332.134 471.73 332.905C468.581 334.64 465.56 336.44 462.54 338.432C461.511 339.075 462.668 339.332 463.247 339.203C463.954 339.011 464.66 338.754 465.367 338.497C466.974 337.918 468.581 337.211 470.187 336.44Z" fill="#00643A"/>
    <path d="M481.691 338.046C482.076 337.532 482.269 336.953 482.076 336.375C481.305 336.311 480.598 337.082 480.148 337.532C478.027 339.717 475.264 341.131 472.436 342.223C469.801 343.251 467.102 344.151 464.403 345.051C464.017 345.18 462.732 345.308 462.539 345.629C462.153 346.079 462.667 346.208 463.053 346.272C464.467 346.529 465.945 346.144 467.359 345.886C468.901 345.629 470.508 345.437 472.115 345.179C474.878 344.665 477.192 343.316 479.056 341.195C479.763 340.359 480.534 339.524 481.241 338.688C481.305 338.496 481.498 338.239 481.691 338.046Z" fill="#00643A"/>
    <path d="M354.054 448.136C353.411 448.2 347.627 447.622 345.828 447.108C341.458 445.886 337.152 444.344 332.974 442.609C330.275 441.452 324.491 438.496 325.391 437.21C326.098 436.054 329.825 438.624 331.304 439.267C333.681 440.295 336.124 441.259 338.501 442.159C341.072 443.187 343.707 444.28 346.278 445.308C346.663 445.437 347.049 445.565 347.435 445.694C351.419 446.979 357.332 447.429 357.332 447.429C357.332 447.429 355.918 448.007 354.054 448.136Z" fill="#00643A"/>
    <path d="M379.76 259.64C379.824 259.64 379.824 259.64 379.76 259.64C380.017 259.64 380.274 259.64 380.466 259.576C380.531 259.576 380.531 259.576 380.531 259.512C380.531 259.255 380.531 258.998 380.531 258.741C380.531 258.676 380.531 258.612 380.466 258.612L380.402 258.548C380.274 258.548 380.145 258.548 380.017 258.548C379.952 258.548 379.888 258.548 379.824 258.548C379.76 258.548 379.695 258.548 379.695 258.548C379.695 258.548 379.695 258.548 379.695 258.612C379.695 258.612 379.695 258.676 379.695 258.741C379.695 258.805 379.695 258.805 379.695 258.869C379.695 258.998 379.695 259.062 379.695 259.191C379.695 259.255 379.695 259.319 379.695 259.383C379.695 259.576 379.695 259.576 379.76 259.64Z" fill="#F1F7E9"/>
    <path d="M370.891 259.255C370.891 259.062 370.698 258.548 370.634 258.483C370.505 258.162 370.377 257.841 370.184 257.584C369.67 256.877 368.899 256.363 368.063 256.105C367.228 255.848 366.328 255.784 365.492 255.848C364.657 255.913 363.757 256.17 363.114 256.684C362.665 257.069 362.279 257.519 362.022 258.033C361.893 258.226 361.829 258.419 361.765 258.612C361.572 259.19 361.508 259.897 361.508 260.54C361.508 260.54 361.958 260.54 362.022 260.54C362.022 260.54 362.215 259.576 362.215 259.512C362.408 258.997 362.729 258.612 363.243 258.355C363.821 258.098 364.593 257.905 365.171 258.162C366.071 258.548 366.456 259.447 366.521 259.64C366.521 259.704 366.585 259.769 366.649 259.769C366.713 259.769 366.842 259.769 366.906 259.769C367.549 259.704 368.192 259.64 368.834 259.576C369.413 259.512 369.991 259.447 370.57 259.383C370.762 259.447 370.891 259.447 370.891 259.255Z" fill="#F1F7E9"/>
    <path d="M362.086 261.054C362.472 262.018 362.986 262.339 363.243 262.468C363.693 262.725 364.336 262.725 364.785 262.66C365.942 262.403 366.456 261.182 366.521 260.54C366.521 260.411 366.649 260.411 366.778 260.411C366.906 260.411 367.035 260.347 367.163 260.347C367.742 260.282 368.384 260.218 368.963 260.218C369.284 260.218 369.541 260.154 369.863 260.09C370.12 260.09 370.377 260.025 370.698 260.025C370.891 260.025 370.827 260.282 370.827 260.411C370.827 260.604 370.827 260.797 370.827 261.054C370.762 261.504 370.698 261.889 370.505 262.275C370.184 262.982 369.67 263.624 369.027 264.01C367.549 264.845 365.814 265.295 364.207 264.717C363.243 264.396 362.6 263.689 362.279 263.174C361.893 262.532 361.572 261.889 361.508 261.182V261.118C361.508 261.054 361.572 261.054 361.636 261.054C361.701 261.054 361.829 261.054 361.893 261.054C361.958 261.054 362.022 261.054 362.086 261.054Z" fill="#D6D6D6"/>
    <path d="M375.97 260.99C375.841 260.54 375.456 260.09 374.941 259.961C374.684 259.897 374.234 259.897 373.977 259.961C373.72 260.026 373.27 260.347 373.27 260.347C373.27 260.347 373.27 259.447 373.142 258.933C373.142 258.869 373.078 258.869 373.078 258.805C373.013 258.805 373.013 258.805 372.949 258.805C372.435 258.869 372.306 258.869 372.371 259.383C372.371 259.64 372.435 260.733 372.435 260.99C372.435 261.247 372.435 261.504 372.435 261.761C372.435 262.018 372.435 262.275 372.435 262.532C372.435 262.789 372.435 262.982 372.435 263.239C372.435 263.432 372.435 263.625 372.435 263.753C372.435 263.818 372.435 263.818 372.435 263.882C372.435 263.946 372.435 264.01 372.435 264.01C372.435 264.075 372.564 264.01 372.628 264.01C372.692 264.01 373.206 263.946 373.206 263.946C373.27 263.946 373.206 263.882 373.206 263.818C373.206 263.753 373.206 263.689 373.206 263.689C373.27 263.625 373.399 263.56 373.463 263.625C373.977 263.946 374.684 263.882 374.941 263.753C375.327 263.625 375.584 263.432 375.777 263.175C375.905 262.982 375.97 262.725 375.97 262.468C376.098 262.018 376.162 261.504 375.97 260.99ZM375.263 262.596C375.198 262.725 375.199 262.854 375.07 262.918C374.749 263.175 374.042 263.175 373.785 262.854C373.463 262.468 373.463 261.568 373.592 261.247C373.656 261.118 373.72 260.925 373.849 260.861C374.17 260.604 374.684 260.668 375.006 260.99C375.198 261.183 375.263 261.504 375.327 261.761C375.327 262.018 375.327 262.339 375.263 262.596Z" fill="#F1F7E9"/>
    <path d="M377.191 260.282C377.512 259.897 378.09 259.768 378.54 259.897C378.733 259.961 378.99 260.09 379.119 260.282C379.247 260.475 379.376 260.668 379.44 260.925C379.44 260.925 379.44 260.989 379.376 260.989C379.311 260.989 379.311 260.989 379.247 260.989C379.183 260.989 379.119 260.989 379.054 261.054C378.99 261.054 378.926 261.054 378.862 261.118C378.797 261.118 378.733 261.182 378.669 261.118C378.669 261.118 378.669 261.054 378.605 261.054C378.605 260.989 378.54 260.989 378.476 260.925C378.412 260.861 378.283 260.797 378.155 260.797C377.962 260.732 377.705 260.861 377.576 260.989C377.383 261.182 377.383 261.504 377.383 261.761C377.383 261.825 377.383 261.953 377.383 262.018C377.383 262.403 377.383 262.725 377.383 263.11C377.383 263.303 377.448 263.753 377.383 263.753C377.319 263.753 376.677 263.881 376.677 263.817C376.677 263.817 376.677 263.56 376.677 263.496C376.677 263.367 376.677 263.239 376.677 263.11C376.677 262.403 376.612 261.696 376.612 260.989C376.612 260.732 376.484 260.282 376.677 260.09C376.741 260.025 376.934 259.961 377.062 260.025C377.191 259.897 377.191 260.09 377.191 260.282Z" fill="#F1F7E9"/>
    <path d="M380.529 260.025C380.529 260.283 380.593 260.54 380.593 260.797V260.861C380.658 261.311 380.658 261.761 380.722 262.275C380.722 262.532 380.85 263.432 380.85 263.496V263.56C380.85 263.624 380.786 263.624 380.786 263.624C380.658 263.624 380.529 263.689 380.4 263.689C380.336 263.689 380.272 263.689 380.208 263.689C380.143 263.689 380.079 263.689 380.015 263.689V263.624C380.015 263.496 380.015 263.367 380.015 263.239C380.015 263.175 380.015 262.982 380.015 262.982C380.015 262.725 379.951 262.532 379.951 262.275C379.951 262.018 379.886 261.761 379.886 261.568C379.886 261.375 379.886 261.182 379.822 260.925C379.822 260.668 379.758 260.347 379.758 260.025L379.822 259.961C379.951 259.961 380.015 259.961 380.143 259.961C380.208 259.961 380.336 259.961 380.4 259.961H380.465C380.529 259.897 380.529 259.961 380.529 260.025Z" fill="#F1F7E9"/>
    <path d="M381.752 259.768C381.816 259.768 381.816 259.897 381.816 259.961C381.816 260.025 381.816 260.154 381.816 260.218C382.009 260.025 382.202 259.897 382.395 259.832C382.588 259.768 382.716 259.704 383.102 259.768C383.552 259.832 384.066 260.218 384.258 260.668C384.323 260.925 384.387 261.182 384.387 261.439C384.387 261.76 384.451 262.082 384.451 262.339C384.451 262.532 384.516 262.724 384.516 262.917C384.516 262.982 384.516 263.11 384.516 263.174C384.516 263.239 384.58 263.367 384.451 263.367C384.258 263.367 384.066 263.431 383.873 263.431C383.809 263.431 383.616 263.496 383.616 263.367C383.616 263.303 383.616 263.239 383.616 263.174C383.552 262.66 383.552 262.21 383.487 261.696C383.487 261.503 383.423 261.246 383.423 261.054C383.359 260.861 383.294 260.668 383.102 260.604C383.037 260.604 382.973 260.604 382.909 260.539C382.716 260.539 382.523 260.604 382.395 260.732C382.266 260.861 382.202 261.054 382.202 261.182C382.202 261.375 382.202 261.632 382.202 261.825C382.202 262.275 382.266 262.66 382.266 263.11C382.266 263.174 382.33 263.303 382.266 263.367C382.266 263.431 382.138 263.431 382.073 263.431C381.945 263.431 381.816 263.496 381.688 263.496C381.559 263.496 381.431 263.56 381.302 263.431C381.302 263.303 381.302 263.174 381.302 263.046C381.302 262.853 381.302 262.66 381.238 262.532C381.174 261.632 381.109 260.732 381.109 259.832C381.109 259.768 381.109 259.704 381.174 259.704C381.238 259.64 381.366 259.64 381.431 259.64C381.495 259.768 381.624 259.768 381.752 259.768Z" fill="#F1F7E9"/>
    <path d="M387.727 259.383C387.663 259.319 387.663 259.383 387.535 259.383C387.47 259.383 387.085 259.383 387.085 259.447C387.085 259.576 387.085 259.704 387.085 259.833C386.763 259.704 386.442 259.576 386.121 259.576C385.799 259.576 385.542 259.704 385.35 259.897C385.093 260.154 384.9 260.54 384.835 260.925C384.707 261.568 384.835 262.339 385.35 262.853C385.607 263.111 385.928 263.239 386.249 263.303C386.442 263.303 386.571 263.303 386.763 263.303C386.828 263.303 386.956 263.239 387.021 263.239C387.085 263.239 387.149 263.175 387.213 263.175C387.213 263.368 387.213 263.625 387.149 263.817C387.149 263.882 387.085 263.946 387.021 264.075C386.828 264.332 386.506 264.332 386.249 264.267C385.992 264.203 385.864 264.075 385.799 263.882C385.542 263.882 385.221 263.882 384.964 263.882C385.028 264.203 385.092 264.46 385.285 264.653C385.478 264.846 385.735 265.039 385.992 265.039C386.571 265.167 387.47 264.974 387.792 264.46C388.177 263.882 388.049 262.918 388.049 262.725C388.049 262.532 387.985 261.118 387.92 260.54C387.92 260.219 387.856 259.897 387.792 259.576C387.792 259.447 387.727 259.383 387.727 259.383ZM387.085 261.889C387.085 262.082 387.021 262.211 386.956 262.339C386.892 262.404 386.828 262.468 386.763 262.532C386.571 262.596 386.378 262.661 386.185 262.596C385.992 262.596 385.864 262.404 385.799 262.275C385.735 262.147 385.671 262.082 385.671 261.954C385.607 261.697 385.607 261.375 385.607 261.118C385.607 260.861 385.671 260.604 385.928 260.411C386.185 260.219 386.506 260.219 386.763 260.411C387.021 260.54 387.149 260.861 387.149 261.118C387.149 261.44 387.149 261.697 387.085 261.889Z" fill="#F1F7E9"/>
</svg>
