<svg xmlns="http://www.w3.org/2000/svg" width="128" fill="none" viewBox="0 0 729 800"><path fill="#56b529" d="M477.9 404.82c-.32 6.81-.84 13.62-2 20.44-.12.7-.25 1.41-.64 1.99-.32.51-3.4 3.73-6.36 6.1.84-.38-1.67-3.98-1.35-4.94.64-2.06 1.42-4.12 2.06-6.24a81.89 81.89 0 0 0 3.02-12.92c.58-4.3.64-8.67.64-13.04.2-15.94.39-31.88-.51-47.82a2.6 2.6 0 0 1 .32-1.8c.7-1.02 6.62-1.22 6.62 1.67.06 16.13-1.16 42.1-1.8 56.56ZM359.9 125.96s5.79 23.78 19.41 32.33c0 0-7.13 9.25-10.41 25.45-1.03 5.2-4.11 7.97-12.21 12.92-2.57 1.54-3.92 13.43-7.9 19.73-2.9 4.56-8.23 4.3-11.25 4.37-20.5.45-41.52-36.7-41.97-53.28-.45-16.52 16.2-52.9 64.33-41.52Z"/><path fill="#00643A" d="M334.58 224.04c-6.55-.84-16.96-5.21-28.34-21.53-8.16-11.76-13.82-25.77-14.07-34.9-.33-10.28 5.2-26.1 17.86-36.44 16.2-13.17 36.44-11.95 50.65-8.61a3.49 3.49 0 0 1 2.56 2.57c.71 2.96 1.74 5.85 2.83 8.67.77 2 1.35 3.99 1.93 6.04 2.5 9.77 7.9 11 10.73 13.82 1.8 1.8 2.32 3.09 2 5.08-.26 1.93-2.19 3.47-2.96 5.2a45.4 45.4 0 0 0-3.15 10.03c-.64 3.54-1.6 6.94-2.31 10.48-1.29 6.55-5.2 9.96-13.5 15.04-.58.9-1.48 3.98-2.12 6.23-1.22 4.24-2.63 9-4.88 12.6-3.67 5.84-10.03 5.9-13.5 5.97h-.64c-.9-.06-1.93-.06-3.09-.25Zm16.52-96.21c-14.72-1.93-27.31 1.03-36.7 8.74-11.63 9.44-15.55 23.65-15.36 30.85.2 7.77 5.53 20.56 12.86 31.17 8.42 12.08 17.73 18.95 25.57 18.76h.65c3.34-.06 6.17-.32 7.7-2.76 1.74-2.77 3.03-7.07 4.12-10.86 1.48-5.14 2.5-8.55 4.89-10.03 2.95-1.8 6.23-3.66 8.48-6.3 3.53-4.17 3.98-9.9 5.08-15.03.57-2.7 1.35-5.4 2.7-7.85.9-1.6 4.37-4.24 3.27-6.3-.19-.38-.57-.7-.9-.96a53.99 53.99 0 0 1-6.87-6.94c-1.8-2.25-3.09-5.2-4.37-7.78a97.08 97.08 0 0 1-3.4-8.03c-.2-.51-1.42-5.46-1.8-5.53-1.94-.57-3.93-.9-5.92-1.15Z"/><path fill="#767676" d="M356.63 718.57s-9.9 44.54 0 47.63c4.69 1.47 14.97 1.22 16.96.96 2.44-.32 4.89-.77 7.33-1.35 1.93-.45 3.79-1.03 5.78-1.03 1.6 0 3.15.39 4.7.7 14.33 3.1 29.3 1.94 43.89 1.42 4.18-.13 8.35-.25 12.53-.7 12.73-1.42 22.3-13.12 12.98-26.36-9.32-13.23-40.1-3.2-45.3-17.93-5.28-14.71-58.88-3.34-58.88-3.34Z"/><path fill="#002F19" d="M412.99 409.58c5.46 38.04 10.54 78.79 15.55 114.14 3.09 21.59 4.7 44.27 2.19 66l-4.44 38.37c-3.08 26.99-6.23 54.04-9.32 81.04-.51 4.3-.96 8.6-1.47 12.85h-56.11c-.96 0-2.06.2-2.76 0-3.4-.96-4.12-4.24-4.3-5.85-1.42-12.53-1.62-55.27-2-67.93-.96-30.66 1.8-42.8 3.47-65.49 1.35-18.5-5.79-45.5-7.46-54.63-.83-4.56-3.14-23.2-4.82-23.26-1.67-.06-3.47 14.53-4.82 21.6-1.92 9.96-17.1 144.08-21.72 184.44-.7 6.3-3.08 9.96-9.57 10.93-.97.13-.26.64-1.55.64h-43.38c-2.5 0-3.34-.7-3.34-.7s-.77-.07-.83-1.55c-.78-13.95-4.7-89.4-3.41-119.86 1.41-33.61-12.28-104.18 5.6-172.1 17.8-1.23 35.66-2.38 53.46-3.6 14.98-1.03 30.01-2 44.99-3.03 13.94-.96 29.37 0 42.48-5.14 4.63-1.8 13.17-9.32 13.56-6.87Z"/><path fill="#767676" d="M403.03 355.98c.38-18.38 4.88-52.44 4.88-52.44l-7.58-47.5-141.46 25s.32 1.48.84 4.05l-12.79-11.18c-4.76 13.43-9.45 26.92-14.2 40.36-3.6 10.28-7.2 20.63-10.86 30.91-1.87 5.27-5.02 9.51-7.07 14.78-3.47 9-4.12 13.88-4.63 23.59-.7 14.26 33.16 45.63 38.56 45.76 1.22 0 2.5-.07 3.73.32.96.25 1.86.83 2.76 1.35 11.25 6.23 29.24 3.79 41.84 3.92 17.41.25 34.83.06 52.25-.84 39.65-2.12 53.53-5.78 61.7-16.7a7.8 7.8 0 0 0 1.73-3.67c2.12-12.53-10.09-41.32-9.7-57.71Z"/><path fill="#56b529" d="M270 280.85s8.67 25.2 8.93 37.85c.25 12.66 2.95 46.34 2.95 46.34l109.9-4.5s3.28-62.15 5.78-90.3c0 0-4.88-39-22.62-43.38-2-.51-3.6-1.15-4.95-1.92-5.78-3.41-6.04-9.32-5.07-13.95.83-3.92-.52-6.94-5.73-6.68-3.34.19-53.14 0-53.14 0l7.13 22.1-4.56 18.84-38.63 35.6Z"/><path fill="#00643A" d="M340.69 284.7a17.7 17.7 0 0 0 1.4-6.62c.07-1.34 0-2.76 0-4.1 0-4.7.46-9.46.46-14.21 0-4.82-.06-9.7-.06-14.53 0-3.27-.07-6.55-.07-9.83 0-1.67.32-5.78-1.54-6.81-.39-.2-.84-.26-1.29-.32-3.66-.32-7.2-.84-10.86-1.29-14.72-1.73-29.82-1.99-44.54.13-16.77 2.44-33.87 8.3-45.95 20.7-24.23 36.82-35.47 88.94-28.08 124.1 0 0 24.8-4.25 35.02-36.12 7.97-24.94 9.2-44.03 15.88-52.12 2.31-2.83 5.65-3.67 9-2.77 3.08.84 6.17 1.54 9.25 2.25 9.51 2.12 19.15 3.6 28.86 4.3a135.93 135.93 0 0 0 25.51-.31c2-.2 5.66.06 6.75-1.87.06-.19.2-.38.25-.57Z"/><path fill="#767676" d="M401.8 282.26c.58 2.25-.83 6.17-1.15 8.42a104.16 104.16 0 0 0-.7 17.35c.19 2.96.31 6.3 1.28 9.13 1.35 3.8 2.82 4.18 6.55 6.1 7.46 3.8 14.85 7.65 22.3 11.44 4.3 2.25 9.97 4.12 13.3 7.78-4.81-18.96-11.88-37.27-18.95-55.46-2.9-7.46-5.85-14.98-10.41-21.53-1.42-2.06-3.09-4.05-5.34-5.08-13.24-6.62-8.22 16.39-6.87 21.85Z"/><path fill="#00643A" d="M353.41 230.08c.13 14.84 1.48 29.69 3.99 44.34.38 2.25.77 4.44 1.47 6.62.2.64.45 1.35 1.03 1.74.39.25.9.32 1.35.38 4.24.32 8.1-.9 12.21-1.6 3.4-.58 6.81-2.13 9.9-3.6 7.97-3.67 17.03-13.11 25.7-6.37 8.17 6.3 12.93 15.94 19.74 26.48-1.16-9.51-8.23-36.3-9.51-39-3.73-7.98-6.88-17.81-14.08-23.4-5.72-5.34-15.1-8.61-22.75-9.2-9.7-.76-19.34 1.68-29.05 2.32-.06.45-.06.84 0 1.29Z"/><path fill="#767676" d="M287.15 714.08c7.78-.4 11.18 7.26 20.12 7.26 2.12 6.04 7.26 16.32 7.45 22.3.45 14.26-1.67 23.46-29.95 23.46-31.87 0-35.21-5.53-35.21-22.5 0-8.61 8.48-18.32 15.16-25.7 4.37-4.82 10.67-4.25 22.43-4.82Z"/><path fill="#00643A" d="M252.45 510.22c.2 7.52.39 15.04.84 22.62 2.3 38.43 4.62 76.86 6.94 115.3 1.35 22.55 3.08 48.33 4.43 70.82-1.22 1.54-3.08 3.4-3.08 3.4s-3.28.13-4.5 0c-2.19-.19-4.05-1.99-4.3-4.3-.65-6.56-.14-13.05-.52-19.54-.45-7-.84-15.04-1.22-22.04-.78-13.82-1.48-27.7-2.19-41.58-1.8-36.5-3.4-72.95-5.53-109.45-.9-16-.77-32.07.71-48 .39-4 5.4-46.86 5.4-46.86s6.55 2.76 11.95 4.63c-.83 11.95-9.64 50.58-8.93 75Z"/><path fill="#C8DC8C" d="m327.13 203.4-1.48 6.5c.06-.39 6.49-.52 6.94-.58 3.4-.32 6.62-.13 8.87 2.83a16.4 16.4 0 0 1 2.38 4.88c.25.84.51 1.67 1.09 2.25.58.58 1.73.77 2.25.13.25-.32.38-.77.45-1.22.2-1.54.2-3.15.51-4.7.84-4.04 3.8-5.07 7.59-5 .57 0 8.74.25 8.54 1.4-1.02 6.56-1.92 14.79 10.67 16.91 12.6 2.12 16.58.9 25.7 5.46 0 0-9.25-8.54-18.76-10.47-9.5-1.93-13.62-5.66-13.24-10.86.39-5.15-2.38-9.32-11.76-8.8-9.38.5-29.75 1.28-29.75 1.28Z"/><path fill="#D6D6D6" d="M263.7 430.6s2.88-9.2 6.16-21.03c3.28-11.82-10.6-15.93-14.52-3.72-3.86 12.2-5.2 20.11-5.2 20.11s6.55 2.57 13.55 4.63Z"/><path fill="#00643A" d="M331.05 435.28c4.82 2.96 10.47 4.18 16.06 5.34a487.84 487.84 0 0 0 100.13 10.21c0-4.04 6.88-7.58 7.33-11.5.96-8.16-3.8-16.7-.96-24.48 4.17-11.64 2.89-23.46 2.44-35.55-.71-17.22.83-45.56 5.4-62.14-16.4-2.96-99.36 1.35-122.7 2.63-4.04.2-3.91 7.52-3.91 7.52l-2.12 78.22-.97 16.26c0 1.28-1.8 12.85-.7 13.5Z"/><path fill="#C8DC8C" d="M391.27 305.91c3.15-.64 59.83-.19 84.64 1.54-4.18 8.23-22.95 13.5-22.95 13.5h-1.02c-3.03-.06-6.05-.06-9.07-.13l-16.06-.19c-6.75-.06-13.56-.13-20.31-.26-7.26-.06-14.46-.19-21.73-.25-6.8-.07-13.56-.13-20.37-.26-2.95-.07-5.85-.07-8.8-.13-3.15-.06-5.98-.2-9.96-.06-2.9.12-5.98-.2-8.55 2.05-1.48 1.29-1.67 2.7-2.19 4.76-.13-1.6.07-3.47.84-4.82.45-.7 1.1-1.29 1.8-1.8 2.25-1.54 4.88-2.31 7.58-2.83 1.1-.2 26.35-6.17 31.81-7.58 4.7-1.16 9.52-2.5 14.34-3.54Z"/><path fill="#56b529" d="M308.55 432.45c7.2 8.62 19.6 14.14 29.82 15.36 6.17.71 12.4.2 18.64-.32 3.54-.32 7.71-1.03 10.6-3.08-3.2-5.46-11.37-4.95-17.48-6.69-9.63-2.76-16.96-12.27-17.03-22.3 0-1.67.2-3.47 1.29-4.75.96-1.16 2.44-1.67 3.8-2.19l8.99-3.28c1.86-.7 4.11-1.86 4.05-3.85-.07-2.44-3.35-3.21-5.85-3.28a77.86 77.86 0 0 1-22.05-4.18c-7.38-2.57-9.83-4.88-14.07 3.28-3.47 6.62-7.07 13.75-6.55 21.47.32 5.14 2.5 9.77 5.84 13.81Z"/><path fill="#002F19" d="M473.53 427.38c.51-1.22.64-4.12.64-5.08.64-18.7-.26-94.34-.26-114.72-8.6 7.2-21.01 13.3-21.01 13.3s-2.06 49.43-2.77 66.91c-.64 16.13-1.41 55.33-2.25 56.68-.96 1.55-2.7 2.57-4.43 3.09-1.8.51-3.66.64-5.53.7-13.88.52-50.51-1.67-54.3-1.15 10.09 2.63 24.74 4.3 35.15 4.43 10.16.13 29.95-.58 30.53-.77.7-.25 17.41-15.68 19.6-17.48.9-.64 3.73-3.73 4.63-5.91Z"/><path fill="#C8DC8C" d="M245.83 241.32s-14.01 24.04-26.48 76.68c-5.53 23.32-11.12 32-6.5 57 6.24 33.36 65.5 60.22 65.5 60.22s-10.41.7-16.9 0c-13.3-1.48-70-22.17-56.69-97.62 8.8-49.88 14.14-68.32 25-84.07 19.67-28.53 16.07-12.2 16.07-12.2Z"/><path fill="#002F19" d="M331.69 129.56s1.16 23.14-17.87 24.1c-6.87.33-5.07 17.8-1.99 22.11 3.15 4.44 4.95 6.43 9.58 10.35 3.6 3.08 6.36 7.32 6.42 12.02.07 3.98-1.54 7.84-2.18 11.76-1.54 9.5 5.53 12.85 6.1 22.04.71 12.4-3.34 20.44-16.32 26.03-13.69 5.85-16.84 12.27-32.4 13.11-9.25.51-22.1-.96-35.02-14.52-2.82-2.96-4.3-7.52-4.95-11.38-1.67-9.9-1.09-18.7 10.1-22.3 0 0-8.68-6.94-2-20.3 4.63-9.26 10.16-6.18 15.68-14.47 5.53-8.29 3.54-11.89 13.7-21.01 11.3-13.63 51.15-37.54 51.15-37.54Z"/><path fill="#767676" d="M318.7 101.22c-5.84.32-4.62-2.76-12.4 1.42-31.23 16.77-34.44 32.64-25.83 64.52l24.36-18.9 13.88-47.04Z"/><path fill="#56b529" d="M299.43 152.38s-7.9-25.58-.65-40.23c5.08-10.22 10.74-11.38 14.91-13.11 16.13-6.5 24.81 1.8 33.8 7.58l-48.06 45.76Z"/><path fill="#767676" d="M338.44 130.27c12.08-4.76 23.84-5.85 35.93-1.1.83-3.2 2.63-6.48 2.44-11.62-.39-7.52-5.53-12.8-12.73-15.04-7.2-2.25-15.16-.84-21.85 2.57-6.68 3.4-12.34 8.67-17.42 14.14-3.08 3.34-25.38 33.22-25.38 33.22l15.3-9.38c7.58-4.82 15.35-9.51 23.71-12.79Z"/><path fill="#002F19" d="M342.55 138.69c18.57 4.82 23.84 1.48 29.56-5.27 4.25-4.95 2.77-12.85 1.74-14.65-1.1-2-3.02-3.41-4.95-4.5-5.27-2.9-15.16-.7-20.3 2.38-8.68 5.14-17.04 16.7-17.04 16.7s5.92 3.99 11 5.34Z"/><path fill="#00643A" d="M310.67 166.84c-1.73-5.2-.64-7.33 1.42-9.64 1.15-1.29 3.79-4.11.96-6.81-1.48-1.48-4.63-.9-7.32 2.57-1.55 1.99-3.73 6.23.32 16a16.1 16.1 0 0 0 5.72 6.81s1.22-1.93-1.1-8.93Z"/><path fill="#56b529" d="M243 245.24s-.45-14.46 9.38-19.8c1.42-.76 3.15-3.07 1.55-5.39-2-2.9-3.86-7.33-2.2-12.27 2.97-9 8.24-9.77 14.02-14.14 5.78-4.37 5.72-17.3 14.72-26.54 0 0-10.54 7.51-14.08 14.71-5.91 11.96-11.3 7.97-16.13 15.62-4.82 7.52-1.28 20.5-2.95 24.36-1.74 3.85-9.45 10.34-4.31 23.45ZM425.33 306.56c8.03.32 16.06.57 24.1.83 4.88.13 9.7.26 14.59.45 1.22.06 2.5.06 3.72.13.97 0 2 .26 2.96.26 1.03-.07 2.12.32 2.57 1.22.26.51.32 1.09.32 1.67.07 2.25 0 4.56-.25 6.81 0 .32-.07.7.12 1.03.33.58 1.87 0 2.25-.39.39-.32.45-.9.45-1.41.07-2.19.2-4.3.26-6.5.06-1.8.64-3.27-1.29-4.1-3.53-1.55-7.7-1.35-11.5-1.29-14.01.2-55.91-2.57-62.92-2.31-2.05.06-9.57 3.02-9.57 3.02s26.48.32 34.19.57Z"/><path fill="#F1F7E9" d="M441.91 329.95c1.22 0 2.57 0 3.47 1.03.51.57.51.57.84 1.22.32 3.47-.78 21.85-.9 22.62-.07.26-.13.51-.26.7-.13.13-.26.2-.39.33-1.03.58-1.93.45-3.02.45-1.28 0-23.58.25-29.5.25-2.37 0-5.52.13-5.52-.57-.07-1.29 1.35-24.49 1.35-24.49s26.15-1.41 33.93-1.54Z"/><path fill="#D6D6D6" d="m427.51 340.42 13.11-1.15c1.74-.13 2.12-1.42 1.93-2.32-.13-.9-1.86-.9-2.76-.83-4.25.32-8.55-.45-12.73-.07-4.5.39-8.93.45-13.43 1.29-1.22.26-4.5.77-3.86 3.08.71 2.57 6.17.97 7.72.84 3.4-.26 6.74-.51 10.02-.84ZM428.03 349.68c3.02-.13 6.04-.26 9.06-.32 1.29-.07 3.15.32 4.37-.2.51-.19 2.19-1.67 1.54-2.7-.45-.77-1.35-.83-2.12-.83-8.87-.26-17.87-.9-26.67.38-1.22.2-4.5.52-3.92 2.9.64 2.63 6.1 1.22 7.71 1.15l10.03-.38Z"/><path fill="#D6D6D6" d="M421.73 332.33c-2.9.25-5.72.45-8.48 1.28-1.55.45-3.15 1.16-4.05 2.76-.65 1.23-.84 2.7-.97 4.12-.51 5.14-1.09 10.28-1.6 15.49-.71-7.07-.45-14.2-.2-21.34.07-1.54.2-3.21 1.1-4.18a3.9 3.9 0 0 1 2.25-.96c2.63-.51 5.27-1.03 7.96-.96 2.19.06 15.88.12 20.57.19 2.25.06 4.24.45 6.43 1.35.32.13 1.35.38 1.47 2.12-1.67-1.42-10.28-1.03-12.33-.84l-12.15.97Z"/><path fill="#56b529" d="M485.29 314.14c1.09 1.03 2.38 2.44 2.63 3.92.2 1.6-.51 3.28.26 4.75.38.78 1.16 1.23 1.54 2 .58 1.09.39 2.38 0 3.6-.38 1.15-.9 2.31-.83 3.53.06 1.29.7 2.5.9 3.8.38 2.11-.52 4.1-1.55 5.9-.9 1.55-1.54 3.28-2.63 4.76-2.25 3.02-5.72 5.66-9.58 6.04-3.53.32-7.07.26-10.54-.25-1.6-.2-3.15-.52-4.62-1.23a4.33 4.33 0 0 1-2.13-1.73c-.44-.77-.57-1.87.07-2.64-1.22-.51-1.8-1.99-1.67-3.34.13-1.73 1.93-3.27 1.6-4.88-.83-4.18 1.03-7.2 3.73-10.16 1.61-1.73 3.22-3.47 5.02-5 1.86-1.62 4.62-3.03 5.97-5.09 1.48-2.25 2.25-5.33 2.7-7.9 3.34.2 6.62 1.48 9 3.73.06.13.06.13.13.19Z"/><path fill="#00643A" d="M470.19 336.44c3.85-1.86 7.39-4.37 9.83-7.97.2-.26.39-.64.26-.96-1.48.7-2.7 1.99-4.05 2.89a61.7 61.7 0 0 1-4.5 2.5 133.75 133.75 0 0 0-9.19 5.53c-1.03.64.13.9.7.77.71-.19 1.42-.45 2.13-.7 1.6-.58 3.21-1.29 4.82-2.06ZM481.7 338.05c.38-.52.57-1.1.38-1.68-.77-.06-1.48.71-1.93 1.16-2.12 2.19-4.89 3.6-7.71 4.7a170.29 170.29 0 0 1-8.04 2.82c-.38.13-1.67.26-1.86.58-.39.45.13.58.51.64 1.42.26 2.9-.13 4.3-.38 1.55-.26 3.16-.45 4.76-.71a11.94 11.94 0 0 0 6.95-3.99c.7-.83 1.47-1.67 2.18-2.5.06-.2.26-.45.45-.64ZM354.05 448.14c-.64.06-6.42-.52-8.22-1.03a113 113 0 0 1-12.86-4.5c-2.7-1.16-8.48-4.11-7.58-5.4.7-1.16 4.44 1.41 5.91 2.06 2.38 1.03 4.82 1.99 7.2 2.89 2.57 1.03 5.2 2.12 7.78 3.15l1.16.38c3.98 1.29 9.9 1.74 9.9 1.74s-1.42.58-3.29.7Z"/><path fill="#F1F7E9" d="M379.76 259.64c.06 0 .06 0 0 0 .26 0 .51 0 .7-.06.07 0 .07 0 .07-.07v-.77c0-.06 0-.13-.06-.13l-.07-.06H379.7V259.39c0 .19 0 .19.07.25ZM370.9 259.25c0-.19-.2-.7-.27-.77-.13-.32-.25-.64-.45-.9a4.14 4.14 0 0 0-2.12-1.47 7.02 7.02 0 0 0-2.57-.26c-.83.06-1.73.32-2.38.83a4.4 4.4 0 0 0-1.09 1.35c-.13.2-.2.39-.25.58-.2.58-.26 1.29-.26 1.93h.51s.2-.96.2-1.03c.19-.51.5-.9 1.02-1.15.58-.26 1.35-.46 1.93-.2.9.39 1.29 1.29 1.35 1.48 0 .06.06.13.13.13h.26l1.92-.2 1.74-.19c.2.07.32.07.32-.13Z"/><path fill="#D6D6D6" d="M362.09 261.05c.38.97.9 1.29 1.15 1.42.45.25 1.1.25 1.55.19 1.15-.26 1.67-1.48 1.73-2.12 0-.13.13-.13.26-.13s.26-.06.38-.06c.58-.07 1.22-.13 1.8-.13.32 0 .58-.07.9-.13.26 0 .52-.06.84-.06.2 0 .13.25.13.38v.64c-.07.45-.13.84-.32 1.22a3.9 3.9 0 0 1-1.48 1.74c-1.48.84-3.22 1.29-4.82.7a3.73 3.73 0 0 1-1.93-1.54 4.76 4.76 0 0 1-.77-1.99v-.06c0-.07.06-.07.13-.07h.45Z"/><path fill="#F1F7E9" d="M375.97 260.99a1.5 1.5 0 0 0-1.03-1.03c-.26-.06-.7-.06-.96 0-.26.07-.71.39-.71.39s0-.9-.13-1.42c0-.06-.06-.06-.06-.13h-.13c-.51.07-.64.07-.58.58l.06 1.61v3.02c0 .06.13 0 .2 0l.58-.06c.06 0 0-.07 0-.13v-.13c.06-.06.19-.13.25-.06.52.32 1.22.25 1.48.12.39-.13.64-.32.84-.57.13-.2.19-.45.19-.71.13-.45.2-.97 0-1.48Zm-.7 1.6c-.07.14-.07.26-.2.33-.32.25-1.03.25-1.28-.07-.33-.38-.33-1.28-.2-1.6.07-.13.13-.32.26-.39.32-.26.83-.2 1.16.13.19.2.25.51.32.77 0 .26 0 .58-.07.84ZM377.2 260.28c.31-.38.89-.51 1.34-.38.2.06.45.19.58.38.13.2.26.39.32.65 0 0 0 .06-.06.06h-.13c-.07 0-.13 0-.2.06-.06 0-.12 0-.19.07-.06 0-.13.06-.2 0 0 0 0-.07-.06-.07 0-.06-.06-.06-.12-.13a.5.5 0 0 0-.33-.12c-.19-.07-.44.06-.57.19-.2.2-.2.51-.2.77v1.35c0 .2.07.64 0 .64-.06 0-.7.13-.7.07v-.71c0-.7-.07-1.41-.07-2.12 0-.26-.13-.7.07-.9.06-.06.25-.13.38-.06.13-.13.13.06.13.25ZM380.53 260.02c0 .26.06.52.06.78v.06c.07.45.07.9.13 1.41 0 .26.13 1.16.13 1.23v.06c0 .06-.06.06-.06.06-.13 0-.26.07-.39.07h-.39v-.71c0-.25-.06-.45-.06-.7 0-.26-.06-.52-.06-.71 0-.2 0-.39-.07-.64 0-.26-.06-.58-.06-.9l.06-.07H380.46c.07-.06.07 0 .07.06ZM381.75 259.77c.07 0 .07.13.07.2v.25c.19-.2.38-.32.57-.39.2-.06.33-.13.71-.06.45.06.97.45 1.16.9.06.25.13.51.13.77 0 .32.06.64.06.9 0 .2.07.38.07.58v.25c0 .07.06.2-.07.2-.2 0-.38.06-.58.06-.06 0-.25.07-.25-.06v-.2c-.07-.51-.07-.96-.13-1.47 0-.2-.07-.45-.07-.65-.06-.19-.13-.38-.32-.45-.06 0-.13 0-.2-.06-.18 0-.38.06-.5.2a.7.7 0 0 0-.2.44v.64c0 .45.07.84.07 1.29 0 .06.06.2 0 .26 0 .06-.13.06-.2.06-.13 0-.25.07-.38.07s-.26.06-.39-.07v-.38c0-.2 0-.39-.06-.52-.07-.9-.13-1.8-.13-2.7 0-.06 0-.13.06-.13.07-.06.2-.06.26-.06.06.13.2.13.32.13ZM387.73 259.38c-.07-.06-.07 0-.2 0-.06 0-.44 0-.44.07v.38a2.69 2.69 0 0 0-.97-.25c-.32 0-.58.12-.77.32-.26.25-.45.64-.52 1.03-.12.64 0 1.4.52 1.92.26.26.58.39.9.45h.51c.07 0 .2-.06.26-.06s.13-.06.2-.06c0 .19 0 .44-.07.64 0 .06-.06.13-.13.25-.2.26-.51.26-.77.2-.26-.07-.39-.2-.45-.39h-.84c.07.32.13.58.33.77.19.2.44.39.7.39.58.13 1.48-.07 1.8-.58.39-.58.26-1.54.26-1.73 0-.2-.06-1.61-.13-2.19 0-.32-.06-.64-.13-.96 0-.13-.06-.2-.06-.2Zm-.65 2.5c0 .2-.06.33-.12.46l-.2.2c-.19.06-.38.12-.57.06-.2 0-.33-.2-.4-.33-.06-.12-.12-.19-.12-.32-.06-.25-.06-.57-.06-.83s.06-.52.32-.7c.25-.2.58-.2.83 0 .26.12.39.44.39.7 0 .32 0 .58-.06.77Z"/></svg>
