<svg xmlns="http://www.w3.org/2000/svg" xml:space="preserve" width="128" viewBox="0 0 496.06 212.6"><path d="M228.27 108.04c-6.78 0-14.2.77-18.93 5.63v-24.7h-14.46v82.53h13.05v-4.99c3.84 3.45 9.73 6.01 18.04 6.01 24.95 0 26.61-16.88 26.61-32.11 0-18.94-2.94-32.37-24.31-32.37zm-3.19 51.43c-12.41 0-15.99-3.45-15.99-19.06s3.58-19.06 15.99-19.06c10.75 0 13.05 4.48 13.05 19.06-.01 14.58-2.31 19.06-13.05 19.06zm64.67-51.43c-7.3 0-13.05 2.3-17.15 6.66v-5.56h-12.54v62.36h14.46v-27.12c0-4.86-.25-11.77 1.41-16.25 1.53-4.22 5.24-7.42 11.26-7.42s8.4 1.28 8.4 7.04h14.37c.01-13.7-6.77-19.71-20.21-19.71zm81.56 0c-8.83 0-14.45 2.81-18.04 6.01v-4.92h-12.54v62.36h14.45v-29.04c0-10.87-1.15-21.62 14.46-21.62 12.54 0 11.39 5.76 11.39 17.79v32.88h14.46v-34.03c0-13.57 1.03-29.43-24.18-29.43zm76.27 1.09v4.92c-4.85-4.35-12.79-6.01-19.44-6.01-21.49 0-24.95 12.92-24.95 31.86 0 14.97 1.41 31.6 25.07 31.6 6.01 0 13.43-1.41 17.91-5.5 0 3.2.13 7.7-.25 10.9-.77 5.88-6.78 8.44-15.1 8.44-8.06 0-10.61-2.27-10.61-6.75h-15.74c0 15.87 14.2 19.04 26.73 19.04 11.52 0 26.61-3.07 28.92-17.91.51-3.46.51-9.11.51-14.87v-55.71h-13.05zm-17.02 49.32c-10.74 0-12.92-3.97-12.92-18.55 0-14.59 2.18-19.07 12.92-19.07 12.41 0 15.74 3.46 15.74 19.07 0 15.6-3.33 18.55-15.74 18.55zM316.9 171.5h14.46v-62.36H316.9v62.36zm0-68.04h14.46V89.01H316.9v14.45z" class="st0"/><path fill="#bfc0c4" d="M111.84 109.13a35.44 35.44 0 0 1-35.31 32.6 35.44 35.44 0 0 1-35.31-32.6H35.5a70.86 70.86 0 0 0 141.58 0h-65.24z"/><path d="M41.23 103.46a35.44 35.44 0 0 1 35.31-32.6 35.44 35.44 0 0 1 35.31 32.6h65.25a70.86 70.86 0 0 0-141.58 0h5.71z" class="st0"/></svg>
