<?xml version="1.0" encoding="UTF-8"?><svg id="Logo" xmlns="http://www.w3.org/2000/svg" viewBox="0 0 1005.28 497.65"><defs><style>.cls-1{fill:#b5e099;}.cls-2{fill:#56b529;}</style></defs><g id="Group_1194"><g id="Group_1191"><path id="Path_2868" class="cls-2" d="M467.14,251.96c-12.14,0-25.44,1.37-33.91,10.08v-44.25h-25.89v147.82h23.37v-8.94c9.04,7.51,20.57,11.35,32.31,10.77,44.68,0,47.65-30.24,47.65-57.51,0-33.92-5.26-57.97-43.53-57.97M461.41,344.08c-22.23,0-28.65-6.19-28.65-34.14s6.4-34.14,28.65-34.14c19.24,0,23.37,8.02,23.37,34.14s-4.13,34.14-23.37,34.14M577.25,251.96c-11.46-.58-22.63,3.76-30.71,11.92v-9.96h-22.45v111.69h25.89v-48.58c-.68-9.78.18-19.6,2.52-29.11,3.01-8.42,11.24-13.83,20.16-13.26,10.78,0,15.04,2.29,15.04,12.61h25.74c0-24.54-12.14-35.31-36.2-35.31M723.32,251.96c-11.74-.62-23.29,3.23-32.31,10.77v-8.81h-22.46v111.69h25.89v-52.02c0-19.47-2.06-38.72,25.89-38.72,22.46,0,20.38,10.31,20.38,31.85v58.89h25.9v-60.95c.02-24.29,1.85-52.7-43.3-52.7M859.91,253.93v8.81c-10.02-7.5-22.32-11.3-34.82-10.77-38.5,0-44.67,23.14-44.67,57.06,0,26.78,2.52,56.59,44.9,56.59,11.52.55,22.86-2.94,32.08-9.86.19,6.51.04,13.03-.45,19.52-1.39,10.54-12.15,15.14-27.04,15.14s-19-4.08-19-12.09h-28.19c0,28.42,25.43,34.1,47.88,34.1,20.63,0,47.67-5.5,51.82-32.08.84-8.85,1.14-17.74.91-26.62v-99.8h-23.42ZM829.44,342.25c-19.25,0-23.15-7.11-23.15-33.22s3.9-34.15,23.15-34.15c22.22,0,28.19,6.19,28.19,34.15s-5.96,33.22-28.19,33.22M625.87,365.62h25.89v-111.69h-25.89v111.69ZM625.87,243.77h25.89v-25.89h-25.89v25.89Z"/></g><g id="Group_1192"><path id="Path_2869" class="cls-1" d="M258.61,253.93c-2.65,32.96-30.17,58.37-63.24,58.38-33.07,0-60.59-25.41-63.24-58.38h-10.25c2.73,68.06,58.68,121.83,126.79,121.84,68.11-.02,124.07-53.79,126.79-121.84h-116.86Z"/></g><g id="Group_1193"><path id="Path_2870" class="cls-2" d="M132.14,243.77c2.94-34.93,33.64-60.85,68.57-57.91,30.84,2.6,55.31,27.07,57.91,57.91h116.86c-2.77-70.03-61.78-124.55-131.8-121.78-66.15,2.61-119.17,55.64-121.78,121.78h10.25Z"/></g></g></svg>