<svg xmlns="http://www.w3.org/2000/svg" xml:space="preserve" width="128" viewBox="0 0 944.88 1133.86"><defs><clipPath id="a" clipPathUnits="userSpaceOnUse"><path d="M0 850.4h708.66V0H0Z"/></clipPath></defs><g clip-path="url(#a)" transform="matrix(1.3333 0 0 -1.3333 0 1133.86)"><path fill="#00643a" d="M356.11 209.22s-9.68 2.2-12.18 2.87c-2.5.67-3.53.46-3.53 4.7v19.45h21.02Z"/><path fill="#7bc144" d="m251.6 183.63 104.51 25.59 14.18 3.7 171.66-38.36.27-3.85-11.6-2.62-105.86-38.17-24.96-5.32-152.99 53.57z"/><path fill="#f1f7e9" d="m544.59 227.64-181.73-3.56-19.12 3.56v509.88h200.85Z"/><path fill="#c8dc8c" d="M359 223.25 548.5 264l2.27-89.41-25.28-3.93z"/><path fill="#00643a" d="M554.1 737.52c-13.08-2.35-81.93-4.7-100.74-5.68l-57.23-3.03-44.37-2.34c-5.95-.32-8.48-.63-14.43-.94v7.83c0 2.79.03 5.46-.12 8.24-.07 1.33 0 2.71.52 3.94.62 1.42 1.83 2.46 3.4 2.53l3.9.18 11.36.52 15.34.7 18.44.84 20.67.94 22.03 1 22.52 1.03 22.11 1 20.86.96 18.7.85 15.7.72 11.8.54c2.34.1 4.69.2 7.03.32l1.62.07s6.72-7.33 6-14.05c-.02-.3-1.35-3.73-1.54-3.96-.2-.25-.52-.34-.83-.42-2.45-.64-.28-1.35-2.74-1.8"/><path fill="#d6d6d6" d="m162.65 743.83 190.88-16.68 5.98-503.9-2.72-1.62-193.53-45.1Z"/><path fill="#7bc144" d="M162.66 743.83h-7.68c-1.87 0-2-.67-2-3.45 0-2.79 3.57-449.8 3.57-449.8h6.72Z"/><path fill="#f1f7e9" d="m332.5 708.1-51.44 5c-8.58.82-17.15 1.66-25.72 2.49-7.18.7-12.71 2.14-19.9 1.4-1.13-.28-2.47-.93-2.43-2.09.05-1.25 1.62-1.74 2.86-1.9a2223.76 2223.76 0 0 1 67.13-7.39c4.1-.38 15.73-1.55 22.78-2.43 4.46-.56 4.8-2.1 5.15-3.06.08-.22.09-2.9.04-7.18-.17-15.49.46-181.74 1.8-223.81.02-.78 2.02 5.5 2.77 5.28 1.17-.35 1.78 1.36 1.79 2.58.41 53.45-.16 210.16-.15 223.86 0 6.24-2.25 7.02-4.67 7.26M324.35 243.2c-4.68-1.82-8.4-2.55-10.7-3.73-1.27-.65-2.14-2.05-1.33-2.98 1.46-1.69 10.66.95 17.34 3.36 4.37 1.58 6.59 3.42 6.59 7.97 0 5.75 1.06 127.89 1.06 139.06 0 5.6.02 10.08-2.64 10.08-2.45 0-3.82-3.25-3.82-13.45 0-16.24 0-110.84.26-124.09 0-14.41-2.23-14.46-6.76-16.22"/><path fill="#c8dc8c" d="m576.14 451.06-.02-.02a.86.86 0 0 1-.18-.39c-.2-.8-.13-1.7-.13-2.52v-19.2l1.3-.11 4.17-.35 5.68-.47c1.92-.16 3.77-1.2 5.7-1.37l2.47-.2c1-.09 2.03-.08 2.87.56.25.18.47.41.63.67.12.2.1.34.08.56-.07 1.45-.07 3.8-.13 5.25l-.26 5.46-.25 5.38-.2 4.1-.05 1.2c0 .1.03.35-.02.44l-1.78.11-4.22.26-5.4.34a9450 9450 0 0 1-5.31.33c-1.43.1-2.88.25-4.3.17-.23-.02-.48-.04-.65-.2"/><path fill="#767676" d="M571.14 457.14v6.17c0 1.4-.13 2.88-.02 4.28.16 2.01 2.21 1.56 3.58 1.48l4.53-.29 11.45-.71 10.4-.66c1.09-.06 2.17-.07 3.22-.39.97-.29.72-1.77.72-2.3l-.04-3.72c0-1.72-.2-3.03-.2-4.75 0-.53-2.53-2.27-3.82-2.16l-4.95.43-11.97 1.02-10.03.86-1.2.09c-.57.04-1.67.63-1.67.65"/><path fill="#7bc144" d="M586.77 443.4c-1.02.12-4.54-.96-4.67-3.89-.14-2.92 2.25-4.21 4.32-4.39 1.85-.16 2.08.9 2.8 1.47.81.63.87 1.6.88 2.47.03 2.14.56 3.88-3.33 4.34"/><path fill="#00643a" d="M586.92 435.1c.62-.04 2.24.4 2.75.74.78.5 2 1.3 1.89 3.84-.1 1.95-1.72 3.87-4.8 3.72 2.52-1.5 2.24-7.26.16-8.3"/><path fill="#d6d6d6" d="M580.94 465.07c.95.28 2.14.46 2.89-.06.59-.41.64-1.08.83-1.66.2-.59.78-1.23 1.57-1.14.3.04.56.18.81.31.93.5 1.9 1 3 1.24 1.09.24 2.34.22 3.3-.24.9-.43 1.44-1.17 2.1-1.8.65-.64 1.6-1.23 2.66-1.14.82.07 1.47.53 2.13.9.67.36 1.69.82 2.3.4.6-.42-.07-1.13-.64-1.54a8.18 8.18 0 0 0-2.17-1.25 3.53 3.53 0 0 0-2.63.06c-.39.2-.67.5-1.04.73-1.01.63-2.65.6-3.61-.07-.49-.34-.8-.8-1.24-1.16a4.5 4.5 0 0 0-3.14-.89c-.2.02-.6-.01-.48.56.15.68-.02 1.42-.8 1.7-.56.2-1.21.06-1.8-.09l-1.69-.42c-.42-.1-.88-.2-1.28-.08-1.04.33-.5 1.61-1.19 2.29-.54.53-1.63.49-2.43.2-.8-.28-1.47-.75-2.3-.97-.68-.17-1.84-.18-1.82.48.01.48 1.44 1.22 1.88 1.5 1.42.9 3.05 1.64 4.79 2.14"/><path fill="#767676" d="M385.72 208.23c.3.18.58 0 .69-.25 5.5 2.69 12 2.7 18 2.66 7.37-.07 12.81-2.74 20.18-2.92 3.84-.09 55.88-2.74 58.78-2.95-31.26 5.73-76.1 14.46-107.14 21.3-9.45 2.07-19.95-4.44-19.95-4.44s1.8-11.04 6.74-12.62a461.33 461.33 0 0 1 17.86-5.31 17.2 17.2 0 0 0 4.84 4.53"/><path fill="#00643a" d="M554.09 193.13a2699.83 2699.83 0 0 0-73.17 12.08c-3.61.35-7.23.73-10.84 1.01-3.85.3-35.74 2.4-45.78 3.3-7.12.62-14.3.11-21.45.13-6.12 0-12.73-.24-18.01-3.71a.42.42 0 0 0-.54.03 18.42 18.42 0 0 1-2.38-2.55c53.48-14.63 105.02-18.8 161.18-26.78a4.71 4.71 0 0 1 2.35.07c.77.3 1.32.96 1.83 1.6 3.47 4.35 7.14 9.26 6.8 14.82"/><path fill="#002f19" d="m530.62 168.09-174.5 41.13.16 12.41 203.37-41.4z"/><path fill="#767676" d="M363.02 221.63h-6.74l-3.26 505.56 7.8-.23z"/><path fill="#c8dc8c" d="m572.16 455.5 28.6-2.44a6.6 6.6 0 0 1 2.93.2c.39.14.76.37.98.72.23.34.3.77.35 1.18.24 1.94.23 3.9-.04 5.84-.04-4-.71-5.02-1.53-5.65-.95-.73-3.6-.3-4.97-.22-4.55.23-7.34.32-11.14.71a343.95 343.95 0 0 1-11.84.98c-1.09.07-2.7.22-4.36.32 0-1.52.62-1.62 1.02-1.65"/><path fill="#767676" d="M597.8 450.05v-15.49c0-1.36-.06-3.61-.06-4.97v-.43l-.07-.46c-.02-.14-.04-.27-.09-.4-.12-.3-.42-.5-.73-.59-.43-.12-.89-.04-1.33-.03l-1.46.02c-1.56.03-16.62 1.2-17.64 1.21l-.61.01c.05 0 .25-.32.3-.37l.42-.42c.5-.45 16.36-1.8 17.95-1.86 1.04 0 2.07-.12 3.1-.08.25.01.5.03.73.14.66.32.52 1.18.52 1.78l.03 1.91c.02 1.65.1 4.18.13 5.82l.06 5.37.06 4.58c0 .86.02 1.72.03 2.57v.19c0 .62-.24.98-.6 1.15l-.74.35"/><path fill="#c8dc8c" d="M402.6 121.1c6.5.06 8.67 1.73 14.96 3.4 21.24 5.66 56.1 18.47 85.5 29.12 9.37 3.4 18.16 6.58 25.81 9.21 2.2.76 1.75 2.12 1.75 5.26-3.86-.47-84.82-30.17-108.09-34.94-6.58-1.35-15.34-3.96-22.03-3.23-1.9.2-3.84.98-5.65 1.53-4.04 1.22-8.06 2.5-12.08 3.8-5.62 1.81-11.22 3.65-16.83 5.5a4794.38 4794.38 0 0 0-41.3 13.85 7207.13 7207.13 0 0 0-40.4 13.84c-5.1 1.77-10.21 3.52-15.3 5.32-4.93 1.73-9.99 3.33-14.74 5.5-.91.4-1.85.85-2.47 1.63-.62.78-.8 2.01-.12 2.74-7.37-1.55-7.01-4.22-7.21-5.67-.21-1.5-.37-3.36.56-4.68.93-1.31 2.78-1.83 4.23-2.29 7.97-2.5 15.84-5.35 23.74-8.06a10832.02 10832.02 0 0 1 43.3-14.74c8.03-2.71 16.06-5.4 24.1-8.08a3212.3 3212.3 0 0 1 22.85-7.52c6.48-2.1 12.97-4.17 19.48-6.18 4.63-1.42 9.27-2.84 13.96-4.08 1.87-.5 4-1.26 5.98-1.23"/><path fill="#002f19" d="M515.2 399.03c-3.14-5.3-5.28-13.42-9.39-18.01-2.74-3.07-13.3-12.59-12.76-16.15 1.22-7.98 14.8-14.31 24.86-15.25.8-.08 1.77-.25 2.56-.03.87.23 1.7.84 2.5 1.26.67.36 1.36.72 1.96 1.2.56.44 1.07 1.12.88 1.81-.06.24-.21.45-.36.65-1.36 1.76-3.3 2.99-5.27 4-.86.44-1.73.85-2.66 1.12-.29.09-.69.09-.96.22-.33.16-.56.57-.79.85-1.23 1.53-2.41 3.1-3.56 4.7-2.26 3.19-2.1 5.97-.89 9.55 2.22 6.59 8.04 13.04 11.78 18.86 2.13 3.27 5.25 8.04 2.4 11.79-4.58 6.02-7.23-1.16-9.26-4.76l-1.04-1.81"/><path fill="#767676" d="M505 333.46c-2.79-2.4-5.91-6.12-7.48-9.45-1.87-3.96-1.56-8.5.4-12.42 3.33-6.66 13.25-6.76 18.1-12.41 3.1-3.61 14.6-39.02 14.6-39.02s2.44 7.8 5.62 4.58c1.06-1.07 9.84-7.5 9.77-8.3 2.5 28.85 3 58.05-1.75 86.61-2.62 15.8-14 14.04-24.79 13.48 0-11.8-7.5-17.08-14.46-23.07M482.83 200.39c-.75-5.54-4.53-13.59.12-16.81 5.16-3.58 20.2-.17 25.2 2.47 3.05 1.61 5.68 3.9 8.17 6.28 1.75 1.67 3.5 3.51 4.16 5.84.68 2.42.09 5-.51 7.43l-8.25 33.53c-1.65 6.72-30.82 41.15-28.43 21.08 2.36-19.85 2.2-40-.46-59.82M380.22 164.9c1.8.41 3.56.98 5.27 1.7 5.7 2.4 10.8 6.47 16.85 8.01 5.68 1.45 12.4.72 17.6 3.8 4.3 2.55 6.46 8.89 6.97 13.53.67 6.11-1.5 12.1-2.88 18.09-2.31 9.94-3.84 20.03-6.15 29.97-.5 2.13-1.61 4.77-3.8 4.67-4.52-.21-7.61-12.03-8.85-15.27-3.26-8.51-8.77-17.48-14.63-24.45-9.25-11-23.05-16.35-35.07-23.6-3.15-1.9-6.45-5.4-4.92-8.75.56-1.22 1.66-2.09 2.77-2.84a34.56 34.56 0 0 1 26.84-4.86"/><path fill="#00643a" d="M426.17 360.95c-.18 6.57 4.13-.33 4.94 6.2 2.3 18.43 2.84 36.72 4.44 55.24 1.13 13.1 2.57 26.17 3.4 39.3l.05 1.09c-.92.81-1.72 1.85-2.36 3.16-4.86 10-3.47 22.71-5.47 33.43-17.65 1.47-24.43-10.35-33.48-22.27-6.03-7.92-14.86-13.4-20.5-21.48-6.13-8.79 13.65-8.5 13.57-18.74-.1-13.19-14.6 6.5-14.5-6.7.51-57.54-2.69-158.6 1.9-215.96.07-.94.17-1.94.74-2.7.64-.85 1.72-1.24 2.75-1.57 15.98-5.12 27.25-7.19 42.38.08 1.7.82 2.18 149.52 2.14 150.92"/><path fill="#00643a" d="M474.36 388.93c-1.78 19.08-5.24 37.66-7.72 56.68-1.76 13.46-3.2 26.96-5.26 40.37l-.18 1.12a10.36 10.36 0 0 0-3 2.7c-6.94 9.09-8.36 22.2-12.65 32.62-17.59-2.18-21.64-15.52-27.9-29.42-4.17-9.25-11.61-16.6-15.37-25.94-4.08-10.14.18-20.5-.11-31.09-1.28-45.48 27.74-120.8 27.74-120.8s35.5-67.81 44.89-84.96c2.56-4.7 12.12-6.13 17.16-6.05 5.03.07 8.64.79 16.36 6.9 1.5 1.18 3 2.57 3.48 4.42.4 1.53.05 3.14-.3 4.68-9.7 41.74-21.74 58.76-32.15 100.44-.35 1.4-4.36 41.58-5 48.33"/><path fill="#002f19" d="M395.92 641.93c-8.94-5.65-12.15-13.77-13.4-23.67-.21-1.6-.65-7.34 3.7-8.68a191.27 191.27 0 0 0-8.74-19.38c-2.07-3.81-3.95-8.44-2.16-12.4 1.56-3.44 5.53-5.03 9.23-5.83a47.16 47.16 0 0 1 23.2.92c2.07.6 5.57.87 7.32 2.2 2.65 2 3.18 6.92 3.46 9.95.46 5.14.42 10.31.39 15.47l-.24 34.65c-.03 4.6-.27 10.1-5.62 10.86-2.81.4-2.34 2.08-5.16 1.41-3.01-.7-9.32-3.82-11.98-5.5"/><path fill="#c8dc8c" d="M425.28 572.56c4.86-.35 9.4-4.12 14.18-5.4 5.4-1.44 11.02-2.14 16.16-4.3 9.89-4.14 16.53-13.02 21.76-21.99a155.53 155.53 0 0 0 15.68-37.23c1.35-4.92 2.47-10 1.88-15.1-.01-.04-12.67-4.39-13.96-5.25-3.25-2.18-5.39-5.9-7.25-9.25-3.68-6.62-2.4-25.24-2.4-25.24s1.72-11.57-.75-14.39c-3.92-4.5-10.72-5-16.6-6.25a306.99 306.99 0 0 0-58.17-6.62c-5.98-.1-12.07-.01-17.78 1.52-6.78 1.82-4.83 7.15-6.13 12.66-1.6 6.77-5.92 11.48-9.35 17.4-.02 2.4-2.7 5.95-3.19 8.57-1.27 6.76-2.64 12.03-8.35 16.85-.77.65-1.65 1.35-1.8 2.33-.16.9.32 1.77.78 2.57a185.86 185.86 0 0 1 16.1 36.65c3.31 10.54 6.17 20.3 12.26 29.9 1.62 2.55 3.46 5.08 6.02 6.81 2.62 1.78 5.8 2.6 8.7 3.94 2.88 1.34 5.71 3.51 6.29 6.5.22 1.15.2 2.53 1.2 3.22.42.29.94.38 1.45.47 7.2 1.27 15.04 3.71 22.34 4.16.68.04.35-2.5.93-2.53"/><path fill="#c8dc8c" d="M432.92 463.4c-2.53-3.26-3.9-6.3-1.57-10.85 1.63-3.18 2.54-6.63 4.24-9.8.87-1.62 2.75-7.4 3.97-8.08 2.17-1.2 10.68 2.1 13.14 2.67 12.54 2.97 23.62 6.94 33.26 16.13 6.12 5.84 11.08 13.6 12.54 22.03 1.51 8.76-2.43 17.84-5.44 28.14-2.37 8.16-9.87 12.33-14.1 19.7-6.66 11.55-12.77 23.13-20.79 33.82a319.11 319.11 0 0 0-13.96-74.61c-1.91-6.1-3.9-10.21-7.95-15.13-1.2-1.44-2.35-2.75-3.34-4.02M351.8 461.46c14-2.42 28.11-4.37 42.29-3.85-1.04-.04 9.8 54.83 11.19 59.73 2.64 9.39 4.96 19.3 7.04 28.8 1.09 5.12 4.13 9.33 6.35 13.97-10.22.63-21.22-1.27-28.68-8.28-3.24-3.06-5.63-6.9-7.85-10.77-5.1-8.87-10.68-18.48-13.04-28.48-1.52-6.43-2.75-13.06-5.73-19.02a20.81 20.81 0 0 0-2.57-4.25c-1.06-1.23-3.16-1.4-4.74-1.68a44.88 44.88 0 0 0-7.64-.78c-1.22-.01-2.48.14-3.7.19-.76.02-1.51.06-2.27.11-6.06.36-12.13 1.1-18.18.63a1.87 1.87 0 0 1-.82-.2c-.31-.18-.49-.52-.65-.84l-2.32-4.62c-.1-.21-.22-.44-.2-.68.04-.22.18-.42.33-.6.9-1.08 1.89-2.09 2.97-3 1.31-1.08.78-2.6.7-4.14l-.27-6.05c5.73-2.22 11.82-3.33 17.87-4.42 3.3-.6 6.61-1.2 9.92-1.77"/><path fill="#002f19" d="m248.1 462.66 10.03-38.27 63.05-4.76-16.46 45.62-55.94 2.67Z"/><path fill="#7bc144" d="m249.74 468.7 9.85 3.63 48.22 11.98 59.15-.88-62.24-18.18-52.74 2.28ZM393.86 630.5c-1.6-3.2-2.45-7-2.38-11.57.03-1.82.67-3.57.54-5.35a15.5 15.5 0 0 0-2.3-6.6c-.31-.51-.66-1.03-.81-1.61a5.15 5.15 0 0 1-.05-1.77c.43-4.53.99-9.67 2.7-13.92 1.63-4.09 3.52-8.03 6.76-11.1 1.06-1 3.02-1.8 3.82-2.97.63-.92.97-2.14 1.06-4.21 0-.17-.09-1.85 2.13-1.85 3.88 0 12.11 1.88 17.8 2.6 2.6.33 5.24 2.28 7.82 2.77 2.89.55 3.24 1.41 4.88 3.5 2.08 2.66 4.86 4.67 7.13 7.16 6.78 7.42 5.65 22.27 3.84 31.36-1.7 8.58-5.92 16.9-12.82 22.27-6.06 4.73-15.24 7.38-22.7 4.62-8-2.94-14.22-6.94-17.42-13.33"/><path fill="#00643a" d="M395.5 629.73c-.09-.61-.17-1.25-.24-1.9-.13-1.14-.3-2.27-.56-3.38-.27-1.1-.77-2.11-1.05-3.21a26.43 26.43 0 0 1-.59-7.11c.04-1.8.14-3.67-.44-5.4-.71-2.14-2.2-4.68-2.4-6.94-.48-5.6 1.65-11.05 4.17-16.07a11.5 11.5 0 0 1 1.75-2.7c2.05-2.22 4.89-2.56 7.7-2.99 2.7-.41 5.46-.32 8.18-.58.78-.08 1.72-.3 1.96-1.05.22-.71.1-1.18-.5-1.48-.56-.28-4.41-.83-5.62-1-.7-.12-2.29-.06-2.73-.77a.61.61 0 0 1-.07-.3c-.07-1.62 1.24-5.26 1.24-5.26s-2.23-.28-3.1-.14c-.15.03-.3.06-.41.17-.11.11-.15.28-.17.44-.3 1.63-.58 3.27-.87 4.9-.02.1-.04.2-.1.26a.48.48 0 0 1-.22.1c-4.42 1.21-8.62 3.95-10.96 8.1-3.87 6.84-5.55 14.85-3.43 22.43.49 1.75 1.14 3.46 1.4 5.26.62 4.19-.55 8.35.36 12.51.8 3.72 2.64 7.07 4.53 10.33 2.44 4.18 7.43 7.52 12.28 7.95.35.03-.6-1.94-.7-2.06-.52-.73-1.36-1.23-2.08-1.75-1.39-1.01-2.96-1.83-4.3-2.86-2.03-1.53-2.68-3.38-3.02-5.5"/><path fill="#002f19" d="M397.85 641.83c-6.27-5.14-9.42-13.8-10.37-21.65-.4-3.22-.06-10.06.88-9.55 2.72 1.46 5.42 7.52 6.44 9.73 1.72 3.73 3.03 7.65 4.88 11.33 2.2 4.38 2.31-2.37 3.64-5.53 1.57-3.72 3.42-7.98 8.34-12.83 3.57-3.5 10.53-5.04 13.55-3.73 1.08.46 3.08.08 4.18-.62 4.66-2.97-.8-8.6-2.37-11.4a71.28 71.28 0 0 1-6.42-15.7c-.71-2.56-1.6-5.88.37-8 2.02-2.15 5.29-3.33 8.02-4.21 5.7-1.84 12.18-2.63 17.46.2 4.05 2.15 6.88 6.28 7.94 10.74 1.07 4.47.47 9.24-1.17 13.52-.8 2.08-1.85 4.1-2.23 6.28-1.02 5.75 2.64 11.7 1.09 17.34-1.5 5.45-7.4 8.7-9.32 14.03-.67 1.83-.83 3.85-1.72 5.58-1.55 3-5.7 5.92-8.55 7.6a29.2 29.2 0 0 1-15.73 4.08 31.27 31.27 0 0 1-18.9-7.2"/><path fill="#00643a" d="M428.3 604.95c.2-1.5-.69-3.93-1.36-5.45a24 24 0 0 1-.17-.39c-.85-2.04-1.78-5.46-1.78-5.46s1.48 1.53 1.9 2.02c.83.98 1.62 1.99 2.33 3.06a16.47 16.47 0 0 1 2.55 6.57 7.01 7.01 0 0 1-.16 3.12c-.33 1-1.52 2.3-3.6 2.3a5.35 5.35 0 0 1-3.59-1.38c2.33-.76 3.48-1.6 3.87-4.39"/><path fill="#7bc144" d="M455.66 480.38c7.95.78-.42 14.56-1.9 17.66-2.72 5.7-6.39 11.59-11.1 15.67-1.57 1.36-3.66 1.75-2.14-1.19 3.35-6.5 8.25-16.74 9.62-19.88 1.24-2.85 1.66-6 2.25-9.04.23-1.17.57-2.51 1.65-3.03.4-.19.84-.24 1.28-.21l.34.02M504.51 379.15c.02-.26.04-.52.03-.77 0-1.36.12-2.65.35-3.99 1.12-6.51 3.3-9.42 8.8-13.75 4.38-3.46 10.87-5.5 16.42-4.48 8.58 1.26 14.05 5.1 17.27 11.96 3.2 6.85 2.84 14.18 1.1 20.9-2.3 8.84-8.82 26.58-24.07 21.29-2.57-.9-5.63-2.18-7.58-4.13-1.45-1.45-1.56-3.07-2.23-4.92a96.51 96.51 0 0 0-4.02-9.21c-.73-1.5-1.38-3.13-2.25-4.54-.81-1.31-2.3-2.35-3.44-3.4-.34-.32-.7-.66-.81-1.11-.08-.3-.04-.62 0-.93.14-.98.35-1.95.43-2.92"/><path fill="#c8dc8c" d="M537.79 361.98c.07-3.4-4.02-5.74-6.94-6.18a31.1 31.1 0 0 0-3.56-.33c-1.55-.05-3.18.18-4.71.4a18.3 18.3 0 0 0-4.73 1.29c-2.61 1.15-5 3.1-7 5.12a26 26 0 0 0-5.9 8.91c-.93 2.5-1.66 5.06-2.52 7.57-.35 1.01-.76 1.89-.8 2.98-.07 1.67 1.51 2.53 2.43 3.68 1.12 1.39 2.01 2.94 2.76 4.55.8 1.71 1.44 3.5 2.04 5.28.53 1.54 1.61 2.84 2.22 4.38a16.33 16.33 0 0 0 2.2 4.07c2.43 3.12 5.81 5.6 9.68 6.42.94.2 2 .28 2.8-.24 3.16-2.05-4.11-4.1-5.23-5a19.82 19.82 0 0 1-4.89-6.32c-.27-.5-.46-1.19-.81-1.64-.4-.5-.99-.9-1.4-1.41a15.83 15.83 0 0 1-2.07-3.5c-1.32-2.93-2.03-6.28-4.61-8.42-.49-.4-1.02-.77-1.4-1.28-.99-1.38.43-3.02.99-4.31.7-1.63 1.32-3.3 2.1-4.88 1.15-2.32 2.27-4.73 3.93-6.72 3-3.56 7.38-6 12.04-6.44 4.51-.44 9 .8 13.38 2.02"/><path fill="#002f19" d="M541.05 370.34c-.36 3.27-.5 5.7-.16 8.92.37 3.5.28 7.06.04 10.57-.29 4.44-.85 8.94-2.59 13.04-.85 2.02-2.19 3.79-3.48 5.56-3.3 4.53-8.87 4.9-10.88 4.87a16.16 16.16 0 0 1-3.2-.35c-2.9-.62-5.6-2-7.95-3.78-3.2-2.42-5.77-5.59-8.02-8.9-.29-.43-.59-.92-.5-1.42.07-.38.34-.68.6-.95 1.41-1.45 3.01-2.69 4.74-3.74.62-.38 1.12-.93 1.76-1.27a6.85 6.85 0 0 1 3.15-.61c2.93.05 5.51 1.83 7.9 3.55-.63-3.64 6.39-10.79 8.16-12.93 7.92-9.59-9.2-31.94-9.2-31.94s-.08-.57.04-.82c.15-.3.5-.45.83-.58 3.7-1.4 8.2-2.4 12.15-1.63 4.09.78 5.07 4.96 6 8.43 1.24 4.54 1.13 9.34.61 13.98M455.24 269.52c3.62-8.27 7.21-15.12 11.03-23.4-3.58 4.68-6.27 8.47-9.85 13.16a106.16 106.16 0 0 0-5.59 7.79c-5.52 8.77-9.47 19.52-13.66 29.07a446.1 446.1 0 0 0-11.91 30.11c-3.03 8.54-6.14 17.07-8.6 25.8-2.22 7.92-5.76 16-6.39 24.21 2.22-1.22 3.33-3.75 4.28-6.1 5.63-13.92 11.08-28 17.21-41.66 3.03-6.74 5.43-13.85 8.24-20.7 1.37-3.33 12.63-32.3 15.24-38.28"/><path fill="#00643a" d="M304.72 465.25s61.29 17.99 61.86 18.09c.57.09 1.76.63 2.32-1.37l11.3-40.3-65.62-22.46Z"/><path fill="#f1f7e9" d="m351.47 465.54 16.7 5.83c-.09.24-.98 3.45-1.35 4.76l-.52 1.82c-.15.51-.2 1.36-.91 1.23-1.32-.24-2.63-.68-3.93-1.03l-8-2.15-3.46-.93c-.22-.06 1.47-9.53 1.47-9.53"/><path fill="#002f19" d="M312.96 484.31s-7.12-.05-10.23-.57c-15.55-2.65-30.7-6.72-46.08-10.25-11.77-2.7-9.95-5.47-8.55-10.83 1.49.21 3.24.68 4.43 1.65.5.41.84.94 1.35 1.36.3.26 2.75 1.66 2.75 1.66s-2.53.2-3.5.4c-.34.08-.72.18-.88.49-.32.59.44 1.16 1.06 1.39 2.53.92 5.17 1.49 7.8 2.06l19.87 4.3c10.72 2.32 21.35 5.55 31.98 8.34"/><path fill="#00643a" d="M506.57 397.7c-.19.22-.39.47-.37.76.01.22.16.41.3.58 2.27 2.89 4.56 5.78 7.24 8.3 2.68 2.5 6.16 4.85 9.67 5.95-1.97.02-3.65-.45-5.2-1.02a29.5 29.5 0 0 1-5.9-2.77 26.35 26.35 0 0 1-3.27-2.62 71.06 71.06 0 0 1-5.42-5.5c-.26-.3-.53-.62-.57-1.01a1.7 1.7 0 0 1 .1-.64 9.18 9.18 0 0 1 3.07-4.59c2.7-2.02 6.82-2.75 6.82-2.75s-6.08 4.85-6.47 5.3M442.63 634.34a24.88 24.88 0 0 1-1.88 4.24c-1.57 2.65-4.04 4.66-6.73 6.13a35.11 35.11 0 0 1-8.7 3.3c2.85-2.24 5.7-4.64 7.8-7.59a22.26 22.26 0 0 0 3.59-8.93c.6-3.96 2.47-4.7 3.5-5.54 5.05-4.17 8.6-6.71 7.37-14.78-.28-1.8-.72-4.15-.62-5.97.2-3.97 3.18-7.16 4.97-10.71a18.85 18.85 0 0 0 1.76-11.23c-.2-1.26-.51-2.5-.83-3.73l-1.38-5.26a17.13 17.13 0 0 1 4.47 9.63c.42 3.6-.32 7.23-1.43 10.66-.86 2.66-1.94 5.24-2.57 7.95-.4 1.74.1 5.32.56 7.05.78 2.94 1.4 7.91-.45 11.67-2.48 5.05-7.93 8.98-9.43 13.1"/><path fill="#d6d6d6" d="M350.22 474.12c.5-2.32.93-4.66 1.77-6.88.27-.71.77-.7 1.46-.52a85.8 85.8 0 0 1 8.24 2.51c2.06.74 5.67 1.85 6.48 2.14.22-.77.15-1.18-.2-1.3a241.87 241.87 0 0 0-15.95-5.11c-.2-.06-.73-.2-.93.34-.65 1.74-1.82 7.25-1.92 7.7l-.11.48c-.08.34-.19.73-.07 1.05.06.14.18.31.44.38l.57.16.22-.95"/><path fill="#d6d6d6" d="M354.04 473.53c.62.54 1.38.53 2.08.39.38-.09.77-.2 1.17-.14.92.14 1.46 1.14 2.31 1.54.43.2 1 .13 1.47.16.34.02 1.35 0 2.16.23.8.24 1.4.72 1.63.55.47-.35 0-1.24-1-1.58-.57-.2-1.86-.4-3.04-.44-1.72-.08-1.77-1.64-3.48-1.78-.74-.06-1.68.5-2.36.22-.54-.21-1.09-1.6-1.7-.86-.21.27.3 1.31.76 1.71M355.3 470.44c.14.1.3.18.46.26.9.45 1.53.14 2.41.27 1.07.16 1.57 1.37 2.6 1.64 1.24.32 2.82.3 4.13.42.1 0 .2.02.29-.03.13-.06.2-.2.2-.35.1-1.12-1.78-.88-2.45-1.01-1.68-.34-3-1.86-4.72-2-.73-.05-1.5.15-2.19-.13-.63-.25-1.39-1.16-1.84-.68-.45.47.48 1.18 1.1 1.6"/><path fill="#00643a" d="M279.72 466.33s11.86-1.08 17.5-1.9c2.35-.34 7.89-1.14 8.65-4.6.27-1.22 1.14 0 2.08-.82.12-.1.25-.2.4-.22.18 0 .33.1.46.21a33.48 33.48 0 0 1 5.35 5.23c.76.93 1.82 2.04 2.28 3.15.63 1.5.37 1.4-1.54.86-1.25-.35-3.14-.85-4.8-1.27-1.88-.49-4.65-.9-8.82-.84-4.18.06-21.56.2-21.56.2"/><path fill="#7bc144" d="M310.56 483.82c3.67.68 7.46.7 11.12 0-.07 1.1-1.02 1.9-1.89 2.58-1.48 1.13-3 2.3-4.8 2.8-3.87 1.06-7.88-.44-11.3-2.2-.97-.5-1.87-1.08-2.85-1.56a4.04 4.04 0 0 1-1.68-1.28c-.39-.6-.44-1.47.06-1.97.32-.32.79-.44 1.23-.5 2.95-.43 5.87 1.15 8.67 1.82.48.11.96.22 1.44.3"/><path fill="#00643a" d="M305.93 482.78c2.14.44 4.18 1.23 6.33 1.62 3.43.63 9.37-.24 9.37-.24s-8.42-1.25-11.02-2.05c-1.23-.38-4.56-1.3-7.2-1.33-2.52-.03-4.36.8-4.61 2.16 1.93-1.25 5.72-.45 7.13-.16"/><path fill="#7bc144" d="M363.02 482.32c3.06.81 4.97.22 5.74-1.82.94-2.5 1.87-5.57 3.3-9.84a76.78 76.78 0 0 1-1.98 10.91c-.6 2.5-1.57 3.22-7.48 3.28-12.25.12-37.83-.79-37.83-.79s34.05-2.86 38.25-1.74M355.68 492.35c5.7 14.62 10.98 27.67 15.88 41.75a102.33 102.33 0 0 0 8.9 18.97c-6.74-7.02-11.6-16.53-15.1-25.62-3.49-9.1-6.92-17.62-10.63-26.63-3.35-8.12-6.31-13.97-6.31-13.97s2.05-.18 3.38-.18c1.56 0 3.21 3.97 3.88 5.68"/><path fill="#002f19" d="m363.42 435.97-1.5 1.66-23.99-7.75-22.28-5.35.62-5.49 19.38 6.83z"/><path fill="#7bc144" d="M404.2 459.84a236.7 236.7 0 0 0-12.46-.64c-5.47.01-10.92.4-16.31-.5.4-1.46.59-2.3 1.11-3.99 3.12-.79 7.9-1.72 9.24-3.68 1.55-2.26-2.3-4.33-4.17-5.1-2-.8-7.96-2.13-11.13-2.51-1.7-.2-7.3-.06-8.33-2.36a1.5 1.5 0 0 1-.1-.93c.17-.61.6-.95.94-1.25.28-.24 1.36-.83.44-.94a6.3 6.3 0 0 1-2.3-.66c-1.6-.88-1.85-1.72-1.6-2.9a3.09 3.09 0 0 1 1.72-2.1c-2.12-1.23-1.55-3.77 1.92-5.2 3.5-1.44 4.68-1.51 6.95-1.92.7-2 3.81-2.39 4.82-2.49 3.42-.34 6.62.29 9.85 1.32 5.44 1.73 11 4.29 15.8 7.38 2.76 1.77 15.05 12.66 15.05 12.66l-1.4 17.51s-5.1-.99-6.72-1.27c-1.1-.19-2.21-.33-3.32-.43"/><path fill="#00643a" d="M376.17 436.07c2.38.36 4.9.69 6.34 2.6-3.13-.32-5.7-.63-8.83-1.07-3.35-.46-8.64 1.58-9.2.53-.25-.48.31-.98.8-1.22 1.06-.53 8.14-1.25 10.9-.84M382.34 432.02c-1.65-.11-5.46-1.12-9.65-.96-3.82.16-8.1 1.51-8.39 1.02-.27-.48.28-1 .75-1.25.46-.25 10.22-3.27 17.29 1.2M412.31 461.12c-.15 1.89 1.37 2.73 3 3.27a547.08 547.08 0 0 0 21.92 6.8c2.35.67 7.63 3.45 8.88 1.47 1.25-1.98-12.66-6.8-17.35-9.22-2.69-1.38-8.3-3.07-10.38-5.03-.75-.72-.92-1.83-1.04-2.87-.68-5.86 1-12.69.77-18.64-.06-1.6.17-2.8-1.13-3.24-1.31-.44-2.26-.32-2.87 1.8-2.1 7.18-1.33 19.94-1.8 25.66M552.66 161.38l-22.04 6.7v565.2c0 1.77-.61 2.15-2.74 2.03-2.13-.12 6.91 3.51 6.91 3.51l20 .3-1.57-575.68Z"/><path fill="#c8dc8c" d="M557.92 162.56c-2.4-.69-5.26-1.18-5.26-1.18s-.03 3.24-.09 6.31l-.3 15.6c-.18 10.41-.33 20.82-.4 31.23-.17 25.5.14 183.98.14 237.59.01 39.47 1.2 78.9 1.2 118.4v187.23s3.13-1.26 4.94-2.2c2.74-1.4 2.74-7.71 2.74-12.41 0-6.05-.75-250.25-.75-304.37V166.48c0-2.16-.63-3.46-2.22-3.92"/><path fill="#7bc144" d="M537.24 349.14c1.05-.04 2.12-.71 1.7-1.92-.04-.12-.1-.23-.09-.35.02-.3.37-.45.63-.6.64-.37.97-1.2.76-1.9-.22-.73-.92-1.27-1-2.03.58-.29.91-.95.95-1.6a3.98 3.98 0 0 0-.46-1.86c-1.34-2.88-4.02-4.7-5.8-7.26l-.86-1.26a11.92 11.92 0 0 0-8.23-5.36 10.91 10.91 0 0 0-4.69.15c-.59.16-1.17.38-1.67.74a4.86 4.86 0 0 0-1.8 3.88 13.99 13.99 0 0 0 1.82 7.38 19.52 19.52 0 0 0 2.71 3.4c1.42 1.53 2.81 3.07 4.4 4.42.59.49 1.18 1 1.88 1.32.71.34 1.51.58 2.26.86 2.16.81 4.34 1.62 6.63 1.95.27.04.57.05.86.04"/><path fill="#c8dc8c" d="M531.44 343.66c-.3-.2-.61-.45-.75-.8-.14-.33-.06-.8.28-.96.19-.1.42-.08.63-.04.9.16 1.74.56 2.57.96l2.35 1.14a6 6 0 0 1 1.42.84c.36.33 1.37 1.54.91 2.07-.42.48-1.68-.37-2.11-.6-1.75-.9-3.67-1.48-5.3-2.6M535.45 339.25l-.25-.3c-.28-.36-.99-1.15-.84-1.66.07-.25.4-.31.64-.24.25.07.46.24.66.4.61.5 1.16.97 1.6 1.6.58.8 1.2 1.58 1.64 2.46.27.53.04 1-.54.66-.36-.22-.6-.58-.88-.88-.66-.7-1.41-1.3-2.03-2.04M247.33 471.73c.37.16.74.3 1.11.42 1.94.62 3.63 1.94 5.37 3.04 1.02.66 3.9 2.98 5.05 1.83.55-.54.48-1.46.22-2.2-.77-2.15-2.74-3.6-4.57-4.98-1.55-1.18-3.16-2.5-3.92-4.36-.63-1.56.4-10.22.74-13.72.1-1.08-.24-.76-.24-.76s-5.48.46-10.02.27c-.84-.04-3.8 4.04-4.14 4.83-1 2.3-.2 2.95 1.2 5.11 1.75 2.71 3.71 5.26 5.66 7.8a9.24 9.24 0 0 0 3.54 2.72"/><path fill="#7bc144" d="M259.74 476.65c-.2 1.34-1.59 2.14-3.79 1.59-1.63-.4-3.26-1.27-3.8-1.54-3.04-1.51-5.67-3.67-8.46-5.57-1.83-1.25-3.72-2.56-4.85-4.46a5.77 5.77 0 0 1-.61-4.76c.9-2.45 1.78-.47 2.7.83 2.41 3.38 5.16 6.66 8.8 8.77 1.39.82 3.47 2.46 5.17 3.58 3.24 2.13 3.63 1.4 3.92 1.12.4-.4.26-1.38-.15-2.29.71.84 1.22 1.64 1.07 2.73"/><path fill="#767676" d="M121.94 110.22c-.14-1.26-.26-2.5-.38-3.72-.15-1.48-.26-3.04.38-4.43a7.62 7.62 0 0 1 2.32-2.65c5.23-4.09 12.5-4.9 19.27-5.35 9.7-.64 19.43-.77 29.14-.88 4.57-.04 8.57-.89 13.24-.37a77.12 77.12 0 0 1 16.67 3.75c4.3 1.48 8.64 3.47 11.57 6.96 2.93 3.49 4.07 8.82 1.63 12.67-2.42 3.8-7.31 5.01-11.73 5.9l-16.7 3.4c-4.07.82-8.45 1.46-12.34 3-3.5 1.38-6.46 3.66-10.34 4-4.42.4-9.3.42-13.68-.1-4.5-.53-9.01-1.05-13.54-1.43-5.1-.42-10.17.94-12.12-4.19-1.95-5.11-2.79-10.98-3.39-16.56"/><path fill="#c8dc8c" d="M304.44 449.3c2.72.63 5.82.65 9.06 2.3 3.31 1.7 5.92-.82 2.52-4.5-2.73-2.95-5.64-3.94-10.46-6.32.8-1.93 10.14-4.85 12.33-5.6 5.15-1.79 11.1-1.86 16.49-2.75a5.92 5.92 0 0 0 2.63-.87c.75-.56 1.2-1.64.73-2.45a2.8 2.8 0 0 0-1.12-.95 42 42 0 0 0-5.57-2.66c2.09.17 2.08-2.7.6-4.2a6.47 6.47 0 0 0-5.19-1.94c1.02-.48-3.45-3.8-4.57-3.93-16.82-2.05-31.44-1.33-48.15 1.34-2.67.43-5.62 1.03-7.2 3.23-2.24 3.13.71 4.69 2.9 6.46 1.42 1.14 1.68 2.09 2.49 3.62 1.05 1.99 2.95 3.34 4.69 4.74 4.26 3.43 8.54 6.87 13.28 9.57 4.64 2.64 9.56 3.75 14.54 4.9"/><path fill="#002f19" d="M119.29 366.67c2.8-20.14 6.96-40.08 9.38-60.3 2.78-23.3 9.52-93.43 10.16-109.5.32-8.03-8.64-22.6-8.43-30.63.13-5-.33-13.13 6.19-13.83 15.23-1.63 44.72 10.94 44.72 10.94s5.57 20.04 5.76 28.44c.37 16.83.6 33.66.7 50.49.24 33.71.03 67.43-.35 101.14-.27 22.94-.61 45.88-.96 68.82-.01 1.29-.08 2.7-.8 3.69-.84 1.14-2.23 1.25-3.45 1.26-9.3.09-18.68-.74-27.97-.27-13.8.7-29.45 9.92-35.87-8.87-2.09-6.1-1.91-12.74-1.47-19.18a322.1 322.1 0 0 1 2.39-22.2"/><path fill="#767676" d="M131.91 153.48c-.34-2.7-.22-5.09.73-6.38 2.76-3.75 6.86-5.7 10.77-8 3.88-2.3 7.56-6.87 11.94-7.99 1.71-.43 3.5-.2 5.26.02 15.16 1.96 30.66 4.03 44.33 10.89 2.64 1.32 5.24 2.85 7.17 5.07 1.94 2.22 3.15 5.24 2.6 8.14-.5 2.7-2.48 4.97-4.82 6.43-4.37 2.75-9.81 3.01-14.98 3.2-10.26.36-20.51-.17-30.78.38a95.71 95.71 0 0 0-16.92 2.6c-4.17.99-8.4 2.3-11.2-1.81-1.46-2.12-3.5-7.8-4.1-12.55"/><path fill="#002f19" d="M141.46 391.07c-3.38-11-4.48-22.63-5.54-34.16-3.48-38.15-.33-73.13-3.12-111.34-1.4-19.1-11.6-118.68-7.47-118.79 12.73-.34 47.58-1.98 51.2 14.24.26 1.2.52 2.4.8 3.6 8.87 39.9 17.7 79.87 24.2 120.25 6.37 39.51 9.58 79.43 14.29 119.1-18.24 18.99-18.54 50.58-29.78 50.7-7.38.1-18.12 2.3-24.87-1.75-4.71-2.84-6.42-8.34-8.43-13.28-3.8-9.39-8.55-18.76-11.28-28.57"/><path fill="#c8dc8c" d="M178.62 613.5c1.6 2.32 3.24 4.61 4.96 6.82.75.96 1.52 1.93 2.5 2.64 3.07 2.16 7.55 1.12 10.33-1.4 2.78-2.52 4.24-6.16 5.5-9.7 1.25-3.53 4.15-6.8 6.58-9.65.9-1.06.3-2.47.55-3.83.39-2.1-1.35-3.89-2.42-5.72-3.17-5.41-.93-13.09-4.96-17.9-2.38-2.83-6.26-3.78-9.77-4.95-3.51-1.17-5.94-5.06-6.93-8.63-.56-2.04-1.97-9.42-4.06-10.12.06.02-3.29 1-3.68 1.03-1.5.12-3.14.34-4.64.18-2.58-.26-4.86-1.6-7.4-1.6-5.08.03-10.37-.1-15.35.04.96 7.5 1.91 14.94 2.36 22.49.2 3.46-.32 7.12 1.53 10.13a41.09 41.09 0 0 0 5.89 7.3c2.32 2.35 5.4 4.02 7.43 6.55 4.15 5.17 7.77 10.83 11.58 16.33"/><path fill="#7bc144" d="M202.25 620.2a13.89 13.89 0 0 0 1.72-4.11c.62-2.3 1.01-4.7 2.25-6.73 1.01-1.65 2.52-2.94 3.76-4.43 2.83-3.38 1.99-6.31-.16-9.78a17 17 0 0 1-2.36-6.53c-.5-3.47.1-7.07-.8-10.45-1.07-4.05-4.22-7.33-7.94-9.1-2.51-1.2-6.25-.87-8.45-2.49-2.47-1.8-3.53-7.1-4.08-9.9-1.02.38-2.1.63-3.18.75l3.65 12.28a8.2 8.2 0 0 0-5.65 3.2c5.63.35 16.11-.7 19.9 4.1 1.7 2.13 2.17 4.92 2.36 7.6.18 2.68.4 5.37 1.08 7.97.7 2.65 1.94 5.32 3.65 7.48.14.17.29.4.2.6a.6.6 0 0 1-.2.22c-1.15.86-2.39 1.6-3.45 2.57-1.53 1.4-2.24 3.34-2.9 5.26-.84 2.47-1.42 5.09-2.84 7.28a9.82 9.82 0 0 1-5.34 4.1c-2.9.86-5.37-.99-8.01-.06 3.82 2.48 10.77 4.87 14.95 2.05a6.82 6.82 0 0 0 1.84-1.89"/><path fill="#00643a" d="M143.8 609.32a57.2 57.2 0 0 1-.85-17.17c.3-2.97.87-5.96 2.25-8.55 1.47-2.77 4.32-8.36 6.92-10.11 2.6-1.77 15.45-2.54 19.86-1.46 3.8.93 5.72 6.12 6.1 10.63.24 2.71-.14 5.35-1.15 7.19-1.33 2.4-3.51 4.21-4.76 6.66-1.86 3.64-.26 4.19 3.35 5.69 1.75.72 6.58.83 7.03-.21.71-1.64 1.5-3.33 2.43-3.22.79.1 1.18 1.04 1.4 1.84 1.5 5.54 2.13 11.07 2.73 16.75.32 3 2.68 7.57.37 10.24-.55.63-1.42.82-2.23.98a254.84 254.84 0 0 1-28.67 3.72c-2.71.2-4.2-4.21-6.23-5.75-3.05-2.32-4.25-3.85-5.74-7.67-1.2-3.1-2.15-6.3-2.8-9.56"/><path fill="#7bc144" d="M180.8 604.52c-2.6.87-5.7.02-7.74-2.13-2.03-2.14-2.18-5.22-1.46-8.09.77-3.07 5.22-7.96 6.5-9.14.03 3.3-.8 3.78-1.79 6.84a10.4 10.4 0 0 0-.65 3.4c.1 4.07 3.34 3.52 5.94 4.02 3.22.63 1.32 4.4-.8 5.1"/><path fill="#002f19" d="M142.25 583.73c1.04-2.36 5.07-8.11 9.87-10.24a53.7 53.7 0 0 0-6.34 15.95c-1.3 6.07-.27 15.86.75 19.96.3 1.24 5.3 6.95 6.76 6.33a23.07 23.07 0 0 1-9.47 1.83c-1.53-2.04-4.06-3.53-4.43-6.04-2.32-15.79.6-22.7 2.86-27.79"/><path fill="#767676" d="M160.04 642.17c-2.7-1.13-18.67-9.1-20.65-30.65 8.5-3.75 19.05-5.33 28.53-4.75 7.85.47 19.76 3.72 27.25 8.63 4.42 10.49-21.11 27.44-22.85 27.74-4.18.7-4.58 2.26-12.28-.97"/><path fill="#767676" d="M226.35 631.3s-7.94-11.5-14.61-14.03a33.14 33.14 0 0 0-5.02-1.43c-4.56-.94-9.46-1.1-13.87.51 1.3 3.68 3.42 6.67 5.36 10-.47.37-1.23.41-1.52.96 1.48.82 3.8 1.02 5.5 1.38 1.93.41 3.87.78 5.82 1.1 3.94.64 18.34 1.5 18.34 1.5"/><path fill="#00643a" d="M226.35 631.3c-6.32-6.28-12.7-9.69-15.7-10.84-7.9-3.04-12.87-3.42-12.87-3.42s-1.25.56-2.25.24c-.1-.03-.18-.07-.26-.11-.96-.5.74-1.1-.1-1.77 6.08-2.41 18.41-.55 27.72 7.6 1.79 1.56 3.98 4.24 4.81 6.51.1.3.18.61.1.92-.16.53-.77.86-1.35.87h-.1"/><path fill="#7bc144" d="M176 639.95a49.37 49.37 0 0 0 19.17-24.55c.48.25.94.52 1.4.81a19.35 19.35 0 0 1 5.97 6.37c1.32 2.2 3.26 4.79 1.5 7.2a37.26 37.26 0 0 1-14.48 11.74 38.58 38.58 0 0 1-18.89 3.4c-1.24-.09-2.5-.25-3.64-.7 3.08-.91 6.32-2.5 8.97-4.27"/><path fill="#c8dc8c" d="M190.3 638.78a45.1 45.1 0 0 0 9.16-6.67c.83-.79 1.61-1.63 2.53-2.32 1.95-1.47 2.43-.63 2.43-.63s-3.1 5.68-7.98 9.37c-8.12 6.14-14.8 7.4-19.1 7.7-2.71.18-5.45 0-8.07-.63-1.32-.3-2.51-.87-3.8-1.25-1.03-.31-2.65-1.08-2.65-1.08s2.24.05 3.66.23c1.83.25 3.7.34 5.55.3 3.72-.09 7.44-.73 11-1.88a41.8 41.8 0 0 0 7.27-3.14"/><path fill="#7bc144" d="M125.44 375.69c10.29-3.17 21.45-4.38 32.07-5 10.88-.62 21.8-.18 32.6 1.32 2.85.4 28.32 6.52 28.17 8.88-.97 15.48-3.38 45.24-3.38 45.24s4.38 19.62 4.62 29.54c.34 14.37 1.02 28.97-2.17 42.95-3.19 13.97-10.97 27.53-23.04 33.2-6.84 3.22-14.46 3.68-21.88 3.66-8.08-.03-16.26.25-24.25-1.12a42.2 42.2 0 0 1-11.14-3.43c-3.86-1.85-6.59-4.53-9.84-7.18-1.56-1.28-4.28-2.85-5.3-4.61-1.3-2.25-4.93 2.26-5.4-.3-1.13-6-1.3-20.23-2.29-26.23-3.5-21.4-2.6-42.64-4.11-64.24-.85-12.2-2.91-24.96-2.67-37.19 0-.64.05-1.35.5-1.8.34-.32.8-.44 1.25-.55 2.4-.63 4.72-1.62 6.85-2.9.74-.46 1.66-.94 2.24-1.6.62-.73.78-1.75 1.47-2.43.15-.15.33-.29.42-.48.2-.48.19-1.06.4-1.54a7.83 7.83 0 0 1 4.89-4.19"/><path fill="#767676" d="M188.98 360.34c4.75 1.74 20.44 11.29 28.6 16.12a7.5 7.5 0 0 1 3.72 7.65c-.5 12.4-2.3 38.58-2.3 38.58s-5.17-1.12-8.14 2.1c-2.1 2.28-6.87 7.3-7.3 10.34 1.5-10.34 3.02-20.67 4.53-31 .31-2.11.65-10.69-6.59-10.93-11.3-.38-42.72-1.4-54.57 1.22-7.28 1.61-31.36 8.76-37.92 9.59-1.15.14-1.78-37.41 12.15-48.8 17.56-5.06 38.26-5.65 67.82 5.13"/><path fill="#00643a" d="M222.87 521.45c-.21.3-.44.61-.69.92-6.28 7.89-12.82 16-21.73 20.72-1.99 1.05-4.08 1.93-5.95 3.19-1.87 1.25-3.54 2.97-4.2 5.12-.84 2.7-.4 5.32-.58 8.02-.14 2.16-1.25 3.4-3.42 3.8-4.66.58-28.72 2.15-36.1 4.66-1.97.66-3.89-6.89-3.89-6.89s-3.28 1.44-3.61.56c-1.69-4.48-3.08-10.23-6.9-13.32a67.56 67.56 0 0 1-8.47-7.97c-2.91-3.32-4.17-7.02-5.64-11.16-1.68-4.69-3.16-17.73 1.61-18.58 15.72-2.81 38.72-5.4 52.8-12.95a74.62 74.62 0 0 1 16.91-6.55c4.1-1.1 8.19-2.22 12.25-3.46a173.74 173.74 0 0 0 23.5-8.84l2.65-1.28c-.45.22-2.36 18.28-2.83 20.3-1 4.4-2.37 8.74-3 13.22-.6 4.11-.45 7.13-2.71 10.49"/><path fill="#767676" d="M186.04 533.25c-5.8-4.57-13.15-11.26-15.2-18.6-2.1-7.5 9-14.85 9.96-22.25 1.44-11.16 2-24.88 5.3-33.87 4.86-13.32 9.58-20.06 19.64-30.1 6.07-6.05 14-13.77 23.2-13.62 1.4.02 2.74.53 4.01 1.11a30.22 30.22 0 0 1 13.36 12.37c4.17 7.27 6.21 13.87 2.12 21.77-2.42 4.68-5.93 8.73-8.34 13.42-2.6 5.08-3.81 10.72-5 16.3-1.1 5.2-2.09 10.46-3.33 15.63-1.07 4.46-4.32 8.76-6.64 12.73a440.4 440.4 0 0 1-16.28 25.7c-1.2 1.77-2.57 3.65-4.63 4.24-6.85 1.98-12.98-.74-18.17-4.83"/><path fill="#f1f7e9" d="m142.22 493.72 1.65-.24.25 1.66-1.66.24Zm-1.14-7.81 1.66-.24 1.04 7.16-1.66.24zm13.27-.4c-1.24.18-1.42.67-1.18 2.35.24 1.67.57 2.15 1.8 1.97 1.43-.2 1.75-.66 1.49-2.45-.26-1.8-.7-2.07-2.11-1.87m2.77 5.38-.08-.57c-.49.58-1.37.9-2.13 1.02-2.47.36-3.08-1.07-3.4-3.24-.25-1.72-.36-3.65 2.35-4.05.7-.1 1.57-.06 2.15.34-.05-.37-.11-.9-.21-1.25-.19-.66-.92-.86-1.87-.72-.93.14-1.18.44-1.1.95l-1.82.27c-.26-1.83 1.32-2.43 2.76-2.63 1.32-.2 3.1-.1 3.61 1.57.12.39.21 1.04.3 1.7l.94 6.4zm-8.74 1.4a3.01 3.01 0 0 1-2.17-.4l.09.57-1.44.21-1.04-7.16 1.66-.24.48 3.33c.18 1.25.23 2.5 2.02 2.25 1.44-.21 1.21-.86 1.01-2.24l-.55-3.77 1.66-.24.57 3.9c.23 1.56.6 3.37-2.29 3.79m-9.36 1.36a2.62 2.62 0 0 1-2.08-.48l.1.64-1.44.2-1.04-7.15 1.66-.24.45 3.1c.08.57.17 1.36.43 1.85.25.46.73.77 1.42.67.69-.1.94-.3.85-.95l1.64-.24c.23 1.57-.44 2.37-1.99 2.6m-8.28-4.83c-1.42.2-1.78.66-1.52 2.46.26 1.79.73 2.12 2.16 1.92 1.23-.18 1.42-.73 1.18-2.4-.25-1.68-.58-2.16-1.82-1.98m1.23 5.85c-.78.11-1.65.15-2.27-.33l.41 2.84-1.66.24-1.37-9.48 1.5-.21.08.57a3.04 3.04 0 0 1 1.97-1c2.86-.4 3.33 1.5 3.59 3.25.31 2.17.2 3.77-2.25 4.12"/><path fill="#d6d6d6" d="M118.58 496.49a4.11 4.11 0 0 0-4.6-3.16c-.62.1-1.09-.33-1.45-.85-1.48-2.16 2.84-3.5 4.28-3.7a8.22 8.22 0 0 1 9.26 6.62z"/><path fill="#f1f7e9" d="M113.53 501.57c.36-.3 1.19-.04 1.64-.1a4.1 4.1 0 0 0 3.5-4.33l7.5-1.09a8.22 8.22 0 0 1-11.73 8.27c-.46-.25-.6-.65-.82-1.14-.18-.38-.26-.8-.25-1.22 0-.18.06-.3.16-.4"/><path fill="#d6d6d6" d="M150.55 376.6c2.67-.78 3.3-2.18 3.15-4.51-.13-1.93-2.36-2.74-4.4-2.47-13.9 1.8-20.4 2.58-31.19 5.08-3.18.74-8.7 1.79-8.7 1.79s-3.39 11.66-1.28 12.84c21.96-7.87 31.86-9.65 42.42-12.74"/><path fill="#7bc144" d="M337.93 429.88c-.6-1.13-1.14-1.28-2.65-1.96a35.76 35.76 0 0 0-16.44-1.56c-1.21.17-2.44.4-3.67.29.65-.84 1.74-1.18 2.76-1.44a30.96 30.96 0 0 1 11.64-.86c.66.1.32 0 2.04.36s.05-2.94-3.54-3.64c-3.58-.7-9.99-.12-12.5-.13-.19-.21-.1-.56.12-.74.2-.18.5-.24.76-.3l.63-.12c2.09-.42 4.18-.81 6.3-.92.51-.02 1.07-.04 1.65-.04-3.8-2.21-10.04-2.85-13.87-3.38-2.2-.3-4.4-.63-6.62-.57-11.1.3-25.04 5.84-25.04 5.84s-7.02.42-2.38-3.57c4.65-4 23.23-5.34 34.11-4.62 5.96.39 11.44 2.24 16.8 4.87 1.44.7 2.95 1.47 3.86 2.8.93 1.36 1.12 3.17 2.24 4.38.85.9 1.7 1.45 2.66 2.22a3.5 3.5 0 0 1 1.14 3.09"/><path fill="#767676" d="M263.76 409.59c2.65.22 5.3.69 7.9 1.15 1.83.33 5.31.27 6.71 1.52a5.4 5.4 0 0 1 1.14 1.7l2.42 4.87c2.5 5.02 4.72 10.3 5.97 15.76a47.67 47.67 0 0 1 1.28 11.12c-.04 3.43-1.5 4.5-4.93 4.64-8.56.35-30.68 1.1-32.92 1.4-1.24.18-2.12.51-3.36.92-3.32 1.07-7.1-.3-10.48-.46-5.68-.24-11.44-.73-16.72-2.81a29.32 29.32 0 0 1-16.21-16.09 16.94 16.94 0 0 1-1.43-7.37c.1-1.38 3.33-2.38 4.3-2.78 3.44-1.43 7.03-2.52 10.6-3.58a406.62 406.62 0 0 1 28.37-7.18c3.7-.81 7.33-2.32 11.07-2.76 2.1-.25 4.2-.23 6.29-.05"/><path fill="#d6d6d6" d="M263.87 438.4c-.64-3.72-1.53-9.08-1.54-12.86 0-1.43.2-3.03 1.32-3.94 1-.8 2.47-.8 3.63-.27a7.65 7.65 0 0 1 2.82 2.55c2.38 3.23 3.9 9.8 4.94 13.67 1.6 5.97 3.28 13.04 3.28 13.04l-11.37.44s-2.34-8.3-3.08-12.64"/><path fill="#00643a" d="M197.2 540.9c-12.09-1.14-22.22-10.4-26.68-21.36-8.93-5.86 9.42-24.17 9.42-24.17s28.26-25.97 38.73-31.83a140.01 140.01 0 0 1 19.09-8.92c5.9-2.22 13.57-2.86 13.57-2.86s-9.92 9.74-12.41 14.73c-2.5 4.99-4.03 10.38-5.56 15.75l-6.8 23.87c0 2.08-1.28 4.68-1.71 6.73-.5 2.41-.67 4.02-1.98 6.12l-7.8 12.45c-2.88 4.59-5.69 9.41-11.74 9.63-2.06.08-4.11.04-6.13-.15M196.35 430.73c-3.26 5.8-7.32 17.2-10.26 27.8a87.57 87.57 0 0 1 30.06-33.83 52.57 52.57 0 0 1 6.02-3.48c6.26-3.01 13.38-5.26 20.06-7.3 3.53-1.07 15.04-4.08 18.81-4.44-10.18-1.84-18.48-2.86-28.74-1.85-17.86 1.76-27.26 9.89-29.13 12.46a110.67 110.67 0 0 0-6.82 10.64"/><path fill="#7bc144" d="M207.3 535.72a128.2 128.2 0 0 0 19.54-36.63c2.87-8.45 4.94-17.15 7.4-25.73 2.05-7.16 7.33-20.75 17.1-21.6a54.08 54.08 0 0 0-6.68 12.9l-.01.05c-5.54 15.44-9.57 31.39-15.73 46.67-3.14 7.8-6.55 15.62-11.89 21.99-4.68 5.58-13.74 10.18-19.74 11.32 4.87-3.11 7.14-5.23 10-8.97"/><path fill="#c8dc8c" d="M116.19 482.65c.52 11.83 1.02 23.34 2.39 35.08.43 3.74 2.02 9.07 1.09 12.73-.15.59-4.72-4.55-5.01-5.1-1.28-2.39-1.78-4.75-2.17-7.4-1-6.7-6.3-71.85-6.64-86.63-.3-13.28-2.02-21.87-2.36-38.67-.16-7.77.37-27.9 17.67-37.45-6.8 10.21-8.59 20.39-9.44 26.71a45.1 45.1 0 0 0-.26 6.28v.32c.06 10.28 3.15 51.19 3.28 61.62.15 10.67.94 21.85 1.45 32.51"/><path fill="#767676" d="M120.76 511.58c.76-.44 1.6-.8 2.54-1.06 10.63-3 21.05 2.35 29.17 9.25 7.45 6.35 13.82 14.22 21.7 20 3.37 2.5 13.65 5.36 12.48 11.27-.12.61-1.11 8.54-1.11 8.54s-4.48-.05-6.71-.03c-15.5.14-31.4 1.6-45.87 8.09-1.7.77-5.33 2.44-7.2 1.84-1.7-.54-2.73-3.33-3.61-4.99a67.58 67.58 0 0 1-5.45-13.75 76.94 76.94 0 0 1-2.51-19.4c-.1-7.42.4-16.22 6.57-19.76"/></g></svg>
