<svg xmlns="http://www.w3.org/2000/svg" xmlns:xlink="http://www.w3.org/1999/xlink" xml:space="preserve" width="128" viewBox="0 0 793.7 854.85"><defs><path id="reuse-0" d="M0 641.14h595.28V0H0Z"/></defs><defs><clipPath id="a" clipPathUnits="userSpaceOnUse"><use xlink:href="#reuse-0"/></clipPath><clipPath id="b" clipPathUnits="userSpaceOnUse"><use xlink:href="#reuse-0"/></clipPath></defs><g clip-path="url(#a)" transform="matrix(1.3333 0 0 -1.3333 0 854.85)"><path fill="#c8dc8c" d="m495.88 575.79 1.68-459.73-166 51.16 1.23 418.15 6.3 3.66s147.34-9.28 151.9-9.28c4.56 0 4.9-2.14 4.9-3.96"/><path fill="#d6d6d6" d="m388.88 202.06 54.63-13.92v329.78l-55.74 7.22-1.8-5.1z"/><path fill="#002f19" d="m333.55 155.17 7.01-2.18 18.68-5.8 26.79-8.33 31.38-9.75c10.8-3.36 22-5.33 32.8-8.7 9.98-3.1 44.77-15.4 52.74-17.88 3.34-1.04 7.35-2.37 10.74-3.34 1.33-.39 2.72-.8 3.74-1.73 1.02-.93 1.34-3.35-1.47-4.76-12.62-6.3-75.1-31.85-91.61-37.72-2.72-.96-7.18-1.03-10.02-.5a279.32 279.32 0 0 0-20.6 4.95l-107.2 31.62c-1.67.5-3.35.96-5 1.48l-47.84 14.98 42.61 3.5z"/><path fill="#7bc144" d="M475.36 319.14c.11-.77.11-2.48-.08-3.24-.22-.89-.6-1.73-1.02-2.53a6.53 6.53 0 0 0-1.42-1.7 6.06 6.06 0 0 0-4.07-1.67c-1.69 0-3.26.8-4.42 2a8.54 8.54 0 0 0-1.65 2.9c-.9 3.32-.4 5.2.45 7.46.32.84.94 1.6 1.54 2.26a5.27 5.27 0 0 0 5.62 1.44 4.89 4.89 0 0 0 1.52-.73 9.35 9.35 0 0 0 3.53-6.19M474.18 344.48c-.81 2.18-1.87 3.42-4.13 4.01-2.25.6-4.63.27-6.96.33-5.07.11-9.91 2-14.8 3.36-2.9.8-6.14 1.4-8.8.01-2.68-1.38-4.07-4.37-5.12-7.2-.75-2.03-1.3-4.66.34-6.08 1.44-1.23 3.61-.72 5.42-.16 4.36 1.36 9.02 2.6 13.45 1.48 3.85-.97 8.1-2.56 12.14-3.78 2.42-.73 5-1.02 7.48 1.46 1.48 1.48 1.62 4.84.98 6.57"/><path fill="#767676" d="M443.5 517.92s-37.73 3.89-51.18 5.31c-5.98.63-4.44-4.82-4.47-8.98-.08-10.6 1.03-300.53 1.03-312.19-.75-.7-1.77-.6-2.48-.3-.97.41-1.56 1.2-1.89 3.3-.54 3.45-1 144.87-1.07 198.94-.06 48.62-1.1 98.06-.88 116.8.03 2.98-.03 6.4 7.66 5.86 14.66-1.04 38.26-3.88 43.47-4.51 10.48-1.29 9.82-4.23 9.82-4.23"/><path fill="#00643a" d="M497.56 116.06c7.12-1.94 5.39-9 5.39-13.53-3.4.85-139.11 43.14-139.11 43.14l-20.42 17.94z"/><path fill="#7bc144" d="M339.09 155.17h-7.52v431.49c0 2.43 1.13 2.67 2.86 2.67s4.66-.3 4.66-.3z"/><path fill="#c8dc8c" d="M436.74 346.12c1.64 1.92 4.98 3.9 7.49 4.27 3.15.45 6.25-.86 9.32-1.7 2.7-.74 5.51-1.12 8.32-1.14 3.85-.02 7.22.96 11.48-1.35-.85 1.36-1.9 2.22-3.05 2.45-5.17 1-10.63.63-15.56 2.48-3.27 1.22-6.28 3.42-9.77 3.63a10.42 10.42 0 0 1-8.12-3.5c-1.82-2-4.2-6.29-3.6-9.13.1-.52.22-1.05.5-1.58.38 1.91 1.87 4.27 2.99 5.57"/></g><g clip-path="url(#b)" transform="matrix(1.3333 0 0 -1.3333 0 854.85)"><path fill="#767676" d="M239.9 91.53c18.01-1.47 34.66-.5 40.26-.12 1.12.07 5.06 1.27 5.53 4.65.31 2.22.47 5.12-2.06 7.86-2.79 3-5.38 6.05-8.72 7.61-8.6 4.04-21.1 3.28-27.96 10.72-16.91-.8-56.15 12.95-56.15 12.95l11.4-13.48zM279.37 271.69c.27-.76.55-1.5.85-2.25a123.7 123.7 0 0 1 5.2-11.02c2.38-4.57 4.9-9.05 7.49-13.5 2.91-5.01 5.9-9.97 8.96-14.9 3.15-5.11 6.36-10.19 9.6-15.24a1385.97 1385.97 0 0 1 17.94-27.22c1.25-1.85 2.47-3.66 3.5-5.64a60.2 60.2 0 0 0 2.8-6.25c.47-1.23-.4-1.64-1.3-2.27a22 22 0 0 0-3.72-2.02 101.38 101.38 0 0 1-12.24-6.48c-.18-.11-2.71-1.95-2.82-1.87 0 0-19.17 14.56-30.54 29.25-17.4 22.5-36 48.34-35.66 48.6 7.01 5.33-.06 32.46 6.96 37.79 3.99 3.03 7.36 14.62 12.12 16.1 1.58.49 7.77-14.25 10.86-23.08"/><path fill="#00643a" d="m268.51 294.77 9.64-2.15s20.09-56.44 20.42-57.22a4.5 4.5 0 0 0-1.24 1.2c-2.73 3.7-10.14 16.1-14.12 24.77-5.08 11.07-14.7 33.4-14.7 33.4"/><path fill="#002f19" d="M123.87 236.96s-6.02.66-11.01-1.34c-4.53-1.8-8.21-5.8-5.78-14.45 2.83-10.08.32-24.9 6.46-38.4 6.5-14.29 22.86-27.5 32.07-41.3 17.29-25.92 28.63-49.44 37.6-54.6 2.54-1.46 30.4-17.43 52.44-12.96 2.1.43 4.5.54 5.46 2.6a28.8 28.8 0 0 1 2.73 9.9c.49 4.93-.17 10.96-2.17 17.51-8.53 27.96-33.7 68.01-43.1 90.24-24.99 59.17-74.7 42.8-74.7 42.8"/><path fill="#7bc144" d="M203.15 187.14c15.38.12 40.06 14.33 41.63 16.56 1.53 2.17 2.5 12.89 8.64 24.73 5.24 10.1 13.26 25.53 14.08 27.8 6.53 18 6.97 35.02-1.78 41.72-.3 2.85-2.24 7.34-3.6 9.81-5.64 10.17-16.07 14.04-26.87 16.48-10.5 4.98-41.47-8.6-48.07-14.26-5.73-4.92-36.77-26.03-44.6-35.44-.78-.94-11.91-13.32-11.91-13.32s-2.55-2.17 0-4.99c12.83-14.2 55.75-57.45 68.97-67.15.39-.28 1.03-.75 1.15-.47.13.29.32-.55.5-.66.85-.53 1.48-.81 1.86-.8"/><path fill="#002f19" d="m235.82 342.32 8.12-.46 6.49-5.12-.05-7.97.26-10.34-8.62 3.97-11.43 2.1-9.39 12.9zM252.66 233.03c7.08 2.84 15.96.43 21.38-4.94 4.63-4.57 6.3-11.33 7-17.8 2.21-20.13-34.1-88.04-34.1-88.04l-20-.23-35.83 6.66 9.41 59.62s-.6.2-.43.4c.64.79 3.17 2.84 6.07 5.51 12.46 11.48 40.8 36.54 46.5 38.82"/><path fill="#767676" d="M123.99 110.88a81.43 81.43 0 0 1-4.7 6.15c-2.98 3.59-6.98 8.28-6.88 13.23-.83 7.84 8.25 24.09 7.73 24.5-4.45 3.63-10.25 5.79-16.09 6.58-5.94.8-9.92-1.54-13.35-6.37a39.15 39.15 0 0 1-6.35-30.95c.54-2.42 1.76-4.38 2.54-6.63.84-2.4.6-5.42 1.15-7.94A48.87 48.87 0 0 1 94.29 94c5.83-9.4 22.01-12.42 32.72-10.13 2.28.48 4.56 1.2 6.46 2.53 3.27 2.27 3.81 5.6 4.12 9.13.31 3.53-1.15 7.44-4.32 9.3-3.33 1.96-6.97 2.67-9.28 6.05"/><path fill="#002f19" d="M204.09 60.4c34.91-7.17 39.87 20.84 39.87 30.84s-32.98 7.32-32.98 7.32-25.57 18.18-51.48 34.01c-24.14 14.75-26.66 21.17-38.19 25.82-2.8 1.14-12.75-13-14.46-18.69-1.9-6.4-1.68-11.59.25-20.09.45-2 1.02-4.02 2.21-5.7 2.14-3 39.98-30.19 48.06-34.84a173.87 173.87 0 0 1 46.72-18.68"/><path fill="#00643a" d="M115.23 190.26c3.2-9.74 10.35-21.27 17.8-28.22 12.82-11.98 28.03-24.1 34.55-34.03.59-.89.5-1.42-.21-.81-7.77 6.77-29.43 15.26-44 32.72-8 9.6-14.57 21.03-17.39 32.46-3.64 14.76-2.12 29.42-.74 39.22.3 2.13 1.67 3.16 3.5 2.33 1.99-.9.6-25.71 6.5-43.67"/><path fill="#767676" d="M189.59 308.02c-6.4-5.3-10.96-16.2-12.95-22.7-3.92-12.78-2.9-22.22-.37-32.14a76.85 76.85 0 0 1 6.54-16.65c1.39-2.65 2.9-5.24 4.5-7.78 1.3-2.08 1.9-4.14 2.97-6.31 4.34-8.79 9.2-17.31 14.29-25.67 9.73-15.98 20.26-31.77 32.43-46 2.99-3.5 6.1-7.1 9.78-9.9 2.64-2.01 4.3-.94 4.97-.45 2.65 1.95 4.92 4.95 7.29 7.04 6 5.32 12.78 5.67 17.8 10.8.87.88 2.9 2.28 3.06 3.5.2 1.62-6.48 8.08-8.53 11.07-10.55 15.37-26.53 44.02-27.94 47.91-9.66 26.75-17.55 47.37-29.87 68.23-2.87 4.86-10.44 18.82-17.73 16.58-4.94-1.5-2.2 5.82-6.24 2.47"/><path fill="#00643a" d="M250.43 316.94s-.12.06-1.01 2.32c-1.39 3.52-3.82 9.92-4.19 10.81-.6 1.47-1.33 1.82-2.1.97-2.5-2.7-7.47-9.64-6.13-9.12 3.2 1.23-8.44 8.7-10.4 6.89-.8-.75-1.8-1.81-1.44-3 .28-.9 1.35-1.2 1.68-2-4.03-1.97-8.43-3.13-12.44-5.32-3.81-2.09-7.72-.19-11.52-2.25-3.56-1.94-8.18-5.97-10.44-9.37a32.91 32.91 0 0 1-2.89-5.7c-1.53-3.7-1.17-10.53-.7-14.5.16-1.42.55-2.8.93-4.17 1.18-4.22 2.4-8.5 4.64-12.26a44.47 44.47 0 0 1 5.88-7.4c2.08-2.24 4.27-4.47 7.01-5.82 3.95-1.95 7.87-1.04 12.05-1.06 4.05-.03 8.14-.1 12.19.09 3.7.17 15.38.31 16.32 1.34 2.18 2.39 6.2.42 9.44.41 1.4-.7 10.19-1.57 10.19-1.57s2.59 6.43 3.28 8.49c1.04 3.1 2.2 6.18 3.48 9.2.45 1.1.93 2.2 1.31 3.31.2.57.4.42.54.06l.38-.86s-.5 5.3-1.07 6.77c-1.28 3.27-3.68 9.01-5.89 11.86-3.28 4.24-6.14 8.82-9 13.34-2.31 3.65-7.88 4.83-10.1 8.54"/><path fill="#d6d6d6" d="M229.17 263.93c0 .1.09.37.1.4.05.16.12.32.21.46.24.38.6.66 1.02.82.41.16.86.22 1.3.2.4-.03.88-.12 1.21-.37a2.57 2.57 0 0 0 .75-.93c.13-.3.18-.65.2-.97h-.26l-.14.5a1 1 0 0 1-.56.54c-.3.12-.67.18-.97.04-.44-.2-.62-.68-.64-.8-.01-.04-.02-.06-.06-.07h-.14l-.99.05c-.3 0-.6.02-.9.05-.05 0-.13 0-.13.08"/><path fill="#fff5f0" d="M233.67 263.27a1.29 1.29 0 0 0-.56-.76 1.26 1.26 0 0 0-.78-.13c-.6.08-.88.7-.94 1-.02.08-.07.06-.13.07l-.2.01a35.4 35.4 0 0 0-1.4.05c-.13.01-.27.04-.4.02-.1-.01-.07-.14-.07-.21a2.51 2.51 0 0 1 .21-.92c.17-.36.45-.66.8-.84a2.97 2.97 0 0 1 2.47-.23c.48.2.77.55.93.84a2.23 2.23 0 0 1 .33 1.08c0 .02-.03.02-.05.02h-.21M235.97 262.02a.31.31 0 0 0-.29-.15c-.11 0-.28.08-.34.17-.11.17-.08.35-.07.54l.03.18c.04.1.12.2.23.24.1.05.23.05.33 0 .1-.04.16-.1.19-.2a1.67 1.67 0 0 0-.08-.77m.52.82c0 .05-.02.1-.04.16-.1.35-.4.51-.75.52a.7.7 0 0 1-.5-.19v.2c-.14 0-.37 0-.46-.12-.09-.13-.06-.34-.06-.48a48.48 48.48 0 0 1-.05-1.98h.53l.03.7c0-.04.17-.11.2-.13a.9.9 0 0 1 .71.05c.16.09.27.24.33.4.06.16.06.32.08.48.01.12 0 .26-.02.39M237.99 262.3a.8.8 0 0 0-.15-.35.29.29 0 0 0-.07-.08.5.5 0 0 0-.3-.06.38.38 0 0 0-.3.22.6.6 0 0 0-.02.2v.28c0 .1.02.23.09.31.1.13.28.15.44.13.15-.01.23-.08.27-.23a.9.9 0 0 0 .04-.41m.02-.82c.08.04.16.09.23.15.1.1.15.22.18.35.03.13.03.26.03.4a1.64 1.64 0 0 1-.08.51.66.66 0 0 1-.26.34c-.11.06-.23.1-.36.11l-.28.01a.72.72 0 0 1-.54-.17.71.71 0 0 1-.2-.21 2.28 2.28 0 0 1-.08-.92.7.7 0 0 1 .17-.37c.07-.07.12-.13.2-.17.3-.13.7-.17.99-.03M239.79 263.28a.96.96 0 0 1-.35.08c-.12 0-.25 0-.37-.04a.75.75 0 0 1-.43-.36.39.39 0 0 1-.06-.17l.01-.22c.03-.12.1-.24.21-.32.1-.06.2-.1.32-.1h.35c.05 0 .1 0 .15-.02a.2.2 0 0 0 .11-.1c.05-.07.01-.17-.04-.24-.06-.07-.31-.12-.51-.08-.08.02-.15.06-.18.13a.45.45 0 0 0-.02.15h-.38c-.07 0-.07 0-.07-.07l.01-.18a.44.44 0 0 1 .13-.22c.1-.1.25-.15.4-.17.38-.06.89-.08 1.07.31a.74.74 0 0 1-.02.63.5.5 0 0 1-.33.2c-.13.03-.27.03-.4.04a.54.54 0 0 0-.21.06c-.08.03-.14.11-.14.2 0 .08.1.14.16.17.07.02.13.03.2.03.04 0 .09 0 .13-.02a.3.3 0 0 0 .2-.28l.26-.01c.06 0 .16-.02.17.06 0 .06-.02.1-.04.16a.48.48 0 0 1-.07.16.65.65 0 0 1-.26.22M241.02 263.86c.01-.22-.03-.4-.03-.62l.7-.01c.04 0 .06 0 .08-.03.02-.01.03-.03.03-.06a.72.72 0 0 0 0-.27c0-.02-.04-.04-.06-.04h-.78c-.04-.3-.04-.59-.03-.89a.3.3 0 0 1 .09-.2c.05-.05.15-.07.2-.01.04.03.04.09.04.14 0 .01.01.04.04.04h.45v-.03c0-.07 0-.14-.03-.21a.44.44 0 0 0-.1-.2.5.5 0 0 0-.18-.1.88.88 0 0 0-.44-.06.7.7 0 0 0-.4.2.7.7 0 0 0-.15.48v.85h-.17c-.01.01-.04.02-.03.05l.02.32c0 .02.02.04.03.04.05 0 .1-.02.14 0 .04.03.04.07.04.12 0 .12 0 .38.06.47.04.07.48.04.48.02M242.67 262.85l.16-.01c.12-.03.22-.1.28-.2a.6.6 0 0 0 .08-.15c0-.02 0-.06-.05-.06h-.16l-.33.01c-.13.01-.26.02-.38.05 0 .05.01.1.03.14l.1.12.06.04c.06.03.14.07.21.06m-.35-.75c.02.02.04.02.07.02.2-.01.4-.03.61-.03l.49-.02c.06 0 .08.06.08.1.02.15.03.31 0 .47a.71.71 0 0 1-.29.48 1.17 1.17 0 0 1-.75.14.79.79 0 0 1-.65-.56 1.7 1.7 0 0 1 .02-.9c.04-.15.1-.3.22-.4a.74.74 0 0 1 .28-.15c.25-.07.53-.06.78.02.08.03.16.1.22.16.12.14.13.27.14.42l-.3.02c-.02 0-.07.01-.08-.02a.3.3 0 0 0-.14-.18.62.62 0 0 0-.25-.08c-.08 0-.17 0-.25.02a.31.31 0 0 0-.2.18.56.56 0 0 0-.02.25c0 .02 0 .05.02.06M243.7 261.27h.47c.01 0 .04.02.04.04l.01.62c0 .13 0 .26.03.39.03.17.1.35.27.41.05.02.11.02.17.02.06 0 .12 0 .17-.04.07-.06.08-.17.08-.26v-1.17c0-.02.02-.04.03-.05.14-.01.27 0 .4.02.02 0 .06.04.06.05l.05.88v.37c-.02.1-.05.2-.1.3a.53.53 0 0 1-.12.17c-.08.07-.2.1-.3.13a1.6 1.6 0 0 1-.48.02c-.14-.02-.3-.07-.33-.2v.18c0 .02-.03.05-.06.05h-.23c-.08-.03-.07-.04-.07-.13-.03-.2-.02-.4-.02-.6a26.28 26.28 0 0 0-.06-1.2"/><path fill="#00643a" d="M187.03 304.96c-2.2-3.27-3.82-7.95-4.43-13.5-.8-7.13-.13-15.34 1.03-20.2 1.8-7.45 6.34-14.05 12.08-19.15 5.73-5.1 12.46-8.94 19.14-12.73 6.88-3.91 13.61-8.2 20.53-11.97 1.64-.9 3.31-1.75 5.02-2.54.2-.1 1.78-.6 1.83-.82 0 0-10.22 39.06-19.78 57.67-2.83 5.5-6.15 11-10.62 15.34-1.85 1.8-5.66 5.9-7.57 7.6-2.46 2.19-2.75 10.18-2.75 10.18s-7.6.34-14.48-9.88"/><path fill="#d6d6d6" d="M252.13 178.12c-1.82-1.22-3.48-3-4.52-4.93-1.04-1.92-.85-4.69.97-5.91 1.15-.78 2.64-.78 4.03-.7 6.94.43 18.48 6.66 18.48 6.66s-4.9 7.52-7.04 10.9a55.05 55.05 0 0 1-11.92-6.02"/><path fill="#7bc144" d="m250.44 261.19-1.2-1.84c-.8-1.24-1.36-2.19-2.7-2.42-1.01-.17-1.88-2.07-2.6-2.8l7.36.28c.9.04 1.8.07 2.7.24 1.05.2 2.1.57 3.16.47.33-.03.66-.1.99-.05.33.07.65.32.66.65 0 .25-.61 1.8-.85 1.86-1.25.35-1.62.7-1.56 1.47.03.36.42 1.7.6 2.23 2.54 7.15 7 13.4 10.34 20.14.11.21.22.47.12.68-.09.2-.3.28-.5.36-1 .37-1.59.58-2.63.82a390.92 390.92 0 0 0-11-17.73 84.1 84.1 0 0 1-1.8-2.7l-1.09-1.66"/><path fill="#c8dc8c" d="M207.66 317.51c17.4 7.43 34.6 5.08 20.7 6.37-17.18 1.6-37.52-4.57-76.6-37.87-6.22-5.31-13.5-12.02-25.55-23.23-2.46-6.02.18-8.44 5.66-3.02 4.55 4.5 11.38 9.58 25.37 21.75 9.82 8.56 20.15 18.1 29.94 24.88 10.47 7.25 16.74 9.53 20.48 11.12"/><path fill="#767676" d="M179.9 231.88s24.45-39.34 23.1-40.77c-.77-.82-2.15-2.36-2.46-2.62-26.14 12.54-83.2 28.45-91.09 31.56-6.82 2.7-7.56 4.32-7.38 7.65.17 3 1.95 6.34 3.53 9.36 2.95 5.62 8.45 8.6 10.47 15a125.7 125.7 0 0 0 10.14 10.72c2.77-.94 53.68-30.9 53.68-30.9"/><path fill="#d6d6d6" d="M138.96 229.6c-.91-2.37-3.16-3.28-7.25-2.37-10.52 2.33-16.8 5.4-26.1 9.83.21.46 1.95 3.69 4.3 7.08a84.63 84.63 0 0 0 6.16 7.92c.69-.5 10.94-8.93 18.72-14.59 3.88-2.82 5.07-5.5 4.17-7.87"/><path fill="#767676" d="M212.45 312.5c-3.78 1.65-7.86 3.55-17.58 3.91-2.86 12.5 16.52 21.4 26.53 26.69 13.56 7.17 32.62-.29 30.08-7.12-.24-.65-5.64 3.55-10.83 5-3.64 1.02-6.93.33-8.32-1.83-4.09-6.36 2.8-10.6 5.22-14.1 3.42-4.94 6.92-10.25 8.93-15.9 3.43-9.63 2.5-17.39 2.5-17.39s-31.25 18.44-36.53 20.74"/><path fill="#7bc144" d="M265.42 297.19c3.3-2.88 6.9-5.36 10.88-7.14.75-.33 1.58-.65 2.38-.47.75.16 1.37.61 2.13.73.86.14 1.73.25 2.59.44 1.63.34 3.22.82 4.77 1.42 2.41.93 4.66 2.22 7.07 3.16 2.93 1.15 5.6.9 8.17-1.01 0 0-1.13 18.04 8.88 18.06 10 .01-21.23 48.63-21.23 48.63l-25.4-5.53s-16.35-21.75-15.73-25.15c.69-3.74-1.15-7.32-.51-11.07 2.72-8.29 6.27-19.66 7.56-23.56.9-.45 5.75 3.84 8.44 1.49"/><path fill="#002f19" d="M288.14 322.75c1.53.96 3.03 1.98 4.5 3.03a163.14 163.14 0 0 1 7.49 5.65c.42.34-13.76 22.2-14.7 23.73-1.43 2.3-3.24 7.12-5.45 8.66-2.2 1.54-5.5-.05-7.84-.88-6.61-2.37-11.57-8.16-15.7-13.89-4.19-5.8-7.35-11.6-6.5-18.72.42-3.59-1.66-7.72-.52-11.07l.02-.04c.91.04 13.76 6.24 15.2 9.61.4.91 2.24 3.5 2.68 4.4.9 1.8 2.33 3.3 3.9 4.56 2.38 1.9 10.26-.83 10.26-2.17 0-2.76-2.12-5.64-2.7-7a9.48 9.48 0 0 1-.67-4.6c.2-2.14 1.34-3.99 3.67-3.83 2.18.15 4.56 1.43 6.36 2.56"/><path fill="#c8dc8c" d="M277 334.29c1.22-.21 2.54-.58 3.64-.03.33.17.63.42.76.75.2.5 0 1.05-.28 1.5a6.61 6.61 0 0 1-3.11 2.5 7.61 7.61 0 0 1-8.4-1.37c-.84-.82-1.46-1.81-2.03-2.81-1.32-2.34-4.25-7.65-4.25-7.65s1.84 1.47 2.25 1.88l1.67 1.65c.91.9 1.8 1.6 2.87 2.3 2 1.29 4.53 1.68 6.88 1.28M263.42 300.22c2.36 1 3.72.51 4.8-.54a16.72 16.72 0 0 1 14.53-4.34c2.96.56 5.7 1.92 8.58 2.76 2.89.84 6.16 1.11 8.76-.4-.07 4.5.99 9.12 3.57 12.81 2.6 3.7 6.83 6.35 11.34 6.43.66.02 1.35-.04 1.9-.39 1.09-.71 1.15-2.39.48-3.51-.66-1.13-1.82-1.84-2.92-2.55-3.38-2.18-6.67-4.9-8.15-8.64-.78-1.96-.81-4.11-1.54-6.08-.29-.79-.79-1.53-1.52-1.95-.68-.4-1.5-.47-2.28-.5-1.27-.05-2.52.08-3.77.08-1.28-.01-2.54-.33-3.75-.72-1.25-.4-2.47-.87-3.69-1.37-2.15-.88-4.44-1.83-7.25-2.2-6.8-.94-13.39 3.44-15.38 5.15-1.48 1.29-4.48-.45-6.5-1.8-.37-.25-1.36-.4-1.79.1-.71.82-1.44 2.06-1.86 3.14.04.12 4.88 3.86 6.44 4.52"/><path fill="#767676" d="M262.7 357.98c.23.48 6.15 6.72 12.74 11.75 4.57 3.48 8.58 5.15 14.81 5.1 12.62-.09 27.05-14.87 29.72-17.83 3.17-3.5 1.74-28.47 1.8-30.5 2.32-2.44 17.32-23.52 10.62-25.9-5-1.77-11.97-1.4-17.22 1.25-14.11 7.12-19.08 26.45-19.08 26.45s-32.47 23.66-33.38 29.68"/><path fill="#7bc144" d="M296.1 328.3c11.63-4.98 21.12-3.78 25.67-1.8 2.36 6.93 6.1 16.02.74 26.69-2.06 4.12-6.52 8.83-12.35 9.58-6.35.82-10.22-3.15-11.38-8.23-2.36-10.27-1.27-20.99-2.69-26.24"/><path fill="#d6d6d6" d="M296.1 328.3s10.07-27.84 35.03-28.08c0 0-26.54-9.5-35.04 28.08"/><path fill="#7bc144" d="m262.7 357.98 2.32-3.75s-11.39-14.06-13.05-21.35c-.52-2.26-1.33-3.78-1.91-3.63-1.3.33-1.91 6.37 1.14 13.24.99 2.22 2.1 4.21 3.24 5.97 4 6.18 8.27 9.52 8.27 9.52M186.71 229.7s8.83-17.31 19.45-35.49a159.87 159.87 0 0 0-3.15-3.1 73.49 73.49 0 0 0-3.26 5.52c-2.3 4.16-15.32 27.17-18.92 33.6-1.13 2-3.35 3.06-3.35 3.06z"/><path fill="#767676" d="M238.9 236.97c.97-3.76 2.17-9.24 3.34-12.92.14-.46 1.1-3.86.85-3.87-.4 0-.66.41-.84.77-.84 1.72-2.2 2.08-2.88 3.86-3.4 8.92-5.95 17.56-8.95 27.65-1.1 3.69-2.94 8.15-2.6 12 .05.67.2 1.38.66 1.87 2.83 3.07 4-4.49 4.32-5.7l1.85-7.18z"/><path fill="#00643a" d="M279.31 163.2c-.62-.18-2.12-5.08-3.23-7.17l-7.83-14.82-3.93-7.45c-1.28-2.41-2.82-4.7-3.06-7.48a6.38 6.38 0 0 1 .12-2.05c.5-2 2.15-2.7 3.75-3.73l4.53-2.92 11.53-7.42 13.23-8.52 13.02-8.38 10.87-7 6.81-4.39 1.35-.86 6.06 4 9.58 39.75z"/><path fill="#7bc144" d="M415.39 122.25s-12.36-42.74-12.82-44.52c-.45-1.78-1.48-2.06-2.58-2.01-1.09.04-73.44 3.4-73.44 3.4l15.23 44.86z"/><path fill="#7bc144" d="M290.74 111.02S324.62 86.8 325.99 86c1.37-.8 2.9-1.03 3.6 1.04.67 2.07-.93-8.55-3.23-7.87-1.68.5-6.81 3.85-6.81 3.85l-32.8 22.14Z"/><path fill="#7bc144" d="M290.95 148.2a199.32 199.32 0 0 1-4.16 5.47c-2.98 3.78-6.06 8.24-11.63 6.39a12.93 12.93 0 0 1-3.74-2.3l-10.29-8.03a6.49 6.49 0 0 1-2.1-2.27 6.5 6.5 0 0 1-.37-2.75c0-2.77.05-5.55.08-8.32.02-2.73-.16-5.46.17-8.19a15.09 15.09 0 0 1 2.98-7.5l5.72-7.64c1.73-2.32 3.95-4.87 6.84-4.74.5.02 1.02.14 1.53.05.9-.15 1.57-.86 2.18-1.54 1.63-1.8 3.33-3.63 5.5-4.74 2.17-1.1 4.94-1.33 6.95.04.48.33.91.74 1.46.93.57.2 1.2.12 1.78.27 1.19.31 1.95 1.55 2.1 2.77a7.6 7.6 0 0 1-.52 3.63c-.74 1.88-3.76 5.79-6.45 12.29a89.05 89.05 0 0 0-4.18 13.68c-.76 3.7 1.97 2.65 3.74 1.14 2.03-1.74 3.98-2.37 6.7-2.64 2.98-.3 4.28 1.41 2.6 4-2.19 3.4-4.49 6.74-6.89 10"/><path fill="#00643a" d="M265.98 126.2c-.49-.04-.59-.72-.48-1.2.28-1.3.97-2.45 1.66-3.58 4.1-6.7 8.68-14.75 15.47-18.73a59.34 59.34 0 0 1-6.33 8.33 23.97 23.97 0 0 0-3.16 4.51c-1.13 2.1-1.97 4.35-3.32 6.33-.75 1.09-2.21 4.47-3.84 4.34M274.4 130.05c-.34.63-.7 1.79-1.4 1.58-.69-.21.01-2.52.48-3.7 2.07-5.29 4.96-10.2 7.82-15.1 1.87-3.19 3.8-6.44 6.65-8.77.8-.64 1.91-1.23 2.79-.7a16.95 16.95 0 0 1-2.38 3.79c-2.6 3.42-5.24 6.7-7.28 10.48-2.22 4.13-4.58 8.22-6.68 12.42"/><path fill="#c8dc8c" d="M279.31 163.2c.45.2 56.48 4.51 56.48 4.51l79.6-45.46s-67.32-.59-69.9-.59c-1.24 0-3.1.2-4.31.52-2.68.7-62.29 40.85-61.87 41.03"/><path fill="#7bc144" d="M348.98 160.1c.66-.34 3.46-1.48 4.73-2.1.97-.47 2-.87 2.93-1.4.38-.23 1.53-.65 1.75-1.04a122.05 122.05 0 0 1-3.88 6.37 18.09 18.09 0 0 1-4.03 4.64c-2.2 1.8-15.13 7.5-15.13 7.5s-11.47-5.03-16.8-7.7c1.75.1 11.37.9 13.77-.6a8.35 8.35 0 0 0 2.46-2.77c1.89-3 3.31-6.93 6.3-8.83 1.49-.94 3.95-1.5 5.15-1.06 1.27.48 1.92 1.25 1.58 2.43-.2.69-1.19 1.37-1.96 2.38-.44.57-.95 1.4-1.32 2.01-.5.81-.77 1.77-.76 2.72 0 .15.11.43.11.43s4.6-2.73 5.1-2.98"/><path fill="#7bc144" d="M404.07 128.6c4.71-3.15 9.94-6.11 7.64-6.38 1.05-.56 3.68.03 3.68.03s.7 2.46.19 3.12c-.5.65-1.27 1.03-1.97 1.46-2.21 1.35-34.85 19.49-39.47 22.05-6.88 3.8-15.27 7.63-23.98 11.61-4.11 1.88-1.18-.4-1.18-.4s52.96-30.06 55.1-31.48"/><path fill="#f2f2f2" d="m357.16 146.19 22.26-12.92s2.38-1.6.3-1.61l-28.3-.13c-.67 0-2.06.3-2.97.8-4.73 2.67-17.06 11.37-18.02 11.98-1.14.74-.8.97.62.97 1.44 0 26.1.9 26.1.9"/><path fill="#d6d6d6" d="M342.83 141.84c.44.24 1.25.15 1.93-.04a9.22 9.22 0 0 1 2.13-.38c1.01.01 1.88.95 2.87 1.17 1.8.4 3.55-.96 5.4-.95 1.37.01 2.75.78 4.05.34.43-.15.87-.55.77-1-.1-.5-.73-.66-1.24-.7l-3.08-.33c-.67-.06-1.34-.13-2-.07-1.2.12-2.34.65-3.54.65-.98 0-1.91-.36-2.83-.72a7.72 7.72 0 0 0-2.82-.7c-.74.01-1.92.33-2.27 1.08-.33.7 0 1.3.63 1.65M350.47 137.58c-.24-.05-.5-.1-.65-.3-.24-.29-.11-.74.12-1.04.48-.6 1.3-.84 2.06-.83.77 0 1.52.23 2.27.4 1.46.33 2.97.46 4.47.37 2.53-.14 5.02-.88 7.55-.72.23.02.48.05.65.2.25.23.23.64.05.92-.19.27-.5.43-.8.56-.81.34-1.7.48-2.57.43-.53-.03-1.04-.13-1.57-.15-.84-.03-1.67.15-2.5.28-1.08.17-2.17.25-3.26.24-2.03-.03-3.81.06-5.82-.36"/><path fill="#d6d6d6" d="M345.12 145.75c4.02.57 12.27.98 12.76.93.52-.06.98-.34 1.43-.6 6.7-4.07 21.1-12.63 21.77-13.78.29-.5.04-.56-.3-.62-.44-.06-1.06-.02-1.06-.02s-16.6 10.45-19.62 12.33c-1.4.87-2.48 1.14-3.08 1.3-1.91.54-10.91.35-11.9.46"/><path fill="#c8dc8c" d="M260.02 133.48c.42-4.5.9-9.18 3.22-13.05 1.4-2.36 3.4-4.45 4.16-7.1a16.8 16.8 0 0 0-8.94 10.28c-1.36 4.53-1.3 9.35-1.6 14.07-.12 2.03-.33 4.08.07 6.07a8.27 8.27 0 0 0 2.88 4.83s-.1-2.8-.17-3.69c-.33-3.8.03-7.62.38-11.41"/><path fill="#d6d6d6" d="M299.58 331.66a2.22 2.22 0 0 0 .36.79c.26.33.63.56 1.03.68.4.11.82.13 1.23.07.38-.05.82-.18 1.1-.44a2.45 2.45 0 0 0 .64-.93c.1-.3.1-.63.1-.93l-.25.01c.02 0-.07.45-.09.5a.94.94 0 0 1-.47.54c-.27.14-.62.22-.9.12a1.2 1.2 0 0 1-.67-.69c-.02-.04-.03-.06-.07-.07l-.13.02a288.26 288.26 0 0 0-1.75.24c-.06 0-.13.01-.13.09"/><path fill="#fff5f0" d="M303.75 330.67c-.2-.44-.44-.6-.59-.67a1.2 1.2 0 0 0-.74-.06c-.56.13-.77.74-.8 1.03-.01.06-.06.06-.12.07l-.2.02a30.71 30.71 0 0 0-1.29.17c-.12.02-.25.05-.38.04-.1 0-.08-.12-.08-.18a2.26 2.26 0 0 1 .13-.89c.12-.34.36-.65.67-.85a2.79 2.79 0 0 1 2.3-.42c.47.15.77.46.94.71a2.09 2.09 0 0 1 .4 1l-.04.02-.14.01h-.06M305.8 329.31a.3.3 0 0 0-.28-.12c-.1.02-.26.1-.3.2-.1.16-.06.33-.03.5.01.06.02.11.05.17.04.1.13.17.23.21.1.04.22.03.31-.03a.3.3 0 0 0 .16-.21 1.55 1.55 0 0 0-.14-.72m.56.73-.02.16c-.07.33-.33.51-.66.55a.65.65 0 0 1-.5-.13l.02.17c-.12.03-.34.03-.43-.07-.1-.1-.09-.3-.1-.44a64.82 64.82 0 0 1-.21-1.86c.18 0 .32-.02.5-.03l.08.65c0-.04.15-.12.18-.14a.86.86 0 0 1 .67-.01c.16.06.28.2.34.35.07.14.09.3.11.44.03.11.03.24.02.36M307.72 329.42a.74.74 0 0 0-.17-.33.3.3 0 0 0-.07-.07.46.46 0 0 0-.28-.03.36.36 0 0 0-.26.23.56.56 0 0 0-.02.2l.03.25c.01.1.03.21.1.29.11.1.28.11.43.09.14-.03.2-.1.24-.24a.84.84 0 0 0 0-.4m-.05-.76c.08.03.16.06.23.12.1.08.16.2.2.31.04.12.05.25.06.37 0 .15.01.3-.02.45l-.01.04a.63.63 0 0 1-.22.34c-.1.07-.21.11-.33.13l-.26.04a.68.68 0 0 1-.52-.12.68.68 0 0 1-.2-.19 2.19 2.19 0 0 1-.15-.85.67.67 0 0 1 .13-.36c.05-.08.1-.13.17-.18.27-.14.64-.22.92-.1M309.49 330.18a.9.9 0 0 1-.32.1c-.11.01-.23.02-.35 0a.7.7 0 0 1-.44-.3.37.37 0 0 1-.06-.16.74.74 0 0 1-.01-.2.5.5 0 0 1 .17-.32.55.55 0 0 1 .3-.13c.1-.01.2 0 .32-.02l.13-.04a.19.19 0 0 0 .1-.1c.04-.07 0-.16-.06-.22s-.3-.09-.48-.03c-.07.02-.13.06-.16.14a.45.45 0 0 0-.01.13l-.35.04c-.06 0-.07 0-.08-.06v-.18a.4.4 0 0 1 .1-.2c.1-.11.23-.18.36-.2.36-.1.83-.15 1.04.2a.7.7 0 0 1 .03.6.48.48 0 0 1-.3.21c-.11.04-.24.05-.36.07a.54.54 0 0 0-.2.07c-.07.04-.12.12-.11.2.01.08.1.13.16.15.06.01.13.02.19 0 .04 0 .08 0 .12-.02.1-.05.17-.16.16-.28l.25-.03c.05 0 .14-.03.16.04.01.06 0 .1-.02.16a.47.47 0 0 1-.05.15.62.62 0 0 1-.23.23M310.7 330.62c-.02-.2-.07-.37-.09-.57l.67-.08c.02 0 .05 0 .06-.02.02-.02.02-.04.02-.06a.68.68 0 0 0-.01-.26c0-.02-.05-.04-.06-.04l-.74.07c-.06-.27-.08-.55-.1-.83 0-.07.02-.14.07-.2.04-.05.13-.07.18-.02.04.03.05.08.05.13 0 .01.02.03.04.03l.42-.04.01-.02a1.25 1.25 0 0 0-.05-.2.4.4 0 0 0-.11-.18.45.45 0 0 0-.18-.08.82.82 0 0 0-.42-.01.65.65 0 0 0-.35.21.65.65 0 0 0-.1.46l.07.8-.17.02s-.03.02-.02.05l.04.3.04.03c.04 0 .1-.03.13 0 .04 0 .04.05.05.1.01.11.03.35.1.43.04.06.44 0 .44-.02M312.16 329.54a.6.6 0 0 0 .15-.03c.1-.03.2-.1.25-.2l.05-.15c0-.02 0-.05-.05-.05a6.79 6.79 0 0 1-.46.05c-.12.02-.24.03-.35.07 0 .05.02.09.04.13l.11.1.05.04a.4.4 0 0 0 .2.04m-.38-.67h.06l.58-.08.45-.05c.06 0 .08.05.09.08.02.15.04.3.03.45a.67.67 0 0 1-.23.47 1.1 1.1 0 0 1-.69.19.74.74 0 0 1-.65-.47 1.6 1.6 0 0 1-.06-.85.78.78 0 0 1 .17-.4.68.68 0 0 1 .25-.15c.23-.09.5-.1.73-.04.09.02.16.07.22.13.13.12.15.24.17.38-.06.02-.25.04-.28.04-.02 0-.06.02-.08-.01a.28.28 0 0 0-.14-.16.58.58 0 0 0-.24-.05c-.08 0-.16 0-.23.04a.3.3 0 0 0-.18.18.53.53 0 0 0 0 .24c0 .02 0 .04.03.06M313 327.97l.43-.04c.02 0 .05.02.05.04l.06.58c.01.12.02.24.05.36.04.16.13.32.3.37h.15c.06 0 .12-.01.16-.05.06-.06.06-.16.06-.25l-.1-1.1.02-.04c.13-.03.26-.04.38-.02.02 0 .05.03.06.04l.11.82c.02.11.04.23.03.34 0 .1-.02.2-.05.29a.54.54 0 0 1-.1.18.6.6 0 0 1-.28.14c-.15.04-.3.06-.45.06-.13 0-.28-.04-.33-.16l.01.17c0 .02-.01.05-.04.05l-.22.02c-.08-.02-.06-.03-.08-.11-.04-.19-.04-.38-.07-.57a24.38 24.38 0 0 0-.15-1.12"/></g></svg>
