<svg xmlns="http://www.w3.org/2000/svg" fill="none" width="128" viewBox="0 0 800 800"><path fill="#00643A" d="M169.34 461.6c-6.35-2.12-12.84-3.95-18.34-7.48a27.3 27.3 0 0 1-3.96-3.1c-6.49-5.93-9.6-13.41-10.58-22.02-.28-2.26-.42-4.51-.99-6.63-1.55-5.5-7.34-11.15-13.12-11.3-13.27-.42-27.24 12.29-29.78 24.85-.7 3.66-.7 7.33-1.69 10.86-4.66 15.8-23.43 19.62-30.34 33.87-5.36 11-2.82 25.54-10.87 34.86-4.8 5.64-12.98 8.75-15.24 15.8-3.53 11.3 11.01 21.31 10.45 33.16-.29 6.64-5.23 12-7.77 18.07-2.4 5.5-2.96 12-1.4 17.78 1.4 5.22 4.65 9.88 8.88 13.4 4.94 4.1 11.86 7.2 12.84 13.55.57 3.1-.7 6.35-1.4 9.46-3.4 17.07 4.65 30.2 19.33 37.25 9.88 4.66 20.88 12.7 20.88 24 0 6.34-.14 15.37-.14 18.76 0 4.52.85 6.77 5.65 6.77h27.94c2.96 0 5.08.15 6.63-.84 2.96-1.98 2.96-8.19 2.96-11.86 0-9.87-.14-15.52-.14-24.7 0-11.85 8.9-22.15 13.55-26.66 3.95-3.81 13.83-8.61 18.77-11.01 2.11-.99 4.23-1.55 5.78-3.39 2.54-2.82 5.37-5.08 7.63-8.18a34.6 34.6 0 0 0 7.05-18.2c.7-9.46-1.97-18.92-6.63-27.1-1.7-3.1-3.81-6.21-4.94-9.6-1.13-3.38-1.27-7.48.7-10.44 1.84-2.82 5.08-4.23 7.48-6.63 3.81-3.67 5.22-9.6 4.24-14.82-.99-5.22-3.95-10.02-7.62-13.83-3.1-3.25-6.92-6.63-5.65-11.57a13.93 13.93 0 0 1 2.68-5.65c1.98-2.54 3.95-5.08 5.65-7.9 3.38-5.36 6.07-11.29 6.63-17.64.85-9.74-3.67-19.61-11.43-25.54-3.81-2.68-8.75-4.66-13.69-6.35Z"/><path fill="#56b529" d="M38.52 585.36c3.67-7.06 13.27-10.87 13.98-18.91.98-10.44-11.86-18.49-10.87-28.79 1.13-10.3 14.53-14.4 19.05-23.7 3.1-6.22 1.7-13.55 2.26-20.33.85-10.02 6.07-19.61 14.11-25.54 5.36-3.95 12-6.63 15.66-12.28 4.52-6.77 3.1-15.8 5.37-23.7 2.96-10.59 13.12-20.19 24.13-21.03-14.82-4.1-32.18 8.04-35 23.28-.56 3.25-.56 6.92-1.97 10.02-1.13 2.54-3.67 3.81-5.93 5.22-5.93 3.95-12.7 6.5-18.07 11.15a30.7 30.7 0 0 0-10.01 17.22c-1.27 6.63-.29 13.4-1.56 20.04a27.18 27.18 0 0 1-5.78 12c-2.83 3.52-6.5 6.2-9.6 9.45-4.94 5.08-7.62 11.71-7.05 18.9.7 8.47 8.89 14.54 9.73 23 .7 5.94-2.11 11.58-3.38 17.5-1.13 5.23-2.4 16.1 2.11 21.74-.99-5.22.28-10.44 2.82-15.24Z"/><path fill="#D6D6D6" d="M169.2 708.98c68.16-5.08 136.74-2.26 205.05 0 33.58 1.13 67.45 2.12 100.75-2.68 1.7-16.8 3.4-33.73 5.08-50.52 1.13-11.15 2.26-22.44.85-33.59-.28-2.4-.7-4.94-1.27-7.34-1.98-9.73-5.08-19.19-6.63-29.07a61.7 61.7 0 0 1-.85-14.4c.28-4.5 1.98-8.88-.85-13.12a8.3 8.3 0 0 0-6.91-3.95c-1.98 0-3.81.7-5.5 1.56-4.66 2.25-9.04 5.22-13.7 7.62-.13 0-.13.14-.27.14-2.12.99-4.66 2.4-6.92 2.82-2.4.42-5.08.28-7.62.28-5.36.28-10.72.42-16.09.7-10.72.43-21.59.57-32.31.71-21.6.14-43.04-.28-64.63-1.13-21.6-.98-43.05-2.4-64.5-4.51-15.66-1.55-31.6-3.25-47.13-.28-15.38 3.1-37.4 13.83-36.55 32.17 1.13 23.7.28 47.7.14 71.4-.14 14.4-.14 28.8-.14 43.19Z"/><path fill="#767676" d="M462.59 550.79v158.33h256.55l.14-7.48-.14-153.96-194.88-10.72-61.67 13.83Z"/><path fill="#00643A" d="M544.86 658.88c29.2 1.55 58.42.28 87.35-3.95.28.57-.85 0-.85-.56.7-12.14 1.41-24.42 1.98-36.55.84-14.4 1.55-29.07-2.26-42.9a3.22 3.22 0 0 0-.85-1.7c-.42-.42-1.13-.42-1.83-.56a269.75 269.75 0 0 0-67.45.42c-8.75 1.13-14.4 1.55-14.82 11.43-.57 11.72-.43 23.57-.57 35.42-.14 12.85-.42 25.97-.7 38.95Z"/><path fill="#002F19" d="M628.68 653.38c1.13 19.05.85 38.24-.84 57.3.28.13 0-.43-.29-.43-21.02-.14-42.05-.42-63.08-.57-5.5 0-11.14-.14-16.5-1.69-.57-9.17-.71-18.49-.71-27.8 0-4.8.14-9.6.42-14.4.14-3.52-.56-8.6.85-11.85 2.54-5.92 12.27-.84 12.27-.84s67.88-.14 67.88.28Z"/><path fill="#002F19" d="M519.17 703.05c17.93-.14 35.7.43 53.49 1.7 5.93.42 12 .98 18.06 1.27 23.85.98 47.7-2.83 71.69-3.53a821.96 821.96 0 0 0-2.26-116.42c-.14-.85-.14-1.7-.85-2.26-.56-.57-1.4-.57-2.11-.7-34.86-2.55-69.86-2.83-104.71-2.4-12.14.13-25.4-2.4-26.82 12.7-1.55 16.93-1.69 34.14-2.68 51.22-.42 4.94-2.96 58.42-3.8 58.42ZM164.83 703.48s.14 8.32 1.69 9.6c2.54-1.42 6.5-2.13 9.45-2.55 0-36.83-.7-73.24-.7-110.92 0-3.24 0-3.1-2.82-5.36-2.69-2.12-6.35 2.68-7.9 5.36 0 8.33.28 58.7.28 77.05v26.82Z"/><path fill="#F1F7E9" d="M712.37 452.14c1.69 4.8 1.26 10.16.98 15.25a576.08 576.08 0 0 0 .57 79.59c-32.88 5.64-66.19 6.35-99.5 7.05l-19.6.43-40.08.84c-6.64.14-13.41.43-20.04.43-6.21 0-12-1-18.07-1.84-3.8-.56-7.62-.7-11.43-.99-10.58-.56-21.16-.99-31.6-2.4-1.28-.14-2.69-.42-3.68-1.27-1.4-1.13-1.4-3.67-1.69-5.36-.42-2.4-.56-4.8-.7-7.05-.15-4.94.28-9.74.84-14.54 1.27-9.74 3.39-19.33 3.95-29.21.85-15.52-2.68-31.05-.84-46.57a1728.42 1728.42 0 0 1 173.15.99c13.4.7 26.81 1.55 40.08-.7 5.22-.86 11-4.1 16.37-4.24 5.22-.14 9.73 4.94 11.28 9.6Z"/><path fill="#56b529" d="M466.68 180.63v272.08H712.5V184.87l-245.83-4.24Z"/><path fill="#C8DC8C" d="M166.66 201.8v358.16h268.69c5.08 0 14.82 1.55 18.2-2.26 1.27-1.55 1.56-3.81 3.25-4.94 1.55-.99 3.67-.85 5.5-.7 4.1.28 8.33 0 12.42-.57 0-3.95.14-7.9.14-11.85V196.15l-308.2 5.65Z"/><path fill="#00643A" d="m159.89 199.68 58.42-60.4h247.24l20.04 62.8-325.7-2.4Z"/><path fill="#002F19" d="m458.21 151.84 23.85 44.17c1.98.15 168.92-.98 224.66-2.54 6.91-.14-1.98-8.6-3.95-11.43l-11.86-16.93c-1.4-2.12-11.28-19.62-13.82-19.62.14.14-218.88 6.35-218.88 6.35Z"/><path fill="#00643A" d="M678.78 152.55c-11.71-.85-209.56 0-212.95 0-1.41 0-2.96 0-3.95 1.13-1.27 1.4-.99 3.1 0 4.94-1.41.42-2.96 1.27-4.38 1.27-.28 0-.56 0-.84-.14-.28-.15-.28-.43-.43-.7-.56-1-1.83-1.42-2.11-2.55-.14-.56 0-1.13 0-1.7.14-1.55-.28-3.1 0-4.65.56-2.4 2.96-4.66 4.8-6.35 1.83-1.7 3.8-4.52 6.63-4.52 5.22 0 22.86.15 28.08.15H625.15c8.61 0 29.5.28 42.76.42 2.4.7 2.97.56 4.8.56 4.38 0 19.47 12.99 6.07 12.14Z"/><path fill="#56b529" d="M159.89 199.68c-.57 1.41-1.13 3.1-.57 4.52.99 2.54 4.66 3.1 7.34 3.1 105.13-.28 208.85.85 313.85.57 1.4 0 3.8-1.56 5.08-2.12 3.67-1.83 2.82-9.6-1.27-9.6-43.33-.14-305.67.43-317.8 0-3.39-.14 3.39-8.75.28-6.91-3.39 2.12-5.22 6.91-6.91 10.44Z"/><path fill="#002F19" d="M211.96 140.13a4 4 0 0 1 2.26-.85h12a12570.4 12570.4 0 0 1-52.79 55.04c-3.67 3.81-7.9 7.9-6.77 12.98-3.1 0-6.5.14-8.89-.56-2.68-.7-4.94-2.4-5.93-4.94-1.13-2.68-.42-5.93 1.13-8.47 1.55-2.54 3.67-4.51 5.79-6.49 7.62-7.06 15.38-14.11 23-21.17 3.67-3.38 26.81-23.42 30.2-25.54Z"/><path fill="#C8DC8C" d="M481.5 272.92c2.96.14 6.06-.14 9.03.14 2.96.29 6.2 1.42 7.76 3.96 1.7 2.68.84 6.49-1.7 8.46-1.55 1.13-3.38 1.56-5.36 1.84-2.4.42-5.08.56-8.75.99-2.82.28-7.48 1.27-7.48 5.22 0 3.95-.98 2.11-1.97 4.8-.85 2.11-2.12 2.25-1.98-.57.43-11.29 0-22.44.14-33.73 1.7.7 3.53 1.13 3.81 4.24.29 3.1 3.4 4.51 6.5 4.65ZM481.21 365.07c3.39.43 6.78.85 10.3 1.27 1.42.15 3.96.7 4.94 3.1 2.12 4.95.29 7.49-3.66 9.04-3.81 1.55-6.36 1.7-11.01 2.4-4.1.56-6.78 2.54-6.78 6.91 0 4.24-2.96 1.13-3.24 1-.28-.15-.28-.43-.28-.57-.7-5.37-1.56-9.88-1.27-15.24.42-5.93 4.8-18.35 4.8-18.35s-.29 8.05 2.96 9.74c.84.42 1.83.56 2.82.7.14-.14.28 0 .42 0Z"/><path fill="#F1F7E9" d="M175.83 459.76c0-2.25.14-4.65 1.7-6.2 1.55-1.56 3.95-1.56 6.06-1.56 53.2 0 106.4 0 159.6-.14h106.13c3.1 0 9.74-.28 11.15 1.7 1.13 1.55 1.13 3.66 1.27 5.5.42 16.09.28 32.17.84 48.12.43 11.71 0 22.58-.28 34.57 0 .85 0 2.54-.42 3.25-1.13 2.12-5.64 2.4-7.76 2.4-2.97 0-5.93-.42-8.9-.42-6.34 0-12.7 0-19.04.14-12.99 0-25.97.14-38.95.14-25.97.14-51.93.28-77.9.28-24.7.14-49.53.14-74.23.28-12.28 0-24.55.14-36.69.14-7.76 0-21.59 4.38-21.59-6.35-.42-13.12-.99-68.3-.99-81.85Z"/><path fill="#C8DC8C" d="M709.97 188.53h-.43c-5.08 1-4.37 7.48-4.37 11.15l.42 74.09c.28 91.44-.14 182.89-1.41 274.33 1.98 0 3.95-.14 5.93-.14 1.97 0 3.8-.28 5.78-.28 1.13 0 2.26.28 3.39.14 0 0 .14 0 .14-.14v-.14c-.28-3.25-.28-16.65-.14-20.04.28-6.77.42-13.55.7-20.32l.43-20.32c.14-6.78.14-13.55.28-20.32v-39.66c0-11.14-.14-22.43-.14-33.58V200.39c0-2.54 0-5.22-1.7-7.34-2.4-2.4-5.64-4.94-8.88-4.52Z"/><path fill="#56b529" d="M680.75 141.97a29.76 29.76 0 0 1 4.94 4.51c14.26 16.37 32.74 39.1 38.1 46.15 5.5 7.2 1.7 11-1.12 12.13-2.12.85-4.52 1-6.78 1-6.63.13-13.12.13-19.75 0-1.27-5.37-1.56-5.51-.85-10.88 1.41-.28 1.13-.98 2.54-1.12.85 0 1.55 0 2.12-.14.98-.15 1.4-1.13 1.4-1.56.15-1.83-1.83-4.09-2.53-5.22-1.84-2.82-13.55-20.04-17.36-25.82-3.67-5.65-13.69-21.17-13.69-21.17s2.97 0 5.36.14c2.97.28 5.23.42 7.62 1.97Z"/><path fill="#00643A" d="M718.72 544.01a.3.3 0 0 1 .28.28c.14.14.14.29.14.43.14 1.83.14 5.22.14 7.05 0 1.84.14 3.67-.14 5.5 0 .29-.28.29-.56.29-2.97 0-5.93-.14-9.04 0-3.1.14-34.57-.56-40.92-.56-3.1 0-142.1 1.12-206.18.56-.56-2.54-4.37-9.31-2.54-11.57 1.84-2.4-.28-3.95 2.26-3.95 9.03.14 159.47 2.4 195.45 2.25h14.25c3.96 0 7.9 0 11.72-.14 4.09 0 8.32 0 12.42-.14h20.32c.7 0 2.25-.14 2.4 0Z"/><path fill="#F1F7E9" d="M198.27 670.45c11.3 0 22.72-1.4 34.01-.98 10.02.28 19.9 1.55 29.92 1.97 10.86.42 21.87-.42 32.74-1.13.84 0-.7-2.54-1.27-3.24l4.23-13.83v-75.5c2.54 0 5.08.14 7.62.28-24.7-.7-49.39-1.13-74.09-1.27h-18.48c-3.67 0-10.3-1.13-13.13 1.98-2.82 3.1-1.55 10.16-1.55 13.97v77.75ZM313 667.91c12.98 0 25.97.29 38.95.7 23.56.86 70.28-15.51 70.28-15.51l-.15-63.37c1 0 1.28-1.4.57-2.11-.7-.7-1.7-.85-2.68-1-32.88-4.22-65.9-10.43-99.07-10.72-7.76 0-7.9 4.1-7.9 10.3V667.92Z"/><path fill="#56b529" d="M297.9 653.24v18.34c0 2.97-2.4 3.95-4.37 3.95-28.65 0-57.3.29-85.94.57-2.12 0-4.1 0-6.64-.14-1.4 0-2.54-.14-2.68-2.4-.28-6.21 0-19.2 0-19.2s72.54-1.12 87.5-1.12h12.13ZM313.99 674.97c.84.56 2.26.56 4.09.42 1.7-.14 84.53-.42 101.32-.42 2.26 0 2.97-.7 2.97-1.84 0-1.12-.14-16.5-.14-20.17h-9.46l-51.08.42c-15.8.14-48.69.7-48.69.7v18.07c0 1.7.42 2.54.99 2.82Z"/><path fill="#00643A" d="M139.7 590.02c46.01 5.64 87.5 1.69 133.93.98 48.82-.56 97.65 2.68 146.48 2.12 3.38 0 6.91-.14 10.16-1.41 3.67-1.41 6.63-8.19 9.45-11 5.08-4.95 10.16-10.03 15.39-14.97 5.78-5.64 12-12.41 11.43-20.46 0-.99-.29-2.12-1.13-2.82-.85-.7-1.98-.7-2.97-.7-45.58 1.55-286.04.13-286.04.13s-13.27 12.42-17.78 16.94c-9.18 9.31-9.74 22.01-18.91 31.19Z"/><path fill="#56b529" d="M133.5 589.73c-2.82 4.24-2.26 6.21.14 8.33 1.27 1.13 3.53 1.41 5.22 1.41 27.66 0 268.4-.42 282.8 0 1.41 0 2.96.14 4.38-.28 2.4-.7 3.1-2.4 3.38-4.66.28-1.97 1.56-5.22.57-7.05-1.27.14-3.67 1.27-3.67 1.27l-277.58-.29c-1.27 0-.99-.98-.43-1.97 6.64-10.73 26.54-41.07 28.09-44.31-3.25-.57-9.74-.28-9.74-.28s-31.33 45.15-33.16 47.83Z"/><path fill="#002F19" d="M424.77 589.6c-1.27 1.4-2.4 2.53-3.25 4.79-.7 2.12.7 5.08 2.68 5.08 2.68 0 3.95-1.27 5.36-2.12 2.26-1.4 26.53-31.32 33.03-39.65 0-6.77-.29-10.3-.29-15.52-3.8 6.35-32.17 41.63-37.53 47.41Z"/><path fill="#D6D6D6" d="M524.68 703.05c9.6.14 19.19-.14 28.79-.42 1.4 0 2.82-.14 3.8-1.13 1.13-.99 1.28-2.68 1.42-4.23 2.4-34.86 3.1-70 2.25-105 0-1.27-.14-2.54-.56-3.52-1.55-3.67-6.5-3.96-10.44-4.1-4.8 0-9.6-.42-14.4-.98-2.4-.29-11-2.83-12.7-1.13-1.55 1.55 0 11.71 0 13.97 0 4.8.14 9.6.14 14.53.29 19.76.57 39.52 1 59.41 0 2.68.56 32.6.7 32.6ZM620.92 702.91c12.98.85 26.1.42 39.09-.99 3.1-34.85 1.55-70-.14-104.99-.28-6.91-.7-13.83-.99-20.74-10.58-.29-21.17.28-31.6 1.55-1.99.28-4.8.14-5.8 1.55-.84 1.27.15 6.63.29 8.33.14 5.22.14 10.58 0 15.8-.28 21.31-1.7 42.76-1.98 64.07 0 3.25-.28 35.28 1.13 35.42Z"/><path fill="#F1F7E9" d="M557.56 702.91s5.64-.42 10.3-.42c.99-11.72 1.13-102.6 1.84-116 0 0-8.9-.14-10.03.42-2.4.99-3.52 5.08-3.52 5.08l1.4 110.92ZM612.74 701.78c4.37-.28 14.53 2.97 14.53 2.97s-.56-84.68-1.55-114.17c0-1.83-.14-3.81-1.55-5.08-1.84-1.83-6.5-1.55-8.75-.85-3.67 1.13-3.25 2.4-3.25 6.21l.43 26.67c.14 17.93.28 35.99.28 53.91 0 10.02 0 20.18-.14 30.34Z"/><path fill="#C8DC8C" d="M513.25 702.91s7.76 0 11.71.14c.85 0 1.7 0 2.26-.56.42-.43.56-1.13.56-1.7 0-27.37-.84-103.43-.84-103.43s1.27-5.65 1.12-7.06c-.14-.99-.28-1.98-.98-2.54a3.85 3.85 0 0 0-2.26-.57c-1.98-.14-9.17-1.83-10.73-.56-1.69 1.41-1.4 9.17-1.4 11.29-.29 8.18.56 105 .56 105Z"/><path fill="#767676" d="M164.82 718.58v-15.1s38.25-.15 56.17-.29c18.35-.14 36.55-.42 54.9-.56 18.34-.14 36.55-.42 54.89-.57 18.35-.14 36.55-.42 54.9-.56 18.2-.14 76.9.28 76.9.28s.15.28.29.43c.99 6.77.42 15.24-.57 21.87-4.09-.28-288.73 0-292.54 0-.98 0-2.25.14-3.1-.43-1.7-1.26-1.84-3.24-1.84-5.07Z"/><path fill="#F1F7E9" d="M202.79 303.69c11.29 0 45.86-.14 48.96-.14 3.81 0 5.23-1.7 5.23-4.24s.28-25.4.42-38.24c0-1.7 0-3.39-.56-4.94-.85-1.97-1.7-2.68-4.38-3.25-4.66-.84-12.14-.28-15.1-.28-8.04 0-17.5.28-25.68.28-2.69 0-7.9 0-10.73 1.98-1.4.99-1.7 2.96-1.7 4.8 0 7.76-.27 12.13-.41 19.05 0 1.55.14 14.96.28 21.45.14 2.12 1.55 3.53 3.67 3.53ZM291.7 301.29c0 .42 0 .7.27.99.29.42 1 .56 1.56.56h51.22c3.53 0 6.63-1.41 6.63-4.51 0-13.13-.42-27.66-.42-41.35 0-3.39-2.82-4.38-5.22-4.38-17.36 0-26.39.57-43.18.57-3.1 0-8.19.42-9.88 3.24-1.13 1.98-.7 9.03-.7 14.4-.15 10.3-.15 20.46-.29 30.48ZM383.98 297.76c0 1.84.14 3.81 1.56 4.8.84.56 1.97.7 2.96.7 16.37.57 31.19.85 47.56-.42.7 0 1.55-.14 2.11-.56.7-.57.85-1.7.99-2.68.28-3.96.14-34.58-.42-45.59 0-.7-.14-1.55-.43-2.11-.7-1-2.11-1.27-3.38-1.27-14.26-.14-26.68.42-46.43.84-3.1 0-4.38 2.12-4.38 5.08-.14 6.5-.14 13.13-.14 19.62.14 7.2.14 14.4 0 21.59ZM197.85 390.05c0 .57.14 1.27.42 1.84.7 1.13 2.26 1.27 3.53 1.27 16.8.28 33.73.42 50.52.7 1.27 0 2.54 0 3.53-.85.98-.84.98-2.25.98-3.52 0-8.47.15-35.7.15-43.04 0-5.23-4.1-5.08-8.47-5.08-4.38 0-11.85-.15-17.78-.15-8.75 0-17.36 0-26.1-.14-1.7 0-3.54 0-4.8 1.13-1.28 1.13-1.7 2.97-1.7 4.8 0 7.48-.14 13.4-.28 19.76v23.28ZM309.05 394.85c12 0 34.43-.85 37.82-.85 3.39 0 4.37-1.4 4.37-4.23v-45.44c0-2.68-2.25-4.38-5.64-4.66-3.25-.28-26.96-.14-42.06 0-5.5 0-8.89.57-9.45 6.63-.7 7.2-.42 13.55-.42 20.75 0 7.76.42 19.2.42 23.43-.14 4.37 1.55 4.37 14.96 4.37ZM384.4 389.91c0 .99.15 1.98.85 2.68.7.7 1.7.57 2.68.57 16.51.14 30.2.56 45.44-.15 1.13 0 2.26-.14 3.25-.7 2.12-1.13 2.4-3.95 2.4-6.35.14-13.13.14-37.26.14-41.2 0-3.96-2.4-5.8-6.2-5.8-3.82 0-4.52-.13-6.78 0-6.35.15-12.56.15-18.91.29-6.07.14-12.84-.85-18.77.28-4.94.85-3.81 6.5-3.81 10.59-.14 6.2-.28 12.41-.28 18.76a261.4 261.4 0 0 0 0 21.03Z"/><path fill="#D6D6D6" d="M513.25 287.88c0 .85.14 1.7.56 2.4.85.99 2.4 1.13 3.67 1.27 16.37.7 32.88.7 49.25 0 3.67-.14 6.63 0 7.76-3.39 1.27-3.8.99-8.75.85-12.84a681 681 0 0 1-.42-25.4c0-3.1-1.27-6.91-4.24-8.18-.84-.43-1.97-.43-2.96-.57-5.36-.28-45.3.57-49.53.99-1.13.14-2.4.28-3.1 1.13-.71.7-.86 1.7-.86 2.68a320.28 320.28 0 0 0-.98 41.91ZM617.82 288.73c2.68 0 32.88-.99 50.23-.99 4.24 0 4.66-4.37 4.8-7.76.14-4.1-.42-26.39-1.55-38.53-.14-1.97-1.27-5.36-5.22-5.36-3.53 0-42.9 1.7-47.28 1.7a5.91 5.91 0 0 0-5.92 5.22c-.85 14.81.42 37.11.42 40.5 0 3.53 1.98 5.22 4.52 5.22ZM570.26 342.21c-2.82 0-40.08.57-45.72.57-4.1 0-7.34 1.97-8.19 4.94-1.13 4.23-.7 10.16-.56 14.1.14 8.9.28 24.99.28 28.8a5.5 5.5 0 0 0 5.08 5.5c15.1.14 42.34.42 46.85 0 9.17-.99 7.48-12.42 7.34-18.91-.28-10.16-.85-28.22-.85-30.34 0-2.12-1.4-4.66-4.23-4.66ZM616.26 390.33c.57 4.38 2.69 6.07 10.73 6.07 5.92 0 33.02.57 41.06-.84a9.8 9.8 0 0 0 4.38-1.7c4.37-3.53 2.96-16.65 2.96-21.59 0-8.75-.42-15.66-.42-24.41 0-2.97-.28-6.64-2.82-8.05-1.13-.7-2.54-.7-3.81-.7-9.46 0-15.39-.14-28.23.14-13.54.28-20.88-.85-23 1.83-1.7 2.26-1.7 6.64-1.98 9.32-.14 4.8.57 35.56 1.13 39.93ZM195.3 477.4c0-2.4.43-4.23 4.38-4.23h52.5c2.11 0 3.24 1.7 3.24 4.66.15 3.67.29 33.3 0 40.07-.14 4.52-.14 6.07-.28 10.59-5.78.42-11.57.28-17.21.14l-24.42-.42c-4.1-.14-13.4 1.69-15.66-2.97a112 112 0 0 1-2.68-6.77l.14-41.07ZM286.19 477.55c0-2.26.99-3.67 3.8-3.81 3.4-.29 36.56 0 56.88-.15 1.41 0 2.96 0 3.95 1 1.27 1.12 1.27 3.1 1.27 4.93 0 15.52-.28 37.68-.28 37.68s-12.14 10.87-18.2 11.15l-21.46.84c-6.35.29-13.69 1.42-19.9.15-5.5-1.13-6.06-5.93-6.06-10.73v-41.06ZM379.75 479.66c0-2.4 0-3.8 2.54-5.5 1.13-.7 4.37-.99 11.43-1.13 17.5-.28 41.91-.14 45.44-.14 3.53 0 4.94 1.55 4.94 4.51 0 1.84.42 38.53.42 38.53s-1.7 8.18-2.96 8.89c-.56.42.56.56-.14.7-14.11.71-28.37 1.13-42.48 1.13-4.8 0-12 1.7-16.65-.14-1.27-.56-2.26-5.5-2.54-10.02-.28-3.52 0-35.13 0-36.83Z"/><path fill="#C8DC8C" d="m195.3 518.33 60.26-.57s-.14 6.35-.14 9.46c0 .7 0 1.41-.28 2.12-.28.98-.84 1.4-1.7 1.83-.98.42-3.66.7-4.65.7l-48.82-.14c-1.13 0-2.4-.14-3.25-.98-1.27-1.27-1.41-4.1-1.41-6.5v-5.92ZM287.88 530.6c.43.29.99.57 1.41.71 2.4.7 5.22.57 7.76.57h8.47c5.65 0 11.3 0 16.94-.15 8.89-.14 17.64-.28 26.53-.56 2.11-.14 2.68-1.83 2.68-3.81.14-1.84 0-8.47 0-10.44-10.3 0-65.62 1.13-65.62 1.13s0 5.5.14 8.04c0 1.13 0 2.4.56 3.25.43.56.7.98 1.13 1.27ZM380.6 526.94a5 5 0 0 0 1.12 1.83c1.7 1.55 4.38 1.27 6.5 1.41 2.68.14 49.67-.56 50.8-.56 3.95 0 5.36-.57 5.64-2.83.14-1.83-.14-8.18-.14-10.86H429.14c-5.36 0-10.72.14-15.95.14-5.08 0-10.16.14-15.38.14-4.66 0-12.27.28-18.06.28-.14 6.21.42 9.32.85 10.45Z"/><path fill="#56b529" d="M512.68 589.31v8.33c5.08 0 8.47.14 13.27.14h28.79c11.43 0 22.86-.14 34.43-.28 10.44-.15 50.24-.29 53.9-.29h7.2c1.13 0 2.4 0 3.25.85.85.85.85 1.98.85 3.1.28 9.88.7 19.76.7 29.64 0 10.16-.14 20.18-.14 30.34-.14 16.93-.14 34-.28 50.94h13.12c0-52.5.99-155.09.99-155.09s-134.63.43-147.75.71c-9.03.14-8.19 3.81-8.33 11.43-.14 7.06 0 13.26 0 20.18Z"/><path fill="#00643A" d="M462.58 701.64s77.34.14 93.43-.14c16.08-.28 32.17-.42 48.12-.57 16.09-.14 107.25-.56 114.02-.42.28 0 .57 0 .7.14.43.28.43.7.43 1.13 0 5.5-.14 13.13-.14 18.91 0 .7-.14 1.41-.57 2.12-.28.56-.98.99-1.69 1.13-.99-.14-1.7.14-1.7.14H462.17c0-1.41.42-22.44.42-22.44Z"/><path fill="#56b529" d="M585.36 462.44c10.02-2.68 20.88-3.66 30.62 0 5.36 1.98 10.16 5.37 15.1 8.19a78.93 78.93 0 0 0 20.18 7.48c12.14 2.54 25.54 2.26 35.7 9.45 4.24 2.97 7.62 7.48 7.62 12.7 0 5.37-4.09 10.17-9.03 12.42-4.8 2.4-10.44 2.69-15.8 2.83-5.37.14-10.87 0-16.1 1.4-3.38 1-6.62 2.55-9.73 3.96-24.27 10.87-53.06 13.69-77.47 3.1-5.08-2.25-9.88-4.94-15.38-5.78-5.93-.85-11.72.7-17.64 1.27a48.7 48.7 0 0 1-22.44-3.39c-5.79-2.4-11.57-6.35-13.27-12.42-1.55-5.64 1.13-11.85 4.94-16.23 5.36-6.06 13.13-9.73 20.89-11.57 4.37-.99 8.89-1.55 13.4-1.83 3.67-.28 7.2-.14 10.87-.85 3.67-.7 7.48-1.27 11.15-2.4 4.23-1.27 8.32-2.68 12.42-4.1 4.65-1.4 9.31-2.96 13.97-4.23Z"/><path fill="#D6D6D6" d="M552.05 481.78c.57 5.93-9.17 9.88-7.2 15.52 6.22-.85 11.3-5.22 16.8-8.32 5.5-3.1 13.12-4.52 17.5 0 .56.56 1.13 1.4 1.83 1.83 2.83 2.12 6.78 0 9.74-1.98 3.25-2.11 6.63-4.09 10.44-4.8 3.81-.7 8.05 0 10.87 2.55.85.84 1.55 1.83 2.54 2.4 2.12 1.26 4.94.7 7.2-.57 2.25-1.13 4.23-2.68 6.63-3.39a9.06 9.06 0 0 1 6.63 1c2.4 1.54 4.1 4.08 6.5 5.64 3.52 2.11 8.04 1.55 12.13 1.55 4.1 0 9.03 1.13 10.58 5.08 1.84 4.51-2.82 9.6-7.62 10.16-4.94.56-9.6-1.83-13.97-4.1-4.37-2.25-9.03-4.65-13.97-3.94-4.51.56-8.32 3.8-12.42 5.78-4.09 1.98-9.88 2.82-12.84-.7-.7-.85-1.27-1.84-1.97-2.54-1.98-1.7-5.09-1.13-7.2.42-2.12 1.41-3.81 3.53-5.93 5.08-4.37 3.1-10.72 2.82-14.96-.42-1.4-1.13-2.54-2.4-3.95-3.25-2.68-1.55-6.2-1.41-9.17-.42-2.96.99-5.79 2.68-8.6 3.95-3.68 1.7-7.91 2.54-11.86 1.83-4.24-.84-7.2-3.38-9.03-7.33-1.7.28-7.77 2.54-7.9-.71-.15-2.82 2.81-4.38 4.8-5.65 5.21-3.52 9.59-8.32 15.09-11.57a16.73 16.73 0 0 1 9.31-3.1Z"/><path fill="#56b529" d="M702.77 627.84h54.05s-11.86 95.4-11.86 95.67c0 .29-.14.43-.42.43h-14.96l-3.8-.14-1.14-12.84-20.04-.57-1.83 13.55h-14.25l14.25-96.1Z"/><path fill="#C8DC8C" d="M757.38 627.84h-54.05s11.86 95.53 11.86 95.67c0 .14 0 .29.14.29h14.25l-1.41-12.99 26.81-.56c.43 0 .57.14.57.56.28 2.4 1.69 12.28 1.69 12.56 0 .28.14.43.56.43h12.7l1.13-.14-14.25-95.82ZM495.47 669.33a11.53 11.53 0 0 0-2.12-5.5c-2.82-4.24-1.84-7.77-.28-11.02 3.1-6.2 3.1-11.57 1.83-15.24-1.7-4.8-5.5-8.32-10.44-9.88-.42-.14-.7-.28-.99-.56a.9.9 0 0 1 0-.85c.42-2.4 1.13-4.93.28-7.2-1.13-3.1-2.25-4.5-3.52-7.47a12 12 0 0 0-3.4-4.66c-1.26-.99-4.22-.99-5.78-1.13-2.82-.28-5.64.7-8.04 2.12-1.83.99-3.67 2.4-5.65 1.83-.7-.14-1.27-.56-1.97-.84-2.68-1-5.79.14-7.48 2.4-1.7 2.25-2.12 5.22-1.7 8.04.43 2.68 1.7 5.78-.13 7.76-1.7 1.98-8.33 2.12-7.2 5.93.28.99.99 1.7 1.55 2.54.56.84.99 1.97.56 2.82-.42 1.13-1.83 1.41-2.96 1.98-2.26.84-2.96 8.89-1.83 11 1.83 2.97 3.1 5.5 6.49 6.92-1.41 2.4-5.79 4.51-7.06 10.44-.99 4.38.43 8.47 2.82 12.14 2.4 3.8 7.34 6.63 8.75 8.18 1.13 1.27 2.4 2.82 2.4 4.52 0 .84-.14 1.83.14 2.68 1 2.26 4.66 1.83 5.79 4.23.99 2.12.56 5.5.85 7.9.28 2.4 1.4 4.52 2.54 6.64.28.42.56.99.98 1.27.57.42 1.28.42 1.98.42 1.13.14 2.4.14 3.53.14 2.26.14 4.51.28 6.77-.28a8.12 8.12 0 0 0 3.95-2.4c.43-.56.85-1.13.85-1.83 0-.57-.14-1.13-.14-1.84-.14-2.54-.57-5.08 0-7.48a5.28 5.28 0 0 1 2.68-3.8c1.13-.57 2.54-.57 3.81-1a7.74 7.74 0 0 0 5.36-6.91c0-2.96-1.7-6.35-.14-8.9.57-.98 1.7-1.68 2.54-2.53 1.41-1.41 2.97-3.25 3.67-5.08.85-1.41.85-3.53.7-5.5Z"/><path fill="#00643A" d="M462.16 723.94c.28 0 8.19-.29 12.14-.29 2.54 0 5.22-.14 7.48-1.12.84-.43 2.26-1.13 2.4-2.26.14-1.7.14-3.53.28-5.22.28-5.22.85-10.59.56-15.67 0-.14 0-.42-.14-.56-.14-.28-.56-.28-.84-.28-9.88 0-19.76 0-29.64-.14-.42 0-.99 0-1.13.42-.14.14-.14.42-.14.7-.14 4.52 0 15.24 0 16.65 0 1.42 0 3.25.7 4.52 1.42 2.4 5.37 3.1 8.33 3.25Z"/><path fill="#56b529" d="M439.44 642.94c.85-1.13 1.98-2.12 2.4-3.4.42-1.12 0-2.39 0-3.66-.42-4.1 2.4-3.95 5.08-5.93 2.54-1.7 2.68-5.36 2.54-8.32-.14-3.1-1.55-7.9 1.41-10.3 3.53-2.97 6.92.56 9.74.84 3.1.28 5.08-2.96 7.62-4.1 4.52-1.97 9.03-.84 12.28 3.82.56-5.79-5.5-11.15-11.86-8.33-1.27.57-4.23 2.54-6.77 2.54-2.26 0-3.81-.98-5.22-1.55-2.4-.99-5.36-.42-7.76.99-3.25 2.12-4.66 4.37-5.22 8.18-.57 3.67 1.27 8.33-.71 11.43-1.41 2.12-4.38 3.1-5.5 5.23-1.13 2.4-.85 4.65-1 6.63 0 1.83-.27 3.53-1.12 5.08a10.86 10.86 0 0 0 0 10.58c1.41 2.68 2.68 4.66 7.34 6.07-7.62-6.2-5.08-12.7-3.53-15.1.14-.42.28-.56.28-.7ZM481.5 700.8c.84.28 1.55.84 1.55 1.83.14 2.26.14 10.72-.43 12.56-1.55 4.37-6.2 6.63-10.44 8.75h8.89c.99 0 2.4-1.27 2.68-1.7l.29-.28c1.55-1.83 2.4-4.09 2.82-6.49.84-4.37.99-11.71.56-13.69-.28-1.4-.28-3.24-1.55-4.23-6.77.99-23.43.85-23.43.85s7.63.84 8.05.84c3.1.28 6.2.7 9.17 1.13.7.14 1.27.14 1.83.42ZM706.3 628.97c5.78 0 35.56.42 46.99.42.85 0 1.83 0 2.54.42.56.43.99 1.41 1.55 5.08.85 5.79 7.62 60.97 12.99 88.9h2.68c.14 0 .14-.13.14-.13.7-6.21-7.34-62.38-12.28-92.15-.28-1.42-.42-2.83-.7-4.1-.29-1.4-1.56-1.97-3.53-1.97-8.19 0-16.37-.29-24.7-.29-8.18-.14-16.37-.28-24.7-.28-1.12 0-3.66-.28-4.23.99-.42.85-.42 1.55-.42 2.54.14.7 1.7.57 3.67.57Z"/></svg>
