<svg xmlns="http://www.w3.org/2000/svg" style="display:none;">

  <symbol id="booking" viewBox="0 0 140 100">
    <g stroke="#7BC144" fill="none">
      <polygon stroke-width="6" points="29,28 69,11 109,28 109,71 69,91 29,71 "/>
      <polyline stroke-width="6" points="29,28 69,47 109,28 "/>
      <line stroke-width="6" x1="69" y1="47" x2="69" y2="91"/>
      <line stroke-width="2" x1="51" y1="21" x2="87" y2="37"/>
    </g>
  </symbol>

  <symbol id="easyreturn" viewBox="0 0 140 100">
    <g stroke="#7BC144" fill="none">
      <polyline stroke-width="6" stroke-linecap="square" points="39,19 51,19 51,30 "/>
      <path stroke-width="6" stroke-linecap="square" 
          d="M70,15c19.3,0,35,15.7,35,35S89.3,85,70,85S35,69.3,35,50c0-11.7,5.7-22.1,14.5-28.5"/>
      <path stroke-width="6" stroke-linecap="square" d="M46.8,23.8"/>
    </g>
  </symbol>

  <symbol id="pickuppoint" viewBox="0 0 140 100">
    <g stroke="#7BC144" fill="none">
      <polygon stroke-width="6" stroke-linecap="square" points="15,25 125,25 125,75 103,75 103,45 71,45 71,75 15,75 "/>
      <line stroke-width="2" stroke-linecap="square" x1="87" y1="46" x2="87" y2="77"/>
    </g>
  </symbol>

  <symbol id="postalcode" viewBox="0 0 140 100">
    <g stroke="#7BC144" fill="none">
      <circle stroke-width="6" cx="70" cy="40" r="12.5"/>
      <path stroke-width="6" stroke-linecap="square" d="M70,15c0,0,25,0,25,25S70,89,70,89S45,65,45,40S70,15,70,15z"/>
    </g>
  </symbol>

  <symbol id="purchaseorder" viewBox="0 0 140 100">
    <polygon stroke="#7BC144" fill="none" stroke-width="4" 
      points="15,40 48,40 48,29 68,50 48,71 48,60 15,60 "/>
    <g stroke="#7BC144" fill="none" stroke-width="6">
      <line x1="120" y1="37" x2="95" y2="37"/>
      <line x1="120" y1="73" x2="95" y2="73"/>
      <line x1="125" y1="61" x2="95" y2="61"/>
      <line x1="114" y1="25" x2="95" y2="25"/>
      <line x1="114" y1="49" x2="95" y2="49"/>
    </g>
    <g fill="#7BC144">
      <rect x="83" y="22" width="6" height="6"/>
      <rect x="83" y="34" width="6" height="6"/>
      <rect x="83" y="46" width="6" height="6"/>
      <rect x="83" y="58" width="6" height="6"/>
      <rect x="83" y="70" width="6" height="6"/>
    </g>
  </symbol>

  <symbol id="reports" viewBox="0 0 140 100">
    <rect x="15" y="15" stroke="#7BC144" fill="none" stroke-width="6" width="110" height="70"/>
    <g stroke="#7BC144" fill="none" stroke-width="6">
      <line x1="59" y1="51" x2="59" y2="76"/>
      <line x1="83" y1="40" x2="83" y2="76"/>
      <line x1="95" y1="29" x2="95" y2="76"/>
      <line x1="47" y1="57" x2="47" y2="76"/>
      <line x1="71" y1="57" x2="71" y2="76"/>
    </g>
  </symbol>

  <symbol id="shippingguide" viewBox="0 0 140 100">
    <g stroke="#7BC144" fill="none" stroke-width="2">
      <rect x="15" y="17" width="14" height="14"/>
      <rect x="15" y="43" width="14" height="14"/>
      <rect x="15" y="69" width="14" height="14"/>
    </g>
    <g stroke="#7BC144" fill="none" stroke-width="6">
      <line x1="38" y1="19" x2="108" y2="19"/>
      <line x1="38" y1="45" x2="128" y2="45"/>
      <line x1="38" y1="29" x2="58" y2="29"/>
      <line x1="68" y1="29" x2="118" y2="29"/>
      <line x1="38" y1="71" x2="118" y2="71"/>
      <line x1="38" y1="81" x2="58" y2="81"/>
      <line x1="68" y1="81" x2="98" y2="81"/>
      <line x1="68" y1="55" x2="108" y2="55"/>
      <line x1="38" y1="45" x2="38" y2="45"/>
      <line x1="38" y1="45" x2="38" y2="45"/>
      <line x1="38" y1="55" x2="58" y2="55"/>
    </g>
  </symbol>

  <symbol id="tracking" viewBox="0 0 140 100">
    <g stroke="#7BC144" fill="none">
      <circle stroke-width="6" cx="95" cy="35" r="25"/>
      <line stroke-width="6" x1="20" y1="81" x2="75" y2="50"/>
    </g>
  </symbol>

  <symbol id="calendar" viewBox="0 0 100 100" enable-background="new 0 0 100 100">
    <rect x="35.232" y="42.398" width="8.669" height="8.666"></rect><rect x="35.232" y="55.717" width="8.669" height="8.672"></rect><rect x="35.232" y="69.042" width="8.669" height="8.672"></rect><rect x="19.667" y="55.717" width="8.668" height="8.672"></rect><rect x="19.667" y="69.042" width="8.668" height="8.672"></rect><path d="M31.982,16.959c0,3.413-2.766,6.179-6.181,6.179l0,0c-3.413,0-6.181-2.766-6.181-6.179v-5.778  C19.62,7.768,22.388,5,25.801,5l0,0c3.415,0,6.181,2.768,6.181,6.181V16.959z"></path><path d="M74.191,16.959c0,3.413-2.76,6.179-6.178,6.179l0,0c-3.412,0-6.184-2.766-6.184-6.179v-5.778C61.83,7.768,64.602,5,68.014,5  l0,0c3.418,0,6.178,2.768,6.178,6.181V16.959z"></path><path d="M71.643,95C58.91,95,48.542,84.617,48.542,71.857c0-12.772,10.369-23.144,23.101-23.144s23.1,10.372,23.1,23.144  C94.742,84.617,84.375,95,71.643,95z M71.643,54.463c-9.566,0-17.35,7.803-17.35,17.395c0,9.581,7.783,17.385,17.35,17.385  s17.346-7.804,17.346-17.385C88.988,62.266,81.209,54.463,71.643,54.463z"></path><path d="M71.865,74.504c-0.953,0.483-2.104,0.098-2.582-0.849l0,0c-0.49-0.959-0.109-2.116,0.844-2.599l12.445-6.272  c0.947-0.485,2.113-0.1,2.588,0.85l0,0c0.484,0.958,0.109,2.104-0.854,2.589L71.865,74.504z"></path><path d="M68.295,72.41c0.127-1.649,1.564-2.875,3.211-2.746c1.648,0.128,2.869,1.569,2.74,3.21c-0.125,1.64-1.561,2.875-3.211,2.746  C69.395,75.492,68.172,74.051,68.295,72.41z"></path><path d="M71.643,45.305c1.15,0,2.277,0.099,3.389,0.24v-3.147h-8.668v3.437C68.07,45.49,69.836,45.305,71.643,45.305z"></path><path d="M59.469,48.292v-5.894h-8.672v8.666h4.403C56.525,50.009,57.953,49.081,59.469,48.292z"></path><path d="M49.49,86.396c-0.002-0.002-0.004-0.007-0.007-0.012c-0.54-0.825-1.025-1.688-1.473-2.574H11.589V36.3h70.627v11.218  c0.002,0,0.002,0.001,0.004,0.002c1.047,0.458,2.047,0.995,3.018,1.579c0.178,0.106,0.355,0.212,0.531,0.323  c0.969,0.615,1.91,1.272,2.789,2.004V15.754H77.471v1.205c0,5.21-4.242,9.456-9.457,9.456s-9.453-4.245-9.453-9.456v-1.205H35.254  v1.205c0,5.21-4.243,9.456-9.453,9.456c-5.218,0-9.453-4.245-9.453-9.456v-1.205H5.258v73.032h45.98  c-0.002,0-0.002-0.003-0.004-0.003C50.608,88.024,50.033,87.224,49.49,86.396z"></path>
  </symbol>

  <symbol id="tag" viewBox="0 0 100 100" enable-background="new 0 0 100 100">
    <path d="M93.838,51.578L47.653,5H21.996H8.971C6.602,5,5.023,6.581,5.023,8.948V47.63l46.185,46.185  c1.579,1.581,3.947,1.581,5.526,0l36.709-36.709C95.417,55.525,95.417,53.158,93.838,51.578z M32.654,44.474  c-6.711,0-11.842-5.131-11.842-11.842c0-6.711,5.131-11.842,11.842-11.842c6.711,0,11.842,5.131,11.842,11.842  C44.497,39.343,39.366,44.474,32.654,44.474z"></path>
  </symbol>

  <symbol id="comments" viewBox="0 0 30 30">
    <path d="M28,3H2v18h8v6.5l6.4-6.5H28V3z"/>
  </symbol>

</svg>
