<svg xmlns="http://www.w3.org/2000/svg" style="display:none;">

  <symbol id="booking" viewBox="0 0 140 100">
    <g stroke="#7BC144" fill="none">
      <polygon stroke-width="6" points="29,28 69,11 109,28 109,71 69,91 29,71 "/>
      <polyline stroke-width="6" points="29,28 69,47 109,28 "/>
      <line stroke-width="6" x1="69" y1="47" x2="69" y2="91"/>
      <line stroke-width="2" x1="51" y1="21" x2="87" y2="37"/>
    </g>
  </symbol>

  <symbol id="easyreturn" viewBox="0 0 140 100">
    <g stroke="#7BC144" fill="none">
      <polyline stroke-width="6" stroke-linecap="square" points="39,19 51,19 51,30 "/>
      <path stroke-width="6" stroke-linecap="square" 
          d="M70,15c19.3,0,35,15.7,35,35S89.3,85,70,85S35,69.3,35,50c0-11.7,5.7-22.1,14.5-28.5"/>
      <path stroke-width="6" stroke-linecap="square" d="M46.8,23.8"/>
    </g>
  </symbol>

  <symbol id="pickuppoint" viewBox="0 0 140 100">
    <g stroke="#7BC144" fill="none">
      <polygon stroke-width="6" stroke-linecap="square" points="15,25 125,25 125,75 103,75 103,45 71,45 71,75 15,75 "/>
      <line stroke-width="2" stroke-linecap="square" x1="87" y1="46" x2="87" y2="77"/>
    </g>
  </symbol>

  <symbol id="postalcode" viewBox="0 0 140 100">
    <g stroke="#7BC144" fill="none">
      <circle stroke-width="6" cx="70" cy="40" r="12.5"/>
      <path stroke-width="6" stroke-linecap="square" d="M70,15c0,0,25,0,25,25S70,89,70,89S45,65,45,40S70,15,70,15z"/>
    </g>
  </symbol>

  <symbol id="purchaseorder" viewBox="0 0 140 100">
    <polygon stroke="#7BC144" fill="none" stroke-width="4" 
      points="15,40 48,40 48,29 68,50 48,71 48,60 15,60 "/>
    <g stroke="#7BC144" fill="none" stroke-width="6">
      <line x1="120" y1="37" x2="95" y2="37"/>
      <line x1="120" y1="73" x2="95" y2="73"/>
      <line x1="125" y1="61" x2="95" y2="61"/>
      <line x1="114" y1="25" x2="95" y2="25"/>
      <line x1="114" y1="49" x2="95" y2="49"/>
    </g>
    <g fill="#7BC144">
      <rect x="83" y="22" width="6" height="6"/>
      <rect x="83" y="34" width="6" height="6"/>
      <rect x="83" y="46" width="6" height="6"/>
      <rect x="83" y="58" width="6" height="6"/>
      <rect x="83" y="70" width="6" height="6"/>
    </g>
  </symbol>

  <symbol id="reports" viewBox="0 0 140 100">
    <rect x="15" y="15" stroke="#7BC144" fill="none" stroke-width="6" width="110" height="70"/>
    <g stroke="#7BC144" fill="none" stroke-width="6">
      <line x1="59" y1="51" x2="59" y2="76"/>
      <line x1="83" y1="40" x2="83" y2="76"/>
      <line x1="95" y1="29" x2="95" y2="76"/>
      <line x1="47" y1="57" x2="47" y2="76"/>
      <line x1="71" y1="57" x2="71" y2="76"/>
    </g>
  </symbol>

  <symbol id="shippingguide" viewBox="0 0 140 100">
    <g stroke="#7BC144" fill="none" stroke-width="2">
      <rect x="15" y="17" width="14" height="14"/>
      <rect x="15" y="43" width="14" height="14"/>
      <rect x="15" y="69" width="14" height="14"/>
    </g>
    <g stroke="#7BC144" fill="none" stroke-width="6">
      <line x1="38" y1="19" x2="108" y2="19"/>
      <line x1="38" y1="45" x2="128" y2="45"/>
      <line x1="38" y1="29" x2="58" y2="29"/>
      <line x1="68" y1="29" x2="118" y2="29"/>
      <line x1="38" y1="71" x2="118" y2="71"/>
      <line x1="38" y1="81" x2="58" y2="81"/>
      <line x1="68" y1="81" x2="98" y2="81"/>
      <line x1="68" y1="55" x2="108" y2="55"/>
      <line x1="38" y1="45" x2="38" y2="45"/>
      <line x1="38" y1="45" x2="38" y2="45"/>
      <line x1="38" y1="55" x2="58" y2="55"/>
    </g>
  </symbol>

  <symbol id="tracking" viewBox="0 0 140 100">
    <g stroke="#7BC144" fill="none">
      <circle stroke-width="6" cx="95" cy="35" r="25"/>
      <line stroke-width="6" x1="20" y1="81" x2="75" y2="50"/>
    </g>
  </symbol>

</svg>
