<svg xmlns="http://www.w3.org/2000/svg" x="0px" y="0px" viewBox="0 0 300 250">
  <g fill="none" stroke="#444444" stroke-width="2" stroke-linecap="round" stroke-linejoin="round" stroke-miterlimit="10">
    <path d="M85.213,109.899c0,0-0.547,6.453-0.416,11.456c0.131,5.006-0.371,13.127-0.266,17.178c0.105,4.052,0.199,7.625,0.293,11.202
        c0.094,3.574-0.459,9.783-0.365,13.359c0.094,3.574,0.926,8.084,1.014,11.418c0.088,3.338,0.111,4.289,0.111,4.289
        s27.076,7.205,31.894,8.986c4.815,1.783,8.765,2.9,11.391,3.07c2.628,0.172,7.845,1.244,11.213,2.348
        c3.367,1.104,9.845,3.172,14.172,4.49c4.327,1.314,9.882,2.898,9.882,2.898s3.74-2.961,7.271-4.723
        c3.53-1.758,20.923-11.518,23.965-13.744c3.041-2.225,7.069-3.285,9.651-4.781c2.585-1.498,4.692-2.986,4.692-2.986
        s-0.47-8.809,0.132-13.117c0.604-4.309,0.35-23.136,0.268-26.233c-0.08-3.099,0.6-13.61,0.92-19.58
        c0.32-5.971,0.916-10.518,0.916-10.518s-13.729,3.937-16.068,5.667c-2.338,1.731-7.775,3.543-13.2,5.83
        c-5.425,2.289-14.853,6.59-16.025,7.336c-1.172,0.746-4.238,2.02-4.238,2.02s-12.913-1.332-16.028-1.965
        c-3.117-0.635-17.749-3.83-21.825-4.677c-4.076-0.848-15.346-3.175-17.514-4.071c-2.171-0.898-6.717-1.496-10.077-2.361
        c-3.363-0.865-3.596-0.62-5.283-1.291C90.004,110.727,85.213,109.899,85.213,109.899z"/>
    <path d="M85.213,109.899c0,0-4.094-4.582-6.059-6.758c-1.965-2.174-5.568-6.213-6.878-7.609c-1.308-1.396-4.624-6.556-5.943-8.43
        c-1.32-1.873-2.49-4.068-2.49-4.068s6.901,2.521,9.629,3.406c12.964,4.2,26.535,5.838,39.952,7.895
        c10.646,1.633,21.728,5.943,32.432,6.107c0,0,5.46,8.124,6.771,9.68c1.312,1.555,6.246,7.784,6.75,8.887
        c0.506,1.098,3.04,6.756,3.04,6.756s0.248,3.49,0.349,7.304c0.1,3.812,0.133,5.083,0.225,8.579
        c0.091,3.494,0.133,5.082,0.223,8.576c0.205,7.898,0.718,15.773,0.463,23.674c-0.088,2.705-0.409,2.555-0.305,6.527
        c0.18,6.902-0.404,13.346,0.764,20.17"/>
    <path d="M211.949,104.912c0,0,2.459-3.244,3.229-4.218c0.77-0.975,2.589-4.361,4.754-6.641c2.167-2.283,4.479-5.048,5.851-7.308
        c1.371-2.263,7.664-10.854,7.664-10.854s-8.461,4.675-11.452,5.865c-2.989,1.19-4.553,2.185-7.548,3.217
        c-2.992,1.033-9.615,3.113-11.977,3.971c-2.362,0.857-8.492,3.561-10.219,4.402c-1.727,0.838-8.203,2.439-8.203,2.439
        s-3.643,6.613-5.346,8.408c-1.7,1.792-6.598,9.074-6.895,9.878c-0.297,0.803-9.392,11.692-9.392,11.692"/>
    <path d="M113.995,94.362c1.726-0.842,5.222-3.396,6.162-3.896c0.94-0.504,4.21-3.135,4.21-3.135s3.68,0.859,5.912,1.119
        c2.229,0.258,3.506,0.384,4.934,0.347c8.725-0.226,17.281,1.812,25.745,3.659c6.185,1.352,12.75,1.911,18.809,3.76
        c0.962,0.294,3.358,0.707,3.358,0.707"/>
    <path d="M215.545,84.309c0,0,0.854-3.838,1.77-5.292c0.915-1.456,2.709-5.796,3.146-7.395c0.434-1.603,2.379-6.264,2.379-6.264
        s-2.866-0.085-5.261-0.499c-12.84-2.229-26.008-2.916-38.771-5.344c-3.676-0.699-9.244-0.871-12.587-1.102
        c-3.347-0.231-5.745-0.803-8.132-0.898c-2.389-0.098-7.004-0.295-10.826-0.513c-3.82-0.218-7.492-0.759-7.973-0.904
        c-0.48-0.147-2.076-0.423-2.076-0.423s-1.318,4.327-2.976,7.867c-1.654,3.541-3.767,7.889-5.122,10.785
        c-1.355,2.898-2.242,5.465-3,6.918c-0.756,1.449-1.748,6.084-1.748,6.084s-1.952-1.695-2.936-2.783
        c-0.982-1.087-6.395-7.466-7.373-8.395c-0.979-0.928-4.949-6.863-6.416-8.256c-1.468-1.393-2.453-2.639-3.284-4.047
        c-0.833-1.41-2.155-3.283-2.155-3.283s-4.414,1.389-7.244,2.574c-2.832,1.187-7.546,3.219-10.7,4.254
        c-3.152,1.037-8.036,2.756-10.544,4.092c-2.508,1.338-4.236,2.178-6.439,3.031c-2.203,0.852-4.871,2.194-4.871,2.194
        s2.516,1.921,4.231,3.705c1.716,1.782,2.367,2.401,3.183,3.175c0.814,0.775,2.286,2.325,2.286,2.325"/>
  </g>
</svg>
