<svg xmlns="http://www.w3.org/2000/svg" x="0px" y="0px" viewBox="0 0 300 250" >
    <path fill="#444444" d="M82.253,47.686c-0.3,1.407-0.573,23.722-0.643,29.372c-0.069,5.648,2.165,30.819,2.091,36.75
            c-0.072,5.931,1.128,23.176,1.128,23.176s39.842-0.64,50.859-0.504c11.025,0.135,42.105,0.801,49.452,0.605
            c7.347-0.189,20.63-0.594,24.024-0.834c3.391-0.24,8.758-0.175,8.758-0.175s-0.431-33.905-0.344-40.967
            c0.087-7.062,0.475-38.698,0.512-41.805c0.039-3.106,0.084-6.778,0.084-6.778s-20.623,0.028-29.38-0.08
            c-8.755-0.107-49.192,1.659-54.848,1.589c-5.651-0.069-22.61,0.853-29.389,0.77C97.779,48.723,82.253,47.686,82.253,47.686z"/> 
    <g stroke="#444444" fill="none" stroke-width="2" stroke-linecap="round" stroke-linejoin="round" stroke-miterlimit="10">
        <path d="M76.219,41.468c0,0,25.402-0.546,31.964-0.466c6.563,0.08,47.697-1.697,60.825-1.537c13.124,0.161,31.108-0.474,37.382-0.112
            c6.275,0.362,17.965,1.077,17.965,1.077s0.432,11.418,0.361,17.125s1.71,46.536,1.65,51.386c-0.06,4.849,0.282,23.687,0.261,25.398
            c-0.021,1.712,0.474,7.997,0.474,7.997s13.827,12.435,17.21,15.901c3.385,3.465,27.012,30.874,28.422,32.319
            c1.41,1.444,9.581,8.686,9.581,8.686s-0.909,4.269-0.927,5.694s-0.599,2.276-0.599,2.276s-23.985,1.692-31.69,1.599
            c-7.702-0.095-56.202,0.159-66.758,0.029c-10.558-0.129-57.365-1.271-65.641-1.374c-8.273-0.101-47.932-0.588-54.779-0.672
            c-6.848-0.083-33.678,0.441-37.102,0.4c-3.424-0.043-7.133-0.089-7.133-0.089l0.119-9.7c0,0,13.304-14.39,18.202-18.324
            c4.899-3.936,24.821-22.812,27.416-25.062c2.597-2.251,14.702-12.087,14.702-12.087s-1.615-31.122-1.538-37.399
            c0.077-6.277-1.446-45.103-1.38-50.524C75.274,48.589,76.219,41.468,76.219,41.468z"/>
        <path d="M78.651,141.979c0.494,0.006,26.656,0.162,34.882,0.43c8.225,0.264,45.766,0.395,53.334,0.486c7.569,0.094,41.971-0.8,46.908-0.738
            c4.936,0.06,12.669,0.154,12.669,0.154"/>
        <path d="M17.805,197.406c0.924,0.278,39.591,0.42,50.947,0.396c11.354-0.024,46.23,0.731,54.127,0.827c7.898,0.098,85.577,0.247,96.6,0.382
            c11.024,0.136,46.16,0.334,50.271,0.385c4.11,0.051,12.563-0.153,12.563-0.153"/>
        <path d="M135.244,183.645c0,0-2.028,4.253-2.868,5.559c-0.838,1.306-1.857,3.927-1.857,3.927s13.495,0.658,18.105,0.716
            c4.611,0.057,9.722-0.375,14.825-0.312c5.1,0.062,12.003,0.804,11.843,0.309c-0.157-0.494-3.717-5.477-4.2-6.305
            c-0.485-0.828-2.267-2.99-2.267-2.99s-10.04-0.122-14.32-0.175C150.222,184.321,135.244,183.645,135.244,183.645z"/>
        <path d="M135.383,199.115c0,0-0.186,1.805-0.028,2.302c0.159,0.496,0.147,1.482,0.147,1.482s9.71,0.447,13.499,0.494
            c3.786,0.046,7.573,0.092,10.537,0.129c2.963,0.036,7.245-0.24,8.726-0.221c1.481,0.018,5.104-0.103,5.104-0.103l0.044-3.618"/>
        <path d="M78.766,146.09c0,0-10.984,10.067-14.648,13.644c-3.664,3.575-9.321,8.605-10.326,10.075c-1.006,1.469-5.833,6.018-5.833,6.018
            l-0.844,1.634l0.606,4.287c0,0,24.847,0.141,28.795,0.189c3.948,0.048,56.632-1.939,65.359-1.832
            c8.727,0.106,51.342,1.288,59.403,1.386c8.063,0.1,31.77-0.76,37.197-0.53c5.426,0.23,12.674-0.339,12.674-0.339l-0.281-3.787
            c0,0-14.936-16.638-15.743-17.965c-0.807-1.326-9.233-11.961-9.233-11.961s-39.332,0.34-46.737,0.248
            c-7.403-0.09-42.983,1.118-49.236,0.878c-6.251-0.24-30.918-1.53-33.714-1.563C93.407,146.436,78.766,146.09,78.766,146.09z"/>
        <path d="M47.771,177.634c0,0,19.9,0.901,27.802,0.671c7.902-0.232,33.26-1.567,38.689-1.5c5.429,0.065,35.244-1.214,43.315-1.115
            c8.063,0.099,32.077,0.888,43.43,1.027s25.837-0.014,31.924,0.062c6.086,0.075,17.11,0.21,17.11,0.21"/>
        <path d="M219.47,147.322c-0.006,0.493,6.928,12.098,8.211,14.747c1.284,2.646,5.815,8.793,5.815,8.793l1.908,5.617"/>
        <path d="M210.75,147.215c0.153,0.989,3.768,14.855,5.049,17.669c1.283,2.813,4.47,11.245,4.47,11.245"/>
        <path d="M201.862,147.436c-0.015,1.15,4.091,15.188,4.882,17.831c0.791,2.644,3.157,10.9,3.157,10.9"/>
        <path d="M201.007,176.717c0,0-4.223-17.824-5.333-21.295c-1.111-3.47-2.372-7.928-2.372-7.928"/>
        <path d="M184.91,147.557c0,0,3.943,14.036,4.094,15.025c0.153,0.987,3.619,13.537,3.619,13.537"/>
        <path d="M174.214,147.59c-0.009,0.656,3.492,10.409,4.118,13.051c0.624,2.641,4.254,15.355,4.254,15.355"/>
        <path d="M166.152,147.492c0,0,1.635,14.333,1.78,15.981c0.142,1.647,2.155,12.04,2.155,12.04"/>
        <path d="M157.258,147.875c0,0,0.177,12.511,0.154,14.318c-0.022,1.811,0.83,12.847,0.83,12.847"/>
        <path d="M146.875,148.405c0,0-0.166,13.494-0.178,14.479c-0.012,0.987-0.151,12.339-0.151,12.339"/>
        <path d="M138.635,148.8c0,0-0.131,10.694-0.144,11.683c-0.013,0.986-0.677,14.964-0.677,14.964"/>
        <path d="M132.051,148.556c0,0-0.113,9.376-0.292,10.361c-0.177,0.985-2.182,16.925-2.182,16.925"/>
        <path d="M121.016,176.229c0,0,2.495-15.601,2.686-17.739c0.191-2.137,1.111-10.189,1.111-10.189"/>
        <path d="M116.758,147.709c0,0-2.43,10.336-2.967,13.784c-0.536,3.45-2.98,14.94-2.98,14.94"/>
        <path d="M98.793,176.777c0.176-0.82,6.449-15.884,6.965-17.685c0.516-1.805,3.594-11.312,3.594-11.312"/>
        <path d="M101.954,147.197c-0.499,0.488-6.094,13.912-7.107,16.039c-1.014,2.126-6.09,13.584-6.09,13.584"/>
        <polyline points="75.909,177.648 87.169,158.536 93.401,146.929 "/>
        <path d="M86,146.51c-0.842,1.634-14.881,19.235-15.553,20.379c-0.672,1.142-7.375,10.934-7.375,10.934"/>
        <path d="M54.616,169.653c1.971,0.354,36.87-0.699,43.286-0.621c6.417,0.079,39.173-0.341,44.608-0.438
            c5.437-0.098,53.328,0.158,60.404,0.245s20.072,0.412,25.338,0.478c5.263,0.063,15.138,0.02,15.138,0.02"/>
        <path d="M237.714,162.52c0,0-44.261-0.376-52.487-0.478c-8.228-0.101-41.143-0.998-47.722-1.571c-6.581-0.575-42.469,0.793-47.239,0.57
            c-4.77-0.222-16.949-0.044-18.595-0.064c-1.644-0.021-8.062-0.099-8.062-0.099"/>
        <path d="M71.606,152.913c0.658,0.008,36.037,0.112,42.782,0.195s41.148,0.834,51.024,0.955c9.872,0.121,41.462,0.674,45.905,0.399
            c4.447-0.274,7.41-0.402,10.043-0.371c2.634,0.033,9.219-0.215,9.219-0.215"/>
    </g>
    <g stroke="#FFFFFF" fill="none" stroke-width="2" stroke-linecap="round" stroke-linejoin="round" stroke-miterlimit="10">
        <path d="M94.5,59.729c2.42,0.833,6.375,0.032,9.057,0c3.15-0.038,6.272-0.25,9.438-0.25c5.695,0,11.658,1.067,17.255,0.75"/>
        <path d="M106.5,66.293c1.824,0.852,4.97,0.25,6.975,0.25c3.96,0,7.921,0,11.882,0c7.594,0,15.188,0,22.782,0
            c6.376,0,12.565,0.167,18.855,0.769c4.093,0.391,8.896,0.699,13.006,0.481"/>
        <path d="M106.25,75.125c1.919,0.754,4.924,0.287,7.003,0.263c4.569-0.051,9.194-0.231,13.75-0.562c7.762-0.563,16.012-1.52,23.762-0.519
            c7.826,1.011,15.831,1.3,23.735,1.318"/>
        <path d="M107,82.868c4.346,1.295,10.221-0.189,14.729-0.256c3.531-0.053,7.028-0.373,10.551-0.494c6.534-0.224,13.104-0.137,19.623-0.444
            c5.752-0.271,11.727,0.848,17.347,0.444"/>
        <path d="M94.5,89.652c2.322,0.836,5.539,0.039,8.032-0.013c3-0.062,6.011,0.006,9.013,0.013c4.068,0.009,8.114-0.25,12.188-0.25
            c5.839,0,11.678,0,17.517,0"/>
        <path d="M108,96.738c4.495,1.384,11.115-0.052,15.829-0.194c4.821-0.146,9.636-0.181,14.457-0.36c6.838-0.254,13.618-0.191,20.465,0.305"/>
        <path d="M108.25,104.871c2.219,0.607,4.895,0.176,7.22,0.068c4.719-0.218,9.438-0.176,14.154-0.367c5.123-0.208,10.225-0.761,15.344-1.013
            c6.664-0.327,13.355-0.188,20.033-0.188"/>
        <path d="M108.25,111.193c4.294,1.276,10.516,0.445,15.172,0.5c3.067,0.036,7.24,0.735,10.078-0.25"/>
        <path d="M95,117.973c7.104,0,14.151,0.25,21.25,0.25"/>
        <path d="M109,124.229c4.24,1.393,10.338,0.25,14.759,0.25c3.778,0,7.556,0,11.334,0c4.469,0,8.938,0,13.407,0"/>
    </g>
</svg>
