<?xml version="1.0" encoding="UTF-8" standalone="no"?>
<svg
   xmlns:dc="http://purl.org/dc/elements/1.1/"
   xmlns:cc="http://creativecommons.org/ns#"
   xmlns:rdf="http://www.w3.org/1999/02/22-rdf-syntax-ns#"
   xmlns:svg="http://www.w3.org/2000/svg"
   xmlns="http://www.w3.org/2000/svg"
   viewBox="0 0 944.88135 1133.8586"
   height="1133.8586"
   width="944.88135"
   xml:space="preserve"
   id="svg2"
   version="1.1"><metadata
     id="metadata8"><rdf:RDF><cc:Work
         rdf:about=""><dc:format>image/svg+xml</dc:format><dc:type
           rdf:resource="http://purl.org/dc/dcmitype/StillImage" /></cc:Work></rdf:RDF></metadata><defs
     id="defs6"><clipPath
       id="clipPath18"
       clipPathUnits="userSpaceOnUse"><path
         id="path16"
         d="M 0,850.394 H 708.661 V 0 H 0 Z" /></clipPath></defs><g
     transform="matrix(1.3333333,0,0,-1.3333333,0,1133.8587)"
     id="g10"><g
       id="g12"><g
         clip-path="url(#clipPath18)"
         id="g14"><g
           transform="translate(356.1136,209.2173)"
           id="g20"><path
             id="path22"
             style="fill:#980000;fill-opacity:1;fill-rule:nonzero;stroke:none"
             d="m 0,0 c 0,0 -9.68,2.199 -12.186,2.873 -2.507,0.674 -3.531,0.462 -3.531,4.701 v 19.45 H 5.304 Z" /></g><g
           transform="translate(251.6093,183.6298)"
           id="g24"><path
             id="path26"
             style="fill:#E32D22;fill-opacity:1;fill-rule:nonzero;stroke:none"
             d="m 0,0 104.504,25.587 14.178,3.706 171.659,-38.358 0.266,-3.85 -11.593,-2.626 -105.859,-38.168 -24.966,-5.322 -152.988,53.568 z" /></g><g
           transform="translate(544.5901,227.6386)"
           id="g28"><path
             id="path30"
             style="fill:#FFF5F0;fill-opacity:1;fill-rule:nonzero;stroke:none"
             d="M 0,0 -181.729,-3.556 -200.855,0 V 509.88 H 0 Z" /></g><g
           transform="translate(359.0056,223.2537)"
           id="g32"><path
             id="path34"
             style="fill:#FF8A5F;fill-opacity:1;fill-rule:nonzero;stroke:none"
             d="m 0,0 189.487,40.751 2.278,-89.419 -25.284,-3.927 z" /></g><g
           transform="translate(554.1019,737.5183)"
           id="g36"><path
             id="path38"
             style="fill:#980000;fill-opacity:1;fill-rule:nonzero;stroke:none"
             d="m 0,0 c -13.081,-2.351 -81.936,-4.69 -100.738,-5.683 -19.076,-1.008 -38.153,-2.016 -57.229,-3.024 -14.791,-0.782 -29.583,-1.563 -44.374,-2.345 -5.947,-0.314 -8.485,-0.627 -14.432,-0.941 v 7.835 c 0,2.785 0.03,5.458 -0.121,8.235 -0.072,1.337 -0.005,2.716 0.526,3.946 0.613,1.422 1.827,2.459 3.391,2.53 1.303,0.059 2.607,0.119 3.911,0.178 3.785,0.173 7.57,0.345 11.355,0.518 5.112,0.233 10.224,0.466 15.336,0.699 6.147,0.28 12.295,0.56 18.442,0.841 6.892,0.314 13.783,0.628 20.674,0.942 7.343,0.335 14.687,0.67 22.03,1.005 7.505,0.342 15.009,0.684 22.513,1.026 7.373,0.336 14.746,0.672 22.119,1.008 6.951,0.317 13.901,0.634 20.852,0.951 6.237,0.284 12.473,0.569 18.709,0.853 5.231,0.238 10.462,0.477 15.693,0.715 3.933,0.18 7.867,0.359 11.8,0.538 2.345,0.107 4.689,0.214 7.034,0.321 0.54,0.025 1.081,0.049 1.622,0.074 0,0 6.714,-7.331 6.002,-14.055 C 5.084,5.876 3.755,2.437 3.569,2.21 3.369,1.966 3.044,1.872 2.739,1.791 0.292,1.147 2.462,0.442 0,0" /></g><g
           transform="translate(162.6512,743.8339)"
           id="g40"><path
             id="path42"
             style="fill:#d6d6d6;fill-opacity:1;fill-rule:nonzero;stroke:none"
             d="m 0,0 190.878,-16.687 5.985,-503.893 -2.721,-1.623 L 0.61,-567.308 Z" /></g><g
           transform="translate(162.6631,743.8339)"
           id="g44"><path
             id="path46"
             style="fill:#E32D22;fill-opacity:1;fill-rule:nonzero;stroke:none"
             d="m 0,0 h -7.68 c -1.871,0 -2.006,-0.671 -2.006,-3.456 0,-2.784 3.571,-449.797 3.571,-449.797 H 0.61 Z" /></g><g
           transform="translate(332.5054,708.1059)"
           id="g48"><path
             id="path50"
             style="fill:#FFF5F0;fill-opacity:1;fill-rule:nonzero;stroke:none"
             d="m 0,0 c -17.149,1.663 -34.298,3.325 -51.447,4.988 -8.574,0.831 -17.149,1.663 -25.723,2.494 -7.179,0.696 -12.709,2.143 -19.9,1.396 -1.125,-0.276 -2.467,-0.927 -2.425,-2.084 0.046,-1.25 1.617,-1.744 2.857,-1.899 14.893,-1.868 29.804,-3.585 44.731,-5.151 7.464,-0.783 14.931,-1.528 22.402,-2.235 4.096,-0.387 15.726,-1.555 22.778,-2.434 4.462,-0.556 4.795,-2.107 5.153,-3.065 0.081,-0.218 0.084,-2.897 0.036,-7.176 -0.17,-15.49 0.464,-181.744 1.794,-223.81 0.025,-0.784 2.027,5.508 2.778,5.281 1.172,-0.354 1.781,1.355 1.791,2.579 C 5.236,-177.667 4.668,-20.96 4.679,-7.26 4.684,-1.012 2.423,-0.235 0,0" /></g><g
           transform="translate(324.3519,243.1974)"
           id="g52"><path
             id="path54"
             style="fill:#FFF5F0;fill-opacity:1;fill-rule:nonzero;stroke:none"
             d="m 0,0 c -4.681,-1.822 -8.399,-2.546 -10.7,-3.723 -1.276,-0.653 -2.138,-2.059 -1.334,-2.985 1.465,-1.687 10.664,0.95 17.346,3.36 4.37,1.576 6.585,3.424 6.585,7.974 0,5.749 1.062,127.884 1.062,139.06 0,5.589 0.017,10.073 -2.64,10.078 C 7.864,153.769 6.503,150.51 6.503,140.315 6.503,124.07 6.499,29.476 6.76,16.226 6.76,1.809 4.531,1.764 0,0" /></g><g
           transform="translate(576.1404,451.0636)"
           id="g56"><path
             id="path58"
             style="fill:#FF8A5F;fill-opacity:1;fill-rule:nonzero;stroke:none"
             d="m 0,0 c -0.008,-0.008 -0.016,-0.016 -0.024,-0.024 -0.099,-0.106 -0.145,-0.249 -0.18,-0.389 -0.201,-0.809 -0.131,-1.693 -0.131,-2.523 v -2.304 -5.45 -5.496 -4.248 -1.705 c 0.436,-0.036 0.872,-0.072 1.308,-0.108 1.39,-0.115 2.78,-0.229 4.17,-0.344 l 5.674,-0.469 c 1.922,-0.159 3.775,-1.213 5.697,-1.372 0.825,-0.068 1.65,-0.136 2.475,-0.204 0.997,-0.083 2.027,-0.079 2.87,0.558 0.247,0.186 0.467,0.416 0.632,0.678 0.118,0.188 0.09,0.341 0.08,0.554 -0.068,1.452 -0.068,3.8 -0.135,5.252 -0.085,1.822 -0.17,3.643 -0.255,5.465 -0.084,1.793 -0.167,3.587 -0.251,5.38 -0.064,1.368 -0.128,2.735 -0.192,4.103 -0.018,0.4 -0.037,0.8 -0.056,1.2 -0.005,0.099 0.031,0.346 -0.021,0.434 l -1.777,0.111 c -1.408,0.087 -2.817,0.175 -4.225,0.262 -1.8,0.112 -3.601,0.224 -5.401,0.336 C 8.488,-0.192 6.719,-0.082 4.949,0.028 3.52,0.117 2.074,0.281 0.651,0.194 0.421,0.18 0.167,0.156 0,0" /></g><g
           transform="translate(571.1364,457.1403)"
           id="g60"><path
             id="path62"
             style="fill:#767676;fill-opacity:1;fill-rule:nonzero;stroke:none"
             d="m 0,0 v 6.166 c 0,1.406 -0.127,2.887 -0.015,4.282 0.162,2.013 2.213,1.565 3.58,1.479 l 4.526,-0.284 c 3.818,-0.239 7.636,-0.478 11.454,-0.718 3.466,-0.217 6.932,-0.435 10.397,-0.652 1.088,-0.065 2.176,-0.078 3.224,-0.391 0.969,-0.289 0.719,-1.773 0.719,-2.307 0,-0.864 -0.037,-2.849 -0.037,-3.713 0,-1.726 -0.206,-3.028 -0.206,-4.754 0,-0.524 -2.53,-2.265 -3.816,-2.156 -1.651,0.142 -3.302,0.283 -4.953,0.424 -3.989,0.341 -7.978,0.681 -11.967,1.022 C 9.562,-1.316 6.218,-1.03 2.874,-0.744 2.473,-0.71 2.069,-0.683 1.665,-0.654 1.108,-0.613 0,-0.025 0,0" /></g><g
           transform="translate(586.7657,443.403)"
           id="g64"><path
             id="path66"
             style="fill:#E32D22;fill-opacity:1;fill-rule:nonzero;stroke:none"
             d="m 0,0 c -1.017,0.121 -4.532,-0.966 -4.666,-3.892 -0.135,-2.926 2.248,-4.211 4.318,-4.39 1.857,-0.16 2.085,0.907 2.806,1.467 0.809,0.628 0.87,1.595 0.88,2.47 C 3.364,-2.201 3.899,-0.466 0,0" /></g><g
           transform="translate(586.9172,435.1051)"
           id="g68"><path
             id="path70"
             style="fill:#980000;fill-opacity:1;fill-rule:nonzero;stroke:none"
             d="M 0,0 C 0.623,-0.048 2.244,0.397 2.757,0.73 3.535,1.237 4.756,2.035 4.639,4.575 4.55,6.52 2.926,8.443 -0.152,8.298 2.358,6.803 2.079,1.033 0,0" /></g><g
           transform="translate(580.9387,465.0726)"
           id="g72"><path
             id="path74"
             style="fill:#d6d6d6;fill-opacity:1;fill-rule:nonzero;stroke:none"
             d="m 0,0 c 0.95,0.276 2.145,0.454 2.891,-0.067 0.586,-0.409 0.638,-1.076 0.831,-1.659 0.193,-0.584 0.782,-1.227 1.571,-1.134 0.303,0.036 0.562,0.177 0.811,0.312 0.925,0.504 1.896,0.988 2.99,1.233 1.095,0.245 2.343,0.225 3.309,-0.234 0.904,-0.429 1.442,-1.17 2.095,-1.806 0.654,-0.637 1.603,-1.23 2.665,-1.138 0.819,0.07 1.468,0.527 2.132,0.896 0.664,0.369 1.686,0.823 2.29,0.404 0.603,-0.419 -0.066,-1.125 -0.637,-1.54 -0.658,-0.479 -1.334,-0.967 -2.168,-1.251 -0.833,-0.284 -1.869,-0.331 -2.625,0.058 -0.393,0.202 -0.678,0.502 -1.045,0.732 -1.011,0.633 -2.647,0.601 -3.613,-0.071 C 11.012,-5.602 10.705,-6.058 10.263,-6.427 9.485,-7.075 8.275,-7.405 7.125,-7.311 6.93,-7.295 6.52,-7.326 6.643,-6.754 6.789,-6.073 6.626,-5.329 5.839,-5.05 5.283,-4.854 4.63,-4.997 4.047,-5.142 3.482,-5.283 2.917,-5.424 2.352,-5.565 1.935,-5.669 1.474,-5.772 1.07,-5.643 c -1.043,0.332 -0.503,1.61 -1.189,2.288 -0.535,0.528 -1.63,0.491 -2.428,0.208 -0.798,-0.283 -1.472,-0.751 -2.305,-0.971 -0.676,-0.178 -1.839,-0.183 -1.82,0.477 0.013,0.474 1.441,1.22 1.88,1.499 C -3.367,-1.235 -1.741,-0.506 0,0" /></g><g
           transform="translate(385.7157,208.2314)"
           id="g76"><path
             id="path78"
             style="fill:#767676;fill-opacity:1;fill-rule:nonzero;stroke:none"
             d="m 0,0 c 0.305,0.181 0.588,-0.001 0.694,-0.255 5.492,2.69 12.002,2.71 18.005,2.66 7.366,-0.062 12.81,-2.739 20.175,-2.914 C 42.712,-0.6 94.756,-3.256 97.658,-3.461 66.396,2.268 21.553,11.002 -9.488,17.832 c -9.444,2.078 -19.943,-4.433 -19.943,-4.433 0,0 1.786,-11.04 6.738,-12.624 5.985,-1.914 11.935,-3.674 17.862,-5.309 C -3.484,-2.763 -1.948,-1.157 0,0" /></g><g
           transform="translate(554.0861,193.1343)"
           id="g80"><path
             id="path82"
             style="fill:#980000;fill-opacity:1;fill-rule:nonzero;stroke:none"
             d="m 0,0 c -24.443,3.683 -48.833,7.721 -73.166,12.074 -3.614,0.347 -7.226,0.727 -10.843,1.013 -3.844,0.305 -35.738,2.398 -45.777,3.29 -7.121,0.633 -14.301,0.119 -21.45,0.134 -6.122,0.013 -12.731,-0.232 -18.012,-3.709 -0.204,-0.134 -0.402,-0.093 -0.541,0.029 -0.877,-0.765 -1.659,-1.629 -2.379,-2.549 53.482,-14.629 105.024,-18.802 161.185,-26.774 0.784,-0.111 1.61,-0.22 2.35,0.065 0.765,0.295 1.313,0.963 1.824,1.603 C -3.333,-10.472 0.332,-5.56 0,0" /></g><g
           transform="translate(530.6234,168.0893)"
           id="g84"><path
             id="path86"
             style="fill:#4A1011;fill-opacity:1;fill-rule:nonzero;stroke:none"
             d="m 0,0 -174.51,41.128 0.171,12.413 203.367,-41.409 z" /></g><g
           transform="translate(363.0231,221.6305)"
           id="g88"><path
             id="path90"
             style="fill:#767676;fill-opacity:1;fill-rule:nonzero;stroke:none"
             d="M 0,0 H -6.739 L -10,505.563 l 7.803,-0.229 z" /></g><g
           transform="translate(572.1591,455.4908)"
           id="g92"><path
             id="path94"
             style="fill:#FF8A5F;fill-opacity:1;fill-rule:nonzero;stroke:none"
             d="m 0,0 c 9.532,-0.809 19.064,-1.619 28.596,-2.428 0.986,-0.084 2.013,-0.163 2.938,0.193 0.385,0.148 0.752,0.379 0.979,0.723 0.228,0.346 0.296,0.77 0.346,1.181 0.239,1.939 0.227,3.907 -0.034,5.843 C 32.785,1.506 32.107,0.493 31.288,-0.137 30.341,-0.866 27.695,-0.434 26.316,-0.364 21.768,-0.135 18.982,-0.038 15.182,0.349 11.387,0.736 7.291,1.063 3.484,1.317 3.436,1.32 3.388,1.323 3.34,1.326 2.255,1.397 0.648,1.549 -1.023,1.65 -1.023,0.131 -0.4,0.034 0,0" /></g><g
           transform="translate(597.804,450.0515)"
           id="g96"><path
             id="path98"
             style="fill:#767676;fill-opacity:1;fill-rule:nonzero;stroke:none"
             d="m 0,0 v -1.527 -3.835 -5.027 -5.105 c 0,-1.357 -0.068,-3.609 -0.068,-4.966 0,-0.148 0.018,-0.283 -0.003,-0.433 -0.022,-0.154 -0.043,-0.308 -0.064,-0.462 -0.019,-0.132 -0.038,-0.266 -0.088,-0.391 -0.122,-0.301 -0.418,-0.504 -0.731,-0.591 -0.435,-0.122 -0.89,-0.046 -1.333,-0.038 -0.486,0.008 -0.971,0.017 -1.457,0.026 -1.565,0.028 -16.616,1.193 -17.64,1.211 l -0.614,0.011 c 0.058,-0.001 0.249,-0.325 0.3,-0.374 0.14,-0.136 0.278,-0.284 0.424,-0.416 0.507,-0.456 16.356,-1.808 17.952,-1.862 1.037,0 2.066,-0.12 3.096,-0.079 0.251,0.01 0.508,0.031 0.734,0.14 0.66,0.315 0.514,1.174 0.522,1.778 0.007,0.637 0.015,1.275 0.023,1.913 0.021,1.641 0.109,4.177 0.129,5.818 0.022,1.788 0.044,3.577 0.066,5.365 0.018,1.527 0.037,3.055 0.055,4.582 0.01,0.858 0.022,1.716 0.029,2.574 10e-4,0.062 0.002,0.124 0.002,0.186 0,0.617 -0.239,0.98 -0.606,1.155 C 0.36,-0.172 0,0 0,0" /></g><g
           transform="translate(402.5966,121.0998)"
           id="g100"><path
             id="path102"
             style="fill:#FF8A5F;fill-opacity:1;fill-rule:nonzero;stroke:none"
             d="m 0,0 c 6.505,0.06 8.676,1.73 14.962,3.404 21.241,5.658 56.102,18.47 85.509,29.119 9.358,3.389 18.155,6.581 25.802,9.209 2.202,0.757 1.754,2.118 1.754,5.257 C 124.166,46.518 43.2,16.825 19.938,12.049 13.349,10.696 4.594,8.095 -2.094,8.821 c -1.901,0.206 -3.84,0.981 -5.657,1.53 -4.039,1.218 -8.058,2.506 -12.073,3.8 -5.618,1.81 -11.226,3.65 -16.831,5.502 -6.648,2.197 -13.29,4.412 -19.928,6.638 -7.126,2.389 -14.248,4.792 -21.366,7.205 -7.052,2.391 -14.101,4.792 -21.146,7.205 -6.426,2.201 -12.848,4.411 -19.266,6.637 -5.101,1.77 -10.208,3.527 -15.301,5.322 -4.923,1.735 -9.982,3.335 -14.738,5.497 -0.908,0.412 -1.85,0.851 -2.47,1.632 -0.62,0.781 -0.796,2.011 -0.117,2.741 -7.372,-1.551 -7.011,-4.222 -7.211,-5.667 -0.209,-1.505 -0.373,-3.367 0.563,-4.684 0.932,-1.312 2.775,-1.828 4.229,-2.286 7.969,-2.509 15.835,-5.35 23.738,-8.06 6.705,-2.3 13.413,-4.595 20.123,-6.882 7.723,-2.633 15.449,-5.256 23.18,-7.865 8.025,-2.709 16.055,-5.404 24.092,-8.077 7.611,-2.53 15.229,-5.042 22.859,-7.515 6.48,-2.1 12.969,-4.177 19.479,-6.182 4.631,-1.426 9.271,-2.841 13.956,-4.078 C -4.102,0.739 -1.969,-0.033 0,0" /></g><g
           transform="translate(515.197,399.0293)"
           id="g104"><path
             id="path106"
             style="fill:#4A1011;fill-opacity:1;fill-rule:nonzero;stroke:none"
             d="m 0,0 c -3.136,-5.299 -5.276,-13.423 -9.382,-18.012 -2.742,-3.064 -13.307,-12.586 -12.763,-16.144 1.218,-7.981 14.797,-14.313 24.862,-15.255 0.793,-0.074 1.768,-0.247 2.557,-0.033 0.865,0.235 1.702,0.846 2.492,1.262 0.68,0.358 1.364,0.72 1.966,1.199 0.558,0.445 1.075,1.126 0.885,1.815 -0.066,0.242 -0.215,0.452 -0.368,0.651 -1.357,1.761 -3.287,2.988 -5.267,4 -0.855,0.438 -1.732,0.845 -2.655,1.119 -0.294,0.087 -0.693,0.088 -0.965,0.218 -0.333,0.159 -0.559,0.569 -0.784,0.848 -1.231,1.534 -2.419,3.103 -3.56,4.705 -2.269,3.186 -2.102,5.963 -0.893,9.549 2.22,6.585 8.04,13.038 11.78,18.854 2.132,3.276 5.248,8.043 2.393,11.795 C 5.719,12.588 3.07,5.413 1.045,1.812 0.704,1.204 0.355,0.6 0,0" /></g><g
           transform="translate(505.0075,333.4642)"
           id="g108"><path
             id="path110"
             style="fill:#767676;fill-opacity:1;fill-rule:nonzero;stroke:none"
             d="m 0,0 c -2.794,-2.4 -5.92,-6.127 -7.491,-9.459 -1.865,-3.956 -1.556,-8.502 0.4,-12.414 3.329,-6.658 13.255,-6.765 18.106,-12.411 3.102,-3.611 14.601,-39.019 14.601,-39.019 0,0 2.432,7.798 5.612,4.583 1.065,-1.077 9.844,-7.498 9.774,-8.302 2.491,28.846 3.006,58.05 -1.746,86.611 C 36.629,25.38 25.254,23.626 14.465,23.069 14.465,11.272 6.97,5.987 0,0" /></g><g
           transform="translate(482.8264,200.3898)"
           id="g112"><path
             id="path114"
             style="fill:#767676;fill-opacity:1;fill-rule:nonzero;stroke:none"
             d="m 0,0 c -0.745,-5.536 -4.525,-13.589 0.125,-16.813 5.163,-3.578 20.191,-0.162 25.196,2.477 3.048,1.606 5.681,3.891 8.17,6.273 1.75,1.676 3.507,3.516 4.165,5.847 C 38.338,0.2 37.739,2.771 37.14,5.209 34.509,15.906 31.525,28.04 28.894,38.737 27.241,45.458 -1.929,79.886 0.461,59.819 2.825,39.966 2.665,19.815 0,0" /></g><g
           transform="translate(380.2155,164.8966)"
           id="g116"><path
             id="path118"
             style="fill:#767676;fill-opacity:1;fill-rule:nonzero;stroke:none"
             d="m 0,0 c 1.801,0.417 3.568,0.984 5.275,1.704 5.704,2.404 10.791,6.469 16.849,8.013 5.685,1.448 12.404,0.715 17.599,3.795 4.297,2.548 6.464,8.887 6.972,13.532 0.668,6.11 -1.498,12.097 -2.885,18.085 -2.305,9.945 -3.84,20.03 -6.145,29.975 -0.493,2.13 -1.61,4.766 -3.795,4.666 C 29.34,79.563 26.253,67.747 25.011,64.503 21.753,55.99 16.248,47.026 10.381,40.051 1.13,29.051 -12.67,23.707 -24.685,16.462 c -3.152,-1.9 -6.451,-5.416 -4.921,-8.763 0.556,-1.215 1.66,-2.081 2.767,-2.831 C -19.09,-0.381 -9.1,-2.107 0,0" /></g><g
           transform="translate(426.1675,360.9468)"
           id="g120"><path
             id="path122"
             style="fill:#980000;fill-opacity:1;fill-rule:nonzero;stroke:none"
             d="m 0,0 c -0.182,6.573 4.132,-0.324 4.943,6.202 2.293,18.431 2.838,36.719 4.436,55.237 1.131,13.099 2.57,26.176 3.395,39.297 0.023,0.364 0.04,0.729 0.062,1.093 -0.922,0.818 -1.719,1.851 -2.36,3.168 -4.865,9.994 -3.476,22.706 -5.473,33.427 -17.646,1.466 -24.427,-10.355 -33.485,-22.269 -6.021,-7.918 -14.855,-13.393 -20.498,-21.482 -6.132,-8.789 13.654,-8.491 13.576,-18.74 -0.1,-13.19 -14.608,6.491 -14.494,-6.697 0.5,-57.538 -2.7,-158.608 1.888,-215.959 0.075,-0.947 0.171,-1.946 0.747,-2.713 0.634,-0.844 1.717,-1.232 2.741,-1.56 15.984,-5.121 27.25,-7.186 42.38,0.075 C -0.431,-150.1 0.039,-1.394 0,0" /></g><g
           transform="translate(474.3586,388.9344)"
           id="g124"><path
             id="path126"
             style="fill:#980000;fill-opacity:1;fill-rule:nonzero;stroke:none"
             d="m 0,0 c -1.781,19.08 -5.241,37.653 -7.721,56.678 -1.754,13.456 -3.201,26.955 -5.259,40.37 -0.057,0.373 -0.12,0.745 -0.178,1.117 -1.081,0.634 -2.087,1.511 -3.001,2.708 -6.942,9.081 -8.359,22.2 -12.653,32.608 -17.586,-2.178 -21.64,-15.517 -27.901,-29.42 -4.162,-9.241 -11.609,-16.599 -15.365,-25.935 -4.08,-10.143 0.182,-20.509 -0.115,-31.09 -1.277,-45.482 27.745,-120.804 27.745,-120.804 0,0 35.507,-67.809 44.887,-84.96 2.564,-4.688 12.123,-6.124 17.16,-6.048 5.036,0.075 8.644,0.789 16.365,6.902 1.495,1.184 2.988,2.572 3.474,4.416 0.404,1.529 0.053,3.144 -0.304,4.683 -9.702,41.737 -21.736,58.76 -32.14,100.438 C 4.646,-46.941 0.631,-6.756 0,0" /></g><g
           transform="translate(395.9218,641.9297)"
           id="g128"><path
             id="path130"
             style="fill:#4A1011;fill-opacity:1;fill-rule:nonzero;stroke:none"
             d="m 0,0 c -8.941,-5.645 -12.151,-13.773 -13.408,-23.667 -0.205,-1.612 -0.639,-7.346 3.699,-8.681 -2.336,-6.452 -7.062,-16.294 -8.733,-19.379 -2.065,-3.815 -3.949,-8.445 -2.159,-12.397 1.559,-3.442 5.534,-5.032 9.226,-5.837 7.686,-1.675 15.662,-1.266 23.199,0.926 2.075,0.604 5.575,0.865 7.325,2.191 2.654,2.011 3.182,6.923 3.455,9.955 0.464,5.14 0.429,10.311 0.393,15.473 -0.08,11.549 -0.16,23.098 -0.24,34.648 C 22.725,-2.165 22.489,3.329 17.14,4.093 14.326,4.494 14.803,6.166 11.978,5.501 8.966,4.792 2.662,1.68 0,0" /></g><g
           transform="translate(425.2798,572.5557)"
           id="g132"><path
             id="path134"
             style="fill:#FF8A5F;fill-opacity:1;fill-rule:nonzero;stroke:none"
             d="m 0,0 c 4.863,-0.349 9.405,-4.111 14.181,-5.39 5.39,-1.443 11.017,-2.141 16.164,-4.301 9.885,-4.149 16.525,-13.029 21.76,-21.992 6.833,-11.701 12.114,-24.238 15.679,-37.228 1.351,-4.92 2.463,-10.011 1.872,-15.098 -0.006,-0.05 -12.665,-4.396 -13.953,-5.258 -3.255,-2.18 -5.39,-5.899 -7.252,-9.25 -3.679,-6.622 -2.397,-25.241 -2.397,-25.241 0,0 1.713,-11.564 -0.749,-14.383 -3.926,-4.496 -10.723,-5.014 -16.598,-6.258 -19.134,-4.053 -38.673,-6.275 -58.176,-6.615 -5.977,-0.104 -12.07,-0.012 -17.783,1.521 -6.776,1.818 -4.825,7.15 -6.126,12.657 -1.598,6.766 -5.924,11.483 -9.351,17.394 -0.02,2.397 -2.7,5.961 -3.19,8.577 -1.267,6.761 -2.645,12.034 -8.347,16.847 -0.777,0.656 -1.649,1.355 -1.813,2.336 -0.148,0.889 0.333,1.763 0.791,2.562 6.694,11.659 12.094,23.969 16.091,36.655 3.32,10.54 6.178,20.29 12.266,29.892 1.622,2.558 3.458,5.084 6.017,6.822 2.622,1.78 5.802,2.599 8.695,3.937 2.893,1.338 5.721,3.509 6.298,6.501 0.222,1.15 0.192,2.529 1.197,3.216 0.421,0.287 0.946,0.384 1.453,0.473 7.193,1.268 15.046,3.708 22.342,4.16 C -0.246,2.579 -0.578,0.041 0,0" /></g><g
           transform="translate(432.9228,463.4019)"
           id="g136"><path
             id="path138"
             style="fill:#FF8A5F;fill-opacity:1;fill-rule:nonzero;stroke:none"
             d="m 0,0 c -2.533,-3.266 -3.901,-6.3 -1.573,-10.848 1.632,-3.188 2.538,-6.638 4.239,-9.802 0.87,-1.619 2.75,-7.405 3.967,-8.077 2.17,-1.198 10.684,2.09 13.144,2.67 12.545,2.961 23.622,6.94 33.256,16.13 6.123,5.84 11.086,13.589 12.545,22.029 1.514,8.757 -2.434,17.834 -5.437,28.141 C 57.766,48.397 50.27,52.57 46.035,59.931 39.382,71.493 33.266,83.066 25.252,93.754 23.654,68.812 18.952,43.7 11.283,19.148 9.377,13.046 7.386,8.937 3.334,4.018 2.146,2.575 0.985,1.27 0,0" /></g><g
           transform="translate(351.8025,461.4605)"
           id="g140"><path
             id="path142"
             style="fill:#FF8A5F;fill-opacity:1;fill-rule:nonzero;stroke:none"
             d="m 0,0 c 14.007,-2.417 28.112,-4.369 42.288,-3.851 -1.038,-0.038 9.803,54.826 11.185,59.729 2.646,9.387 4.969,19.3 7.048,28.809 1.085,5.109 4.123,9.318 6.346,13.964 C 56.651,99.282 45.645,97.382 38.192,90.366 34.946,87.311 32.562,83.467 30.339,79.603 25.232,70.727 19.658,61.115 17.294,51.118 15.773,44.688 14.548,38.061 11.568,32.103 10.848,30.663 10.049,29.074 8.993,27.847 7.939,26.623 5.833,26.453 4.262,26.17 c -2.54,-0.459 -5.068,-0.763 -7.648,-0.784 -1.216,-0.01 -2.481,0.141 -3.694,0.189 -0.759,0.029 -1.517,0.069 -2.275,0.114 -6.059,0.361 -12.128,1.095 -18.179,0.626 -0.283,-0.022 -0.577,-0.05 -0.821,-0.195 -0.309,-0.184 -0.486,-0.522 -0.647,-0.843 -0.774,-1.54 -1.548,-3.081 -2.322,-4.622 -0.106,-0.21 -0.215,-0.436 -0.189,-0.671 0.026,-0.227 0.174,-0.42 0.319,-0.597 0.893,-1.092 1.891,-2.098 2.976,-2.999 1.307,-1.084 0.775,-2.601 0.703,-4.15 -0.093,-2.017 -0.186,-4.034 -0.279,-6.051 5.731,-2.219 11.823,-3.326 17.871,-4.42 C -6.621,1.17 -3.313,0.572 0,0" /></g><g
           transform="translate(248.1047,462.6581)"
           id="g144"><path
             id="path146"
             style="fill:#4A1011;fill-opacity:1;fill-rule:nonzero;stroke:none"
             d="M 0,0 10.028,-38.272 73.08,-43.027 56.614,2.59 0.676,5.262 Z" /></g><g
           transform="translate(249.7391,468.6927)"
           id="g148"><path
             id="path150"
             style="fill:#E32D22;fill-opacity:1;fill-rule:nonzero;stroke:none"
             d="M 0,0 9.851,3.638 58.072,15.62 117.22,14.738 54.98,-3.444 2.243,-1.161 Z" /></g><g
           transform="translate(393.8581,630.4999)"
           id="g152"><path
             id="path154"
             style="fill:#E32D22;fill-opacity:1;fill-rule:nonzero;stroke:none"
             d="m 0,0 c -1.604,-3.201 -2.448,-7.001 -2.374,-11.569 0.029,-1.82 0.666,-3.572 0.539,-5.347 -0.163,-2.28 -1.135,-4.663 -2.305,-6.599 -0.313,-0.519 -0.659,-1.032 -0.811,-1.618 -0.148,-0.574 -0.1,-1.179 -0.044,-1.769 0.43,-4.53 0.984,-9.664 2.691,-13.917 1.64,-4.088 3.523,-8.027 6.768,-11.095 1.057,-1 3.014,-1.801 3.819,-2.974 0.632,-0.922 0.972,-2.14 1.059,-4.213 0.007,-0.167 -0.087,-1.853 2.126,-1.85 3.882,0.005 12.115,1.886 17.811,2.606 2.596,0.328 5.237,2.279 7.809,2.766 2.893,0.547 3.244,1.411 4.885,3.508 2.077,2.654 4.86,4.666 7.133,7.155 6.775,7.42 5.644,22.262 3.838,31.352 C 51.238,-4.979 47.026,3.333 40.122,8.713 34.06,13.437 24.883,16.091 17.413,13.335 9.423,10.387 3.2,6.386 0,0" /></g><g
           transform="translate(395.5085,629.7268)"
           id="g156"><path
             id="path158"
             style="fill:#980000;fill-opacity:1;fill-rule:nonzero;stroke:none"
             d="m 0,0 c -0.099,-0.61 -0.174,-1.242 -0.249,-1.896 -0.13,-1.136 -0.295,-2.271 -0.564,-3.383 -0.266,-1.099 -0.763,-2.111 -1.041,-3.21 -0.589,-2.317 -0.646,-4.732 -0.593,-7.11 0.041,-1.794 0.137,-3.666 -0.439,-5.394 -0.714,-2.144 -2.209,-4.684 -2.403,-6.944 -0.48,-5.597 1.655,-11.054 4.167,-16.066 0.482,-0.962 1.022,-1.908 1.752,-2.698 2.053,-2.222 4.888,-2.563 7.703,-2.995 2.703,-0.414 5.459,-0.317 8.181,-0.58 0.782,-0.076 1.716,-0.303 1.953,-1.053 0.224,-0.71 0.102,-1.178 -0.497,-1.478 -0.563,-0.281 -4.412,-0.825 -5.614,-1.008 -0.698,-0.107 -2.294,-0.051 -2.731,-0.759 -0.055,-0.089 -0.066,-0.198 -0.07,-0.302 -0.073,-1.616 1.241,-5.256 1.241,-5.256 0,0 -2.231,-0.285 -3.102,-0.14 -0.149,0.024 -0.306,0.059 -0.414,0.166 -0.112,0.112 -0.145,0.279 -0.172,0.435 -0.29,1.635 -0.579,3.271 -0.868,4.906 -0.016,0.092 -0.036,0.19 -0.101,0.257 -0.058,0.058 -0.14,0.082 -0.219,0.104 -4.417,1.209 -8.614,3.952 -10.957,8.095 -3.867,6.84 -5.554,14.853 -3.434,22.433 0.489,1.75 1.141,3.464 1.406,5.261 0.619,4.188 -0.551,8.353 0.352,12.512 0.807,3.717 2.641,7.066 4.538,10.325 2.435,4.182 7.43,7.526 12.28,7.951 0.347,0.03 -0.612,-1.937 -0.699,-2.058 C 8.879,9.384 8.039,8.879 7.323,8.36 5.933,7.352 4.359,6.529 3.014,5.508 0.993,3.974 0.346,2.122 0,0" /></g><g
           transform="translate(397.8528,641.8325)"
           id="g160"><path
             id="path162"
             style="fill:#4A1011;fill-opacity:1;fill-rule:nonzero;stroke:none"
             d="m 0,0 c -6.276,-5.142 -9.425,-13.802 -10.376,-21.649 -0.391,-3.228 -0.056,-10.06 0.885,-9.555 2.719,1.457 5.414,7.519 6.435,9.73 1.724,3.734 3.031,7.655 4.88,11.33 2.205,4.377 2.316,-2.368 3.648,-5.53 1.565,-3.718 3.415,-7.981 8.34,-12.825 3.566,-3.508 10.524,-5.04 13.55,-3.734 1.073,0.463 3.071,0.077 4.171,-0.622 4.665,-2.963 -0.799,-8.596 -2.362,-11.394 -2.762,-4.945 -4.916,-10.243 -6.428,-15.7 -0.709,-2.559 -1.597,-5.888 0.375,-7.996 2.015,-2.155 5.287,-3.335 8.018,-4.219 5.693,-1.843 12.182,-2.625 17.461,0.193 4.051,2.163 6.881,6.285 7.944,10.753 1.064,4.468 0.467,9.232 -1.178,13.52 -0.798,2.078 -1.842,4.087 -2.229,6.279 -1.014,5.749 2.641,11.704 1.089,17.332 -1.504,5.456 -7.392,8.709 -9.317,14.031 -0.664,1.836 -0.825,3.852 -1.721,5.587 -1.552,3.004 -5.693,5.915 -8.543,7.596 C 29.699,6.042 24.277,7.355 18.907,7.204 12.173,7.015 5.521,4.524 0,0" /></g><g
           transform="translate(428.2937,604.95)"
           id="g164"><path
             id="path166"
             style="fill:#980000;fill-opacity:1;fill-rule:nonzero;stroke:none"
             d="m 0,0 c 0.211,-1.498 -0.681,-3.931 -1.354,-5.447 -0.062,-0.14 -0.119,-0.271 -0.17,-0.392 -0.851,-2.044 -1.779,-5.46 -1.779,-5.46 0,0 1.476,1.527 1.894,2.018 0.833,0.977 1.629,1.988 2.338,3.06 1.263,1.91 2.233,4.291 2.549,6.576 C 3.622,1.395 3.636,2.474 3.312,3.473 2.988,4.472 1.799,5.765 -0.293,5.761 -1.821,5.759 -3.008,5.146 -3.87,4.391 -1.541,3.628 -0.392,2.784 0,0" /></g><g
           transform="translate(455.6583,480.3808)"
           id="g168"><path
             id="path170"
             style="fill:#E32D22;fill-opacity:1;fill-rule:nonzero;stroke:none"
             d="m 0,0 c 7.947,0.78 -0.417,14.556 -1.9,17.662 -2.722,5.697 -6.384,11.585 -11.095,15.666 -1.57,1.36 -3.66,1.754 -2.145,-1.189 3.348,-6.508 8.254,-16.741 9.622,-19.882 1.241,-2.85 1.664,-5.995 2.25,-9.039 0.226,-1.173 0.572,-2.511 1.65,-3.027 0.393,-0.189 0.841,-0.238 1.277,-0.216 C -0.224,-0.019 -0.11,-0.011 0,0" /></g><g
           transform="translate(504.513,379.1502)"
           id="g172"><path
             id="path174"
             style="fill:#E32D22;fill-opacity:1;fill-rule:nonzero;stroke:none"
             d="m 0,0 c 0.021,-0.258 0.033,-0.516 0.031,-0.775 -0.009,-1.357 0.12,-2.642 0.349,-3.981 1.116,-6.514 3.293,-9.426 8.79,-13.754 4.39,-3.457 10.88,-5.501 16.427,-4.48 8.584,1.261 14.055,5.106 17.265,11.959 3.21,6.852 2.848,14.183 1.102,20.897 -2.298,8.84 -8.815,26.58 -24.07,21.29 C 17.33,30.267 14.267,28.983 12.313,27.026 10.87,25.58 10.755,23.956 10.085,22.112 8.938,18.96 7.533,15.91 6.065,12.896 5.338,11.402 4.692,9.766 3.815,8.355 3.002,7.047 1.517,6.011 0.381,4.959 0.038,4.642 -0.32,4.3 -0.436,3.848 -0.514,3.547 -0.474,3.229 -0.432,2.921 -0.297,1.944 -0.081,0.972 0,0" /></g><g
           transform="translate(537.7904,361.9842)"
           id="g176"><path
             id="path178"
             style="fill:#FF8A5F;fill-opacity:1;fill-rule:nonzero;stroke:none"
             d="m 0,0 c 0.072,-3.403 -4.021,-5.748 -6.943,-6.187 -1.177,-0.176 -2.364,-0.284 -3.554,-0.324 -1.551,-0.052 -3.183,0.174 -4.716,0.401 -1.618,0.239 -3.224,0.622 -4.725,1.284 -2.617,1.155 -4.996,3.109 -7.009,5.118 -2.014,2.008 -3.732,4.316 -4.992,6.869 -0.33,0.668 -0.628,1.352 -0.892,2.049 -0.944,2.489 -1.669,5.053 -2.531,7.57 -0.345,1.007 -0.759,1.884 -0.802,2.977 -0.065,1.665 1.516,2.53 2.438,3.68 1.112,1.387 2.007,2.938 2.758,4.547 0.798,1.712 1.436,3.493 2.042,5.28 0.525,1.545 1.608,2.841 2.217,4.379 0.569,1.436 1.244,2.845 2.198,4.07 2.429,3.119 5.811,5.611 9.68,6.425 0.944,0.199 1.998,0.278 2.808,-0.247 3.148,-2.043 -4.119,-4.093 -5.239,-5.004 -2.084,-1.696 -3.652,-3.941 -4.887,-6.307 -0.267,-0.512 -0.463,-1.19 -0.815,-1.642 -0.396,-0.508 -0.984,-0.902 -1.4,-1.414 -0.855,-1.054 -1.511,-2.257 -2.068,-3.491 -1.323,-2.933 -2.032,-6.284 -4.61,-8.427 -0.487,-0.405 -1.021,-0.77 -1.391,-1.283 -0.996,-1.378 0.421,-3.017 0.981,-4.31 0.706,-1.626 1.321,-3.292 2.109,-4.881 1.146,-2.314 2.259,-4.722 3.927,-6.712 2.991,-3.567 7.38,-5.999 12.031,-6.448 C -8.866,-2.464 -4.371,-1.226 0,0" /></g><g
           transform="translate(541.0548,370.3397)"
           id="g180"><path
             id="path182"
             style="fill:#4A1011;fill-opacity:1;fill-rule:nonzero;stroke:none"
             d="m 0,0 c -0.365,3.272 -0.499,5.704 -0.164,8.923 0.366,3.506 0.276,7.055 0.044,10.566 -0.293,4.444 -0.85,8.943 -2.591,13.043 -0.856,2.017 -2.189,3.788 -3.482,5.563 -3.294,4.523 -8.875,4.895 -10.878,4.869 -1.062,-0.014 -2.129,-0.118 -3.21,-0.351 -2.892,-0.625 -5.597,-1.995 -7.945,-3.778 -3.198,-2.429 -5.767,-5.592 -8.022,-8.914 -0.287,-0.423 -0.583,-0.907 -0.493,-1.41 0.067,-0.376 0.337,-0.679 0.603,-0.953 1.408,-1.451 3.004,-2.688 4.731,-3.736 0.622,-0.377 1.127,-0.933 1.76,-1.267 0.912,-0.482 2.136,-0.631 3.152,-0.615 2.933,0.046 5.515,1.835 7.893,3.553 -0.623,-3.642 6.395,-10.788 8.171,-12.937 7.919,-9.583 -9.208,-31.939 -9.208,-31.939 0,0 -0.079,-0.565 0.043,-0.812 0.154,-0.311 0.506,-0.459 0.83,-0.583 3.702,-1.41 8.194,-2.402 12.151,-1.633 4.088,0.779 5.071,4.96 6.009,8.428 C 0.624,-9.443 0.517,-4.637 0,0" /></g><g
           transform="translate(455.2401,269.517)"
           id="g184"><path
             id="path186"
             style="fill:#4A1011;fill-opacity:1;fill-rule:nonzero;stroke:none"
             d="m 0,0 c 3.617,-8.268 7.212,-15.12 11.029,-23.404 -3.581,4.688 -6.271,8.482 -9.852,13.17 -1.939,2.538 -3.881,5.08 -5.583,7.782 -5.523,8.771 -9.47,19.525 -13.66,29.079 -4.335,9.886 -8.311,19.93 -11.918,30.106 -3.027,8.542 -6.138,17.069 -8.588,25.8 -2.224,7.925 -5.767,15.993 -6.397,24.214 2.221,-1.227 3.324,-3.755 4.276,-6.107 5.633,-13.917 11.081,-28.004 17.217,-41.655 3.03,-6.742 5.421,-13.856 8.239,-20.7 C -13.866,34.954 -2.615,5.977 0,0" /></g><g
           transform="translate(304.7191,465.2483)"
           id="g188"><path
             id="path190"
             style="fill:#980000;fill-opacity:1;fill-rule:nonzero;stroke:none"
             d="m 0,0 c 0,0 61.291,17.992 61.86,18.087 0.569,0.095 1.76,0.634 2.32,-1.365 0.561,-1.999 11.297,-40.305 11.297,-40.305 L 9.862,-46.034 Z" /></g><g
           transform="translate(351.4729,465.5393)"
           id="g192"><path
             id="path194"
             style="fill:#FFF5F0;fill-opacity:1;fill-rule:nonzero;stroke:none"
             d="m 0,0 c 0,0 16.694,5.827 16.699,5.828 -0.09,0.242 -0.984,3.453 -1.356,4.76 l -0.517,1.818 c -0.147,0.517 -0.193,1.36 -0.909,1.231 -1.322,-0.239 -2.63,-0.675 -3.928,-1.024 -2.666,-0.717 -5.333,-1.434 -8,-2.152 C 0.779,10.136 -0.266,9.855 -1.476,9.529 -1.696,9.47 0,0 0,0" /></g><g
           transform="translate(312.9639,484.3128)"
           id="g196"><path
             id="path198"
             style="fill:#4A1011;fill-opacity:1;fill-rule:nonzero;stroke:none"
             d="m 0,0 c 0,0 -7.124,-0.05 -10.232,-0.577 -15.552,-2.641 -30.71,-6.714 -46.084,-10.248 -11.765,-2.704 -9.948,-5.468 -8.543,-10.83 1.481,0.217 3.234,0.682 4.422,1.653 0.505,0.413 0.847,0.94 1.351,1.364 0.304,0.256 2.756,1.655 2.756,1.655 0,0 -2.536,0.201 -3.507,0.408 -0.338,0.073 -0.717,0.175 -0.88,0.48 -0.314,0.588 0.441,1.163 1.068,1.391 2.53,0.918 5.169,1.49 7.798,2.06 6.622,1.434 13.243,2.868 19.864,4.302 C -21.266,-6.02 -10.634,-2.788 0,0" /></g><g
           transform="translate(506.5676,397.6986)"
           id="g200"><path
             id="path202"
             style="fill:#980000;fill-opacity:1;fill-rule:nonzero;stroke:none"
             d="m 0,0 c -0.188,0.22 -0.388,0.472 -0.368,0.761 0.015,0.221 0.159,0.41 0.297,0.584 2.275,2.883 4.561,5.778 7.241,8.289 2.679,2.512 6.164,4.853 9.668,5.954 -1.963,0.019 -3.645,-0.444 -5.19,-1.02 C 9.607,13.806 7.565,12.995 5.742,11.803 4.57,11.037 3.503,10.122 2.468,9.18 0.563,7.446 -1.247,5.608 -2.952,3.678 c -0.26,-0.295 -0.53,-0.619 -0.567,-1.01 -0.02,-0.216 0.034,-0.432 0.097,-0.64 0.526,-1.744 1.625,-3.496 3.077,-4.586 2.691,-2.019 6.814,-2.754 6.814,-2.754 0,0 -6.073,4.85 -6.469,5.312" /></g><g
           transform="translate(442.6266,634.3376)"
           id="g204"><path
             id="path206"
             style="fill:#980000;fill-opacity:1;fill-rule:nonzero;stroke:none"
             d="m 0,0 c -0.529,1.456 -1.086,2.913 -1.877,4.246 -1.567,2.642 -4.036,4.659 -6.734,6.128 -2.699,1.468 -5.429,2.491 -8.696,3.293 2.849,-2.233 5.691,-4.637 7.792,-7.584 1.721,-2.414 3.139,-5.896 3.596,-8.932 0.595,-3.958 2.47,-4.701 3.493,-5.543 5.064,-4.17 8.618,-6.71 7.375,-14.775 -0.278,-1.803 -0.717,-4.149 -0.62,-5.97 0.211,-3.971 3.187,-7.158 4.97,-10.712 1.726,-3.441 2.352,-7.424 1.767,-11.229 -0.194,-1.261 -0.516,-2.498 -0.837,-3.732 -0.457,-1.753 -0.914,-3.506 -1.371,-5.259 2.458,2.63 4.047,6.06 4.464,9.636 0.418,3.589 -0.318,7.222 -1.431,10.66 -0.858,2.651 -1.942,5.234 -2.566,7.95 -0.399,1.734 0.098,5.316 0.556,7.042 0.781,2.946 1.4,7.916 -0.447,11.675 C 6.955,-8.061 1.5,-4.128 0,0" /></g><g
           transform="translate(350.221,474.1213)"
           id="g208"><path
             id="path210"
             style="fill:#d6d6d6;fill-opacity:1;fill-rule:nonzero;stroke:none"
             d="m 0,0 c 0.496,-2.319 0.927,-4.664 1.768,-6.88 0.272,-0.716 0.771,-0.696 1.464,-0.522 2.787,0.698 5.538,1.537 8.241,2.511 2.057,0.742 5.67,1.849 6.478,2.137 0.218,-0.772 0.152,-1.178 -0.204,-1.306 C 12.493,-5.945 7.173,-7.648 1.801,-9.165 1.594,-9.224 1.064,-9.367 0.871,-8.819 c -0.648,1.738 -1.825,7.249 -1.925,7.69 -0.037,0.163 -0.074,0.327 -0.11,0.49 -0.077,0.338 -0.184,0.728 -0.063,1.052 0.052,0.14 0.181,0.306 0.435,0.376 0.233,0.065 0.568,0.158 0.568,0.158 0,0 0.214,-0.901 0.224,-0.947" /></g><g
           transform="translate(354.0425,473.5308)"
           id="g212"><path
             id="path214"
             style="fill:#d6d6d6;fill-opacity:1;fill-rule:nonzero;stroke:none"
             d="M 0,0 C 0.614,0.539 1.38,0.532 2.073,0.386 2.459,0.304 2.852,0.192 3.243,0.25 4.171,0.388 4.708,1.392 5.558,1.788 5.991,1.989 6.55,1.922 7.027,1.95 7.364,1.969 8.379,1.948 9.184,2.182 9.989,2.416 10.583,2.904 10.818,2.729 11.288,2.38 10.826,1.493 9.817,1.152 9.243,0.958 7.956,0.755 6.778,0.705 5.059,0.633 5.01,-0.934 3.295,-1.071 2.561,-1.129 1.621,-0.572 0.937,-0.846 0.395,-1.064 -0.151,-2.447 -0.755,-1.709 -0.974,-1.441 -0.454,-0.399 0,0" /></g><g
           transform="translate(355.2945,470.4355)"
           id="g216"><path
             id="path218"
             style="fill:#d6d6d6;fill-opacity:1;fill-rule:nonzero;stroke:none"
             d="M 0,0 C 0.148,0.1 0.302,0.189 0.461,0.267 1.364,0.71 1.994,0.4 2.877,0.531 3.948,0.691 4.441,1.909 5.466,2.173 6.714,2.495 8.3,2.471 9.606,2.593 9.703,2.602 9.805,2.61 9.893,2.569 10.026,2.509 10.092,2.355 10.103,2.21 10.188,1.099 8.311,1.335 7.649,1.203 5.962,0.866 4.644,-0.653 2.929,-0.79 2.195,-0.848 1.423,-0.647 0.74,-0.921 0.103,-1.176 -0.654,-2.081 -1.103,-1.609 -1.551,-1.137 -0.627,-0.423 0,0" /></g><g
           transform="translate(279.7209,466.3307)"
           id="g220"><path
             id="path222"
             style="fill:#980000;fill-opacity:1;fill-rule:nonzero;stroke:none"
             d="m 0,0 c 0,0 11.861,-1.082 17.499,-1.899 2.355,-0.341 7.888,-1.141 8.649,-4.601 0.269,-1.222 1.14,0.005 2.08,-0.821 0.118,-0.104 0.252,-0.209 0.41,-0.215 0.17,-0.007 0.32,0.101 0.454,0.206 1.971,1.536 3.767,3.294 5.347,5.229 0.756,0.926 1.821,2.039 2.284,3.15 0.622,1.496 0.362,1.4 -1.548,0.859 C 33.93,1.555 32.042,1.061 30.385,0.635 28.498,0.15 25.73,-0.257 21.555,-0.198 17.378,-0.139 0,0 0,0" /></g><g
           transform="translate(310.5627,483.8164)"
           id="g224"><path
             id="path226"
             style="fill:#E32D22;fill-opacity:1;fill-rule:nonzero;stroke:none"
             d="M 0,0 C 3.664,0.686 7.456,0.7 11.12,0.01 11.049,1.107 10.101,1.912 9.23,2.581 7.748,3.718 6.218,4.881 4.418,5.379 0.557,6.448 -3.456,4.94 -6.864,3.191 -7.838,2.691 -8.741,2.108 -9.724,1.626 -10.363,1.312 -11.008,0.94 -11.4,0.345 c -0.391,-0.594 -0.446,-1.467 0.055,-1.972 0.319,-0.322 0.788,-0.436 1.236,-0.502 2.943,-0.428 5.868,1.157 8.666,1.823 C -0.965,-0.193 -0.483,-0.09 0,0" /></g><g
           transform="translate(305.9258,482.7758)"
           id="g228"><path
             id="path230"
             style="fill:#980000;fill-opacity:1;fill-rule:nonzero;stroke:none"
             d="m 0,0 c 2.145,0.441 4.18,1.235 6.334,1.629 3.43,0.626 9.371,-0.243 9.371,-0.243 0,0 -8.422,-1.251 -11.022,-2.051 C 3.451,-1.043 0.12,-1.97 -2.519,-1.998 -5.031,-2.024 -6.877,-1.196 -7.127,0.164 -5.193,-1.088 -1.408,-0.29 0,0" /></g><g
           transform="translate(363.0231,482.3181)"
           id="g232"><path
             id="path234"
             style="fill:#E32D22;fill-opacity:1;fill-rule:nonzero;stroke:none"
             d="M 0,0 C 3.052,0.813 4.965,0.219 5.733,-1.817 6.675,-4.312 7.605,-7.393 9.046,-11.656 8.691,-7.867 7.92,-4.371 7.052,-0.748 6.455,1.747 5.491,2.472 -0.421,2.532 -12.675,2.655 -38.256,1.742 -38.256,1.742 -38.256,1.742 -4.199,-1.118 0,0" /></g><g
           transform="translate(355.6773,492.3461)"
           id="g236"><path
             id="path238"
             style="fill:#E32D22;fill-opacity:1;fill-rule:nonzero;stroke:none"
             d="m 0,0 c 5.695,14.619 10.981,27.677 15.882,41.75 2.182,6.267 5.428,13.324 8.906,18.975 C 18.038,53.707 13.179,44.192 9.687,35.101 6.196,26.01 2.759,17.481 -0.951,8.477 -4.297,0.358 -7.26,-5.5 -7.26,-5.5 c 0,0 2.049,-0.173 3.38,-0.173 1.56,0 3.217,3.97 3.88,5.673" /></g><g
           transform="translate(363.4227,435.9695)"
           id="g240"><path
             id="path242"
             style="fill:#4A1011;fill-opacity:1;fill-rule:nonzero;stroke:none"
             d="m 0,0 -1.505,1.664 -23.983,-7.756 -22.284,-5.349 0.618,-5.488 19.383,6.831 z" /></g><g
           transform="translate(404.1983,459.8425)"
           id="g244"><path
             id="path246"
             style="fill:#E32D22;fill-opacity:1;fill-rule:nonzero;stroke:none"
             d="m 0,0 c -2.319,-0.211 -10.129,-0.654 -12.456,-0.646 -5.473,0.018 -10.919,0.403 -16.317,-0.505 0.41,-1.449 0.595,-2.285 1.116,-3.981 3.114,-0.789 7.9,-1.72 9.242,-3.678 1.548,-2.258 -2.295,-4.334 -4.175,-5.095 -2,-0.809 -7.954,-2.142 -11.128,-2.519 -1.698,-0.202 -7.304,-0.062 -8.328,-2.36 -0.121,-0.271 -0.171,-0.641 -0.094,-0.929 0.164,-0.613 0.583,-0.954 0.933,-1.254 0.276,-0.237 1.363,-0.824 0.44,-0.934 -0.8,-0.096 -1.599,-0.275 -2.305,-0.664 -1.591,-0.879 -1.842,-1.717 -1.591,-2.9 0.274,-1.292 1.336,-1.947 1.718,-2.106 -2.125,-1.226 -1.553,-3.759 1.92,-5.189 3.494,-1.439 4.676,-1.516 6.945,-1.92 0.695,-2.002 3.814,-2.391 4.821,-2.492 3.424,-0.343 6.621,0.288 9.854,1.32 5.435,1.734 11.003,4.29 15.799,7.375 2.755,1.772 15.052,12.664 15.052,12.664 L 10.037,1.7 C 10.037,1.7 4.948,0.71 3.32,0.43 2.219,0.24 1.111,0.101 0,0" /></g><g
           transform="translate(376.1706,436.0728)"
           id="g248"><path
             id="path250"
             style="fill:#980000;fill-opacity:1;fill-rule:nonzero;stroke:none"
             d="M 0,0 C 2.375,0.355 4.893,0.684 6.341,2.601 3.205,2.279 0.632,1.967 -2.49,1.532 -5.838,1.066 -11.126,3.111 -11.687,2.059 -11.944,1.578 -11.379,1.081 -10.892,0.836 -9.832,0.303 -2.75,-0.41 0,0" /></g><g
           transform="translate(382.3358,432.0215)"
           id="g252"><path
             id="path254"
             style="fill:#980000;fill-opacity:1;fill-rule:nonzero;stroke:none"
             d="m 0,0 c -1.643,-0.114 -5.456,-1.124 -9.643,-0.957 -3.827,0.153 -8.108,1.505 -8.393,1.011 -0.272,-0.472 0.276,-0.987 0.755,-1.248 C -16.821,-1.444 -7.068,-4.457 0,0" /></g><g
           transform="translate(412.3115,461.115)"
           id="g256"><path
             id="path258"
             style="fill:#980000;fill-opacity:1;fill-rule:nonzero;stroke:none"
             d="m 0,0 c -0.154,1.894 1.368,2.736 2.99,3.279 7.239,2.423 14.547,4.658 21.925,6.788 2.351,0.679 7.631,3.457 8.88,1.477 C 35.045,9.564 21.141,4.739 16.453,2.33 13.76,0.946 8.149,-0.742 6.071,-2.708 5.321,-3.425 5.145,-4.539 5.025,-5.57 4.345,-11.43 6.032,-18.265 5.802,-24.214 5.74,-25.816 5.973,-27.01 4.666,-27.455 3.358,-27.9 2.411,-27.78 1.794,-25.66 -0.296,-18.476 0.466,-5.711 0,0" /></g><g
           transform="translate(552.6619,161.3808)"
           id="g260"><path
             id="path262"
             style="fill:#980000;fill-opacity:1;fill-rule:nonzero;stroke:none"
             d="m 0,0 -22.038,6.708 v 565.186 c 0,1.776 -0.615,2.156 -2.743,2.034 -2.129,-0.122 6.91,3.516 6.91,3.516 L 2.123,577.743 0.559,2.057 Z" /></g><g
           transform="translate(557.9185,162.5612)"
           id="g264"><path
             id="path266"
             style="fill:#FF8A5F;fill-opacity:1;fill-rule:nonzero;stroke:none"
             d="m 0,0 c -2.398,-0.687 -5.257,-1.18 -5.257,-1.18 0,0 -0.031,3.234 -0.089,6.31 -0.099,5.203 -0.205,10.405 -0.298,15.608 -0.185,10.405 -0.336,20.811 -0.405,31.218 -0.167,25.503 0.138,183.981 0.138,237.593 0.013,39.471 1.207,78.903 1.207,118.396 v 132.928 54.306 c 0,0 3.122,-1.259 4.935,-2.194 2.744,-1.414 2.741,-7.717 2.741,-12.416 0,-6.046 -0.752,-250.25 -0.752,-304.371 V 248.142 128.75 39.046 3.916 C 2.22,1.762 1.59,0.456 0,0" /></g><g
           transform="translate(537.2366,349.1424)"
           id="g268"><path
             id="path270"
             style="fill:#E32D22;fill-opacity:1;fill-rule:nonzero;stroke:none"
             d="M 0,0 C 1.053,-0.045 2.124,-0.717 1.706,-1.923 1.665,-2.038 1.61,-2.154 1.617,-2.276 1.634,-2.579 1.983,-2.72 2.245,-2.871 2.883,-3.239 3.214,-4.068 3.004,-4.774 2.788,-5.502 2.085,-6.047 2.005,-6.803 2.585,-7.089 2.914,-7.748 2.95,-8.394 2.985,-9.04 2.77,-9.674 2.497,-10.26 c -1.346,-2.887 -4.019,-4.707 -5.799,-7.263 -0.29,-0.417 -0.573,-0.839 -0.863,-1.257 -1.396,-2.01 -3.093,-3.625 -5.398,-4.54 -0.916,-0.364 -1.865,-0.647 -2.837,-0.818 -1.551,-0.273 -3.163,-0.256 -4.684,0.149 -0.591,0.158 -1.175,0.377 -1.67,0.737 -1.209,0.877 -1.785,2.452 -1.794,3.884 -0.01,1.862 0.176,3.541 0.851,5.299 0.274,0.713 0.577,1.418 0.96,2.079 0.728,1.259 1.725,2.336 2.714,3.402 1.416,1.528 2.806,3.066 4.398,4.412 0.584,0.493 1.179,0.996 1.876,1.324 0.715,0.336 1.516,0.579 2.262,0.86 2.16,0.813 4.345,1.616 6.63,1.945 C -0.585,-0.007 -0.29,0.012 0,0" /></g><g
           transform="translate(531.4381,343.6642)"
           id="g272"><path
             id="path274"
             style="fill:#FF8A5F;fill-opacity:1;fill-rule:nonzero;stroke:none"
             d="m 0,0 c -0.305,-0.21 -0.611,-0.454 -0.752,-0.796 -0.141,-0.343 -0.053,-0.805 0.279,-0.97 0.192,-0.096 0.421,-0.075 0.632,-0.038 0.905,0.158 1.745,0.561 2.571,0.96 0.785,0.378 1.57,0.757 2.356,1.136 C 5.582,0.531 6.085,0.775 6.497,1.14 6.86,1.462 7.871,2.674 7.415,3.202 6.993,3.69 5.735,2.839 5.3,2.613 3.553,1.703 1.634,1.124 0,0" /></g><g
           transform="translate(535.4458,339.2505)"
           id="g276"><path
             id="path278"
             style="fill:#FF8A5F;fill-opacity:1;fill-rule:nonzero;stroke:none"
             d="m 0,0 c -0.083,-0.099 -0.164,-0.2 -0.243,-0.302 -0.28,-0.361 -0.99,-1.151 -0.842,-1.662 0.07,-0.243 0.397,-0.309 0.64,-0.237 0.251,0.074 0.463,0.239 0.664,0.405 0.605,0.498 1.151,0.965 1.604,1.598 0.569,0.796 1.191,1.579 1.633,2.455 0.269,0.533 0.035,1 -0.539,0.659 C 2.556,2.702 2.311,2.335 2.03,2.035 1.372,1.333 0.62,0.74 0,0" /></g><g
           transform="translate(247.3348,471.7313)"
           id="g280"><path
             id="path282"
             style="fill:#FF8A5F;fill-opacity:1;fill-rule:nonzero;stroke:none"
             d="m 0,0 c 0.364,0.163 0.735,0.305 1.108,0.422 1.94,0.613 3.631,1.937 5.364,3.04 1.027,0.654 3.899,2.972 5.052,1.83 C 12.077,4.745 12.008,3.828 11.746,3.095 10.973,0.942 9.003,-0.507 7.18,-1.888 5.622,-3.069 4.019,-4.399 3.258,-6.254 c -0.637,-1.553 0.406,-10.213 0.738,-13.72 0.101,-1.075 -0.237,-0.753 -0.237,-0.753 0,0 -5.481,0.456 -10.025,0.264 -0.835,-0.035 -3.799,4.041 -4.143,4.83 -1.002,2.302 -0.2,2.953 1.2,5.116 1.752,2.707 3.714,5.253 5.662,7.796 0.9,1.176 2.176,2.106 3.547,2.721" /></g><g
           transform="translate(259.7357,476.6519)"
           id="g284"><path
             id="path286"
             style="fill:#E32D22;fill-opacity:1;fill-rule:nonzero;stroke:none"
             d="m 0,0 c -0.189,1.342 -1.583,2.14 -3.786,1.588 -1.626,-0.408 -3.26,-1.271 -3.8,-1.54 -3.037,-1.511 -5.674,-3.669 -8.464,-5.569 -1.83,-1.246 -3.713,-2.559 -4.844,-4.463 -0.817,-1.376 -1.181,-3.223 -0.614,-4.76 0.903,-2.448 1.779,-0.466 2.702,0.828 2.414,3.382 5.156,6.663 8.793,8.779 1.397,0.812 3.479,2.456 5.176,3.575 3.237,2.134 3.634,1.402 3.921,1.119 0.4,-0.394 0.261,-1.382 -0.15,-2.288 C -0.354,-1.893 0.153,-1.089 0,0" /></g><g
           transform="translate(121.9408,110.2246)"
           id="g288"><path
             id="path290"
             style="fill:#767676;fill-opacity:1;fill-rule:nonzero;stroke:none"
             d="M 0,0 C -0.136,-1.261 -0.261,-2.507 -0.384,-3.727 -0.533,-5.209 -0.644,-6.763 0,-8.152 c 0.487,-1.049 1.369,-1.914 2.322,-2.657 5.231,-4.082 12.492,-4.889 19.271,-5.342 9.695,-0.648 19.424,-0.777 29.137,-0.879 4.569,-0.048 8.574,-0.891 13.235,-0.374 5.673,0.628 11.276,1.885 16.671,3.748 4.308,1.486 8.639,3.469 11.569,6.959 2.931,3.49 4.079,8.823 1.634,12.669 -2.417,3.802 -7.311,5.013 -11.726,5.909 -5.565,1.129 -11.13,2.259 -16.696,3.388 -4.077,0.827 -8.457,1.469 -12.343,3.006 -3.504,1.385 -6.462,3.663 -10.349,4.007 -4.411,0.39 -9.3,0.415 -13.673,-0.102 C 24.548,21.646 20.038,21.13 15.509,20.75 10.401,20.321 5.338,21.681 3.388,16.56 1.439,11.441 0.604,5.58 0,0" /></g><g
           transform="translate(304.4394,449.2958)"
           id="g292"><path
             id="path294"
             style="fill:#FF8A5F;fill-opacity:1;fill-rule:nonzero;stroke:none"
             d="m 0,0 c 2.723,0.632 5.823,0.656 9.058,2.312 3.315,1.697 5.92,-0.829 2.526,-4.499 -2.735,-2.958 -5.643,-3.946 -10.468,-6.327 0.807,-1.929 10.145,-4.851 12.337,-5.608 5.151,-1.779 11.101,-1.857 16.487,-2.745 0.92,-0.152 1.881,-0.314 2.629,-0.87 0.749,-0.555 1.195,-1.639 0.732,-2.448 -0.245,-0.43 -0.688,-0.701 -1.118,-0.946 -1.79,-1.024 -3.656,-1.916 -5.577,-2.666 2.094,0.169 2.081,-2.707 0.598,-4.194 -1.483,-1.488 -3.082,-1.994 -5.182,-1.942 1.015,-0.481 -3.452,-3.795 -4.567,-3.931 -16.829,-2.055 -31.442,-1.332 -48.154,1.339 -2.668,0.427 -5.618,1.033 -7.192,3.228 -2.249,3.136 0.705,4.689 2.899,6.459 1.412,1.138 1.677,2.091 2.482,3.618 1.048,1.992 2.949,3.343 4.691,4.746 4.256,3.427 8.535,6.87 13.284,9.572 C -9.901,-2.267 -4.975,-1.155 0,0" /></g><g
           transform="translate(119.2891,366.6732)"
           id="g296"><path
             id="path298"
             style="fill:#4A1011;fill-opacity:1;fill-rule:nonzero;stroke:none"
             d="m 0,0 c 2.806,-20.142 6.96,-40.087 9.377,-60.295 2.788,-23.304 9.52,-93.44 10.163,-109.509 0.321,-8.029 -8.642,-22.598 -8.432,-30.631 0.13,-4.996 -0.327,-13.132 6.189,-13.83 15.235,-1.63 44.721,10.946 44.721,10.946 0,0 5.575,20.035 5.76,28.439 0.369,16.827 0.595,33.657 0.712,50.487 0.233,33.714 0.024,67.429 -0.362,101.141 -0.263,22.941 -0.608,45.881 -0.953,68.822 -0.019,1.285 -0.08,2.703 -0.807,3.686 -0.84,1.136 -2.224,1.246 -3.444,1.258 C 53.617,50.605 44.244,49.776 34.946,50.245 21.152,50.94 5.503,60.165 -0.922,41.377 -3.005,35.284 -2.833,28.64 -2.387,22.198 -1.872,14.758 -1.026,7.366 0,0" /></g><g
           transform="translate(131.9118,153.4801)"
           id="g300"><path
             id="path302"
             style="fill:#767676;fill-opacity:1;fill-rule:nonzero;stroke:none"
             d="m 0,0 c -0.339,-2.691 -0.218,-5.087 0.731,-6.378 2.757,-3.75 6.861,-5.704 10.763,-8.008 3.883,-2.293 7.564,-6.864 11.948,-7.98 1.707,-0.435 3.505,-0.211 5.252,0.015 15.169,1.965 30.668,4.028 44.339,10.888 2.634,1.322 5.232,2.855 7.17,5.074 1.939,2.22 3.147,5.24 2.601,8.136 -0.511,2.711 -2.484,4.97 -4.821,6.436 -4.379,2.748 -9.818,3.011 -14.985,3.195 C 52.743,11.736 42.488,11.205 32.217,11.761 26.55,12.068 20.8,13.037 15.298,14.353 11.131,15.349 6.907,16.653 4.09,12.546 2.639,10.431 0.6,4.756 0,0" /></g><g
           transform="translate(141.463,391.0745)"
           id="g304"><path
             id="path306"
             style="fill:#4A1011;fill-opacity:1;fill-rule:nonzero;stroke:none"
             d="m 0,0 c -3.381,-11.013 -4.486,-22.637 -5.539,-34.163 -3.488,-38.152 -0.331,-73.133 -3.124,-111.342 -1.397,-19.108 -11.598,-118.675 -7.471,-118.785 12.729,-0.342 47.58,-1.985 51.193,14.24 0.266,1.197 0.533,2.393 0.799,3.59 8.882,39.913 17.701,79.874 24.211,120.256 6.37,39.51 9.582,79.431 14.286,119.098 C 56.118,11.886 55.815,43.474 44.572,43.605 37.197,43.691 26.453,45.903 19.711,41.845 14.993,39.005 13.284,33.507 11.28,28.566 7.472,19.178 2.724,9.809 0,0" /></g><g
           transform="translate(178.6152,613.5051)"
           id="g308"><path
             id="path310"
             style="fill:#FF8A5F;fill-opacity:1;fill-rule:nonzero;stroke:none"
             d="m 0,0 c 1.604,2.317 3.242,4.606 4.966,6.819 0.747,0.96 1.514,1.93 2.508,2.632 3.065,2.166 7.543,1.123 10.323,-1.399 2.781,-2.522 4.239,-6.155 5.494,-9.693 1.256,-3.537 4.149,-6.804 6.586,-9.658 0.898,-1.052 0.302,-2.471 0.552,-3.831 0.383,-2.09 -1.355,-3.882 -2.429,-5.716 -3.17,-5.409 -0.924,-13.089 -4.953,-17.893 -2.38,-2.839 -6.258,-3.782 -9.772,-4.954 -3.515,-1.171 -5.944,-5.062 -6.932,-8.633 -0.563,-2.036 -1.972,-9.416 -4.054,-10.118 0.059,0.02 -3.293,0.993 -3.684,1.025 -1.495,0.124 -3.141,0.342 -4.641,0.187 -2.579,-0.267 -4.858,-1.611 -7.391,-1.599 -5.085,0.024 -10.375,-0.095 -15.359,0.039 0.96,7.488 1.914,14.94 2.362,22.484 0.205,3.461 -0.325,7.122 1.525,10.135 1.64,2.672 3.691,5.071 5.891,7.297 2.325,2.352 5.409,4.024 7.436,6.552 C -7.426,-11.151 -3.806,-5.497 0,0" /></g><g
           transform="translate(202.2494,620.1944)"
           id="g312"><path
             id="path314"
             style="fill:#E32D22;fill-opacity:1;fill-rule:nonzero;stroke:none"
             d="m 0,0 c 0.816,-1.218 1.339,-2.676 1.724,-4.104 0.618,-2.293 1.01,-4.703 2.249,-6.729 1.012,-1.654 2.52,-2.937 3.761,-4.427 2.822,-3.389 1.982,-6.318 -0.165,-9.788 -1.223,-1.978 -2.033,-4.22 -2.36,-6.531 -0.489,-3.467 0.095,-7.066 -0.8,-10.45 -1.069,-4.041 -4.216,-7.326 -7.943,-9.1 -2.509,-1.195 -6.243,-0.867 -8.448,-2.485 -2.468,-1.809 -3.528,-7.094 -4.077,-9.9 -1.024,0.381 -2.096,0.634 -3.182,0.749 l 3.655,12.283 c -2.216,0.23 -4.315,1.421 -5.649,3.205 5.626,0.339 16.108,-0.701 19.903,4.086 1.694,2.137 2.162,4.931 2.348,7.615 0.184,2.671 0.402,5.366 1.088,7.963 0.7,2.651 1.939,5.321 3.642,7.474 0.141,0.178 0.294,0.407 0.199,0.614 -0.041,0.09 -0.123,0.154 -0.202,0.213 -1.143,0.862 -2.379,1.605 -3.438,2.567 -1.535,1.395 -2.248,3.34 -2.902,5.257 -0.843,2.475 -1.419,5.091 -2.841,7.285 -1.247,1.923 -3.148,3.445 -5.346,4.097 -2.888,0.857 -5.367,-0.988 -8.006,-0.055 3.822,2.478 10.772,4.869 14.953,2.048 C -1.095,1.386 -0.494,0.737 0,0" /></g><g
           transform="translate(143.8059,609.3192)"
           id="g316"><path
             id="path318"
             style="fill:#980000;fill-opacity:1;fill-rule:nonzero;stroke:none"
             d="m 0,0 c -1.142,-5.648 -1.446,-11.463 -0.857,-17.166 0.307,-2.969 0.868,-5.962 2.251,-8.557 1.472,-2.763 4.325,-8.352 6.917,-10.109 2.6,-1.763 15.454,-2.537 19.859,-1.456 3.799,0.933 5.723,6.116 6.11,10.63 0.232,2.709 -0.144,5.352 -1.156,7.186 -1.329,2.406 -3.51,4.213 -4.76,6.665 -1.856,3.641 -0.26,4.188 3.35,5.684 1.755,0.727 6.585,0.838 7.035,-0.206 0.707,-1.641 1.504,-3.334 2.426,-3.22 0.788,0.098 1.177,1.041 1.393,1.838 1.502,5.545 2.138,11.07 2.741,16.752 0.319,3.003 2.672,7.57 0.365,10.241 -0.546,0.632 -1.415,0.822 -2.225,0.975 -8.397,1.581 -16.876,2.738 -25.397,3.468 -1.091,0.093 -2.184,0.18 -3.277,0.259 C 12.064,23.181 10.568,18.77 8.544,17.231 5.492,14.911 4.294,13.382 2.804,9.56 1.597,6.464 0.659,3.259 0,0" /></g><g
           transform="translate(180.8075,604.5193)"
           id="g320"><path
             id="path322"
             style="fill:#E32D22;fill-opacity:1;fill-rule:nonzero;stroke:none"
             d="m 0,0 c -2.609,0.875 -5.709,0.024 -7.743,-2.125 -2.034,-2.149 -2.18,-5.22 -1.462,-8.094 0.765,-3.066 5.218,-7.96 6.501,-9.141 0.028,3.293 -0.803,3.78 -1.789,6.842 -0.353,1.095 -0.678,2.228 -0.652,3.406 0.091,4.065 3.34,3.509 5.938,4.015 C 4.013,-4.47 2.11,-0.708 0,0" /></g><g
           transform="translate(142.2454,583.731)"
           id="g324"><path
             id="path326"
             style="fill:#4A1011;fill-opacity:1;fill-rule:nonzero;stroke:none"
             d="M 0,0 C 1.045,-2.359 5.079,-8.112 9.872,-10.244 6.987,-5.593 4.655,0.523 3.538,5.709 2.23,11.782 3.263,21.565 4.283,25.667 4.593,26.912 9.59,32.621 11.046,32.002 8.064,33.271 4.807,33.9 1.57,33.832 0.049,31.792 -2.49,30.3 -2.859,27.788 -5.177,12.002 -2.253,5.087 0,0" /></g><g
           transform="translate(160.0358,642.1667)"
           id="g328"><path
             id="path330"
             style="fill:#767676;fill-opacity:1;fill-rule:nonzero;stroke:none"
             d="m 0,0 c -2.69,-1.131 -18.664,-9.099 -20.649,-30.648 8.504,-3.749 19.049,-5.328 28.538,-4.753 7.845,0.475 19.752,3.72 27.247,8.635 C 39.552,-16.281 14.024,0.674 12.281,0.969 8.104,1.676 7.702,3.238 0,0" /></g><g
           transform="translate(226.3523,631.2985)"
           id="g332"><path
             id="path334"
             style="fill:#767676;fill-opacity:1;fill-rule:nonzero;stroke:none"
             d="m 0,0 c 0,0 -7.945,-11.506 -14.615,-14.031 -1.622,-0.614 -3.309,-1.074 -5.02,-1.428 -4.561,-0.942 -9.454,-1.099 -13.872,0.51 1.3,3.684 3.423,6.669 5.366,10.001 -0.471,0.374 -1.231,0.41 -1.523,0.964 1.478,0.819 3.806,1.016 5.497,1.377 1.93,0.412 3.872,0.777 5.824,1.096 C -14.406,-0.869 0,0 0,0" /></g><g
           transform="translate(226.3523,631.2985)"
           id="g336"><path
             id="path338"
             style="fill:#980000;fill-opacity:1;fill-rule:nonzero;stroke:none"
             d="m 0,0 c -6.318,-6.28 -12.709,-9.688 -15.694,-10.838 -7.9,-3.043 -12.878,-3.42 -12.878,-3.42 0,0 -1.247,0.559 -2.25,0.235 -0.093,-0.03 -0.18,-0.065 -0.26,-0.107 -0.962,-0.499 0.739,-1.102 -0.098,-1.768 6.078,-2.411 18.408,-0.546 27.713,7.592 1.795,1.57 3.983,4.249 4.816,6.519 0.107,0.292 0.178,0.612 0.092,0.916 C 1.289,-0.338 0.677,-0.008 0.102,0.001 0.068,0.002 0.034,0.001 0,0" /></g><g
           transform="translate(175.9959,639.9526)"
           id="g340"><path
             id="path342"
             style="fill:#E32D22;fill-opacity:1;fill-rule:nonzero;stroke:none"
             d="m 0,0 c 8.913,-5.951 15.766,-14.724 19.176,-24.552 0.478,0.247 0.942,0.518 1.392,0.809 2.499,1.621 4.48,3.876 5.975,6.373 1.319,2.205 3.263,4.784 1.51,7.197 C 24.412,-5.16 19.292,-1.063 13.561,1.572 7.689,4.272 1.095,5.46 -5.326,4.974 -6.568,4.88 -7.821,4.721 -8.964,4.267 -5.885,3.356 -2.645,1.766 0,0" /></g><g
           transform="translate(190.296,638.7797)"
           id="g344"><path
             id="path346"
             style="fill:#FF8A5F;fill-opacity:1;fill-rule:nonzero;stroke:none"
             d="m 0,0 c 3.332,-1.828 6.418,-4.091 9.164,-6.672 0.833,-0.783 1.614,-1.629 2.531,-2.32 1.949,-1.468 2.432,-0.625 2.432,-0.625 0,0 -3.112,5.682 -7.985,9.368 -8.118,6.141 -14.803,7.392 -19.1,7.692 -2.708,0.189 -5.444,0.005 -8.063,-0.618 -1.32,-0.314 -2.515,-0.871 -3.799,-1.257 -1.037,-0.312 -2.651,-1.075 -2.651,-1.075 0,0 2.232,0.043 3.655,0.231 1.835,0.244 3.693,0.339 5.551,0.296 3.723,-0.087 7.442,-0.731 10.994,-1.876 C -4.749,2.331 -2.315,1.27 0,0" /></g><g
           transform="translate(125.4383,375.6895)"
           id="g348"><path
             id="path350"
             style="fill:#E32D22;fill-opacity:1;fill-rule:nonzero;stroke:none"
             d="m 0,0 c 10.289,-3.172 21.453,-4.384 32.075,-4.995 10.881,-0.626 21.806,-0.188 32.601,1.315 2.842,0.396 28.318,6.518 28.17,8.878 -0.972,15.486 -3.381,45.238 -3.381,45.238 0,0 4.374,19.623 4.613,29.54 0.348,14.375 1.028,28.979 -2.163,42.952 -3.191,13.974 -10.977,27.528 -23.045,33.205 -6.84,3.217 -14.455,3.678 -21.877,3.655 -8.081,-0.025 -16.258,0.257 -24.254,-1.122 -3.838,-0.662 -7.619,-1.731 -11.137,-3.422 -3.86,-1.855 -6.586,-4.53 -9.838,-7.187 -1.561,-1.276 -4.284,-2.848 -5.297,-4.606 -1.298,-2.251 -4.933,2.256 -5.414,-0.308 -1.123,-5.983 -1.298,-20.219 -2.281,-26.227 -3.496,-21.392 -2.604,-42.632 -4.111,-64.238 -0.852,-12.203 -2.912,-24.956 -2.673,-37.186 0.012,-0.641 0.056,-1.352 0.513,-1.802 0.326,-0.321 0.796,-0.438 1.239,-0.554 2.408,-0.629 4.722,-1.613 6.851,-2.902 0.745,-0.451 1.664,-0.933 2.237,-1.602 0.619,-0.725 0.786,-1.741 1.474,-2.425 0.151,-0.151 0.328,-0.286 0.416,-0.48 0.213,-0.473 0.193,-1.061 0.395,-1.538 0.262,-0.616 0.73,-1.254 1.16,-1.766 C -2.75,1.258 -1.449,0.447 0,0" /></g><g
           transform="translate(188.9836,360.3445)"
           id="g352"><path
             id="path354"
             style="fill:#767676;fill-opacity:1;fill-rule:nonzero;stroke:none"
             d="m 0,0 c 4.745,1.731 20.436,11.284 28.6,16.112 1.63,0.964 4.179,3.206 3.717,7.65 -0.507,12.395 -2.296,38.582 -2.296,38.582 0,0 -5.174,-1.119 -8.147,2.102 -2.106,2.281 -6.864,7.308 -7.307,10.337 1.513,-10.334 3.027,-20.668 4.54,-31.001 0.309,-2.111 0.653,-10.686 -6.59,-10.927 -11.307,-0.375 -42.724,-1.394 -54.568,1.222 -7.287,1.61 -31.364,8.759 -37.927,9.584 -1.143,0.143 -1.771,-37.406 12.159,-48.796 C -50.265,-10.195 -29.564,-10.785 0,0" /></g><g
           transform="translate(222.8654,521.4462)"
           id="g356"><path
             id="path358"
             style="fill:#980000;fill-opacity:1;fill-rule:nonzero;stroke:none"
             d="m 0,0 c -0.207,0.306 -0.434,0.615 -0.683,0.928 -6.281,7.885 -12.821,15.989 -21.728,20.712 -1.99,1.056 -4.084,1.932 -5.954,3.189 -1.87,1.257 -3.543,2.971 -4.207,5.124 -0.833,2.7 -0.39,5.316 -0.572,8.017 -0.145,2.167 -1.25,3.411 -3.421,3.797 -4.661,0.583 -28.723,2.161 -36.107,4.664 -1.962,0.665 -3.879,-6.883 -3.879,-6.883 0,0 -3.282,1.435 -3.614,0.556 -1.687,-4.48 -3.081,-10.231 -6.904,-13.317 -3.022,-2.44 -5.91,-5.05 -8.471,-7.975 -2.909,-3.322 -4.163,-7.021 -5.64,-11.157 -1.675,-4.69 -3.157,-17.727 1.617,-18.581 15.722,-2.812 38.716,-5.398 52.792,-12.947 5.617,-3.012 10.799,-4.933 16.92,-6.557 4.098,-1.087 8.185,-2.22 12.241,-3.454 8.012,-2.438 15.916,-5.272 23.498,-8.842 0.891,-0.42 1.778,-0.847 2.661,-1.284 -0.455,0.225 -2.367,18.284 -2.833,20.31 -1.01,4.403 -2.373,8.73 -3.009,13.212 C 2.123,-6.374 2.268,-3.357 0,0" /></g><g
           transform="translate(186.0419,533.2538)"
           id="g360"><path
             id="path362"
             style="fill:#767676;fill-opacity:1;fill-rule:nonzero;stroke:none"
             d="m 0,0 c -5.807,-4.577 -13.15,-11.263 -15.205,-18.603 -2.101,-7.503 9.006,-14.854 9.961,-22.25 1.44,-11.164 2.01,-24.882 5.295,-33.872 4.868,-13.32 9.588,-20.057 19.651,-30.093 6.068,-6.051 14.003,-13.771 23.194,-13.626 1.399,0.022 2.745,0.526 4.016,1.114 5.603,2.59 10.287,7.028 13.354,12.369 4.172,7.267 6.216,13.866 2.127,21.763 -2.424,4.683 -5.939,8.735 -8.343,13.428 -2.598,5.073 -3.812,10.721 -5,16.295 -1.11,5.206 -2.092,10.458 -3.333,15.633 -1.069,4.457 -4.315,8.756 -6.634,12.727 C 33.966,-16.355 28.511,-7.793 22.801,0.593 21.599,2.358 20.226,4.235 18.172,4.828 11.319,6.806 5.185,4.086 0,0" /></g><g
           transform="translate(142.2152,493.7181)"
           id="g364"><path
             id="path366"
             style="fill:#FFF5F0;fill-opacity:1;fill-rule:nonzero;stroke:none"
             d="M 0,0 1.659,-0.241 1.9,1.418 0.241,1.659 Z m -1.134,-7.809 1.659,-0.241 1.04,7.158 -1.66,0.241 z M 12.13,-8.206 c -1.234,0.179 -1.418,0.671 -1.174,2.344 0.243,1.675 0.568,2.153 1.801,1.973 1.424,-0.206 1.749,-0.659 1.488,-2.45 -0.26,-1.792 -0.691,-2.074 -2.115,-1.867 m 2.775,5.376 -0.082,-0.564 c -0.485,0.58 -1.368,0.903 -2.132,1.014 -2.467,0.359 -3.078,-1.067 -3.394,-3.241 -0.25,-1.718 -0.366,-3.65 2.351,-4.045 0.69,-0.1 1.565,-0.062 2.148,0.333 -0.054,-0.367 -0.114,-0.886 -0.211,-1.247 -0.187,-0.662 -0.92,-0.856 -1.874,-0.717 -0.925,0.134 -1.18,0.438 -1.105,0.952 l -1.808,0.262 c -0.264,-1.821 1.313,-2.421 2.752,-2.63 1.322,-0.193 3.106,-0.092 3.618,1.573 0.116,0.389 0.21,1.037 0.306,1.698 l 0.929,6.395 z M 6.169,-1.432 C 5.156,-1.285 4.463,-1.514 3.998,-1.822 l 0.082,0.565 -1.439,0.209 -1.039,-7.158 1.659,-0.241 0.484,3.333 c 0.181,1.248 0.229,2.502 2.02,2.241 1.44,-0.209 1.211,-0.851 1.011,-2.231 l -0.549,-3.774 1.66,-0.241 0.567,3.906 c 0.227,1.556 0.609,3.36 -2.285,3.781 m -9.361,1.36 C -4.03,0.049 -4.729,-0.119 -5.271,-0.55 l 0.093,0.638 -1.439,0.209 -1.04,-7.158 1.659,-0.241 0.452,3.113 c 0.081,0.558 0.167,1.355 0.433,1.841 0.246,0.46 0.726,0.765 1.416,0.665 0.69,-0.101 0.943,-0.287 0.847,-0.948 l 1.649,-0.24 c 0.229,1.572 -0.449,2.375 -1.991,2.599 m -8.282,-4.825 c -1.424,0.207 -1.778,0.663 -1.518,2.455 0.261,1.792 0.73,2.128 2.154,1.921 1.234,-0.179 1.423,-0.731 1.18,-2.406 -0.243,-1.674 -0.582,-2.149 -1.816,-1.97 m 1.225,5.85 c -0.778,0.113 -1.643,0.149 -2.267,-0.331 l 0.412,2.836 -1.66,0.241 -1.376,-9.473 1.498,-0.218 0.083,0.573 c 0.383,-0.46 1.016,-0.852 1.97,-0.991 2.864,-0.416 3.336,1.495 3.59,3.242 0.316,2.174 0.202,3.765 -2.25,4.121" /></g><g
           transform="translate(118.5839,496.4868)"
           id="g368"><path
             id="path370"
             style="fill:#d6d6d6;fill-opacity:1;fill-rule:nonzero;stroke:none"
             d="m 0,0 c -0.47,-2.07 -2.46,-3.463 -4.597,-3.153 -0.625,0.091 -1.097,-0.338 -1.455,-0.857 -1.485,-2.154 2.835,-3.496 4.281,-3.706 4.383,-0.637 8.459,2.311 9.26,6.628 z" /></g><g
           transform="translate(113.5315,501.5687)"
           id="g372"><path
             id="path374"
             style="fill:#FFF5F0;fill-opacity:1;fill-rule:nonzero;stroke:none"
             d="m 0,0 c 0.354,-0.292 1.188,-0.035 1.638,-0.101 2.136,-0.31 3.647,-2.212 3.509,-4.33 l 7.489,-1.088 C 13.096,-1.153 10.028,2.833 5.645,3.47 4.575,3.626 3.476,3.57 2.428,3.302 1.917,3.171 1.377,3.004 0.912,2.749 0.453,2.498 0.314,2.097 0.09,1.616 -0.087,1.236 -0.175,0.815 -0.165,0.396 -0.161,0.208 -0.1,0.082 0,0" /></g><g
           transform="translate(150.5542,376.5942)"
           id="g376"><path
             id="path378"
             style="fill:#d6d6d6;fill-opacity:1;fill-rule:nonzero;stroke:none"
             d="m 0,0 c 2.662,-0.778 3.298,-2.17 3.141,-4.508 -0.13,-1.93 -2.353,-2.732 -4.386,-2.468 -13.902,1.808 -20.408,2.582 -31.195,5.08 -3.187,0.738 -8.713,1.788 -8.713,1.788 0,0 -3.379,11.667 -1.267,12.839 C -20.462,4.862 -10.566,3.09 0,0" /></g><g
           transform="translate(337.9347,429.8772)"
           id="g380"><path
             id="path382"
             style="fill:#E32D22;fill-opacity:1;fill-rule:nonzero;stroke:none"
             d="m 0,0 c -0.61,-1.126 -1.148,-1.28 -2.654,-1.959 -5.333,-1.752 -10.802,-2.365 -16.437,-1.558 -1.217,0.174 -2.444,0.395 -3.669,0.288 0.645,-0.838 1.731,-1.18 2.755,-1.438 3.787,-0.955 7.759,-1.38 11.645,-0.857 0.652,0.088 0.311,0.003 2.034,0.358 1.724,0.355 0.049,-2.938 -3.535,-3.637 -3.583,-0.699 -9.994,-0.127 -12.511,-0.133 -0.18,-0.212 -0.086,-0.559 0.124,-0.741 0.209,-0.183 0.495,-0.244 0.768,-0.299 0.209,-0.042 0.418,-0.084 0.627,-0.126 2.085,-0.417 4.181,-0.808 6.303,-0.914 0.507,-0.025 1.066,-0.045 1.644,-0.045 -3.808,-2.21 -10.034,-2.844 -13.865,-3.379 -2.197,-0.306 -4.41,-0.632 -6.628,-0.572 -11.087,0.296 -25.035,5.84 -25.035,5.84 0,0 -7.024,0.422 -2.38,-3.57 4.645,-3.991 23.228,-5.338 34.112,-4.62 5.955,0.394 11.44,2.248 16.793,4.874 1.445,0.709 2.955,1.474 3.863,2.804 0.927,1.36 1.117,3.17 2.242,4.372 0.846,0.903 1.694,1.451 2.656,2.228 C -0.185,-2.307 0.196,-0.781 0,0" /></g><g
           transform="translate(263.758,409.5898)"
           id="g384"><path
             id="path386"
             style="fill:#767676;fill-opacity:1;fill-rule:nonzero;stroke:none"
             d="m 0,0 c 2.653,0.222 5.297,0.687 7.899,1.153 1.833,0.328 5.317,0.272 6.717,1.517 0.513,0.456 0.83,1.087 1.136,1.702 0.806,1.624 1.613,3.248 2.42,4.872 2.491,5.014 4.72,10.297 5.968,15.755 0.833,3.646 1.322,7.378 1.281,11.122 -0.037,3.43 -1.508,4.495 -4.934,4.635 -8.555,0.35 -30.674,1.102 -32.915,1.412 -1.24,0.172 -2.115,0.505 -3.359,0.909 -3.318,1.078 -7.101,-0.305 -10.483,-0.452 -5.673,-0.246 -11.437,-0.733 -16.719,-2.818 -7.279,-2.875 -13.282,-8.831 -16.212,-16.087 -0.946,-2.341 -1.588,-4.855 -1.424,-7.374 0.09,-1.375 3.331,-2.373 4.29,-2.773 3.443,-1.436 7.041,-2.525 10.613,-3.584 9.348,-2.77 18.841,-5.086 28.363,-7.176 C -13.656,2 -10.03,0.487 -6.284,0.046 -4.194,-0.2 -2.094,-0.175 0,0" /></g><g
           transform="translate(263.8709,438.3944)"
           id="g388"><path
             id="path390"
             style="fill:#d6d6d6;fill-opacity:1;fill-rule:nonzero;stroke:none"
             d="m 0,0 c -0.637,-3.718 -1.526,-9.079 -1.541,-12.851 -0.005,-1.434 0.209,-3.034 1.321,-3.94 0.992,-0.808 2.471,-0.805 3.634,-0.27 1.163,0.536 2.06,1.517 2.818,2.549 2.375,3.232 3.904,9.797 4.941,13.672 1.596,5.964 3.273,13.032 3.273,13.032 L 3.083,12.635 C 3.083,12.635 0.743,4.338 0,0" /></g><g
           transform="translate(197.2037,540.8906)"
           id="g392"><path
             id="path394"
             style="fill:#980000;fill-opacity:1;fill-rule:nonzero;stroke:none"
             d="m 0,0 c -12.091,-1.135 -22.226,-10.383 -26.685,-21.348 -8.933,-5.859 9.425,-24.168 9.425,-24.168 0,0 28.255,-25.974 38.724,-31.839 6.131,-3.435 12.51,-6.437 19.088,-8.913 5.908,-2.224 13.575,-2.865 13.575,-2.865 0,0 -9.919,9.747 -12.412,14.734 -2.492,4.986 -4.033,10.383 -5.561,15.745 -2.267,7.959 -4.534,15.918 -6.802,23.878 0,2.071 -1.276,4.671 -1.707,6.73 -0.505,2.407 -0.664,4.014 -1.978,6.111 -2.602,4.151 -5.203,8.303 -7.805,12.454 C 14.988,-4.895 12.18,-0.067 6.126,0.154 4.067,0.229 2.015,0.189 0,0" /></g><g
           transform="translate(196.3515,430.7294)"
           id="g396"><path
             id="path398"
             style="fill:#980000;fill-opacity:1;fill-rule:nonzero;stroke:none"
             d="M 0,0 C -3.265,5.793 -7.322,17.209 -10.258,27.799 -3.433,14.151 7.05,2.354 19.802,-6.027 c 1.938,-1.274 3.929,-2.472 6.018,-3.479 6.258,-3.016 13.382,-5.261 20.054,-7.295 3.536,-1.078 15.042,-4.087 18.818,-4.45 C 54.505,-23.09 46.21,-24.11 35.947,-23.1 18.086,-21.343 8.692,-13.213 6.822,-10.636 4.348,-7.225 2.069,-3.671 0,0" /></g><g
           transform="translate(207.2975,535.7212)"
           id="g400"><path
             id="path402"
             style="fill:#E32D22;fill-opacity:1;fill-rule:nonzero;stroke:none"
             d="m 0,0 c 8.407,-10.965 15.04,-23.398 19.542,-36.627 2.875,-8.45 4.939,-17.155 7.399,-25.739 2.05,-7.156 7.33,-20.749 17.092,-21.598 -2.631,3.905 -4.729,7.503 -6.669,12.912 -0.004,0.012 -0.008,0.024 -0.012,0.036 -5.536,15.446 -9.572,31.393 -15.73,46.675 -3.14,7.791 -6.55,15.624 -11.886,21.988 C 5.052,3.232 -4.012,7.831 -10.011,8.973 -5.133,5.856 -2.868,3.741 0,0" /></g><g
           transform="translate(116.1889,482.6511)"
           id="g404"><path
             id="path406"
             style="fill:#FF8A5F;fill-opacity:1;fill-rule:nonzero;stroke:none"
             d="m 0,0 c 0.525,11.833 1.022,23.335 2.388,35.079 0.435,3.735 2.024,9.072 1.091,12.725 -0.151,0.595 -4.72,-4.548 -5.01,-5.089 -1.279,-2.393 -1.773,-4.752 -2.167,-7.407 -0.994,-6.702 -6.299,-71.847 -6.637,-86.629 -0.304,-13.282 -2.022,-21.875 -2.364,-38.669 -0.158,-7.774 0.372,-27.898 17.674,-37.452 -6.802,10.212 -8.594,20.39 -9.446,26.712 -0.28,2.079 -0.269,4.184 -0.257,6.282 0,0.105 10e-4,0.21 10e-4,0.314 0.056,10.278 3.144,51.192 3.283,61.618 C -1.296,-21.841 -0.505,-10.663 0,0" /></g><g
           transform="translate(120.7646,511.5755)"
           id="g408"><path
             id="path410"
             style="fill:#767676;fill-opacity:1;fill-rule:nonzero;stroke:none"
             d="m 0,0 c 0.757,-0.435 1.6,-0.791 2.537,-1.055 10.626,-2.997 21.051,2.345 29.164,9.252 7.457,6.348 13.824,14.214 21.696,20.005 3.382,2.487 13.654,5.351 12.493,11.263 -0.12,0.612 -1.119,8.542 -1.119,8.542 0,0 -4.471,-0.049 -6.707,-0.029 -15.496,0.14 -31.396,1.59 -45.864,8.086 -1.708,0.767 -5.332,2.445 -7.199,1.845 C 3.298,57.361 2.266,54.575 1.384,52.914 -0.919,48.576 -2.743,43.949 -4.06,39.161 -5.787,32.884 -6.49,26.325 -6.576,19.769 -6.675,12.34 -6.169,3.543 0,0" /></g></g></g></g></svg>
