<svg xmlns="http://www.w3.org/2000/svg" viewbox="0 0 1200 400" class="mbm w100p" height="234">
  <rect fill="#EEE" width="1200" height="390"/>

  <g id="systems">
    <path fill="none" stroke="#999" stroke-width="4" stroke-linecap="round" stroke-miterlimit="10" d="M1011 315v-87M792 345l408 1M107 85h27.4c8.9 0 18-.7 26.9 0 21.7 1.8 43.9 0 65.7 0M512 85h280"/>
    <path fill="none" stroke="#999" stroke-width="4" stroke-miterlimit="10" d="M227 0c0 8.9-.7 18.1.1 27 1.7 19.1-.1 39-.1 58.4v64.9c0 14.3-1.1 29.1 0 43.3.7 8.9-.8 18.1 0 27 1.7 18.6 0 38.1 0 56.7V400.1"/>
    <path fill="#FFF" stroke="#999" stroke-width="4" stroke-linecap="round" stroke-miterlimit="10" d="M551.3 226.5c-5.5 5.6-71.4 4-88.8 4-18.8 0-88 .7-89.7-1.1-3.6-3.7-2.1-25.5-3.1-50.7-.9-23.1-.6-45.4.9-46.4 5.6-3.6 82.4-3.8 91.9-3.8 8.5 0 82.9-1 86.3 1.2 9 5.8 7.1 42.7 7.1 50.7.1 18.1 1.6 39.9-4.6 46.1z"/>
    <path fill="#EEE" stroke="#999" stroke-width="4" stroke-linecap="round" stroke-miterlimit="10" d="M787.4 358.8c-5.1 5.4-66.2 3.9-82.3 3.9-17.5 0-81.6.7-83.2-1.1-3.3-3.5-2-24.5-2.8-48.8-.8-22.2-.6-43.7.8-44.6 5.2-3.5 76.5-3.6 85.3-3.6 7.8 0 76.9-.9 80.1 1.2 8.4 5.6 6.6 41.1 6.6 48.7-.1 17.4 1.2 38.3-4.5 44.3z"/>
    <path fill="#FFF" stroke="#999" stroke-width="4" stroke-linecap="round" stroke-miterlimit="10" d="M74.5 256.7c-.9 1.6-12.2 1.1-15.1 1.1-3.2 0-15 .2-15.3-.3-.6-1-.4-7-.5-14-.1-6.4-.1-12.5.1-12.8 1-1 14.1-1 15.7-1 1.4 0 14.1-.3 14.7.3 1.5 1.6 1.2 11.8 1.2 14 0 5 .2 11-.8 12.7z"/>
    <path fill="#FFF" stroke="#999" stroke-width="4" stroke-miterlimit="10" d="M1165.1 213.2c-1.1 1.8-4.5 2.6-7.4 4.3-7.7 4.4-16 8-24.7 9.7-12 2.4-21.5 5.4-32.6 10.6-12.7 5.8-22.7 1.5-35.3-2.6-18-5.9-37.4-9.1-56.3-7.3-9.1.9-16.6 3.3-25.1 6.4-7.8 2.8-15.4 6.7-23.8 7.1-15.3.8-30.3-1.7-44.2-7.6-16-6.8-32.3-10.7-48.8-15.8-16.7-5.2-34.3-4.7-51.6-4.1-5.7.2-18.9 2.3-23.2-2 0 0 .1-135.6.1-155.5 0-6.3-.9-22.3 1.5-24.6 2.8-2.7 20-.6 28-.6h289.2c3.5 0 53.6-1.5 54.8.6.8 1.4 0 16.3 0 18.6 0 2.8-.1 48.7-.2 91.1-.3 37.2-.4 71.7-.4 71.7z"/>
    <path fill="none" stroke="#999" stroke-width="4" stroke-miterlimit="10" d="M791.9 51.4c10.9-2 368.1-2 372.5-2M412.6-.8c-1.5 51.8 7.6 78 6 129.5M511.6-.3c-1.1 13.8-3 109.7-3 127.5M465.3 230.6c4.4 8.8 1.9 160.3 2.3 169.1"/>
    <path fill="#FFF" stroke="#999" stroke-width="4" stroke-linecap="round" stroke-miterlimit="10" d="M478.4 350c-.6.9-18.6 1.3-19.2.5-.5-.6-.4-16.1-.2-16.3.6-.6 18.8-.8 19.2-.4.9.9.8 15.1.2 16.2z"/>
    <path fill="#EEE" stroke="#999" stroke-width="4" stroke-linecap="round" stroke-miterlimit="10" d="M510.7 368.1c-4.8 3.3-62.3 2.4-77.5 2.4-16.4 0-76.8.4-78.3-.6-3.1-2.2-1.9-14.9-2.7-29.7-.7-13.5-.6-26.6.7-27.2 4.9-2.1 72-2.2 80.2-2.2 7.4 0 72.4-.6 75.4.7 7.9 3.4 6.2 25 6.2 29.7.1 10.5 1.4 23.3-4 26.9z"/>
    <path fill="#FFF" stroke="#999" stroke-width="4" stroke-linecap="round" stroke-miterlimit="10" d="M217.2 78.3c.5-.9 17.8-1.9 18.5-1.2.5.5 1 15.5.8 15.7-.6.6-18.1 1.4-18.5 1.1-1-.9-1.4-14.6-.8-15.6z"/>
    <path fill="none" stroke="#999" stroke-width="4" stroke-linecap="round" stroke-miterlimit="10" d="M227 176.3l142.8 2.4"/>
    <path fill="#FFF" stroke="#999" stroke-width="4" stroke-linecap="round" stroke-miterlimit="10" d="M916.9 333c-1 3.1-13.2 2.2-16.4 2.2-3.5 0-16.3.4-16.6-.6-.7-2-.4-14.1-.6-28-.2-12.8-.1-25.1.2-25.6 1-2 15.3-2.1 17-2.1 1.6 0 15.3-.5 16 .7 1.7 3.2 1.3 23.6 1.3 28-.1 10 .2 22-.9 25.4zM871.9 352.8c-1 2.2-13.2 1.5-16.4 1.5-3.5 0-16.3.3-16.6-.4-.7-1.4-.4-9.7-.6-19.4-.2-8.8-.1-17.3.2-17.7 1-1.4 15.3-1.4 17-1.4 1.6 0 15.3-.4 16 .5 1.7 2.2 1.3 16.3 1.3 19.3-.1 6.9.2 15.2-.9 17.6z"/>
    <path fill="none" stroke="#999" stroke-width="4" stroke-linecap="round" stroke-miterlimit="10" d="M706 345V86"/>
    <path fill="#FFF" stroke="#999" stroke-width="4" stroke-linecap="round" stroke-miterlimit="10" d="M725.7 281.4c-2.3 2-29.8 1.4-37.1 1.4-7.9 0-36.7.3-37.5-.4-1.5-1.3-.9-9-1.3-18-.4-8.2-.3-16.1.4-16.4 2.3-1.3 34.4-1.3 38.4-1.3 3.5 0 34.6-.3 36 .4 3.8 2.1 3 15.1 3 18 .1 6.3.7 14.1-1.9 16.3zM696.2 78.3c.5-.9 17.8-1.9 18.5-1.2.5.5 1 15.5.8 15.7-.6.6-18.1 1.4-18.5 1.1-1-.9-1.4-14.6-.8-15.6zM1046.1 373.6c-2.2 3.3-28.6 2.4-35.5 2.4-7.5 0-35.2.4-35.9-.7-1.4-2.2-.9-15.1-1.2-30.1-.3-13.7-.3-27 .3-27.6 2.2-2.1 33-2.3 36.8-2.3 3.4 0 33.2-.6 34.6.7 3.6 3.5 2.9 25.4 2.9 30.1-.1 10.9.4 23.8-2 27.5z"/>
    <path fill="none" stroke="#999" stroke-width="4" stroke-miterlimit="10" d="M1011 400v-23"/>
    <path fill="none" stroke="#999" stroke-width="4" stroke-linecap="round" stroke-linejoin="round" stroke-miterlimit="10" d="M55.8 158.2c-.5.3-20.7 16.3-7.7 17.8 4.7.6 27.3 2.9 21.2 10.3-2.2 2.7-22.1 6.9-15.7 11.5 6.3 4.5 10.7 8.5 5.7 16.2-5.6 8.5-4.3 6.2-.6 15.3"/>
    <path fill="none" stroke="#999" stroke-width="4" stroke-linecap="round" stroke-miterlimit="10" d="M57.1 257.9c1.5 8.4-53.5 38-6.7 53 23.2 7.4 70.3 9.6 94 5.5"/>
    <path fill="#FFF" stroke="#999" stroke-width="4" stroke-linecap="round" stroke-miterlimit="10" d="M596.4 68c-.6.9-18.6 1.3-19.2.5-.5-.6-.4-16.1-.2-16.3.6-.6 18.8-.8 19.2-.4.9.9.8 15.1.2 16.2zM236.4 184c-.6.9-18.6 1.3-19.2.5-.5-.6-.4-16.1-.2-16.3.6-.6 18.8-.8 19.2-.4.9.9.8 15.1.2 16.2zM592.4 47c-.6.9-18.6 1.3-19.2.5-.5-.6-.4-16.1-.2-16.3.6-.6 18.8-.8 19.2-.4.9.9.8 15.1.2 16.2zM330.4 173c-.6.9-18.6 1.3-19.2.5-.5-.6-.4-16.1-.2-16.3.6-.6 18.8-.8 19.2-.4.9.9.8 15.1.2 16.2zM601 28.3c-.7.8-18.5-1.6-19.1-2.5-.4-.6 2.1-16 2.3-16.1.7-.5 18.7 2.1 19 2.6.9 1.1-1.3 15.1-2.2 16zM519.6 92.6c-.6 1-18.5 2-19.2 1.2-.5-.5-1-16.1-.9-16.2.6-.6 18.8-1.5 19.2-1.2 1.1.9 1.6 15.1.9 16.2z"/>
    <path fill="none" stroke="#999" stroke-width="4" stroke-miterlimit="10" d="M0 340c22.7.8 44.5 8 67.3 11.2 37.3 5.2 75.3-2.6 113-1.2 61.2 2.2 71.4 7.4 132.2 4 16-.9 61.5-12 66.4-10"/>
    <path fill="#FFF" stroke="#999" stroke-width="4" stroke-linecap="round" stroke-miterlimit="10" d="M404.5 355.7c-.9 1.6-12.2 1.1-15.1 1.1-3.2 0-15 .2-15.3-.3-.6-1-.4-7-.5-14-.1-6.4-.1-12.5.1-12.8 1-1 14.1-1 15.7-1 1.4 0 14.1-.3 14.7.3 1.5 1.6 1.2 11.8 1.2 14 0 5 .2 11-.8 12.7z"/>
    <path fill="none" stroke="#999" stroke-width="4" stroke-linecap="round" stroke-miterlimit="10" d="M75.5 250.5c1.4.7 4.4.1 6.1.2 3.5.1 7.1.7 10.5 1.4 5.2 1 9.4 2.6 13.4 5.8 4.2 3.5 9.2 5.2 14.4 6.9 5.1 1.6 10.4 2.7 15.6 4 2.8.7 5.6 1.3 8.5 1.3"/>
    <path fill="#FFF" stroke="#999" stroke-width="4" stroke-linecap="round" stroke-miterlimit="10" d="M117.5 270.7c-.9 1.6-12.2 1.1-15.1 1.1-3.2 0-15 .2-15.3-.3-.6-1-.4-7-.5-14-.1-6.4-.1-12.5.1-12.8 1-1 14.1-1 15.7-1 1.4 0 14.1-.3 14.7.3 1.5 1.6 1.2 11.8 1.2 14 0 5 .2 11-.8 12.7zM145 338h127v32H145zM145 299h127v32H145zM145 260h127v32H145z"/>
    <g fill="#999">
      <circle cx="160.5" cy="276.2" r="4"/>
      <circle cx="173.3" cy="276.2" r="4"/>
      <circle cx="186.1" cy="276.2" r="4"/>
    </g>
    <g fill="#999">
      <circle cx="160.5" cy="315" r="4"/>
      <circle cx="173.3" cy="315" r="4"/>
      <circle cx="186.1" cy="315" r="4"/>
    </g>
    <g fill="#999">
      <circle cx="160.5" cy="353.9" r="4"/>
      <circle cx="173.3" cy="353.9" r="4"/>
      <circle cx="186.1" cy="353.9" r="4"/>
    </g>
  </g>

  <g id="developers" fill="none" stroke="#666" stroke-width="3" stroke-miterlimit="10">
    <path d="M985.8 282c1.9 2.5 5.4 2.8 7.4 1.2 2.2-1.7 3.3-4.5 1-6.7-3.5-3.2-11.7 1.1-8.4 5.5z"/>
    <path stroke-linecap="round" d="M991.3 284.4c0 6.1.5 9.8.5 16M987 313.8c1.4-3.5 2.3-13.3 4.5-13.3 3.1 0 2.7 11.5 5 14.1M1007.6 292.4c-4.4-.4-14.9.9-14.9-1.2.1-3.2 10.9-3 13.2-5.1"/>
    <path d="M751.8 225.2c-.4-2.9-3.9-3.9-6.4-3-2.6 1-4.7 3.3-3.4 5.9 2.1 3.9 10.5 3.4 9.8-2.9z"/>
    <path stroke-linecap="round" d="M745.5 231v18M739.3 262.6c.7-4.1 4.6-12.7 6.2-12.6 2.5 0 5 9.5 5.9 12.2M742.4 244.9c-.9-1.4-5.3-2.7-5.2-4.2 0-.8 6.6-4 8.5-4 2.7 0 7.4 6.1 8.9 10"/>
    <path d="M775.1 230.9c2-2.1.7-5.7-1.6-7-2.4-1.4-5.1-.4-7 1.7-3.8 4.3 4.8 9.2 8.6 5.3z"/>
    <path stroke-linecap="round" d="M769.9 233.7c0 3.2 1.4 12.1 1.2 15.8M764.2 263c.9-4.2 4.2-13.6 6.9-13.6 2.9 0 5 8.6 5.7 12.6"/>
    <path stroke-linecap="round" d="M762.8 247.2c2.8-2 4-9.2 7.7-9.2 3.9 0 4 4.1 6.3 9.1"/>
    <path d="M156.1 49.7c2-2.3.9-6.1-1.3-7.4-2.3-1.4-5-.3-6.8 2-3.9 4.7 4.3 9.7 8.1 5.4z"/>
    <path stroke-linecap="round" d="M152.8 51.3c0 3.2-1.1 12.4-1.3 16.1M147 82c2.8-3.4 2.4-14.6 5.1-14.6 2.9 0 3.3 9.7 4.1 13.7"/>
    <path stroke-linecap="round" d="M144.6 67.4c0-2.9 4.4-11.6 8.2-11.6 3.9 0 4.8 6.8 7.1 11.8"/>
    <path d="M116.8 50.9c-2-2.1-.7-5.7 1.6-7 2.4-1.4 5.1-.4 7 1.7 3.8 4.3-4.8 9.2-8.6 5.3z"/>
    <path stroke-linecap="round" d="M120.4 52.3c0 3.2.2 12.5.4 16.2M124.6 84c-.9-4.2-1.2-15.6-3.9-15.6-2.9 0-4 11.6-4.7 15.6"/>
    <path stroke-linecap="round" d="M129.4 68.5c-3-4.6-5.9-8.5-8-8.5-9.4 0-10.1-4.9-12.9-4.7"/>
    <path d="M484.7 340.3c-.7-2.8-3.8-4-6.3-3.2-2.7.9-4.8 3.2-3.5 5.8 1.9 4 11 2.3 9.8-2.6z"/>
    <path stroke-linecap="round" d="M479.8 345.9c-.4 6.8.9 13.1 1.9 20.8M498.9 374.5c1.4-3.1-3-8.6-4.4-8.9-2.1-.5-12.5-1.9-12.8 1-.1 1 9.5 1.9 11.2 4 .7.9.1 3.8-2.4 7.1"/>
    <path stroke-linecap="round" d="M471.8 366.6c1-12.6 5.2-13.8 8.1-15.3 2.6-1.3 11.8 5.9 18.2 4.3"/>
    <path d="M484.7 340.3c-.7-2.8-3.8-4-6.3-3.2-2.7.9-4.8 3.2-3.5 5.8 1.9 4 11 2.3 9.8-2.6z"/>
    <path stroke-linecap="round" d="M479.8 345.9c-.4 6.8.9 13.1 1.9 20.8M498.9 374.5c1.4-3.1-3-8.6-4.4-8.9-2.1-.5-12.5-1.9-12.8 1-.1 1 9.5 1.9 11.2 4 .7.9.1 3.8-2.4 7.1"/>
    <path stroke-linecap="round" d="M471.8 366.6c1-12.6 5.2-13.8 8.1-15.3 2.6-1.3 11.8 5.9 18.2 4.3"/>
    <path d="M442.2 339.3c1.2-2.6-.4-5.5-2.9-6.4-2.6-1-5.7-.5-6.4 2.3-1 4.3 7.2 8.7 9.3 4.1z"/>
    <path stroke-linecap="round" d="M438.2 341.4c0 6.1 1.6 8 1.6 14.2M434.9 369.7c0-4.2 4.1-12.6 4.7-14.8 3.5 2.1 5.5 11.3 5.5 14.4M439 347.7c-2.6 1.5-10.1-5.7-14.3-10.9"/>
    <path d="M442.2 339.3c1.2-2.6-.4-5.5-2.9-6.4-2.6-1-5.7-.5-6.4 2.3-1 4.3 7.2 8.7 9.3 4.1z"/>
    <path stroke-linecap="round" d="M438.2 341.4c0 6.1 1.6 8 1.6 14.2M434.9 369.7c0-4.2 4.1-12.6 4.7-14.8 3.5 2.1 5.5 11.3 5.5 14.4M450.9 335.8c-5.9 9.8-9 10.3-11.9 11.9"/>
    <g>
      <path d="M1132.1 306.7c-1 2.7.9 5.5 3.4 6.2 2.7.7 5.8.1 6.2-2.8.6-4.5-7.9-8.2-9.6-3.4z"/>
      <path stroke-linecap="round" d="M1137.3 313.4c0 6.1 1.6 11.8 1.6 17.9M1131.6 343.6c2.5.7 6.4-9.8 7.1-12 3.5 2.1 5.1 9.4 7.5 12"/>
      <path stroke-linecap="round" d="M1128.1 324.8c3.1-1.2 7.1-4 9.9-5.6 2.6-1.5 8.6-2.2 11.9-1.9"/>
    </g>
    <g>
      <path d="M1168.1 309.7c1.2-2.6-.4-5.5-2.9-6.4-2.6-1-5.7-.5-6.4 2.3-1 4.3 7.2 8.7 9.3 4.1z"/>
      <path stroke-linecap="round" d="M1164.1 311.9c0 6.1 1.6 11.4 1.6 17.5M1158.4 343.6c0-4.2 6.4-12.5 7.1-14.8 3.5 2.1 7.5 11.6 7.5 14.8"/>
      <path stroke-linecap="round" d="M1155.2 325.7c3.1-1.2 6.5-6.7 9.3-8.4 2.6-1.5 8.2 6 11.4 6.3"/>
    </g>
    <g>
      <path d="M1114.8 306.2c-.4-2.9-3.9-3.9-6.4-3-2.6 1-4.7 3.3-3.4 5.9 2.1 3.9 10.5 3.4 9.8-2.9z"/>
      <path stroke-linecap="round" d="M1109.7 311.6c0 6.1-.9 12.4-.9 18.5M1102.3 343.6c1.2-4.1 4.9-12 6.5-13.6 3.5 2.1 5.1 10.5 5.1 13.6"/>
      <path stroke-linecap="round" d="M1101.9 327.9c1.2-3.9 3.7-8.9 6.5-10.5 2.6-1.5 12.2 5.7 7.5 8.4"/>
    </g>
    <g>
      <path stroke-linecap="round" d="M1075 314c0 6.1.9 8.3.9 14.4M1070.7 344.2c1.7-4.1 1.7-12.8 5.2-14.8 5.1 1.2 2.9 12.8 5.3 15.4"/>
      <path stroke-linecap="round" d="M1062.6 317.2c7.9 6 12.4 2.9 12.4 2.9 6.2-2.3 9.3 6.9 12.5 7.2"/>
      <path d="M1078.8 305.1c-2.7-.9-6.6-.3-7.3 2.1-.8 2.5 1 6.4 3.9 6.8 4.4.6 8.2-7.3 3.4-8.9z"/>
    </g>
    <g>
      <path d="M559.1 42.8c-2.9-.4-5.2 1.9-5.4 4.6-.2 2.8 1.1 5.7 4 5.5 4.4-.2 6.4-9.3 1.4-10.1z"/>
      <path stroke-linecap="round" d="M558.1 52.9c0 6.1 1.6 9.3 1.6 15.5M552.4 83.1c0-4.2 6.5-13.3 7.1-15.6 3.5 2.1.2 13 2.6 15.6"/>
      <path stroke-linecap="round" d="M573.1 63.6c-5.1 0-14-1.2-14.2-2.8-.5-3.5 9.3-4.9 12.6-4.6"/>
    </g>
    <g>
      <path d="M612.6 45.7c-1.4 2.5.1 5.5 2.5 6.6 2.6 1.1 5.7.9 6.5-1.9 1.3-4.3-6.6-9.2-9-4.7z"/>
      <path stroke-linecap="round" d="M616.8 53.1c-.9 6-.2 11.9-1.1 17.9M608.3 82.6c0-2.2 4.4-10.3 7.3-11.5 5.7 2 4.6 8.7 4.6 11.5"/>
      <path stroke-linecap="round" d="M602.6 57.1c5.4 0 13.5.4 13.7 3.4.1 3-13.5 1.2-15.9 3.1"/>
    </g>
    <g>
      <path d="M403.3 275.9c-.9 2.5-.2 5.8 2.2 6.5 2.5.7 6.5-1.3 6.9-3.9.6-4.1-7.5-7-9.1-2.6z"/>
      <path stroke-linecap="round" d="M406.9 284c0 6.1.4 10.4.9 13.8M403.1 309.6c.7-4.3 2.3-9.6 5.3-11.9 2.8 3.3 3.9 9.2 5.3 11.9"/>
      <path stroke-linecap="round" d="M394.5 279.8c0 1.4 9.5 10.7 12.4 9 2.6-1.5 9.9 6.6 11 7"/>
    </g>
    <g>
      <path d="M378.3 273.3c.9 2.7-.8 5.5-3.2 6.2-2.5.8-5.3.1-5.7-2.8-.5-4.4 7.3-8.2 8.9-3.4z"/>
      <path stroke-linecap="round" d="M374 279.8c0 6.1-1.2 9.9-1.2 16.1M379.1 309.6c-.7-4.3-4.7-11-6.5-13.1-3.5 2.1-4.6 10-4.6 13.1"/>
      <path stroke-linecap="round" d="M388.7 278.5c0 1.4-12.8 7.7-15.7 6-2.6-1.5-10.7 8.7-8.3 11.4"/>
    </g>
    <g>
      <path d="M457.1 275.9c2-2.1.7-5.7-1.6-7-2.4-1.4-5.1-.4-7 1.7-3.8 4.3 4.8 9.2 8.6 5.3z"/>
      <path stroke-linecap="round" d="M453.5 277.3c0 3.2-.2 12.5-.4 16.2M449.2 309c.9-4.2 1.2-15.6 3.9-15.6 2.9 0 4 11.6 4.7 15.6"/>
      <path stroke-linecap="round" d="M444.5 293.5c3-4.6 5.9-8.5 8-8.5 9.4 0 10.1-4.9 12.9-4.7"/>
    </g>
    <g>
      <path d="M191.8 218.7c-1.3 2.6.8 5.6 3.4 6.3 2.7.7 5-1 6.3-3.5 2.5-5.2-7.2-7.6-9.7-2.8z"/>
      <path stroke-linecap="round" d="M196.1 226.1c0 3.2-.2 12.7-.4 16.3M189.8 257c.4-4.3 4.2-14.7 5.9-14.7 1.7 0 5.7 11.6 5.7 14.7"/>
      <path stroke-linecap="round" d="M188.4 241.4c1.2-3.8 5.4-10.6 7.5-10.6 3.2 0 6.4 5.9 6.4 11.8"/>
    </g>
    <g>
      <path d="M168.5 226.7c2.8-.6 3.8-4.2 2.7-6.6-1.2-2.5-4-3.3-6.7-2.6-5.6 1.3-1.3 10.3 4 9.2z"/>
      <path stroke-linecap="round" d="M166.9 227.7c0 3.2.4 12.1.2 15.8M161.2 257c.9-4.2 3.2-13.6 5.9-13.6 2.9 0 4.4 10 5.7 13.6"/>
      <path stroke-linecap="round" d="M158.8 242.1c2.2-3.5 3.8-10.1 7.6-10.1 3.2 0 6.3 5.2 8.6 10.2"/>
    </g>
    <g>
      <path d="M15.6 308.6c-.2-2.9 2.3-5.1 4.9-5.1 2.8 0 5.6 1.4 5.2 4.3-.4 4.4-9.6 5.9-10.1.8z"/>
      <path stroke-linecap="round" d="M21.7 312.2c3.8 5.1 5 9.1 5 15.4M31.6 341.7c-1.9-3.6-2.7-14.5-4.7-14.8s-4.4 11.7-4.4 14.8M33.1 306.9c-1.5 7.1-8.3 9.6-7.5 11.1 1.3 2.6 9.6 1.2 12.3-9.5"/>
    </g>
    <g>
      <path stroke-linecap="round" d="M247 228c0 6.1.9 8.3.9 14.4M242.7 258.2c1.7-4.1 1.7-12.8 5.2-14.8 5.1 1.2 2.9 12.8 5.3 15.4"/>
      <path stroke-linecap="round" d="M234.6 231.2c7.9 6 12.4 2.9 12.4 2.9 6.2-2.3 9.3 6.9 12.5 7.2"/>
      <path d="M250.8 219.1c-2.7-.9-6.6-.3-7.3 2.1-.8 2.5 1 6.4 3.9 6.8 4.4.6 8.2-7.3 3.4-8.9z"/>
    </g>
    <g>
      <path d="M282.8 136.7c-1.3 2.6.8 5.6 3.4 6.3 2.7.7 5-1 6.3-3.5 2.5-5.2-7.2-7.6-9.7-2.8z"/>
      <path stroke-linecap="round" d="M287.1 144.1c0 3.2-.2 12.7-.4 16.3M280.8 175c.4-4.3 4.2-14.7 5.9-14.7 1.7 0 5.7 11.6 5.7 14.7"/>
      <path stroke-linecap="round" d="M279.4 159.4c1.2-3.8 5.4-10.6 7.5-10.6 3.2 0 6.4 5.9 6.4 11.8"/>
    </g>
    <g>
      <path d="M259.5 144.7c2.8-.6 3.8-4.2 2.7-6.6-1.2-2.5-4-3.3-6.7-2.6-5.6 1.3-1.3 10.3 4 9.2z"/>
      <path stroke-linecap="round" d="M257.9 145.7c0 3.2.4 12.1.2 15.8M252.2 175c.9-4.2 3.2-13.6 5.9-13.6 2.9 0 4.4 10 5.7 13.6"/>
      <path stroke-linecap="round" d="M249.8 160.1c2.2-3.5 3.8-10.1 7.6-10.1 3.2 0 6.3 5.2 8.6 10.2"/>
    </g>
    <g>
      <path d="M647.1 51.9c2-2.1.7-5.7-1.6-7-2.4-1.4-5.1-.4-7 1.7-3.8 4.3 4.8 9.2 8.6 5.3z"/>
      <path stroke-linecap="round" d="M641.9 54.7c0 3.2 1.4 12.1 1.2 15.8M636.2 84c.9-4.2 4.2-13.6 6.9-13.6 2.9 0 5 8.6 5.7 12.6"/>
      <path stroke-linecap="round" d="M634.8 68.2c2.8-2 4-9.2 7.7-9.2 3.9 0 4 4.1 6.3 9.1"/>
    </g>
    <g>
      <path d="M340.1 316.7c2-2.3.9-6.1-1.3-7.4-2.3-1.4-5-.3-6.8 2-3.9 4.7 4.3 9.7 8.1 5.4z"/>
      <path stroke-linecap="round" d="M336.8 318.3c0 3.2-1.1 12.4-1.3 16.1M331 349c2.8-3.4 2.4-14.6 5.1-14.6 2.9 0 3.3 9.7 4.1 13.7"/>
      <path stroke-linecap="round" d="M328.6 334.4c0-2.9 4.4-11.6 8.2-11.6 3.9 0 4.8 6.8 7.1 11.8"/>
    </g>
    <g>
      <path d="M349.1 142.9c2-2.1.7-5.7-1.6-7-2.4-1.4-5.1-.4-7 1.7-3.8 4.3 4.8 9.2 8.6 5.3z"/>
      <path stroke-linecap="round" d="M345.5 144.3c0 3.2-.2 12.5-.4 16.2M341.2 176c.9-4.2 1.2-15.6 3.9-15.6 2.9 0 4 11.6 4.7 15.6"/>
      <path stroke-linecap="round" d="M336.5 160.5c3-4.6 5.9-8.5 8-8.5 9.4 0 10.1-4.9 12.9-4.7"/>
    </g>
    <g>
      <path d="M675.8 209.2c-.4-2.9-3.9-3.9-6.4-3-2.6 1-4.7 3.3-3.4 5.9 2.1 3.9 10.5 3.4 9.8-2.9z"/>
      <path stroke-linecap="round" d="M669.5 215v18M663.3 246.6c.7-4.1 4.6-12.7 6.2-12.6 2.5 0 5 9.5 5.9 12.2M666.4 228.9c-.9-1.4-5.3-2.7-5.2-4.2 0-.8 6.6-4 8.5-4 2.7 0 7.4 6.1 8.9 10"/>
    </g>
    <g>
      <path d="M927 306.2c.4-2.9 3.9-3.9 6.4-3 2.6 1 4.7 3.3 3.4 5.9-2.1 3.9-10.6 3.4-9.8-2.9z"/>
      <path stroke-linecap="round" d="M933.5 312v18M939.4 343.6c-.7-4.1-4.6-12.7-6.2-12.6-2.5 0-5 9.5-5.9 12.2M936.3 325.9c.9-1.4 5.3-2.7 5.2-4.2 0-.8-6.6-4-8.5-4-2.7 0-7.4 6.1-8.9 10"/>
    </g>
    <g>
      <path d="M670 135.2c.8 2.8 4 3.9 6.5 2.9 2.6-1 4.7-3.4 3.3-5.9-2.2-3.9-11.2-1.8-9.8 3z"/>
      <path stroke-linecap="round" d="M678.2 137.5c3.7 4.9 8.3 8.5 12 13.4M703.5 161.7c.5-1.9-13.3-8.1-12.6-10 .7-2 11.5-1.8 12.5-5.2"/>
      <path stroke-linecap="round" d="M677.7 152.2c1.7-2.8 3.3-7.4 4.6-10.5 1.2-2.7 5.6-6.9 8.4-8.6"/>
    </g>
    <g>
      <path d="M443.8 90.9c-.7 3-3.9 4.7-6.4 4-2.7-.7-4.8-2.9-3.5-5.7 2-4.4 11.2-3.6 9.9 1.7z"/>
      <path stroke-linecap="round" d="M439.8 95.3c2.4 5.6 3.4 9.2 5.8 14.9M450.4 124.9c-1.5-3.4-2.7-13.3-4.9-13.2-3.1.1-2.4 11.6-4.6 14.3M427.9 109.1c3.9-2.1 14.1-5 13.2-6.9-1.3-3-11.2 1.6-14.2.5"/>
    </g>
  </g>

  <g id="ui">
    <path fill="#AAA" d="M866 217.6c.2.1.4.1.7.2 4.7 1.5 9.4 2.8 14 4.2H1063v-6H866v1.6zm0-7.6h197v-6H866v6zm0-66v6h197v-6H866zm0 30h197v-6H866v6zm0-12h197v-6H866v6zm0 36h197v-6H866v6zm0-12h197v-6H866v6zm49.5 47.6c.3.1.6.2.9.4h67.5c7.7-2.8 14.6-5 22.6-6H900.4c5 1.7 10.1 3.5 15.1 5.6z"/>
    <path fill="none" stroke="#CCC" stroke-width="2" stroke-miterlimit="10" d="M1073 50v190M854 50v166"/>
    <g fill="#999">
      <path d="M865.5 73c.1-.1 1 0 1 0s.3-5.3.2-5.3c-.1-.1-1.2 0-1.2 0-.2-.5 0-2.2 0-2.2s2.5-.1 4-.1c.8 0 3.8.2 3.8 2.6 0 1.7-1.6 2.3-1.6 2.3s2 .6 2 2.5c0 2.3-1.7 2.7-4.1 2.7-1.3 0-2.9-.1-4.1-.2-.1-.8-.1-2.2 0-2.3zm5.1-4.6c0-1.2-1.5-.9-1.5-.9v1.8c0 .1 1.5.1 1.5-.9zm.3 3.9c0-1-1.8-.8-1.8-.8v1.6s1.8.1 1.8-.8zM881.4 71.6c0 1.9-1 3.8-3.4 3.8-2.1 0-3.6-1.1-3.6-3.8 0-2.7 1.6-3.7 3.6-3.7s3.4 1.4 3.4 3.7zm-4.5.1c0 .8.6 1.3 1.1 1.3.5 0 1-.4 1-1.3 0-.7-.3-1.4-1-1.4-.9 0-1.1.7-1.1 1.4zM889.1 71.6c0 1.9-1 3.8-3.4 3.8-2.1 0-3.6-1.1-3.6-3.8 0-2.7 1.6-3.7 3.6-3.7s3.4 1.4 3.4 3.7zm-4.6.1c0 .8.6 1.3 1.1 1.3.5 0 1-.4 1-1.3 0-.7-.3-1.4-1-1.4-.8 0-1.1.7-1.1 1.4zM889.6 73.3c.1 0 1-.1 1-.1v-5.8h-1.1s0-1.8.1-1.8 3.1-.5 3.2-.4c.4.3.2 3.8.2 5.7 0 0 1.5-.8 1.5-.9s-.6-.2-.6-.2c0-.1-.1-1.5-.1-1.6 0-.1 4.4.1 4.4.1v1.9c0 .1-.9-.1-1 0s-1.4 1.1-1.5 1.2c-.1.1 2 2 2.1 2 .1 0 .9.1.9.1l.1 1.7s-4.4.2-4.5 0c-.1-.2-.2-1.8-.2-1.8l.5-.1c-.1-.1-1.4-1.3-1.6-1.1-.1.1 0 1 0 1.1 0 .1.6.2.6.2l-.1 1.7c0 .1-3.9.1-3.9.1.1-.1-.1-2 0-2zM903.4 73.3l1.1.2v1.7c-.1.1-4.9 0-4.9 0s-.1-.9-.1-1.8l1.2-.1v-2.8h-1.1s-.2-1.8-.2-1.9c0-.1 3-.2 3.9 0v4.7zm0-7.5c0 .8-.4 1.5-1.3 1.5-1 0-1.5-.5-1.5-1.4 0-.9.6-1.5 1.4-1.5.7 0 1.4.6 1.4 1.4zM913.2 73.2l.6.1s.1 1.4 0 1.8h-3.6s-.1-1.5-.1-1.8l.7-.1v-1.5c0-.9-.4-1.4-1.1-1.4-.5 0-1.1.6-1.1 1.4v1.5l.8.2v1.7c-.1.1-4 0-4 0s-.1-.9-.1-1.8l.9-.1v-3.3h-.8s-.2-1.9-.2-2c0-.1 2.8-.4 2.8-.4l.4 1s.6-.9 1.8-.9c1.4 0 2.9.7 2.9 3.6l.1 2zM921.8 75.1c0 1.2-.7 3.5-3.5 3.5-1.9 0-2.6-.8-2.6-.8l.8-2s.6.5 1.6.5c1.1 0 1.3-1.3 1.1-1.7 0 0-.5.7-1.9.7-1.3 0-3.1-.9-3.1-3.7 0-2.7 1.7-3.4 3.2-3.4 1.2 0 2.1.7 2.1.7V68s3-.1 3 0 .1 2.1.1 2.1l-.9.2c0 .8.1 2.6.1 4.8zm-5-3.6c0 .8.5 1.3 1.1 1.3.6 0 1.1-.5 1.1-1.3 0-.7-.5-1.4-1-1.4-.8.1-1.2.5-1.2 1.4z"/>
    </g>
    <g fill="#999">
      <path d="M1086.4 64.8s1.5-.1 2.1.2c.1 0-.2 2.7-.2 3.2 0 .2-2.2.2-2.2.1-.1-.8-.5-1.1-1-1.1-.3 0-.8.1-.8.7 0 .5 1.1.8 2.1 1.4 1.2.7 2.3 1.5 2.3 3.2 0 1.6-1.4 2.8-2.8 2.8s-2-.5-2.2-.8c0 .3-.1.9-.1.9-.1 0-2.1-.1-2.1-.1v-3.6c1-.2 1.9-.3 2.2-.2.3 1 .8 1.5 1.3 1.5.4 0 .8-.2.8-.6 0-.8-.9-1.1-1.7-1.5-1.2-.7-2.5-1.4-2.5-3.4 0-1.4 1.1-2.5 3-2.5.8 0 1.3.3 1.6.6l.2-.8zM1096.1 69.9l-.4 1.4-2.7 1.5c.2.2 1.6.3 2.5.3 0 .9-.3 2.3-.3 2.3-3.6.3-5.8-1.4-5.8-3.9s1.7-3.6 3.6-3.6c1.7-.1 3.1 1.4 3.1 2zm-4.2 1.3l1.7-1.1c-.1-.1-.3-.4-.6-.4-.9 0-1.3.9-1.1 1.5zM1102.5 70.9c-.2-.2-.6-.6-1.1-.6-.7 0-1.2.6-1.2 1.4 0 .9.1 1.3.1 1.3l1.4.2V75c-.1.1-4.7 0-4.7 0s-.1-1-.1-1.9l.9-.1v-3.3h-.8l-.2-1.8c0-.1 2.8-.5 2.8-.5l.4 1s.5-.7 1.7-.7c1.3 0 2.2 1 2.2 1.1 0 .4-1.4 2.2-1.4 2.1zM1104.6 69.9s-.2-1.4-.1-1.8h4.2s.1 1.6.1 1.8h-.8l1.1 2.4 1-2.3h-.7v-1.8c.1-.1 4 0 4 0s.1.9.1 1.8l-.8.1s-1.7 4-2.6 5.3c0 0-1.7.1-2.3 0 0 0-2-4.1-2.2-5.3l-1-.2zM1118.2 73.3l1.1.2v1.7c-.1.1-4.9 0-4.9 0s-.1-.9-.1-1.8l1.2-.1v-2.8h-1.1s-.2-1.8-.2-1.9c0-.1 3-.2 3.9 0v4.7zm0-7.5c0 .8-.4 1.5-1.3 1.5-1 0-1.5-.5-1.5-1.4 0-.9.6-1.5 1.4-1.5.7 0 1.4.6 1.4 1.4zM1126.8 68c.1.1-.1 2.8-.1 2.8l-2.3.3s-.1-1-.9-1c-.5 0-1 .4-1 1.3s.7 1.3 1.1 1.3c.7 0 1-.4 1.1-.6.6.1 2 1.5 2 1.5s-.8 1.6-3 1.6-3.9-1.3-3.9-3.8c0-2.6 1.8-3.6 3.3-3.6 1.1 0 1.5.4 1.5.4l.1-.7c.2.1 1.5.1 2.1.5zM1134.2 69.9l-.4 1.4-2.7 1.5c.2.2 1.6.3 2.5.3 0 .9-.3 2.3-.3 2.3-3.6.3-5.8-1.4-5.8-3.9s1.7-3.6 3.6-3.6c1.8-.1 3.1 1.4 3.1 2zm-4.1 1.3l1.7-1.1c-.1-.1-.3-.4-.6-.4-1 0-1.4.9-1.1 1.5zM1139.1 67.7s1.4 0 2 .2c.1 0-.1 2.2-.1 2.5 0 .1-1.9 0-1.9-.1 0-.4-.4-.6-.7-.6-.2 0-.4 0-.4.4 0 .3.8.5 1.5.8.8.4 1.8 1.2 1.8 2.4 0 1.1-1.1 2-2.3 2-1.3 0-1.6-.3-1.8-.5 0 .2-.1.6-.1.6-.1 0-1.9-.2-1.9-.2v-2.7c.6-.1 1.6-.1 1.7-.1.2.5.6.8.9.8.3 0 .5-.1.5-.4 0-.4-.6-.6-1.2-.8-.8-.4-1.8-.9-1.8-2.4 0-1 .9-2 2.5-2 .7 0 1.1.2 1.4.4l-.1-.3z"/>
    </g>
    <g fill="#999">
      <path d="M870.1 125.4s1.5-.1 2.1.2c.1 0-.2 2.7-.2 3.2 0 .2-2.2.2-2.2.1-.1-.8-.5-1.1-1-1.1-.3 0-.8.1-.8.7 0 .5 1.1.8 2.1 1.4 1.2.7 2.3 1.5 2.3 3.2 0 1.6-1.4 2.8-2.8 2.8s-2-.5-2.2-.8c0 .3-.1.9-.1.9-.1 0-2.1-.1-2.1-.1v-3.6c1-.2 1.9-.3 2.2-.2.3 1 .8 1.5 1.3 1.5.4 0 .8-.2.8-.6 0-.8-.9-1.1-1.7-1.5-1.2-.7-2.5-1.4-2.5-3.4 0-1.4 1.1-2.5 3-2.5.8 0 1.3.3 1.6.6l.2-.8zM881.2 133.9l.6.1s.1 1.4 0 1.8h-3.6s-.1-1.5-.1-1.8l.7-.1v-1.5c0-.9-.4-1.4-1.1-1.4-.5 0-1.1.6-1.1 1.4v1.5l.8.2v1.7c-.1.1-3.9 0-3.9 0s-.1-.9-.1-1.8l.8-.1v-6l-1.1-.2s.1-1.8.1-1.9c0-.1 3.4-.1 3.4-.1v3.2s.5-.5 1.7-.5c1.4 0 2.9.7 2.9 3.6v1.9zM886.3 133.9l1.1.2v1.7c-.1.1-4.9 0-4.9 0s-.1-.9-.1-1.8l1.2-.1v-2.8h-1.1s-.2-1.8-.2-1.9c0-.1 3-.2 3.9 0v4.7zm-.1-7.5c0 .8-.4 1.5-1.3 1.5-1 0-1.5-.5-1.5-1.4 0-.9.6-1.5 1.4-1.5.7.1 1.4.7 1.4 1.4zM891.2 129.3s.4-.6 1.8-.6c1.3 0 3.2.8 3.2 3.7 0 2.9-1.7 3.6-3.1 3.6-1.2 0-1.6-.4-1.6-.4v1.4l1.4.2c.1.1 0 1.9.1 1.9h-5.1l-.1-1.9 1.1-.1v-5.8h-1c0-.9-.1-2.1-.1-2.1s3.1-.5 3.2-.4c-.1 0 .2.5.2.5zm2.5 3.1c0-.9-.4-1.4-.9-1.4-.6 0-1 .5-1 1.4 0 .8.4 1.5.9 1.5.7-.1 1-.6 1-1.5zM904.7 133.9l.6.1s.1 1.5 0 1.9l-3.6-.1s-.1-1.5-.1-1.8l.7-.1v-1.6c0-.9-.3-1.4-.9-1.4-.5 0-.9.6-.9 1.4v1.7l.6.2v1.7c-.1.1-3.9.1-3.9.1s-.1-.9-.1-1.8l.9-.1v-2.9l-1-.1s-.3-2-.3-2.1c0-.1 2.8-.6 2.8-.6l.4.9s.6-.8 1.7-.8c.8 0 1.8.1 2.3 1 .4-.6 1.2-.9 2.4-.9 1.3 0 2.9.7 2.9 3.6 0 .8-.1 1.8-.1 1.8l.7.1s.1 1.4 0 1.8h-3.9s-.1-1.5-.1-1.8l.6-.2v-1.6c0-.9-.2-1.3-.9-1.3-.4 0-.9.4-.9 1.1.1.3.1 1.8.1 1.8zM916.9 130.5l-.4 1.4-2.7 1.5c.2.2 1.6.3 2.5.3 0 .9-.3 2.3-.3 2.3-3.6.3-5.8-1.4-5.8-3.9s1.7-3.6 3.6-3.6c1.7 0 3 1.4 3.1 2zm-4.2 1.3l1.7-1.1c-.1-.1-.3-.4-.6-.4-1 .1-1.4.9-1.1 1.5zM925.4 133.9l.6.1s.1 1.4 0 1.8h-3.6s-.1-1.5-.1-1.8l.7-.1v-1.5c0-.9-.4-1.4-1.1-1.4-.5 0-1.1.6-1.1 1.4v1.5l.8.2v1.7c-.1.1-4 0-4 0s-.1-.9-.1-1.8l.9-.1v-3.3h-.8s-.2-1.9-.2-2c0-.1 2.8-.4 2.8-.4l.4 1s.6-.9 1.8-.9c1.4 0 2.9.7 2.9 3.6l.1 2zM929.9 126.7l.1 2.1h1.8s.1 1.4-.1 2.1l-1.8.1s-.2 2.4.4 2.4c.4 0 1-.4 1-.4l1 2s-1.3 1.2-2.8 1.2c-2.3 0-2.2-2.5-2.2-5.1h-1V129l1-.1s.2-1.6.2-1.7c.3-.4 2.4-.5 2.4-.5zM937.1 128.4s1.4 0 2 .2c.1 0-.1 2.2-.1 2.5 0 .1-1.9 0-1.9-.1 0-.4-.4-.6-.7-.6-.2 0-.4 0-.4.4 0 .3.8.5 1.5.8.8.4 1.8 1.2 1.8 2.4 0 1.1-1.1 2-2.3 2-1.3 0-1.6-.3-1.8-.5 0 .2-.1.6-.1.6-.1 0-1.9-.2-1.9-.2v-2.7c.6-.1 1.6-.1 1.7-.1.2.5.6.8.9.8.3 0 .5-.1.5-.4 0-.4-.6-.6-1.2-.8-.8-.4-1.8-.9-1.8-2.4 0-1 .9-2 2.5-2 .7 0 1.1.2 1.4.4l-.1-.3z"/>
    </g>
    <path fill="none" stroke="#CCC" stroke-width="2" stroke-miterlimit="10" d="M924 83h139v10H924z"/>
    <path fill="#7BC144" d="M1062.7 117.9c-1.9.8-6 .2-12.8.3-10 .1-20.5.6-22.1-.2-1.9-1.1-1-2.2-1-4.1 0-2-.8-3.4.9-4.2 2.7-1.4 10.1-.3 13.9-.3 5.8 0 18.2-1.3 21 0 1.8.8.6 2.3.7 4.2 0 2 1.1 3.6-.6 4.3z"/>
    <path fill="none" stroke="#AAA" stroke-width="6" stroke-miterlimit="10" d="M866 88h47"/>
    <path fill="none" stroke="#CCC" stroke-width="2" stroke-miterlimit="10" d="M924 93h139v10H924z"/>
    <path fill="none" stroke="#AAA" stroke-width="6" stroke-miterlimit="10" d="M866 98h47"/>
    <path fill="#AAA" d="M801 144v6h46v-6h-46zm0 18h46v-6h-46v6zm0 12h46v-6h-46v6zm0 12h46v-6h-46v6zm0 12h46v-6h-46v6z"/>
    <path fill="#CCC" d="M1081 83v21h75V83h-75zm0 46h75v-21h-75v21zm0 100h43.8c2.6-.7 5.4-1.3 8.2-1.9 8.1-1.6 15.8-4.8 23-8.8V208h-75v21zm0 10.8c6.2 1.2 12.4 1.1 19.3-2.1 3.9-1.8 7.7-3.4 11.4-4.7H1081v6.8zm0-85.8h75v-21h-75v21zm0 50h75v-21h-75v21zm0-25h75v-21h-75v21z"/>
  </g>

  <g id="desktop">
    <path fill="none" stroke="#999" stroke-width="4" stroke-miterlimit="10" d="M1165.1 213.2c-1.1 1.8-4.5 2.6-7.4 4.3-7.7 4.4-16 8-24.7 9.7-12 2.4-21.5 5.4-32.6 10.6-12.7 5.8-22.7 1.5-35.3-2.6-18-5.9-37.4-9.1-56.3-7.3-9.1.9-16.6 3.3-25.1 6.4-7.8 2.8-15.4 6.7-23.8 7.1-15.3.8-30.3-1.7-44.2-7.6-16-6.8-32.3-10.7-48.8-15.8-16.7-5.2-34.3-4.7-51.6-4.1-5.7.2-18.9 2.3-23.2-2 0 0 .1-135.6.1-155.5 0-6.3-.9-22.3 1.5-24.6 2.8-2.7 20-.6 28-.6h289.2c3.5 0 53.6-1.5 54.8.6.8 1.4 0 16.3 0 18.6 0 2.8-.1 48.7-.2 91.1-.3 37.2-.4 71.7-.4 71.7zM791.9 51.4c10.9-2 368.1-2 372.5-2"/>
    <circle fill="#999" cx="803.6" cy="40.6" r="3.4"/>
    <circle fill="#999" cx="813.3" cy="40.6" r="3.4"/>
    <circle fill="#999" cx="823" cy="40.6" r="3.4"/>
  </g>

  <g id="mobile" fill="#FFF" stroke="#999" stroke-width="4" stroke-linecap="round" stroke-miterlimit="10">
    <path d="M102.9 154.7c-2.6 2.6-24.3 3.4-31.5 3.4-7.5 0-29.1 1.1-33.2-5.2-2.2-3.4-1.1-20.5-1.1-27.1v-62c0-6-2.1-19 2.1-23.4 5.2-5.5 27.8-4 35-4 11.3 0 25-1.1 28.9 2 5.6 4.5 3 27.8 3 36.4v59.6c-.1 6.6.3 16.8-3.2 20.3zM37 48.6c13.6-.4 66.7 1.6 69.4 0M37 140.2c3.9 1.7 56.7 2.1 69.1 2.1M60.9 150.3c3.3.4 15.3-.2 19.8-.2"/>
  </g>

  <g id="bring">
    <path fill="#7BC144" d="M806.3 84.5c.4-5 4.6-8.9 9.7-8.9s9.3 3.9 9.7 8.9h17.8c-.4-10.3-8.9-18.6-19.4-18.6-10.4 0-19 8.3-19.4 18.6h1.6z"/>
    <path fill="#BFC0C4" d="M825.6 86.1c-.4 5-4.6 8.9-9.7 8.9s-9.3-3.9-9.7-8.9h-1.6c.4 10.3 8.9 18.6 19.4 18.6 10.4 0 19-8.3 19.4-18.6h-17.8z"/>
    <path fill="#7BC144" d="M814 109.4c-.7 0-1.5.1-2 .6v-2.6h-1.5v8.7h1.4v-.5c.4.4 1 .6 1.9.6 2.6 0 2.8-1.8 2.8-3.4 0-2-.4-3.4-2.6-3.4zm-.3 5.4c-1.3 0-1.7-.4-1.7-2s.4-2 1.7-2c1.1 0 1.4.5 1.4 2-.1 1.6-.3 2-1.4 2zm6.7-5.4c-.8 0-1.4.2-1.8.7v-.6h-1.3v6.5h1.5v-2.8c0-.5 0-1.2.1-1.7.2-.4.5-.8 1.2-.8s.9.1.9.7h1.5c.1-1.3-.6-2-2.1-2zm8.6 0c-.9 0-1.5.3-1.9.6v-.5h-1.3v6.5h1.5v-3c0-1.1-.1-2.3 1.5-2.3 1.3 0 1.2.6 1.2 1.9v3.4h1.5v-3.6c0-1.3.2-3-2.5-3zm8 .2v.5c-.5-.5-1.3-.6-2.1-.6-2.3 0-2.6 1.4-2.6 3.3 0 1.6.1 3.3 2.6 3.3.6 0 1.4-.1 1.9-.6v1.1c-.1.6-.7.9-1.6.9-.8 0-1.1-.2-1.1-.7h-1.6c0 1.7 1.5 2 2.8 2 1.2 0 2.8-.3 3-1.9.1-.4.1-1 .1-1.6v-5.9l-1.4.2zm-1.8 5.1c-1.1 0-1.4-.4-1.4-1.9s.2-2 1.4-2c1.3 0 1.6.4 1.6 2 .1 1.6-.3 1.9-1.6 1.9zm-11.9 1.4h1.5v-6.5h-1.5v6.5zm0-7.1h1.5v-1.5h-1.5v1.5z"/>
  </g>

  <g id="posten">
    <path fill="#BFC0C4" d="M69.3 84.5c.4-5 4.6-8.9 9.7-8.9s9.3 3.9 9.7 8.9h1.6c-.4-10.3-8.9-18.6-19.4-18.6s-19 8.3-19.4 18.6h17.8z"/>
    <path fill="#E32D22" d="M88.6 86.1c-.4 5-4.6 8.9-9.7 8.9s-9.2-3.9-9.7-8.9H51.5c.4 10.3 8.9 18.6 19.4 18.6 10.4 0 19-8.3 19.4-18.6h-1.7zM55.6 109.4c-.7 0-1.5.1-2.1.6v-.5h-1.4v8.7h1.5v-2.6c.4.5 1 .6 1.7.6 2.5 0 2.8-1.8 2.8-3.4.2-2.1-.1-3.3-2.5-3.4zm-.2 5.5c-1.3 0-1.7-.4-1.7-2s.4-2.1 1.7-2.1c1.1 0 1.4.5 1.4 2.1 0 1.5-.3 2-1.4 2zm6.6-5.5c-1.1 0-1.9.2-2.4.7-.6.5-.7 1.4-.7 2.7 0 1.3.1 2.1.7 2.7.6.5 1.4.7 2.4.7s1.9-.2 2.4-.7c.6-.5.7-1.4.7-2.7 0-1.3-.1-2.1-.7-2.7-.6-.5-1.4-.7-2.4-.7zm0 5.5c-1.5 0-1.6-.6-1.6-2.1s.1-2.1 1.6-2.1 1.6.6 1.6 2.1-.2 2.1-1.6 2.1zm18.1-5.5c-2.6 0-3 1.5-3 3.5 0 1.9.4 3.3 3.1 3.3 1.2 0 2.9-.3 2.9-2.1h-1.5c0 .7-.8.8-1.3.8-1.3 0-1.6-.4-1.6-1.6h4.5c-.2-2.2-.3-3.9-3.1-3.9zm-1.5 2.8c0-.9.1-1.5 1.5-1.5s1.5.5 1.5 1.5h-3zm8.3-2.8c-.9 0-1.5.3-1.9.6v-.5h-1.3v6.5h1.5v-3c0-1.1-.1-2.3 1.5-2.3 1.3 0 1.2.6 1.2 1.9v3.4h1.5v-3.6c0-1.3.1-3-2.5-3zM74.5 115c-.7 0-.8-.4-.8-.9v-3.2h3v-1.3h-3v-2.1h-1.5v2.1h-.9v1.3h.9v3.2c0 1.5.9 2.1 2.4 2.1 1.3 0 2.1-.5 2.1-2.1h-1.4c0 .4-.1.9-.8.9zm-6.4-2.9c-.7 0-1.1 0-1.1-.8 0-.4.1-.7 1.4-.7.9 0 1.2.2 1.2.8H71c0-1.6-1-2.1-2.6-2.1-1.8 0-2.9.3-2.9 2 0 2 1.5 2 2.9 2.1.8 0 1.2.1 1.2.8 0 .5-.2.8-1.5.7-1.1 0-1.3-.3-1.3-.8h-1.4c0 1.6 1 2.1 2.7 2.1 1.8 0 2.9-.4 3-2 .1-2.1-1.5-2-3-2.1z"/>
  </g>

  <g id="a-really-good-idea">
    <circle fill="#FFF" cx="485.5" cy="332.2" r="2.5"/>
    <circle fill="#FFF" cx="493.5" cy="329.2" r="3.5"/>
    <circle fill="#FFF" cx="502.5" cy="323.2" r="4.5"/>
    <path fill="#FFF" d="M553.1 298.3c.1-.5.1-1.1.1-1.6 0-6.8-5.5-12.4-12.4-12.4-3.2 0-6.1 1.2-8.3 3.3-1.7-4.8-6.3-8.3-11.7-8.3-6.8 0-12.4 5.5-12.4 12.4 0 1.6.3 3.1.9 4.5-4.6 1.8-7.9 6.3-7.9 11.5 0 6.8 5.5 12.4 12.4 12.4 3.2 0 6.1-1.2 8.3-3.2 2.1 3.7 6.1 6.2 10.7 6.2 4.1 0 7.8-2 10-5.1 2.2 3.1 5.9 5.1 10 5.1 6.8 0 12.4-5.5 12.4-12.4 0-6.8-5.4-12.3-12.1-12.4z"/>
    <path fill="#666" d="M529.3 301.2c1 0 2.2 0 2.2-1.1 0-.6-.5-.9-1.1-.9-1.2 0-2.1 1.2-2.1 1.2s-2.2-1.6-2.1-2c.1-.4 1.6-2.5 4.4-2.5 2.9 0 5.1 1.5 5.1 4.1 0 3.4-3.2 4.2-6.5 3.9-.2-.2.1-2.7.1-2.7zm3.5 5.8c0 1-.5 1.9-2 1.9s-2.3-.7-2.4-1.8c0-1.2 1-1.9 2.1-1.9 1.2 0 2.3.9 2.3 1.8z"/>
  </g>

  <g id="database" stroke="#999" stroke-width="4" stroke-miterlimit="10">
    <path fill="#FFF" d="M734.4 332.2c-2.4-9.6-14.5-10.9-21.5-11.6-9.6-.9-20.3-.4-29.1 4.5-3 1.6-4.9 3.6-5.1 7.6-.2 3.4-.2 6.8-.2 10.2 0 12.6-.1 25.2 0 37.7 0 5.5 1.7 8.2 5.9 10.4 4.1 2.1 8.6 3.2 13.1 3.9 9.1 1.3 19.2 1.2 27.9-2.4 3.4-1.4 7.4-3.3 8.7-7.7 1.4-4.9.5-11.5.5-16.6v-17.9c-.1-5.5 1.1-12.8-.2-18.1-.1-.4.1.3 0 0z"/>
    <path fill="none" d="M678.4 349.2c.4 5.5 6.2 7.7 9.9 9 5.8 2.1 12 2.8 18.1 2.8 15.5 0 28.1-5.3 28.1-11.8M678.7 332.2c0 3.1 2.9 5.6 3.7 6.1 1.9 1.3 4 2.2 6.2 3 5.8 2 11.9 2.7 17.9 2.7 15.5 0 28.1-5.3 28.1-11.8M678.4 366.1c.1 5.3 6.2 7.4 9.7 8.7 4.5 1.6 9.2 2.5 13.8 3 2.2.2 10.4-.4 12.3-.7 5.9-.7 14.9-2 19.1-7.9.7-1 1.2-2.1 1.2-3.4"/>
  </g>

  <g id="api" fill="#999">
    <path d="M389.2 212c-1.2-2.7-1.2-12.8-1.2-12.8l5.9-1.4c3.9-22 11-49.1 11-49.1 3.2-1.2 18.1.5 18.1.5l17.4 49h5.2v13.1s-23.9 1.2-24.9.6c-.9-.6-1.8-12.5-1.2-12.7.5-.3 4.5-.3 4.5-.3l-2.4-7.2-12-.2-1.2 5.9 6.1.8s1 12.5.7 12.5l-26 1.3zm25.2-43.4l-3.5 12 7.9-.4-4.4-11.6zM451.8 198.2c1-.5 6.2-.4 6.2-.4s-.8-34.5-1.1-34.6c-.3-.1-6.1.2-6.1.2s-1-14.4-.4-14.6c.6-.2 15-.4 22.3-.4 12.7 0 25.4 2.9 25.2 19.9-.2 18.4-16.2 20.1-24.8 20.1-.1 5.2.1 8.8.1 9s8.4 1.5 8.6 1.5c.3 0 .6 11.7.2 12.3-.4.5-29.4-.2-29.4-.2.1-.1-1.7-12.3-.8-12.8zm31-30c0-6.2-9.8-4.8-9.8-4.8l.4 11c0 .1 9.4.6 9.4-6.2zM528.1 198.2c.4 0 7.7 0 7.7.6s.6 11.7.2 11.9c-.4.2-29.7 1-30.7-.4s-.5-11-.2-11.4 6.4-.3 6.4-.3l-1.2-36.8s-5.2.2-5.6-.3c-.4-.4.4-13 .4-13l29.3-.4.6 12.6-8 1.5 1.1 36z"/>
  </g>

</svg>
