<svg xmlns="http://www.w3.org/2000/svg" viewbox="0 0 1200 400" class="dev-breakout">
  <path fill="#EEE" d="M1010.2 45c-29.7 0-57.8-4.2-87.2-4-24.3.2-48.9 1.2-73 3.5-52.1 4.8-105.2.5-158 .5-50.4 0-101.6-3.2-151.7-1-11.1.5-22.3 0-33.4 0-54.2 0-108.7 1-163 1h-78.3c-12.9 0-23.8 3.5-36.3 4.8-19.5 2-40.8-.7-60.4-1.8C112.4 44.9 56.4 45 0 45v355h1200V45h-189.8z"/>

  <g id="javascript">
    <path fill="#CCC" d="M1010.5 66.8h39.3v39.3h-39.3z"/>
    <path fill="#666" d="M1046.6 96.7c-.3-1.8-1.5-3.3-4.9-4.7-1.2-.6-2.5-.9-2.9-1.9-.1-.5-.2-.8-.1-1.2.3-1 1.5-1.4 2.5-1.1.6.2 1.2.7 1.6 1.5 1.7-1.1 1.7-1.1 2.9-1.8-.4-.7-.7-1-1-1.3-1-1.1-2.4-1.7-4.6-1.7-.4 0-.8.1-1.2.1-1.1.3-2.2.9-2.8 1.6-1.9 2.1-1.3 5.8.9 7.3 2.2 1.7 5.5 2.1 5.9 3.6.4 1.9-1.4 2.5-3.2 2.3-1.3-.3-2.1-1-2.9-2.2-1.5.9-1.5.9-3 1.7.4.8.7 1.1 1.3 1.8 2.8 2.9 10 2.7 11.3-1.6.2.2.5-.8.2-2.4zm-14.7-11.9h-3.7v9.5c0 2 .1 3.9-.2 4.4-.5 1.1-1.9 1-2.6.8-.6-.3-1-.8-1.4-1.4-.1-.2-.2-.3-.2-.3l-3 1.8c.5 1 1.2 1.9 2.2 2.5 1.4.8 3.3 1.1 5.3.6 1.3-.4 2.4-1.1 3-2.3.8-1.5.7-3.4.6-5.5V84.8z"/>
  </g>

  <g id="code">
    <path fill="#444" d="M823.5 401H658.6c0-24.8 1.2-49.2.6-73.7-.1-5.3-.6-10.3-.6-15.6 0-15.6.9-31.3.2-46.8-.2-5.4-.1-10.7-.1-16.1 0-7.8-.1-15.5-.1-23.3 0-2.7-1-6.6 1.2-8.4 2.5-2 6.4.2 9.1.3 9.5.6 19.3-1.3 28.9-1.3H768c13.4 0 27.7-2.6 41-.7 2.6.4 5 2 7.6 2.4 3.3.6 5.8-.8 7 2.5.8 2.1 0 5.9 0 8.2 0 4.3-.2 8.6-.1 12.9.2 5.9-.8 32.9-.4 40.6.4 8.8-1.8 57.6-1.2 73.1.2 5.5 1.6 36 1.6 45.9z"/>
    <g fill="none" stroke="#999" stroke-width="8" stroke-miterlimit="10">
      <path d="M677.3 265s17.7.9 23.8.7c10.5-.4 61.8 2.3 77.1 2 5.3-.1 26.2-1.3 26.2-1.3M688.9 280.5s21.4 1.7 27.6 2.4c12.5 1.4 46.5 3.1 61.8 2.8 5.3-.1 19.4-.9 19.4-.9M688.9 299.5s46.8 2.3 62.1 2c5.3-.1 31.8 1.2 31.8 1.2M688.9 316.5s22.3 1.9 37.6 1.6c5.3-.1 35.1-.4 35.1-.4M688.9 332.5s46.6 1.3 61.9 1c5.3-.1 37.8 1.2 37.8 1.2M678.3 351s37.3 3 52.6 2.7c5.3-.1 26.2-1.3 26.2-1.3M689.9 369.5s46.8 2.3 62.1 2c5.3-.1 31.8 1.2 31.8 1.2M689.9 386.5s22.3 1.9 37.6 1.6c5.3-.1 35.1-.4 35.1-.4"/>
    </g>
  </g>

  <g id="systems" stroke="#999" stroke-miterlimit="10">
    <path fill="none" stroke-width="4" d="M823 347h328M651 206h119.4c6.6 0 12.8-1.7 19.5-.7 6.9 1.1 14.1.7 21.2.7H941.8c5.5 0 11.1-.9 16.6-.7 17.2.8 34.4.7 51.7.7"/>
    <path fill="none" stroke-width="4" d="M651 44v56.8c0 4.9.2 9.8.5 14.6.3 6.2-.7 12.3-.5 18.5.3 6.3 0 12.6 0 18.9v64.9c0 4.6-.5 9.5 0 14 .4 3.9 1.6 7.7 1 11.7-.4 3.1-2.1 6-2.7 9-1.2 6.2-.9 12.4-.3 18.7M651 121l95 .8M257 184c6.9 1.8 39.4.3 47 1 18 1.6 105.7-3.2 131.2-1.9 19.3 1 20.7 3.8 21.1 23.5.5 24.5-2.4 59.8-2.5 84.3M154 207.1c7 .5 40 .2 49.8.2H232c5.5 0 11.3.8 16.7-.6 6.7-1.7 6.3-4.2 6.2-10.4-.1-14.2 0-7.8 0-22 0-8.4 1.2-17.8.2-26.1-.8-6.6-7.1-5.4-12.2-5.6-6.7-.3-27.8-.3-31.6 0-23.6 1.4-86.1.4-99.1.4-4 0-14.2 1.9-16.9-1.1-3.2-3.5-.3-53.6-.3-57.9 0-3.8.2-28.6-.3-37.4M81.9 204.2c13.4-.2 27-.7 40.4.8M73 346.1c-12.6 0-25.2.3-37.8-.1-3.5-.1-7.6.9-8.1-3.4-.9-7.4.9-15.2.9-22.6 0-34.8-.1-69.5-.6-104.3"/>
    <path fill="none" stroke-width="2" d="M978.7 307.9c-1 .5-29 9.2-50.9 12.9-15.8 2.7-26.9.9-29.5 1-13.1 5.1-25.6 12.1-30.9 17.1-7.1 6.7-6.9 4.7-16.4 4.7"/>
    <path fill="none" stroke-width="4" d="M161.8 48c.9.5 9.3.4 11.3.4 4.1.2 28.5 1.4 36.6 1.5 9.7.1 19.5-.1 29.2-1.2 4.8-.5 9.7-1.2 14.4-2.2C265 44 277.7 45 289.7 45h41.5c27.6 0 55.2-.2 82.8-.4 34.3-.3 68.6-.8 102.9-1.6 49-1 99 0 148 1M0 45c22.9 0 45.7 0 68.6.2 11.5.1 23 .3 34.5.5 5.5.1 11.1.3 16.6.4 1.9.1 10.2-.5 12.3-.2"/>
    <path fill="#FFF" stroke-width="4" stroke-linecap="round" d="M267.4 326c-.6.9-18.6 1.3-19.2.5-.5-.6-.4-16.1-.2-16.3.6-.6 18.8-.8 19.2-.4.9.9.8 15.1.2 16.2zM263.4 305c-.6.9-18.6 1.3-19.2.5-.5-.6-.4-16.1-.2-16.3.6-.6 18.8-.8 19.2-.4.9.9.8 15.1.2 16.2zM272 286.3c-.7.8-18.5-1.6-19.1-2.5-.4-.6 2.1-16 2.3-16.1.7-.5 18.7 2.1 19 2.6.9 1.1-1.3 15.1-2.2 16z"/>
    <path fill="none" stroke-width="4" d="M157 344h280"/>
    <path fill="#FFF" stroke-width="4" stroke-linecap="round" d="M37.4 354c-.6.9-18.6 1.3-19.2.5-.5-.6-.4-16.1-.2-16.3.6-.6 18.8-.8 19.2-.4.9.9.8 15.1.2 16.2zM246.1 192.8c-.9-.6-1.3-18.6-.5-19.2.6-.5 16.1-.4 16.3-.2.6.6.8 18.8.4 19.2-1 .9-15.2.8-16.2.2zM104 150.8c-.6 1-19.8 2.3-20.5 1.5-.5-.6-1.3-17.2-1.1-17.4.6-.7 20.1-1.8 20.5-1.5 1.1 1.1 1.8 16.3 1.1 17.4zM193.3 42.7c-.8.9-19.9-1.6-20.5-2.5-.4-.7 2.1-17.1 2.3-17.3.7-.5 20.1 2.1 20.4 2.6.9 1.2-1.3 16.2-2.2 17.2z"/>
    <path fill="none" stroke-width="4" d="M1010.7 45c.5 15.3-1.7 31.2 0 46.7 1.3 11.5-2.7 23-1.6 34.4.9 9.2.9 18.4.9 27.7v39c0 5.8-.2 11.7.1 17.5.3 5.5-.7 10.9-.4 16.4 1.1 21.3.3 42.9.3 64.3M1010 165h80M1151 165h49M1086 362v38M1152 304c0-3.4-.4-68 0-68 16.1-1 32 0 48 0M313.7 45.3c6.7 32 57 60 66 70M464.3 104.7C470.5 96.5 495 60.3 495 45"/>
    <path fill="#FFF" stroke-width="4" stroke-linecap="round" d="M952.3 42c11.7 0 22.7 2 34.7 2 71 2 142 0 213 1M1163.9 245.5c-.6.9-18.6.3-19.2-.5-.4-.6.5-16.1.6-16.3.6-.6 18.8.2 19.2.6.9 1 .1 15.1-.6 16.2z"/>
    <path fill="none" stroke-width="4" d="M69.7 38.7c3.2 1.2 8.3.3 11.7.3 4.6 0 9.3.2 13.8.3 4.5.2 9 0 13.4 0M62 31.7c6.5-1.8 14.4.3 21 .7 6 .3 11.8-1 17.7-1M76.3 23.3c12 0 23.5 2 35.3 2M65.7 15.3c11.5.1 24 3.7 35.3 1.7M690.4 14.7C701 22 709 35 719 44c13 5 27 1 40 2 31 3 61 1 92-1 6-.5 11.9-1.1 17.9-1.7 3-.3 5.9-.6 8.9-.8 2.6-.2 5.7-.8 8.3-.4 1.1.2 2.5.6 3.2 1.5 1 1.4-.2 8.1-.3 10-.5 9.5-11 76.2-9.5 82.8"/>
    <g id="stairs" fill="none" stroke-width="2">
      <path d="M890 51h7M890 58h7M889 65h7M888 72h8M887 79h7M885 86h7M883 94h8M883 101h8M882 108h8M882 115h7M881 122h7M881 129h7"/>
    </g>
    <path fill="none" stroke-width="4" d="M504 199c40.9-7.8 72.2-40.3 93-74.2 14.9-24.4 29.4-54.9 38-81.8"/>
    <path fill="#FFF" stroke-width="4" stroke-linecap="round" d="M1019.2 156.2c1 .5 1 15.1.2 15.7-.6.4-17.5-.1-17.6-.2-.6-.5-.5-15.3-.1-15.6 1-.8 16.4-.4 17.5.1z"/>
  </g>

  <g id="the-only-bug-in-our-codebase" stroke="#666" stroke-width="2" stroke-linecap="round" stroke-miterlimit="10">
    <path fill="#FFF" d="M427 176.2c-.2 2 2.5 2.4 5.3 1.3 2.9-1.1 5.8-3.2 5.4-4.9-.7-2.7-10.4.1-10.7 3.6z"/>
    <path fill="none" d="M428.1 173.8c-.4-1.1-2.5-1.5-3.6-2.5M431.4 172c-.8-.4-1.8-3.3-2.6-4.3M434.4 171.4c.7-.3-.7-2.3-.7-3.8M430.9 178.5c.3 1.6 1.1 2.4 1.1 3.8M433.7 177c.3 1.5 2.2 2.9 3.2 4M436.6 175.5c1.8 1.7 1.6 2.3 3.8 3.3"/>
  </g>

  <g id="database" stroke="#999" stroke-width="4" stroke-miterlimit="10">
    <path fill="#FFF" d="M1035.4 302.2c-2.4-9.6-14.5-10.9-21.5-11.6-9.6-.9-20.3-.4-29.1 4.5-3 1.6-4.9 3.6-5.1 7.6-.2 3.4-.2 6.8-.2 10.2 0 12.6-.1 25.2 0 37.7 0 5.5 1.7 8.2 5.9 10.4 4.1 2.1 8.6 3.2 13.1 3.9 9.1 1.3 19.2 1.2 27.9-2.4 3.4-1.4 7.4-3.3 8.7-7.7 1.4-4.9.5-11.5.5-16.6v-17.9c-.1-5.5 1.1-12.8-.2-18.1-.1-.4.1.3 0 0z"/>
    <path fill="none" d="M979.4 319.2c.4 5.5 6.2 7.7 9.9 9 5.8 2.1 12 2.8 18.1 2.8 15.5 0 28.1-5.3 28.1-11.8M979.7 302.2c0 3.1 2.9 5.6 3.7 6.1 1.9 1.3 4 2.2 6.2 3 5.8 2 11.9 2.7 17.9 2.7 15.5 0 28.1-5.3 28.1-11.8M979.4 336.1c.1 5.3 6.2 7.4 9.7 8.7 4.5 1.6 9.2 2.5 13.8 3 2.2.2 10.4-.4 12.3-.7 5.9-.7 14.9-2 19.1-7.9.7-1 1.2-2.1 1.2-3.4"/>
  </g>

  <g id="another-database" stroke="#999" stroke-width="4" stroke-miterlimit="10">
    <path fill="#FFF" d="M1115.4 298.2c-2.4-9.6-14.5-10.9-21.5-11.6-9.6-.9-20.3-.4-29.1 4.5-3 1.6-4.9 3.6-5.1 7.6-.2 3.4-.2 6.8-.2 10.2 0 12.6-.1 25.2 0 37.7 0 5.5 1.7 8.2 5.9 10.4 4.1 2.1 8.6 3.2 13.1 3.9 9.1 1.3 19.2 1.2 27.9-2.4 3.4-1.4 7.4-3.3 8.7-7.7 1.4-4.9.5-11.5.5-16.6v-17.9c-.1-5.5 1.1-12.8-.2-18.1-.1-.4.1.3 0 0z"/>
    <path fill="none" d="M1059.4 315.2c.4 5.5 6.2 7.7 9.9 9 5.8 2.1 12 2.8 18.1 2.8 15.5 0 28.1-5.3 28.1-11.8M1059.7 298.2c0 3.1 2.9 5.6 3.7 6.1 1.9 1.3 4 2.2 6.2 3 5.8 2 11.9 2.7 17.9 2.7 15.5 0 28.1-5.3 28.1-11.8M1059.4 332.1c.1 5.3 6.2 7.4 9.7 8.7 4.5 1.6 9.2 2.5 13.8 3 2.2.2 10.4-.4 12.3-.7 5.9-.7 14.9-2 19.1-7.9.7-1 1.2-2.1 1.2-3.4"/>
  </g>

  <g id="even-moar-databases" stroke="#999" stroke-width="4" stroke-miterlimit="10">
    <path fill="#FFF" d="M1179.4 316.2c-2.4-9.6-14.5-10.9-21.5-11.6-9.6-.9-20.3-.4-29.1 4.5-3 1.6-4.9 3.6-5.1 7.6-.2 3.4-.2 6.8-.2 10.2 0 12.6-.1 25.2 0 37.7 0 5.5 1.7 8.2 5.9 10.4 4.1 2.1 8.6 3.2 13.1 3.9 9.1 1.3 19.2 1.2 27.9-2.4 3.4-1.4 7.4-3.3 8.7-7.7 1.4-4.9.5-11.5.5-16.6v-17.9c-.1-5.5 1.1-12.8-.2-18.1-.1-.4.1.3 0 0z"/>
    <path fill="none" d="M1123.4 333.2c.4 5.5 6.2 7.7 9.9 9 5.8 2.1 12 2.8 18.1 2.8 15.5 0 28.1-5.3 28.1-11.8M1123.7 316.2c0 3.1 2.9 5.6 3.7 6.1 1.9 1.3 4 2.2 6.2 3 5.8 2 11.9 2.7 17.9 2.7 15.5 0 28.1-5.3 28.1-11.8M1123.4 350.1c.1 5.3 6.2 7.4 9.7 8.7 4.5 1.6 9.2 2.5 13.8 3 2.2.2 10.4-.4 12.3-.7 5.9-.7 14.9-2 19.1-7.9.7-1 1.2-2.1 1.2-3.4"/>
  </g>

  <g id="developers" fill="none" stroke="#666" stroke-width="3" stroke-miterlimit="10">
    <path d="M985.1 169.7c1.2-2.6-.4-5.5-2.9-6.4-2.6-1-5.7-.5-6.4 2.3-1 4.3 7.2 8.7 9.3 4.1z"/>
    <path stroke-linecap="round" d="M981.1 171.9c0 6.1 1.6 11.4 1.6 17.5M975.4 203.6c0-4.2 6.4-12.5 7.1-14.8 3.5 2.1 7.5 11.6 7.5 14.8"/>
    <path stroke-linecap="round" d="M972.2 185.7c3.1-1.2 6.5-6.7 9.3-8.4 2.6-1.5 8.2 6 11.4 6.3"/>
    <path d="M80 259.4c.9-2.7 4.1-3.8 6.5-2.8 2.6 1.1 4.6 3.5 3.2 6-2.3 3.9-11.3 1.6-9.7-3.2z"/>
    <path stroke-linecap="round" d="M84.4 265.3c-.1 6.8-1.7 13-3.2 20.6M61.6 292.4c1.7-3.1 5.4-8.2 6.9-8.5 2.2-.4 12.6-1.1 12.7 1.8 0 1-9.6 1.2-11.4 3.3-.7.8-2.1 3.6-4.2 7.2"/>
    <path stroke-linecap="round" d="M89.5 285c-.2-12.6-2.6-12.6-5.5-14.3-2.6-1.5-12.1 5.2-18.4 3.1"/>
    <path d="M230.1 300.8c-2.9-.4-5.2 1.9-5.4 4.6-.2 2.8 1.1 5.7 4 5.5 4.4-.2 6.4-9.3 1.4-10.1z"/>
    <path stroke-linecap="round" d="M229.1 310.9c0 6.1 1.6 9.3 1.6 15.5M223.4 341.1c0-4.2 6.5-13.3 7.1-15.6 3.5 2.1.2 13 2.6 15.6"/>
    <path stroke-linecap="round" d="M244.1 321.6c-5.1 0-14-1.2-14.2-2.8-.5-3.5 9.3-4.9 12.6-4.6"/>
    <path d="M283.6 303.7c-1.4 2.5.1 5.5 2.5 6.6 2.6 1.1 5.7.9 6.5-1.9 1.3-4.3-6.6-9.2-9-4.7z"/>
    <path stroke-linecap="round" d="M287.8 311.1c-.9 6-.2 11.9-1.1 17.9M279.3 340.6c0-2.2 4.4-10.3 7.3-11.5 5.7 2 4.6 8.7 4.6 11.5"/>
    <path stroke-linecap="round" d="M273.6 315.1c5.4 0 13.5.4 13.7 3.4.1 3-13.5 1.2-15.9 3.1"/>
    <path d="M907.9 313.4c-2.2-1.8-1.5-5.5.7-7.1 2.2-1.7 5-1.1 7.1.7 4.3 3.8-3.5 9.8-7.8 6.4z"/>
    <path stroke-linecap="round" d="M911 315c0 3.2 6.2 12.8 6.4 16.5M927.7 345c-5.2-3.5-7.7-13.5-10.3-13.5-2.9 0-1.8 10.5 3 13.5"/>
    <path stroke-linecap="round" d="M927.7 318.9c-4.4.7-15.7-.5-15.1 1 1.6 3.9 7.7 4.2 15.6 5"/>
    <path d="M874 313.8c-2.2-2-1.7-5.9.3-7.5 2.1-1.7 4.8-.9 6.9 1.1 4.5 4.2-2.9 10.3-7.2 6.4z"/>
    <path stroke-linecap="round" d="M880 315c0 3.2 10.2 11.8 10.4 15.5M900.1 343.7c-1.9-4.7-7.6-13.2-10.2-13.2-4.9 0 1 9.8 3.2 13.2"/>
    <path stroke-linecap="round" d="M898.1 320.6c-6.9-2.6-15.7-1.8-15.1-.2.9 2.4 8.6 3.7 16.4 3.4"/>
    <g>
      <path d="M185.1 102.7c-1 2.7.9 5.5 3.4 6.2 2.7.7 5.8.1 6.2-2.8.6-4.5-7.9-8.2-9.6-3.4z"/>
      <path stroke-linecap="round" d="M190.3 109.4c0 6.1 1.6 11.8 1.6 17.9M184.6 139.6c2.5.7 6.4-9.8 7.1-12 3.5 2.1 5.1 9.4 7.5 12"/>
      <path stroke-linecap="round" d="M181.1 120.8c3.1-1.2 7.1-4 9.9-5.6 2.6-1.5 8.6-2.2 11.9-1.9"/>
    </g>
    <g>
      <path d="M234.1 105.7c1.2-2.6-.4-5.5-2.9-6.4-2.6-1-5.7-.5-6.4 2.3-1 4.3 7.2 8.7 9.3 4.1z"/>
      <path stroke-linecap="round" d="M230.1 107.9c0 6.1 1.6 11.4 1.6 17.5M224.4 139.6c0-4.2 6.4-12.5 7.1-14.8 3.5 2.1 7.5 11.6 7.5 14.8"/>
      <path stroke-linecap="round" d="M221.2 121.7c3.1-1.2 6.5-6.7 9.3-8.4 2.6-1.5 8.2 6 11.4 6.3"/>
    </g>
    <g>
      <path d="M165.8 102.2c-.4-2.9-3.9-3.9-6.4-3-2.6 1-4.7 3.3-3.4 5.9 2.1 3.9 10.5 3.4 9.8-2.9z"/>
      <path stroke-linecap="round" d="M160.7 107.6c0 6.1-.9 12.4-.9 18.5M153.3 139.6c1.2-4.1 4.9-12 6.5-13.6 3.5 2.1 5.1 10.5 5.1 13.6"/>
      <path stroke-linecap="round" d="M152.9 123.9c1.2-3.9 3.7-8.9 6.5-10.5 2.6-1.5 12.2 5.7 7.5 8.4"/>
    </g>
    <g>
      <path stroke-linecap="round" d="M126 110c0 6.1.9 8.3.9 14.4M121.7 140.2c1.7-4.1 1.7-12.8 5.2-14.8 5.1 1.2 2.9 12.8 5.3 15.4"/>
      <path stroke-linecap="round" d="M113.6 113.2c7.9 6 12.4 2.9 12.4 2.9 6.2-2.3 9.3 6.9 12.5 7.2"/>
      <path d="M129.8 101.1c-2.7-.9-6.6-.3-7.3 2.1-.8 2.5 1 6.4 3.9 6.8 4.4.6 8.2-7.3 3.4-8.9z"/>
    </g>
    <g>
      <path d="M1109.9 122.9c.9 2.5.2 5.8-2.2 6.5-2.5.7-6.5-1.3-6.9-3.9-.7-4.1 7.4-7 9.1-2.6z"/>
      <path stroke-linecap="round" d="M1106.3 131c0 6.1-.4 10.4-.9 13.8M1110.1 156.6c-.7-4.3-2.3-9.6-5.3-11.9-2.8 3.3-3.9 9.2-5.3 11.9"/>
      <path stroke-linecap="round" d="M1118.6 126.8c0 1.4-9.5 10.7-12.4 9-2.6-1.5-9.9 6.6-11 7"/>
    </g>
    <g>
      <path d="M1131.8 120.3c-.9 2.7.8 5.5 3.2 6.2 2.5.8 5.3.1 5.7-2.8.6-4.4-7.3-8.2-8.9-3.4z"/>
      <path stroke-linecap="round" d="M1136.2 126.8c0 6.1 1.2 9.9 1.2 16.1M1131 156.6c.7-4.3 4.7-11 6.5-13.1 3.5 2.1 4.6 10 4.6 13.1"/>
      <path stroke-linecap="round" d="M1121.4 125.5c0 1.4 12.8 7.7 15.7 6 2.6-1.5 10.7 8.7 8.3 11.4"/>
    </g>
    <g>
      <path d="M1090.2 260.3c1.2-2.6-.4-5.5-2.9-6.4-2.6-1-5.7-.5-6.4 2.3-1 4.3 7.2 8.7 9.3 4.1z"/>
      <path stroke-linecap="round" d="M1086.2 262.4c0 6.1 1.6 8 1.6 14.2M1082.9 290.7c0-4.2 4.1-12.6 4.7-14.8 3.5 2.1 5.5 11.3 5.5 14.4"/>
      <path stroke-linecap="round" d="M1098.9 255.3c1.2 10.1-9 11.7-11.9 13.4-2.6 1.5-13.1-6.1-13.1-13.6"/>
    </g>
    <g>
      <path stroke-linecap="round" d="M712 89c0 6.1.9 8.3.9 14.4M707.7 119.2c1.7-4.1 1.7-12.8 5.2-14.8 5.1 1.2 2.9 12.8 5.3 15.4"/>
      <path stroke-linecap="round" d="M699.6 84.4c4.7 9 12.4 10.7 12.4 10.7 6.2-2.3 9.3 6.9 12.5 7.2"/>
      <path d="M715.8 80.1c-2.7-.9-6.6-.3-7.3 2.1-.8 2.5 1 6.4 3.9 6.8 4.4.6 8.2-7.3 3.4-8.9z"/>
    </g>
    <g>
      <path d="M375.8 149c1.9 2.5 5.4 2.8 7.4 1.2 2.2-1.7 3.3-4.5 1-6.7-3.5-3.2-11.7 1.1-8.4 5.5z"/>
      <path stroke-linecap="round" d="M381.3 151.4c0 6.1.5 9.8.5 16M377 180.8c1.4-3.5 2.3-13.3 4.5-13.3 3.1 0 2.7 11.5 5 14.1M397.6 159.4c-4.4-.4-14.9.9-14.9-1.2.1-3.2 10.9-3 13.2-5.1"/>
    </g>
    <g>
      <path d="M386.8 5.2c-.4-2.9-3.9-3.9-6.4-3-2.6 1-4.7 3.3-3.4 5.9 2.1 3.9 10.5 3.4 9.8-2.9z"/>
      <path stroke-linecap="round" d="M381.7 10.6c0 6.1-.9 12.4-.9 18.5M374.3 42.6c1.2-4.1 4.9-12 6.5-13.6 3.5 2.1 5.1 10.5 5.1 13.6"/>
      <path stroke-linecap="round" d="M373.9 26.9c1.2-3.9 3.7-8.9 6.5-10.5 2.6-1.5 12.2 5.7 7.5 8.4"/>
    </g>
    <g>
      <path stroke-linecap="round" d="M347 13c0 6.1.9 8.3.9 14.4M342.7 43.2c1.7-4.1 1.7-12.8 5.2-14.8 5.1 1.2 2.9 12.8 5.3 15.4"/>
      <path stroke-linecap="round" d="M334.6 16.2c7.9 6 12.4 2.9 12.4 2.9 6.2-2.3 9.3 6.9 12.5 7.2"/>
      <path d="M350.8 4.1c-2.7-.9-6.6-.3-7.3 2.1-.8 2.5 1 6.4 3.9 6.8 4.4.6 8.2-7.3 3.4-8.9z"/>
    </g>
    <g>
      <path d="M681.6 34.5c-2.3-1.7-1.8-5.4.2-7.1 2.1-1.8 5-1.4 7.2.3 4.6 3.5-3 10-7.4 6.8z"/>
      <path stroke-linecap="round" d="M685.4 35.2c.6 3.2 2.5 12.2 3.4 15.8M695.5 65.6c-1.7-3.9-4.1-15.1-6.7-14.6-2.9.5-1.7 12.2-1.7 16.2"/>
      <path stroke-linecap="round" d="M697.2 49.4c-3.8-4-7.4-7.2-9.4-6.8-9.3 1.8-10.9-3-13.5-2.2"/>
    </g>
    <g>
      <path d="M899.7 154.6c.8-2.5-1-4.9-3.4-5.4-2.5-.5-5.2.2-5.5 2.8-.4 4 7.5 7 8.9 2.6z"/>
      <path stroke-linecap="round" d="M896.3 157c.7 5.5.6 11.4 5.6 17.1M915.7 163.7c-3.1.2-14.5 8-13.6 10.2s14.1-.2 15.2-2.3"/>
      <path stroke-linecap="round" d="M884.9 151.3c-.1 8.6 10.1 12.4 12.5 10.6 2.1-1.6 10.6-2.5 13.7-7"/>
    </g>
    <g>
      <path d="M496.3 178.4c-.3 3.1 2.1 5.7 4.7 5.9 2.7.2 5.5-1.1 5.2-4.3-.4-4.9-9.4-7.1-9.9-1.6z"/>
      <path stroke-linecap="round" d="M498.7 183.8c-4.1 4.5-6.2 7.6-10.4 12.1M475.8 202.7c3.4-1.6 10.7-8.3 12.3-6.8 2.3 2.1-5.8 10.4-5.8 13.9M505.4 200.7c-3-3.3-11.7-9.4-10.2-10.9 2.2-2.4 10.1 5.1 13.2 5.1"/>
    </g>
    <g>
      <path d="M780.8 164.2c-.4-2.9-3.9-3.9-6.4-3-2.6 1-4.7 3.3-3.4 5.9 2.1 3.9 10.5 3.4 9.8-2.9z"/>
      <path stroke-linecap="round" d="M775.7 169.6c0 6.1-.9 12.4-.9 18.5M768.3 201.6c1.2-4.1 4.9-12 6.5-13.6 3.5 2.1 5.1 10.5 5.1 13.6"/>
      <path stroke-linecap="round" d="M767.9 185.9c1.2-3.9 3.7-8.9 6.5-10.5 2.6-1.5 12.2 5.7 7.5 8.4"/>
    </g>
    <g>
      <path d="M161.8 170.3c-.9 2.7.8 5.5 3.2 6.2 2.5.8 5.3.1 5.7-2.8.6-4.4-7.3-8.2-8.9-3.4z"/>
      <path stroke-linecap="round" d="M166.2 176.8c0 6.1 1.2 9.9 1.2 16.1M161 206.6c.7-4.3 4.7-11 6.5-13.1 3.5 2.1 4.6 10 4.6 13.1"/>
      <path stroke-linecap="round" d="M151.4 175.5c0 1.4 12.8 7.7 15.7 6 2.6-1.5 10.7 8.7 8.3 11.4"/>
    </g>
  </g>

  <g id="elastic">
    <path fill="#FFF" d="M371.6 345.4c0-4.8-3-9.1-7.5-10.7.2-1 .3-2.1.3-3.1 0-9-7.3-16.4-16.3-16.4-5.3 0-10.2 2.5-13.3 6.8-1.5-1.2-3.4-1.8-5.3-1.8-4.8 0-8.7 3.9-8.7 8.7 0 1.1.2 2.1.5 3-4.5 1.6-7.6 5.9-7.6 10.8s3 9.1 7.6 10.8c-.2 1-.3 2.1-.3 3.1 0 9 7.3 16.3 16.3 16.3 5.3 0 10.2-2.5 13.2-6.8 1.5 1.2 3.4 1.9 5.3 1.9 4.8 0 8.7-3.9 8.7-8.7 0-1.1-.2-2.1-.5-3 4.5-1.8 7.6-6.1 7.6-10.9"/>
    <path fill="#CCC" d="M336.4 340l12.7 5.8 12.8-11.2c.2-.9.3-1.8.3-2.8 0-7.9-6.4-14.3-14.3-14.3-4.7 0-9.1 2.3-11.8 6.2l-2.1 11 2.4 5.3zM323.3 353.4c-.2.9-.3 1.9-.3 2.9 0 7.9 6.4 14.3 14.3 14.3 4.7 0 9.2-2.4 11.8-6.3l2.1-11-2.8-5.4-12.7-5.8-12.4 11.3zM323.2 331.5l8.7 2.1 1.9-9.9c-1.2-.9-2.6-1.4-4.2-1.4-3.8 0-6.9 3.1-6.9 6.9.1.8.3 1.6.5 2.3M322.5 333.6c-3.9 1.3-6.6 5-6.6 9.1 0 4 2.5 7.5 6.2 9l12.2-11-2.2-4.8-9.6-2.3zM351.4 364.3c1.2.9 2.6 1.4 4.1 1.4 3.8 0 6.9-3.1 6.9-6.9 0-.8-.1-1.6-.4-2.4l-8.7-2-1.9 9.9zM353.2 352.2l9.5 2.2c3.9-1.3 6.6-5 6.6-9.1 0-4-2.5-7.5-6.2-8.9l-12.5 10.9 2.6 4.9z"/>
  </g>

  <path id="influxdb" fill="#AAA" d="M564.8 274.8l-6.5-28.5c-.3-1.5-1.8-3.1-3.4-3.5l-30-9.2c-.4-.1-.9-.2-1.3-.2-1.3 0-2.7.5-3.4 1.3l-21.5 19.9c-1.1 1-1.8 3.1-1.5 4.6l7 30.5c.3 1.5 1.8 3.1 3.4 3.5l28 8.6c.4.1.9.2 1.3.2 1.3 0 2.7-.5 3.4-1.3l22.9-21.3c1.3-1 1.9-3.1 1.6-4.6zM528 240.2l20.5 6.3c.8.3.8.6 0 .8l-10.8 2.5c-.9.2-2-.2-2.5-.8l-7.6-8.2c-.5-.5-.4-.8.4-.6zm12.8 36.9c.2.9-.3 1.3-1.1 1l-22.2-6.8c-.8-.3-.9-.9-.3-1.5l17-15.8c.6-.6 1.3-.3 1.5.4l5.1 22.7zM504.3 257l18-16.8c.6-.6 1.5-.5 2.1.1l9 9.7c.6.6.5 1.5-.1 2.1l-18 16.8c-.6.6-1.5.5-2.1-.1l-9-9.7c-.5-.6-.5-1.5.1-2.1zm4.4 26.6l-4.8-20.9c-.2-.9.1-.9.7-.3l7.6 8.2c.6.6.9 1.8.6 2.6l-3.3 10.6c-.2.6-.7.6-.8-.2zm26.3 12.1l-23.5-7.2c-.8-.3-1.3-1.1-1-1.9l3.9-12.7c.3-.8 1.1-1.3 1.9-1l23.5 7.2c.8.3 1.3 1.1 1 1.9l-3.9 12.7c-.2.9-1.1 1.3-1.9 1zm20.9-17.1l-15.7 14.6c-.6.6-.9.3-.7-.4l3.3-10.6c.3-.8 1.1-1.6 2-1.8l10.8-2.5c.8-.1.9.2.3.7zm1.8-3.1l-13 2.9c-.9.2-1.6-.3-1.8-1.1l-5.5-24c-.2-.9.3-1.6 1.1-1.8l13-2.9c.9-.2 1.6.3 1.8 1.1l5.5 24c.1.8-.4 1.7-1.1 1.8z"/>

  <g id="kibana">
    <path fill="none" stroke="#999" stroke-width="4" stroke-linecap="round" stroke-miterlimit="10" d="M423.8 295.5c-2.6 3.3-33 2.4-41 2.4-8.7 0-40.6.4-41.5-.7-1.6-2.2-1-15-1.4-29.9-.4-13.6-.3-26.8.4-27.4 2.6-2.1 38.1-2.2 42.5-2.2 3.9 0 38.3-.6 39.9.7 4.2 3.4 3.3 25.2 3.3 29.9 0 10.7.7 23.5-2.2 27.2z"/>
    <g fill="#666">
      <path d="M350.5 255.1c.1 0 1.2-.1 1.2-.1v-5.8l-1.3-.1s0-1.8.1-1.8c0 0 4.5-.2 4.6-.1.1.1.1 2 0 2s-.7.2-.7.2v1.4s2.4-1.8 2.4-1.9-.7 0-.7-.1-.2-1.7-.2-1.7 4.9-.1 4.9 0 .1 1.8 0 1.9c-.1.1-.8.1-.9.1-.1 0-2.3 1.8-2.4 1.9-.1.1 2.5 3.9 2.6 3.9.1 0 1 .1 1 .1s.2 1.8.1 1.8-5 .2-5.1.1c-.1-.2-.2-1.8-.2-1.8.1 0 1 .1 1 0s-1.5-2.6-1.6-2.6c-.1-.1-1.1.8-1.1.8-.1.1.1 1.6.1 1.6 0 .1 1 .2 1 .2s-.1 1.7-.1 1.8c0 .1-4.8.1-4.8.1.2 0 0-1.9.1-1.9zM366.9 255.1l1.4.2v1.7c-.1.1-5.9 0-5.9 0s-.1-.9-.1-1.8l1.5-.1v-2.8h-1.3s-.3-1.8-.3-1.9c0-.1 3.6-.2 4.7 0v4.7zm0-7.5c0 .8-.4 1.5-1.6 1.5-1.2 0-1.8-.5-1.8-1.4 0-.9.8-1.5 1.7-1.5.8.1 1.7.7 1.7 1.4zM369.9 256.9s.1-7.7 0-7.8c0 0-1.3-.2-1.4-.2 0 0 .1-1.8.1-1.9 0-.1 4.4-.3 4.4-.3v3.5s.6-.5 2-.5c1.7 0 3.7.7 3.7 3.6 0 2.9-2.5 3.8-4 3.8-1.6 0-2-.6-2-.6l-.2.4c0 .2-2.6 0-2.6 0zm3.4-3.4c0 .9.5 1.4 1.2 1.4s1.1-.5 1.1-1.4c0-.9-.4-1.5-1.2-1.5-.6 0-1.1.7-1.1 1.5zM386.1 250.7v-.7s3.6-.1 3.6 0 .1 1.9.1 1.9l-1.2.2c-.1 0 0 3 0 3s1.4 0 1.4.1v2c-.1 0-3.8-.1-3.8-.1l-.2-.7s-.7.9-2.4.9c-1.6 0-3.7-.9-3.7-3.7 0-2.7 2.1-3.4 3.8-3.4 1.3-.2 2.4.5 2.4.5zm-3.3 2.7c0 .8.7 1.3 1.3 1.3.8 0 1.3-.5 1.3-1.3 0-.7-.6-1.4-1.2-1.4-.8.1-1.4.6-1.4 1.4zM400.3 255.1l.7.1s.1 1.4 0 1.8h-4.4s-.1-1.5-.1-1.8l.8-.1v-1.5c0-.9-.5-1.4-1.3-1.4-.7 0-1.3.6-1.3 1.4v1.5l1 .2v1.7c-.1.1-4.9 0-4.8 0 0 0-.1-.9-.1-1.8l1.1-.1v-3.3h-1s-.3-1.9-.3-2c0-.1 3.3-.4 3.3-.4l.5 1s.8-.9 2.2-.9c1.7 0 3.5.7 3.5 3.6l.2 2zM407.8 250.7v-.7s3.6-.1 3.6 0 .1 1.9.1 1.9l-1.2.2c-.1 0 0 3 0 3s1.4 0 1.4.1v2c-.1 0-3.8-.1-3.8-.1l-.2-.7s-.7.9-2.4.9c-1.6 0-3.7-.9-3.7-3.7 0-2.7 2.1-3.4 3.8-3.4 1.4-.2 2.4.5 2.4.5zm-3.2 2.7c0 .8.7 1.3 1.3 1.3.8 0 1.3-.5 1.3-1.3 0-.7-.6-1.4-1.2-1.4-.9.1-1.4.6-1.4 1.4z"/>
    </g>
  </g>

  <g id="grafana">
    <path fill="#FFF" stroke="#999" stroke-width="4" stroke-linecap="round" stroke-miterlimit="10" d="M525.1 378.3c-4.5 5.1-133.8 1-138.3-3.7-3.2-3.3 1.4-90.9 2.6-91.8 4.5-3.2 135.6 1.9 138.1 4 6.7 5.8 2.6 85.8-2.4 91.5z"/>
    <g fill="#666">
      <path d="M408.2 292.9c.1-.3.1-.8.1-.8s2.6.4 2.7.4l-.3 3.4-2.9.2c-.1-.4-.4-1.3-1.9-1.3s-2.4 1.4-2.4 2.9c0 1.3 1 2.6 2.6 2.6 1.1 0 1.3-.9 1.3-.9H406c-.3-.3-.2-2-.2-2 .6-.2 5.5.2 5.5.2.3 1 .5 4.4.5 4.7 0 .1-2.7.2-2.7.2l-.2-1c-.4.5-1.6 1.2-3 1.2-3.7 0-5.9-1.9-5.9-5.1-.1-3.9 3.1-5.3 5.9-5.3 1.1 0 1.9.2 2.3.6zM419.9 298c-.2-.2-.7-.6-1.3-.6-.9 0-1.5.6-1.5 1.4 0 .9.1 1.3.1 1.3l1.7.2v1.8c-.1.1-5.7 0-5.7 0s-.1-1-.1-1.9l1.1-.1v-3.3h-1l-.3-1.8c0-.1 3.4-.5 3.4-.5l.5 1s.6-.7 2-.7c1.5 0 2.7 1 2.6 1.1.3.4-1.4 2.2-1.5 2.1zM427.9 295.9v-.7s3.6-.1 3.6 0 .1 1.9.1 1.9l-1.2.2c-.1 0 0 3 0 3s1.4 0 1.4.1v2c-.1 0-3.8-.1-3.8-.1l-.2-.7s-.7.9-2.4.9c-1.6 0-3.7-.9-3.7-3.7 0-2.7 2.1-3.4 3.8-3.4 1.4-.2 2.4.5 2.4.5zm-3.3 2.8c0 .8.7 1.3 1.3 1.3.8 0 1.3-.5 1.3-1.3 0-.7-.6-1.4-1.2-1.4-.8.1-1.4.6-1.4 1.4zM432.8 300.2c.1 0 1.4-.2 1.4-.2l-.2-2.5h-1.3s-.1-2 0-2.1h1.3c0-.5-.1-3.5 2.7-3.5 1.9 0 3.4.9 3.4.9l-1.4 1.8s-.7-.3-1.3-.3c-.5 0-.5 1.1-.5 1.1l2 .1c.2.7.1 2.1.1 2.1h-2.1l.1 2.4 1.5.1.1 2.2s-5.4.1-5.5 0c-.1-.1-.4-2.1-.3-2.1zM446.5 295.9v-.7s3.6-.1 3.6 0 .1 1.9.1 1.9l-1.2.2c-.1 0 0 3 0 3s1.4 0 1.4.1v2c-.1 0-3.8-.1-3.8-.1l-.2-.7s-.7.9-2.4.9c-1.6 0-3.7-.9-3.7-3.7 0-2.7 2.1-3.4 3.8-3.4 1.4-.2 2.4.5 2.4.5zm-3.2 2.8c0 .8.7 1.3 1.3 1.3.8 0 1.3-.5 1.3-1.3 0-.7-.6-1.4-1.2-1.4-.9.1-1.4.6-1.4 1.4zM460.8 300.3l.7.1s.1 1.4 0 1.8h-4.4s-.1-1.5-.1-1.8l.8-.1v-1.5c0-.9-.5-1.4-1.3-1.4-.7 0-1.3.6-1.3 1.4v1.5l1 .2v1.7c-.1.1-4.9 0-4.8 0 0 0-.1-.9-.1-1.8l1.1-.1V297h-1s-.3-1.9-.3-2c0-.1 3.3-.4 3.3-.4l.5 1s.8-.9 2.2-.9c1.7 0 3.5.7 3.5 3.6l.2 2zM468.3 295.9v-.7s3.6-.1 3.6 0 .1 1.9.1 1.9l-1.2.2c-.1 0 0 3 0 3s1.4 0 1.4.1v2c-.1 0-3.8-.1-3.8-.1l-.2-.7s-.7.9-2.4.9c-1.6 0-3.7-.9-3.7-3.7 0-2.7 2.1-3.4 3.8-3.4 1.3-.2 2.4.5 2.4.5zm-3.3 2.8c0 .8.7 1.3 1.3 1.3.8 0 1.3-.5 1.3-1.3 0-.7-.6-1.4-1.2-1.4-.8.1-1.4.6-1.4 1.4z"/>
    </g>
    <g fill="#999">
      <path d="M408.5 377.7l-9.2-.3c-.2-1.3-.8-36.4-.7-36.8.3-1.4 9.4-1.5 9.6-.6.6 2.2.6 35.4.3 37.7zM454.7 379.7l-9.2-.3c-.2-1.3-.8-36.4-.7-36.8.3-1.4 9.4-1.5 9.6-.6.5 2.2.6 35.4.3 37.7zM516.5 380.7l-9.2-.3c-.2-1.3-.8-36.4-.7-36.8.3-1.4 9.4-1.5 9.6-.6.6 2.2.6 35.4.3 37.7zM439.3 380.1l-9.2-.2c-.2-.9-.6-27.1-.6-27.4.3-1 9.4-1.1 9.6-.5.6 1.6.5 26.3.2 28.1zM424.2 379l-9.2-.5c-.3-1.9-1.1-55.8-1-56.4.3-2.1 9.4-2.1 9.6-.9.5 3.4.9 54.2.6 57.8zM470.2 380.3l-9.2-.4c-.3-1.7-1-47.9-.9-48.4.3-1.8 9.4-1.9 9.6-.8.6 2.9.8 46.5.5 49.6zM485.2 380.4l-9.2-.1c-.2-.6-.5-16.8-.4-17 .3-.6 9.4-.8 9.6-.4.5 1.1.3 16.4 0 17.5zM501.3 380.3l-9.2.2c-.3-2.7-1.4-77.5-1.3-78.2.3-2.9 9.4-2.9 9.6-1.2.5 4.6 1.2 74.2.9 79.2z"/>
    </g>
  </g>
  <g id="ratpack" fill="#666">
    <path d="M157.8 287.9c-.3 0-.9.1-1.3.5-.6.6-.6 1.4 0 2 .6.6 1 .9 1 .9l1.3-1.1 1.3 1.3c0 .1-4 4-4 4s-.8-.6-1.5-1.3l.7-.8-2.3-2.3-.7.7s-1.4-1-1.5-1.1l2.1-2.8 1.1.3s-.1-.9.9-1.9c1.1-1.1 2.6-1.2 2.6-1.1.3.2.3 2.7.3 2.7zM161.9 280.7l-.5-.5s2.5-2.6 2.5-2.5l1.4 1.2s-.7 1-.7 1.1c0 .1 2.1 2.1 2.1 2.1s1-1 1.1-.9c.1 0 1.4 1.4 1.4 1.4s-2.7 2.7-2.8 2.6l-.6-.4s.2 1.1-1 2.3c-1.1 1.1-3.2 2-5.3 0-1.9-1.9-1-3.9.2-5.1 1-1 2.2-1.3 2.2-1.3zm-.3 4.3c.6.6 1.4.5 1.9 0s.6-1.3 0-1.9c-.5-.5-1.4-.6-1.8-.1-.7.7-.7 1.4-.1 2zM166.6 272.2l1.6 1.4 1.5-1.5s1.1.9 1.4 1.5l-1.5 1.6s1.5 1.8 2 1.4c.4-.4.6-1.2.6-1.2l2.3.6s-.3 1.9-1.6 3.2c-2 2-3.6.2-5.5-1.7 0 0-.8.8-.9.8l-1.4-1.5.8-.9-1-1.3c-.1-.5 1.7-2.4 1.7-2.4zM174.1 268.3s-.1-.8 1.1-2c1.1-1.1 3.3-2.1 5.4-.1 2.1 2.1 1.1 4-.1 5.2-1 1-1.7 1.1-1.7 1.1l1 1s1.3-1 1.3-1.1c.1 0 1.4 1.3 1.4 1.3l-4.3 4.3-1.4-1.3.8-1-4.1-4.1-.9.9c-.6-.6-1.5-1.4-1.5-1.4s2.3-3 2.4-3c0 .1.6.2.6.2zm4.3 0c-.7-.7-1.3-.7-1.8-.2-.5.5-.5 1.2.2 1.8.6.6 1.4.7 1.8.3.6-.6.5-1.2-.2-1.9zM183.7 259l-.5-.5s2.5-2.6 2.5-2.5l1.4 1.2s-.7 1-.7 1.1c0 .1 2.1 2.1 2.1 2.1s1-1 1.1-.9c.1 0 1.4 1.4 1.4 1.4s-2.7 2.7-2.8 2.6l-.6-.4s.2 1.1-1 2.3c-1.1 1.1-3.2 2-5.3 0-1.9-1.9-1-3.9.2-5.1.9-1.1 2.2-1.3 2.2-1.3zm-.4 4.3c.6.6 1.4.5 1.9 0s.6-1.3 0-1.9c-.5-.5-1.4-.6-1.8-.1-.6.6-.7 1.4-.1 2zM192.3 249.2c.1 0 2 2 2 2l-1.7 2.1s-.8-.6-1.5.1c-.4.4-.6 1.1.1 1.8.6.6 1.5.3 1.9-.1.6-.6.5-1.1.5-1.3.6-.4 2.8-.6 2.8-.6s.4 1.8-1.4 3.6c-1.9 1.9-4.3 2.4-6 .6-1.8-1.8-1-4.1.3-5.4.9-.9 1.6-1 1.6-1l-.4-.6c-.1.2 1-.9 1.8-1.2zM196.8 252.2c.1-.1.8-.9.8-.9l-4.1-4.1s-.9.9-1 .9l-1.2-1.3s2.3-3 2.4-3c.5-.1 2.9 2.5 4.2 3.8 0 0 .7-1.8.6-1.9s-.6.4-.7.4c-.1 0-1.2-1-1.2-1s3.8-3.7 3.8-3.6c.1.1 1.3 1.2 1.3 1.3 0 .1-.8.7-.8.8 0 .1-.4 2-.4 2.1 0 .1 3.1-.3 3.2-.3.1 0 .8-.7.9-.7l1.3 1.1c0 .1-3.6 3.9-3.8 3.8-.2-.1-1.4-1.1-1.4-1.1l.4-.5c-.1 0-2.1.3-2.1.5 0 .1.6.7.7.8l.6-.4s1.1 1.2 1.2 1.3l-3.2 3.3c-.1 0-1.6-1.2-1.5-1.3z"/>
  </g>

  <g id="maven" fill="#666">
    <path d="M202.6 359.6c.1-.1 1.2 0 1.2-.1v-5.4c0-.1-.9 0-1-.1-.2-.1-.2-2.2-.1-2.3.1-.1 3.9-.1 4 0 .1 0 1.8 2.4 1.9 2.5.1-.1 2-2.4 2.1-2.5.1-.1 4.2 0 4.2 0v2.1c0 .1-1.2.1-1.2.1s0 5.4.1 5.5 1.3 0 1.3.1.2 2.1.1 2c-.1 0-5.7 0-5.7-.1s-.1-1.9 0-1.9h1.1v-3.9l-1.2 1.5s-1.5.1-1.6.1-1.2-1.6-1.2-1.6.1 3.7.1 3.8c0 .1 1.2.1 1.2.2s.2 2 .1 2-5.3-.1-5.3-.1c0 .2-.2-1.8-.1-1.9zM221.8 355.3v-.7s3.6-.1 3.6 0 .1 1.9.1 1.9l-1.2.2c-.1 0 0 3 0 3s1.4 0 1.4.1v2c-.1 0-3.8-.1-3.8-.1l-.2-.7s-.7.9-2.4.9c-1.6 0-3.7-.9-3.7-3.7 0-2.7 2.1-3.4 3.8-3.4 1.4-.2 2.4.5 2.4.5zm-3.3 2.8c0 .8.7 1.3 1.3 1.3.8 0 1.3-.5 1.3-1.3 0-.7-.6-1.4-1.2-1.4-.8.1-1.4.6-1.4 1.4zM226.6 356.4s-.3-1.4-.2-1.8h5s.1 1.6.1 1.8h-.9l1.3 2.4 1.2-2.3h-.8v-1.8c.1-.1 4.9 0 4.8 0 0 0 .1.9.1 1.8l-1 .1s-2.1 4-3.1 5.3c0 0-2 .1-2.7 0 0 0-2.4-4.1-2.6-5.3l-1.2-.2zM245.7 356.4l-.5 1.4-3.3 1.5c.2.2 1.9.3 3 .3 0 .9-.4 2.3-.4 2.3-4.3.3-6.9-1.4-6.9-3.9s2.1-3.6 4.3-3.6c2.2 0 3.8 1.4 3.8 2zm-5 1.3l2.1-1.1c-.1-.1-.4-.4-.7-.4-1.2.1-1.7.9-1.4 1.5zM256 359.8l.7.1s.1 1.4 0 1.8h-4.4s-.1-1.5-.1-1.8l.8-.1v-1.5c0-.9-.5-1.4-1.3-1.4-.7 0-1.3.6-1.3 1.4v1.5l1 .2v1.7c-.1.1-4.9 0-4.8 0 0 0-.1-.9-.1-1.8l1.1-.1v-3.3h-1s-.3-1.9-.3-2c0-.1 3.3-.4 3.3-.4l.5 1s.8-.9 2.2-.9c1.7 0 3.5.7 3.5 3.6l.2 2z"/>
  </g>

  <g id="jetty" fill="#666">
    <path d="M20.5 209.6c0 1.2-.3 3.5-3.1 3.5-1.9 0-3-.9-3-.9l1.4-1.9s.4.3 1 .3.7-.5.7-.9c0-1.3-.3-3.5-.5-4.2l-1.1-.1-.1-2.3s4 0 4.1.1c.2.4.6 4.2.6 6.4zm-.6-9.4c0 .8-.4 1.5-1.6 1.5-1.2 0-1.8-.5-1.8-1.4 0-.9.8-1.5 1.7-1.5.8 0 1.7.7 1.7 1.4zM29.2 204.3l-.5 1.4-3.3 1.5c.2.2 1.9.3 3 .3 0 .9-.4 2.3-.4 2.3-4.3.3-6.9-1.4-6.9-3.9s2.1-3.6 4.3-3.6c2.1 0 3.7 1.4 3.8 2zm-5 1.3l2.1-1.1c-.1-.1-.4-.4-.7-.4-1.3.1-1.7.9-1.4 1.5zM34.5 200.5l.1 2.1h2.1s.1 1.4-.1 2.1l-2.2.1s-.2 2.4.5 2.4c.5 0 1.2-.4 1.2-.4l1.2 2s-1.6 1.2-3.4 1.2c-2.8 0-2.7-2.5-2.7-5.1H30v-2.1l1.2-.1s.2-1.6.2-1.7c.5-.4 3.1-.5 3.1-.5zM42.4 200.5l.1 2.1h2.1s.1 1.4-.1 2.1l-2.2.1s-.2 2.4.5 2.4c.5 0 1.2-.4 1.2-.4l1.2 2s-1.6 1.2-3.4 1.2c-2.8 0-2.7-2.5-2.7-5.1h-1.2v-2.1l1.2-.1s.2-1.6.2-1.7c.5-.4 3.1-.5 3.1-.5zM45.6 204.3s-.3-1.4-.2-1.8h5s.1 1.6.1 1.8h-.9l1.3 2 1.2-1.9h-.8v-1.8c.1-.1 4.9.1 4.8.1 0 0 .1.9.1 1.8h-.9s-4.6 7.5-5.6 8.8c0 0-2.4-.4-2.9-1.2-.1 0 2.5-3.2 2.4-3.3 0 0-2.4-3.2-2.6-4.4l-1-.1zM61.1 203.1c0 .8-.4 1.5-1.6 1.5-1.2 0-1.8-.5-1.8-1.4 0-.9.8-1.5 1.7-1.5.8 0 1.7.7 1.7 1.4zm0 5.1c0 .8-.4 1.5-1.6 1.5-1.2 0-1.8-.5-1.8-1.4 0-.9.8-1.5 1.7-1.5.8 0 1.7.6 1.7 1.4zM69.5 199.7c0 .1-4.9 10.4-5.2 10.4-.3-.1-1.8-.9-1.8-1s5-10.1 5-10.1c.1 0 2 .7 2 .7zM77.9 199.7c0 .1-4.9 10.4-5.2 10.4-.3-.1-1.8-.9-1.8-1s5-10.1 5-10.1c.1 0 2 .7 2 .7z"/>
  </g>

  <g id="kotlin" fill="#666">
    <path d="M1094 168.4c.1 0 1.2-.1 1.2-.1l-.2-5.8s-1.3 0-1.3-.1v-1.8s4.5-.3 4.6-.3c.1.1.1 2 .1 2l-.7.3v1.4s2.4-1.9 2.4-2-.7 0-.7-.1-.2-1.7-.2-1.7 4.9-.2 4.9-.1.1 1.8.1 1.9c0 .1-.8.1-.9.2 0 0-2.2 1.9-2.3 2-.1.1 2.7 3.8 2.7 3.8.1 0 1 .1 1 .1s.2 1.7.2 1.8c0 0-5 .4-5.1.2-.1-.2-.3-1.8-.3-1.8h1s-1.6-2.5-1.7-2.6c-.1-.1-1 .8-1.1.9-.1.1.1 1.6.1 1.6 0 .1 1.1.1 1.1.1v1.8c0 .1-4.8.2-4.8.2.1 0-.2-1.9-.1-1.9zM1113.8 166.1c.1 1.9-1.1 3.8-4 3.9-2.6.1-4.4-1-4.5-3.7-.1-2.7 1.8-3.7 4.2-3.8 2.5 0 4.2 1.3 4.3 3.6zm-5.4.3c0 .8.8 1.3 1.4 1.3.7 0 1.1-.5 1.1-1.4 0-.7-.4-1.4-1.2-1.4-1 0-1.3.7-1.3 1.5zM1118.8 160.4l.2 2.1 2.1-.1s.2 1.4 0 2.1l-2.2.2s-.1 2.4.5 2.4c.5 0 1.2-.5 1.2-.5l1.3 2s-1.5 1.2-3.4 1.3c-2.8.1-2.8-2.4-2.8-5h-1.2v-2.1l1.2-.2s.1-1.6.1-1.7c.4-.3 3-.5 3-.5zM1127.8 167.1l1.4.1.1 1.9c-.1.1-5.7.2-5.7.2s-.3-1-.3-1.9l1.4-.2-.2-5.9-1.1-.1s-.3-1.8-.3-1.9c0-.1 3.4-.5 4.5-.3l.2 8.1zM1135 167l1.4.1.1 1.7c-.1.1-5.9.2-5.8.2 0 0-.2-.9-.2-1.8l1.4-.1-.1-2.8-1.3.1s-.3-1.8-.3-1.9c0-.1 3.5-.3 4.7-.1l.1 4.6zm-.3-7.4c0 .8-.4 1.5-1.5 1.5-1.2 0-1.8-.5-1.9-1.4 0-.9.7-1.5 1.6-1.5.9 0 1.8.6 1.8 1.4zM1146.8 166.6l.7.1s.2 1.4.1 1.8l-4.4.1s-.2-1.5-.1-1.8l.8-.2-.1-1.5c0-.9-.5-1.4-1.3-1.4-.7 0-1.2.6-1.2 1.5l.1 1.5 1 .1.1 1.7c-.1.1-4.9.2-4.8.2 0 0-.2-.9-.2-1.8l1.1-.1-.1-3.3-1 .1s-.3-1.9-.3-2c0-.1 3.3-.5 3.3-.5l.6 1s.7-.9 2.2-1c1.7-.1 3.5.6 3.6 3.5l-.1 2z"/>
  </g>

  <g id="PostgreSQL" fill="#666">
    <path d="M968.8 379c.2-.1 1.2-.1 1.2-.1l-.2-5.4h-1.1s-.2-2.3-.1-2.3 2.8-.1 4.2-.1c2.4 0 4.8.5 4.8 3.1 0 2.9-3.1 3.2-4.7 3.2v1.4l1.6.2c.1 0 .1 1.8 0 1.9-.1.1-5.6 0-5.6 0 .1.1-.3-1.8-.1-1.9zm5.9-4.7c0-1-1.9-.8-1.9-.8l.1 1.7c0 .1 1.8.1 1.8-.9zM986.4 377.5c0 1.9-1.2 3.8-4.1 3.8-2.6 0-4.4-1.1-4.4-3.8 0-2.7 2-3.7 4.4-3.7s4.1 1.3 4.1 3.7zm-5.4.1c0 .8.7 1.3 1.4 1.3s1.2-.4 1.2-1.3c0-.7-.3-1.4-1.2-1.4-1.1-.1-1.4.6-1.4 1.4zM992.3 373.6s1.7 0 2.4.2c.1 0-.2 2.2-.2 2.5 0 .1-2.3 0-2.3-.1-.1-.4-.5-.6-.9-.6-.2 0-.5 0-.5.4 0 .3.9.5 1.8.8 1 .4 2.1 1.2 2.1 2.4 0 1.1-1.3 2-2.8 2-1.5 0-2-.3-2.2-.5 0 .2-.1.6-.1.6-.1 0-2.3-.2-2.3-.2v-2.7c.8-.1 1.9-.1 2.1-.1.2.5.7.8 1 .8.3 0 .6-.1.6-.4 0-.4-.7-.6-1.4-.8-1-.4-2.2-.9-2.2-2.4 0-1 1.1-2 3.1-2 .9 0 1.4.2 1.6.4l.2-.3zM1000.2 371.9l.1 2.1h2.1s.1 1.4-.1 2.1l-2.2.1s-.2 2.4.5 2.4c.5 0 1.2-.4 1.2-.4l1.2 2s-1.6 1.2-3.4 1.2c-2.8 0-2.7-2.5-2.7-5.1h-1.2v-2.1l1.2-.1s.2-1.6.2-1.7c.5-.4 3.1-.5 3.1-.5zM1013.3 380.9c0 1.2-.8 3.5-4.2 3.5-2.3 0-3.1-.8-3.1-.8l1-2s.7.5 1.9.5c1.3 0 1.6-1.3 1.3-1.7 0 0-.6.7-2.3.7-1.6 0-3.7-.9-3.7-3.7 0-2.7 2.1-3.4 3.8-3.4 1.4 0 2.5.7 2.5.7v-.7s3.6-.1 3.6 0 .1 2.1.1 2.1-1 .2-1.1.2c0 .7.2 2.4.2 4.6zm-6.1-3.6c0 .8.7 1.3 1.3 1.3.8 0 1.3-.5 1.3-1.3 0-.7-.6-1.4-1.2-1.4-.9.1-1.4.6-1.4 1.4zM1021.9 376.8c-.2-.2-.7-.6-1.3-.6-.9 0-1.5.6-1.5 1.4 0 .9.1 1.3.1 1.3l1.7.2v1.8c-.1.1-5.7 0-5.7 0s-.1-1-.1-1.9l1.1-.1v-3.3h-1l-.3-1.8c0-.1 3.4-.5 3.4-.5l.5 1s.6-.7 2-.7c1.5 0 2.7 1 2.6 1.1.3.4-1.4 2.1-1.5 2.1zM1031.9 375.7l-.5 1.4-3.3 1.5c.2.2 1.9.3 3 .3 0 .9-.4 2.3-.4 2.3-4.3.3-6.9-1.4-6.9-3.9s2.1-3.6 4.3-3.6c2.2 0 3.8 1.4 3.8 2zm-5 1.3l2.1-1.1c-.1-.1-.4-.4-.7-.4-1.2.1-1.7.9-1.4 1.5zM1038.6 370.6s1.8-.1 2.6.2c.1 0-.2 2.7-.2 3.2 0 .2-2.6.2-2.6.1-.1-.8-.7-1.1-1.2-1.1-.3 0-.9.1-.9.7 0 .5 1.3.8 2.5 1.4 1.5.7 2.8 1.5 2.8 3.2 0 1.6-1.7 2.8-3.3 2.8-1.7 0-2.4-.5-2.6-.8 0 .3-.1.9-.1.9-.1 0-2.5-.1-2.5-.1v-3.6c1.1-.2 2.3-.3 2.6-.2.3 1 1 1.5 1.5 1.5s.9-.2.9-.6c0-.8-1.1-1.1-2.1-1.5-1.5-.7-3-1.4-3-3.4 0-1.4 1.4-2.5 3.6-2.5 1 0 1.6.3 1.9.6l.1-.8zM1053.6 376.2c0 3.1-1.4 4.6-3.7 5.1.1.3.1.6.6.7.6.1 1.4-.2 1.8-.4 0 0 .9 1.7.9 2.1-.3.5-1.9 1-3.4.8-2.6-.4-3.3-2.1-3.4-3.1-2.6-.5-4-2.6-4-5.2 0-3 2.3-5.1 5.5-5.1s5.7 1.4 5.7 5.1zm-7.9 0c0 1.3.7 2.7 2.4 2.7s2.1-1.1 2.1-2.5c0-1.6-.5-2.8-2.1-2.8s-2.4 1.3-2.4 2.6zM1060.4 371.2s.1 2 0 2.1c-.1 0-1.4.2-1.4.2-.2 1-.3 5.4-.3 5.4s1.7 0 1.7-.1l.6-1.8 2.2.2c.1 0 .1 3.8.1 3.8s-8.9.1-8.9 0-.1-2 0-2c0 0 1.1 0 1.2-.1 0 0 .1-4.2.2-5.6 0-.1-1 0-1 0s-.2-2.1-.1-2.2c.2 0 5.7.1 5.7.1z"/>
  </g>

  <g id="css" fill="#666">
    <path d="M682.3 73.4c.1 0 .7 3.4.7 3.4l-2.6.9s-.7-1.3-2.1-1c-.9.2-1.4 1.1-1 2.6.4 1.6 1.7 1.9 2.5 1.7 1-.3 1.7-1.2 1.8-1.4.9.5 2.6 1.2 2.6 1.2s-.5 2.3-3.7 3c-2.6.6-5.7-.4-6.5-3.7-.8-3.4 1.3-5.3 3.6-5.9 1.2-.3 2.1.1 2.1.1v-.8c-.1.2 1.8-.2 2.6-.1zM688.7 71.1s1.7-.5 2.6-.4c.1 0 .4 2.7.5 3.1 0 .2-2.5.8-2.5.8-.3-.8-.9-.9-1.4-.8-.3.1-.9.3-.7.9.1.5 1.4.5 2.8.8 1.6.4 3 .8 3.4 2.5.4 1.5-1 3.1-2.6 3.5-1.7.4-2.4 0-2.7-.2 0 .3.1.9.1.9-.1 0-2.5.5-2.5.5-.1-.3-.7-2.7-.9-3.5 1.1-.5 2.2-.8 2.5-.8.5.9 1.3 1.2 1.8 1.1.5-.1.8-.4.8-.8-.2-.8-1.3-.8-2.4-1-1.6-.3-3.2-.6-3.7-2.6-.3-1.3.8-2.8 3-3.3 1-.2 1.6-.1 2 .1l-.1-.8zM698 68.8s1.7-.5 2.6-.4c.1 0 .4 2.7.5 3.1 0 .2-2.5.8-2.5.8-.3-.8-.9-.9-1.4-.8-.3.1-.9.3-.7.9.1.5 1.4.5 2.8.8 1.6.4 3 .8 3.4 2.5.4 1.5-1 3.1-2.6 3.5-1.7.4-2.4 0-2.7-.2 0 .3.1.9.1.9-.1 0-2.5.5-2.5.5-.1-.3-.7-2.7-.9-3.5 1.1-.5 2.2-.8 2.5-.8.5.9 1.3 1.2 1.8 1.1.5-.1.8-.4.8-.8-.2-.8-1.3-.8-2.4-1-1.6-.3-3.2-.6-3.7-2.6-.3-1.3.8-2.8 3-3.3 1-.2 1.6-.1 2 .1l-.1-.8z"/>
  </g>

  <g id="html" fill="#666">
    <path d="M728.2 107c.1 0 1.2.3 1.2.3l1.8-5.5s-.9-.3-1-.4.8-1.9.8-1.9l4.5 1.8-.6 1.9-1.1-.3-.5 1.5 3 1.3.6-1.6-.9-.4s.2-1.1.5-1.9c1.7.2 5.2 2 5.2 2s-.7 1.8-.8 1.8l-1.2-.3-1.8 5.2 1 .5-.7 1.9-4.9-1.8.7-1.9 1.1.3.6-1.7-3.2-1.3s-.8 1.9-.7 1.9c.1 0 1.1.4 1 .4 0 .1-.4 1.8-.5 1.8-.1 0-4.8-1.7-4.9-1.9.1-.4.7-1.7.8-1.7zM752.6 107.4c0 .1-1.4 3.9-1.4 4s-2.1-.8-2.1-.8l.4-1.7s-1.1-.4-1.2-.4-1.7 5.3-1.8 5.3 1.6.6 1.7.6c0 .1-.5 1.8-.6 1.9-.1.1-6.7-2.4-6.7-2.5l.7-1.8s2 .6 2 .5 1.8-5.2 1.8-5.2l-1.3-.5-.7 1.6c0 .1-2.2-.9-2.3-.9-.1 0 1.3-3.5 1.5-3.6s10 3.5 10 3.5zM751 115.4c.1 0 1.1.4 1.1.4s1.9-5 1.9-5.1c0-.1-.8-.3-.9-.4-.1-.1.6-2.1.7-2.2.1 0 3.7 1.3 3.7 1.4.1.1.8 2.9.9 3 .1-.1 2.8-1.6 2.9-1.6.1 0 3.9 1.5 3.9 1.5s-.7 1.9-.7 2-1.2-.3-1.2-.3-2 5.1-1.9 5.2c0 .1 1.2.5 1.2.6s-.6 2-.6 2-5.3-2-5.2-2.2c.1-.2.6-1.8.7-1.8.1 0 1.1.4 1.1.4l1.4-3.6s-1.6 1-1.7.9-1.5-.4-1.5-.5c0-.1-.6-1.9-.6-1.9s-1.2 3.5-1.2 3.6c0 .1 1.1.5 1.1.6l-.6 1.9-4.9-2c-.3.1.3-1.9.4-1.9zM771.7 115s-.6 2-.7 1.9c-.1 0-1.3-.3-1.3-.3-.5.9-2.2 5-2.2 5l1.6.6s1.2-1.4 1.2-1.5c0-.1 2 1 2 1l-1.3 3.6s-8.3-3-8.3-3.2.7-1.9.7-1.9 1.1.4 1.1.3c0 0 1.6-3.9 2.1-5.1 0-.1-1-.3-1-.4 0 0 .5-2.1.7-2.1.3 0 5.4 2.1 5.4 2.1z"/>
  </g>

  <g id="webpack">
    <path fill="#CCC" d="M74 115.6L46.8 131v-12l17-9.3 10.2 5.9zm1.9-1.7V81.7l-10 5.8v20.7l10 5.7zm-58.7 1.7L44.4 131v-12l-17-9.3-10.2 5.9zm-1.9-1.7V81.7l10 5.8v20.7l-10 5.7zm1.2-34.3l27.9-15.8v11.6l-17.9 9.9-.1.1-9.9-5.8zm58.2 0L46.8 63.8v11.6l17.9 9.8.1.1 9.9-5.7z"/>
    <path fill="#999" d="M44.4 116.2L27.7 107V88.8l16.8 9.7v17.7zm2.4 0l16.8-9.2V88.8l-16.8 9.7v17.7zm-18-29.5l16.8-9.2 16.8 9.2-16.8 9.7-16.8-9.7z"/>
  </g>

  <g id="python">
    <path id="path1948" fill="#999" d="M621.8 288.4c-1.7 0-3.4.2-4.9.4-4.3.8-5.1 2.4-5.1 5.3v3.9H622v1.3h-14c-3 0-5.5 1.8-6.4 5.2-.9 3.9-1 6.3 0 10.3.7 3 2.4 5.2 5.4 5.2h3.5v-4.6c0-3.4 2.9-6.3 6.4-6.3h10.2c2.8 0 5.1-2.3 5.1-5.2v-9.7c0-2.8-2.3-4.8-5.1-5.3-1.7-.4-3.5-.5-5.3-.5zm-5.5 3.1c1.1 0 1.9.9 1.9 1.9 0 1.1-.9 1.9-1.9 1.9-1.1 0-1.9-.9-1.9-1.9 0-1 .9-1.9 1.9-1.9z"/>
    <path id="path1950" fill="#CCC" d="M633.5 299.2v4.5c0 3.5-3 6.4-6.4 6.4H617c-2.8 0-5.1 2.4-5.1 5.2v9.7c0 2.8 2.4 4.4 5.1 5.2 3.2.9 6.3 1.1 10.2 0 2.6-.7 5.1-2.2 5.1-5.2v-3.9h-10.2v-1.3H637.4c3 0 4.1-2.1 5.1-5.2 1.1-3.2 1-6.2 0-10.3-.7-2.9-2.1-5.2-5.1-5.2h-3.9zm-5.7 24.6c1.1 0 1.9.9 1.9 1.9 0 1.1-.9 1.9-1.9 1.9-1.1 0-1.9-.9-1.9-1.9 0-1.1.8-1.9 1.9-1.9z"/>
  </g>

  <g id="git">
    <path fill="#999" d="M859.6 174.7l-26.8 26.8c-2.2 2.3-2.2 5.9 0 8.1l39 39c2.2 2.2 5.9 2.2 8.1 0l38.8-38.8c2.2-2.2 2.2-5.9 0-8.1l-39-39c-2.2-2.2-5.9-2.2-8.1 0l-8.1 8.1"/>
    <path fill="#FFF" d="M918.9 201.6l-39-39c-2.2-2.2-5.9-2.2-8.1 0l-8.1 8.1L874 181c2.4-.8 5.1-.3 7 1.6 1.9 1.9 2.5 4.7 1.6 7.1l9.9 9.9c2.4-.8 5.2-.3 7.1 1.6 2.7 2.7 2.7 7 0 9.7-2.7 2.7-7 2.7-9.7 0-2-2-2.5-5-1.5-7.4l-9.2-9.2v24.3c.7.3 1.3.8 1.8 1.3 2.7 2.7 2.7 7 0 9.7-2.7 2.7-7 2.7-9.7 0-2.7-2.7-2.7-7 0-9.7.7-.7 1.4-1.2 2.2-1.5v-24.5c-.8-.3-1.6-.8-2.2-1.5-2-2-2.5-5-1.5-7.5l-10.1-10.1-26.8 26.8c-2.2 2.3-2.2 5.9 0 8.1l39 39c2.2 2.2 5.9 2.2 8.1 0l38.8-38.8c2.3-2.4 2.3-6.1.1-8.3z"/>
    <path fill="none" stroke="#999" stroke-width="4" stroke-miterlimit="10" d="M859.6 174.7l-26.8 26.8c-2.2 2.3-2.2 5.9 0 8.1l39 39c2.2 2.2 5.9 2.2 8.1 0l38.8-38.8c2.2-2.2 2.2-5.9 0-8.1l-39-39c-2.2-2.2-5.9-2.2-8.1 0l-8.1 8.1-3.9 3.9z"/>
  </g>

  <g id="react" fill="#999">
    <path d="M469.2 114c-.9-6.1-9.4-10.7-21.5-12.5.9-12.3-1.7-21.5-7.4-23.7-1.3-.5-2.8-.6-4.3-.4l.6 4.2c.9-.1 1.6-.1 2.2.2 2.8 1.1 4.7 6.4 4.9 13.7.1 1.8 0 3.7-.1 5.6-3.8-.3-7.9-.4-12.1-.2-3-3.1-6.1-5.8-9.2-8.1 5.2-6.6 10.5-10.5 14.3-11.1l-.6-4.2c-5.1.8-11.3 5.4-17.1 12.8-7.7-5.3-15-7.9-20.1-7.1l.6 4.2c3.9-.6 10 1.6 17 6.3-2.2 3.1-4.3 6.6-6.3 10.5-4.1 1.1-8 2.4-11.5 3.8-.7-1.8-1.3-3.6-1.8-5.3-2-7-1.7-12.7.6-14.5.5-.4 1.2-.7 2.1-.8l-.6-4.2c-1.6.2-2.9.8-4.1 1.7-4.8 3.8-4.5 13.4 0 24.8-11.1 5.3-17.7 12.2-16.8 18.2.9 6.1 9.4 10.7 21.5 12.5-.9 12.3 1.7 21.5 7.4 23.7 1.3.5 2.8.6 4.4.4 5.1-.8 11.3-5.4 17.1-12.8 7.7 5.3 15 7.9 20.1 7.1 1.6-.2 2.9-.8 4.1-1.7 4.8-3.8 4.5-13.4 0-24.8 10.8-5.3 17.5-12.2 16.6-18.3zm-26.2-8.7c-.3 2.5-.8 5.1-1.4 7.7-1-1.4-2-2.7-3.1-4.1-1.1-1.4-2.2-2.7-3.3-4 2.7 0 5.3.1 7.8.4zm-5.5 21.1c-1.1 2.7-2.2 5.3-3.4 7.8-2.7.7-5.5 1.2-8.4 1.6-2.8.4-5.6.7-8.4.9-1.9-2-3.8-4.1-5.6-6.4-1.8-2.2-3.4-4.5-5-6.8.8-2.7 1.7-5.4 2.7-8 1.1-2.7 2.2-5.3 3.4-7.8 2.7-.7 5.5-1.2 8.4-1.6 2.8-.4 5.6-.7 8.4-.9 1.9 2 3.8 4.1 5.6 6.4 1.8 2.2 3.4 4.5 5 6.8-.8 2.7-1.7 5.4-2.7 8zm5.6-3.3c1.4 2.3 2.6 4.7 3.7 7-2.4 1-4.8 1.9-7.5 2.7.7-1.6 1.4-3.2 2-4.8.7-1.7 1.3-3.3 1.8-4.9zm-15.9 22.7c-2-1.5-4-3.3-6.1-5.2l5.1-.6c1.8-.3 3.5-.6 5.2-.9-1.3 2.4-2.7 4.7-4.2 6.7zm-15.5-8.8c-2.7 0-5.3-.1-7.9-.3.3-2.5.8-5.1 1.4-7.7 1 1.4 2 2.7 3.1 4.1 1.2 1.3 2.3 2.6 3.4 3.9zm7.9-40.9c2 1.5 4 3.3 6.1 5.2l-5.1.6c-1.8.3-3.5.6-5.2.9 1.3-2.4 2.8-4.7 4.2-6.7zm-12.1 13c-.7 1.6-1.4 3.2-2 4.8-.6 1.6-1.2 3.2-1.7 4.8-1.4-2.3-2.6-4.7-3.7-7 2.3-.9 4.8-1.8 7.4-2.6zM394.1 135c-7-1.8-11.9-4.9-12.3-7.8-.4-2.9 3.3-7.3 9.4-11.1 1.5-.9 3.2-1.8 4.9-2.7 1.6 3.5 3.6 7.1 5.9 10.7-1.1 4.1-1.9 8.1-2.4 11.9-1.9-.1-3.7-.5-5.5-1zm14.1 25.2c-2.8-1.1-4.7-6.4-4.9-13.7-.1-1.8 0-3.7.1-5.6 3.8.3 7.9.4 12.1.2 3 3.1 6.1 5.8 9.2 8.1-5.2 6.6-10.5 10.5-14.3 11.1-.8.2-1.6.1-2.2-.1zm42.1-20.9c2 7 1.7 12.7-.6 14.5-.5.4-1.2.7-2.1.8-3.9.6-10-1.6-17-6.3 2.2-3.1 4.3-6.6 6.3-10.5 4.1-1.1 8-2.4 11.5-3.8.8 1.8 1.4 3.6 1.9 5.3zm5.3-13.6c-1.5.9-3.2 1.8-4.9 2.7-1.6-3.5-3.6-7.1-5.9-10.7 1.1-4.1 1.9-8.1 2.4-11.9 1.9.3 3.8.7 5.5 1.1 7 1.8 11.9 4.9 12.3 7.8.5 2.9-3.2 7.2-9.4 11zM398.6 83.1z"/>
    <circle cx="423.4" cy="121" r="8.6"/>
    <path d="M435.8 77.4z"/>
  </g>

  <g id="java">
    <g fill="#CCC">
      <path d="M134.6 276c10.8 12.4-2.8 23.5-2.8 23.5s27.3-14.1 14.8-31.8c-11.7-16.5-20.7-24.7 28-52.9-.1.1-76.5 19.1-40 61.2"/>
      <path d="M146.5 169.3s23.2 23.2-22 58.8c-36.2 28.6-8.3 44.9 0 63.6-21.1-19.1-36.7-35.9-26.2-51.5 15.2-23 57.6-34.1 48.2-70.9"/>
    </g>
    <g fill="#999">
      <path d="M94.9 341.8s-8.5 4.9 6.1 6.6c17.7 2 26.7 1.7 46.2-2 0 0 5.1 3.2 12.3 6-43.7 18.8-98.9-1-64.6-10.6M89.6 317.4s-9.6 7.1 5 8.6c18.9 1.9 33.8 2.1 59.6-2.9 0 0 3.6 3.6 9.2 5.6-52.8 15.5-111.6 1.3-73.8-11.3"/>
      <path d="M192.4 359.9s6.3 5.2-7 9.2c-25.2 7.6-104.9 9.9-127.1.3-8-3.5 7-8.3 11.7-9.3 4.9-1.1 7.7-.9 7.7-.9-8.9-6.2-57.2 12.2-24.6 17.5 89.1 14.6 162.3-6.4 139.3-16.8M99 292.1s-40.6 9.6-14.4 13.1c11.1 1.5 33.1 1.1 53.6-.6 16.8-1.4 33.6-4.4 33.6-4.4s-5.9 2.5-10.2 5.5c-41.2 10.8-120.7 5.8-97.8-5.3 19.5-9.4 35.2-8.3 35.2-8.3M171.8 332.8c41.9-21.7 22.5-42.7 9-39.8-3.3.7-4.8 1.3-4.8 1.3s1.2-1.9 3.6-2.8c26.7-9.4 47.3 27.7-8.6 42.4-.1 0 .6-.6.8-1.1"/>
      <path d="M103.1 391.7c40.2 2.6 101.9-1.4 103.3-20.5 0 0-2.8 7.2-33.2 12.9-34.3 6.5-76.6 5.7-101.7 1.6.1.1 5.2 4.3 31.6 6"/>
    </g>
  </g>

  <g id="jenkins">
    <path fill="#FFF" d="M750.1 195.4c0 22.4-17.8 40.6-39.7 40.6-21.9 0-39.7-18.2-39.7-40.6 0-22.4 17.8-40.6 39.7-40.6 21.9 0 39.7 18.2 39.7 40.6"/>
    <path fill="#999" d="M683.1 167.7c-7 7.1-11.3 17-11.3 27.9 0 10.9 4.3 20.7 11.3 27.9 7 7.1 16.6 11.5 27.2 11.5 10.6 0 20.2-4.4 27.2-11.5s11.3-17 11.3-27.9c0-10.9-4.3-20.7-11.3-27.9-7-7.1-16.6-11.5-27.2-11.5-10.6-.1-20.2 4.4-27.2 11.5zm-1.7 57.5c-7.4-7.6-12-18.1-12-29.6 0-11.6 4.6-22 12-29.6 7.4-7.6 17.7-12.3 29-12.3s21.6 4.7 29 12.3c7.4 7.6 12 18.1 12 29.6 0 11.6-4.6 22-12 29.6-7.4 7.6-17.7 12.3-29 12.3-11.4-.1-21.6-4.8-29-12.3"/>
    <path fill="#CCC" d="M727.1 195.6l-6.1.9-8.2.9-5.3.2-5.1-.2-3.9-1.2-3.5-3.8-2.7-7.7-.6-1.7-3.6-1.2-2.1-3.5-1.5-5 1.7-4.4 3.9-1.4 3.2 1.5 1.5 3.3 1.8-.3.6-.8-.6-3.5-.2-4.4.9-6.1v-3.5l2.8-4.4 4.8-3.5 8.5-3.6 9.4 1.4 8.2 5.9 3.8 6.1 2.4 4.4.6 10.9-1.8 9.4-3.3 8.3-3.2 4.4"/>
    <path fill="#999" d="M721.9 221.8l-21.6.9v3.6l1.8 12.7-.9 1.1L686 235l-1.1-1.8-1.5-17.1-3.5-10.3-.8-2.4 12.1-8.3 3.8-1.5 3.3 4.1 2.9 2.6 3.3 1.1 1.5.5 1.8 7.9 1.4 1.7 3.5-1.2-2.4 4.7 13.2 6.2-1.6.6"/>
    <path fill="#6C6C6C" d="M686 169l3.9-1.4 3.2 1.5 1.5 3.3 1.8-.3.5-1.8-.9-3.5.9-8.3-.8-4.5 2.7-3.2 5.9-4.7-1.7-2.3-8.3 4.1-3.5 2.7-2 4.2-3 4.1-.9 4.8.7 5.3"/>
    <path fill="#DADADA" d="M692.3 154.8s2.3-5.6 11.4-8.3c9.1-2.7.5-2 .5-2l-9.8 3.8-3.8 3.8-1.7 3 3.4-.3m-4.6 13.1s-3.2-10.6 8.9-12.1l-.5-1.8-8.3 2-2.4 7.9.6 5.1 1.7-1.1"/>
    <path fill="#E7E7E7" d="M694.1 172.3s-5.8-3.5-6.4-.2-2 5.8.9 9.2l-2-.6-1.8-4.7-.6-4.5 3.5-3.6 3.9.3 2.3 1.8.2 2.3"/>
    <path fill="#999" d="M723.3 222l5.6-.2 1.4 13.9-5.8.8-1.2-14.5"/>
    <path fill="#999" d="M724.8 222l8.5-.5s3.5-8.8 3.5-9.2c0-.5 3-12.7 3-12.7l-6.8-7.1-1.4-1.2-3.6 3.6V209l-3.2 13"/>
    <path fill="#FFF" d="M705.2 251.8l-3.1-12.7-1.6-9.4-.3-7 14.2-.8h8.8l1.3 15.5.7 11.6 1 2.5-14 1.8-7-1.5m25.3-17.3l5.9-1.7 11.2-.6 1.7-5.1-3-8.9-3.5-.5-4.8 1.5-4.6 2.3-2.5-.5-1.9.8m-22.4-23.9l-4.2-.5-3.9-1.2v1.4l1.9 2.1 6.1 2.7"/>
    <path fill="#CCC" d="M730.5 205.7c-2.6-.1-4.9-.4-6.9-1 .1-.8-.1-1.7.1-2.3.6-.4 1.5-.4 2.4-.5-.7-.4-1.8-.5-2.6-.3 0-.6-.3-.9-.4-1.4 1.4-.5 4.9-3.9 6.8-2.8.9.5 1.3 3.6 1.4 5-.1 1.4-.3 2.6-.8 3.3m-11.5-2c0 .5 0 1-.1 1.5-1.6 1-3.1 2.6-5.1 3.6-.9.5-4.1 1.7-5.1 1.4-.5-.1-.6-.8-.8-1.4-.5-1.3-1.5-3.3-1.6-5.2-.1-2.4-.4-6.5 2.4-6 2.3.4 4.9 1.4 6.7 2.3 1.1.5 1.7 1.2 3.3 1.3"/>
    <path fill="#E32D22" d="M718.8 201.3v.6"/>
    <path fill="#CCC" d="M719.7 204.3c-.2-1.3-.5-1.6-.4-2.8 3.4-2.2 4 3.9.4 2.8"/>
    <path fill="#444" d="M712.7 156.7c-4.1-1-6.2 1.7-7.4 4.5-1.1-.3-.7-1.8-.4-2.6.7-2 3.7-4.7 6.1-4.4 1.1.2 2.5 1.2 1.7 2.5m20.1 4.7h.2c.9 1.9 1.7 4 2.9 5.7-.8 1.8-6 3.5-5.9.2 1.1-.5 3.1-.1 4-.7-.5-1.6-1.3-3-1.2-5.2m-18 0c.9 1.6 1.2 3.3 2.4 4.6.6.6 1.7 1.2 1.1 2.8-.1.4-1.1 1.2-1.6 1.3-2 .6-6.5.1-5-2.3 1.6.1 3.8 1.1 5-.1-.8-1.6-2.5-4.5-1.9-6.3m17.3 16.5c-3 1.9-6.3 4-11.1 3.5-1-.9-1.4-2.9-.4-4.2.5.9.2 2.6 1.7 2.8 2.8.5 6-1.7 7.9-2.4 1.2-2.1-.1-2.8-1.2-4.2-2.3-2.7-5.3-6.1-5.2-10.2.9-.7 1 1 1.1 1.3 1.2 2.8 4.2 6.3 6.3 8.7.5.6 1.4 1.1 1.5 1.5.3 1.1-.8 2.5-.6 3.2m-39.1-2c-.9-.5-1.1-2.9-2.2-2.9-1.6-.1-1.3 3-1.3 4.9-1.1-1-1.3-4-.5-5.5-.9-.4-1.3.5-1.8.8.7-4.7 6.9-2.2 5.8 2.7m40.9 4c-1.4 2.6-3.3 5.5-7.4 5.6-.1-.8-.1-2.1 0-2.6 3.2-.4 5.1-2 7.4-3m-19.3 1.7c2.6 1.4 7.3 1.5 10.8 1.4.2.8.2 1.7.2 2.7-4.5.1-9.8-1-11-4.1m-.5 2.5c1.8 4.5 7.9 4 13.1 3.8-.2.6-.7 1.3-1.3 1.5-1.7.7-6.2 1.2-8.5 0-1.5-.8-2.4-2.5-3.2-3.6-.5-.4-2.4-1.7-.1-1.7"/>
    <path fill="#A4A4A4" d="M731.8 208.8c-2.1 3.6-4.1 7.3-6.6 10.4 1-3.1 1.5-8.2 1.6-12.1 2.3-1 4.1.2 5 1.7"/>
    <path fill="#444" d="M743.1 221.7c-2.3.5-4 2.7-6.3 2.6 1.3-1.8 3.5-2.6 6.3-2.6m1 3.6c-1.9.2-4.2.5-6.1.4 1-1.4 4.5-.9 6.1-.4m.7 3.2c-2.1 0-4.8 0-6.9-.2 1.3-1.3 5.5-.5 6.9.2"/>
    <path fill="#DADADA" d="M724.3 197.4c-1.1.7-2 1.6-3 2.3-2.3.1-3.5-.2-5.2-1.5 0-.1.2-.1.2-.2 2.4 1.2 5.6-.4 8-.6"/>
    <path fill="#A4A4A4" d="M711.4 214.2c.7-2.9 3.3-4.4 5.7-6.1 2.5 3.1 4 7.2 5.6 11.1-3.8-1.2-7.8-3.1-11.3-5"/>
    <path fill="#444" d="M725.2 237.5c-.1 2.4.2 6.2.3 8.7 1.6 0 2.3-.3 3.5-.7.1-3-.9-5.7-1.2-8.4-.6-.1-1.8.5-2.6.4zm-24.7-13.6c1 9.6 2.6 17.7 5.4 26.3 6.2 1.9 13.6 2 19.1.3-1-4.8-.6-10.7-1.2-15.8-.4-3.9-.2-7.8-.8-11.7-6.7-1.3-16-.3-22.5.9zm24-.8c-.1 4.1.2 8.2.5 12.4 1.6-.2 2.7-.4 4.1-.7-.5-4-.4-8.5-1.4-12-1.1-.1-2.1-.1-3.2.3zm8.1-.7c-.8-.2-1.6 0-2.4 0 .3 3.4 1.2 7.1 1.5 10.6 1.1 0 1.7-.5 2.7-.7 0-3-.3-7.3-1.8-9.9zm12.2 11.2c2.4-.6 3.8-3.5 3.2-6.4-.4-2-1.2-5.8-2.1-7-.6-.9-2.3-2.2-3.7-1.3-2.2 1.4-6.1 1.8-7.7 3.5.8 2.7 1.1 6.4 1.4 9.8 2.7.2 6.1-.8 8.4.2-1.6.5-3.7.5-5 1.3 1.1.4 3.8.3 5.5-.1zm-22-14.4c-1.7-3.9-3.2-8-5.6-11.1-2.4 1.6-5 3.1-5.7 6.1 3.4 1.9 7.4 3.8 11.3 5zm4.1-12.1c-.2 3.9-.6 9-1.6 12.1 2.5-3.2 4.5-6.8 6.6-10.4-1-1.5-2.8-2.7-5-1.7zm-4.6-1.6c-.9-.1-1.7 1.1-3 .6-.3.3-.5.6-.8.9 2.7 3.3 3.9 7.9 6 11.7 1.1-3.7 1-7.7 1.2-11.7-1.5.1-2.4-1.4-3.4-1.5zm-3-4c-.1 1.1.2 1.5.4 2.8 3.6 1.1 3-5-.4-2.8zm-4.1-1.3c-1.6-.9-4-1.8-6-2.2-2.5-.5-2.3 3.4-2.2 5.8.1 1.9 1 3.8 1.5 5.1.2.6.2 1.2.7 1.3.9.2 3.7-.9 4.6-1.4 1.7-.9 3.1-2.4 4.5-3.4 0-.5 0-1 .1-1.5-.9-.4-1.9-.8-3.2-.8.9-.4 2.2-.4 3-1v-.6c-1.5-.1-2-.8-3-1.3zm-15.1-2.7c-1.3 1.3 3.7 3.1 5.3 3.2 0-.8.5-1.6.4-2.2-1.9-.4-4.4-.2-5.7-1zm16.2.6c0 .1-.2.1-.2.2 1.7 1.3 2.9 1.6 5.2 1.5 1-.8 2-1.6 3-2.3-2.4.1-5.6 1.7-8 .6zm14.8 4.5c-.1-1.5-.5-4.5-1.4-5-1.9-1.1-5.3 2.3-6.8 2.8.2.5.4.8.4 1.4.9-.2 1.9-.1 2.6.3-.9.1-1.8.1-2.4.5-.2.6.1 1.4-.1 2.3 2 .6 4.4.9 6.9 1 .7-.9.9-2.1.8-3.3zm-33.2-3.9c-.4-.3-3.2-3.9-3.6-3.8-5 2-9.8 5.4-14 8.7 4 8.6 5.6 19.2 5.9 29.3 4.6 2.2 8.6 5.3 14.9 5.6-.7-5.1-1.4-9.7-1.8-14.5-1.6-.7-3.8 0-5.3-.2 0-1.8 2.2-.8 2.4-2 .1-.9-1.2-1-.8-2.4 1.1.4 1.7 1.3 3 1.7 1.1-2.4 0-6.8.1-8.8 0-.4.2-2.1 1.1-1.8.8.3 0 4.6 0 6.6.1 1.8-.2 3.5.5 4.6 6-.8 12.2-1.4 18.7-1.5-1.4-.6-3.1-1.2-5-2.3-1-.6-4.2-1.8-4.5-2.7-.5-1.5 1.2-2.4 1.5-3.7-3 1.7-3.6-1.6-4.4-3.9-.7-2.1-1-3.6-1.2-4.8-2.4-1.2-5.2-2.5-7.5-4.1zm30.5-3.3c4.2-2 5 7.6 3.3 10.7.3.9 1.1 1.3 1.5 2.1-2.3 4.2-4.9 8.1-7.3 12.3 1.8-1.1 4.3-.2 6.4-1 .8-.3 1.3-2.1 1.9-3.5 1.6-3.9 3.3-8.7 4-12.4.2-.8.6-2.7.5-3.4-.2-1.3-2-2.3-2.9-3.2-1.7-1.5-2.8-2.9-4.5-4.3-.7 1.1-2.3 1.9-2.9 2.7zm-40.1-37.2c-2 2.2-1.6 6.3-1.3 9.3 3.6-2.3 8.4.2 8.4 4 1.7 0 .6-2.2.3-3.5-1-4.4 1.7-9.3.1-13.3-3.1.2-5.6 1.5-7.5 3.5zm14.3-12.8c-4.5 1.3-10.3 4.6-12.2 8.6 1.4-.2 2.4-.9 3.9-1 .5 0 1.2.2 1.9.1 1.2-.3 2.3-3.1 3.2-4.1.9-1 2-1.4 2.7-2.3.5-.2 1.2-.2 1.2-.9-.2-.3-.4-.5-.7-.4zm23.6 1.2c-4.7-2.7-12.7-4.6-17.7-2.2-4 2-9.5 5.3-11.3 9.6 1.7 4.1-.5 7.8-.7 11.9-.1 2.2 1 4.1 1.1 6.5-.6 1-2.4 1.1-3.7 1-.4-2.1-1.2-4.5-3.3-4.7-3.1-.3-5.3 2.2-5.5 4.9-.2 3.1 2.4 8.3 6.1 8 1.4-.1 1.8-1.6 3.3-1.5.8 1.7-1.3 2.2-1.5 3.4-.1.3.2 1.5.3 2.1.7 2.7 2.1 6.3 3.6 8.4 1.8 2.6 5.5 3 9.4 3.3.7-1.5 3.3-1.4 4.9-1-2-.8-3.9-2.7-5.4-4.4-1.8-2-3.6-4.1-3.7-6.6 3.4 4.7 6.1 8.7 12.2 10.8 4.6 1.5 10-.7 13.6-3.2 1.5-1 2.3-2.7 3.4-4.2 3.9-5.6 5.7-13.7 5.3-21.5-.2-3.2-.2-6.4-1.2-8.6-1.1-2.3-4.9-4.3-7.2-2.2-.4-2.2 1.9-3.6 4.5-2.8-1.8-2.5-3.8-5.5-6.5-7zm8.8 72.5c3.7-1.8 10.5-4.9 12.8 0 .8 1.8 1.8 4.9 2.3 6.8.6 2.6-.7 8.2-3.4 9.1-2.4.8-5.2.7-8.1.2-.3-.3-.7-.8-1-1.3-2.1-.1-4 .1-5.6 1 .2 1.5-.9 1.8-1.8 2.1-.7 2.8 1.4 6.6.9 9.2-.4 1.8-2.6 2.1-4.3 2.5-.1 1 .1 1.9.2 2.8-.4 1.4-2.1 2.2-3.7 2.4-5.3.6-13.4.9-18.6-.9-1.4-3.5-2.6-7.8-3.8-11.8-5 .5-9.1-2.2-12.9-3.9-1.3-.6-3.2-1-3.6-2-.5-1-.3-3-.4-4.8-.3-4.7-.6-9.3-1.8-14.1-.6-2.2-1.5-4.1-2.2-6.2-.6-1.9-1.7-4.3-2-6.3-.4-2.9 2.3-3 4-4.3 2.7-1.9 4.7-3 7.6-4.7.9-.5 3.4-1.8 3.7-2.4.6-1.2-1-2.9-1.4-3.8-.7-1.5-1-2.7-1.1-4.2-2.4-.4-4.2-1.8-5.4-3.4-1.8-2.7-3.1-7.7-1.5-11.4.1-.3.7-.9.8-1.3.2-.9-.3-2.1-.4-3.1-.2-4.9.8-9.1 4.1-10.6 1.3-5.3 6.1-7.1 10.7-9.8 1.7-1 3.6-1.6 5.5-2.3 6.9-2.5 17.5-2.1 23.2 2.3 2.4 1.8 6.3 5.7 7.7 8.5 3.7 7.4 3.4 19.8.8 28.8-.3 1.2-.8 3-1.5 4.4-.5 1-2 3.1-1.8 3.9.2.9 3.5 3.4 4.2 4.1 1.3 1.2 3.7 2.8 3.8 4.4.2 1.6-.7 3.9-1.2 5.4-1.5 5.1-3 10-4.8 14.7"/>
    <path fill="#444" d="M723.7 208.7c0 .5-.4.8-.8.8-.5 0-.8-.4-.8-.8 0-.5.4-.8.8-.8.5 0 .8.4.8.8m.9 3.9c0 .5-.4.8-.8.8-.5 0-.8-.4-.8-.8 0-.5.4-.8.8-.8s.8.3.8.8"/>
  </g>

  <g id="python-deploy-scripts" fill="#666">
    <path d="M635.6 290.3s-.6-.5-.6-2.2c0-1.6.8-3.9 3.7-3.9 2.9 0 3.6 2 3.6 3.8 0 1.4-.4 2-.4 2h1.4s.2-1.6.2-1.7c.1-.1 1.9-.1 1.9-.1v6.1l-1.9.1-.1-1.3h-5.8v1.2c-.9 0-2.1.1-2.1.1s-.5-3.7-.4-3.8c-.1.1.5-.3.5-.3zm3-3c-.9 0-1.4.5-1.4 1.1 0 .7.5 1.2 1.4 1.2.8 0 1.5-.5 1.5-1.1 0-.8-.5-1.2-1.5-1.2zM636.8 283.9s-1.4.3-1.8.2v-5s1.6-.1 1.8-.1v.9l2-1.3-1.9-1.2v.8h-1.8c-.1-.1.1-4.9.1-4.8 0 0 .9-.1 1.8-.1v.9s7.5 4.6 8.8 5.6c0 0-.4 2.4-1.2 2.9 0 .1-3.2-2.5-3.3-2.4 0 0-3.2 2.4-4.4 2.6l-.1 1zM633 267.9l2.1-.1v-2.1s1.4-.1 2.1.1l.1 2.2s2.4.2 2.4-.5c0-.5-.4-1.2-.4-1.2l2-1.2s1.2 1.6 1.2 3.4c0 2.8-2.5 2.7-5.1 2.7v1.2h-2.1l-.1-1.2s-1.6-.2-1.7-.2c-.4-.6-.5-3.1-.5-3.1zM640.1 254.8l.1-.7s1.4-.1 1.8 0v4.4s-1.5.1-1.8.1l-.1-.8h-1.5c-.9 0-1.4.5-1.4 1.3 0 .7.6 1.3 1.4 1.3h1.5l.2-1h1.7c.1.1 0 4.7 0 4.7s-.9.1-1.8.1l-.1-.9h-6s-.2 1.3-.2 1.4c0 0-1.8-.1-1.9-.1-.1 0-.1-4.1-.1-4.1h3.2s-.5-.6-.5-2c0-1.7.7-3.5 3.6-3.5l1.9-.2zM638.6 245c1.9 0 3.8 1.2 3.8 4.1 0 2.6-1.1 4.4-3.8 4.4-2.7 0-3.7-2-3.7-4.4s1.3-4.1 3.7-4.1zm0 5.5c.8 0 1.3-.7 1.3-1.4s-.4-1.2-1.3-1.2c-.7 0-1.4.3-1.4 1.2 0 1 .7 1.4 1.4 1.4zM640.1 235l.1-.7s1.4-.1 1.8 0v4.4s-1.5.1-1.8.1l-.1-.8h-1.5c-.9 0-1.4.5-1.4 1.3 0 .7.6 1.3 1.4 1.3h1.5l.2-1h1.7c.1.1 0 4.9 0 4.8 0 0-.9.1-1.8.1l-.1-1.1h-3.3v1s-1.9.3-2 .3c-.1 0-.4-3.3-.4-3.3l1-.5s-.9-.8-.9-2.2c0-1.7.7-3.5 3.6-3.5l2-.2zM641.6 220.4s.6.4.6 2.1c0 1.6-.8 3.9-3.7 3.9-2.9 0-3.6-2-3.6-3.7 0-1.4.5-2 .5-2H634s-.2 1.2-.2 1.3c-.1.1-1.8-.1-1.8-.1v-4.4h7.9l.1-1.3h2.1s.1 3.9 0 4l-.5.2zm-3 2.9c.9 0 1.4-.5 1.4-1.1 0-.7-.5-1.2-1.4-1.2-.8 0-1.5.5-1.5 1.1-.1.9.5 1.2 1.5 1.2zM636.8 207.8l1.4.5 1.5 3.3c.2-.2.3-1.9.3-3 .9 0 2.3.4 2.3.4.3 4.3-1.4 6.9-3.9 6.9s-3.6-2.1-3.6-4.3c0-2.2 1.4-3.8 2-3.8zm1.3 5l-1.1-2.1c-.1.1-.4.4-.4.7.1 1.2.9 1.7 1.5 1.4zM635.6 202.9s-.6-.5-.6-2.2c0-1.6.8-3.9 3.7-3.9 2.9 0 3.6 2 3.6 3.8 0 1.4-.4 2-.4 2h1.4s.2-1.6.2-1.7c.1-.1 1.9-.1 1.9-.1v6.1l-1.9.1-.1-1.3h-5.8v1.2c-.9 0-2.1.1-2.1.1s-.5-3.7-.4-3.8c-.1 0 .5-.3.5-.3zm3-3.1c-.9 0-1.4.5-1.4 1.1 0 .7.5 1.2 1.4 1.2.8 0 1.5-.5 1.5-1.1 0-.8-.5-1.2-1.5-1.2zM640 191.6l.1-1.4h1.9c.1.1 0 5.7 0 5.7s-1 .3-1.9.3l-.2-1.4H634l-.2 1.1s-1.8.3-1.9.3c-.1 0-.3-3.4-.1-4.5h8.2zM638.6 180.9c1.9 0 3.8 1.2 3.8 4.1 0 2.6-1.1 4.4-3.8 4.4-2.7 0-3.7-2-3.7-4.4s1.3-4.1 3.7-4.1zm0 5.5c.8 0 1.3-.7 1.3-1.4s-.4-1.2-1.3-1.2c-.7 0-1.4.3-1.4 1.2 0 1 .7 1.4 1.4 1.4zM636.8 180.5s-1.4.3-1.8.2v-5s1.6-.1 1.8-.1v.9l2-1.3-1.9-1.2v.8h-1.8c-.1-.1.1-4.9.1-4.8 0 0 .9-.1 1.8-.1v.9s7.5 4.6 8.8 5.6c0 0-.4 2.4-1.2 2.9 0 .1-3.2-2.5-3.3-2.4 0 0-3.2 2.4-4.4 2.6l-.1 1zM634.7 156.6s0-1.7.2-2.4c0-.1 2.2.2 2.5.2.1 0 0 2.3-.1 2.3-.4.1-.6.5-.6.9 0 .2 0 .5.3.5s.5-.9.8-1.8c.4-1 1.2-2.1 2.4-2.1 1.1 0 2 1.3 2 2.8 0 1.5-.3 2-.5 2.2.2 0 .6.1.6.1 0 .1-.2 2.3-.2 2.3h-2.7c-.1-.8-.1-1.9-.1-2.1.5-.2.8-.7.8-1 0-.3-.1-.6-.4-.6-.4 0-.6.7-.8 1.4-.4 1-.9 2.2-2.4 2.2-1 0-2-1.1-2-3.1 0-.9.2-1.4.4-1.6l-.2-.2zM635 144.9c.1-.1 2.8.1 2.8.1l.3 2.7s-1 .1-1 1.1c0 .6.4 1.2 1.3 1.2s1.3-.8 1.3-1.4c0-.8-.4-1.2-.6-1.3.1-.7 1.5-2.4 1.5-2.4s1.6.9 1.6 3.6c0 2.6-1.3 4.7-3.8 4.7-2.6 0-3.6-2.2-3.6-4 0-1.3.4-1.9.4-1.9l-.7-.2c.1.1.1-1.5.5-2.2zM637.8 137c-.2.2-.6.7-.6 1.3 0 .9.6 1.5 1.4 1.5.9 0 1.3-.1 1.3-.1l.2-1.7h1.8c.1.1 0 5.7 0 5.7s-1 .1-1.9.1l-.1-1.1h-3.3v1l-1.8.3-.5-3.4 1-.5s-.7-.6-.7-2c0-1.5 1-2.7 1.1-2.6.5-.3 2.2 1.4 2.1 1.5zM632.7 129.8c.8 0 1.5.4 1.5 1.6 0 1.2-.5 1.8-1.4 1.8-.9 0-1.5-.8-1.5-1.7 0-.9.7-1.7 1.4-1.7zm7.5-.1l.2-1.4h1.7c.1.1 0 5.9 0 5.9s-.9.1-1.8.1l-.1-1.5h-2.8v1.3s-1.8.3-1.9.3c-.1 0-.2-3.6 0-4.7h4.7zM635.6 123.8s-.6-.5-.6-2.2c0-1.6.8-3.9 3.7-3.9 2.9 0 3.6 2 3.6 3.8 0 1.4-.4 2-.4 2h1.4s.2-1.6.2-1.7c.1-.1 1.9-.1 1.9-.1v6.1l-1.9.1-.1-1.3h-5.8v1.2c-.9 0-2.1.1-2.1.1s-.5-3.7-.4-3.8c-.1 0 .5-.3.5-.3zm3-3c-.9 0-1.4.5-1.4 1.1 0 .7.5 1.2 1.4 1.2.8 0 1.5-.5 1.5-1.1 0-.9-.5-1.2-1.5-1.2zM633 112.5l2.1-.1v-2.1s1.4-.1 2.1.1l.1 2.2s2.4.2 2.4-.5c0-.5-.4-1.2-.4-1.2l2-1.2s1.2 1.6 1.2 3.4c0 2.8-2.5 2.7-5.1 2.7v1.2h-2.1l-.1-1.2s-1.6-.2-1.7-.2c-.4-.5-.5-3.1-.5-3.1zM634.7 103.8s0-1.7.2-2.4c0-.1 2.2.2 2.5.2.1 0 0 2.3-.1 2.3-.4.1-.6.5-.6.9 0 .2 0 .5.3.5s.5-.9.8-1.8c.4-1 1.2-2.1 2.4-2.1 1.1 0 2 1.3 2 2.8 0 1.5-.3 2-.5 2.2.2 0 .6.1.6.1 0 .1-.2 2.3-.2 2.3h-2.7c-.1-.8-.1-1.9-.1-2.1.5-.2.8-.7.8-1 0-.3-.1-.6-.4-.6-.4 0-.6.7-.8 1.4-.4 1-.9 2.2-2.4 2.2-1 0-2-1.1-2-3.1 0-.9.2-1.4.4-1.6l-.2-.2z"/>
  </g>

</svg>
