<?xml version="1.0" standalone="no"?>
<!DOCTYPE svg PUBLIC "-//W3C//DTD SVG 1.1//EN" "http://www.w3.org/Graphics/SVG/1.1/DTD/svg11.dtd" >
<svg xmlns="http://www.w3.org/2000/svg">
<metadata>
This is a custom SVG webfont generated by Font Squirrel.
Copyright   : 251The digitally encoded machine readable outline data for producing the typefaces licensed to you is copyrighted C 2002 by The Foundry London All Rights Reserved
Foundry     :  The digitally encoded machine readable outline data for producing the typefaces licensed to you is copyrighted C by The Foundry London
</metadata>
<defs>
<font id="FoundryMonolineLightItalicRg" horiz-adv-x="1150" >
<font-face units-per-em="2048" ascent="1638" descent="-410" />
<missing-glyph horiz-adv-x="491" />
<glyph unicode=" "  horiz-adv-x="491" />
<glyph unicode="&#x09;" horiz-adv-x="491" />
<glyph unicode="&#xa0;" horiz-adv-x="491" />
<glyph unicode="!" horiz-adv-x="575" d="M102 41q0 39 20.5 61.5t61.5 22.5q61 0 62 -53q0 -39 -20.5 -62.5t-61.5 -23.5q-27 0 -44.5 11t-17.5 44zM188 389l172 977h89l-173 -977h-88z" />
<glyph unicode="&#x22;" horiz-adv-x="880" d="M291 942l74 424h84l-74 -424h-84zM598 942l74 424h84l-74 -424h-84z" />
<glyph unicode="#" d="M33 475v78h274l84 315h-252v78h275l127 475h82l-129 -475h288l129 475h82l-129 -475h254v-78h-274l-84 -315h252v-78h-273l-125 -475h-82l125 475h-288l-125 -475h-82l125 475h-254zM391 553h287l84 315h-289z" />
<glyph unicode="$" horiz-adv-x="1126" d="M66 205q0 16 1 31.5t5 37.5h86q-6 -35 -6 -61q0 -72 64.5 -100.5t199.5 -30.5l104 590q-68 6 -125 16t-100 36t-66.5 71t-23.5 116q0 49 8 102.5t26.5 104.5t47 95t69.5 75q53 41 124 58.5t161 19.5l35 195h84l-35 -197q72 0 134.5 -10.5t107.5 -32t70.5 -59t25.5 -93.5 q0 -35 -1 -47t-5 -30h-86q4 16 4 31v30q0 72 -63.5 100.5t-198.5 30.5l-95 -534q61 -6 121 -14.5t106 -31t73.5 -67.5t27.5 -127q0 -49 -8 -105.5t-24.5 -111.5t-42 -104.5t-62.5 -84.5q-104 -102 -322 -104l-36 -203h-84l34 205q-76 2 -138 11.5t-106 33t-67.5 61.5 t-23.5 97zM291 926q0 -57 17.5 -89t50 -48.5t77.5 -22.5t99 -10l92 528q-68 -2 -120 -15.5t-93 -41.5q-31 -23 -54.5 -58.5t-39 -77.5t-22.5 -85t-7 -80zM500 80q82 2 141 20.5t102 59.5q29 29 51.5 70.5t37 89t21.5 94.5t7 88q0 55 -18.5 87t-52 48t-80.5 21.5t-105 9.5z " />
<glyph unicode="%" horiz-adv-x="1763" d="M197 741q0 41 8 98.5t22 129.5q23 125 38.5 193.5t47.5 115.5q35 51 90.5 76.5t147.5 25.5q117 0 170 -47t53 -137q0 -41 -8 -98.5t-23 -128.5q-23 -125 -39 -194.5t-49 -117.5q-35 -51 -89 -75.5t-146 -24.5q-117 0 -170 47t-53 137zM274 743q0 -72 40 -93t110 -21 q76 0 117 22.5t63 69.5q12 29 26.5 83t35.5 165q16 92 23 144t7 81q0 72 -40 93.5t-109 21.5q-76 0 -117 -22.5t-63 -69.5q-12 -29 -26.5 -83.5t-35.5 -164.5q-16 -92 -23.5 -144.5t-7.5 -81.5zM375 0l960 1376h86l-960 -1376h-86zM981 170q0 41 8 98.5t23 128.5 q23 125 38 193.5t48 116.5q35 51 90 76.5t147 25.5q117 0 170.5 -47t53.5 -137q0 -41 -8.5 -98.5t-22.5 -129.5q-23 -125 -39 -194.5t-49 -116.5q-35 -51 -89.5 -75.5t-146.5 -24.5q-117 0 -170 47t-53 137zM1059 172q0 -72 40 -93.5t109 -21.5q76 0 117 22.5t64 70.5 q12 29 26.5 83t34.5 164q16 92 23.5 144.5t7.5 81.5q0 72 -40 93t-110 21q-76 0 -116.5 -22.5t-63.5 -69.5q-12 -29 -26.5 -83t-34.5 -165q-16 -92 -23.5 -144t-7.5 -81z" />
<glyph unicode="&#x26;" horiz-adv-x="1230" d="M80 260q0 27 3 56.5t7 58.5q29 162 95.5 243.5t183.5 104.5q-88 23 -121 72t-33 127q0 43 7 93t21.5 99t37 93t53.5 75q53 53 137 75.5t205 22.5q168 0 257 -50t89 -183q0 -31 -6 -68h-86q4 16 4 30v26q0 37 -10.5 67.5t-39 51t-78.5 31.5t-130 11q-98 0 -162.5 -16 t-107.5 -53q-27 -25 -46.5 -58.5t-32 -72.5t-17.5 -80t-5 -76q0 -59 15.5 -94t46 -53.5t80 -23.5t116.5 -5h398l24 143h86l-24 -143h124l-14 -84h-125l-41 -231q-23 -129 -55.5 -217.5t-90 -143.5t-146.5 -78.5t-224 -23.5q-78 0 -149.5 8t-126 36.5t-87 83t-32.5 146.5z M168 268q0 -72 24.5 -111.5t67.5 -59t98.5 -23.5t116.5 -4q115 0 188.5 18t122 61.5t75 116t44.5 183.5l41 231h-385q-90 0 -154.5 -14.5t-110.5 -49t-73.5 -95t-44.5 -152.5q-4 -29 -7 -53.5t-3 -47.5z" />
<glyph unicode="'" horiz-adv-x="573" d="M293 942l74 424h84l-74 -424h-84z" />
<glyph unicode="(" horiz-adv-x="724" d="M117 -88q0 115 18.5 297t59.5 422q49 283 104 490.5t102 305.5q16 35 36 64t50 59q39 39 88.5 59.5t95.5 30t85 10.5t57 1l-14 -78q-86 0 -148.5 -18.5t-103.5 -59.5q-16 -16 -27.5 -32.5t-21.5 -32.5q-23 -37 -49.5 -113t-55 -180.5t-57.5 -233.5t-53 -272 q-37 -211 -57.5 -395.5t-20.5 -317.5q0 -35 2 -63.5t6 -49.5q16 -68 71.5 -92t182.5 -24l-14 -80q-158 0 -238 48t-94 169q-4 18 -4 40v46z" />
<glyph unicode=")" horiz-adv-x="724" d="M-86 -391l14 78q86 0 148.5 18.5t103.5 58.5q16 16 27.5 33l21.5 33q20 37 48 112.5t56.5 180t57.5 233.5t53 273q37 211 57.5 395t20.5 317q0 35 -2 64t-6 49q-16 68 -71.5 92.5t-182.5 24.5l14 80q158 0 237 -48.5t95 -168.5q4 -18 4 -40v-46q0 -115 -18.5 -297.5 t-59.5 -421.5q-49 -283 -104 -491t-102 -306q-16 -35 -36 -63.5t-50 -59.5q-39 -39 -88.5 -59.5t-95.5 -29.5t-85 -10t-57 -1z" />
<glyph unicode="*" horiz-adv-x="1071" d="M119 999l26 72l398 -129l75 424h78l-75 -424l432 129l18 -72l-442 -129l198 -346l-67 -43l-195 340l-313 -340l-57 47l313 342z" />
<glyph unicode="+" d="M86 451v81h446v447h84v-447h447v-81h-447v-451h-84v451h-446z" />
<glyph unicode="," horiz-adv-x="425" d="M-111 -256q4 2 10.5 9t16.5 14q8 8 23 16q53 41 72.5 81t29.5 105l27 154h86l-27 -154q-8 -43 -17.5 -76.5t-23.5 -61.5t-35.5 -51.5t-52.5 -47.5l-57 -45z" />
<glyph unicode="-" horiz-adv-x="983" d="M143 451l17 81h598l-17 -81h-598z" />
<glyph unicode="." horiz-adv-x="425" d="M31 41q0 39 20.5 61.5t61.5 22.5q61 0 61 -53q0 -39 -20.5 -62.5t-61.5 -23.5q-27 0 -44 11t-17 44z" />
<glyph unicode="/" horiz-adv-x="1007" d="M-123 -172l1163 1718h84l-1163 -1718h-84z" />
<glyph unicode="0" horiz-adv-x="1144" d="M102 287q0 72 16 167l38 230l32 183q14 79 29.5 141.5t34 109.5t45.5 88q55 86 148.5 130t240.5 44q186 0 271 -75.5t85 -225.5q0 -72 -15 -166l-38 -229l-33 -184q-14 -80 -29.5 -142.5t-34 -110.5t-44.5 -87q-55 -86 -148.5 -130t-240.5 -44q-186 0 -271.5 75.5 t-85.5 225.5zM193 279q0 -66 20 -107t56 -64.5t85 -31.5t109 -8q135 0 210 42t118 132q12 25 23 60.5t24.5 87.5t29 124t31.5 170q29 164 41 257t12 146q0 66 -20.5 107t-56 64.5t-86 31.5t-107.5 8q-135 0 -210 -42t-118 -132q-12 -25 -23.5 -59.5t-24.5 -86.5t-28.5 -124 t-31.5 -170q-29 -164 -41 -258t-12 -147z" />
<glyph unicode="1" horiz-adv-x="911" d="M-2 0l14 82h332l207 1163l-322 -250l-51 66l400 305h81l-227 -1284h332l-14 -82h-752z" />
<glyph unicode="2" horiz-adv-x="1120" d="M55 0l54 289q16 80 40.5 133t65.5 94q53 53 127 82t186 59q33 8 77 21.5t87 29t83 35t67 41.5q29 25 51 60t36.5 74.5t21.5 81.5t7 81q0 61 -15 103.5t-48 68t-86 35.5t-129 10q-152 0 -238 -43t-106 -163h-88q31 166 135 227t293 61q182 0 276.5 -60t94.5 -214 q0 -51 -8.5 -105.5t-27 -105.5t-47 -97t-69.5 -79q-33 -27 -79 -49.5t-95 -41t-98 -31.5l-88 -24q-92 -25 -150.5 -47t-96.5 -56t-59.5 -84t-35.5 -130l-33 -174h714l-12 -82h-807z" />
<glyph unicode="3" horiz-adv-x="1128" d="M66 213q0 29 6 63h88q-6 -31 -6 -57q0 -84 68.5 -117.5t215.5 -33.5q98 0 164 16t109 57q29 27 51 71t37.5 92t22.5 97.5t7 85.5q0 66 -24.5 102t-64.5 53t-90 21.5t-103 4.5h-193l15 84h184q141 0 222 35.5t120 138.5q16 41 27.5 97t11.5 105q0 96 -62.5 132t-214.5 36 q-154 0 -242.5 -46t-111.5 -158h-88q29 162 136.5 225t305.5 63q188 0 276.5 -55t88.5 -190q0 -49 -11.5 -113t-27.5 -111q-27 -78 -78 -127t-149 -73q84 -20 124 -72.5t40 -151.5q0 -55 -10.5 -113.5t-30 -112.5t-47 -101t-62.5 -80q-29 -27 -61.5 -45.5t-72.5 -28.5 t-90 -15t-114 -5q-80 0 -147.5 10t-116.5 36.5t-75.5 69.5t-26.5 111z" />
<glyph unicode="4" horiz-adv-x="1124" d="M61 408l15 79l768 879h92l-156 -879h199l-12 -79h-199l-74 -408h-88l74 408h-619zM180 487h512l131 742z" />
<glyph unicode="5" horiz-adv-x="1144" d="M102 209q0 16 2 34l5 33h81q-2 -10 -3 -21t-1 -26q0 -88 66.5 -124.5t208.5 -36.5q121 0 196.5 28.5t122.5 100.5q20 31 37 76.5t28 97t17 101.5t6 87q0 53 -12 93t-42 66.5t-81 40t-129 13.5q-141 0 -231 -44t-113 -136h-82l137 774h740l-15 -82h-653l-94 -532 q66 63 141.5 83.5t173.5 20.5q100 0 167 -19.5t107 -58.5t57 -94t17 -125q0 -45 -7 -101.5t-20.5 -112.5t-32.5 -107.5t-42 -87.5q-55 -88 -149.5 -126t-243.5 -38q-188 0 -273.5 56t-85.5 167z" />
<glyph unicode="6" horiz-adv-x="1148" d="M109 295q0 61 8 142t26 186q29 164 54.5 281.5t56.5 203.5q51 143 157.5 207.5t282.5 64.5q160 0 249 -53t89 -170q0 -18 -1 -32.5t-5 -32.5h-86q4 16 4 28v25q0 78 -59.5 115.5t-194.5 37.5q-154 0 -231.5 -52t-114.5 -144q-16 -41 -31.5 -95.5t-28 -110.5t-22.5 -113 l-18 -101q55 76 140 125t222 49q178 0 261 -65.5t83 -219.5q0 -106 -24 -211q-43 -188 -148.5 -281t-310.5 -93q-80 0 -146.5 17t-113.5 54t-72.5 95.5t-25.5 142.5zM197 305q0 -127 64.5 -182t205.5 -55q164 0 248 67.5t121 220.5q10 45 18 102.5t8 104.5q0 113 -53 161 t-197 48q-166 0 -270 -85t-135 -261q-6 -35 -8 -64.5t-2 -56.5z" />
<glyph unicode="7" horiz-adv-x="925" d="M57 0l820 1284h-715l14 82h815l-14 -80l-815 -1286h-105z" />
<glyph unicode="8" horiz-adv-x="1167" d="M102 252q0 55 13 121q29 162 92 236.5t178 101.5l-43 15q-27 9 -51.5 29.5t-42 56.5t-17.5 95q0 43 6.5 86t16.5 84q20 84 54 142.5t88.5 94.5t129 51t174.5 15q111 0 186 -17t118 -58q63 -57 63 -170q0 -39 -6 -85t-19.5 -92.5t-32 -87.5t-42.5 -67q-55 -66 -168 -92 q90 -23 127 -76t37 -133q0 -41 -7.5 -97.5t-24 -116t-45 -114.5t-73.5 -94q-59 -53 -135 -73.5t-203 -20.5q-76 0 -143.5 9t-118.5 36.5t-81 80t-30 140.5zM193 252q0 -57 18 -93t54 -55.5t89.5 -26.5t122.5 -7q72 0 127 8t96 28.5t71 54.5t50 85q8 20 17.5 49t16.5 61.5 t12 66.5t5 66q0 63 -24.5 100.5t-64.5 53.5t-91 20.5t-102 4.5q-90 0 -154.5 -12.5t-110.5 -45t-76 -91t-46 -150.5q-6 -35 -8 -63.5t-2 -53.5zM322 924q0 -78 30 -109q33 -33 89.5 -49t154.5 -16q39 0 84 3t87 15t78 33.5t60 58.5q18 27 31.5 61.5t23 70.5t13.5 72t4 64 q0 70 -33 109q-55 61 -242 61q-84 0 -144 -11t-103 -36.5t-70 -69.5t-43 -110q-10 -37 -15 -73.5t-5 -73.5z" />
<glyph unicode="9" horiz-adv-x="1148" d="M117 215q0 29 6 59h88q-6 -31 -6 -53q0 -78 59.5 -115.5t194.5 -37.5q137 0 221 46t125 150q16 41 31.5 95.5t28 110.5t22.5 113l18 101q-8 -12 -32.5 -42t-69.5 -58.5t-109.5 -51t-152.5 -22.5q-174 0 -258 64.5t-84 213.5q0 55 7 110.5t19 109.5q43 186 149.5 279 t309.5 93q92 0 164 -22.5t119 -69.5q45 -47 60 -103.5t15 -117.5t-10 -141t-26 -183q-29 -164 -54.5 -281.5t-56.5 -203.5q-51 -143 -156.5 -207.5t-281.5 -64.5q-160 0 -250 53t-90 176zM289 809q0 -121 54 -168t187 -47q350 0 412 346q12 68 12 121q0 127 -64.5 182 t-205.5 55q-164 0 -248 -69.5t-121 -220.5q-12 -49 -19 -98.5t-7 -100.5z" />
<glyph unicode=":" horiz-adv-x="425" d="M31 41q0 39 20.5 61.5t61.5 22.5q61 0 61 -53q0 -39 -20.5 -62.5t-61.5 -23.5q-27 0 -44 11t-17 44zM182 911q0 39 20.5 61.5t61.5 22.5q61 0 62 -53q0 -39 -20.5 -62.5t-61.5 -23.5q-27 0 -44.5 11t-17.5 44z" />
<glyph unicode=";" horiz-adv-x="425" d="M-111 -256q4 2 10.5 9t16.5 14q8 8 23 16q53 41 72.5 81t29.5 105l27 154h86l-27 -154q-8 -43 -17.5 -76.5t-23.5 -61.5t-35.5 -51.5t-52.5 -47.5l-57 -45zM182 911q0 39 20.5 61.5t61.5 22.5q61 0 62 -53q0 -39 -20.5 -62.5t-61.5 -23.5q-27 0 -44.5 11t-17.5 44z" />
<glyph unicode="&#x3c;" d="M82 451v81l952 447l35 -78l-883 -407l883 -416l-35 -78z" />
<glyph unicode="=" horiz-adv-x="1153" d="M88 254v82h977v-82h-977zM88 649v82h977v-82h-977z" />
<glyph unicode="&#x3e;" d="M82 78l883 416l-883 407l35 78l952 -447v-81l-952 -451z" />
<glyph unicode="?" horiz-adv-x="860" d="M139 1092q29 160 126 224t280 64q70 0 129 -11t102 -40t67.5 -78t24.5 -125q0 -37 -6 -79.5t-19.5 -84.5t-34 -79t-46.5 -64q-63 -63 -174 -108q-53 -23 -85 -43.5t-50.5 -46t-28.5 -61.5t-18 -87l-15 -84h-86l17 88q10 59 21 103.5t32.5 78t60.5 62.5t107 57 q51 23 90 44.5t63 47.5q43 45 63.5 116t20.5 130q0 106 -53 144t-180 38q-147 0 -224 -45t-98 -161h-86zM217 43q0 82 84 82q59 0 59 -49q0 -41 -20.5 -65.5t-63.5 -24.5q-31 0 -45 12t-14 45z" />
<glyph unicode="@" horiz-adv-x="1579" d="M125 246q0 45 5 98t12.5 106.5t15.5 103.5l14 91q35 197 76 336t119.5 228t208 130t337.5 41q96 0 192.5 -6t174.5 -37.5t126 -98.5t48 -185q0 -57 -8 -137t-23.5 -164t-36 -162t-45.5 -131q-57 -127 -149 -173q-88 -44 -218 -44h-11l18 100q-41 -53 -119 -83t-172 -30 q-123 0 -193.5 47.5t-70.5 178.5q0 45 10 103l19 104q14 80 34.5 149.5t60.5 121.5t107.5 83t176.5 31q188 0 249 -115l17 100h80l-125 -710q78 0 129 46t82 115q20 47 39.5 120t34 152t22.5 154.5t8 128.5q0 100 -41 153.5t-105.5 78t-145.5 29t-160 4.5q-190 0 -306 -38 t-185 -118t-105.5 -207t-67.5 -305q-6 -29 -13 -75l-16 -98q-8 -52 -13 -104.5t-5 -95.5q0 -117 37 -181.5t101.5 -95t150.5 -37.5t184 -7q76 0 146.5 5t135 24.5t121 55t101.5 97.5l61 -45q-41 -63 -98 -104.5t-131 -66t-163 -34.5t-194 -10q-113 0 -210 11t-169.5 50 t-113.5 116t-41 206zM512 463q0 -94 49 -125t135 -31q74 0 128.5 15.5t92 49.5t62.5 85t41 125q23 102 22 198q0 102 -50 145.5t-169 43.5q-88 0 -139 -29t-81 -73t-42 -99t-22 -109q-2 -12 -7 -34l-9 -51q-5 -28 -8 -56t-3 -55z" />
<glyph unicode="A" horiz-adv-x="1243" d="M-68 0l764 1366h97l278 -1366h-92l-82 418h-639l-229 -418h-97zM303 496h578l-154 764z" />
<glyph unicode="B" horiz-adv-x="1316" d="M74 0l241 1366h428q84 0 165 -2t143.5 -24.5t101.5 -75t39 -154.5q0 -59 -12.5 -127t-41 -127t-76.5 -102t-120 -49q39 -4 68.5 -23.5t49 -49.5t29 -68t9.5 -77q0 -43 -7.5 -95t-21.5 -103t-38.5 -99.5t-57.5 -80.5q-25 -25 -50.5 -44.5t-69.5 -34t-111.5 -22.5 t-174.5 -8h-493zM180 82h383q86 0 142.5 5t93.5 15.5t60.5 25.5t45.5 38q39 39 69 115.5t30 197.5q0 68 -20.5 105t-59.5 54t-95.5 20.5t-130.5 3.5h-419zM293 739h352q96 0 171 2t129 26t91 79t56 164q4 29 6 55.5t2 48.5q0 68 -23.5 103.5t-71 51t-117 16.5t-159.5 1h-336 z" />
<glyph unicode="C" horiz-adv-x="1298" d="M121 309q0 70 12 161t35 212q29 166 60.5 296t96 219t177 136t307.5 47q98 0 175 -11t129 -41t80 -81t28 -131q0 -39 -3 -61l-6 -37h-90q4 27 6.5 50.5t2.5 43.5q0 51 -16.5 87t-55.5 57.5t-103.5 30.5t-158.5 9q-111 0 -205 -22.5t-160 -87.5q-43 -43 -69.5 -95.5 t-44 -116t-30.5 -136.5l-28 -156l-14 -75q-8 -44 -15.5 -93t-13.5 -99t-6 -93q0 -70 18.5 -118t60.5 -78t107.5 -43t159.5 -13q109 0 186.5 14t132 47t86 86t46.5 131h88q-18 -100 -56.5 -168.5t-103 -111.5t-158.5 -62.5t-221 -19.5q-221 0 -328.5 73.5t-107.5 249.5z" />
<glyph unicode="D" horiz-adv-x="1343" d="M74 0l241 1366h422q76 0 140.5 -3t119 -15.5t96.5 -35t72 -61.5q57 -76 58 -207q0 -49 -6.5 -103t-13.5 -104.5t-15 -91.5l-12 -61q-29 -164 -60 -292t-95.5 -215t-180 -132t-314.5 -45h-452zM176 82h346q174 0 272.5 37t154 111.5t82 188t54.5 265.5l31.5 183t13.5 167 q0 90 -28.5 140.5t-81.5 75t-128 30.5t-167 6h-336z" />
<glyph unicode="E" horiz-adv-x="1171" d="M74 0l241 1366h822l-15 -82h-729l-96 -541h709l-15 -81h-708l-103 -580h729l-14 -82h-821z" />
<glyph unicode="F" horiz-adv-x="1136" d="M76 0l241 1366h811l-14 -82h-721l-96 -541h702l-14 -81h-702l-117 -662h-90z" />
<glyph unicode="G" horiz-adv-x="1343" d="M121 307q0 76 12 165t35 210q31 170 62.5 300t97 219t181.5 134t312 45q205 0 311.5 -56t106.5 -210q0 -33 -2 -56.5t-6 -39.5h-88q2 8 5 36.5t3 51.5q0 106 -77 148t-265 42q-117 0 -199 -19.5t-137 -57t-89 -92t-56.5 -123t-36.5 -149.5l-31 -173q-23 -129 -36 -227.5 t-13 -141.5q0 -137 80 -190t264 -53q154 0 249 45t152.5 124.5t86 187.5t47.5 235h-441l15 81h522l-131 -743h-80l33 186q-76 -104 -194 -152t-269 -48q-119 0 -200 21.5t-131 62.5t-71.5 100t-21.5 137z" />
<glyph unicode="H" horiz-adv-x="1337" d="M76 0l241 1366h91l-111 -623h756l110 623h90l-241 -1366h-90l116 662h-755l-117 -662h-90z" />
<glyph unicode="I" horiz-adv-x="481" d="M76 0l241 1366h91l-242 -1366h-90z" />
<glyph unicode="J" horiz-adv-x="1075" d="M12 236q0 43 6.5 75.5t6.5 36.5h86q-4 -16 -8.5 -50t-4.5 -52q0 -43 13.5 -77t44 -55.5t82 -32.5t129.5 -11q117 0 179 25.5t101 64.5q25 25 41.5 57.5t28.5 67t20 69.5t13 64l165 948h91l-166 -944q-4 -16 -10.5 -54t-20.5 -84t-37.5 -95.5t-60.5 -86.5 q-23 -23 -52.5 -44t-70.5 -37.5t-96.5 -25.5t-129.5 -9q-164 0 -257 58.5t-93 191.5z" />
<glyph unicode="K" horiz-adv-x="1165" d="M76 0l241 1366h91l-113 -641l815 641h129l-874 -684l636 -682h-124l-596 647l-115 -647h-90z" />
<glyph unicode="L" horiz-adv-x="1036" d="M74 0l241 1366h91l-228 -1284h721l-14 -82h-811z" />
<glyph unicode="M" horiz-adv-x="1671" d="M74 0l241 1366h123l289 -1253l727 1253h133l-241 -1366h-91l218 1243l-721 -1243h-86l-283 1243l-219 -1243h-90z" />
<glyph unicode="N" horiz-adv-x="1323" d="M74 0l241 1366h113l512 -1245l221 1245h88l-241 -1366h-113l-512 1251l-221 -1251h-88z" />
<glyph unicode="O" horiz-adv-x="1361" d="M121 311q0 70 12 160t35 211q20 119 38.5 207t40 153.5t50.5 114.5t70 90q57 57 162.5 95t275.5 38q223 0 329.5 -72.5t106.5 -248.5q0 -70 -12 -156t-35 -219q-20 -119 -38.5 -207t-40 -154.5t-50.5 -114.5t-70 -89q-59 -59 -161.5 -97t-274.5 -38q-227 0 -332.5 74.5 t-105.5 252.5zM211 324q0 -68 17.5 -116t58.5 -79t108.5 -45t167.5 -14q135 0 222 26.5t145 83.5q35 35 58.5 78t43 102.5t35.5 139.5t35 186q23 119 36 212t13 153q0 137 -82 191t-268 54q-78 0 -137.5 -9t-103.5 -25.5t-75.5 -37t-52.5 -40.5q-35 -35 -59.5 -79 t-43 -104.5t-34.5 -138.5t-35 -180q-23 -127 -36 -217t-13 -141z" />
<glyph unicode="P" horiz-adv-x="1228" d="M76 0l241 1366h394q63 0 124.5 -1t117 -8t101.5 -24.5t79 -50.5q59 -59 59 -180q0 -41 -7 -91t-22.5 -100.5t-38 -96.5t-55.5 -79q-29 -29 -62.5 -48t-81.5 -31.5t-117 -17.5t-167 -5h-362l-113 -633h-90zM293 715h366q68 0 119 2t92 9t73 22.5t58 42.5q47 45 73 126.5 t26 174.5q0 66 -19.5 104.5t-57.5 58t-92 25.5t-124 6h-414z" />
<glyph unicode="Q" horiz-adv-x="1361" d="M121 311q0 70 12 160t35 211q20 119 38.5 207t40 153.5t50.5 114.5t70 90q57 57 162.5 95t275.5 38q223 0 329.5 -72.5t106.5 -248.5q0 -70 -12 -156t-35 -219q-20 -119 -38.5 -207t-40 -154.5t-50.5 -114.5t-70 -89q-37 -37 -80 -60.5t-86 -38t-81.5 -21.5t-69.5 -9 l67 -254l-79 -23l-72 273q-4 -2 -10 -2h-25q-225 0 -331.5 74.5t-106.5 252.5zM211 324q0 -68 17.5 -116t58.5 -79t108.5 -45t167.5 -14h10l-51 211l78 20l57 -227q18 2 49 5t69 14t79 31.5t76 55.5t58.5 78t43 102.5t35.5 139.5t35 186q23 119 36 212t13 153q0 139 -82 192 t-268 53q-78 0 -137.5 -9t-103.5 -25.5t-75.5 -37t-52.5 -40.5q-35 -35 -59.5 -79t-43 -104.5t-34.5 -138.5t-35 -180q-23 -127 -36 -217t-13 -141z" />
<glyph unicode="R" horiz-adv-x="1314" d="M76 0l241 1366h441q47 0 97 -1t97 -7t88 -19.5t72 -38.5q37 -29 59.5 -74.5t22.5 -117.5q0 -31 -4 -77t-17.5 -95t-36 -97t-59.5 -85q-45 -45 -82 -58.5t-53 -17.5q14 -2 40 -10.5t48.5 -28.5t39.5 -53t17 -84q0 -23 -3 -52.5t-7 -56.5q-6 -33 -10 -63l-57 -330h-90 l57 324q4 31 10 61q4 27 7 55.5t3 51.5q0 53 -22.5 82.5t-62.5 44t-94 17.5t-118 3h-421l-113 -639h-90zM295 723h410q61 0 108 2t83 10t63.5 22.5t52.5 39.5q35 35 61.5 112.5t26.5 182.5q0 68 -19.5 105.5t-59.5 58t-100.5 25.5t-142.5 5h-385z" />
<glyph unicode="S" horiz-adv-x="1302" d="M82 254q0 39 10 96h88q-4 -25 -6 -47t-2 -43q0 -53 18.5 -89t60.5 -58.5t109.5 -32.5t167.5 -10q133 0 227.5 22.5t153.5 81.5q61 61 84 147.5t23 161.5q0 70 -25.5 106t-74 51t-117 16t-154.5 1q-82 0 -162 3.5t-143.5 26t-102 71.5t-38.5 141q0 90 28.5 190.5 t94.5 165.5q72 72 179 98.5t267 26.5q231 0 335.5 -60t104.5 -206q0 -23 -2 -51.5t-6 -44.5h-88q4 25 6 46t2 42q0 59 -21.5 96t-64.5 58.5t-108.5 28.5t-153.5 7q-137 0 -231.5 -18t-155.5 -80q-53 -53 -73.5 -135t-20.5 -156q0 -66 24.5 -99.5t71.5 -48t115.5 -16.5 t159.5 -2q80 0 159.5 -3t143 -24.5t103.5 -69.5t40 -140q0 -104 -32 -210t-103.5 -177.5t-179 -101t-261.5 -29.5q-233 0 -341.5 60.5t-108.5 207.5z" />
<glyph unicode="T" horiz-adv-x="1054" d="M137 1284l15 82h974l-14 -82h-442l-228 -1284h-90l228 1284h-443z" />
<glyph unicode="U" horiz-adv-x="1329" d="M121 287q0 88 20.5 194.5t36.5 206.5l119 678h92l-119 -678q-23 -135 -41 -229t-18 -160q0 -127 85 -178t239 -51q158 0 246.5 44t137 126t71 195.5t46.5 252.5l119 678h92l-119 -678q-14 -86 -25 -147.5t-21.5 -106.5t-19.5 -78.5t-20 -62.5q-57 -162 -188 -234.5 t-324 -72.5q-195 0 -302 72.5t-107 228.5z" />
<glyph unicode="V" horiz-adv-x="1146" d="M145 1366h93l231 -1249l678 1249h100l-747 -1366h-94z" />
<glyph unicode="W" horiz-adv-x="1781" d="M219 1366h90l82 -1243l563 1243h109l123 -1241l522 1241h94l-585 -1366h-109l-117 1253l-565 -1253h-111z" />
<glyph unicode="X" horiz-adv-x="1130" d="M-45 0l557 692l-309 674h98l272 -602l488 602h106l-555 -674l324 -692h-100l-287 616l-488 -616h-106z" />
<glyph unicode="Y" horiz-adv-x="1062" d="M141 1366h99l290 -676l529 676h104l-600 -764l-106 -602h-90l106 602z" />
<glyph unicode="Z" horiz-adv-x="1220" d="M23 0l16 84l1036 1200h-811l15 82h919l-14 -84l-1037 -1200h834l-18 -82h-940z" />
<glyph unicode="[" horiz-adv-x="702" d="M41 -391l360 2042h394l-15 -78h-307l-332 -1884h308l-15 -80h-393z" />
<glyph unicode="\" horiz-adv-x="1064" d="M211 1546h84l557 -1718h-84z" />
<glyph unicode="]" horiz-adv-x="702" d="M-92 -391l14 80h307l332 1884h-307l14 78h394l-361 -2042h-393z" />
<glyph unicode="^" d="M86 426l449 952h81l449 -952l-78 -35l-412 883l-411 -883z" />
<glyph unicode="_" horiz-adv-x="1024" d="M-158 -397l17 86h1024l-17 -86h-1024z" />
<glyph unicode="`" horiz-adv-x="841" d="M367 1366h98l221 -264h-98z" />
<glyph unicode="a" horiz-adv-x="1081" d="M35 215q0 16 2 36.5t6 39.5q16 98 54 155.5t93.5 87t126 38t152.5 8.5h346l8 49q4 33 9.5 66.5t5.5 56.5q0 90 -56.5 124.5t-201.5 34.5q-82 0 -161 -14t-130 -66q-39 -39 -49 -72l-15 -48h-88q10 59 34 102t52 72q55 55 146.5 82.5t228.5 27.5q66 0 125 -9t105 -35.5 t73 -71.5t27 -117q0 -41 -7.5 -90t-17.5 -103l-100 -569h-88l26 143q-59 -84 -153 -120.5t-236 -36.5q-147 0 -232 55t-85 174zM127 223q0 -78 52 -117.5t186 -39.5q127 0 203.5 30.5t121.5 87t67.5 137t41.5 179.5h-357q-63 0 -115.5 -7.5t-91 -31t-64.5 -67.5t-38 -115 q-4 -16 -5 -31t-1 -25z" />
<glyph unicode="b" horiz-adv-x="1124" d="M43 0l250 1427h88l-102 -589q63 84 151 119.5t219 35.5q94 0 156.5 -17.5t100.5 -52t54.5 -88t16.5 -124.5q0 -45 -5 -100.5t-18 -123.5q-25 -137 -53.5 -221t-73.5 -141q-53 -68 -140 -103.5t-216 -35.5q-123 0 -207 38.5t-110 122.5l-27 -147h-84zM201 295 q0 -123 65.5 -174t229.5 -51q168 0 247 90q41 45 71 122.5t52 206.5q10 53 16.5 105.5t6.5 105.5q0 43 -7.5 81t-32 67t-72.5 45t-130 16q-111 0 -185.5 -28.5t-123.5 -83t-77 -134t-44 -182.5q-10 -55 -13 -101t-3 -85z" />
<glyph unicode="c" horiz-adv-x="1054" d="M68 272q0 45 7 98.5t17 118.5q14 84 29.5 146.5t33 109t38 79t45.5 57.5q57 57 137 84.5t211 27.5q188 0 266 -60.5t78 -162.5q0 -29 -6 -61h-84q4 16 4 49q0 88 -66.5 120.5t-195.5 32.5q-98 0 -164 -21.5t-109 -62.5q-49 -47 -75.5 -123.5t-51 -212t-24.5 -217.5 q0 -109 61.5 -157.5t214.5 -48.5q92 0 154.5 15t109.5 56q53 47 70 129h86q-6 -35 -25.5 -86t-62.5 -94q-59 -59 -141 -80.5t-195 -21.5q-186 0 -274 66t-88 220z" />
<glyph unicode="d" horiz-adv-x="1122" d="M68 270q0 45 5 100.5t17 123.5q25 137 58.5 234t97.5 161q49 49 129 76.5t198 27.5q100 0 161 -20.5t93.5 -48t44 -53t15.5 -33.5l104 589h88l-250 -1427h-86l27 147q-63 -84 -152.5 -122.5t-222.5 -38.5q-184 0 -255.5 71.5t-71.5 212.5zM156 281q0 -41 7 -79t30.5 -67 t69.5 -47t126 -18q113 0 189.5 27.5t127 83t78 135t43.5 184.5q8 51 12.5 94t4.5 80q0 63 -14.5 108t-49.5 73t-91 41t-140 13q-86 0 -143.5 -19.5t-98.5 -60.5q-49 -49 -77.5 -128.5t-51.5 -208.5q-10 -53 -16 -105.5t-6 -105.5z" />
<glyph unicode="e" horiz-adv-x="1079" d="M68 276q0 43 7 95.5t17 115.5q14 80 27.5 141.5t31 108.5t39 82t52.5 66q53 53 135 81.5t203 28.5q180 0 268 -67.5t88 -214.5q0 -74 -10.5 -135.5t-14.5 -96.5h-731q-10 -61 -17 -110t-7 -97q0 -109 64.5 -157.5t217.5 -48.5q59 0 114.5 8t101.5 30.5t79 61.5t45 100h88 q-16 -84 -57 -139t-98.5 -87t-129 -44t-149.5 -12q-186 0 -275 67t-89 223zM197 561h637q8 45 11 77t3 69q0 111 -63.5 158.5t-209.5 47.5q-184 0 -268 -84q-27 -27 -45 -60.5t-30.5 -70t-20.5 -71.5t-14 -66z" />
<glyph unicode="f" horiz-adv-x="878" d="M80 899l16 80h166l29 166q12 68 35.5 124t70.5 97q90 76 260 76q55 0 108.5 -8.5t94.5 -29t66.5 -56t25.5 -93.5q0 -33 -2 -41h-88q2 8 2 33q0 33 -19.5 54.5t-48 34t-65.5 17.5t-69 5q-131 0 -197 -47q-41 -31 -60.5 -80t-29.5 -113l-25 -139h438l-14 -80h-438 l-158 -899h-88l158 899h-168z" />
<glyph unicode="g" horiz-adv-x="1122" d="M10 -174q0 29 6 59h86q-2 -10 -3 -21t-1 -22q0 -82 57.5 -119.5t192.5 -37.5q111 0 182.5 24.5t114.5 67.5q47 47 68.5 113.5t31.5 125.5l29 146q-61 -82 -146 -122t-218 -40q-184 0 -261 72.5t-77 216.5q0 43 5 94t15 117q23 133 55.5 228t92.5 155q47 47 120.5 78.5 t202.5 31.5q137 0 218 -42t112 -120l27 148h86l-158 -891q-20 -111 -47 -204t-99 -165q-53 -53 -137 -84.5t-215 -31.5q-156 0 -248 52t-92 171zM160 301q0 -43 8 -82t33.5 -68.5t74 -48t127.5 -18.5q180 0 275.5 80t136.5 266q14 61 22.5 123.5t8.5 126.5q0 131 -69.5 180 t-227.5 49q-82 0 -140.5 -19.5t-105.5 -66.5q-43 -43 -71.5 -121.5t-51.5 -203.5q-10 -59 -15 -107.5t-5 -89.5z" />
<glyph unicode="h" horiz-adv-x="1089" d="M43 0l250 1427h88l-102 -593q33 47 75.5 77.5t87.5 49t91.5 25.5t89.5 7q61 0 117.5 -11t99.5 -37.5t68.5 -72t25.5 -112.5q0 -53 -9.5 -117.5t-21.5 -136.5l-90 -506h-88l90 494q14 78 22.5 139t8.5 106q0 94 -58.5 132t-173.5 38q-117 0 -189.5 -41t-114.5 -107.5 t-63.5 -152.5t-37.5 -176l-78 -432h-88z" />
<glyph unicode="i" horiz-adv-x="425" d="M43 0l172 979h88l-172 -979h-88zM248 1300q0 35 19.5 57.5t58.5 22.5q57 0 57 -49q0 -37 -19.5 -59.5t-58.5 -22.5q-25 0 -41 10t-16 41z" />
<glyph unicode="j" horiz-adv-x="430" d="M-543 -197q0 12 1 24.5t3 27.5h86q-2 -10 -2 -22v-17q0 -27 8.5 -51.5t31 -43t60.5 -28.5t97 -10q145 0 217 71q43 43 58.5 98.5t23.5 102.5l178 1024h88l-188 -1073q-12 -68 -35 -121t-61 -92q-47 -47 -121 -68.5t-162 -21.5q-129 0 -206 48t-77 152zM252 1300 q0 35 19.5 57.5t58.5 22.5q57 0 57 -49q0 -37 -19.5 -59.5t-58.5 -22.5q-25 0 -41 10t-16 41z" />
<glyph unicode="k" horiz-adv-x="944" d="M43 0l250 1427h88l-152 -870l584 422h131l-633 -455l471 -524h-120l-443 504l-88 -504h-88z" />
<glyph unicode="l" horiz-adv-x="423" d="M43 0l250 1427h88l-250 -1427h-88z" />
<glyph unicode="m" horiz-adv-x="1648" d="M45 0l172 979h84l-25 -141q59 86 146.5 120.5t179.5 34.5q104 0 182 -42t88 -136q66 100 160 139t185 39q55 0 106 -11t90 -36.5t61.5 -67.5t22.5 -106q0 -39 -6 -84t-16 -98l-105 -590h-88l105 594q10 53 15 93t5 73q0 80 -48 114.5t-151 34.5q-117 0 -186.5 -49 t-108.5 -121.5t-55 -156.5l-29 -154l-77 -428h-88l92 530q10 53 18 107.5t8 110.5q0 33 -8 62.5t-29.5 52t-59.5 34.5t-97 12q-115 0 -182.5 -47t-106.5 -118.5t-56.5 -155.5t-31.5 -160l-78 -428h-88z" />
<glyph unicode="n" horiz-adv-x="1089" d="M43 0l172 979h86l-25 -148q33 49 75 80t88 49.5t93.5 25.5t90.5 7q61 0 117.5 -11t99.5 -39t68.5 -73t25.5 -112q0 -53 -9.5 -116.5t-21.5 -135.5l-90 -506h-88l90 494q14 78 22.5 139t8.5 106q0 96 -58.5 133t-173.5 37q-117 0 -189.5 -41t-114.5 -107.5t-63.5 -152.5 t-37.5 -176l-78 -432h-88z" />
<glyph unicode="o" horiz-adv-x="1097" d="M68 270q0 45 6 99.5t16 119.5q29 156 61.5 249t94.5 153q57 53 137 78.5t203 25.5q184 0 274 -66.5t90 -219.5q0 -45 -6 -99.5t-16 -120.5q-16 -98 -33.5 -163.5t-36 -109.5t-39 -72.5t-43.5 -51.5q-106 -106 -344 -106q-184 0 -274 65t-90 219zM156 270 q0 -106 62.5 -153t215.5 -47q193 0 277 77q51 47 77.5 126t51.5 216q12 70 17 124.5t5 95.5q0 106 -62.5 155t-215.5 49q-188 0 -277 -82q-49 -47 -77.5 -126.5t-51.5 -215.5q-12 -70 -17 -124t-5 -95z" />
<glyph unicode="p" horiz-adv-x="1124" d="M-25 -391l240 1370h86l-27 -148q63 84 152.5 123t222.5 39q98 0 161.5 -19.5t100.5 -56t51.5 -89t14.5 -117.5q0 -45 -5 -100.5t-18 -123.5q-25 -137 -53.5 -221t-73.5 -141q-53 -68 -140 -103.5t-216 -35.5t-205 36.5t-108 118.5l-95 -532h-88zM201 307q0 -66 14 -110.5 t49 -72.5t91.5 -41t140.5 -13q168 0 247 90q41 45 71 122.5t52 206.5q10 53 16.5 106.5t6.5 106.5q0 41 -8.5 78t-33 65.5t-72.5 46t-128 17.5q-207 0 -305 -108q-39 -41 -65.5 -102.5t-44 -129t-24.5 -137.5t-7 -125z" />
<glyph unicode="q" horiz-adv-x="1124" d="M68 268q0 45 5 100.5t17 123.5q25 137 53.5 221t73.5 141q53 68 140 103.5t216 35.5q123 0 205 -37.5t115 -119.5l25 143h83l-239 -1370h-88l92 532q-63 -84 -150.5 -119.5t-220.5 -35.5q-92 0 -155.5 17t-101.5 53t-54 88t-16 124zM156 279q0 -41 7 -78t30.5 -67 t69.5 -47t126 -17q111 0 185.5 25.5t123.5 76.5q39 39 67 101.5t45 132t25.5 139t8.5 127.5q0 63 -14.5 109t-49.5 74t-91 41t-140 13q-168 0 -248 -90q-41 -45 -70.5 -123t-52.5 -207q-10 -53 -16 -105t-6 -105z" />
<glyph unicode="r" horiz-adv-x="915" d="M43 0l172 979h88l-24 -145q6 10 26.5 35.5t59 53t96 49t137.5 21.5q123 0 196.5 -50t73.5 -167q0 -14 -1 -31.5t-5 -29.5h-82q2 14 3 27.5t1 23.5q0 80 -49 111.5t-151 31.5q-74 0 -127.5 -19.5t-100.5 -66.5q-41 -41 -65.5 -92t-41 -106.5t-25.5 -107.5l-17 -95 l-76 -422h-88z" />
<glyph unicode="s" horiz-adv-x="1024" d="M35 190q0 16 2 36t6 42h82q-6 -37 -6 -65q0 -78 59.5 -106.5t206.5 -28.5q76 0 141.5 10t113.5 39.5t74.5 83t26.5 141.5q0 39 -14 60.5t-45 32.5t-81 14.5t-124 5.5l-133 4q-63 2 -111.5 17.5t-77 51t-28.5 103.5q0 39 8 78q16 92 56 148t97.5 87t130.5 40t156 9 q70 0 130.5 -9t104.5 -33.5t69.5 -64.5t25.5 -102q0 -29 -1 -40t-5 -29h-82q2 10 3 24.5t1 24.5q0 35 -10 62.5t-38 46t-76 27.5t-124 9q-70 0 -134 -8t-113.5 -35.5t-78 -79t-28.5 -135.5q0 -43 16.5 -64.5t48 -30.5t81 -11t117 -4t131 -5.5t112.5 -18.5t77.5 -51 t28.5 -106q0 -37 -6 -79q-16 -96 -54 -153.5t-95.5 -89.5t-131 -42t-161.5 -10q-176 0 -262 43.5t-86 160.5z" />
<glyph unicode="t" horiz-adv-x="892" d="M86 899l16 80h166l68 387h88l-68 -387h432l-14 -80h-432l-111 -610l-4 -29q-2 -12 -3 -27.5t-1 -27.5q0 -78 49.5 -107.5t143.5 -29.5q117 0 182.5 44t85.5 156h82q-29 -156 -119 -219t-237 -63q-121 0 -198 48t-77 167q0 16 3 40.5t7 47.5l109 610h-168z" />
<glyph unicode="u" horiz-adv-x="1089" d="M80 221q0 74 9 127l22 125l90 506h88l-88 -494q-14 -78 -23.5 -139t-9.5 -106q0 -94 57.5 -132t171.5 -38q117 0 189.5 41t114.5 107.5t63.5 152.5t38.5 176l78 432h88l-172 -979h-86l24 147q-35 -49 -77 -79.5t-88 -49t-92 -25.5t-89 -7q-61 0 -117.5 11t-99.5 37.5 t-67.5 72.5t-24.5 114z" />
<glyph unicode="v" horiz-adv-x="940" d="M86 979h90l180 -879l488 879h94l-549 -979h-98z" />
<glyph unicode="w" horiz-adv-x="1411" d="M100 979h88l99 -870l413 870h101l100 -870l408 870h90l-463 -979h-102l-101 870l-411 -870h-103z" />
<glyph unicode="x" horiz-adv-x="929" d="M-68 0l445 498l-260 481h96l225 -418l367 418h104l-432 -483l271 -496h-99l-231 432l-379 -432h-107z" />
<glyph unicode="y" horiz-adv-x="929" d="M88 -391l215 393l-184 977h90l162 -864l463 864h94l-746 -1370h-94z" />
<glyph unicode="z" horiz-adv-x="970" d="M-16 0l14 78l774 821h-625l15 80h743l-14 -76l-774 -819h637l-15 -84h-755z" />
<glyph unicode="{" horiz-adv-x="741" d="M160 639q0 41 25.5 68.5t52.5 50.5l129 114q8 6 11 18.5t5 16.5l70 393q10 59 22 106.5t28.5 85.5t40 68.5t58.5 59.5t71 44t68.5 21.5t58.5 6.5h42l-15 -76q-53 0 -94 -12.5t-86 -49.5q-43 -37 -67.5 -98t-40.5 -162l-70 -393q-4 -27 -17.5 -51.5t-41.5 -50.5l-150 -137 q-12 -10 -12 -27q0 -12 10 -27l90 -104q33 -39 33 -80q0 -12 -2 -23.5t-4 -25.5q-4 -18 -14 -72l-19 -110l-25 -144q-8 -43 -15 -102.5t-7 -102.5q0 -49 11 -72.5t28 -39.5q29 -29 62.5 -38t90.5 -9l-14 -76q-66 0 -120 13t-91 61q-29 35 -41 70.5t-12 86.5q0 55 7 115.5 t17 110.5l62 346v14q0 8 -8 16l-88 103q-18 23 -28.5 44t-10.5 50z" />
<glyph unicode="|" horiz-adv-x="573" d="M244 -391v1757h86v-1757h-86z" />
<glyph unicode="}" horiz-adv-x="741" d="M-100 -391l14 76q53 0 94 12t86 49q43 37 67.5 98.5t41.5 161.5l69 393q4 27 17.5 51.5t42.5 51.5l149 137q12 10 13 27q0 12 -11 26l-90 105q-33 39 -33 80q0 12 2.5 23t4.5 26q4 18 12 70.5t18 109.5q10 68 27 145q8 43 15 102.5t7 102.5q0 49 -11 72.5t-27 40.5 q-29 29 -63 38t-91 9l14 76q66 0 120 -13.5t91 -60.5q29 -35 41 -71t12 -87q0 -55 -7 -115.5t-17 -109.5l-62 -346v-15q0 -8 9 -16l88 -102q18 -23 28.5 -44.5t10.5 -49.5q0 -41 -26 -69t-52 -50l-129 -115q-8 -6 -11.5 -18.5t-5.5 -16.5l-69 -393q-10 -59 -22.5 -106.5 t-30 -85t-41 -68.5t-56.5 -59q-35 -29 -71.5 -44.5t-68.5 -21.5t-58 -6h-41z" />
<glyph unicode="~" d="M72 453l161 100q68 41 156 44h12q81 0 146 -38l74 -46q37 -24 76 -37q35 -12 71 -11h11q42 2 89 31l166 102l45 -70l-161 -102q-68 -43 -157 -44h-4q-86 0 -153 40l-55 34l-55 31q-47 29 -102.5 29t-108.5 -33l-162 -98z" />
<glyph unicode="&#xa1;" horiz-adv-x="575" d="M51 -387l172 977h88l-172 -977h-88zM254 907q0 39 20.5 62.5t61.5 23.5q27 0 44 -11t17 -44q0 -39 -20.5 -61.5t-61.5 -22.5q-61 0 -61 53z" />
<glyph unicode="&#xa2;" horiz-adv-x="1054" d="M68 272q0 45 7 98.5t17 118.5q14 84 29.5 146.5t33 109t38 79t45.5 57.5q53 53 126.5 80.5t190.5 31.5l33 185h84l-33 -187q160 -10 225.5 -67.5t65.5 -153.5q0 -29 -6 -61h-84q4 16 4 49q0 80 -55.5 114.5t-163.5 38.5l-148 -843q74 4 127 20t94 51q53 47 70 129h86 q-6 -35 -25.5 -86t-62.5 -94q-53 -53 -128 -75.5t-175 -26.5l-33 -181h-84l33 183q-160 10 -235.5 76.5t-75.5 207.5zM158 274q0 -100 53 -150t182 -56l148 841q-80 -4 -136.5 -25.5t-95.5 -56.5q-49 -47 -75.5 -123.5t-51 -212t-24.5 -217.5z" />
<glyph unicode="&#xa3;" horiz-adv-x="1144" d="M6 0l14 82h117l99 563h-117l14 80h117l39 219q18 109 42.5 194t88.5 142q111 100 323 100q59 0 122 -4t113 -25.5t83 -65.5t33 -124q0 -29 -2 -39t-5 -30h-86q4 16 5 30v29q0 49 -18.5 77.5t-51.5 44t-80 20.5t-104 5q-92 0 -158 -18t-113 -61q-47 -41 -66.5 -111 t-35.5 -158l-39 -225h602l-14 -80h-602l-101 -563h717l-14 -82h-922z" />
<glyph unicode="&#xa4;" horiz-adv-x="1144" d="M82 530l14 80h113l24 148h-110l12 80h113l21 116q11 59 28.5 114.5t44.5 107t68 92.5q25 25 55.5 46t70 35.5t93 22.5t123 8t130 -9t104.5 -33.5t69.5 -67.5t25.5 -109q0 -16 -1 -28.5t-3 -22.5t-2 -18h-88q2 10 4 24t2 31q0 82 -55 116.5t-193 34.5q-106 0 -166.5 -22.5 t-105.5 -67.5q-31 -31 -52.5 -73.5t-35.5 -91t-26 -101.5l-21 -104h371l-13 -80h-372l-25 -148h371l-15 -80h-370l-20 -121q-9 -60 -9 -122q0 -119 62.5 -168t203.5 -49q96 0 162 16t111 59q49 47 65 131h88q-6 -37 -25.5 -89t-60.5 -93q-57 -59 -139 -83.5t-199 -24.5 q-184 0 -271 73.5t-87 227.5q0 29 3 63.5t8 68.5l9 63.5t9 47.5h-113z" />
<glyph unicode="&#xa5;" horiz-adv-x="1116" d="M162 535l14 79h320l-62 146h-237l14 78h190l-219 528h97l278 -680l512 680h105l-406 -528h186l-14 -78h-231l-111 -146h317l-14 -79h-323l-95 -535h-90l94 535h-325z" />
<glyph unicode="&#xa6;" horiz-adv-x="573" d="M244 215h86v-606h-86v606zM244 760v606h86v-606h-86z" />
<glyph unicode="&#xa7;" horiz-adv-x="1146" d="M74 4q0 16 2 32.5t6 37.5h86q-6 -31 -6 -58q0 -43 13 -70.5t46 -45t87 -24.5t134 -7q84 0 148.5 15.5t103.5 54.5q41 41 57.5 100t16.5 123q0 51 -18.5 78.5t-52 40t-82 14.5t-107.5 4q-68 2 -129.5 7t-109.5 26.5t-76.5 62.5t-28.5 113q0 68 23.5 144.5t80.5 121.5 q20 16 41 27.5t49 21.5q-106 37 -106 166q0 78 23.5 160t78.5 137q53 53 132 73.5t178 20.5q86 0 152.5 -9t111.5 -33.5t68.5 -68.5t23.5 -114q0 -27 -1 -36t-5 -27h-88q6 31 6 55q0 41 -12.5 69.5t-43 46t-84 25.5t-133.5 8q-70 0 -138 -15t-105 -54q-41 -41 -58.5 -103.5 t-17.5 -119.5q0 -51 19.5 -80t53 -42.5t82 -15.5t107.5 -2q68 0 130.5 -5t109.5 -25.5t75.5 -63.5t28.5 -117q0 -33 -7 -70.5t-20.5 -74.5t-35 -71t-49.5 -54q-18 -14 -37 -23.5t-45 -17.5q53 -18 79.5 -59t26.5 -113q0 -86 -26.5 -164t-75.5 -127q-51 -51 -129 -72.5 t-191 -21.5q-86 0 -152.5 9t-113.5 34t-71.5 66.5t-24.5 109.5zM256 520q0 -47 18.5 -75.5t53 -43t83 -18.5t109.5 -4q59 0 111.5 4t95.5 23.5t72.5 59.5t42.5 112q6 39 6 67q0 53 -21.5 82t-57.5 41t-84 15t-101 3q-57 0 -109.5 -3t-95.5 -22.5t-73 -60.5t-44 -114 q-6 -37 -6 -66z" />
<glyph unicode="&#xa8;" horiz-adv-x="845" d="M213 1286q0 35 19.5 57.5t58.5 22.5q57 0 57 -49q0 -37 -19.5 -59.5t-58.5 -22.5q-25 0 -41 10t-16 41zM649 1286q0 35 19.5 57.5t58.5 22.5q57 0 57 -49q0 -37 -19.5 -59.5t-57.5 -22.5q-25 0 -41.5 10t-16.5 41z" />
<glyph unicode="&#xa9;" horiz-adv-x="1681" d="M168 688q0 203 28.5 336t103.5 213t205 111.5t334.5 31.5t336 -31.5t207 -111.5t103 -214t27.5 -339q0 -201 -28.5 -334t-104 -215t-207 -115.5t-334 -33.5t-333.5 34.5t-206 116.5t-103.5 216t-28.5 335zM250 682q0 -176 23.5 -295t88 -190.5t179 -102.5t299.5 -31 q186 0 301.5 31t180 103.5t87.5 193.5t23 299q0 182 -23 301t-87.5 187.5t-180 96.5t-301.5 28q-188 0 -303 -29t-179.5 -99.5t-86 -190.5t-21.5 -302zM428 688q0 123 14.5 213t59.5 150.5t126 90t216 29.5q74 0 144.5 -13t123.5 -47t86 -89t33 -141h-80q0 70 -25.5 111.5 t-67.5 64t-97.5 30t-114.5 7.5q-115 0 -181.5 -26t-100.5 -76t-43 -127t-9 -177q0 -102 9 -178t43 -126t100.5 -75.5t181.5 -25.5q59 0 114.5 7t97.5 29.5t67.5 64.5t25.5 112h80q0 -86 -33 -141.5t-86 -89.5t-123.5 -47t-144.5 -13q-135 0 -216 29.5t-126 90t-59.5 150.5 t-14.5 213z" />
<glyph unicode="&#xaa;" horiz-adv-x="774" d="M113 840q0 90 31.5 141t79.5 77.5t104.5 33t107.5 6.5h244v6q0 8 2 12q2 8 4 19q4 18 6 36.5t2 32.5q0 39 -22 66q-18 20 -56 30.5t-112 10.5q-41 0 -80 -5.5t-72 -18.5t-55.5 -38.5t-30.5 -68.5h-76q12 63 43 102t76 60.5t98.5 29.5t108.5 8q49 0 95 -7t82 -25.5 t58.5 -50t22.5 -83.5q0 -31 -6 -64l-12 -67l-70 -395h-65l16 98q-49 -51 -116.5 -79.5t-166.5 -28.5q-117 0 -179 38t-62 124zM195 848q0 -18 6 -36.5t23.5 -32t49 -21.5t82.5 -8q84 0 137.5 18t88.5 53q41 41 57 92.5t29 114.5h-246q-47 0 -89 -6t-73 -25.5t-48 -55.5 t-17 -93z" />
<glyph unicode="&#xab;" horiz-adv-x="915" d="M72 453q0 61 31.5 119.5t80.5 112.5t108 105l111 97l52 -64l-89 -75q-52 -43 -98.5 -92.5t-79 -101.5t-32.5 -103q0 -41 14 -79t37.5 -75t53.5 -74l61 -73l-62 -54l-64 77q-34 40 -62 83t-45 92.5t-17 104.5zM459 453q0 61 31.5 119.5t81 112.5t107.5 105l112 97l51 -64 l-89 -75q-52 -43 -98.5 -92.5t-79 -101.5t-32.5 -103q0 -41 14 -79t37.5 -75t53.5 -74l61 -73l-62 -54l-64 77q-34 40 -61.5 83t-45 92.5t-17.5 104.5z" />
<glyph unicode="&#xac;" d="M88 649v82h975v-731h-84v649h-891z" />
<glyph unicode="&#xad;" horiz-adv-x="983" d="M143 451l17 81h598l-17 -81h-598z" />
<glyph unicode="&#xae;" horiz-adv-x="1085" d="M94 920q0 135 18.5 224t68.5 141t137.5 73.5t224.5 21.5t224 -21.5t137 -73.5t68.5 -142t18.5 -225q0 -133 -19.5 -222.5t-69.5 -142.5t-137 -76.5t-222 -23.5q-137 0 -224.5 23.5t-137.5 77.5t-68.5 143.5t-18.5 222.5zM158 915q0 -117 14 -194.5t56 -123.5t117 -64.5 t198 -18.5t198.5 19.5t116.5 66.5t55.5 125t14.5 196.5t-14.5 196.5t-56.5 123t-116.5 62.5t-197.5 17.5t-199 -18.5t-118 -64.5t-55 -124t-13 -199zM346 627v596h197q45 0 85 -2t67.5 -16.5t44 -48.5t16.5 -97q0 -43 -11.5 -74t-46.5 -53q35 -20 46.5 -54t11.5 -81v-170 h-64v166q0 45 -11 67.5t-31.5 31.5t-49.5 9h-63h-125v-274h-66zM412 961h131h62q28 0 47.5 8t29.5 28.5t10 63.5t-10 64.5t-30.5 29.5t-49.5 8h-65h-125v-202z" />
<glyph unicode="&#xaf;" horiz-adv-x="849" d="M197 1264l12 77h655l-12 -77h-655z" />
<glyph unicode="&#xb0;" horiz-adv-x="1155" d="M279 1090q0 160 69.5 225t229.5 65q162 0 230.5 -67.5t68.5 -229.5q0 -166 -67 -238.5t-235 -72.5q-84 0 -141 18.5t-92 57.5t-49 98.5t-14 143.5zM360 1075q0 -61 10.5 -104t35 -70t65.5 -39t104 -12q127 0 172.5 51t45.5 174t-44 175.5t-171 52.5t-172.5 -52.5 t-45.5 -175.5z" />
<glyph unicode="&#xb1;" d="M76 0v80h999v-80h-999zM86 586v82h446v391h84v-391h447v-82h-447v-396h-84v396h-446z" />
<glyph unicode="&#xb2;" horiz-adv-x="808" d="M98 551l31 184q10 66 39 106t68.5 63.5t89.5 36.5l98 28q43 12 80 25.5t65.5 33t49 51t26.5 80.5q2 10 2 22v21q0 59 -32.5 82t-120.5 23q-86 0 -139.5 -25t-65.5 -96h-80q20 109 89 150.5t191 41.5q43 0 86 -6t77 -22.5t54.5 -49t20.5 -83.5q0 -10 -1 -23.5t-3 -26.5 q-10 -76 -34.5 -122t-60.5 -73.5t-83 -43t-99 -29.5q-59 -16 -101 -30.5t-69.5 -33t-44 -47t-24.5 -73.5l-17 -94h437l-13 -70h-516z" />
<glyph unicode="&#xb3;" horiz-adv-x="808" d="M129 705q0 20 2 30h78v-20q2 -59 42 -80t122 -21q45 0 80.5 5.5t62.5 21.5t44.5 48t27.5 85q6 37 6 62q0 72 -44 91t-122 19h-121l12 70h125q39 0 73 3t59.5 17.5t43 41t25.5 75.5q6 31 6 53q0 57 -36.5 80t-122.5 23q-92 0 -137.5 -26t-61.5 -95h-78q23 113 88.5 152.5 t183.5 39.5q123 0 183.5 -37.5t60.5 -123.5q0 -27 -6 -58q-12 -72 -35.5 -112.5t-91.5 -69.5q43 -16 59.5 -53t16.5 -78q0 -35 -6 -68q-10 -74 -33 -120t-58.5 -72.5t-85 -35.5t-114.5 -9q-117 0 -182.5 35t-65.5 127z" />
<glyph unicode="&#xb4;" horiz-adv-x="843" d="M307 1102l311 264h109l-311 -264h-109z" />
<glyph unicode="&#xb5;" horiz-adv-x="1093" d="M6 -391l242 1370h88l-100 -580q-10 -53 -16.5 -94t-6.5 -74q0 -37 9 -66.5t35 -51t72 -32.5t120 -11q78 0 136 16t105 55q41 33 67.5 77t45 94t30.5 109l23 124l76 434h88l-172 -979h-86l26 150q-68 -96 -159.5 -130t-190.5 -34q-86 0 -158.5 23.5t-101.5 74.5l-84 -475 h-88z" />
<glyph unicode="&#x3bc;" horiz-adv-x="1093" d="M6 -391l242 1370h88l-100 -580q-10 -53 -16.5 -94t-6.5 -74q0 -37 9 -66.5t35 -51t72 -32.5t120 -11q78 0 136 16t105 55q41 33 67.5 77t45 94t30.5 109l23 124l76 434h88l-172 -979h-86l26 150q-68 -96 -159.5 -130t-190.5 -34q-86 0 -158.5 23.5t-101.5 74.5l-84 -475 h-88z" />
<glyph unicode="&#xb6;" horiz-adv-x="1142" d="M135 891q0 45 8.5 98t23.5 105.5t39.5 99.5t55.5 78q70 68 175.5 81t252.5 13h338l-242 -1366h-86l228 1284h-146l-227 -1284h-86l113 637h-72q-51 0 -95 1t-82 7t-72 21.5t-64 46.5q-27 27 -44.5 69.5t-17.5 108.5zM227 909q0 -70 18.5 -107.5t55.5 -56t92.5 -22.5 t128.5 -4h74l100 565h-131q-57 0 -125.5 -14.5t-111.5 -57.5q-25 -25 -44.5 -62.5t-31.5 -78.5t-18.5 -83t-6.5 -79z" />
<glyph unicode="&#xb7;" horiz-adv-x="425" d="M141 672q0 39 20.5 61.5t61.5 22.5q61 0 62 -54q0 -39 -20.5 -62.5t-61.5 -23.5q-27 0 -44.5 11.5t-17.5 44.5z" />
<glyph unicode="&#xb8;" horiz-adv-x="1054" d="M166 -289q0 8 1 16.5t3 18.5h66q-2 -8 -3 -15v-12q0 -27 18.5 -32.5t55.5 -5.5q59 0 84 28.5t25 83.5q0 41 -28 50.5t-60 9.5q-10 0 -18.5 -1.5t-16.5 -1.5l26 150h72l-16 -92q59 0 85.5 -26.5t26.5 -74.5q0 -98 -47 -143t-137 -45q-74 0 -105.5 21.5t-31.5 70.5z" />
<glyph unicode="&#xb9;" horiz-adv-x="808" d="M106 547l13 69h188l113 639l-162 -131l-45 58l233 184h70l-131 -750h188l-12 -69h-455z" />
<glyph unicode="&#xba;" horiz-adv-x="768" d="M125 899q0 37 6 92.5t19.5 114.5t36 113.5t53.5 87.5q37 39 95 56t154 17q152 0 213.5 -53t61.5 -166q0 -37 -6 -92t-19.5 -114.5t-36 -114t-53.5 -86.5q-37 -39 -95 -56.5t-155 -17.5q-152 0 -213 52t-61 167zM199 899q0 -51 17 -81t46 -44t64.5 -18t72.5 -4 q74 0 120 13t75 42q27 27 45 76t29.5 102t16.5 102.5t5 73.5q0 49 -17.5 78t-46 44t-64.5 20.5t-73 5.5q-74 0 -119.5 -13.5t-74.5 -42.5q-27 -27 -45.5 -76t-29.5 -102t-16 -102t-5 -74z" />
<glyph unicode="&#xbb;" horiz-adv-x="915" d="M72 160l89 76q52 43 98 92t79 101t33 103q0 41 -14.5 79t-38 75t-53.5 74l-60 74l61 53l64 -77q33 -40 60.5 -83t46 -92t18.5 -105q0 -61 -32 -119.5t-81 -112.5t-107 -105l-112 -97zM459 160l89 76q52 43 98 92t79 101t33 103q0 41 -14.5 79t-38 75t-53.5 74l-60 74 l61 53l64 -77q33 -40 60.5 -83t46 -92t18.5 -105q0 -61 -32 -119.5t-81 -112.5t-107 -105l-112 -97z" />
<glyph unicode="&#xbc;" horiz-adv-x="1617" d="M106 547l13 69h188l113 639l-162 -131l-45 58l233 184h70l-131 -750h188l-12 -69h-455zM311 0l961 1376h86l-961 -1376h-86zM807 229l12 68l465 522h74l-92 -524h125l-13 -66h-125l-39 -229h-77l41 229h-371zM907 295h283l70 405z" />
<glyph unicode="&#xbd;" horiz-adv-x="1617" d="M106 547l13 69h188l113 639l-162 -131l-45 58l233 184h70l-131 -750h188l-12 -69h-455zM311 0l961 1376h86l-961 -1376h-86zM903 0l31 184q10 66 38.5 106t68.5 63.5t89 36.5l99 28q43 12 80 25.5t65.5 33t49 51t26.5 80.5q2 10 2 22v21q0 59 -33 82t-121 23 q-86 0 -139 -24.5t-65 -96.5h-80q20 109 88.5 150.5t191.5 41.5q43 0 86 -6t77 -22.5t54.5 -49t20.5 -83.5q0 -10 -1 -23.5t-3 -26.5q-10 -76 -35 -121.5t-60.5 -73.5t-82.5 -43t-99 -30q-59 -16 -101 -30.5t-69.5 -33t-44 -47t-24.5 -73.5l-17 -94h437l-13 -70h-516z" />
<glyph unicode="&#xbe;" horiz-adv-x="1619" d="M129 705q0 20 2 30h78v-20q2 -59 42 -80t122 -21q45 0 80.5 5.5t62.5 21.5t44.5 48t27.5 85q6 37 6 62q0 72 -44 91t-122 19h-121l12 70h125q39 0 73 3t59.5 17.5t43 41t25.5 75.5q6 31 6 53q0 57 -36.5 80t-122.5 23q-92 0 -137.5 -26t-61.5 -95h-78q23 113 88.5 152.5 t183.5 39.5q123 0 183.5 -37.5t60.5 -123.5q0 -27 -6 -58q-12 -72 -35.5 -112.5t-91.5 -69.5q43 -16 59.5 -53t16.5 -78q0 -35 -6 -68q-10 -74 -33 -120t-58.5 -72.5t-85 -35.5t-114.5 -9q-117 0 -182.5 35t-65.5 127zM311 0l961 1376h86l-961 -1376h-86zM807 229l12 68 l465 522h74l-92 -524h125l-13 -66h-125l-39 -229h-77l41 229h-371zM907 295h283l70 405z" />
<glyph unicode="&#xbf;" horiz-adv-x="860" d="M-68 -147q0 37 6.5 79.5t19.5 83.5t33.5 79t47.5 65q35 35 76 60.5t98 47.5q53 20 85 42t50.5 47.5t28.5 61.5t18 87l15 84h86l-17 -88q-10 -59 -21.5 -103.5t-33 -78t-60 -62.5t-106.5 -57q-51 -23 -90 -44.5t-64 -47.5q-43 -45 -63.5 -116t-20.5 -130q0 -106 53.5 -144 t180.5 -38q147 0 224 45t97 161h87q-29 -160 -126.5 -224t-279.5 -64q-70 0 -129 11t-102 39.5t-68 78t-25 125.5zM440 903q0 41 20.5 65.5t63.5 24.5q31 0 45.5 -12t14.5 -45q0 -82 -84 -82q-60 0 -60 49z" />
<glyph unicode="&#xc0;" horiz-adv-x="1243" d="M-68 0l764 1366h97l278 -1366h-92l-82 418h-639l-229 -418h-97zM303 496h578l-154 764zM602 1761h98l222 -264h-99z" />
<glyph unicode="&#xc1;" horiz-adv-x="1243" d="M-68 0l764 1366h97l278 -1366h-92l-82 418h-639l-229 -418h-97zM303 496h578l-154 764zM594 1497l311 264h109l-312 -264h-108z" />
<glyph unicode="&#xc2;" horiz-adv-x="1243" d="M-68 0l764 1366h97l278 -1366h-92l-82 418h-639l-229 -418h-97zM303 496h578l-154 764zM451 1497l319 264h84l225 -264h-100l-170 205l-246 -205h-112z" />
<glyph unicode="&#xc3;" horiz-adv-x="1243" d="M-68 0l764 1366h97l278 -1366h-92l-82 418h-639l-229 -418h-97zM303 496h578l-154 764zM418 1655l121 63l59 28q37 17 88 17q57 0 109 -30l69 -43q35 -20 76 -21q31 0 47.5 6t34.5 17l135 65l31 -63l-123 -62q-20 -10 -52 -24.5t-77 -14.5q-53 0 -90 18.5t-60 33.5 l-51 29.5t-59 13.5q-25 0 -45.5 -6.5t-36.5 -16.5l-145 -74z" />
<glyph unicode="&#xc4;" horiz-adv-x="1243" d="M-68 0l764 1366h97l278 -1366h-92l-82 418h-639l-229 -418h-97zM303 496h578l-154 764zM518 1679q0 35 19.5 57.5t58.5 22.5q57 0 57 -49q0 -37 -19.5 -59.5t-58.5 -22.5q-25 0 -41 10t-16 41zM954 1679q0 35 19.5 57.5t58.5 22.5q57 0 58 -49q0 -37 -19.5 -59.5 t-58.5 -22.5q-25 0 -41.5 10t-16.5 41z" />
<glyph unicode="&#xc5;" horiz-adv-x="1243" d="M-68 0l713 1274q-117 18 -117 143q0 16 2 38t7 44q10 66 28.5 108t50.5 68q31 25 74 35t105 10q98 0 153.5 -31.5t55.5 -119.5q0 -16 -2.5 -34.5t-6.5 -41.5q-10 -59 -28.5 -103t-53.5 -73q-39 -33 -102 -43l260 -1274h-92l-82 418h-639l-229 -418h-97zM303 496h578 l-154 764zM606 1419q0 -47 33 -64.5t100 -17.5q86 0 123 31q18 16 31.5 44t24.5 79q4 23 6 42t2 34q0 49 -33 66.5t-98 17.5q-88 0 -125 -31q-18 -16 -31.5 -44t-24.5 -81q-4 -23 -6 -42.5t-2 -33.5z" />
<glyph unicode="&#xc6;" horiz-adv-x="1830" d="M-123 0l1141 1366h778l-14 -82h-656l-96 -541h635l-14 -81h-635l-103 -580h656l-15 -82h-747l76 422h-545l-352 -422h-109zM401 502h496l131 753z" />
<glyph unicode="&#xc7;" horiz-adv-x="1298" d="M121 309q0 70 12 161t35 212q29 166 60.5 296t96 219t177 136t307.5 47q98 0 175 -11t129 -41t80 -81t28 -131q0 -39 -3 -61l-6 -37h-90q4 27 6.5 50.5t2.5 43.5q0 51 -16.5 87t-55.5 57.5t-103.5 30.5t-158.5 9q-111 0 -205 -22.5t-160 -87.5q-43 -43 -69.5 -95.5 t-44 -116t-30.5 -136.5l-28 -156l-14 -75q-8 -44 -15.5 -93t-13.5 -99t-6 -93q0 -70 18.5 -118t60.5 -78t107.5 -43t159.5 -13q109 0 186.5 14t132 47t86 86t46.5 131h88q-18 -98 -56.5 -167.5t-100.5 -112.5t-154.5 -62.5t-217.5 -19.5l-20 -78q59 0 85.5 -26.5t26.5 -74.5 q0 -98 -47 -143t-133 -45q-78 0 -109.5 24.5t-31.5 71.5q0 8 1 16.5t3 18.5h66q-2 -8 -2 -15v-11q0 -29 21.5 -36t55.5 -7q55 0 80 28.5t25 83.5q0 41 -28 50.5t-60 9.5q-10 0 -18.5 -1.5t-16.5 -1.5l31 138q-193 10 -284 83.5t-91 237.5z" />
<glyph unicode="&#xc8;" horiz-adv-x="1171" d="M74 0l241 1366h822l-15 -82h-729l-96 -541h709l-15 -81h-708l-103 -580h729l-14 -82h-821zM573 1761h99l221 -264h-98z" />
<glyph unicode="&#xc9;" horiz-adv-x="1171" d="M74 0l241 1366h822l-15 -82h-729l-96 -541h709l-15 -81h-708l-103 -580h729l-14 -82h-821zM551 1497l311 264h109l-312 -264h-108z" />
<glyph unicode="&#xca;" horiz-adv-x="1171" d="M74 0l241 1366h822l-15 -82h-729l-96 -541h709l-15 -81h-708l-103 -580h729l-14 -82h-821zM420 1497l319 264h84l226 -264h-101l-170 205l-246 -205h-112z" />
<glyph unicode="&#xcb;" horiz-adv-x="1171" d="M74 0l241 1366h822l-15 -82h-729l-96 -541h709l-15 -81h-708l-103 -580h729l-14 -82h-821zM498 1681q0 35 19.5 57.5t57.5 22.5q57 0 58 -49q0 -37 -19.5 -59.5t-58.5 -22.5q-25 0 -41 10t-16 41zM934 1681q0 35 19.5 57.5t58.5 22.5q57 0 57 -49q0 -37 -19.5 -59.5 t-58.5 -22.5q-25 0 -41 10t-16 41z" />
<glyph unicode="&#xcc;" horiz-adv-x="481" d="M76 0l241 1366h91l-242 -1366h-90zM266 1761h99l221 -264h-99z" />
<glyph unicode="&#xcd;" horiz-adv-x="481" d="M76 0l241 1366h91l-242 -1366h-90zM236 1497l311 264h108l-311 -264h-108z" />
<glyph unicode="&#xce;" horiz-adv-x="481" d="M76 0l241 1366h91l-242 -1366h-90zM98 1497l320 264h84l225 -264h-100l-170 205l-246 -205h-113z" />
<glyph unicode="&#xcf;" horiz-adv-x="481" d="M76 0l241 1366h91l-242 -1366h-90zM166 1681q0 35 19.5 57.5t58.5 22.5q57 0 57 -49q0 -37 -19.5 -59.5t-58.5 -22.5q-25 0 -41 10t-16 41zM602 1681q0 35 19.5 57.5t58.5 22.5q57 0 57 -49q0 -37 -19.5 -59.5t-58.5 -22.5q-25 0 -41 10t-16 41z" />
<glyph unicode="&#xd0;" horiz-adv-x="1341" d="M16 647l15 82h172l112 637h422q76 0 140.5 -3t119 -15.5t96.5 -35t72 -61.5q57 -76 58 -207q0 -49 -6.5 -103t-13.5 -104.5t-15 -91.5l-12 -61q-29 -164 -60 -292t-95.5 -215t-180 -132t-314.5 -45h-452l114 647h-172zM176 82h346q174 0 272.5 37t154 111.5t82 188 t54.5 265.5l31.5 183t13.5 167q0 90 -28.5 140.5t-81.5 75t-128 30.5t-167 6h-336l-98 -557h387l-14 -82h-388z" />
<glyph unicode="&#xd1;" horiz-adv-x="1323" d="M74 0l241 1366h113l512 -1245l221 1245h88l-241 -1366h-113l-512 1251l-221 -1251h-88zM451 1659l120 63l60 28q37 17 88 17q57 0 108 -30l70 -43q35 -20 76 -21q31 0 47 6.5t35 16.5l135 65l31 -63l-123 -62q-20 -10 -52 -24.5t-77 -14.5q-53 0 -90 18.5t-60 33.5 l-51.5 29.5t-58.5 13.5q-25 0 -45.5 -6.5t-36.5 -16.5l-146 -74z" />
<glyph unicode="&#xd2;" horiz-adv-x="1361" d="M121 311q0 70 12 160t35 211q20 119 38.5 207t40 153.5t50.5 114.5t70 90q57 57 162.5 95t275.5 38q223 0 329.5 -72.5t106.5 -248.5q0 -70 -12 -156t-35 -219q-20 -119 -38.5 -207t-40 -154.5t-50.5 -114.5t-70 -89q-59 -59 -161.5 -97t-274.5 -38q-227 0 -332.5 74.5 t-105.5 252.5zM211 324q0 -68 17.5 -116t58.5 -79t108.5 -45t167.5 -14q135 0 222 26.5t145 83.5q35 35 58.5 78t43 102.5t35.5 139.5t35 186q23 119 36 212t13 153q0 139 -82 192t-268 53q-78 0 -137.5 -9t-103.5 -25.5t-75.5 -37t-52.5 -40.5q-35 -35 -59.5 -79 t-43 -104.5t-34.5 -138.5t-35 -180q-23 -127 -36 -217t-13 -141zM666 1761h98l221 -264h-98z" />
<glyph unicode="&#xd3;" horiz-adv-x="1361" d="M121 311q0 70 12 160t35 211q20 119 38.5 207t40 153.5t50.5 114.5t70 90q57 57 162.5 95t275.5 38q223 0 329.5 -72.5t106.5 -248.5q0 -70 -12 -156t-35 -219q-20 -119 -38.5 -207t-40 -154.5t-50.5 -114.5t-70 -89q-59 -59 -161.5 -97t-274.5 -38q-227 0 -332.5 74.5 t-105.5 252.5zM211 324q0 -68 17.5 -116t58.5 -79t108.5 -45t167.5 -14q135 0 222 26.5t145 83.5q35 35 58.5 78t43 102.5t35.5 139.5t35 186q23 119 36 212t13 153q0 139 -82 192t-268 53q-78 0 -137.5 -9t-103.5 -25.5t-75.5 -37t-52.5 -40.5q-35 -35 -59.5 -79 t-43 -104.5t-34.5 -138.5t-35 -180q-23 -127 -36 -217t-13 -141zM655 1497l312 264h108l-311 -264h-109z" />
<glyph unicode="&#xd4;" horiz-adv-x="1361" d="M121 311q0 70 12 160t35 211q20 119 38.5 207t40 153.5t50.5 114.5t70 90q57 57 162.5 95t275.5 38q223 0 329.5 -72.5t106.5 -248.5q0 -70 -12 -156t-35 -219q-20 -119 -38.5 -207t-40 -154.5t-50.5 -114.5t-70 -89q-59 -59 -161.5 -97t-274.5 -38q-227 0 -332.5 74.5 t-105.5 252.5zM211 324q0 -68 17.5 -116t58.5 -79t108.5 -45t167.5 -14q135 0 222 26.5t145 83.5q35 35 58.5 78t43 102.5t35.5 139.5t35 186q23 119 36 212t13 153q0 139 -82 192t-268 53q-78 0 -137.5 -9t-103.5 -25.5t-75.5 -37t-52.5 -40.5q-35 -35 -59.5 -79 t-43 -104.5t-34.5 -138.5t-35 -180q-23 -127 -36 -217t-13 -141zM502 1497l319 264h84l225 -264h-100l-170 205l-246 -205h-112z" />
<glyph unicode="&#xd5;" horiz-adv-x="1361" d="M121 311q0 70 12 160t35 211q20 119 38.5 207t40 153.5t50.5 114.5t70 90q57 57 162.5 95t275.5 38q223 0 329.5 -72.5t106.5 -248.5q0 -70 -12 -156t-35 -219q-20 -119 -38.5 -207t-40 -154.5t-50.5 -114.5t-70 -89q-59 -59 -161.5 -97t-274.5 -38q-227 0 -332.5 74.5 t-105.5 252.5zM211 324q0 -68 17.5 -116t58.5 -79t108.5 -45t167.5 -14q135 0 222 26.5t145 83.5q35 35 58.5 78t43 102.5t35.5 139.5t35 186q23 119 36 212t13 153q0 139 -82 192t-268 53q-78 0 -137.5 -9t-103.5 -25.5t-75.5 -37t-52.5 -40.5q-35 -35 -59.5 -79 t-43 -104.5t-34.5 -138.5t-35 -180q-23 -127 -36 -217t-13 -141zM471 1655l121 63l59 28q37 17 88 17q57 0 109 -30l70 -43q35 -20 75 -21q31 0 47.5 6t34.5 17l135 65l31 -63l-123 -62q-20 -10 -52 -24.5t-77 -14.5q-53 0 -90 18.5t-59 33.5l-51.5 29.5t-59.5 13.5 q-25 0 -45 -6.5t-37 -16.5l-145 -74z" />
<glyph unicode="&#xd6;" horiz-adv-x="1361" d="M121 311q0 70 12 160t35 211q20 119 38.5 207t40 153.5t50.5 114.5t70 90q57 57 162.5 95t275.5 38q223 0 329.5 -72.5t106.5 -248.5q0 -70 -12 -156t-35 -219q-20 -119 -38.5 -207t-40 -154.5t-50.5 -114.5t-70 -89q-59 -59 -161.5 -97t-274.5 -38q-227 0 -332.5 74.5 t-105.5 252.5zM211 324q0 -68 17.5 -116t58.5 -79t108.5 -45t167.5 -14q135 0 222 26.5t145 83.5q35 35 58.5 78t43 102.5t35.5 139.5t35 186q23 119 36 212t13 153q0 139 -82 192t-268 53q-78 0 -137.5 -9t-103.5 -25.5t-75.5 -37t-52.5 -40.5q-35 -35 -59.5 -79 t-43 -104.5t-34.5 -138.5t-35 -180q-23 -127 -36 -217t-13 -141zM571 1679q0 35 19.5 57.5t58.5 22.5q57 0 58 -49q0 -37 -19.5 -59.5t-58.5 -22.5q-25 0 -41.5 10t-16.5 41zM1008 1679q0 35 19.5 57.5t57.5 22.5q57 0 58 -49q0 -37 -19.5 -59.5t-58.5 -22.5q-25 0 -41 10 t-16 41z" />
<glyph unicode="&#xd7;" horiz-adv-x="1153" d="M121 104l397 398l-395 395l57 57l395 -393l398 393l57 -57l-395 -395l397 -398l-59 -57l-398 399l-395 -399z" />
<glyph unicode="&#xd8;" horiz-adv-x="1361" d="M121 311q0 70 12 160t35 211q20 119 38.5 207t40 153.5t50.5 114.5t70 90q57 57 162.5 95t275.5 38h58q28 0 55 -4l108 273l76 -31l-103 -256q123 -27 182.5 -99.5t59.5 -203.5q0 -70 -12 -156t-35 -219q-20 -119 -38.5 -207t-40 -154.5t-50.5 -114.5t-70 -89 q-59 -59 -161.5 -97t-274.5 -38q-63 0 -115 6l-112 -281l-76 31l106 262q-123 29 -182 102.5t-59 206.5zM211 324q0 -104 40 -162t144 -78l490 1210q-14 2 -38 2h-46q-78 0 -137.5 -9t-103.5 -25.5t-75.5 -37t-52.5 -40.5q-35 -35 -59.5 -79t-43 -104.5t-34.5 -138.5 t-35 -180q-23 -127 -36 -217t-13 -141zM479 72q20 -2 41 -2h43q135 0 222 26.5t145 83.5q35 35 58.5 78t43 102.5t35.5 139.5t35 186q23 119 36 212t13 153q0 104 -43 157.5t-141 73.5z" />
<glyph unicode="&#xd9;" horiz-adv-x="1329" d="M121 287q0 88 20.5 194.5t36.5 206.5l119 678h92l-119 -678q-23 -135 -41 -229t-18 -160q0 -127 85 -178t239 -51q158 0 246.5 44t137 126t71 195.5t46.5 252.5l119 678h92l-119 -678q-14 -86 -25 -147.5t-21.5 -106.5t-19.5 -78.5t-20 -62.5q-57 -162 -188 -234.5 t-324 -72.5q-195 0 -302 72.5t-107 228.5zM614 1761h99l221 -264h-98z" />
<glyph unicode="&#xda;" horiz-adv-x="1329" d="M121 287q0 88 20.5 194.5t36.5 206.5l119 678h92l-119 -678q-23 -135 -41 -229t-18 -160q0 -127 85 -178t239 -51q158 0 246.5 44t137 126t71 195.5t46.5 252.5l119 678h92l-119 -678q-14 -86 -25 -147.5t-21.5 -106.5t-19.5 -78.5t-20 -62.5q-57 -162 -188 -234.5 t-324 -72.5q-195 0 -302 72.5t-107 228.5zM627 1497l311 264h109l-312 -264h-108z" />
<glyph unicode="&#xdb;" horiz-adv-x="1329" d="M121 287q0 88 20.5 194.5t36.5 206.5l119 678h92l-119 -678q-23 -135 -41 -229t-18 -160q0 -127 85 -178t239 -51q158 0 246.5 44t137 126t71 195.5t46.5 252.5l119 678h92l-119 -678q-14 -86 -25 -147.5t-21.5 -106.5t-19.5 -78.5t-20 -62.5q-57 -162 -188 -234.5 t-324 -72.5q-195 0 -302 72.5t-107 228.5zM477 1497l320 264h84l225 -264h-100l-170 205l-246 -205h-113z" />
<glyph unicode="&#xdc;" horiz-adv-x="1329" d="M121 287q0 88 20.5 194.5t36.5 206.5l119 678h92l-119 -678q-23 -135 -41 -229t-18 -160q0 -127 85 -178t239 -51q158 0 246.5 44t137 126t71 195.5t46.5 252.5l119 678h92l-119 -678q-14 -86 -25 -147.5t-21.5 -106.5t-19.5 -78.5t-20 -62.5q-57 -162 -188 -234.5 t-324 -72.5q-195 0 -302 72.5t-107 228.5zM545 1679q0 35 19.5 57.5t58.5 22.5q57 0 57 -49q0 -37 -19.5 -59.5t-58.5 -22.5q-25 0 -41 10t-16 41zM981 1679q0 35 19.5 57.5t58.5 22.5q57 0 57 -49q0 -37 -19.5 -59.5t-58.5 -22.5q-25 0 -41 10t-16 41z" />
<glyph unicode="&#xdd;" horiz-adv-x="1062" d="M141 1366h99l290 -676l529 676h104l-600 -764l-106 -602h-90l106 602zM532 1497l312 264h108l-311 -264h-109z" />
<glyph unicode="&#xde;" horiz-adv-x="1202" d="M76 0l241 1366h89l-56 -313h305q63 0 125 -1t117 -8.5t101 -25t79 -49.5q59 -59 60 -181q0 -41 -7.5 -91t-22.5 -100t-37.5 -96t-55.5 -79q-29 -29 -62.5 -48.5t-82 -31.5t-117 -17.5t-166.5 -5.5h-363l-57 -319h-90zM238 401h366q68 0 119 2t92 9.5t73 23t58 41.5 q47 45 72.5 127t25.5 174q0 66 -19 105t-57 58.5t-92.5 25.5t-123.5 6h-414z" />
<glyph unicode="&#xdf;" horiz-adv-x="1144" d="M43 0l180 1038q14 82 37 156t71 129t133 87t224 32q188 0 276.5 -59.5t88.5 -194.5q0 -22 -3 -48t-8 -55q-12 -66 -28.5 -118t-45 -91.5t-72.5 -67.5t-110 -44q78 -14 121 -78.5t43 -157.5q0 -55 -7 -116.5t-24.5 -120t-46 -109.5t-71.5 -88q-59 -53 -135 -73.5 t-203 -20.5h-187l15 80h178q143 0 221 39t119 141q18 45 34.5 120t16.5 146q0 41 -8 77t-35 63q-33 33 -87 45t-152 12h-173l15 80h164q94 0 154.5 15.5t107.5 45.5q82 53 108 215l8 50q3 22 3 53q0 96 -62.5 137t-214.5 41q-106 0 -172.5 -19.5t-107.5 -61.5t-62.5 -104.5 t-36.5 -148.5l-178 -1026h-88z" />
<glyph unicode="&#xe0;" horiz-adv-x="1081" d="M35 215q0 16 2 36.5t6 39.5q16 98 54 155.5t93.5 87t126 38t152.5 8.5h346l8 49q4 33 9.5 66.5t5.5 56.5q0 90 -56.5 124.5t-201.5 34.5q-82 0 -161 -14t-130 -66q-39 -39 -49 -72l-15 -48h-88q10 59 34 102t52 72q55 55 146.5 82.5t228.5 27.5q66 0 125 -9t105 -35.5 t73 -71.5t27 -117q0 -41 -7.5 -90t-17.5 -103l-100 -569h-88l26 143q-59 -84 -153 -120.5t-236 -36.5q-147 0 -232 55t-85 174zM127 223q0 -78 52 -117.5t186 -39.5q127 0 203.5 30.5t121.5 87t67.5 137t41.5 179.5h-357q-63 0 -115.5 -7.5t-91 -31t-64.5 -67.5t-38 -115 q-4 -16 -5 -31t-1 -25zM451 1366h98l221 -264h-98z" />
<glyph unicode="&#xe1;" horiz-adv-x="1081" d="M35 215q0 16 2 36.5t6 39.5q16 98 54 155.5t93.5 87t126 38t152.5 8.5h346l8 49q4 33 9.5 66.5t5.5 56.5q0 90 -56.5 124.5t-201.5 34.5q-82 0 -161 -14t-130 -66q-39 -39 -49 -72l-15 -48h-88q10 59 34 102t52 72q55 55 146.5 82.5t228.5 27.5q66 0 125 -9t105 -35.5 t73 -71.5t27 -117q0 -41 -7.5 -90t-17.5 -103l-100 -569h-88l26 143q-59 -84 -153 -120.5t-236 -36.5q-147 0 -232 55t-85 174zM127 223q0 -78 52 -117.5t186 -39.5q127 0 203.5 30.5t121.5 87t67.5 137t41.5 179.5h-357q-63 0 -115.5 -7.5t-91 -31t-64.5 -67.5t-38 -115 q-4 -16 -5 -31t-1 -25zM434 1102l311 264h109l-311 -264h-109z" />
<glyph unicode="&#xe2;" horiz-adv-x="1081" d="M35 215q0 16 2 36.5t6 39.5q16 98 54 155.5t93.5 87t126 38t152.5 8.5h346l8 49q4 33 9.5 66.5t5.5 56.5q0 90 -56.5 124.5t-201.5 34.5q-82 0 -161 -14t-130 -66q-39 -39 -49 -72l-15 -48h-88q10 59 34 102t52 72q55 55 146.5 82.5t228.5 27.5q66 0 125 -9t105 -35.5 t73 -71.5t27 -117q0 -41 -7.5 -90t-17.5 -103l-100 -569h-88l26 143q-59 -84 -153 -120.5t-236 -36.5q-147 0 -232 55t-85 174zM127 223q0 -78 52 -117.5t186 -39.5q127 0 203.5 30.5t121.5 87t67.5 137t41.5 179.5h-357q-63 0 -115.5 -7.5t-91 -31t-64.5 -67.5t-38 -115 q-4 -16 -5 -31t-1 -25zM297 1102l319 264h84l226 -264h-101l-170 205l-245 -205h-113z" />
<glyph unicode="&#xe3;" horiz-adv-x="1081" d="M35 215q0 16 2 36.5t6 39.5q16 98 54 155.5t93.5 87t126 38t152.5 8.5h346l8 49q4 33 9.5 66.5t5.5 56.5q0 90 -56.5 124.5t-201.5 34.5q-82 0 -161 -14t-130 -66q-39 -39 -49 -72l-15 -48h-88q10 59 34 102t52 72q55 55 146.5 82.5t228.5 27.5q66 0 125 -9t105 -35.5 t73 -71.5t27 -117q0 -41 -7.5 -90t-17.5 -103l-100 -569h-88l26 143q-59 -84 -153 -120.5t-236 -36.5q-147 0 -232 55t-85 174zM127 223q0 -78 52 -117.5t186 -39.5q127 0 203.5 30.5t121.5 87t67.5 137t41.5 179.5h-357q-63 0 -115.5 -7.5t-91 -31t-64.5 -67.5t-38 -115 q-4 -16 -5 -31t-1 -25zM248 1264l121 63l59 28q37 17 88 17q57 0 109 -31l69 -43q35 -20 76 -20q31 0 47.5 6t34.5 16l135 66l31 -63l-123 -62q-20 -10 -52 -24.5t-77 -14.5q-53 0 -90 18.5t-60 32.5l-51 29.5t-59 13.5q-25 0 -45.5 -6t-36.5 -16l-145 -74z" />
<glyph unicode="&#xe4;" horiz-adv-x="1081" d="M35 215q0 16 2 36.5t6 39.5q16 98 54 155.5t93.5 87t126 38t152.5 8.5h346l8 49q4 33 9.5 66.5t5.5 56.5q0 90 -56.5 124.5t-201.5 34.5q-82 0 -161 -14t-130 -66q-39 -39 -49 -72l-15 -48h-88q10 59 34 102t52 72q55 55 146.5 82.5t228.5 27.5q66 0 125 -9t105 -35.5 t73 -71.5t27 -117q0 -41 -7.5 -90t-17.5 -103l-100 -569h-88l26 143q-59 -84 -153 -120.5t-236 -36.5q-147 0 -232 55t-85 174zM127 223q0 -78 52 -117.5t186 -39.5q127 0 203.5 30.5t121.5 87t67.5 137t41.5 179.5h-357q-63 0 -115.5 -7.5t-91 -31t-64.5 -67.5t-38 -115 q-4 -16 -5 -31t-1 -25zM356 1286q0 35 19.5 57.5t58.5 22.5q57 0 58 -49q0 -37 -19.5 -59.5t-58.5 -22.5q-25 0 -41.5 10t-16.5 41zM793 1286q0 35 19 57.5t58 22.5q57 0 58 -49q0 -37 -19.5 -59.5t-58.5 -22.5q-25 0 -41 10t-16 41z" />
<glyph unicode="&#xe5;" horiz-adv-x="1081" d="M35 215q0 16 2 36.5t6 39.5q16 98 54 155.5t93.5 87t126 38t152.5 8.5h346l8 49q4 33 9.5 66.5t5.5 56.5q0 90 -56.5 124.5t-201.5 34.5q-82 0 -161 -14t-130 -66q-39 -39 -49 -72l-15 -48h-88q10 59 34 102t52 72q72 72 203 96q-33 20 -33 92q0 14 2 37t6 41 q10 61 27.5 103t46.5 67t72 36t104 11q92 0 144.5 -29.5t52.5 -113.5q0 -16 -2 -33.5t-6 -40.5q-10 -59 -29.5 -107.5t-54.5 -64.5q78 -20 125 -71.5t47 -145.5q0 -41 -7.5 -90t-17.5 -103l-100 -569h-88l26 143q-59 -84 -153 -120.5t-236 -36.5q-147 0 -232 55t-85 174z M127 223q0 -78 52 -117.5t186 -39.5q127 0 203.5 30.5t121.5 87t67.5 137t41.5 179.5h-357q-63 0 -115.5 -7.5t-91 -31t-64.5 -67.5t-38 -115q-4 -16 -5 -31t-1 -25zM465 1073q0 -45 30.5 -61.5t96.5 -16.5q92 0 127 37t49 115q8 41 8 76q0 45 -29.5 61t-95.5 16 q-94 0 -128 -35.5t-48 -113.5q-4 -27 -7 -44.5t-3 -33.5z" />
<glyph unicode="&#xe6;" horiz-adv-x="1785" d="M35 215q0 16 2 35.5t6 38.5q16 98 54 155.5t93.5 86t126 36.5t152.5 8h346l8 54q4 33 9.5 66.5t5.5 56.5q0 90 -56.5 124.5t-201.5 34.5q-82 0 -161 -14t-130 -66q-39 -39 -49 -72l-15 -48h-88q10 59 34 102t52 72q55 55 146.5 82.5t228.5 27.5q131 0 215 -36.5 t96 -120.5q63 92 165 124.5t210 32.5q180 0 268 -67.5t88 -214.5q0 -59 -6 -114.5t-16 -104.5h-731l-18.5 -116.5t-8.5 -103.5q0 -109 64.5 -157.5t218.5 -48.5q59 0 114.5 8t101.5 30.5t78.5 61.5t45.5 100h88q-16 -84 -57 -139t-98.5 -87t-129.5 -44t-149 -12 q-59 0 -117.5 8t-107 31.5t-81 64.5t-40.5 109q-8 -16 -20.5 -38t-43.5 -52q-59 -59 -152.5 -91t-222.5 -32q-147 0 -232 55t-85 174zM127 223q0 -78 52 -117.5t186 -39.5q125 0 202.5 30.5t122.5 87t67.5 135t41.5 175.5h-357q-63 0 -115.5 -7.5t-91 -30t-64.5 -65.5 t-38 -115q-6 -30 -6 -53zM903 575h637q4 31 8 55.5t4 76.5q0 109 -63.5 157.5t-208.5 48.5q-92 0 -156.5 -20.5t-107.5 -61t-70 -105.5t-43 -151z" />
<glyph unicode="&#xe7;" horiz-adv-x="1054" d="M68 272q0 45 7 98.5t17 118.5q14 84 29.5 146.5t33 109t38 79t45.5 57.5q57 57 137 84.5t211 27.5q188 0 266 -60.5t78 -162.5q0 -29 -6 -61h-84q4 16 4 49q0 88 -66.5 120.5t-195.5 32.5q-98 0 -164 -21.5t-109 -62.5q-49 -47 -75.5 -123.5t-51 -212t-24.5 -217.5 q0 -109 61.5 -157.5t214.5 -48.5q92 0 154.5 15t109.5 56q53 47 70 129h86q-6 -35 -25.5 -86t-62.5 -94q-55 -55 -133 -77.5t-182 -24.5l-21 -78q59 0 86 -26.5t27 -74.5q0 -98 -47 -143t-138 -45q-74 0 -105.5 21.5t-31.5 70.5q0 8 1 16.5t3 18.5h66q-2 -8 -2 -15v-12 q0 -27 18.5 -32.5t54.5 -5.5q59 0 84 28.5t25 83.5q0 41 -27.5 50.5t-60.5 9.5q-10 0 -19 -1q-8 -2 -16 -2l31 138q-160 10 -235.5 76.5t-75.5 207.5z" />
<glyph unicode="&#xe8;" horiz-adv-x="1079" d="M68 276q0 43 7 95.5t17 115.5q14 80 27.5 141.5t31 108.5t39 82t52.5 66q53 53 135 81.5t203 28.5q180 0 268 -67.5t88 -214.5q0 -74 -10.5 -135.5t-14.5 -96.5h-731q-10 -61 -17 -110t-7 -97q0 -109 64.5 -157.5t217.5 -48.5q59 0 114.5 8t101.5 30.5t79 61.5t45 100h88 q-16 -84 -57 -139t-98.5 -87t-129 -44t-149.5 -12q-186 0 -275 67t-89 223zM197 561h637q8 45 11 77t3 69q0 111 -63.5 158.5t-209.5 47.5q-184 0 -268 -84q-27 -27 -45 -60.5t-30.5 -70t-20.5 -71.5t-14 -66zM481 1366h99l221 -264h-99z" />
<glyph unicode="&#xe9;" horiz-adv-x="1079" d="M68 276q0 43 7 95.5t17 115.5q14 80 27.5 141.5t31 108.5t39 82t52.5 66q53 53 135 81.5t203 28.5q180 0 268 -67.5t88 -214.5q0 -74 -10.5 -135.5t-14.5 -96.5h-731q-10 -61 -17 -110t-7 -97q0 -109 64.5 -157.5t217.5 -48.5q59 0 114.5 8t101.5 30.5t79 61.5t45 100h88 q-16 -84 -57 -139t-98.5 -87t-129 -44t-149.5 -12q-186 0 -275 67t-89 223zM197 561h637q8 45 11 77t3 69q0 111 -63.5 158.5t-209.5 47.5q-184 0 -268 -84q-27 -27 -45 -60.5t-30.5 -70t-20.5 -71.5t-14 -66zM465 1102l311 264h109l-312 -264h-108z" />
<glyph unicode="&#xea;" horiz-adv-x="1079" d="M68 276q0 43 7 95.5t17 115.5q14 80 27.5 141.5t31 108.5t39 82t52.5 66q53 53 135 81.5t203 28.5q180 0 268 -67.5t88 -214.5q0 -74 -10.5 -135.5t-14.5 -96.5h-731q-10 -61 -17 -110t-7 -97q0 -109 64.5 -157.5t217.5 -48.5q59 0 114.5 8t101.5 30.5t79 61.5t45 100h88 q-16 -84 -57 -139t-98.5 -87t-129 -44t-149.5 -12q-186 0 -275 67t-89 223zM197 561h637q8 45 11 77t3 69q0 111 -63.5 158.5t-209.5 47.5q-184 0 -268 -84q-27 -27 -45 -60.5t-30.5 -70t-20.5 -71.5t-14 -66zM295 1102l319 264h84l226 -264h-101l-170 205l-245 -205h-113z " />
<glyph unicode="&#xeb;" horiz-adv-x="1079" d="M68 276q0 43 7 95.5t17 115.5q14 80 27.5 141.5t31 108.5t39 82t52.5 66q53 53 135 81.5t203 28.5q180 0 268 -67.5t88 -214.5q0 -74 -10.5 -135.5t-14.5 -96.5h-731q-10 -61 -17 -110t-7 -97q0 -109 64.5 -157.5t217.5 -48.5q59 0 114.5 8t101.5 30.5t79 61.5t45 100h88 q-16 -84 -57 -139t-98.5 -87t-129 -44t-149.5 -12q-186 0 -275 67t-89 223zM197 561h637q8 45 11 77t3 69q0 111 -63.5 158.5t-209.5 47.5q-184 0 -268 -84q-27 -27 -45 -60.5t-30.5 -70t-20.5 -71.5t-14 -66zM360 1286q0 35 19.5 57.5t58.5 22.5q57 0 58 -49 q0 -37 -19.5 -59.5t-58.5 -22.5q-25 0 -41.5 10t-16.5 41zM797 1286q0 35 19.5 57.5t57.5 22.5q57 0 58 -49q0 -37 -19.5 -59.5t-58.5 -22.5q-25 0 -41 10t-16 41z" />
<glyph unicode="&#xec;" horiz-adv-x="430" d="M47 0l172 979h88l-172 -979h-88zM106 1366h99l221 -264h-98z" />
<glyph unicode="&#xed;" horiz-adv-x="430" d="M47 0l172 979h88l-172 -979h-88zM141 1102l312 264h108l-311 -264h-109z" />
<glyph unicode="&#xee;" horiz-adv-x="430" d="M-27 1102l320 264h84l225 -264h-100l-170 205l-246 -205h-113zM47 0l172 979h88l-172 -979h-88z" />
<glyph unicode="&#xef;" horiz-adv-x="428" d="M33 1286q0 35 19.5 57.5t58.5 22.5q57 0 57 -49q0 -37 -19.5 -59.5t-58.5 -22.5q-25 0 -41 10t-16 41zM47 0l172 979h88l-172 -979h-88zM469 1286q0 35 19.5 57.5t58.5 22.5q57 0 57 -49q0 -37 -19.5 -59.5t-58.5 -22.5q-25 0 -41 10t-16 41z" />
<glyph unicode="&#xf0;" horiz-adv-x="1095" d="M68 268q0 88 24 224q27 147 61.5 242t102.5 157q53 49 128 76.5t185 27.5q84 0 146 -16l-203 246l-137 -103l-41 56l135 100l-94 115l69 53l97 -117l137 105l43 -54l-137 -104l250 -309q33 -41 55 -76t35.5 -69t18.5 -68.5t5 -77.5q0 -39 -5 -84t-15 -103 q-27 -156 -59.5 -250t-94.5 -151q-57 -53 -137 -77.5t-203 -24.5q-184 0 -275 64t-91 218zM156 283q0 -111 61.5 -163t218.5 -52q98 0 165 20.5t110 61.5q51 47 78.5 125.5t50.5 213.5q8 47 13 90.5t5 71.5q0 143 -72.5 200.5t-230.5 57.5q-84 0 -142.5 -22.5t-99.5 -59.5 q-53 -47 -81.5 -126.5t-51.5 -211.5l-17 -115.5t-7 -90.5z" />
<glyph unicode="&#xf1;" horiz-adv-x="1089" d="M43 0l172 979h86l-25 -148q33 49 75 80t88 49.5t93.5 25.5t90.5 7q61 0 117.5 -11t99.5 -39t68.5 -73t25.5 -112q0 -53 -9.5 -116.5t-21.5 -135.5l-90 -506h-88l90 494q14 78 22.5 139t8.5 106q0 96 -58.5 133t-173.5 37q-117 0 -189.5 -41t-114.5 -107.5t-63.5 -152.5 t-37.5 -176l-78 -432h-88zM262 1264l121 63l59 28q37 17 88 17q57 0 109 -31l70 -43q35 -20 75 -20q31 0 47.5 6t34.5 16l135 66l31 -63l-123 -62q-20 -10 -52 -24.5t-77 -14.5q-53 0 -90 18.5t-59 32.5l-51.5 29.5t-59.5 13.5q-25 0 -45 -6t-37 -16l-145 -74z" />
<glyph unicode="&#xf2;" horiz-adv-x="1097" d="M68 270q0 45 6 99.5t16 119.5q29 156 61.5 249t94.5 153q57 53 137 78.5t203 25.5q184 0 274 -66.5t90 -219.5q0 -45 -6 -99.5t-16 -120.5q-16 -98 -33.5 -163.5t-36 -109.5t-39 -72.5t-43.5 -51.5q-106 -106 -344 -106q-184 0 -274 65t-90 219zM156 270 q0 -106 62.5 -153t215.5 -47q193 0 277 77q51 47 77.5 126t51.5 216q12 70 17 124.5t5 95.5q0 106 -62.5 155t-215.5 49q-188 0 -277 -82q-49 -47 -77.5 -126.5t-51.5 -215.5q-12 -70 -17 -124t-5 -95zM438 1366h99l221 -264h-99z" />
<glyph unicode="&#xf3;" horiz-adv-x="1097" d="M68 270q0 45 6 99.5t16 119.5q29 156 61.5 249t94.5 153q57 53 137 78.5t203 25.5q184 0 274 -66.5t90 -219.5q0 -45 -6 -99.5t-16 -120.5q-16 -98 -33.5 -163.5t-36 -109.5t-39 -72.5t-43.5 -51.5q-106 -106 -344 -106q-184 0 -274 65t-90 219zM156 270 q0 -106 62.5 -153t215.5 -47q193 0 277 77q51 47 77.5 126t51.5 216q12 70 17 124.5t5 95.5q0 106 -62.5 155t-215.5 49q-188 0 -277 -82q-49 -47 -77.5 -126.5t-51.5 -215.5q-12 -70 -17 -124t-5 -95zM473 1102l311 264h109l-311 -264h-109z" />
<glyph unicode="&#xf4;" horiz-adv-x="1097" d="M68 270q0 45 6 99.5t16 119.5q29 156 61.5 249t94.5 153q57 53 137 78.5t203 25.5q184 0 274 -66.5t90 -219.5q0 -45 -6 -99.5t-16 -120.5q-16 -98 -33.5 -163.5t-36 -109.5t-39 -72.5t-43.5 -51.5q-106 -106 -344 -106q-184 0 -274 65t-90 219zM156 270 q0 -106 62.5 -153t215.5 -47q193 0 277 77q51 47 77.5 126t51.5 216q12 70 17 124.5t5 95.5q0 106 -62.5 155t-215.5 49q-188 0 -277 -82q-49 -47 -77.5 -126.5t-51.5 -215.5q-12 -70 -17 -124t-5 -95zM301 1102l320 264h84l225 -264h-101l-170 205l-245 -205h-113z" />
<glyph unicode="&#xf5;" horiz-adv-x="1097" d="M68 270q0 45 6 99.5t16 119.5q29 156 61.5 249t94.5 153q57 53 137 78.5t203 25.5q184 0 274 -66.5t90 -219.5q0 -45 -6 -99.5t-16 -120.5q-16 -98 -33.5 -163.5t-36 -109.5t-39 -72.5t-43.5 -51.5q-106 -106 -344 -106q-184 0 -274 65t-90 219zM156 270 q0 -106 62.5 -153t215.5 -47q193 0 277 77q51 47 77.5 126t51.5 216q12 70 17 124.5t5 95.5q0 106 -62.5 155t-215.5 49q-188 0 -277 -82q-49 -47 -77.5 -126.5t-51.5 -215.5q-12 -70 -17 -124t-5 -95zM258 1264l121 63l59 28q37 17 88 17q57 0 109 -31l70 -43 q35 -20 75 -20q31 0 47.5 6t34.5 16l135 66l31 -63l-123 -62q-20 -10 -52 -24.5t-77 -14.5q-53 0 -90 18.5t-59 32.5l-51.5 29.5t-59.5 13.5q-25 0 -45 -6t-37 -16l-145 -74z" />
<glyph unicode="&#xf6;" horiz-adv-x="1097" d="M68 270q0 45 6 99.5t16 119.5q29 156 61.5 249t94.5 153q57 53 137 78.5t203 25.5q184 0 274 -66.5t90 -219.5q0 -45 -6 -99.5t-16 -120.5q-16 -98 -33.5 -163.5t-36 -109.5t-39 -72.5t-43.5 -51.5q-106 -106 -344 -106q-184 0 -274 65t-90 219zM156 270 q0 -106 62.5 -153t215.5 -47q193 0 277 77q51 47 77.5 126t51.5 216q12 70 17 124.5t5 95.5q0 106 -62.5 155t-215.5 49q-188 0 -277 -82q-49 -47 -77.5 -126.5t-51.5 -215.5q-12 -70 -17 -124t-5 -95zM362 1286q0 35 19.5 57.5t58.5 22.5q57 0 58 -49q0 -37 -19.5 -59.5 t-58.5 -22.5q-25 0 -41.5 10t-16.5 41zM799 1286q0 35 19.5 57.5t58.5 22.5q57 0 57 -49q0 -37 -19.5 -59.5t-58.5 -22.5q-25 0 -41 10t-16 41z" />
<glyph unicode="&#xf7;" d="M76 451v81h999v-81h-999zM506 55.5q0 69.5 69 69.5q72 0 72 -69.5t-72 -69.5q-69 0 -69 69.5zM506 925.5q0 69.5 69 69.5q72 0 72 -69.5t-72 -69.5q-69 0 -69 69.5z" />
<glyph unicode="&#xf8;" horiz-adv-x="1097" d="M68 270q0 45 6 99.5t16 119.5q29 156 61.5 249t94.5 153q57 53 137 78.5t203 25.5q39 0 80 -3t57 -7l100 189l72 -37l-92 -176q74 -31 110.5 -92.5t36.5 -159.5q0 -45 -6 -99.5t-16 -120.5q-16 -98 -33.5 -163.5t-36 -109.5t-39 -72.5t-43.5 -51.5q-106 -106 -344 -106 q-80 0 -137 10l-100 -191l-74 35l94 180q-147 51 -147 250zM156 270q0 -129 100 -174l426 811q-16 4 -43 5t-55 1q-188 0 -277 -82q-49 -47 -77.5 -126.5t-51.5 -215.5q-12 -70 -17 -124t-5 -95zM336 76q20 -4 41.5 -5t56.5 -1q193 0 277 77q51 47 77.5 126t51.5 216 q12 70 17 124.5t5 95.5q0 66 -22.5 109.5t-75.5 66.5z" />
<glyph unicode="&#xf9;" horiz-adv-x="1089" d="M80 221q0 74 9 127l22 125l90 506h88l-88 -494q-14 -78 -23.5 -139t-9.5 -106q0 -94 57.5 -132t171.5 -38q117 0 189.5 41t114.5 107.5t63.5 152.5t38.5 176l78 432h88l-172 -979h-86l24 147q-35 -49 -77 -79.5t-88 -49t-92 -25.5t-89 -7q-61 0 -117.5 11t-99.5 37.5 t-67.5 72.5t-24.5 114zM428 1366h98l222 -264h-99z" />
<glyph unicode="&#xfa;" horiz-adv-x="1089" d="M80 221q0 74 9 127l22 125l90 506h88l-88 -494q-14 -78 -23.5 -139t-9.5 -106q0 -94 57.5 -132t171.5 -38q117 0 189.5 41t114.5 107.5t63.5 152.5t38.5 176l78 432h88l-172 -979h-86l24 147q-35 -49 -77 -79.5t-88 -49t-92 -25.5t-89 -7q-61 0 -117.5 11t-99.5 37.5 t-67.5 72.5t-24.5 114zM461 1102l311 264h109l-312 -264h-108z" />
<glyph unicode="&#xfb;" horiz-adv-x="1089" d="M80 221q0 74 9 127l22 125l90 506h88l-88 -494q-14 -78 -23.5 -139t-9.5 -106q0 -94 57.5 -132t171.5 -38q117 0 189.5 41t114.5 107.5t63.5 152.5t38.5 176l78 432h88l-172 -979h-86l24 147q-35 -49 -77 -79.5t-88 -49t-92 -25.5t-89 -7q-61 0 -117.5 11t-99.5 37.5 t-67.5 72.5t-24.5 114zM289 1102l319 264h84l226 -264h-101l-170 205l-246 -205h-112z" />
<glyph unicode="&#xfc;" horiz-adv-x="1089" d="M80 221q0 74 9 127l22 125l90 506h88l-88 -494q-14 -78 -23.5 -139t-9.5 -106q0 -94 57.5 -132t171.5 -38q117 0 189.5 41t114.5 107.5t63.5 152.5t38.5 176l78 432h88l-172 -979h-86l24 147q-35 -49 -77 -79.5t-88 -49t-92 -25.5t-89 -7q-61 0 -117.5 11t-99.5 37.5 t-67.5 72.5t-24.5 114zM360 1286q0 35 19.5 57.5t58.5 22.5q57 0 58 -49q0 -37 -19.5 -59.5t-58.5 -22.5q-25 0 -41.5 10t-16.5 41zM797 1286q0 35 19.5 57.5t57.5 22.5q57 0 58 -49q0 -37 -19.5 -59.5t-58.5 -22.5q-25 0 -41 10t-16 41z" />
<glyph unicode="&#xfd;" horiz-adv-x="929" d="M88 -391l215 393l-184 977h90l162 -864l463 864h94l-746 -1370h-94zM420 1102l311 264h109l-312 -264h-108z" />
<glyph unicode="&#xfe;" horiz-adv-x="1126" d="M-23 -391l320 1818h88l-106 -596q109 162 372 162q98 0 162 -19.5t100.5 -56t51 -89t14.5 -117.5q0 -45 -5 -100.5t-18 -123.5q-25 -137 -53.5 -221t-73.5 -141q-53 -68 -140 -103.5t-216 -35.5t-204.5 36.5t-108.5 118.5l-94 -532h-89zM203 307q0 -66 14 -110.5 t49 -72.5t91.5 -41t140.5 -13q168 0 247 90q41 45 71 122.5t52 206.5q10 53 16.5 106.5t6.5 106.5q0 41 -8 78t-33 65.5t-73 46t-128 17.5q-207 0 -305 -108q-39 -41 -65.5 -102.5t-44 -129t-24.5 -137.5t-7 -125z" />
<glyph unicode="&#xff;" horiz-adv-x="929" d="M88 -391l215 393l-184 977h90l162 -864l463 864h94l-746 -1370h-94zM291 1286q0 35 19.5 57.5t58.5 22.5q57 0 57 -49q0 -37 -19.5 -59.5t-58.5 -22.5q-25 0 -41 10t-16 41zM727 1286q0 35 19.5 57.5t58.5 22.5q57 0 57 -49q0 -37 -19.5 -59.5t-58.5 -22.5q-25 0 -41 10 t-16 41z" />
<glyph unicode="&#x152;" horiz-adv-x="1849" d="M121 322q0 49 6 103t13 104.5t16 91.5l12 61q29 164 59.5 292t95 215t180 132t314.5 45h998l-15 -82h-661l-97 -541h641l-14 -81h-641l-102 -580h661l-14 -82h-967q-76 0 -140.5 3t-118.5 15.5t-96 35t-73 61.5q-57 76 -57 207zM213 334q0 -90 28.5 -140.5t82 -75 t128 -30.5t166.5 -6h216l213 1204h-226q-174 0 -272 -37t-153.5 -111.5t-82 -188t-55.5 -265.5l-31.5 -183t-13.5 -167z" />
<glyph unicode="&#x153;" horiz-adv-x="1822" d="M68 270q0 45 6 99.5t16 119.5q29 156 61.5 249t94.5 153q57 53 137 78.5t203 25.5q111 0 177 -21.5t102 -50t49.5 -57t19.5 -45.5q12 16 19.5 27.5t31.5 36.5q53 53 135 81.5t203 28.5q180 0 268 -67.5t88 -214.5q0 -74 -10 -135.5t-14 -96.5h-731l-17.5 -110t-7.5 -97 q0 -109 64.5 -157.5t218.5 -48.5q59 0 114.5 8t101.5 30.5t78.5 61.5t45.5 100h88q-16 -84 -57.5 -139t-98.5 -87t-129 -44t-149 -12q-117 0 -183.5 22.5t-101.5 53t-46 60.5t-16 42q-10 -23 -24 -40.5t-29 -31.5q-106 -106 -344 -106q-184 0 -274 65t-90 219zM156 270 q0 -106 62.5 -153t215.5 -47q193 0 277 77q51 47 77.5 126t51.5 216q12 70 17 124.5t5 95.5q0 106 -62.5 155t-215.5 49q-188 0 -277 -82q-49 -47 -77.5 -126.5t-51.5 -215.5q-12 -70 -17 -124t-5 -95zM940 561h637q8 45 11 77t3 69q0 111 -63.5 158.5t-208.5 47.5 q-184 0 -268 -84q-27 -27 -45.5 -60.5t-30.5 -70t-20.5 -71.5t-14.5 -66z" />
<glyph unicode="&#x178;" horiz-adv-x="1062" d="M141 1366h99l290 -676l529 676h104l-600 -764l-106 -602h-90l106 602zM424 1679q0 35 19.5 57.5t58.5 22.5q57 0 57 -49q0 -37 -19.5 -59.5t-58.5 -22.5q-25 0 -41 10t-16 41zM860 1679q0 35 19.5 57.5t58.5 22.5q57 0 57 -49q0 -37 -19.5 -59.5t-57.5 -22.5 q-25 0 -41.5 10t-16.5 41z" />
<glyph unicode="&#x2c6;" horiz-adv-x="849" d="M137 1102l320 264h84l225 -264h-100l-170 205l-246 -205h-113z" />
<glyph unicode="&#x2dc;" horiz-adv-x="849" d="M131 1264l121 63l59 28q37 17 88 17q57 0 109 -31l70 -43q35 -20 75 -20q31 0 47.5 6t34.5 16l135 66l31 -63l-123 -62q-20 -10 -52 -24.5t-77 -14.5q-53 0 -90 18.5t-59 32.5l-51.5 29.5t-59.5 13.5q-25 0 -45 -6t-37 -16l-145 -74z" />
<glyph unicode="&#x2013;" d="M37 451l16 81h1024l-16 -81h-1024z" />
<glyph unicode="&#x2014;" horiz-adv-x="2050" d="M176 451l17 81h1638l-16 -81h-1639z" />
<glyph unicode="&#x2018;" horiz-adv-x="419" d="M215 948l27 154q8 43 17 76.5t23.5 61.5t36 51.5t52.5 47.5l57 45l49 -57l-56 -47q-24 -20 -42.5 -44t-30.5 -54.5t-20 -79.5l-27 -154h-86z" />
<glyph unicode="&#x2019;" horiz-adv-x="419" d="M106 987l57 47q24 20 42 44t30.5 54.5t20.5 79.5l27 154h86l-27 -154q-8 -43 -17.5 -76.5t-23.5 -61t-35.5 -51.5t-52.5 -48l-57 -45z" />
<glyph unicode="&#x201a;" horiz-adv-x="425" d="M-39 -256l56 47q24 20 42.5 44t30.5 54.5t21 79.5l26 154h86l-26 -154q-8 -43 -17.5 -76.5t-24 -61.5t-36 -51.5t-51.5 -47.5l-58 -45z" />
<glyph unicode="&#x201c;" horiz-adv-x="751" d="M215 948l27 154q8 43 17 76.5t23.5 61.5t36 51.5t52.5 47.5l57 45l49 -57l-56 -47q-24 -20 -42.5 -44t-30.5 -54.5t-20 -79.5l-27 -154h-86zM547 948l26 154q8 43 17.5 76.5t24 61.5t36 51.5t51.5 47.5l58 45l49 -57l-56 -47q-24 -20 -42.5 -44t-30.5 -54.5t-21 -79.5 l-26 -154h-86z" />
<glyph unicode="&#x201d;" horiz-adv-x="751" d="M106 987l57 47q24 20 42 44t30.5 54.5t20.5 79.5l27 154h86l-27 -154q-8 -43 -17.5 -76.5t-23.5 -61t-35.5 -51.5t-52.5 -48l-57 -45zM438 987l57 47q24 20 42 44t30.5 54.5t20.5 79.5l26 154h86l-26 -154q-8 -43 -17.5 -76.5t-24 -61t-36 -51.5t-51.5 -48l-58 -45z" />
<glyph unicode="&#x201e;" horiz-adv-x="755" d="M-41 -256l56 47q24 20 42.5 44t30.5 54.5t21 79.5l26 154h86l-26 -154q-8 -43 -17.5 -76.5t-24 -61.5t-36 -51.5t-51.5 -47.5l-58 -45zM291 -256l56 47q24 20 42.5 44t30.5 54.5t20 79.5l27 154h86l-27 -154q-8 -43 -17 -76.5t-23.5 -61.5t-36 -51.5t-52.5 -47.5l-57 -45 z" />
<glyph unicode="&#x2022;" horiz-adv-x="1026" d="M336 635q0 102 49 161.5t160 59.5q47 0 75.5 -11t45 -27.5t22.5 -37t6 -41.5q0 -102 -49 -163.5t-160 -61.5q-72 0 -110.5 26.5t-38.5 94.5z" />
<glyph unicode="&#x2026;" horiz-adv-x="2048" d="M268 41q0 39 20.5 61.5t61.5 22.5q61 0 62 -53q0 -39 -20.5 -62.5t-61.5 -23.5q-27 0 -44.5 11t-17.5 44zM950 41q0 39 20.5 61.5t61.5 22.5q61 0 62 -53q0 -39 -20.5 -62.5t-61.5 -23.5q-27 0 -44.5 11t-17.5 44zM1634 41q0 39 20.5 61.5t61.5 22.5q61 0 62 -53 q0 -39 -20.5 -62.5t-61.5 -23.5q-27 0 -44.5 11t-17.5 44z" />
<glyph unicode="&#x2039;" horiz-adv-x="528" d="M72 453q0 61 31.5 119.5t80.5 112.5t108 105l111 97l52 -64l-89 -75q-52 -43 -98.5 -92.5t-79 -101.5t-32.5 -103q0 -41 14 -79t37.5 -75t53.5 -74l61 -73l-62 -54l-64 77q-34 40 -62 83t-45 92.5t-17 104.5z" />
<glyph unicode="&#x203a;" horiz-adv-x="528" d="M72 160l89 76q52 43 98 92t79 101t33 103q0 41 -14.5 79t-38 75t-53.5 74l-60 74l61 53l64 -77q33 -40 60.5 -83t46 -92t18.5 -105q0 -61 -32 -119.5t-81 -112.5q-50 -54 -108 -105l-111 -97z" />
<glyph unicode="&#x2122;" horiz-adv-x="1734" d="M152 1296l12 70h643l-12 -70h-279l-143 -819h-82l143 819h-282zM735 477l156 889h110l158 -803l440 803h111l-156 -889h-73l137 778l-426 -778h-94l-150 778l-135 -778h-78z" />
<glyph unicode="&#xe000;" horiz-adv-x="980" d="M0 980h980v-980h-980v980z" />
<glyph unicode="&#xfb01;" horiz-adv-x="1124" d="M80 899l16 80h166l29 166q12 68 35.5 124t70.5 97q90 76 260 76q55 0 108.5 -8.5t94.5 -29t66.5 -56t25.5 -93.5q0 -33 -2 -41h-88q2 8 2 33q0 33 -19.5 54.5t-48 34t-65.5 17.5t-69 5q-131 0 -197 -47q-41 -31 -60.5 -80t-29.5 -113l-25 -139h438l-14 -80h-438 l-158 -899h-88l158 899h-168zM743 0l172 979h89l-173 -979h-88z" />
<glyph unicode="&#xfb02;" horiz-adv-x="1263" d="M80 899l16 80h166l29 166q12 68 35.5 124t70.5 97q90 76 260 76q55 0 108.5 -8.5t94.5 -29t66.5 -56t25.5 -93.5q0 -33 -2 -41h-88q2 8 2 33q0 33 -19.5 54.5t-48 34t-65.5 17.5t-69 5q-131 0 -197 -47q-41 -31 -60.5 -80t-29.5 -113l-25 -139h438l-14 -80h-438 l-158 -899h-88l158 899h-168zM883 0l250 1427h88l-250 -1427h-88z" />
<glyph unicode="&#xfb03;" horiz-adv-x="2183" d="M80 899l16 80h166l29 166q12 68 35.5 124t70.5 97q90 76 260 76q55 0 108.5 -8.5t94.5 -29t66.5 -56t25.5 -93.5q0 -33 -2 -41h-88q2 8 2 33q0 33 -19.5 54.5t-48 34t-65.5 17.5t-69 5q-131 0 -197 -47q-41 -31 -60.5 -80t-29.5 -113l-25 -139h438l-14 -80h-438 l-158 -899h-88l158 899h-168zM958 899l17 80h166l28 166q12 68 36 124t71 97q90 76 260 76q55 0 108.5 -8.5t94.5 -29t66.5 -56t25.5 -93.5q0 -33 -2 -41h-88q2 8 2 33q0 33 -19.5 54.5t-48 34t-65.5 17.5t-70 5q-131 0 -197 -47q-41 -31 -60 -80t-30 -113l-24 -139h438 l-14 -80h-439l-157 -899h-88l157 899h-168zM1800 0l172 979h88l-172 -979h-88zM2005 1300q0 35 19.5 57.5t58.5 22.5q57 0 57 -49q0 -37 -19.5 -59.5t-58.5 -22.5q-25 0 -41 10t-16 41z" />
<glyph unicode="&#xfb04;" horiz-adv-x="2181" d="M80 899l16 80h166l29 166q12 68 35.5 124t70.5 97q90 76 260 76q55 0 108.5 -8.5t94.5 -29t66.5 -56t25.5 -93.5q0 -33 -2 -41h-88q2 8 2 33q0 33 -19.5 54.5t-48 34t-65.5 17.5t-69 5q-131 0 -197 -47q-41 -31 -60.5 -80t-29.5 -113l-25 -139h438l-14 -80h-438 l-158 -899h-88l158 899h-168zM958 899l17 80h166l28 166q12 68 36 124t71 97q90 76 260 76q55 0 108.5 -8.5t94.5 -29t66.5 -56t25.5 -93.5q0 -33 -2 -41h-88q2 8 2 33q0 33 -19.5 54.5t-48 34t-65.5 17.5t-70 5q-131 0 -197 -47q-41 -31 -60 -80t-30 -113l-24 -139h438 l-14 -80h-439l-157 -899h-88l157 899h-168zM1800 0l250 1427h88l-250 -1427h-88z" />
</font>
</defs>
</svg>
