<?xml version="1.0" standalone="no"?>
<!DOCTYPE svg PUBLIC "-//W3C//DTD SVG 1.1//EN" "http://www.w3.org/Graphics/SVG/1.1/DTD/svg11.dtd" >
<svg xmlns="http://www.w3.org/2000/svg">
<metadata>
This is a custom SVG webfont generated by Font Squirrel.
Copyright   : 251The digitally encoded machine readable outline data for producing the typefaces licensed to you is copyrighted C 2000 by The Foundry London All Rights Reserved
Foundry     :  The digitally encoded machine readable outline data for producing the typefaces licensed to you is copyrighted C by The Foundry London
</metadata>
<defs>
<font id="FoundryMonolineLightRegular" horiz-adv-x="1150" >
<font-face units-per-em="2048" ascent="1638" descent="-410" />
<missing-glyph horiz-adv-x="552" />
<glyph unicode=" "  horiz-adv-x="552" />
<glyph unicode="&#x09;" horiz-adv-x="552" />
<glyph unicode="&#xa0;" horiz-adv-x="552" />
<glyph unicode="!" horiz-adv-x="575" d="M217 55.5q0 69.5 70 69.5q72 0 71.5 -69.5t-71.5 -69.5q-70 0 -70 69.5zM244 389v977h86v-977h-86z" />
<glyph unicode="&#x22;" horiz-adv-x="880" d="M246 942v424h84v-424h-84zM553 942v424h84v-424h-84z" />
<glyph unicode="#" d="M33 475v78h274l84 315h-252v78h275l127 475h82l-129 -475h288l129 475h82l-129 -475h254v-78h-274l-84 -315h252v-78h-273l-125 -475h-82l125 475h-288l-125 -475h-82l125 475h-254zM391 553h287l84 315h-289z" />
<glyph unicode="$" horiz-adv-x="1130" d="M141 274h86q0 -109 67.5 -149.5t225.5 -42.5v590q-90 6 -158.5 21.5t-114.5 52t-70.5 101t-24.5 167.5q0 94 24.5 160.5t70.5 108.5t114.5 61.5t158.5 21.5v195h84v-195q186 -2 277.5 -62.5t91.5 -211.5h-86q0 106 -63.5 148t-219.5 44v-532q104 -10 177 -23.5t119 -50.5 t66.5 -105.5t20.5 -187.5q0 -199 -91 -291t-292 -94v-203l-84 2v201q-188 2 -283.5 62t-95.5 212zM238 1004q0 -82 18 -129.5t54 -72t89.5 -33.5t120.5 -13v528q-76 0 -129 -14.5t-87 -47t-50 -85.5t-16 -133zM604 80q162 2 230.5 73.5t68.5 239.5q0 88 -15.5 140.5t-50 80 t-92 37.5t-141.5 17v-588z" />
<glyph unicode="%" horiz-adv-x="1753" d="M176 969q0 121 4 189.5t31 117.5q29 51 81 77.5t142 26.5q102 0 157.5 -33.5t78.5 -97.5q16 -47 19 -111.5t3 -168.5q0 -121 -4 -191.5t-31 -118.5q-29 -51 -80 -77.5t-143 -26.5q-100 0 -156.5 34t-78.5 95q-18 47 -20.5 113t-2.5 172zM254 969q0 -66 1 -111t4 -75.5 t7 -49t10 -33.5q16 -35 51 -54t107 -19q78 0 115 22.5t51 69.5q8 27 11 82t3 168q0 66 -1 110.5t-4 75.5t-7 49.5t-10 32.5q-16 35 -51 52.5t-107 17.5q-78 0 -113.5 -20.5t-50.5 -67.5q-8 -27 -12 -82t-4 -168zM485 0l717 1376h84l-721 -1376h-80zM1061 399q0 121 4 189.5 t31 118.5q29 51 81 77.5t142 26.5q102 0 157.5 -34t77.5 -97q16 -47 19.5 -111.5t3.5 -169.5q0 -121 -4 -191.5t-31 -117.5q-29 -51 -80 -77.5t-143 -26.5q-100 0 -156.5 33.5t-79.5 95.5q-18 47 -20 112.5t-2 171.5zM1139 399q0 -66 1 -110.5t4 -75.5t7 -49.5t10 -32.5 q16 -35 51 -54.5t107 -19.5q78 0 114.5 22.5t51.5 70.5q8 27 11 82t3 167q0 66 -1 111t-4 75.5t-7 49t-10 33.5q-16 35 -51 52t-107 17q-78 0 -114 -20.5t-50 -67.5q-8 -27 -12 -82t-4 -168z" />
<glyph unicode="&#x26;" horiz-adv-x="1230" d="M147 373q0 156 49.5 239.5t159.5 110.5q-61 16 -100 44t-60.5 65.5t-28.5 87t-7 110.5q0 96 21.5 163t68.5 108.5t123 60t184 18.5q199 0 297 -65.5t102 -235.5h-86q-4 125 -75.5 171t-235.5 46q-92 0 -152.5 -13t-96.5 -44t-50 -83t-14 -130q0 -84 19.5 -136t59.5 -80 t98 -37t136 -9h387v143h84v-143h125v-84h-123v-231q0 -129 -16.5 -216.5t-77.5 -148.5q-100 -100 -350 -100q-113 0 -196 16t-137 59t-81 119t-27 195zM233 367q0 -98 21.5 -156.5t66 -89.5t111 -41t156.5 -10q117 0 186.5 19.5t104.5 53.5q43 43 55 117t12 189v231h-387 q-92 0 -154.5 -13.5t-100.5 -48t-54.5 -95t-16.5 -156.5z" />
<glyph unicode="'" horiz-adv-x="575" d="M246 942v424h84v-424h-84z" />
<glyph unicode="(" horiz-adv-x="598" d="M82 627q0 141 4 265t12 226.5t20.5 181t26.5 127.5q37 123 124 173.5t247 50.5v-78q-68 0 -114 -9.5t-77.5 -26.5t-51 -44t-33.5 -61q-14 -37 -27.5 -114t-23 -182.5t-15.5 -234.5t-6 -272.5t6 -272.5t15.5 -233.5t22.5 -180t28 -112.5q14 -35 33.5 -61.5t51 -44 t78 -26.5t113.5 -9v-80q-160 0 -247 50t-124 173q-29 98 -46 305t-17 490z" />
<glyph unicode=")" horiz-adv-x="598" d="M82 -311q68 0 114 9t77.5 26.5t51 44t33.5 61.5q14 37 27.5 112.5t23 180t15.5 233.5t6 272.5t-6 272.5t-15.5 234.5t-22.5 182.5t-28 114q-14 35 -33.5 61.5t-51 43.5t-77.5 26.5t-114 9.5v78q160 0 247 -50.5t124 -173.5q14 -49 26.5 -127.5t20.5 -181t12 -226.5 t4 -265q0 -283 -17.5 -490t-45.5 -305q-37 -123 -124 -173t-247 -50v80z" />
<glyph unicode="*" horiz-adv-x="1071" d="M57 999l25 72l416 -129v424h77v-424l414 129l25 -72l-416 -131l254 -342l-61 -45l-256 340l-252 -340l-64 45l256 342z" />
<glyph unicode="+" d="M86 451v81h446v447h84v-447h447v-81h-447v-451h-84v451h-446z" />
<glyph unicode="," horiz-adv-x="425" d="M66 -258l38 37q25 23 38.5 43t20.5 42.5t8 47.5t1 57v154h86v-154q0 -43 -3 -76.5t-12.5 -61.5t-26.5 -51.5t-44 -47.5l-51 -45z" />
<glyph unicode="-" horiz-adv-x="983" d="M193 451v81h598v-81h-598z" />
<glyph unicode="." horiz-adv-x="425" d="M143 55.5q0 69.5 70 69.5q72 0 72 -69.5t-72 -69.5q-70 0 -70 69.5z" />
<glyph unicode="/" horiz-adv-x="1011" d="M33 -172l860 1718h86l-860 -1718h-86z" />
<glyph unicode="0" horiz-adv-x="1148" d="M158 682q0 129 2 214t7 142.5t14 94t26 67.5q47 94 136 137t230.5 43t230.5 -43t136 -137q14 -31 24.5 -67.5t16.5 -94t8 -142.5t2 -214q0 -112 -1 -189t-5 -131.5t-10 -89t-17 -63.5q-39 -117 -134 -170t-250.5 -53t-250 53t-133.5 170q-10 29 -16 63.5t-10 89t-5 131 t-1 189.5zM246 682q0 -113 2 -190.5t6 -133t11 -90.5t20 -61q31 -72 97.5 -105.5t191 -33.5t191 33.5t97.5 105.5q12 27 19.5 61.5t12.5 90t7 133t2 190.5q0 98 -2 170t-5 124t-8 88t-14 60q-29 90 -97 132t-203.5 42t-203 -42t-96.5 -132q-8 -25 -13 -60.5t-8 -87.5 t-5 -124t-2 -170z" />
<glyph unicode="1" horiz-adv-x="917" d="M113 1061l344 305h84v-1284h331v-82h-751v82h332v1175l-283 -253z" />
<glyph unicode="2" horiz-adv-x="1126" d="M174 1092q0 162 102.5 225t296.5 63q98 0 177 -19.5t129 -60.5q104 -84 104 -299q0 -184 -98 -280q-37 -37 -96.5 -64.5t-123.5 -49.5l-125 -40q-60 -18 -104 -37q-55 -25 -90 -49t-53.5 -55t-24.5 -71t-6 -95v-178h717v-82h-805v299q0 133 65.5 201.5t174.5 109.5 q45 18 104.5 36t117.5 38.5t109.5 46t79.5 55.5q35 37 52.5 87.5t17.5 127.5q0 115 -33 181q-29 59 -98.5 87.5t-185.5 28.5q-162 0 -240 -45t-78 -161h-86z" />
<glyph unicode="3" horiz-adv-x="1128" d="M147 276h86q0 -117 76 -162.5t240 -45.5q86 0 149.5 12t104.5 46t60.5 91t19.5 150q0 102 -18.5 159.5t-61.5 89.5q-41 29 -97.5 40.5t-152.5 11.5h-193v84h193q80 0 140.5 10t99 39.5t58 83t19.5 141.5q0 78 -15 130t-51 84t-97.5 45t-153.5 13q-166 0 -243 -45 t-77 -161h-86q0 162 104.5 225t301.5 63q111 0 187.5 -18.5t124.5 -60t70.5 -108.5t22.5 -163q0 -55 -7 -106.5t-28.5 -92t-58.5 -71.5t-94 -49q117 -29 159 -114t42 -224q0 -111 -27 -185.5t-79 -118.5t-131 -63.5t-185 -19.5q-90 0 -165 13t-127 47t-81 89t-29 141z" />
<glyph unicode="4" horiz-adv-x="1130" d="M111 408v79l608 879h92v-877h201v-81h-201v-408h-88v408h-612zM213 489h510v740z" />
<glyph unicode="5" d="M176 276h84q0 -117 71.5 -161.5t235.5 -44.5q94 0 157.5 16t102.5 55t56.5 104.5t17.5 162.5q0 90 -11 157.5t-44 113.5t-93.5 69.5t-160.5 23.5q-303 0 -311 -180h-82v774h745v-82h-661v-534q41 53 121.5 79.5t191.5 26.5q115 0 190.5 -28.5t120.5 -85t63.5 -138.5 t18.5 -188q0 -115 -22.5 -197t-71.5 -134t-130 -75.5t-198 -23.5q-96 0 -168.5 15t-122 49t-75 89t-25.5 137z" />
<glyph unicode="6" horiz-adv-x="1144" d="M158 625q0 164 6 285.5t20 197.5q25 143 124.5 207.5t279.5 64.5t279.5 -67.5t99.5 -220.5h-86q0 207 -291 206q-141 0 -211 -40.5t-98 -133.5q-12 -43 -19.5 -100t-10.5 -118.5t-3 -121.5v-106q45 82 128 130t214 48q109 0 184.5 -24.5t122.5 -77t68.5 -135t21.5 -201.5 q0 -225 -96 -328.5t-309 -103.5q-143 0 -241.5 56t-139.5 167q-43 119 -43 416zM256 426q0 -190 78 -273t246 -83q86 0 147 18t100 59t56.5 106.5t17.5 162.5q0 100 -15.5 168.5t-51 110.5t-93 59.5t-141.5 17.5q-344 0 -344 -346z" />
<glyph unicode="7" horiz-adv-x="931" d="M59 1284v82h815v-80l-595 -1286h-97l598 1284h-721z" />
<glyph unicode="8" d="M158 371q0 156 50 234.5t161 105.5q-63 16 -102.5 44.5t-61 68.5t-28.5 91.5t-7 114.5q0 96 22.5 163t70.5 108.5t125 60t187.5 18.5t187.5 -18.5t125 -60t70.5 -108.5t22.5 -163q0 -61 -7 -112.5t-28.5 -91.5t-60.5 -69.5t-101 -45.5q111 -27 160 -106t49 -234 q0 -111 -25.5 -184.5t-77.5 -118.5t-130 -63.5t-184.5 -18.5t-184.5 18.5t-130 63.5t-77.5 118.5t-25.5 184.5zM246 367q0 -94 17.5 -152.5t57 -90.5t102 -43t152.5 -11q88 0 150.5 11t102.5 43t58.5 90t18.5 150.5t-18.5 151.5t-58.5 93t-102 46.5t-151 12.5 q-90 0 -152.5 -11.5t-102 -43t-57 -91t-17.5 -155.5zM258 1030q0 -88 18.5 -142t57.5 -85t98.5 -42t142.5 -11q82 0 142.5 10t99.5 39.5t57.5 84t18.5 142.5q0 78 -15.5 130t-51 84t-97 45t-154 13t-154 -13t-98 -44t-51 -83t-14.5 -128z" />
<glyph unicode="9" horiz-adv-x="1140" d="M154 948q0 225 96 328.5t309 103.5q143 0 241.5 -56t139.5 -167q43 -121 43 -416q0 -164 -6 -285.5t-21 -197.5q-25 -143 -124 -207.5t-279 -64.5t-279.5 67.5t-99.5 220.5h86q0 -207 291 -206q141 0 210.5 41t98.5 133q12 43 19.5 100t10.5 118.5t3 121.5v106 q-45 -82 -129 -130t-213 -48q-109 0 -184.5 24.5t-122.5 77t-68.5 135t-21.5 201.5zM240 950q0 -102 15 -169.5t51 -109.5t93.5 -59.5t141.5 -17.5q344 0 344 346q0 190 -78 273t-246 83q-86 0 -147.5 -18t-100.5 -59t-56 -108t-17 -161z" />
<glyph unicode=":" horiz-adv-x="425" d="M143 55.5q0 69.5 70 69.5q72 0 72 -69.5t-72 -69.5q-70 0 -70 69.5zM143 925.5q0 69.5 70 69.5q72 0 72 -69.5t-72 -69.5q-70 0 -70 69.5z" />
<glyph unicode=";" horiz-adv-x="425" d="M66 -258l38 37q25 23 38.5 43t20.5 42.5t8 47.5t1 57v154h86v-154q0 -43 -3 -76.5t-12.5 -61.5t-26.5 -51.5t-44 -47.5l-51 -45zM143 925.5q0 69.5 70 69.5q72 0 72 -69.5t-72 -69.5q-70 0 -70 69.5z" />
<glyph unicode="&#x3c;" d="M82 451v81l952 447l35 -78l-883 -407l883 -416l-35 -78z" />
<glyph unicode="=" horiz-adv-x="1153" d="M88 254v82h977v-82h-977zM88 649v82h977v-82h-977z" />
<glyph unicode="&#x3e;" d="M82 78l883 416l-883 407l35 78l952 -447v-81l-952 -451z" />
<glyph unicode="?" horiz-adv-x="860" d="M70 1092q0 160 90 224t272 64q92 0 161 -16t115 -56t69.5 -105.5t23.5 -162.5q0 -66 -13.5 -116t-40 -88.5t-68.5 -68.5t-97 -54q-51 -23 -79 -44.5t-41 -49t-16.5 -65.5t-3.5 -91v-74h-88v109q0 66 11.5 110.5t34 77.5t55 55.5t77.5 40.5q43 18 77 38t57.5 49.5t36 70.5 t12.5 100q0 74 -14.5 123t-48.5 80t-87 43t-129 12q-152 0 -218 -45t-66 -161h-82zM330 55.5q0 69.5 69 69.5q72 0 72 -69.5t-72 -69.5q-69 0 -69 69.5z" />
<glyph unicode="@" horiz-adv-x="1564" d="M168 645q0 59 3 144t16.5 173.5t42 167t79.5 127.5q70 66 185.5 94.5t296.5 28.5q190 0 306.5 -26.5t184.5 -89.5q31 -29 53.5 -67t35.5 -94t19.5 -134t6.5 -187q0 -53 -2 -118.5t-12.5 -130t-30 -121t-54.5 -90.5q-55 -53 -122.5 -66.5t-147.5 -13.5v100 q-41 -57 -105.5 -85t-162.5 -28q-109 0 -172.5 29t-96 82t-42 128t-9.5 167t9.5 167t41 129t95 83.5t172.5 29.5q188 0 270 -112v98h78v-711q82 0 129 47.5t63.5 147.5t16.5 285q0 96 -6 162.5t-18.5 112.5t-30 76t-41.5 52q-51 49 -149.5 75t-275 26t-276.5 -28t-149 -79 q-41 -43 -64.5 -113.5t-36 -150.5t-15.5 -159t-3 -138q0 -57 2 -138t12 -163t30.5 -155t57.5 -113q33 -39 82 -64t107.5 -38t125 -18t136.5 -5q78 0 147.5 5t129 23.5t108.5 54t84 97.5l71 -37q-37 -78 -99 -122t-138 -65.5t-157 -27.5t-156 -6q-201 0 -320 34.5t-186 112.5 q-39 45 -62.5 117t-36 157t-16.5 178t-4 183zM524 635q0 -74 4 -134.5t27 -104.5t69 -67.5t130 -23.5q76 0 129 16.5t84.5 54.5t46 101.5t14.5 157.5t-14.5 158.5t-47 103.5t-86 55.5t-128.5 16.5q-82 0 -128 -24.5t-67.5 -70t-27 -105.5t-5.5 -134z" />
<glyph unicode="A" horiz-adv-x="1243" d="M53 0l520 1366h95l522 -1366h-96l-160 418h-631l-158 -418h-92zM334 496h569l-282 764z" />
<glyph unicode="B" horiz-adv-x="1323" d="M201 0v1366h444q100 0 190.5 -3t158 -35t106.5 -103.5t39 -206.5q0 -49 -7.5 -99.5t-27 -93.5t-53 -75.5t-84.5 -47.5q57 -16 94 -48.5t56.5 -77t26.5 -95.5t7 -106q0 -139 -36 -216t-101.5 -112t-155.5 -41t-201 -6h-456zM289 82h354q96 0 174 2t132.5 27.5t83 84 t28.5 173.5q0 113 -27.5 173t-81 86.5t-131.5 30t-178 3.5h-354v-580zM289 739h356q90 0 165 3t128 30t83 85t30 167q0 106 -32 161.5t-88.5 77t-133 22.5t-166.5 1h-342v-547z" />
<glyph unicode="C" horiz-adv-x="1300" d="M168 682q0 164 8 294t57.5 220t155 137t301.5 47q123 0 210 -19.5t143.5 -62.5t82 -111.5t25.5 -168.5h-84q0 78 -19.5 131t-64.5 86t-121 47t-190 14q-158 0 -243 -38.5t-123 -115.5t-43 -192.5t-5 -267.5t5 -265.5t43 -191.5t122 -116.5t244 -38.5q115 0 190.5 14 t120.5 47t64.5 86t19.5 131h84q0 -100 -25.5 -169.5t-82 -112.5t-143.5 -62.5t-210 -19.5q-197 0 -302 47t-154.5 137t-57.5 220t-8 294z" />
<glyph unicode="D" horiz-adv-x="1351" d="M201 0v1366h463q94 0 163.5 -8t121.5 -28.5t90 -52.5t67 -79q23 -37 37 -79t23.5 -101.5t13.5 -140t4 -193.5q0 -115 -4 -195.5t-13.5 -139t-24 -101.5t-36.5 -80q-29 -47 -67 -79t-90 -52.5t-121.5 -28.5t-163.5 -8h-463zM289 82h362q84 0 144.5 6t103.5 20.5t71.5 37 t51.5 55.5q18 29 32.5 66.5t22.5 93t12.5 134t4.5 189.5t-4.5 189.5t-12.5 134t-22.5 93.5t-32.5 66q-23 33 -51.5 55.5t-71.5 37t-103.5 20.5t-144.5 6h-362v-1204z" />
<glyph unicode="E" horiz-adv-x="1193" d="M201 0v1366h821v-82h-729v-541h708v-81h-708v-580h729v-82h-821z" />
<glyph unicode="F" horiz-adv-x="1142" d="M201 0v1366h811v-82h-721v-541h702v-81h-702v-662h-90z" />
<glyph unicode="G" horiz-adv-x="1349" d="M168 682q0 166 8 296t57.5 219t156 136t304.5 47q244 0 362 -81.5t118 -280.5h-87q0 78 -22.5 131t-71.5 86t-127 47t-190 14q-162 0 -248 -38.5t-124 -116.5t-42 -192.5t-4 -266.5t3 -265.5t40 -191.5t121 -116.5t248 -38.5q260 0 354 139q29 41 42 99.5t18.5 122 t5.5 123.5v108h-439v81h523v-743h-82v186q-57 -104 -167 -153t-259 -49q-190 0 -292 50t-148 141t-52 220t-6 287z" />
<glyph unicode="H" horiz-adv-x="1337" d="M201 0v1366h90v-623h756v623h90v-1366h-90v662h-756v-662h-90z" />
<glyph unicode="I" horiz-adv-x="491" d="M201 0v1366h90v-1366h-90z" />
<glyph unicode="J" horiz-adv-x="1077" d="M86 348h84q0 -84 19.5 -138t59.5 -85t100.5 -43t139.5 -12q98 0 160 21.5t94.5 65.5t44 109.5t11.5 151.5v948h90v-944q0 -106 -17.5 -188t-61.5 -137.5t-122 -84t-199 -28.5q-100 0 -175.5 18t-126 60t-76 112t-25.5 174z" />
<glyph unicode="K" horiz-adv-x="1171" d="M201 0v1366h88v-645l706 645h125l-753 -680l755 -686h-133l-698 643v-643h-90z" />
<glyph unicode="L" horiz-adv-x="1042" d="M201 0v1366h90v-1284h721v-82h-811z" />
<glyph unicode="M" horiz-adv-x="1677" d="M201 0v1366h121l518 -1270l514 1270h123v-1366h-88v1239l-504 -1239h-97l-501 1239v-1239h-86z" />
<glyph unicode="N" horiz-adv-x="1333" d="M201 0v1366h110l733 -1239v1239h89v-1366h-115l-729 1241v-1241h-88z" />
<glyph unicode="O" horiz-adv-x="1361" d="M168 684q0 156 6 284t52 220t150.5 142t303.5 50t303 -50t150.5 -142t52.5 -220t6 -284t-6 -285t-52.5 -221t-150.5 -143t-303 -51t-303.5 51t-150.5 143t-52 221t-6 285zM258 681.5q0 -149.5 4 -263t42 -191t125 -117.5t251 -40t251 40t125 117.5t42 191t4 263t-4 264.5 t-42 193t-125 117.5t-251 39.5t-251 -39.5t-125 -117.5t-42 -193t-4 -264.5z" />
<glyph unicode="P" horiz-adv-x="1232" d="M201 0v1366h440q113 0 204 -6t156.5 -40t101.5 -108.5t36 -212.5q0 -135 -36 -209.5t-101.5 -109.5t-157.5 -41t-203 -6h-350v-633h-90zM291 715h342q94 0 171 2t131 27.5t84 85t30 171.5q0 111 -30 169.5t-85 84t-132 28.5t-169 3h-342v-571z" />
<glyph unicode="Q" horiz-adv-x="1359" d="M168 684q0 156 6 284t52 220t150.5 142t303.5 50t303 -50t150.5 -142t52.5 -220t6 -284q0 -143 -4 -263t-40 -210t-116 -147.5t-231 -71.5l106 -244l-78 -35l-120 273q-13 0 -26 -1q-120 0 -205 18q-93 19 -153.5 60t-92 102.5t-46 139.5t-16.5 173t-2 206zM258 682 q0 -147 4 -261t41 -191.5t123 -118.5t250 -41l-86 202l78 33l98 -231q129 10 197.5 52t99.5 116.5t35 184.5t4 255q0 149 -4 264t-42 193t-125 117.5t-251 39.5t-251 -39.5t-125 -117.5t-42 -192.5t-4 -264.5z" />
<glyph unicode="R" horiz-adv-x="1318" d="M201 0v1366h440q106 0 198.5 -4t158 -38t103.5 -108.5t38 -218.5q0 -51 -7.5 -99t-28 -89t-54 -71.5t-86.5 -45.5q74 -18 110.5 -60t51 -96.5t14.5 -113.5v-109v-313h-88v307q0 119 -11.5 187.5t-53.5 103.5t-126 43t-229 8h-340v-649h-90zM291 733h354q90 0 165 1 t128 24.5t83 79t30 166t-31 169t-86 84t-132 27.5t-169 2h-342v-553z" />
<glyph unicode="S" horiz-adv-x="1302" d="M152 999q0 125 35.5 201t101 116t156 52t200.5 12q102 0 192.5 -11t157 -50t105.5 -110.5t39 -190.5h-84q0 100 -35 155.5t-91.5 83t-131 33.5t-156.5 6q-90 0 -164 -7t-126 -36.5t-81.5 -89t-29.5 -162.5q0 -104 33.5 -157t90 -76t131 -24t156.5 -3q102 -2 193.5 -8 t159 -37.5t107.5 -102.5t40 -200q0 -125 -37 -203.5t-102.5 -125t-157.5 -63.5t-205 -17q-102 0 -193 11t-159 50t-106.5 110.5t-38.5 192.5h86q0 -100 33.5 -155.5t91 -83t132 -33.5t158.5 -6q92 0 167 11t128 45t83 96.5t30 164.5q0 106 -31 161.5t-85 79t-130 25.5 t-166 4q-102 2 -192 7.5t-158 36t-107.5 100t-39.5 198.5z" />
<glyph unicode="T" horiz-adv-x="1097" d="M61 1284v82h975v-82h-442v-1284h-90v1284h-443z" />
<glyph unicode="U" horiz-adv-x="1329" d="M187 581q1 65 1 107v678h91v-678q0 -100 -1 -175q0 -19 -1 -36q0 -53 3 -95q3 -56 11 -97t26 -72q37 -66 121 -104.5t225.5 -38.5t223.5 38.5t119 104.5q18 33 27 74t13.5 96t4.5 130v175v678h90v-678v-151q0 -76 -4 -144.5t-18.5 -128t-41.5 -102.5q-55 -88 -153.5 -133 t-259.5 -45q-174 0 -287 56t-158 173q-16 41 -22.5 104.5t-8.5 131.5q-1 45 -1 88v44z" />
<glyph unicode="V" horiz-adv-x="1148" d="M25 1366h94l456 -1253l457 1253h92l-506 -1366h-94z" />
<glyph unicode="W" horiz-adv-x="1785" d="M102 1366h93l303 -1239l342 1239h108l342 -1239l305 1239h88l-340 -1366h-108l-342 1247l-344 -1247h-111z" />
<glyph unicode="X" horiz-adv-x="1126" d="M76 0l432 690l-426 676h102l381 -608l375 608h104l-428 -676l435 -690h-105l-387 618l-381 -618h-102z" />
<glyph unicode="Y" horiz-adv-x="1067" d="M23 1366h100l414 -678l409 678h98l-469 -764v-602h-88v602z" />
<glyph unicode="Z" horiz-adv-x="1224" d="M145 0v84l832 1200h-832v82h934v-84l-833 -1200h833v-82h-934z" />
<glyph unicode="[" horiz-adv-x="598" d="M123 -391v2042h393v-78h-307v-1884h307v-80h-393z" />
<glyph unicode="\" horiz-adv-x="1064" d="M59 1546h86l861 -1718h-86z" />
<glyph unicode="]" horiz-adv-x="598" d="M82 -311h307v1884h-307v78h393v-2042h-393v80z" />
<glyph unicode="^" d="M86 426l449 952h81l449 -952l-78 -35l-412 883l-411 -883z" />
<glyph unicode="_" horiz-adv-x="1024" d="M0 -311h1024v-86h-1024v86z" />
<glyph unicode="`" horiz-adv-x="823" d="M223 1366h111l266 -264h-104z" />
<glyph unicode="a" horiz-adv-x="1087" d="M119 276q0 96 26.5 156t75.5 92.5t119 44t156 11.5h348q0 80 -2 142t-29 104t-89 63.5t-185 21.5q-55 0 -110.5 -6t-99.5 -26.5t-73 -60.5t-29 -107h-82q0 90 35 146t92.5 87t131 41t151.5 10q152 0 229.5 -34.5t110.5 -93t35 -136.5t2 -162v-569h-82v154 q-41 -86 -135 -127t-230 -41q-190 0 -278 67t-88 223zM207 279q0 -115 60.5 -164t211.5 -49q125 0 199 29.5t111.5 86t47.5 135.5q8 65 7 146v37h-357q-66 0 -117 -7.5t-87.5 -31t-56 -66t-19.5 -116.5z" />
<glyph unicode="b" horiz-adv-x="1130" d="M172 0v1427h88v-589q47 80 130 118.5t212 38.5q135 0 213 -36.5t118 -103.5t51 -161t11 -207q0 -115 -11 -207t-51 -157.5t-119 -101t-212 -35.5q-141 0 -223 45t-123 116v-147h-84zM258 489.5q0 -120.5 18.5 -200.5t59.5 -129t109.5 -69.5t166.5 -20.5q106 0 166 31.5 t88.5 89t34.5 133t6 166t-6 167t-35.5 133t-89 88t-164.5 31.5q-98 0 -166.5 -20.5t-109.5 -68.5t-59.5 -129t-18.5 -201.5z" />
<glyph unicode="c" horiz-adv-x="1054" d="M135 489q0 123 13.5 218.5t57.5 159t126 96t219 32.5q74 0 143.5 -12t123.5 -44t86 -87t32 -141h-82q0 63 -27.5 103t-70.5 61.5t-96.5 28.5t-106.5 7q-117 0 -183.5 -26.5t-99 -79.5t-40 -132t-7.5 -181.5t7.5 -181.5t40 -132t99 -80.5t183.5 -27.5q53 0 107.5 6 t97.5 27.5t69.5 60.5t26.5 104h82q0 -86 -32 -141t-86 -87t-123.5 -43t-143.5 -11q-139 0 -221 31.5t-125 95t-56.5 157.5t-13.5 219z" />
<glyph unicode="d" horiz-adv-x="1130" d="M135 489q0 111 10.5 204t50.5 160t118.5 104.5t213.5 37.5q129 0 212 -38.5t130 -118.5v589h88v-1427h-84v147q-94 -162 -346 -161q-135 0 -213.5 35.5t-118.5 101t-50.5 158.5t-10.5 208zM223 487q0 -90 6.5 -165.5t35 -132t88 -88t165.5 -31.5q98 0 167 20.5t110 68.5 t59 128t18 200.5t-18 201.5t-59 130t-110 69.5t-167 20.5q-104 0 -163.5 -31.5t-89 -88t-36 -133.5t-6.5 -169z" />
<glyph unicode="e" horiz-adv-x="1085" d="M135 487q0 121 12.5 215.5t55.5 160t124 99t216 33.5q137 0 219 -34.5t123 -100t53 -161t12 -218.5h-727q0 -102 8.5 -179t41 -128t98 -77.5t180.5 -26.5q53 0 106.5 7t96.5 27.5t70.5 59.5t27.5 104h82q0 -86 -33 -141t-86 -86t-122.5 -43t-143.5 -12q-137 0 -219 31.5 t-125 95t-56.5 157.5t-13.5 217zM223 561h641q0 92 -14 158.5t-50 109.5t-98.5 63.5t-158.5 20.5q-94 0 -155.5 -21.5t-98.5 -64.5t-51.5 -109.5t-14.5 -156.5z" />
<glyph unicode="f" horiz-adv-x="886" d="M49 899v80h164v182q0 68 15.5 117t54.5 86q45 43 109.5 60.5t148.5 17.5q63 0 122.5 -11.5t104.5 -38t71.5 -70.5t26.5 -108h-84q0 47 -22.5 75t-57 43.5t-76.5 20.5t-81 5q-55 0 -100.5 -8.5t-77 -30t-49 -59t-17.5 -99.5v-182h440v-80h-440v-899h-88v899h-164z" />
<glyph unicode="g" horiz-adv-x="1128" d="M135 500q0 104 9.5 194t47 157t115.5 105.5t217 38.5q129 0 215 -40t133 -119v143h84v-891q0 -111 -8 -178.5t-35 -124.5q-47 -102 -148 -142t-228 -40q-174 0 -275.5 65.5t-103.5 216.5h84q0 -104 73.5 -152t214.5 -48q102 0 184.5 28.5t119.5 106.5q18 39 25 81t8 85 q1 22 1 43t-1 43v28q0 29 1 58q-47 -80 -130 -120t-212 -40q-135 0 -214 36t-117.5 101.5t-49 157.5t-10.5 207zM223 498q0 -90 6.5 -166t35 -131.5t87 -86t164.5 -30.5q98 0 166 19.5t110 67.5t60 127t18 200q0 119 -18 197.5t-59 126.5t-110 68.5t-167 20.5 q-106 0 -165.5 -31.5t-87 -87t-34 -131t-6.5 -163.5z" />
<glyph unicode="h" horiz-adv-x="1097" d="M172 0v1427h88v-591q51 94 140 126.5t186 32.5q190 0 274 -84q33 -35 50.5 -72.5t24.5 -84.5t7 -105v-127v-522h-88v506q0 72 -1 126t-6 96t-18.5 71.5t-37.5 52.5q-35 33 -86.5 46t-120.5 13q-127 0 -193.5 -43t-95.5 -111.5t-32 -153.5t-3 -169v-434h-88z" />
<glyph unicode="i" horiz-adv-x="432" d="M152 1317q0 63 65.5 63t65.5 -63q0 -68 -65.5 -68t-65.5 68zM172 0v979h88v-979h-88z" />
<glyph unicode="j" horiz-adv-x="432" d="M-387 -145h84q2 -86 60.5 -129t168.5 -43q74 0 123 20.5t78 49t37 72.5t8 93v1061h88v-1083q0 -78 -23.5 -134.5t-67.5 -91.5t-105.5 -51t-135.5 -16q-143 0 -229 59.5t-86 192.5zM152 1317q0 63 65.5 63t65.5 -63q0 -68 -65.5 -68t-65.5 68z" />
<glyph unicode="k" horiz-adv-x="950" d="M172 0v1427h88v-870l522 422h123l-561 -453l567 -526h-123l-528 496v-496h-88z" />
<glyph unicode="l" horiz-adv-x="432" d="M172 0v1427h88v-1427h-88z" />
<glyph unicode="m" horiz-adv-x="1652" d="M172 0v979h84v-139q45 86 128 120.5t175 34.5q100 0 183 -37.5t114 -140.5q25 51 60.5 85t77.5 54.5t89 29.5t93 9q129 0 195.5 -42t94 -103.5t29.5 -131t2 -126.5v-592h-88v596q0 74 -5 132t-27.5 98t-72 61.5t-135.5 21.5q-113 0 -172 -42t-85.5 -109.5t-29.5 -153.5 t-3 -174v-430h-88v596q0 74 -5.5 132t-29 99t-71.5 62.5t-134 21.5q-115 0 -175.5 -44t-86 -113.5t-27.5 -155.5t-2 -168v-430h-88z" />
<glyph unicode="n" horiz-adv-x="1097" d="M172 0v979h84v-148q51 94 141 129t188.5 35t166 -21.5t108.5 -62.5q33 -33 50.5 -71.5t24.5 -85.5t7 -105v-127v-522h-88v506q0 72 -1 126t-6 96t-18.5 71.5t-37.5 52.5q-35 33 -86.5 46t-120.5 13q-127 0 -193.5 -43t-95.5 -111.5t-32 -153.5t-3 -169v-434h-88z" />
<glyph unicode="o" horiz-adv-x="1110" d="M135 489.5q0 110.5 10.5 202.5t52.5 160t126 105.5t231 37.5t231 -37.5t126 -105.5t52.5 -160t10.5 -202.5t-10.5 -202.5t-52.5 -159t-126 -104.5t-231 -37.5t-231 37.5t-126 104.5t-52.5 159t-10.5 202.5zM223 489.5q0 -102.5 8.5 -181.5t41 -132t99 -79.5t183.5 -26.5 t183.5 26.5t99 79.5t41 132t8.5 181.5t-8.5 181.5t-41 132t-99 80.5t-183.5 27.5t-183.5 -27.5t-99 -80.5t-41 -132t-8.5 -181.5z" />
<glyph unicode="p" horiz-adv-x="1130" d="M172 -391v1370h84v-148q47 80 132 122t214 42q135 0 213 -36.5t118 -102t51 -160t11 -207.5q0 -115 -11 -207t-51 -158.5t-118 -102t-213 -35.5q-129 0 -212 38.5t-130 118.5v-534h-88zM258 491.5q0 -120.5 18.5 -201.5t59.5 -130t109.5 -69.5t166.5 -20.5 q106 0 166 32.5t88.5 90t34.5 134t6 165t-6 165t-34.5 133t-88 88t-166.5 31.5q-98 0 -166.5 -20.5t-109.5 -68.5t-59.5 -128t-18.5 -200.5z" />
<glyph unicode="q" horiz-adv-x="1130" d="M135 492q0 113 10.5 206t50.5 158.5t117.5 102t212.5 36.5q129 0 214 -40t132 -119v143h86v-1370h-88v534q-94 -158 -344 -157q-135 0 -214 36.5t-117.5 102t-49 159t-10.5 208.5zM223 489q0 -90 6.5 -165.5t34 -133t87 -89t165.5 -31.5q98 0 167 20.5t111 68.5t60 129 t18 201.5t-18 201.5t-60 129t-111 68.5t-167 20.5q-106 0 -165.5 -32.5t-87 -89t-34 -133.5t-6.5 -165z" />
<glyph unicode="r" horiz-adv-x="886" d="M172 0v979h84v-143q27 49 60.5 79.5t73.5 48t83 24.5t86 7q141 0 222 -66.5t81 -213.5h-82q0 115 -61.5 155.5t-167.5 40.5q-115 0 -175.5 -45t-86 -115.5t-27.5 -157.5t-2 -169v-424h-88z" />
<glyph unicode="s" horiz-adv-x="1026" d="M123 268h82q0 -57 14 -96t48 -61.5t90.5 -32.5t142.5 -10q168 0 241.5 45t73.5 159q0 47 -8 79t-30.5 51.5t-61.5 29.5t-101 17q-102 8 -189 10t-150.5 22.5t-100.5 71.5t-37 160q0 162 97 223q94 59 289 59h14q111 0 184.5 -19.5t116.5 -64.5q63 -68 63 -196h-84 q0 51 -13 89t-45 62.5t-86.5 35.5t-133.5 11q-170 0 -241 -42t-73 -142q0 -55 9.5 -89t32 -52.5t59 -26.5t92.5 -14q100 -10 188 -12.5t153.5 -22.5t104.5 -72.5t39 -163.5q0 -160 -98 -226q-95 -65 -291 -64h-12q-102 0 -174 14t-117 47t-66.5 87t-21.5 134z" />
<glyph unicode="t" horiz-adv-x="894" d="M53 899v80h168v387h88v-387h453v-80h-453v-631q0 -119 54.5 -159.5t168.5 -40.5q117 0 173.5 45t56.5 155h82q0 -156 -84 -219t-232 -63q-152 0 -229.5 62.5t-77.5 219.5v631h-168z" />
<glyph unicode="u" horiz-adv-x="1097" d="M156 330v127v522h88v-506q0 -72 1 -126t6 -96t18.5 -71.5t37.5 -52.5q35 -33 86 -46t121 -13q127 0 193.5 43t95 111.5t32 153.5t3.5 169v434h88v-979h-84v147q-27 -47 -64 -78.5t-80 -50t-90 -26.5t-96 -8q-98 0 -165.5 21.5t-108.5 62.5q-33 33 -50.5 71.5t-24.5 86 t-7 104.5z" />
<glyph unicode="v" horiz-adv-x="935" d="M43 979h92l336 -879l330 879h92l-375 -979h-98z" />
<glyph unicode="w" horiz-adv-x="1419" d="M59 979h93l251 -866l259 866h98l260 -866l250 866h90l-291 -979h-102l-256 870l-258 -870h-103z" />
<glyph unicode="x" horiz-adv-x="935" d="M59 0l357 496l-348 483h106l295 -416l299 416h102l-350 -481l357 -498h-107l-303 426l-303 -426h-105z" />
<glyph unicode="y" horiz-adv-x="931" d="M68 979h92l317 -866l307 866h93l-504 -1370h-90l147 393z" />
<glyph unicode="z" horiz-adv-x="970" d="M111 0v78l639 821h-639v80h749v-74l-637 -821h637v-84h-749z" />
<glyph unicode="{" horiz-adv-x="743" d="M166 629q0 37 19.5 63.5t37.5 44.5l111 111q8 8 8 18v432q0 59 4 106.5t14.5 84.5t29 68.5t46.5 60.5q47 47 103.5 60.5t122.5 13.5v-78q-53 0 -93.5 -9.5t-79.5 -48.5q-37 -37 -50 -95t-13 -158v-420q0 -66 -43 -109l-51 -51l-40 -39l-26 -25q-16 -16 -14 -31.5 t14 -27.5l115 -111q23 -23 34 -49t11 -67v-373q0 -100 14.5 -159.5t51.5 -96.5q37 -35 76.5 -46t93.5 -11v-78q-65 0 -122 13t-104 61q-29 29 -47 60.5t-28.5 68t-14.5 84t-4 106.5v383q0 20 -12 33l-125 125q-14 14 -26.5 35.5t-12.5 50.5z" />
<glyph unicode="|" horiz-adv-x="573" d="M244 -391v1757h86v-1757h-86z" />
<glyph unicode="}" horiz-adv-x="743" d="M82 -313q53 0 93 11t77 46q37 37 51 96.5t14 159.5v373q0 41 11.5 67.5t34.5 48.5l114 111q14 14 14.5 29t-14.5 30q-8 6 -26 25l-39 39l-52 51q-43 43 -43 109v420q0 100 -13 158.5t-50 94.5q-39 39 -79 48.5t-93 9.5v78q66 0 122 -13.5t103 -60.5q29 -29 47.5 -60.5 t28.5 -68.5t14 -84t4 -107v-432q0 -10 9 -18l110 -111q18 -18 38 -44.5t20 -63.5q0 -29 -12.5 -50.5t-26.5 -35.5l-125 -125q-12 -12 -13 -33v-383q0 -59 -4 -106.5t-14 -84t-28.5 -68.5t-47.5 -60q-47 -47 -103.5 -60.5t-121.5 -13.5v78z" />
<glyph unicode="~" d="M72 453l161 100q68 43 156 45h8q83 0 150 -39l74 -46q37 -24 76 -37q35 -12 71 -11h11q42 2 89 31l166 102l45 -70l-161 -102q-68 -43 -157 -44h-4q-86 0 -153 40l-55 34l-55 31q-47 29 -103 30h-3q-54 0 -105 -34l-162 -98z" />
<glyph unicode="&#xa1;" horiz-adv-x="575" d="M217 925.5q0 69.5 72 69.5q70 0 69.5 -69.5t-69.5 -69.5q-72 0 -72 69.5zM246 -387v977h86v-977h-86z" />
<glyph unicode="&#xa2;" horiz-adv-x="1054" d="M135 491.5q0 110.5 11.5 200.5t49 155.5t111.5 103.5t201 42v185h84v-185q70 -2 133 -16t109.5 -47t74 -86t27.5 -133h-84q0 57 -21.5 95t-57.5 60.5t-83 31.5t-98 11v-839q51 2 98 11t83 31.5t57.5 59.5t21.5 96h84q0 -78 -27.5 -131t-74 -86t-109.5 -48t-133 -17v-181 h-84v181q-127 4 -201 42t-111.5 104.5t-49 157.5t-11.5 201.5zM223 491.5q0 -88.5 5 -163t33 -131t85 -89t162 -38.5v839q-104 -4 -161.5 -36.5t-85.5 -88t-33 -130t-5 -163z" />
<glyph unicode="&#xa3;" d="M131 82h115v563h-115v80h115v219v92q0 47 6 90t22.5 83t49.5 71q49 47 130 73.5t189 26.5q70 0 139.5 -7t125 -35.5t90 -86t34.5 -159.5h-86q0 70 -22.5 110.5t-60.5 62t-90 27.5t-109 6q-96 0 -165 -17t-114 -64q-23 -23 -33 -53.5t-14 -66.5t-4 -73v-74v-225h604v-80 h-604v-563h717v-82h-920v82z" />
<glyph unicode="&#xa4;" d="M123 530v80h106v148h-106v80h106q0 117 10.5 217t51.5 171.5t124 112.5t228 41q78 0 147.5 -12t123 -44t84 -88t30.5 -144h-86q0 68 -25.5 107.5t-67.5 62t-95.5 29.5t-110.5 7q-123 0 -188.5 -35.5t-96 -98t-36 -146.5t-5.5 -180h373v-80h-373v-148h373v-80h-373 q0 -98 4.5 -183t34 -146.5t96 -96t191.5 -34.5q57 0 111.5 7t95.5 29.5t66.5 62.5t25.5 107h86q0 -88 -30.5 -144t-83 -89t-122 -45t-149.5 -12q-147 0 -230 42t-124 115.5t-50.5 173t-9.5 213.5h-106z" />
<glyph unicode="&#xa5;" horiz-adv-x="1091" d="M51 1366h103l397 -680l393 680h96l-309 -528h184v-78h-231l-84 -146h315v-79h-323v-535h-88v535h-326v79h320l-88 146h-232v78h187z" />
<glyph unicode="&#xa6;" horiz-adv-x="573" d="M244 215h86v-606h-86v606zM244 760v606h86v-606h-86z" />
<glyph unicode="&#xa7;" d="M193 584q0 102 35.5 159.5t109.5 79.5q-145 47 -145 252q0 90 24.5 148.5t70.5 93.5t114.5 49t158.5 14q104 0 180 -14t124 -48t70.5 -89.5t22.5 -136.5h-86q0 113 -67.5 158.5t-243.5 45.5q-68 0 -121 -9t-88 -33.5t-53 -67.5t-18 -111q0 -88 29.5 -131t77.5 -60.5 t109.5 -17.5t125.5 -2q86 -4 142 -13t97 -38q59 -41 77.5 -103.5t18.5 -127.5q0 -86 -29.5 -148.5t-115.5 -91.5q145 -47 145 -252q0 -90 -24.5 -148.5t-70.5 -93t-115.5 -49t-157.5 -14.5q-104 0 -180 14.5t-124 48t-70.5 89t-22.5 137.5h83q0 -59 15.5 -98t52.5 -63 t97.5 -34t148.5 -10q68 0 121 9t88 34t53 68t18 110.5t-17 107.5t-50 62.5t-80 30.5t-109 8h-83q-44 0 -87 5t-82.5 15.5t-72.5 32.5q-47 33 -71.5 88.5t-24.5 143.5zM281 578q0 -78 24.5 -118t67.5 -57.5t100 -19.5t123 -2q57 0 107.5 4t87 23.5t58 61.5t21.5 116 q0 68 -17 107.5t-56 60t-98.5 25.5t-143.5 5q-70 0 -121 -7t-85 -28.5t-51 -62t-17 -108.5z" />
<glyph unicode="&#xa8;" horiz-adv-x="851" d="M141 1303q0 35 15.5 49t50.5 14t51 -14.5t16 -48.5q0 -68 -67 -68q-66 0 -66 68zM580 1303q0 35 15 49t50 14t51.5 -14.5t16.5 -48.5q0 -68 -68 -68q-65 0 -65 68z" />
<glyph unicode="&#xa9;" horiz-adv-x="1681" d="M168 688q0 203 28.5 336t103.5 213t205 111.5t334.5 31.5t336 -31.5t207 -111.5t103 -214t27.5 -339q0 -201 -28.5 -334t-104 -215t-207 -115.5t-334 -33.5t-333.5 34.5t-206 116.5t-103.5 216t-28.5 335zM250 682q0 -176 23.5 -295t88 -190.5t179 -102.5t299.5 -31 q186 0 301.5 31t180 103.5t87.5 193.5t23 299q0 182 -23 301t-87.5 187.5t-180 96.5t-301.5 28q-188 0 -303 -29t-179.5 -99.5t-86 -190.5t-21.5 -302zM428 688q0 123 14.5 213t59.5 150.5t126 90t216 29.5q74 0 144.5 -13t123.5 -47t86 -89t33 -141h-80q0 70 -25.5 111.5 t-67.5 64t-97.5 30t-114.5 7.5q-115 0 -181.5 -26t-100.5 -76t-43 -127t-9 -177q0 -102 9 -178t43 -126t100.5 -75.5t181.5 -25.5q59 0 114.5 7t97.5 29.5t67.5 64.5t25.5 112h80q0 -86 -33 -141.5t-86 -89.5t-123.5 -47t-144.5 -13q-135 0 -216 29.5t-126 90t-59.5 150.5 t-14.5 213z" />
<glyph unicode="&#xaa;" horiz-adv-x="774" d="M82 883q0 72 22.5 113.5t60.5 64t89 30t108 7.5h246q0 55 -5 95t-26.5 66.5t-65.5 39t-120 12.5q-41 0 -80 -5.5t-68.5 -18.5t-48 -38.5t-18.5 -68.5h-76q0 63 27 103t70 61.5t97 28.5t109 7q104 0 162 -24.5t84.5 -62.5t30.5 -84t4 -89v-432h-66v98q-41 -51 -102 -79.5 t-164 -28.5q-141 0 -205.5 44t-64.5 161zM160 885q0 -78 40 -106.5t148 -28.5q92 0 143.5 23.5t77 62t31.5 89t6 103.5h-250q-41 0 -76.5 -4t-62.5 -19.5t-42 -44t-15 -75.5z" />
<glyph unicode="&#xab;" horiz-adv-x="915" d="M109 485q0 55 26.5 111.5t66.5 108t84 98.5l81 84l57 -60l-71 -71q-40 -41 -75.5 -85t-60 -91.5t-24.5 -92.5q0 -47 23.5 -93t58 -89t74.5 -82l71 -69l-58 -58l-80 81q-44 44 -83 93t-64.5 103.5t-25.5 111.5zM496 485q0 55 26.5 111.5t66.5 108t84 98.5l81 84l57 -60 l-71 -71q-40 -41 -75.5 -85t-60 -91.5t-24.5 -92.5q0 -47 23.5 -93t58 -89t74.5 -82l71 -69l-57 -58l-81 81q-44 44 -83 93t-64.5 103.5t-25.5 111.5z" />
<glyph unicode="&#xac;" d="M88 649v82h975v-731h-84v649h-891z" />
<glyph unicode="&#xad;" horiz-adv-x="983" d="M193 451v81h598v-81h-598z" />
<glyph unicode="&#xae;" horiz-adv-x="1085" d="M94 920q0 135 18.5 224t68.5 141t137.5 73.5t224.5 21.5t224 -21.5t137 -73.5t68.5 -142t18.5 -225q0 -133 -19.5 -222.5t-69.5 -142.5t-137 -76.5t-222 -23.5q-137 0 -224.5 23.5t-137.5 77.5t-68.5 143.5t-18.5 222.5zM158 915q0 -117 14 -194.5t56 -123.5t117 -64.5 t198 -18.5t198.5 19.5t116.5 66.5t55.5 125t14.5 196.5t-14.5 196.5t-56.5 123t-116.5 62.5t-197.5 17.5t-199 -18.5t-118 -64.5t-55 -124t-13 -199zM346 627v596h197q45 0 85 -2t67.5 -16.5t44 -48.5t16.5 -97q0 -43 -11.5 -74t-46.5 -53q35 -20 46.5 -54t11.5 -81v-170 h-64v166q0 45 -11 67.5t-31.5 31.5t-49.5 9h-63h-125v-274h-66zM412 961h131h62q28 0 47.5 8t29.5 28.5t10 63.5t-10 64.5t-30.5 29.5t-49.5 8h-65h-125v-202z" />
<glyph unicode="&#xaf;" horiz-adv-x="849" d="M98 1264v77h656v-77h-656z" />
<glyph unicode="&#xb0;" horiz-adv-x="1155" d="M279 1090q0 160 69.5 225t229.5 65q162 0 230.5 -67.5t68.5 -229.5q0 -166 -67 -238.5t-235 -72.5q-84 0 -141 18.5t-92 57.5t-49 98.5t-14 143.5zM360 1075q0 -61 10.5 -104t35 -70t65.5 -39t104 -12q127 0 172.5 51t45.5 174t-44 175.5t-171 52.5t-172.5 -52.5 t-45.5 -175.5z" />
<glyph unicode="&#xb1;" d="M76 0v80h999v-80h-999zM86 586v82h446v391h84v-391h447v-82h-447v-396h-84v396h-446z" />
<glyph unicode="&#xb2;" horiz-adv-x="747" d="M111 1186q0 109 69.5 148.5t190.5 39.5q127 0 193.5 -48t66.5 -183q0 -72 -20.5 -115t-56.5 -69.5t-85 -42t-109 -31.5q-45 -12 -77.5 -22.5t-53 -28t-30 -46t-9.5 -77.5v-93h439v-71h-516v184q0 68 21.5 108t58 62.5t83.5 35.5l101 28q37 10 69.5 22t57 30.5t38 48.5 t13.5 77q0 94 -44 127t-138 33q-92 0 -138.5 -23t-46.5 -94h-77z" />
<glyph unicode="&#xb3;" horiz-adv-x="747" d="M111 735h77q2 -68 44 -94.5t141 -26.5q51 0 88 4.5t60.5 21.5t34.5 49t11 87t-11 89t-33.5 51.5t-58.5 23.5t-87 6h-131v70h131q43 0 76.5 4t57.5 19.5t36 43t12 76.5q0 86 -36 118t-146 32q-98 0 -141 -26t-43 -95h-76q0 109 68.5 150.5t191.5 41.5q137 0 197.5 -48 t60.5 -169q0 -63 -15.5 -110t-78.5 -72q55 -20 78.5 -68.5t23.5 -134.5q0 -70 -18.5 -116t-52 -72.5t-85 -36.5t-114.5 -10q-123 0 -192.5 40.5t-69.5 151.5z" />
<glyph unicode="&#xb4;" horiz-adv-x="823" d="M223 1102l266 264h111l-272 -264h-105z" />
<glyph unicode="&#xb5;" horiz-adv-x="1107" d="M172 -391v1370h88v-504v-167q0 -75 22.5 -128t78 -81.5t165.5 -28.5q117 0 182.5 37.5t96.5 103t37 152t6 184.5v432h88v-979h-86v150q-51 -96 -140 -130t-187.5 -34t-163 24.5t-99.5 69.5v-471h-88z" />
<glyph unicode="&#x3bc;" horiz-adv-x="1107" d="M172 -391v1370h88v-504v-167q0 -75 22.5 -128t78 -81.5t165.5 -28.5q117 0 182.5 37.5t96.5 103t37 152t6 184.5v432h88v-979h-86v150q-51 -96 -140 -130t-187.5 -34t-163 24.5t-99.5 69.5v-471h-88z" />
<glyph unicode="&#xb6;" horiz-adv-x="1144" d="M90 999q0 137 36 212t101.5 109t156.5 40t204 6h323v-1366h-86v1284h-145v-1284h-86v637q-111 0 -204 6t-159.5 40t-103.5 107.5t-37 208.5zM178 1001q0 -113 30 -171t84 -82.5t131 -26.5t171 -2v565q-92 0 -169 -2t-132 -27.5t-85 -84t-30 -169.5z" />
<glyph unicode="&#xb7;" horiz-adv-x="428" d="M143 686q0 70 70 70q72 0 72 -70t-72 -70q-70 0 -70 70z" />
<glyph unicode="&#xb8;" horiz-adv-x="849" d="M260 -254h68q0 -41 20.5 -53t67.5 -12q57 0 70.5 22.5t13.5 65.5q0 35 -11.5 52t-31 23t-43 7.5t-47.5 1.5v147h71v-92q70 0 101.5 -36t31.5 -101q0 -76 -34.5 -113t-120.5 -37t-121 28.5t-35 96.5z" />
<glyph unicode="&#xb9;" horiz-adv-x="747" d="M111 1182l200 184h70v-748h188v-71h-452v71h186v644l-141 -129z" />
<glyph unicode="&#xba;" horiz-adv-x="774" d="M78 1030q0 84 9 149.5t41 109.5t93.5 67.5t166 23.5t165.5 -23.5t93 -67.5t41 -109.5t9 -149.5t-9 -149.5t-41 -109.5t-93 -67.5t-165.5 -23.5t-166 23.5t-93.5 67.5t-41 109.5t-9 149.5zM156 1030q0 -74 5 -127t28.5 -87t69.5 -49t128 -15t128 15t68.5 49t28.5 87t6 127 t-6 126t-28.5 86t-68.5 50.5t-128 16.5t-128 -16.5t-69.5 -50.5t-28.5 -86t-5 -126z" />
<glyph unicode="&#xbb;" horiz-adv-x="915" d="M104 827l58 60l81 -84q44 -47 84 -98.5t66.5 -107.5t26.5 -112q0 -57 -25.5 -111.5t-64.5 -103.5t-83 -93l-81 -81l-57 58l70 69q40 39 75 82t58.5 89t23.5 93q0 45 -24.5 92.5t-60.5 91.5t-76 85zM492 827l57 60l81 -84q44 -47 84 -98.5t66.5 -107.5t26.5 -112 q0 -57 -25.5 -111.5t-64.5 -103.5t-83 -93l-81 -81l-57 58l70 69q40 39 75 82t58.5 89t23.5 93q0 45 -24.5 92.5t-60.5 91.5t-76 85z" />
<glyph unicode="&#xbc;" horiz-adv-x="1597" d="M111 1182l200 184h70v-750h188v-69h-452v69h186v646l-141 -129zM418 0l717 1376h84l-721 -1376h-80zM864 229v68l373 522h72v-524h127v-66h-127v-229h-76v229h-369zM950 295h283v405z" />
<glyph unicode="&#xbd;" horiz-adv-x="1597" d="M111 1182l200 184h70v-750h188v-69h-452v69h186v646l-141 -129zM418 0l717 1376h84l-721 -1376h-80zM1004 639q0 109 69.5 148.5t190.5 39.5q127 0 193.5 -48t66.5 -183q0 -72 -20.5 -115t-56.5 -69.5t-85 -42t-109 -31.5q-45 -12 -77.5 -22.5t-53 -28t-30 -46 t-9.5 -77.5v-92h439v-72h-516v184q0 68 21.5 108t58 62.5t83.5 35.5l101 28q37 10 69.5 22.5t57 30.5t38 48t13.5 77q0 94 -44 127t-138 33q-92 0 -138.5 -22.5t-46.5 -94.5h-77z" />
<glyph unicode="&#xbe;" horiz-adv-x="1597" d="M111 735h77q2 -68 44 -94.5t141 -26.5q51 0 88 4.5t60.5 21.5t34.5 49t11 87t-11 89t-33.5 51.5t-58.5 23.5t-87 6h-131v70h131q43 0 76.5 4t57.5 19.5t36 43t12 76.5q0 86 -36 118t-146 32q-98 0 -141 -26t-43 -95h-76q0 109 68.5 150.5t191.5 41.5q137 0 197.5 -48 t60.5 -169q0 -63 -15.5 -110t-78.5 -72q55 -20 78.5 -68.5t23.5 -134.5q0 -70 -18.5 -116t-52 -72.5t-85 -36.5t-114.5 -10q-123 0 -192.5 40.5t-69.5 151.5zM479 0l717 1376h84l-721 -1376h-80zM926 229v68l372 522h72v-524h127v-66h-127v-229h-76v229h-368zM1012 295h282 v405z" />
<glyph unicode="&#xbf;" horiz-adv-x="860" d="M66 -57q0 131 53 204.5t166 122.5q51 23 78.5 44.5t41 49t16.5 65.5t3 91v74h88v-109q0 -66 -11.5 -110.5t-34 -77.5t-55 -55.5t-77.5 -40.5q-43 -18 -77 -38t-57.5 -49.5t-35.5 -70.5t-12 -100q0 -74 14 -123t48 -80t86 -43t130 -12q152 0 218.5 45t66.5 161h82 q0 -160 -90.5 -224t-272.5 -64q-92 0 -161.5 16t-115.5 56t-68.5 106t-22.5 162zM395 925.5q0 69.5 72 69.5q70 0 70 -69.5t-70 -69.5q-72 0 -72 69.5z" />
<glyph unicode="&#xc0;" horiz-adv-x="1243" d="M53 0l520 1366h95l522 -1366h-96l-160 418h-631l-158 -418h-92zM334 496h569l-282 764zM428 1761h111l266 -264h-105z" />
<glyph unicode="&#xc1;" horiz-adv-x="1243" d="M53 0l520 1366h95l522 -1366h-96l-160 418h-631l-158 -418h-92zM334 496h569l-282 764zM444 1497l267 264h110l-272 -264h-105z" />
<glyph unicode="&#xc2;" horiz-adv-x="1243" d="M53 0l520 1366h95l522 -1366h-96l-160 418h-631l-158 -418h-92zM309 1497l273 264h84l270 -264h-105l-206 205l-209 -205h-107zM334 496h569l-282 764z" />
<glyph unicode="&#xc3;" horiz-adv-x="1243" d="M53 0l520 1366h95l522 -1366h-96l-160 418h-631l-158 -418h-92zM244 1655l85 50q42 26 88 42q43 15 88 15h6q48 -1 103 -29q27 -14 52.5 -29.5t53.5 -24t57.5 -7.5t64.5 20l125 65l37 -65l-109 -60q-61 -35 -127 -37h-8q-61 0 -115 29q-29 14 -54.5 29.5t-52 25t-56 7 t-64.5 -20.5l-133 -74zM334 496h569l-282 764z" />
<glyph unicode="&#xc4;" horiz-adv-x="1243" d="M53 0l520 1366h95l522 -1366h-96l-160 418h-631l-158 -418h-92zM334 496h569l-282 764zM338 1696q0 35 15.5 49t50 14t51 -14t16.5 -49q0 -68 -68 -68q-65 0 -65 68zM776 1696q0 35 15.5 49t50.5 14t51 -14t16 -49q0 -68 -67 -68q-66 0 -66 68z" />
<glyph unicode="&#xc5;" horiz-adv-x="1243" d="M53 0l486 1274q-92 16 -119 80.5t-27 148.5q0 125 52.5 171t175 46t177 -48t54.5 -173q0 -41 -6 -79t-21.5 -68.5t-45 -51t-74.5 -26.5l485 -1274h-94l-160 418h-631l-158 -418h-94zM336 496h569l-282 764zM471 1491q0 -47 6 -77t22.5 -46t46 -23.5t77 -7.5t77 7.5t46 26 t22.5 48t6 74.5t-6 75.5t-23.5 49t-47 26t-76.5 7.5q-49 0 -78 -8.5t-45.5 -27t-21.5 -49t-5 -75.5z" />
<glyph unicode="&#xc6;" horiz-adv-x="1845" d="M4 0l901 1366h768v-82h-659v-541h639v-81h-639v-580h659v-82h-747v422h-545l-277 -422h-100zM432 502h494v753z" />
<glyph unicode="&#xc7;" horiz-adv-x="1300" d="M168 682q0 164 8 294t57.5 220t155 137t301.5 47q123 0 211 -19.5t143.5 -62.5t81 -111.5t25.5 -168.5h-84q0 78 -19.5 131t-64.5 86t-121 47t-190 14q-158 0 -243 -38.5t-123 -115.5t-43 -192.5t-5 -267.5t5 -265.5t43 -191.5t122 -116.5t244 -38.5q115 0 190.5 14 t120.5 47t64.5 86t19.5 131h84q0 -102 -25.5 -170.5t-82 -111.5t-143.5 -61.5t-210 -18.5v-82q70 0 101.5 -36t31.5 -101q0 -76 -34.5 -113t-120.5 -37t-121 28.5t-35 96.5h68q0 -41 20.5 -53.5t67.5 -12.5q53 0 68.5 19.5t15.5 66.5q0 35 -10.5 52.5t-28 24.5t-41.5 8 q-26 1 -54 1v138q-168 8 -259 59t-134 140t-50 214t-7 283z" />
<glyph unicode="&#xc8;" horiz-adv-x="1193" d="M201 0v1366h821v-82h-729v-541h708v-81h-708v-580h729v-82h-821zM389 1761h111l266 -264h-104z" />
<glyph unicode="&#xc9;" horiz-adv-x="1193" d="M201 0v1366h821v-82h-729v-541h708v-81h-708v-580h729v-82h-821zM414 1497l266 264h111l-273 -264h-104z" />
<glyph unicode="&#xca;" horiz-adv-x="1193" d="M201 0v1366h821v-82h-729v-541h708v-81h-708v-580h729v-82h-821zM289 1497l272 264h84l270 -264h-104l-207 205l-209 -205h-106z" />
<glyph unicode="&#xcb;" horiz-adv-x="1193" d="M201 0v1366h821v-82h-729v-541h708v-81h-708v-580h729v-82h-821zM328 1698q0 35 15 49t50 14t51.5 -14t16.5 -49q0 -68 -68 -68q-65 0 -65 68zM766 1698q0 35 15.5 49t50 14t51 -14t16.5 -49q0 -68 -68 -68q-65 0 -65 68z" />
<glyph unicode="&#xcc;" horiz-adv-x="491" d="M82 1761h111l266 -264h-105zM201 0v1366h90v-1366h-90z" />
<glyph unicode="&#xcd;" horiz-adv-x="491" d="M96 1497l266 264h111l-272 -264h-105zM201 0v1366h90v-1366h-90z" />
<glyph unicode="&#xce;" horiz-adv-x="491" d="M-35 1497l273 264h84l270 -264h-105l-206 205l-209 -205h-107zM201 0v1366h90v-1366h-90z" />
<glyph unicode="&#xcf;" horiz-adv-x="491" d="M-6 1698q0 35 15.5 49t50 14t51 -14t16.5 -49q0 -68 -68 -68q-65 0 -65 68zM201 0v1366h90v-1366h-90zM432 1698q0 35 15.5 49t50 14t51 -14t16.5 -49q0 -68 -67 -68q-66 0 -66 68z" />
<glyph unicode="&#xd0;" horiz-adv-x="1388" d="M59 647v82h179v637h462q94 0 164 -8t122 -28.5t90 -52.5t67 -79q23 -37 37 -79t23 -101.5t13.5 -140t4.5 -193.5q0 -115 -4.5 -195.5t-13.5 -139t-23.5 -101.5t-36.5 -80q-29 -47 -67 -79t-90 -52.5t-121.5 -28.5t-164.5 -8h-462v647h-179zM326 82h362q84 0 144.5 6 t103.5 20.5t71.5 37t51.5 55.5q18 29 32.5 66.5t22.5 93t12 134t4 189.5t-4 189.5t-12 134t-22.5 93.5t-32.5 66q-23 33 -51.5 55.5t-71.5 37t-103.5 20.5t-144.5 6h-362v-557h387v-82h-387v-565z" />
<glyph unicode="&#xd1;" horiz-adv-x="1333" d="M201 0v1366h110l733 -1239v1239h89v-1366h-115l-729 1241v-1241h-88zM285 1655l85 50q42 26 88 42q43 15 88 15h6q48 -1 103 -29q27 -14 52.5 -29.5t53 -24t57.5 -7.5t65 20l125 65l36 -65l-108 -60q-61 -35 -127 -37h-8q-61 0 -115 29q-29 14 -54.5 29.5t-52 25t-56 7 t-64.5 -20.5l-133 -74z" />
<glyph unicode="&#xd2;" horiz-adv-x="1361" d="M168 684q0 156 6 284t52 220t150.5 142t303.5 50t303 -50t150.5 -142t52.5 -220t6 -284t-6 -285t-52.5 -221t-150.5 -143t-303 -51t-303.5 51t-150.5 143t-52 221t-6 285zM258 681.5q0 -149.5 4 -263t42 -191t125 -117.5t251 -40t251 40t125 117.5t42 191t4 263t-4 264.5 t-42 193t-125 117.5t-251 39.5t-251 -39.5t-125 -117.5t-42 -193t-4 -264.5zM506 1761h110l267 -264h-105z" />
<glyph unicode="&#xd3;" horiz-adv-x="1361" d="M168 684q0 156 6 284t52 220t150.5 142t303.5 50t303 -50t150.5 -142t52.5 -220t6 -284t-6 -285t-52.5 -221t-150.5 -143t-303 -51t-303.5 51t-150.5 143t-52 221t-6 285zM258 681.5q0 -149.5 4 -263t42 -191t125 -117.5t251 -40t251 40t125 117.5t42 191t4 263t-4 264.5 t-42 193t-125 117.5t-251 39.5t-251 -39.5t-125 -117.5t-42 -193t-4 -264.5zM479 1497l266 264h111l-272 -264h-105z" />
<glyph unicode="&#xd4;" horiz-adv-x="1361" d="M168 684q0 156 6 284t52 220t150.5 142t303.5 50t303 -50t150.5 -142t52.5 -220t6 -284t-6 -285t-52.5 -221t-150.5 -143t-303 -51t-303.5 51t-150.5 143t-52 221t-6 285zM258 681.5q0 -149.5 4 -263t42 -191t125 -117.5t251 -40t251 40t125 117.5t42 191t4 263t-4 264.5 t-42 193t-125 117.5t-251 39.5t-251 -39.5t-125 -117.5t-42 -193t-4 -264.5zM367 1497l272 264h84l270 -264h-104l-207 205l-209 -205h-106z" />
<glyph unicode="&#xd5;" horiz-adv-x="1361" d="M168 684q0 156 6 284t52 220t150.5 142t303.5 50t303 -50t150.5 -142t52.5 -220t6 -284t-6 -285t-52.5 -221t-150.5 -143t-303 -51t-303.5 51t-150.5 143t-52 221t-6 285zM258 681.5q0 -149.5 4 -263t42 -191t125 -117.5t251 -40t251 40t125 117.5t42 191t4 263t-4 264.5 t-42 193t-125 117.5t-251 39.5t-251 -39.5t-125 -117.5t-42 -193t-4 -264.5zM301 1655l85 50q42 26 88 42q43 15 89 15h5q48 -1 104 -29q27 -14 52.5 -29.5t53 -24t57 -7.5t64.5 20l125 65l37 -65l-109 -60q-61 -35 -127 -37h-8q-61 0 -115 29q-29 14 -54 29.5t-52 25 t-56.5 7t-64.5 -20.5l-133 -74z" />
<glyph unicode="&#xd6;" horiz-adv-x="1361" d="M168 684q0 156 6 284t52 220t150.5 142t303.5 50t303 -50t150.5 -142t52.5 -220t6 -284t-6 -285t-52.5 -221t-150.5 -143t-303 -51t-303.5 51t-150.5 143t-52 221t-6 285zM258 681.5q0 -149.5 4 -263t42 -191t125 -117.5t251 -40t251 40t125 117.5t42 191t4 263t-4 264.5 t-42 193t-125 117.5t-251 39.5t-251 -39.5t-125 -117.5t-42 -193t-4 -264.5zM395 1696q0 35 15.5 49t50.5 14t51 -14t16 -49q0 -68 -67 -68q-66 0 -66 68zM834 1696q0 35 15 49t50 14t51.5 -14t16.5 -49q0 -68 -68 -68q-65 0 -65 68z" />
<glyph unicode="&#xd7;" horiz-adv-x="1153" d="M121 104l397 398l-395 395l57 57l395 -393l398 393l57 -57l-395 -395l397 -398l-59 -57l-398 399l-395 -399z" />
<glyph unicode="&#xd8;" horiz-adv-x="1359" d="M167 503v56q0 59 1 129q2 104 5 187t11.5 149t23.5 115t42 88q55 80 160 118q99 36 260 35h18q33 0 56.5 -1t52.5 -5l61 273l80 -19l-59 -266q168 -31 245 -154q25 -39 39.5 -88t21.5 -113.5t8 -145.5v-56q0 -59 -1 -129q-2 -105 -5 -186.5t-11.5 -146t-24.5 -115 t-43 -89.5q-55 -82 -159 -121q-98 -37 -260 -37q-9 0 -17 1q-33 0 -57.5 2t-53.5 6l-61 -279l-80 17l61 274q-174 33 -248 154q-25 39 -39 88t-20 113.5t-7 145.5zM256 475q2 -82 9 -134t20.5 -85t31.5 -61q61 -90 183 -111l278 1208q-22 2 -41.5 3t-48.5 1q-9 0 -18 1 q-135 0 -213 -29q-84 -31 -127 -92q-20 -29 -33.5 -61t-22 -85t-12.5 -136t-6 -210q-1 -63 -1 -115.5t1 -93.5zM580 70q23 -2 43 -2h49q10 0 19 -1q134 0 211 28q83 30 126 91q20 27 33.5 60t22 85t12.5 134t6 209q1 63 1 115.5t-1 93.5q-2 82 -9.5 136t-19.5 87t-31 61 q-61 90 -184 111z" />
<glyph unicode="&#xd9;" horiz-adv-x="1329" d="M187 581q1 65 1 107v678h91v-678q0 -100 -1 -175q0 -19 -1 -36q0 -53 3 -95q3 -56 11 -97t26 -72q37 -66 121 -104.5t225.5 -38.5t223.5 38.5t119 104.5q18 33 27 74t13.5 96t4.5 130v175v678h90v-678v-151q0 -76 -4 -144.5t-18.5 -128t-41.5 -102.5q-55 -88 -153.5 -133 t-259.5 -45q-174 0 -287 56t-158 173q-16 41 -22.5 104.5t-8.5 131.5q-1 45 -1 88v44zM463 1761h110l267 -264h-105z" />
<glyph unicode="&#xda;" horiz-adv-x="1329" d="M187 581q1 65 1 107v678h91v-678q0 -100 -1 -175q0 -19 -1 -36q0 -53 3 -95q3 -56 11 -97t26 -72q37 -66 121 -104.5t225.5 -38.5t223.5 38.5t119 104.5q18 33 27 74t13.5 96t4.5 130v175v678h90v-678v-151q0 -76 -4 -144.5t-18.5 -128t-41.5 -102.5q-55 -88 -153.5 -133 t-259.5 -45q-174 0 -287 56t-158 173q-16 41 -22.5 104.5t-8.5 131.5q-1 45 -1 88v44zM481 1497l267 264h110l-272 -264h-105z" />
<glyph unicode="&#xdb;" horiz-adv-x="1329" d="M187 581q1 65 1 107v678h91v-678q0 -100 -1 -175q0 -19 -1 -36q0 -53 3 -95q3 -56 11 -97t26 -72q37 -66 121 -104.5t225.5 -38.5t223.5 38.5t119 104.5q18 33 27 74t13.5 96t4.5 130v175v678h90v-678v-151q0 -76 -4 -144.5t-18.5 -128t-41.5 -102.5q-55 -88 -153.5 -133 t-259.5 -45q-174 0 -287 56t-158 173q-16 41 -22.5 104.5t-8.5 131.5q-1 45 -1 88v44zM352 1497l273 264h84l270 -264h-105l-206 205l-209 -205h-107z" />
<glyph unicode="&#xdc;" horiz-adv-x="1329" d="M187 581q1 65 1 107v678h91v-678q0 -100 -1 -175q0 -19 -1 -36q0 -53 3 -95q3 -56 11 -97t26 -72q37 -66 121 -104.5t225.5 -38.5t223.5 38.5t119 104.5q18 33 27 74t13.5 96t4.5 130v175v678h90v-678v-151q0 -76 -4 -144.5t-18.5 -128t-41.5 -102.5q-55 -88 -153.5 -133 t-259.5 -45q-174 0 -287 56t-158 173q-16 41 -22.5 104.5t-8.5 131.5q-1 45 -1 88v44zM385 1696q0 35 15.5 49t50 14t51 -14t16.5 -49q0 -68 -67 -68q-66 0 -66 68zM823 1696q0 35 15.5 49t50.5 14t51 -14t16 -49q0 -68 -67 -68q-66 0 -66 68z" />
<glyph unicode="&#xdd;" horiz-adv-x="1067" d="M23 1366h100l414 -678l409 678h98l-469 -764v-602h-88v602zM428 1511l266 265h111l-273 -265h-104z" />
<glyph unicode="&#xde;" horiz-adv-x="1232" d="M201 0v1366h90v-313h350q113 0 204 -6.5t156.5 -40t101.5 -108.5t36 -212q0 -135 -36 -210t-101.5 -109.5t-157.5 -41t-203 -6.5h-350v-319h-90zM291 401h342q94 0 171 2.5t131 28t84 84.5t30 172q0 111 -30 169t-85 84t-132 29t-169 3h-342v-572z" />
<glyph unicode="&#xdf;" d="M172 0v1004q0 100 13.5 182t56.5 138t121.5 87t209.5 31q109 0 186 -18.5t126 -59.5t71.5 -107.5t22.5 -164.5q0 -57 -8 -109.5t-28.5 -95.5t-58.5 -75t-96 -50q111 -29 157 -120t46 -245q0 -113 -26.5 -188.5t-78.5 -121.5t-131 -66.5t-186 -20.5h-161v80h165 q86 0 148.5 14.5t102.5 49t59.5 94t19.5 151.5q0 100 -19.5 164.5t-60.5 102.5t-107.5 52.5t-158.5 14.5h-149v80h149q92 0 156.5 14t103.5 47t56.5 87.5t17.5 134t-15.5 132t-52.5 84t-97 45t-153 13.5q-100 0 -161.5 -21.5t-95 -65.5t-45 -109.5t-11.5 -153.5v-1010h-88z " />
<glyph unicode="&#xe0;" horiz-adv-x="1087" d="M119 276q0 96 26.5 156t75.5 92.5t119 44t156 11.5h348q0 80 -2 142t-29 104t-89 63.5t-185 21.5q-55 0 -110.5 -6t-99.5 -26.5t-73 -60.5t-29 -107h-82q0 90 35 146t92.5 87t131 41t151.5 10q152 0 229.5 -34.5t110.5 -93t35 -136.5t2 -162v-569h-82v154 q-41 -86 -135 -127t-230 -41q-190 0 -278 67t-88 223zM207 279q0 -115 60.5 -164t211.5 -49q125 0 199 29.5t111.5 86t47.5 135.5q8 65 7 146v37h-357q-66 0 -117 -7.5t-87.5 -31t-56 -66t-19.5 -116.5zM346 1366h111l266 -264h-105z" />
<glyph unicode="&#xe1;" horiz-adv-x="1087" d="M119 276q0 96 26.5 156t75.5 92.5t119 44t156 11.5h348q0 80 -2 142t-29 104t-89 63.5t-185 21.5q-55 0 -110.5 -6t-99.5 -26.5t-73 -60.5t-29 -107h-82q0 90 35 146t92.5 87t131 41t151.5 10q152 0 229.5 -34.5t110.5 -93t35 -136.5t2 -162v-569h-82v154 q-41 -86 -135 -127t-230 -41q-190 0 -278 67t-88 223zM207 279q0 -115 60.5 -164t211.5 -49q125 0 199 29.5t111.5 86t47.5 135.5q8 65 7 146v37h-357q-66 0 -117 -7.5t-87.5 -31t-56 -66t-19.5 -116.5zM367 1102l266 264h110l-272 -264h-104z" />
<glyph unicode="&#xe2;" horiz-adv-x="1087" d="M119 276q0 96 26.5 156t75.5 92.5t119 44t156 11.5h348q0 80 -2 142t-29 104t-89 63.5t-185 21.5q-55 0 -110.5 -6t-99.5 -26.5t-73 -60.5t-29 -107h-82q0 90 35 146t92.5 87t131 41t151.5 10q152 0 229.5 -34.5t110.5 -93t35 -136.5t2 -162v-569h-82v154 q-41 -86 -135 -127t-230 -41q-190 0 -278 67t-88 223zM207 279q0 -115 60.5 -164t211.5 -49q125 0 199 29.5t111.5 86t47.5 135.5q8 65 7 146v37h-357q-66 0 -117 -7.5t-87.5 -31t-56 -66t-19.5 -116.5zM229 1102l273 264h84l270 -264h-104l-207 205l-209 -205h-107z" />
<glyph unicode="&#xe3;" horiz-adv-x="1087" d="M119 276q0 96 26.5 156t75.5 92.5t119 44t156 11.5h348q0 80 -2 142t-29 104t-89 63.5t-185 21.5q-55 0 -110.5 -6t-99.5 -26.5t-73 -60.5t-29 -107h-82q0 90 35 146t92.5 87t131 41t151.5 10q152 0 229.5 -34.5t110.5 -93t35 -136.5t2 -162v-569h-82v154 q-41 -86 -135 -127t-230 -41q-190 0 -278 67t-88 223zM160 1264l85 50q42 26 88 42q43 15 88 15h6q48 -1 103 -30q27 -14 52.5 -29.5t53.5 -23.5t57.5 -7t64.5 19l125 66l37 -66l-109 -59q-61 -35 -127 -37h-8q-61 0 -115 29q-29 14 -54.5 29.5t-52 24.5t-56 7t-64.5 -20 l-133 -74zM207 279q0 -115 60.5 -164t211.5 -49q125 0 199 29.5t111.5 86t47.5 135.5q8 65 7 146v37h-357q-66 0 -117 -7.5t-87.5 -31t-56 -66t-19.5 -116.5z" />
<glyph unicode="&#xe4;" horiz-adv-x="1087" d="M119 276q0 96 26.5 156t75.5 92.5t119 44t156 11.5h348q0 80 -2 142t-29 104t-89 63.5t-185 21.5q-55 0 -110.5 -6t-99.5 -26.5t-73 -60.5t-29 -107h-82q0 90 35 146t92.5 87t131 41t151.5 10q152 0 229.5 -34.5t110.5 -93t35 -136.5t2 -162v-569h-82v154 q-41 -86 -135 -127t-230 -41q-190 0 -278 67t-88 223zM207 279q0 -115 60.5 -164t211.5 -49q125 0 199 29.5t111.5 86t47.5 135.5q8 65 7 146v37h-357q-66 0 -117 -7.5t-87.5 -31t-56 -66t-19.5 -116.5zM258 1303q0 35 15.5 49t50 14t51 -14.5t16.5 -48.5q0 -68 -67 -68 q-66 0 -66 68zM696 1303q0 35 15.5 49t50.5 14t51 -14.5t16 -48.5q0 -68 -67 -68q-66 0 -66 68z" />
<glyph unicode="&#xe5;" horiz-adv-x="1087" d="M119 276q0 96 26.5 156t75.5 92.5t119 44t156 11.5h348q0 80 -2 142t-29 104t-89 63.5t-185 21.5q-55 0 -110.5 -6t-99.5 -26.5t-73 -60.5t-29 -107h-82q0 129 68 189.5t168 80.5q-39 20 -49 63t-10 99q0 125 52 172t175 47t177 -46t54 -173q0 -55 -13 -99.5t-48 -62.5 q88 -18 132 -59t62.5 -95.5t18.5 -120.5v-137v-569h-82v154q-41 -86 -135 -127t-230 -41q-190 0 -278 67t-88 223zM207 279q0 -115 60.5 -164t211.5 -49q125 0 199 29.5t111.5 86t47.5 135.5q8 65 7 146v37h-357q-66 0 -117 -7.5t-87.5 -31t-56 -66t-19.5 -116.5zM397 1139 q0 -47 7.5 -76t23.5 -45.5t46 -22.5t77 -6q45 0 74.5 6t47 23.5t23.5 46.5t6 74t-6 75.5t-23.5 49t-47 26.5t-76.5 8t-77 -8t-46 -26.5t-22.5 -49t-6.5 -75.5z" />
<glyph unicode="&#xe6;" horiz-adv-x="1796" d="M119 270q0 94 26.5 154.5t76.5 93.5t120 45t156 12h350q0 86 -4 148.5t-33 104.5t-91.5 62.5t-180.5 20.5q-55 0 -110.5 -6t-99.5 -26.5t-73 -60.5t-29 -107h-82q0 90 35 146t92.5 87t131 41t151.5 10q47 0 101.5 -6t103.5 -24.5t88 -51t57 -84.5q23 49 62 82t87 51.5 t100 25.5t101 7q123 0 202 -26.5t124 -83t62.5 -141.5t17.5 -201v-49h-727q0 -102 8 -182.5t40 -133.5t98.5 -80.5t183.5 -27.5q53 0 106 7t96 27.5t71 59.5t28 104h82q0 -86 -33 -141t-86 -86t-123 -43t-143 -12q-59 0 -120 9t-112 31.5t-90 63.5t-53 107 q-20 -61 -63.5 -102.5t-98.5 -66t-117.5 -33.5t-120.5 -9q-190 0 -279 64t-89 220zM207 272q0 -115 61.5 -160.5t212.5 -45.5q129 0 202 29.5t109.5 86t46 136t9.5 178.5h-359q-63 0 -115 -8.5t-89 -32t-57.5 -67.5t-20.5 -116zM936 575h639q0 92 -14.5 157t-50 105t-98 58 t-157 18t-156 -19.5t-98 -60t-51 -104.5t-14.5 -154z" />
<glyph unicode="&#xe7;" horiz-adv-x="1054" d="M135 489q0 123 13.5 218.5t57.5 159t126 96t219 32.5q74 0 143.5 -12t123.5 -44t86 -87t32 -141h-82q0 63 -27.5 103t-70.5 61.5t-96.5 28.5t-106.5 7q-117 0 -183.5 -26.5t-99 -79.5t-40 -132t-7.5 -181.5t7.5 -181.5t40 -133t99 -81.5t183.5 -27.5q53 0 107.5 7 t97.5 28.5t69.5 60.5t26.5 104h82q0 -82 -28.5 -135t-78 -86t-114 -46t-133.5 -15v-82q70 0 101.5 -36t31.5 -101q0 -76 -35 -113t-121 -37t-121 28.5t-35 96.5h68q0 -41 20.5 -53.5t67.5 -12.5q57 0 70.5 22.5t13.5 65.5q0 35 -11 52.5t-30.5 23.5t-43 7t-48.5 1v138 q-125 4 -198.5 38.5t-112.5 98t-51.5 154.5t-12.5 212z" />
<glyph unicode="&#xe8;" horiz-adv-x="1085" d="M135 487q0 121 12.5 215.5t55.5 160t124 99t216 33.5q137 0 219 -34.5t123 -100t53 -161t12 -218.5h-727q0 -102 8.5 -179t41 -128t98 -77.5t180.5 -26.5q53 0 106.5 7t96.5 27.5t70.5 59.5t27.5 104h82q0 -86 -33 -141t-86 -86t-122.5 -43t-143.5 -12q-137 0 -219 31.5 t-125 95t-56.5 157.5t-13.5 217zM223 561h641q0 92 -14 158.5t-50 109.5t-98.5 63.5t-158.5 20.5q-94 0 -155.5 -21.5t-98.5 -64.5t-51.5 -109.5t-14.5 -156.5zM344 1366h111l266 -264h-105z" />
<glyph unicode="&#xe9;" horiz-adv-x="1085" d="M135 487q0 121 12.5 215.5t55.5 160t124 99t216 33.5q137 0 219 -34.5t123 -100t53 -161t12 -218.5h-727q0 -102 8.5 -179t41 -128t98 -77.5t180.5 -26.5q53 0 106.5 7t96.5 27.5t70.5 59.5t27.5 104h82q0 -86 -33 -141t-86 -86t-122.5 -43t-143.5 -12q-137 0 -219 31.5 t-125 95t-56.5 157.5t-13.5 217zM223 561h641q0 92 -14 158.5t-50 109.5t-98.5 63.5t-158.5 20.5q-94 0 -155.5 -21.5t-98.5 -64.5t-51.5 -109.5t-14.5 -156.5zM365 1102l266 264h110l-272 -264h-104z" />
<glyph unicode="&#xea;" horiz-adv-x="1085" d="M135 487q0 121 12.5 215.5t55.5 160t124 99t216 33.5q137 0 219 -34.5t123 -100t53 -161t12 -218.5h-727q0 -102 8.5 -179t41 -128t98 -77.5t180.5 -26.5q53 0 106.5 7t96.5 27.5t70.5 59.5t27.5 104h82q0 -86 -33 -141t-86 -86t-122.5 -43t-143.5 -12q-137 0 -219 31.5 t-125 95t-56.5 157.5t-13.5 217zM223 561h641q0 92 -14 158.5t-50 109.5t-98.5 63.5t-158.5 20.5q-94 0 -155.5 -21.5t-98.5 -64.5t-51.5 -109.5t-14.5 -156.5zM225 1102l273 264h84l270 -264h-104l-207 205l-209 -205h-107z" />
<glyph unicode="&#xeb;" horiz-adv-x="1085" d="M135 487q0 121 12.5 215.5t55.5 160t124 99t216 33.5q137 0 219 -34.5t123 -100t53 -161t12 -218.5h-727q0 -102 8.5 -179t41 -128t98 -77.5t180.5 -26.5q53 0 106.5 7t96.5 27.5t70.5 59.5t27.5 104h82q0 -86 -33 -141t-86 -86t-122.5 -43t-143.5 -12q-137 0 -219 31.5 t-125 95t-56.5 157.5t-13.5 217zM223 561h641q0 92 -14 158.5t-50 109.5t-98.5 63.5t-158.5 20.5q-94 0 -155.5 -21.5t-98.5 -64.5t-51.5 -109.5t-14.5 -156.5zM258 1303q0 35 15.5 49t50 14t51 -14.5t16.5 -48.5q0 -68 -67 -68q-66 0 -66 68zM696 1303q0 35 15.5 49 t50.5 14t51 -14.5t16 -48.5q0 -68 -67 -68q-66 0 -66 68z" />
<glyph unicode="&#xec;" horiz-adv-x="432" d="M31 1366h110l267 -264h-105zM172 0v979h88v-979h-88z" />
<glyph unicode="&#xed;" horiz-adv-x="432" d="M27 1102l266 264h110l-272 -264h-104zM172 0v979h88v-979h-88z" />
<glyph unicode="&#xee;" horiz-adv-x="432" d="M-96 1102l272 264h84l270 -264h-104l-207 205l-209 -205h-106zM172 0v979h88v-979h-88z" />
<glyph unicode="&#xef;" horiz-adv-x="432" d="M-68 1303q0 35 15.5 49t50.5 14t51.5 -14.5t16.5 -48.5q0 -68 -68 -68q-66 0 -66 68zM172 0v979h88v-979h-88zM371 1303q0 35 15 49t50 14t51.5 -14.5t16.5 -48.5q0 -68 -68 -68q-65 0 -65 68z" />
<glyph unicode="&#xf0;" horiz-adv-x="1105" d="M135 489q0 109 11.5 202t51.5 161t116.5 105.5t207.5 37.5q88 0 150 -16l-248 246l-125 -109l-49 58l123 104l-115 115l59 53l117 -117l125 109l49 -58l-121 -104l304 -309q55 -57 89.5 -104.5t55 -99.5t28 -116.5t7.5 -157.5q0 -123 -13.5 -217t-58.5 -157.5t-127 -96 t-219 -32.5q-139 0 -221 32.5t-126 96t-57.5 157.5t-13.5 217zM221 489q0 -104 7.5 -183t40 -132t99 -79.5t185.5 -26.5q117 0 183.5 27.5t98 80.5t40 132t8.5 181q0 117 -19.5 198t-62.5 130t-110.5 71.5t-166.5 22.5q-109 0 -169 -31.5t-89.5 -89t-37 -134.5t-7.5 -167z " />
<glyph unicode="&#xf1;" horiz-adv-x="1097" d="M172 1264l85 50q42 26 88 42q43 15 89 15h5q48 -1 104 -30q27 -14 52.5 -29.5t53 -23.5t57 -7t64.5 19l125 66l37 -66l-109 -59q-61 -35 -127 -37h-8q-61 0 -115 29q-29 14 -54 29.5t-52 24.5t-56.5 7t-64.5 -20l-133 -74zM174 0v979h84v-148q51 94 141 129t188.5 35 t166 -21.5t108.5 -62.5q33 -33 50.5 -71.5t24.5 -85.5t7 -105v-127v-522h-88v506q0 72 -1 126t-6 96t-18.5 71.5t-37.5 52.5q-35 33 -86.5 46t-120.5 13q-127 0 -193.5 -43t-95.5 -111.5t-32 -153.5t-3 -169v-434h-88z" />
<glyph unicode="&#xf2;" horiz-adv-x="1110" d="M135 489.5q0 110.5 10.5 202.5t52.5 160t126 105.5t231 37.5t231 -37.5t126 -105.5t52.5 -160t10.5 -202.5t-10.5 -202.5t-52.5 -159t-126 -104.5t-231 -37.5t-231 37.5t-126 104.5t-52.5 159t-10.5 202.5zM223 489.5q0 -102.5 8.5 -181.5t41 -132t99 -79.5t183.5 -26.5 t183.5 26.5t99 79.5t41 132t8.5 181.5t-8.5 181.5t-41 132t-99 80.5t-183.5 27.5t-183.5 -27.5t-99 -80.5t-41 -132t-8.5 -181.5zM373 1366h110l267 -264h-105z" />
<glyph unicode="&#xf3;" horiz-adv-x="1110" d="M135 489.5q0 110.5 10.5 202.5t52.5 160t126 105.5t231 37.5t231 -37.5t126 -105.5t52.5 -160t10.5 -202.5t-10.5 -202.5t-52.5 -159t-126 -104.5t-231 -37.5t-231 37.5t-126 104.5t-52.5 159t-10.5 202.5zM223 489.5q0 -102.5 8.5 -181.5t41 -132t99 -79.5t183.5 -26.5 t183.5 26.5t99 79.5t41 132t8.5 181.5t-8.5 181.5t-41 132t-99 80.5t-183.5 27.5t-183.5 -27.5t-99 -80.5t-41 -132t-8.5 -181.5zM356 1102l267 264h110l-272 -264h-105z" />
<glyph unicode="&#xf4;" horiz-adv-x="1110" d="M135 489.5q0 110.5 10.5 202.5t52.5 160t126 105.5t231 37.5t231 -37.5t126 -105.5t52.5 -160t10.5 -202.5t-10.5 -202.5t-52.5 -159t-126 -104.5t-231 -37.5t-231 37.5t-126 104.5t-52.5 159t-10.5 202.5zM223 489.5q0 -102.5 8.5 -181.5t41 -132t99 -79.5t183.5 -26.5 t183.5 26.5t99 79.5t41 132t8.5 181.5t-8.5 181.5t-41 132t-99 80.5t-183.5 27.5t-183.5 -27.5t-99 -80.5t-41 -132t-8.5 -181.5zM240 1102l272 264h84l270 -264h-104l-207 205l-209 -205h-106z" />
<glyph unicode="&#xf5;" horiz-adv-x="1110" d="M135 489.5q0 110.5 10.5 202.5t52.5 160t126 105.5t231 37.5t231 -37.5t126 -105.5t52.5 -160t10.5 -202.5t-10.5 -202.5t-52.5 -159t-126 -104.5t-231 -37.5t-231 37.5t-126 104.5t-52.5 159t-10.5 202.5zM174 1264l85 50q42 26 88 42q43 15 89 15h5q48 -1 104 -30 q27 -14 52.5 -29.5t53 -23.5t57 -7t64.5 19l125 66l37 -66l-109 -59q-61 -35 -127 -37h-8q-61 0 -115 29q-29 14 -54 29.5t-52 24.5t-56.5 7t-64.5 -20l-133 -74zM223 489.5q0 -102.5 8.5 -181.5t41 -132t99 -79.5t183.5 -26.5t183.5 26.5t99 79.5t41 132t8.5 181.5 t-8.5 181.5t-41 132t-99 80.5t-183.5 27.5t-183.5 -27.5t-99 -80.5t-41 -132t-8.5 -181.5z" />
<glyph unicode="&#xf6;" horiz-adv-x="1110" d="M135 489.5q0 110.5 10.5 202.5t52.5 160t126 105.5t231 37.5t231 -37.5t126 -105.5t52.5 -160t10.5 -202.5t-10.5 -202.5t-52.5 -159t-126 -104.5t-231 -37.5t-231 37.5t-126 104.5t-52.5 159t-10.5 202.5zM223 489.5q0 -102.5 8.5 -181.5t41 -132t99 -79.5t183.5 -26.5 t183.5 26.5t99 79.5t41 132t8.5 181.5t-8.5 181.5t-41 132t-99 80.5t-183.5 27.5t-183.5 -27.5t-99 -80.5t-41 -132t-8.5 -181.5zM268 1303q0 35 15.5 49t50.5 14t51 -14.5t16 -48.5q0 -68 -67 -68q-66 0 -66 68zM707 1303q0 35 15 49t50 14t51.5 -14.5t16.5 -48.5 q0 -68 -68 -68q-65 0 -65 68z" />
<glyph unicode="&#xf7;" d="M76 451v81h999v-81h-999zM506 55.5q0 69.5 69 69.5q72 0 72 -69.5t-72 -69.5q-69 0 -69 69.5zM506 925.5q0 69.5 69 69.5q72 0 72 -69.5t-72 -69.5q-69 0 -69 69.5z" />
<glyph unicode="&#xf8;" horiz-adv-x="1110" d="M135 494q0 109 11.5 201.5t54.5 159.5t127 104q80 36 216 36h15q39 0 66.5 -3t56.5 -7l66 186l77 -26l-63 -180q80 -29 123 -80t63.5 -115.5t23.5 -137.5t3 -147q-2 -125 -17.5 -219t-60.5 -156.5t-129 -94.5q-79 -30 -205 -29h-16q-39 0 -66.5 3t-56.5 7l-68 -191 l-77 27l65 184q-80 29 -123 79t-62.5 114.5t-21.5 137.5t-2 147zM222 367q0 -55 11 -107q12 -55 44 -99t96 -65l280 809q-23 4 -43 5t-51 1q-117 0 -184.5 -26.5t-100 -79.5t-42 -132t-9.5 -181q0 -19 -0.5 -61t-0.5 -64zM451 76q23 -4 44 -6t52 -2q8 0 16 -1q105 0 168 25 q68 27 101.5 80t43 132t11.5 183v113q0 61 -14.5 117.5t-46 101.5t-93.5 66z" />
<glyph unicode="&#xf9;" horiz-adv-x="1097" d="M156 330v127v522h88v-506q0 -72 1 -126t6 -96t18.5 -71.5t37.5 -52.5q35 -33 86 -46t121 -13q127 0 193.5 43t95 111.5t32 153.5t3.5 169v434h88v-979h-84v147q-27 -47 -64 -78.5t-80 -50t-90 -26.5t-96 -8q-98 0 -165.5 21.5t-108.5 62.5q-33 33 -50.5 71.5t-24.5 86 t-7 104.5zM358 1366h111l266 -264h-104z" />
<glyph unicode="&#xfa;" horiz-adv-x="1097" d="M156 330v127v522h88v-506q0 -72 1 -126t6 -96t18.5 -71.5t37.5 -52.5q35 -33 86 -46t121 -13q127 0 193.5 43t95 111.5t32 153.5t3.5 169v434h88v-979h-84v147q-27 -47 -64 -78.5t-80 -50t-90 -26.5t-96 -8q-98 0 -165.5 21.5t-108.5 62.5q-33 33 -50.5 71.5t-24.5 86 t-7 104.5zM371 1102l266 264h111l-273 -264h-104z" />
<glyph unicode="&#xfb;" horiz-adv-x="1097" d="M156 330v127v522h88v-506q0 -72 1 -126t6 -96t18.5 -71.5t37.5 -52.5q35 -33 86 -46t121 -13q127 0 193.5 43t95 111.5t32 153.5t3.5 169v434h88v-979h-84v147q-27 -47 -64 -78.5t-80 -50t-90 -26.5t-96 -8q-98 0 -165.5 21.5t-108.5 62.5q-33 33 -50.5 71.5t-24.5 86 t-7 104.5zM236 1102l272 264h84l270 -264h-104l-207 205l-209 -205h-106z" />
<glyph unicode="&#xfc;" horiz-adv-x="1097" d="M156 330v127v522h88v-506q0 -72 1 -126t6 -96t18.5 -71.5t37.5 -52.5q35 -33 86 -46t121 -13q127 0 193.5 43t95 111.5t32 153.5t3.5 169v434h88v-979h-84v147q-27 -47 -64 -78.5t-80 -50t-90 -26.5t-96 -8q-98 0 -165.5 21.5t-108.5 62.5q-33 33 -50.5 71.5t-24.5 86 t-7 104.5zM262 1303q0 35 15.5 49t50 14t51 -14.5t16.5 -48.5q0 -68 -67 -68q-66 0 -66 68zM700 1303q0 35 15.5 49t50.5 14t51.5 -14.5t16.5 -48.5q0 -68 -68 -68q-66 0 -66 68z" />
<glyph unicode="&#xfd;" horiz-adv-x="931" d="M68 979h92l317 -866l307 866h93l-504 -1370h-90l147 393zM354 1102l267 264h110l-272 -264h-105z" />
<glyph unicode="&#xfe;" horiz-adv-x="1130" d="M172 -391v1818h88v-589q47 80 130 118.5t212 38.5q135 0 213 -36.5t118 -102t51 -160t11 -207.5q0 -115 -11 -207t-51 -158.5t-118 -102t-213 -35.5q-129 0 -212 38.5t-130 118.5v-534h-88zM258 491.5q0 -120.5 18.5 -201.5t59.5 -130t109.5 -69.5t166.5 -20.5 q106 0 167 32.5t88.5 90t33.5 134t6 165t-6 165t-34.5 133t-88 88t-166.5 31.5q-98 0 -166.5 -20.5t-109.5 -68.5t-59.5 -128t-18.5 -200.5z" />
<glyph unicode="&#xff;" horiz-adv-x="931" d="M68 979h92l317 -866l307 866h93l-504 -1370h-90l147 393zM190 1303q0 35 15.5 49t50.5 14t51.5 -14.5t16.5 -48.5q0 -68 -68 -68q-66 0 -66 68zM629 1303q0 35 15 49t50 14t51.5 -14.5t16.5 -48.5q0 -68 -68 -68q-65 0 -65 68z" />
<glyph unicode="&#x152;" horiz-adv-x="1875" d="M168 684q0 113 4 195t13.5 140t23.5 100t37 79q29 47 66.5 79t90 52.5t123 28.5t162.5 8h1016v-82h-668v-541h647v-81h-647v-580h668v-82h-1016q-92 0 -162.5 8t-123 28.5t-90.5 52.5t-66 79q-23 37 -37 79t-23.5 101.5t-13.5 140t-4 195.5zM258 684q0 -113 4 -191.5 t12.5 -134t22.5 -92.5t33 -65q20 -33 49 -55.5t72 -37t103 -20.5t146 -6h248v1202h-250q-84 0 -144 -6t-103 -20.5t-73 -37t-50 -55.5q-18 -29 -31.5 -65.5t-22 -92t-12.5 -134t-4 -189.5z" />
<glyph unicode="&#x153;" horiz-adv-x="1832" d="M135 489q0 111 10.5 203t52.5 160t126 105.5t231 37.5q55 0 113.5 -8t109.5 -30.5t91 -61.5t59 -98q18 61 56 99t87 60.5t105.5 30.5t113.5 8q139 0 220 -34.5t123 -101t53.5 -162t11.5 -216.5h-727q0 -102 8 -179t41 -129t98.5 -78.5t179.5 -26.5q53 0 106.5 7 t96.5 28.5t70.5 60.5t27.5 104h82q0 -86 -32.5 -141t-86 -86t-123 -43t-143.5 -12q-57 0 -115.5 8t-108.5 29.5t-88 60.5t-56 100q-16 -59 -57.5 -97t-93.5 -60.5t-110.5 -31.5t-111.5 -9q-137 0 -220 32.5t-127 96t-58.5 157.5t-14.5 217zM223 489.5q0 -102.5 8.5 -181.5 t41 -132t99 -80.5t183.5 -27.5t182.5 27.5t99 80.5t42 132t8.5 181q0 104 -8.5 183.5t-41 132.5t-99 79.5t-183.5 26.5t-183.5 -27.5t-99 -80.5t-41 -132t-8.5 -181.5zM971 561h641q0 92 -14.5 158.5t-50.5 109.5t-98.5 63.5t-158.5 20.5q-94 0 -155.5 -21.5t-98.5 -64.5 t-51 -109.5t-14 -156.5z" />
<glyph unicode="&#x178;" horiz-adv-x="1067" d="M23 1366h100l414 -678l409 678h98l-469 -764v-602h-88v602zM248 1690q0 35 15.5 49t50 14t51 -14.5t16.5 -48.5q0 -68 -68 -68q-65 0 -65 68zM686 1690q0 35 15.5 49t50 14t51 -14.5t16.5 -48.5q0 -68 -67 -68q-66 0 -66 68z" />
<glyph unicode="&#x2c6;" horiz-adv-x="849" d="M113 1102l272 264h84l270 -264h-104l-207 205l-209 -205h-106z" />
<glyph unicode="&#x2dc;" horiz-adv-x="849" d="M43 1264l85 50q42 26 88 42q43 15 89 15h5q48 -1 104 -30q27 -14 52.5 -29.5t53 -23.5t57 -7t64.5 19l125 66l37 -66l-109 -59q-61 -35 -127 -37h-8q-61 0 -115 29q-29 14 -54 29.5t-52 24.5t-56.5 7t-64.5 -20l-133 -74z" />
<glyph unicode="&#x2013;" d="M63 451v81h1024v-81h-1024z" />
<glyph unicode="&#x2014;" horiz-adv-x="2048" d="M205 451v81h1638v-81h-1638z" />
<glyph unicode="&#x2018;" horiz-adv-x="425" d="M168 948v154q0 43 3 76.5t12.5 61.5t25.5 51.5t45 47.5l51 45l55 -55l-38 -37q-25 -23 -38.5 -43t-20.5 -42.5t-8 -47t-1 -57.5v-154h-86z" />
<glyph unicode="&#x2019;" horiz-adv-x="425" d="M66 985l38 37q25 23 38.5 43t20.5 42.5t8 47.5t1 57v154h86v-154q0 -43 -3 -76.5t-12.5 -61t-26.5 -51.5t-44 -48l-51 -45z" />
<glyph unicode="&#x201a;" horiz-adv-x="425" d="M66 -258q6 4 20 18l18 19q25 25 38.5 45t20.5 41.5t8 46.5t1 57v154h86v-154q0 -43 -3 -76.5t-12.5 -61.5t-26.5 -51.5t-44 -47.5l-51 -45z" />
<glyph unicode="&#x201c;" horiz-adv-x="757" d="M168 948v154q0 43 3 76.5t12.5 61.5t25.5 51.5t45 47.5l51 45l55 -55l-38 -37q-25 -23 -38.5 -43t-20.5 -42.5t-8 -47t-1 -57.5v-154h-86zM500 948v154q0 43 3 76.5t12 61.5t25.5 51.5t45.5 47.5l51 45l55 -55l-39 -37q-25 -23 -38 -43t-20 -42.5t-8 -47t-1 -57.5v-154 h-86z" />
<glyph unicode="&#x201d;" horiz-adv-x="757" d="M66 985l38 37q25 23 38.5 43t20.5 42.5t8 47.5t1 57v154h86v-154q0 -43 -3 -76.5t-12.5 -61t-26.5 -51.5t-44 -48l-51 -45zM397 985l39 37q25 23 38 43t20.5 42.5t8.5 47.5t1 57v154h86v-154q0 -43 -3 -76.5t-12.5 -61t-27 -51.5t-43.5 -48l-51 -45z" />
<glyph unicode="&#x201e;" horiz-adv-x="757" d="M66 -258l38 37q25 23 38.5 43t20.5 42.5t8 47.5t1 57v154h86v-154q0 -43 -3 -76.5t-12.5 -61.5t-26.5 -51.5t-44 -47.5l-51 -45zM397 -258l39 37q25 23 38 43t20.5 42.5t8.5 47.5t1 57v154h86v-154q0 -43 -3 -76.5t-12.5 -61.5t-27 -51.5t-43.5 -47.5l-51 -45z" />
<glyph unicode="&#x2022;" horiz-adv-x="1024" d="M338 684q0 92 41 132t133 40t133 -40t41 -132t-41 -131t-133 -39t-133 39t-41 131z" />
<glyph unicode="&#x2026;" horiz-adv-x="2052" d="M270 55.5q0 69.5 70 69.5q72 0 72 -70h2q0 -70 -72 -69.5t-72 70zM954 55.5q0 69.5 70 69.5q72 0 72 -70h2q0 -70 -72 -69.5t-72 70zM1638 55.5q0 69.5 70 69.5q74 0 74 -69.5t-72 -69.5t-72 69.5z" />
<glyph unicode="&#x2039;" horiz-adv-x="528" d="M109 485q0 55 26.5 111.5t66.5 108t84 98.5l81 84l57 -60l-71 -71q-40 -41 -75.5 -85t-60 -91.5t-24.5 -92.5q0 -47 23.5 -93t58 -89t74.5 -82l71 -69l-58 -58l-80 81q-44 44 -83 93t-64.5 103.5t-25.5 111.5z" />
<glyph unicode="&#x203a;" horiz-adv-x="528" d="M104 827l58 60l81 -84q44 -47 84 -98.5t66.5 -107.5t26.5 -112q0 -57 -25.5 -111.5t-64.5 -103.5t-83 -93l-81 -81l-57 58l70 69q40 39 75 82t58.5 89t23.5 93q0 45 -24.5 92.5t-60.5 91.5t-76 85z" />
<glyph unicode="&#x2122;" horiz-adv-x="1736" d="M33 1296v70h631v-70h-275v-819h-80v819h-276zM748 477v889h110l291 -805l295 805h108v-889h-73v776l-283 -776h-94l-279 776v-776h-75z" />
<glyph unicode="&#xe000;" horiz-adv-x="980" d="M0 980h980v-980h-980v980z" />
<glyph unicode="&#xfb01;" horiz-adv-x="1128" d="M49 899v80h164v182q0 68 15.5 117t54.5 86q45 43 109.5 60.5t148.5 17.5q63 0 122.5 -11.5t104.5 -38t71.5 -70.5t26.5 -108h-84q0 47 -22.5 75t-57 43.5t-76.5 20.5t-81 5q-55 0 -100.5 -8.5t-77 -30t-49 -59t-17.5 -99.5v-182h440v-80h-440v-899h-88v899h-164zM868 0 v979h88v-979h-88z" />
<glyph unicode="&#xfb02;" horiz-adv-x="1267" d="M49 899v80h164v182q0 68 15.5 117t54.5 86q45 43 109.5 60.5t148.5 17.5q63 0 122.5 -11.5t104.5 -38t71.5 -70.5t26.5 -108h-84q0 47 -22.5 75t-57 43.5t-76.5 20.5t-81 5q-55 0 -100.5 -8.5t-77 -30t-49 -59t-17.5 -99.5v-182h440v-80h-440v-899h-88v899h-164zM1008 0 v1427h88v-1427h-88z" />
<glyph unicode="&#xfb03;" horiz-adv-x="2205" d="M49 899v80h164v182q0 68 15.5 117t54.5 86q45 43 109.5 60.5t148.5 17.5q63 0 122.5 -11.5t104.5 -38t71.5 -70.5t26.5 -108h-84q0 47 -22.5 75t-57 43.5t-76.5 20.5t-81 5q-55 0 -100.5 -8.5t-77 -30t-49 -59t-17.5 -99.5v-182h440v-80h-440v-899h-88v899h-164zM936 899 v80h164v182q0 68 15 117t54 86q45 43 109.5 60.5t148.5 17.5q63 0 123 -11.5t105 -38t71.5 -70.5t26.5 -108h-84q0 47 -22.5 75t-57.5 43.5t-77 20.5t-80 5q-55 0 -100.5 -8.5t-77 -30t-49 -59t-17.5 -99.5v-182h440v-80h-440v-899h-88v899h-164zM1925 1317q0 63 65.5 63 t65.5 -63q0 -68 -65.5 -68t-65.5 68zM1946 0v979h88v-979h-88z" />
<glyph unicode="&#xfb04;" horiz-adv-x="2205" d="M49 899v80h164v182q0 68 15.5 117t54.5 86q45 43 109.5 60.5t148.5 17.5q63 0 122.5 -11.5t104.5 -38t71.5 -70.5t26.5 -108h-84q0 47 -22.5 75t-57 43.5t-76.5 20.5t-81 5q-55 0 -100.5 -8.5t-77 -30t-49 -59t-17.5 -99.5v-182h440v-80h-440v-899h-88v899h-164zM936 899 v80h164v182q0 68 15 117t54 86q45 43 109.5 60.5t148.5 17.5q63 0 123 -11.5t105 -38t71.5 -70.5t26.5 -108h-84q0 47 -22.5 75t-57.5 43.5t-77 20.5t-80 5q-55 0 -100.5 -8.5t-77 -30t-49 -59t-17.5 -99.5v-182h440v-80h-440v-899h-88v899h-164zM1946 0v1427h88v-1427h-88z " />
</font>
</defs>
</svg>
