<?xml version="1.0" standalone="no"?>
<!DOCTYPE svg PUBLIC "-//W3C//DTD SVG 1.1//EN" "http://www.w3.org/Graphics/SVG/1.1/DTD/svg11.dtd" >
<svg xmlns="http://www.w3.org/2000/svg">
<metadata>
This is a custom SVG webfont generated by Font Squirrel.
Copyright   : 251The digitally encoded machine readable outline data for producing the typefaces licensed to you is copyrighted C 2000 by The Foundry London All Rights Reserved
Foundry     :  The digitally encoded machine readable outline data for producing the typefaces licensed to you is copyrighted C by The Foundry London
</metadata>
<defs>
<font id="FoundryMonolineMediumRegular" horiz-adv-x="1191" >
<font-face units-per-em="2048" ascent="1638" descent="-410" />
<missing-glyph horiz-adv-x="485" />
<glyph unicode=" "  horiz-adv-x="485" />
<glyph unicode="&#x09;" horiz-adv-x="485" />
<glyph unicode="&#xa0;" horiz-adv-x="485" />
<glyph unicode="!" horiz-adv-x="591" d="M184 94q0 53 28 84t83 31t84 -31t29 -84q0 -111 -113 -110q-111 -1 -111 110zM211 389v977h170v-977h-170z" />
<glyph unicode="&#x22;" horiz-adv-x="931" d="M217 922v444h162v-444h-162zM555 922v444h162v-444h-162z" />
<glyph unicode="#" d="M37 449v149h250l59 225h-207v150h250l121 448h164l-123 -448h233l121 448h154l-113 -448h211v-150h-252l-59 -225h209v-149h-250l-121 -449h-162l121 449h-233l-121 -449h-162l121 449h-211zM453 598h229l59 225h-231z" />
<glyph unicode="$" horiz-adv-x="1159" d="M131 311h174q0 -78 41 -113.5t150 -37.5v473q-84 8 -150.5 28.5t-112 61.5t-69 106.5t-23.5 167.5q0 193 93.5 276t261.5 93v195h157v-195q84 -4 150.5 -20.5t113 -52.5t71 -94t24.5 -144h-174q0 82 -38 117.5t-147 37.5v-424q100 -10 172 -29.5t116 -61.5t64.5 -112.5 t20.5 -183.5q0 -203 -91 -295t-282 -104v-203h-157v203q-84 4 -152 21.5t-115 53.5t-72.5 93t-25.5 143zM311 987q0 -57 10.5 -92t32 -55.5t57 -29.5t85.5 -13v413q-102 -2 -143.5 -51t-41.5 -172zM653 160q111 4 157 59t46 189q0 68 -9 107.5t-31.5 61t-61.5 30.5t-101 16 v-463z" />
<glyph unicode="%" horiz-adv-x="1767" d="M147 968.5q0 75.5 2.5 150.5t28 132.5t83.5 93t169 35.5t169 -35.5t84 -93t28 -132.5t2 -150.5t-2 -150.5t-28 -133t-84 -94t-169 -36t-169 36t-83.5 94t-28 133t-2.5 150.5zM281 969q0 -61 1 -102.5t4 -68t6 -42t9 -25.5q12 -25 38 -41t91.5 -16t91 16.5t37.5 40.5 q6 10 9 25.5t6.5 42t4.5 67.5t1 103q0 106 -5.5 152t-11.5 69q-10 33 -35.5 51.5t-97.5 18.5t-97.5 -18.5t-35.5 -51.5q-6 -23 -11 -69t-5 -152zM453 0l729 1366h143l-733 -1366h-139zM1055 397.5q0 75.5 2 150.5t27.5 132t84 93t169 36t169 -36t84 -93t27.5 -132t2 -150.5 t-2 -150.5t-27.5 -133.5t-84 -94t-169 -35.5t-169 35.5t-84 94t-27.5 133.5t-2 150.5zM1188 397q0 -61 1 -102t4 -67.5t6 -42t9 -25.5q12 -25 38 -41.5t91.5 -16.5t91 16.5t37.5 41.5q6 10 9.5 25.5t6.5 42t4 67.5t1 102q0 106 -5 152.5t-12 68.5q-10 33 -35.5 51.5 t-97 18.5t-97.5 -18.5t-36 -51.5q-6 -23 -11 -69t-5 -152z" />
<glyph unicode="&#x26;" horiz-adv-x="1249" d="M125 387q0 123 31.5 208t126.5 122q-92 39 -119 116.5t-27 186.5q0 102 25.5 171t78 110.5t133.5 60t191 18.5q94 0 174 -15t136.5 -52t88 -100.5t31.5 -159.5h-174q0 96 -58 132t-196 36q-80 0 -130 -10.5t-77.5 -36t-38 -66.5t-10.5 -102q0 -66 15.5 -106t46 -62.5 t79 -29.5t115.5 -7h330v106h172v-106h121v-164h-121v-174q0 -131 -23.5 -222t-79 -148.5t-146.5 -83t-224 -25.5q-115 0 -203 17t-147.5 62.5t-90 123t-30.5 200.5zM299 385q0 -78 18.5 -125t55.5 -72.5t93 -35t130 -9.5q94 0 153.5 15.5t92 52.5t44 98.5t11.5 153.5v174 h-330q-80 0 -131 -10.5t-81.5 -38t-43 -76.5t-12.5 -127z" />
<glyph unicode="'" horiz-adv-x="595" d="M217 922v444h162v-444h-162z" />
<glyph unicode="(" horiz-adv-x="636" d="M59 626.5q0 270.5 16.5 475.5t47.5 305q20 70 57 116t92.5 74.5t131 41t174.5 12.5v-154q-117 0 -185.5 -27.5t-99.5 -105.5q-16 -43 -28.5 -129t-20.5 -190.5t-11.5 -214t-3.5 -201.5t3.5 -202t11.5 -213t20 -189t29 -129q31 -78 99.5 -105t185.5 -27v-155 q-199 0 -306.5 53t-148.5 193q-31 100 -47.5 300.5t-16.5 471z" />
<glyph unicode=")" horiz-adv-x="636" d="M59 -236q117 0 185.5 27t99.5 105q16 43 28.5 129t19.5 189t11.5 213t4.5 202t-4.5 201.5t-11.5 214t-19.5 190.5t-28.5 129q-31 78 -99.5 105.5t-185.5 27.5v154q98 0 174 -12.5t131.5 -41t92.5 -74.5t57 -116q31 -100 47.5 -305t16.5 -475.5t-16.5 -471t-47.5 -300.5 q-41 -139 -148.5 -192.5t-306.5 -53.5v155z" />
<glyph unicode="*" horiz-adv-x="1079" d="M37 969l49 137l377 -115v375h151v-375l379 115l49 -137l-380 -117l231 -301l-121 -84l-233 301l-232 -301l-123 84l234 301z" />
<glyph unicode="+" d="M78 418v157h438v416h158v-416h440v-157h-440v-418h-158v418h-438z" />
<glyph unicode="," horiz-adv-x="454" d="M39 -205q37 33 59.5 55.5t34.5 45t17.5 50t5.5 72.5v191h161v-191q0 -86 -17 -143t-77 -113l-76 -71z" />
<glyph unicode="-" horiz-adv-x="1034" d="M152 418v157h731v-157h-731z" />
<glyph unicode="." horiz-adv-x="454" d="M115 98q0 111 112 111q111 0 111 -111q0 -53 -27.5 -83.5t-83 -30.5t-84 30.5t-28.5 83.5z" />
<glyph unicode="/" horiz-adv-x="1007" d="M-25 -201l887 1778h170l-887 -1778h-170z" />
<glyph unicode="0" horiz-adv-x="1159" d="M123 505v177v177q0 87 10 165t37 142.5t77 112.5t131 74.5t201.5 26.5t201.5 -26.5t131.5 -74.5t77 -112.5t36.5 -142.5t10 -165v-177v-177q0 -87 -10 -165t-36.5 -142.5t-77 -112.5t-131.5 -74.5t-201.5 -26.5t-201.5 26.5t-131 74.5t-77 112.5t-37 142.5t-10 165z M299 681.5q0 -149.5 4 -252.5t30.5 -166.5t84 -91.5t162 -28t162 28t84 91.5t30.5 166.5t4 252.5t-4 253t-30.5 167t-84 91.5t-162 28t-162 -28t-84 -91.5t-30.5 -167t-4 -253z" />
<glyph unicode="1" horiz-adv-x="964" d="M82 1040l367 326h159v-1208h326v-158h-823v158h323v987l-239 -223z" />
<glyph unicode="2" horiz-adv-x="1132" d="M133 0v324q0 115 38 181t101.5 105t144.5 61.5t167 51.5q57 18 104 35.5t80 44t50.5 68.5t17.5 110t-11.5 113t-41 73.5t-81 41t-131.5 12.5q-141 0 -200.5 -35t-59.5 -131h-174q0 96 32 159.5t88 100.5t135 51t175 14q106 0 190.5 -20.5t139.5 -63.5q59 -47 87 -122.5 t28 -192.5q0 -109 -31 -178.5t-85 -113.5t-128 -72.5t-158 -57.5l-142 -47q-58 -18 -93 -43t-50.5 -67t-15.5 -117v-127h701v-158h-877z" />
<glyph unicode="3" horiz-adv-x="1134" d="M113 1055q0 96 32.5 159.5t92 100.5t141.5 51t180 14q113 0 197 -18.5t137 -61.5t79.5 -113.5t26.5 -176.5q0 -47 -4 -91.5t-18 -82t-42 -69.5t-73 -52q51 -20 81 -52t45.5 -72t19.5 -88t4 -102q0 -121 -30 -200.5t-87 -127.5t-142 -68.5t-194 -20.5q-90 0 -170 13 t-140.5 49t-95 99.5t-34.5 165.5h176q0 -92 60.5 -130t205.5 -38q70 0 122 10.5t87 38t51.5 74.5t16.5 121q0 80 -10.5 127t-41 72.5t-85 34t-142.5 8.5h-199v159h199q70 0 120 7.5t83 30t48 65.5t15 115q0 63 -11 104t-41 65.5t-81 35t-133 10.5q-145 0 -207.5 -37 t-62.5 -129h-176z" />
<glyph unicode="4" horiz-adv-x="1146" d="M90 369v149l600 848h166v-840h199v-157h-199v-369h-172v369h-594zM287 526h397v576z" />
<glyph unicode="5" horiz-adv-x="1163" d="M147 311h170q0 -96 56.5 -132t195.5 -36q82 0 136.5 12.5t87 44t46 86t13.5 136.5q0 78 -7 136t-34 96t-78 56.5t-137 18.5q-143 0 -202.5 -42t-59.5 -118h-168v797h817v-160h-649v-399q35 39 107.5 60.5t158.5 21.5q125 0 207 -26.5t131 -83t68.5 -143.5t19.5 -206 q0 -123 -26.5 -208t-82 -138t-141.5 -76.5t-207 -23.5q-92 0 -169.5 15t-133 52t-87.5 100.5t-32 159.5z" />
<glyph unicode="6" horiz-adv-x="1157" d="M123 625q0 156 6 274.5t21 190.5q29 156 140 223t298 67q86 0 160.5 -16t130 -54t87 -100.5t31.5 -154.5h-172q0 90 -56 128t-179 38q-76 0 -130 -13.5t-88 -59.5t-51.5 -134t-19.5 -236q47 47 117.5 79t171.5 32q115 0 196.5 -24.5t134 -79t77 -141.5t24.5 -212 q0 -229 -105.5 -338.5t-334.5 -109.5q-150 0 -259.5 58t-154.5 179q-23 61 -34 164t-11 240zM307 440q0 -164 64.5 -230.5t208.5 -66.5q74 0 125 14.5t82.5 48.5t46 88t14.5 136q0 88 -12.5 146.5t-42 92t-76.5 47t-117 13.5q-152 0 -222.5 -71t-70.5 -218z" />
<glyph unicode="7" horiz-adv-x="962" d="M39 1206v160h885v-152l-598 -1214h-193l600 1206h-694z" />
<glyph unicode="8" horiz-adv-x="1153" d="M123 379q0 123 31.5 208t126.5 122q-92 39 -119 119.5t-27 191.5q0 102 26.5 171t81 110.5t137.5 60t197.5 18.5t197.5 -18.5t137.5 -60t80 -110.5t25.5 -171q0 -111 -26.5 -190.5t-119.5 -120.5q94 -37 126 -122t32 -208q0 -117 -29.5 -193.5t-88 -121t-142.5 -62.5 t-192.5 -18t-192.5 18t-142.5 62.5t-89 121t-30.5 193.5zM299 385q0 -76 15.5 -123t49 -73.5t87 -36t127 -9.5t126 9.5t86 36t49 73.5t15.5 123q0 78 -16.5 126t-50 73.5t-86 34t-123.5 8.5q-76 0 -129.5 -8.5t-86 -35t-48 -73.5t-15.5 -125zM309 1001.5 q0 -69.5 15.5 -111.5t47 -65.5t82 -31t121.5 -7.5q70 0 121.5 7.5t83 31t47 65.5t15.5 111.5t-15.5 113.5t-48.5 66.5t-83 31t-119.5 8.5t-119.5 -8.5t-83 -31t-48.5 -66.5t-15.5 -113.5z" />
<glyph unicode="9" horiz-adv-x="1155" d="M133 932q0 229 105.5 338.5t334.5 109.5q150 0 259.5 -58t154.5 -179q23 -61 34 -163.5t11 -240.5q0 -155 -6 -274t-20 -191q-29 -156 -140.5 -223t-298.5 -67q-86 0 -160.5 16t-130 54t-87 100.5t-31.5 154.5h172q0 -90 56 -128t179 -38q76 0 130.5 13.5t88 59.5t51 134 t19.5 236q-47 -47 -117.5 -79t-171.5 -32q-115 0 -196.5 24.5t-134 79t-77 141.5t-24.5 212zM307 934q0 -90 12.5 -147.5t42 -91t76.5 -47t117 -13.5q152 0 222.5 70.5t70.5 218.5q0 164 -64.5 230.5t-208.5 66.5q-74 0 -125 -14.5t-82.5 -48.5t-46 -88t-14.5 -136z" />
<glyph unicode=":" horiz-adv-x="456" d="M117 98q0 111 112 111q111 0 111 -111q0 -53 -27.5 -83.5t-83 -30.5t-84 30.5t-28.5 83.5zM117 897q0 111 112 111q111 0 111 -111q0 -53 -27.5 -84t-83 -31t-84 31t-28.5 84z" />
<glyph unicode=";" horiz-adv-x="454" d="M25 -205q37 33 59 55.5t34.5 45t17.5 50t5 72.5v191h162v-191q0 -86 -17.5 -143t-76.5 -113l-76 -71zM115 897q0 111 112 111q111 0 111 -111q0 -53 -27.5 -84t-83 -31t-84 31t-28.5 84z" />
<glyph unicode="&#x3c;" horiz-adv-x="1193" d="M68 420v153l997 418l61 -153l-833 -340l833 -344l-59 -154z" />
<glyph unicode="=" d="M78 231v158h1036v-158h-1036zM78 610v158h1036v-158h-1036z" />
<glyph unicode="&#x3e;" horiz-adv-x="1193" d="M68 154l833 344l-833 340l61 153l997 -418v-153l-999 -420z" />
<glyph unicode="?" horiz-adv-x="905" d="M47 1055q0 102 27.5 170.5t80 109.5t127 58.5t169.5 17.5q100 0 175.5 -19.5t128 -63.5t79 -115.5t26.5 -178.5q0 -129 -49 -206.5t-149 -129.5l-82 -43q-31 -16 -47.5 -37.5t-21.5 -53.5t-5 -89v-86h-176v119q0 104 26.5 162.5t66.5 91.5t86 52.5t86 43t66.5 62 t26.5 114.5q0 57 -10 99.5t-37 69t-72 38.5t-114 12q-137 0 -187.5 -46t-50.5 -152h-170zM307 94q0 53 27.5 84t83 31t84 -31t28.5 -84q0 -111 -112 -110q-111 -1 -111 110z" />
<glyph unicode="@" horiz-adv-x="1572" d="M147 645q0 199 23 339t90.5 228t193.5 128t334 40q184 0 307.5 -23.5t197 -90t103 -184t29.5 -306.5q0 -50 -2 -113t-12 -128.5t-31.5 -124t-60.5 -95.5q-61 -59 -135 -73q-65 -13 -150 -13h-24v74q-43 -41 -102.5 -63.5t-145.5 -22.5q-117 0 -184.5 33t-102.5 89 t-44 132t-9 164t9 165t43 134t101.5 90t184.5 33q84 0 145.5 -23.5t102.5 -64.5v73h120v-692q57 0 95 43q25 29 40 74t22 99.5t10 112.5t3 114q0 150 -24.5 240.5t-82.5 140t-155.5 65.5t-242.5 16q-178 0 -280.5 -33.5t-154 -108.5t-64.5 -192.5t-13 -285.5q0 -176 10 -299 t60 -201t155.5 -112.5t294.5 -34.5q72 0 140.5 5t128.5 22.5t109.5 51t82.5 93.5l108 -62q-43 -82 -110.5 -129t-146.5 -70.5t-163 -29.5t-159 -6q-223 0 -351.5 46t-193 141t-82 242.5t-17.5 352.5zM555 635q0 -72 4 -127t24.5 -92t60.5 -56.5t112 -19.5q70 0 118 13.5 t77.5 47t43 91t13.5 143.5q0 88 -13.5 145.5t-44 91t-79 47t-118 13.5t-109.5 -19.5t-59.5 -57.5t-24.5 -93t-5 -127z" />
<glyph unicode="A" horiz-adv-x="1286" d="M25 0l528 1366h182l527 -1366h-199l-139 377h-572l-137 -377h-190zM412 535h454l-227 612z" />
<glyph unicode="B" horiz-adv-x="1333" d="M172 0v1366h473q102 0 197.5 -2t169 -33t119 -101.5t45.5 -207.5q0 -117 -31 -201t-107 -116q92 -41 120 -124t28 -188q0 -152 -46 -232.5t-121 -116.5t-170 -40t-192 -4h-485zM352 164h289h152q68 0 114.5 19.5t72.5 66.5t26 139t-22.5 139t-68 66.5t-114 21.5t-160.5 2 h-289v-454zM352 782h293h145q65 0 110.5 17.5t70 61.5t24.5 132q0 84 -22.5 127t-68.5 61.5t-114.5 19.5t-158.5 1h-279v-420z" />
<glyph unicode="C" horiz-adv-x="1325" d="M147 684q0 154 9.5 282t61.5 220t166 143t321 51q119 0 211 -18.5t154.5 -63.5t94 -117.5t31.5 -183.5h-176q0 61 -14.5 103.5t-52.5 67t-102.5 35.5t-164.5 11q-129 0 -200.5 -28.5t-106.5 -91t-42 -164t-7 -248.5t7 -247.5t42 -164t106.5 -91t200.5 -27.5 q100 0 164.5 10t102.5 34.5t52.5 66.5t14.5 104h176q0 -111 -33 -183.5t-95 -118t-154.5 -63.5t-211.5 -18q-137 0 -232 23.5t-156.5 67.5t-95.5 105.5t-49 139t-18.5 170t-3.5 194.5z" />
<glyph unicode="D" horiz-adv-x="1374" d="M172 0v1366h492q188 0 298.5 -38t178.5 -140q25 -39 42 -83t26.5 -102.5t13.5 -136.5t4 -184.5t-4 -184t-13.5 -136t-26 -101.5t-40.5 -82q-35 -51 -78 -86t-100.5 -55.5t-132 -28.5t-168.5 -8h-492zM352 166h299q70 0 122 4t91 14.5t65.5 28.5t47.5 47q18 25 30.5 59.5 t20.5 84t12 118t4 160.5t-4 160.5t-12 118t-20.5 84t-30.5 59.5q-20 29 -47 47t-66 29.5t-91 15.5t-122 4h-299v-1034z" />
<glyph unicode="E" horiz-adv-x="1214" d="M172 0v1366h897v-164h-715v-420h695v-164h-695v-454h715v-164h-897z" />
<glyph unicode="F" horiz-adv-x="1167" d="M172 0v1366h877v-164h-697v-420h678v-164h-678v-618h-180z" />
<glyph unicode="G" horiz-adv-x="1372" d="M147 682q0 156 9.5 285t61.5 221t166 142t323 50q117 0 211 -18.5t160.5 -62.5t102.5 -117.5t36 -184.5h-181q0 61 -17.5 102.5t-58 67t-107.5 35.5t-165 10q-135 0 -208.5 -30.5t-106.5 -96t-38 -166t-5 -237.5q0 -139 6 -239.5t39 -165t104.5 -95t200.5 -30.5 q135 0 208 32.5t107.5 93t41.5 147.5t7 198h-380v159h553v-782h-150v123q-78 -86 -185.5 -112.5t-224.5 -26.5q-190 0 -293.5 53t-151.5 147.5t-56.5 222.5t-8.5 275z" />
<glyph unicode="H" horiz-adv-x="1345" d="M172 0v1366h182v-584h639v584h181v-1366h-181v618h-639v-618h-182z" />
<glyph unicode="I" horiz-adv-x="526" d="M172 0v1366h182v-1366h-182z" />
<glyph unicode="J" horiz-adv-x="1099" d="M70 367h174q0 -68 16 -111t48 -66.5t81 -31.5t117 -8q92 0 142 16t75 51t30 88t5 127v934h182v-930q0 -51 -1 -94t-7 -80q-14 -84 -54 -138t-97.5 -85t-128 -43t-146.5 -12q-102 0 -182 18t-137.5 62.5t-87 118t-29.5 184.5z" />
<glyph unicode="K" horiz-adv-x="1243" d="M172 0v1366h180v-590l629 590h248l-740 -680l744 -686h-270l-609 584v-584h-182z" />
<glyph unicode="L" horiz-adv-x="1064" d="M172 0v1366h182v-1202h695v-164h-877z" />
<glyph unicode="M" horiz-adv-x="1687" d="M172 0v1366h236l438 -1139l434 1139h236v-1366h-175v1092l-411 -1092h-174l-412 1092v-1092h-172z" />
<glyph unicode="N" horiz-adv-x="1341" d="M172 0v1366h190l631 -1059v1059h176v-1366h-192l-629 1065v-1065h-176z" />
<glyph unicode="O" horiz-adv-x="1380" d="M147 684q0 154 8.5 282t58.5 220t160.5 143t313.5 51t313.5 -50t161.5 -142t60.5 -220t9.5 -282q0 -160 -10.5 -290t-62.5 -221t-161.5 -141t-308.5 -50q-203 0 -313.5 52t-161.5 144t-59.5 221t-8.5 283zM328 682q0 -98 3 -167t10 -117t18.5 -80.5t27.5 -59.5 q35 -57 104.5 -81.5t198.5 -24.5q127 0 195.5 24.5t105.5 81.5q16 27 27.5 59.5t18.5 82t10.5 118t3.5 166.5t-3.5 167t-10.5 117t-18 80.5t-28 59.5q-37 57 -105.5 81.5t-197.5 24.5t-198.5 -25.5t-104.5 -82.5q-16 -27 -27.5 -59.5t-17.5 -80.5t-9 -117t-3 -167z" />
<glyph unicode="P" horiz-adv-x="1259" d="M172 0v1366h465q117 0 215 -7t170 -44t112 -116t40 -222q0 -145 -40 -225t-111 -118t-170 -46t-216 -8h-283v-580h-182zM354 743h279q72 0 145.5 1t122.5 26q37 18 64.5 63.5t27.5 139.5t-27.5 139t-64.5 64q-49 25 -122.5 25.5t-145.5 0.5h-279v-459z" />
<glyph unicode="Q" horiz-adv-x="1380" d="M147 684q0 154 8.5 282t58.5 220t160.5 143t313.5 51t313.5 -50t161.5 -142t60.5 -220t9.5 -282q0 -127 -5 -241.5t-38 -207t-107.5 -156t-212.5 -83.5l99 -219l-146 -68l-125 273q-201 0 -312.5 47t-164.5 137t-63.5 220t-10.5 296zM328 682q0 -92 2 -156.5t8 -110.5 t15 -79t24 -60q31 -61 88 -90.5t164 -33.5l-76 180l145 63l103 -239q78 10 124 37.5t72 76.5q14 27 24.5 59.5t16.5 80t9.5 114t3.5 160.5q0 98 -3.5 167t-10.5 117t-18 80.5t-28 59.5q-37 57 -105.5 81.5t-197.5 24.5t-198.5 -25.5t-104.5 -82.5q-16 -27 -27.5 -59.5 t-17.5 -80.5t-9 -117t-3 -167z" />
<glyph unicode="R" horiz-adv-x="1337" d="M172 0v1366h465q119 0 218 -7t170 -44t110 -116t39 -222q0 -121 -34 -194.5t-110 -104.5q61 -18 91 -58t41.5 -88.5t11.5 -99.5v-94v-338h-177v344q0 86 -6 134t-45 77t-112.5 32t-202.5 3h-277v-590h-182zM354 756h291h151q77 0 122 22q33 16 55 60.5t22 136.5 q0 63 -12 103t-30.5 62.5t-42 35t-60.5 18.5t-89 7t-128 1h-279v-446z" />
<glyph unicode="S" horiz-adv-x="1325" d="M131 367h180q0 -61 16.5 -103.5t57.5 -68t109.5 -35.5t171.5 -10q106 0 172.5 14t104.5 46t52.5 80t14.5 116q0 74 -18.5 113.5t-53.5 58t-85 22.5t-114 8q-72 2 -144.5 3t-140 8.5t-126 26t-102.5 59t-69.5 106.5t-25.5 168q0 115 32 191.5t96.5 123.5t163.5 66.5 t234 19.5q127 0 224.5 -18.5t164 -62.5t100.5 -117.5t34 -184.5h-176q0 76 -24 119t-69 64.5t-110.5 27.5t-147.5 6q-109 0 -175 -11t-103 -38.5t-49.5 -72.5t-12.5 -111q0 -72 20.5 -109.5t56.5 -56t86 -23t110 -6.5q70 -4 142.5 -4t140 -7t127 -25.5t103.5 -58.5 t69.5 -106.5t25.5 -168.5q0 -225 -128 -328.5t-404 -103.5q-127 0 -226.5 18t-167 62.5t-102.5 118t-35 184.5z" />
<glyph unicode="T" horiz-adv-x="1107" d="M37 1204v162h1034v-162h-426v-1204h-182v1204h-426z" />
<glyph unicode="U" horiz-adv-x="1335" d="M160 507v179v680h182v-680q0 -150 2 -251t31 -163q29 -59 97.5 -90.5t195.5 -31.5q129 0 197.5 30.5t97 90t30.5 162t2 253.5v680h181v-680v-179q0 -71 -5 -120q-6 -96 -32 -166q-49 -125 -170 -181t-301.5 -56t-301 56t-169.5 181q-27 70 -33 166q-4 49 -4 120z" />
<glyph unicode="V" horiz-adv-x="1214" d="M8 1366h193l407 -1122l408 1122h190l-514 -1366h-176z" />
<glyph unicode="W" horiz-adv-x="1810" d="M74 1366h184l256 -1094l297 1094h193l294 -1094l261 1094h178l-334 -1366h-193l-305 1116l-303 -1116h-201z" />
<glyph unicode="X" horiz-adv-x="1208" d="M49 0l449 696l-437 670h207l338 -537l336 537h207l-438 -670l448 -696h-207l-350 559l-348 -559h-205z" />
<glyph unicode="Y" horiz-adv-x="1163" d="M4 1366h209l373 -604l368 604h205l-485 -770v-596h-182v596z" />
<glyph unicode="Z" horiz-adv-x="1249" d="M125 0v160l782 1044h-782v162h999v-160l-784 -1042h784v-164h-999z" />
<glyph unicode="[" horiz-adv-x="636" d="M104 -391v2042h474v-154h-304v-1733h304v-155h-474z" />
<glyph unicode="\" horiz-adv-x="1007" d="M-25 1577h170l887 -1778h-170z" />
<glyph unicode="]" horiz-adv-x="636" d="M59 -236h303v1733h-303v154h473v-2042h-473v155z" />
<glyph unicode="^" horiz-adv-x="1193" d="M74 442l448 942h146l452 -944l-157 -61l-371 795l-363 -795z" />
<glyph unicode="_" horiz-adv-x="1071" d="M0 -236h1071v-161h-1071v161z" />
<glyph unicode="`" horiz-adv-x="874" d="M203 1366h196l273 -258h-197z" />
<glyph unicode="a" horiz-adv-x="1103" d="M96 293q0 104 34 166.5t90 95.5t131 43t155 10h293q0 63 -3 109.5t-27 77t-75 45t-145 14.5q-43 0 -88 -3t-83 -17.5t-61.5 -44t-23.5 -82.5h-168q0 92 34 150t93 92t139 46.5t172 12.5q156 0 240 -39t121 -99.5t42 -130t5 -131.5v-608h-160v96q-45 -53 -129 -82.5 t-201 -29.5q-184 0 -284.5 69.5t-100.5 239.5zM272 295q0 -84 47.5 -123t178.5 -39q104 0 164.5 20.5t91 61.5t39 102.5t8.5 143.5h-303q-57 0 -100.5 -6t-71 -23.5t-41 -50.5t-13.5 -86z" />
<glyph unicode="b" horiz-adv-x="1140" d="M143 0v1427h174v-528q53 61 134 85t180 24q133 0 212 -38t120 -106.5t53 -163t12 -206.5q0 -96 -10 -188.5t-51 -164t-124 -114.5t-231 -43q-109 0 -185.5 29.5t-123.5 82.5v-96h-160zM315 495.5q0 -104.5 14.5 -173t48.5 -108.5t91 -55.5t141 -15.5q78 0 125 20.5 t74 63.5t35 109.5t8 159t-8 158t-35 107.5t-74 62.5t-125 20.5q-84 0 -141 -15.5t-91 -54.5t-48.5 -106.5t-14.5 -172z" />
<glyph unicode="c" horiz-adv-x="1071" d="M113 497.5q0 110.5 13 204t58 162t133.5 106.5t239.5 38q74 0 147.5 -11.5t132 -45.5t95.5 -93t37 -156h-166q0 51 -22.5 81t-57.5 44.5t-78 18.5t-84 4q-94 0 -148.5 -20.5t-82 -63.5t-34.5 -109.5t-7 -158.5t7 -159t34.5 -111t82 -65.5t148.5 -21.5q41 0 84 4t78 18.5 t57.5 44.5t22.5 81h166q0 -96 -37 -155.5t-95.5 -93.5t-132 -45t-147.5 -11q-152 0 -240 38.5t-133 107.5t-58 163t-13 204.5z" />
<glyph unicode="d" horiz-adv-x="1140" d="M113 496q0 106 12 200.5t53 163t120 108.5t212 40q98 0 179 -23.5t134 -85.5v528h174v-1427h-161v100q-47 -53 -127 -84.5t-189 -31.5q-145 0 -226 42t-122 112.5t-50 163t-9 194.5zM289 493.5q0 -92.5 8 -158t34.5 -108.5t74 -63.5t124.5 -20.5q84 0 141.5 15.5 t91.5 54.5t48 107.5t14 173t-14 173t-48 107.5t-91.5 54.5t-141.5 15.5q-78 0 -125 -20.5t-73.5 -63.5t-34.5 -108.5t-8 -158z" />
<glyph unicode="e" horiz-adv-x="1101" d="M113 487q0 117 15 213.5t61.5 164t133.5 105.5t230 38q156 0 244 -42t131 -117t52 -180.5t9 -232.5h-700q0 -78 9 -135t39 -94t83 -54.5t143 -17.5q41 0 85 4t81 20.5t60.5 46.5t23.5 83h164q0 -94 -38 -153.5t-97.5 -93.5t-134 -46t-148.5 -12q-145 0 -233 35.5 t-135.5 101t-62.5 158.5t-15 208zM291 586h526q0 72 -9 123t-38 84.5t-81 49t-136 15.5q-80 0 -131 -17.5t-81 -52t-40 -85.5t-10 -117z" />
<glyph unicode="f" horiz-adv-x="907" d="M45 842v149h160v135q0 170 99 243t265 73q70 0 131.5 -12.5t107.5 -40t71.5 -72.5t25.5 -109h-170q0 25 -14 42.5t-38 27.5t-52.5 15t-59.5 5q-59 0 -97 -11t-59.5 -35.5t-29.5 -60.5t-8 -85v-115h375v-149h-373v-842h-174v842h-160z" />
<glyph unicode="g" horiz-adv-x="1138" d="M113 504q0 111 13 203t55 158.5t121 104.5t212 38q98 0 182 -26t138 -85v94h161v-891q0 -72 -1 -127t-7 -96q-12 -84 -57 -137t-106.5 -84t-135.5 -42t-143 -11q-78 0 -152 13t-131 47t-92 91.5t-35 143.5h172q0 -70 60.5 -106t171.5 -36q51 0 98 7.5t85 25.5t62.5 49 t30.5 78q5 40 5 82v14v33q0 32 1 64q-51 -57 -131 -83t-174 -26q-141 0 -221 41t-121 110.5t-51 161t-10 191.5zM289 502q0 -92 8 -156.5t34.5 -105.5t73 -59.5t123.5 -18.5q84 0 140.5 14t91.5 52t49 103.5t14 170.5q0 102 -14 169.5t-48 106.5t-91.5 54.5t-141.5 15.5 q-78 0 -125 -19.5t-72.5 -61.5t-33.5 -107.5t-8 -157.5z" />
<glyph unicode="h" horiz-adv-x="1112" d="M143 0v1427h174v-524q47 47 115 76t172 29q152 0 229.5 -42t109.5 -110t34 -150.5t2 -162.5v-543h-174v522q0 80 -1 140.5t-19.5 101.5t-63.5 61.5t-133 20.5q-104 0 -159.5 -33t-80 -86t-28 -124t-3.5 -146v-457h-174z" />
<glyph unicode="i" horiz-adv-x="460" d="M127 1278q0 31 11.5 51.5t26.5 31.5t32.5 15t32 4t33 -4t33.5 -15t25.5 -31.5t10.5 -51.5t-11.5 -51.5t-26.5 -31.5t-32.5 -15t-32 -4t-32 4t-32.5 15t-26.5 31.5t-11.5 51.5zM143 0v991h174v-991h-174z" />
<glyph unicode="j" horiz-adv-x="460" d="M-397 -123h170q0 -57 43 -92t135 -35q70 0 108.5 16.5t57 44t22.5 63.5t4 73v1044h174v-1067q0 -86 -26.5 -147.5t-74.5 -100t-115.5 -56t-149.5 -17.5q-76 0 -139.5 14t-108.5 47t-71.5 85t-28.5 128zM129 1278q0 31 11.5 51.5t26.5 31.5t32.5 15t32 4t32 -4t32.5 -15 t26.5 -31.5t11.5 -51.5t-11.5 -51.5t-26.5 -31.5t-32.5 -15t-32 -4t-32 4t-32.5 15t-26.5 31.5t-11.5 51.5z" />
<glyph unicode="k" horiz-adv-x="1017" d="M143 0v1427h174v-827l459 391h240l-537 -454l537 -537h-238l-461 471v-471h-174z" />
<glyph unicode="l" horiz-adv-x="460" d="M143 0v1427h174v-1427h-174z" />
<glyph unicode="m" horiz-adv-x="1648" d="M143 0v991h162v-94q41 45 108.5 78t172.5 33q98 0 167.5 -33t108.5 -98q55 66 128 98.5t181 32.5q115 0 198 -39t120 -125q25 -57 26 -118.5t1 -129.5v-596h-175v600q0 57 -3 103.5t-20.5 78t-55 49t-109.5 17.5q-94 0 -143 -37t-69.5 -95.5t-21.5 -128t-1 -136.5v-451 h-175v600q0 57 -3 103.5t-20.5 78t-55 49t-109.5 17.5q-94 0 -143.5 -38t-69.5 -96.5t-22.5 -129t-2.5 -138.5v-446h-174z" />
<glyph unicode="n" horiz-adv-x="1112" d="M143 0v991h158v-96q47 51 120 82t183 31q152 0 229.5 -42t109.5 -110t34 -150.5t2 -162.5v-543h-174v522q0 80 -1 140.5t-19.5 101.5t-63.5 61.5t-133 20.5q-104 0 -159.5 -33t-80 -86t-28 -124t-3.5 -146v-457h-174z" />
<glyph unicode="o" horiz-adv-x="1136" d="M113 495.5q0 151.5 20.5 247t79.5 154.5t146 85t210 26q121 0 208 -26t146.5 -85t80 -154.5t20.5 -247t-20.5 -246.5t-80 -154.5t-146.5 -85t-208 -25.5q-123 0 -210 25.5t-146 85t-79.5 154.5t-20.5 246.5zM289 496q0 -90 7 -157t34.5 -111t84 -65.5t155 -21.5 t154.5 21.5t84 65.5t34 111t6 157q0 92 -7 158.5t-35 110.5t-83 64.5t-153.5 20.5t-155 -21.5t-84 -65.5t-34.5 -110.5t-7 -156.5z" />
<glyph unicode="p" horiz-adv-x="1140" d="M143 -391v1382h162v-98q55 59 138 87t182 28q137 0 217 -38t121 -105.5t53 -162t12 -208.5q0 -96 -11 -187.5t-52 -163t-125 -115.5t-228 -44q-98 0 -169.5 25.5t-125.5 84.5v-485h-174zM317 495.5q0 -104.5 14.5 -173t48.5 -108.5t91 -55.5t141 -15.5q78 0 125 20.5 t74 63.5t35 109.5t8 159t-8 158t-35 107.5t-74 62.5t-125 20.5q-84 0 -141 -15.5t-91 -54.5t-48.5 -106.5t-14.5 -172z" />
<glyph unicode="q" horiz-adv-x="1138" d="M113 496q0 106 11 200.5t52 163t121 108.5t215 40q98 0 180 -26t142 -89v98h161v-1382h-174v485q-53 -59 -132 -84.5t-177 -25.5q-141 0 -221 42t-120 112.5t-49 164t-9 193.5zM289 493.5q0 -92.5 8 -158t34.5 -108.5t73 -63.5t123.5 -20.5q84 0 140.5 15.5t90.5 54.5 t48 107.5t14 173t-14 173t-48 107.5t-90.5 54.5t-140.5 15.5q-78 0 -124 -20.5t-72.5 -63.5t-34.5 -108.5t-8 -158z" />
<glyph unicode="r" horiz-adv-x="921" d="M143 0v991h164v-96q94 113 281 113q154 0 233.5 -73t79.5 -228h-168q0 84 -39 113.5t-139 29.5q-96 0 -144.5 -41t-70 -103.5t-22.5 -136t-1 -139.5v-430h-174z" />
<glyph unicode="s" horiz-adv-x="1050" d="M102 289h162q0 -41 11.5 -71t38 -48t72.5 -27.5t118 -9.5q70 0 120 5t82.5 22.5t48 49.5t15.5 87q0 45 -13.5 69.5t-42 36t-71.5 14.5t-100 5q-82 2 -158 7t-135.5 31.5t-94 84t-34.5 168.5q0 88 30.5 145t88 91t138.5 46.5t181 12.5q90 0 163 -15.5t123 -50.5t76.5 -93 t26.5 -147h-162q0 86 -49 120t-176 36q-16 0 -31 1q-59 0 -100 -7q-51 -8 -81 -25.5t-42 -43t-12 -58.5q0 -57 15.5 -86t43 -41t66.5 -13t86 -3l163 -7.5t140 -29t98 -85t37 -175.5q0 -88 -30.5 -146.5t-87 -93.5t-138.5 -48t-182 -13q-98 0 -173 15t-126 50t-78 93.5 t-27 146.5z" />
<glyph unicode="t" horiz-adv-x="956" d="M59 842v149h164v375h174v-375h439v-149h-439v-549q0 -88 40 -124t136.5 -36t138.5 37t42 119h161q0 -86 -26.5 -144.5t-73.5 -94.5t-110.5 -51t-139.5 -15q-168 0 -255 73.5t-87 235.5v549h-164z" />
<glyph unicode="u" horiz-adv-x="1112" d="M133 451v540h176v-522v-140q0 -60 18.5 -101.5t63.5 -62t135 -20.5q104 0 159.5 33t79 86t27 124t3.5 147v456h174v-991h-162v98q-47 -51 -120 -82.5t-183 -31.5q-145 0 -221 42t-110 108.5t-37 149.5t-3 167z" />
<glyph unicode="v" horiz-adv-x="1003" d="M27 991h186l293 -778l289 778h182l-387 -991h-174z" />
<glyph unicode="w" horiz-adv-x="1460" d="M41 991h182l205 -772l215 772h178l217 -772l205 772h176l-282 -991h-183l-221 774l-221 -774h-186z" />
<glyph unicode="x" horiz-adv-x="1013" d="M31 0l372 506l-358 485h209l254 -364l262 364h203l-363 -483l373 -508h-209l-268 385l-275 -385h-200z" />
<glyph unicode="y" horiz-adv-x="966" d="M29 991h182l276 -776l273 776h182l-522 -1382h-178l155 403z" />
<glyph unicode="z" horiz-adv-x="997" d="M94 0v147l586 695h-586v149h807v-147l-584 -688h584v-156h-807z" />
<glyph unicode="{" horiz-adv-x="780" d="M141 651q0 49 27 83t59.5 64.5t59 62.5t26.5 77v336q0 113 20.5 192.5t68 130t124 73t189.5 22.5v-154q-76 0 -121 -13.5t-69.5 -43t-33 -79.5t-8.5 -124v-365q0 -45 -13 -78.5t-33.5 -59t-46 -48t-48.5 -45.5q-17 -17 -17 -33q0 -15 15 -31q29 -29 55.5 -52t46 -47.5 t30.5 -55.5t11 -76v-362q0 -74 8.5 -123t33 -80t70.5 -44.5t120 -13.5v-155q-113 0 -189.5 23.5t-124 73.5t-68 130t-20.5 193v331q0 45 -26.5 78t-59 63.5t-59.5 65.5t-27 84z" />
<glyph unicode="|" horiz-adv-x="583" d="M207 -391v1757h170v-1757h-170z" />
<glyph unicode="}" horiz-adv-x="780" d="M66 -236q74 0 119.5 13.5t70.5 44.5t33 80t8 123v362q0 45 11 76t30.5 55.5t46.5 48t55 51.5q15 15 15 31t-17 33q-23 23 -48 45.5t-45.5 48t-34 59t-13.5 78.5v365q0 74 -8 124t-33 79.5t-70 43t-120 13.5v154q113 0 189.5 -22.5t123.5 -73t67.5 -130.5t20.5 -192v-336 q0 -45 26.5 -77t59.5 -62.5t59.5 -64.5t26.5 -83t-26.5 -84t-59.5 -65.5t-59.5 -63t-26.5 -78.5v-331q0 -113 -20.5 -193t-67.5 -130t-124 -73.5t-189 -23.5v155z" />
<glyph unicode="~" d="M68 463q10 10 33 29l51 37l50 37q24 17 36 24q76 47 162 55q12 1 24 1q75 0 149 -46l83 -51q38 -23 73 -34q27 -9 55 -9l15 1q35 3 73 28l27 18l44 31l46 32q23 16 35 27l100 -119q-10 -10 -34.5 -27.5t-50 -38t-50 -38t-35.5 -23.5q-76 -49 -162 -56q-10 -1 -21 -1 q-77 0 -153 47l-82 51q-38 23 -74 34q-28 9 -56 9q-8 0 -15 -1q-35 -3 -74 -27l-26 -19l-44 -32l-46 -33l-35 -25z" />
<glyph unicode="&#xa1;" horiz-adv-x="591" d="M184 897q0 111 113 111q111 0 111 -111q0 -53 -28 -84t-83 -31t-84 31t-29 84zM211 -375v977h170v-977h-170z" />
<glyph unicode="&#xa2;" horiz-adv-x="1099" d="M113 499.5q0 110.5 13 199.5t54 155t115 103.5t197 48.5v172h155v-172q68 -4 130.5 -20.5t111.5 -51.5t78.5 -91.5t29.5 -140.5h-166q0 41 -15 69t-40.5 44t-59.5 23.5t-69 9.5v-705q35 2 69 9.5t59.5 24t40.5 44t15 68.5h166q0 -84 -29.5 -140.5t-78.5 -90t-111.5 -50 t-130.5 -20.5v-183h-155v183q-123 8 -198 48t-115 105.5t-53 156.5t-13 201.5zM287 498q0 -80 6 -142.5t26.5 -107.5t61.5 -70.5t111 -34.5v705q-70 -6 -110 -31.5t-61.5 -70t-27.5 -106.5t-6 -142z" />
<glyph unicode="&#xa3;" horiz-adv-x="1183" d="M109 0v160h124v452h-124v158h124v168v90q0 45 7.5 89t25 85t53.5 76q55 53 143.5 77.5t199.5 24.5q66 0 139 -7t136.5 -38.5t104.5 -97.5t41 -182h-168q0 55 -16 88t-47 50t-74 22.5t-96 5.5q-96 0 -150.5 -15.5t-81 -48.5t-33.5 -86t-7 -129v-172h583v-158h-583v-452 h692v-160h-993z" />
<glyph unicode="&#xa4;" d="M94 743v148h123q2 119 23.5 210t71.5 153.5t137.5 94t220.5 31.5q82 0 158.5 -13t134 -49t92.5 -99.5t35 -163.5h-177q0 53 -17 85.5t-49 50t-77 24t-100 6.5q-92 0 -146.5 -22.5t-83 -64.5t-37 -103.5t-10.5 -139.5h367v-148h-369v-116h367v-148h-365q2 -80 10.5 -141.5 t36 -104.5t81.5 -64.5t147 -21.5q55 0 101 5.5t78 23t49 50t17 85.5h177q0 -100 -34 -163.5t-91.5 -99.5t-133 -49t-161.5 -13q-135 0 -222.5 32.5t-137.5 96t-70.5 155.5t-22.5 209h-121v148h121v116h-123z" />
<glyph unicode="&#xa5;" horiz-adv-x="1189" d="M33 1366h203l360 -602l358 602h203l-303 -496h156v-147h-246l-72 -115h318v-147h-326v-461h-178v461h-326v147h318l-72 115h-248v147h158z" />
<glyph unicode="&#xa6;" horiz-adv-x="583" d="M207 270h170v-661h-170v661zM207 705v661h170v-661h-170z" />
<glyph unicode="&#xa7;" horiz-adv-x="1177" d="M164 1059q0 100 33.5 163.5t90 98.5t131.5 47t156 12q104 0 185.5 -14t136.5 -51t85 -100.5t30 -159.5h-174q0 45 -11.5 77.5t-41 52t-81 28t-129.5 8.5q-55 0 -98 -6.5t-72.5 -25t-46 -52t-16.5 -88.5q0 -61 18.5 -93t52 -46.5t81 -15.5t102.5 -1q98 0 178 -10.5 t146 -63.5q45 -37 68.5 -94t23.5 -143q0 -92 -33 -150.5t-90 -83.5q59 -29 92 -89t33 -159q0 -102 -34 -164.5t-90 -97.5t-131 -47t-157 -12q-104 0 -185 14t-137.5 51t-85 100.5t-28.5 159.5h174q0 -47 11 -78.5t41 -51t81 -27.5t129 -8q55 0 98 6t73 24.5t46.5 52 t16.5 89.5q0 61 -19.5 93t-53.5 46t-80 15t-101 1q-98 0 -178 10.5t-146 63.5q-45 37 -68.5 94.5t-23.5 143.5q0 92 32.5 150t90.5 83q-59 29 -92 89.5t-33 158.5zM342 573q0 -55 18.5 -86.5t52 -46t79 -17.5t100.5 -3q51 0 95 3t77 19.5t51.5 49t18.5 92.5q0 55 -18.5 86.5 t-51.5 46t-78 17.5t-100 3q-51 0 -95.5 -3t-77 -19.5t-52 -49.5t-19.5 -92z" />
<glyph unicode="&#xa8;" horiz-adv-x="874" d="M117 1268q0 53 23.5 75.5t74.5 22.5t76.5 -22.5t25.5 -75.5q0 -100 -102 -101q-98 1 -98 101zM557 1268q0 53 23.5 75.5t75 22.5t77 -22.5t25.5 -75.5q0 -100 -103 -101q-98 1 -98 101z" />
<glyph unicode="&#xa9;" horiz-adv-x="1669" d="M147 688q0 205 31 338t109 212t210 110.5t337 31.5q203 0 336 -31.5t211.5 -111.5t109.5 -214t31 -339q0 -201 -32 -335t-111 -216t-211 -115.5t-334 -33.5q-205 0 -337 34.5t-210 115.5t-109 216t-31 338zM279 682q0 -168 21.5 -278.5t82.5 -176t170 -92t281 -26.5 q174 0 282.5 27.5t170 94t83 178t21.5 281.5q0 172 -22.5 281.5t-84 173t-170 88t-280.5 24.5q-176 0 -286 -25.5t-169.5 -90t-79.5 -176t-20 -283.5zM416 684q0 121 17.5 210t63.5 147.5t129 86t212 27.5q86 0 157.5 -12t123.5 -46t82 -94.5t30 -154.5h-131q0 63 -20.5 100 t-55.5 55.5t-83 23.5t-103 5q-100 0 -157.5 -21.5t-86.5 -64.5t-36 -108.5t-7 -153.5q0 -90 7 -155.5t36 -108.5t86 -63.5t158 -20.5q55 0 103 5t84 23.5t55.5 55.5t19.5 100h131q0 -94 -30 -154.5t-82 -94t-123.5 -46t-157.5 -12.5q-131 0 -214 27.5t-129 85t-62.5 146.5 t-16.5 212z" />
<glyph unicode="&#xaa;" horiz-adv-x="782" d="M72 889q0 74 24.5 118t66.5 67.5t95 30.5t111 7h211v2q0 45 -7.5 76t-28 47t-56 23.5t-91.5 7.5q-35 0 -66.5 -3t-57 -13.5t-41 -28t-15.5 -47.5h-125q0 66 31 106.5t78 62t103 28.5t106 7q113 0 174 -27.5t87.5 -71.5t31 -97.5t4.5 -104.5v-391h-111v76 q-39 -35 -90 -60.5t-148 -25.5q-139 0 -212.5 47t-73.5 164zM197 891q0 -53 30.5 -78t126.5 -25q80 0 128 20.5t71 61.5q12 23 18.5 47.5t6.5 81.5h-216q-78 0 -121.5 -18t-43.5 -90z" />
<glyph unicode="&#xab;" horiz-adv-x="978" d="M88 489q0 61 27.5 122t70.5 116t93 104l92 91l112 -109l-84 -86q-53 -53 -99 -111.5t-46 -123.5q0 -35 14.5 -68t38 -63.5t52.5 -60.5l59 -58l63 -64l-112 -106l-94 88q-50 47 -91 99t-68.5 109.5t-27.5 120.5zM504 489q0 61 27.5 122t70.5 116t92 104l92 91l113 -109 l-84 -86q-53 -53 -99 -111.5t-46 -123.5q0 -35 14 -68t37.5 -63.5t53.5 -60.5l59 -58l63 -64l-113 -106l-93 88q-50 47 -91 99t-68.5 109.5t-27.5 120.5z" />
<glyph unicode="&#xac;" d="M78 608v160h1036v-768h-166v608h-870z" />
<glyph unicode="&#xad;" horiz-adv-x="1034" d="M152 418v157h731v-157h-731z" />
<glyph unicode="&#xae;" horiz-adv-x="1075" d="M74 920q0 139 20.5 228t72.5 141t142 71.5t230 19.5q137 0 227 -20.5t142.5 -72.5t72.5 -142t20 -227q0 -133 -21.5 -223.5t-73.5 -143.5t-142 -75.5t-225 -22.5q-139 0 -228.5 22.5t-142.5 75.5t-73.5 143.5t-20.5 225.5zM172 915q0 -111 14.5 -182t54.5 -113 t111.5 -57.5t186 -15.5t185.5 16.5t110.5 59.5t54 115.5t14.5 183.5q0 113 -14.5 183.5t-54 110t-111.5 55t-184 15.5q-117 0 -188.5 -15.5t-111.5 -56.5t-53.5 -112.5t-13.5 -186.5zM342 643v561h197q43 0 80.5 -3t66.5 -17.5t46.5 -45t17.5 -85.5q0 -49 -14.5 -76 t-43.5 -45q29 -16 43.5 -43t14.5 -88v-158h-95v164q0 57 -22.5 67.5t-71.5 10.5h-121v-242h-98zM438 971h99h49q23 0 37 6t22 21.5t8 46t-6 47t-20.5 22.5t-37.5 6h-59h-92v-149z" />
<glyph unicode="&#xaf;" horiz-adv-x="876" d="M86 1202v133h705v-133h-705z" />
<glyph unicode="&#xb0;" horiz-adv-x="1099" d="M244 1059q0 166 72.5 236.5t232.5 70.5t233.5 -70.5t73.5 -236.5t-72.5 -241t-232.5 -75t-233.5 75t-73.5 241zM377 1055q0 -51 7 -86t26.5 -56.5t52.5 -32t86 -10.5q104 0 140 41t36 143.5t-36 143.5t-140.5 41t-138 -42t-33.5 -142z" />
<glyph unicode="&#xb1;" d="M66 0v158h1060v-158h-1060zM76 629v157h440v363h158v-363h442v-157h-442v-365h-158v365h-440z" />
<glyph unicode="&#xb2;" horiz-adv-x="839" d="M100 1161q0 63 21.5 104.5t58.5 66t88 33.5t111 9q133 0 208 -53t75 -191q0 -63 -13.5 -101t-38 -61.5t-58.5 -38t-75 -28.5l-70.5 -23.5t-67.5 -23.5t-56.5 -26.5t-36.5 -34.5q-6 -10 -10.5 -24.5t-4.5 -43.5v-63h428v-115h-557v198q0 74 29 117t73 67.5t100 39 l112 30.5q66 20 91 45t25 86q0 76 -31.5 103t-119.5 27q-78 0 -116 -17.5t-38 -81.5h-127z" />
<glyph unicode="&#xb3;" horiz-adv-x="839" d="M96 762h127q2 -59 36 -82t120 -23q47 0 78.5 4.5t50 17.5t27 38.5t8.5 68.5q0 45 -7.5 72t-25.5 41t-49 18.5t-78 4.5h-156v112h156q39 0 67.5 3t47 14.5t28 34t9.5 59.5q0 31 -5.5 54.5t-20.5 37.5t-46 21.5t-80 7.5q-88 0 -122 -22.5t-34 -82.5h-125q0 63 20.5 106.5 t58.5 68t89.5 34.5t112.5 10q141 0 210 -52t69 -179q0 -61 -12.5 -102t-55.5 -70q41 -25 58.5 -68t17.5 -121q0 -72 -20.5 -119.5t-58.5 -75.5t-92.5 -39t-119.5 -11q-61 0 -113.5 10t-89.5 34.5t-58.5 66.5t-21.5 108z" />
<glyph unicode="&#xb4;" horiz-adv-x="874" d="M203 1108l272 258h197l-273 -258h-196z" />
<glyph unicode="&#xb5;" horiz-adv-x="1122" d="M143 -391v1382h174v-522q0 -84 2.5 -145.5t21.5 -101.5t64.5 -58.5t131.5 -18.5q104 0 159.5 33t79 86t26.5 124t3 147v456h174v-991h-162v96q-47 -51 -117.5 -81.5t-175.5 -30.5q-59 0 -116.5 14t-92.5 43v-432h-172z" />
<glyph unicode="&#x3bc;" horiz-adv-x="1122" d="M143 -391v1382h174v-522q0 -84 2.5 -145.5t21.5 -101.5t64.5 -58.5t131.5 -18.5q104 0 159.5 33t79 86t26.5 124t3 147v456h174v-991h-162v96q-47 -51 -117.5 -81.5t-175.5 -30.5q-59 0 -116.5 14t-92.5 43v-432h-172z" />
<glyph unicode="&#xb6;" horiz-adv-x="1208" d="M76 979q0 150 46 228.5t125 113.5t181 40t215 5h365v-1366h-160v1208h-119v-1208h-160v596h-92q-86 0 -159.5 15.5t-127 57.5t-84 116.5t-30.5 193.5zM250 985q0 -94 20.5 -142t60.5 -67.5t100 -19.5h138v452q-72 0 -130 -1t-100 -20.5t-65.5 -65.5t-23.5 -136z" />
<glyph unicode="&#xb7;" horiz-adv-x="452" d="M115 690q0 111 112 111q111 0 111 -111q0 -53 -27.5 -84t-83 -31t-84 31t-28.5 84z" />
<glyph unicode="&#xb8;" horiz-adv-x="876" d="M254 -244h96q0 -35 17.5 -46t58.5 -11q47 0 58.5 18.5t11.5 53.5q0 37 -20.5 51t-51.5 16q-12 2 -28 2h-34v160h103v-84q68 -2 100.5 -40t32.5 -101q0 -78 -39 -120t-133 -42q-88 0 -130 32.5t-42 110.5z" />
<glyph unicode="&#xb9;" horiz-adv-x="821" d="M106 1169l226 197h104v-702h185v-117h-498v117h182v524l-115 -101z" />
<glyph unicode="&#xba;" horiz-adv-x="786" d="M68 1030.5q0 104.5 14 168t57 106.5q43 41 105.5 58t148.5 17t147.5 -17t104.5 -58t58.5 -104.5t15.5 -170t-15.5 -169t-58.5 -103.5t-104.5 -59.5t-147.5 -18.5t-148.5 18.5t-105.5 59.5q-43 43 -57 105.5t-14 167zM195 1030.5q0 -61.5 4 -106.5t23.5 -73t59.5 -41 t111 -13q70 0 110 13t60.5 42t24.5 73t4 105q0 64 -5 109t-25.5 72.5t-60.5 41t-108 13.5q-72 0 -111.5 -13.5t-59 -42t-23.5 -73.5t-4 -106.5z" />
<glyph unicode="&#xbb;" horiz-adv-x="978" d="M80 813l113 109l92 -91q49 -49 92 -104t70.5 -115.5t27.5 -122.5q0 -63 -27.5 -120.5t-68.5 -109.5t-91 -99l-93 -88l-113 106l63 64l59 58q30 30 53.5 60.5t37.5 63.5t14 68q0 66 -46 124t-99 111zM496 813l112 109l92 -91q49 -49 92.5 -104t71 -115.5t27.5 -122.5 q0 -63 -27.5 -120.5t-68.5 -109.5t-92 -99l-93 -88l-112 106l63 64l59 58q30 30 53 60.5t37.5 63.5t14.5 68q0 66 -46 124t-99 111z" />
<glyph unicode="&#xbc;" horiz-adv-x="1652" d="M106 1169l226 197h104v-702h185v-117h-498v117h182v524l-115 -101zM418 0l729 1366h143l-733 -1366h-139zM879 211v108l385 512h120v-509h123v-111h-123v-211h-124v211h-381zM1022 322h238v327z" />
<glyph unicode="&#xbd;" horiz-adv-x="1646" d="M107 1169l225 197h104v-704h185v-115h-498v115h182v526l-115 -101zM418 0l729 1366h143l-733 -1366h-139zM1020 614q0 63 21.5 104.5t58.5 66t88 33.5t110 9q133 0 208 -53t75 -190q0 -63 -13.5 -101.5t-38 -62t-58 -37.5t-74.5 -29l-71 -23.5t-67.5 -23.5t-56 -26.5 t-37.5 -34.5q-6 -10 -10 -24.5t-4 -43.5v-63h428v-115h-557v199q0 74 28.5 116.5t72.5 67.5t100.5 39t111.5 31q66 20 91.5 44.5t25.5 86.5q0 76 -31.5 102.5t-120.5 26.5q-78 0 -115.5 -17.5t-37.5 -81.5h-127z" />
<glyph unicode="&#xbe;" horiz-adv-x="1632" d="M96 762h127q2 -59 36 -82t120 -23q47 0 78.5 4.5t50 17.5t27 38.5t8.5 68.5q0 45 -7.5 72t-25.5 41t-49 18.5t-78 4.5h-156v112h156q39 0 67.5 3t47 14.5t28 34t9.5 59.5q0 31 -5.5 54.5t-20.5 37.5t-46 21.5t-80 7.5q-88 0 -122 -22.5t-34 -82.5h-125q0 63 20.5 106.5 t58.5 68t89.5 34.5t112.5 10q141 0 210 -52t69 -179q0 -61 -12.5 -102t-55.5 -70q41 -25 58.5 -68t17.5 -121q0 -72 -20.5 -119.5t-58.5 -75.5t-92.5 -39t-119.5 -11q-61 0 -113.5 10t-89.5 34.5t-58.5 66.5t-21.5 108zM418 0l729 1366h143l-733 -1366h-139zM879 211v108 l385 512h120v-509h123v-111h-123v-211h-124v211h-381zM1022 322h238v327z" />
<glyph unicode="&#xbf;" horiz-adv-x="905" d="M51 -43q0 129 49.5 207t149.5 129l82 43q31 16 47 37.5t21.5 53.5t5.5 89v86h176v-119q0 -104 -27 -162.5t-66.5 -91t-86 -52t-86.5 -43t-66.5 -62.5t-26.5 -115q0 -57 10.5 -99t37 -69t71.5 -39t115 -12q137 0 187 46t50 153h170q0 -102 -27.5 -171t-79.5 -110 t-127 -58.5t-169 -17.5q-100 0 -176 19.5t-128.5 63.5t-79 116t-26.5 178zM381 897q0 111 113 111q111 0 110 -111q0 -53 -27.5 -84t-83 -31t-84 31t-28.5 84z" />
<glyph unicode="&#xc0;" horiz-adv-x="1286" d="M25 0l528 1366h182l527 -1366h-199l-139 377h-572l-137 -377h-190zM387 1765h197l272 -258h-197zM412 535h454l-227 612z" />
<glyph unicode="&#xc1;" horiz-adv-x="1286" d="M25 0l528 1366h182l527 -1366h-199l-139 377h-572l-137 -377h-190zM412 535h454l-227 612zM453 1507l272 258h197l-273 -258h-196z" />
<glyph unicode="&#xc2;" horiz-adv-x="1286" d="M25 0l528 1366h182l527 -1366h-199l-139 377h-572l-137 -377h-190zM309 1505l269 260h155l268 -260h-184l-162 156l-159 -156h-187zM412 535h454l-227 612z" />
<glyph unicode="&#xc3;" horiz-adv-x="1286" d="M25 0l528 1366h182l527 -1366h-199l-139 377h-572l-137 -377h-190zM244 1659l93 50q48 26 98 41q44 14 90 14q6 0 12 -1q51 -2 106 -34l48 -31q22 -14 46.5 -20.5t52 -3.5t66.5 24l121 63l63 -119l-94 -51q-47 -27 -96 -42q-43 -14 -88 -13h-12q-51 2 -107 35l-48 31 q-22 14 -46.5 20t-53 3t-67.5 -23l-121 -62zM412 535h454l-227 612z" />
<glyph unicode="&#xc4;" horiz-adv-x="1286" d="M25 0l528 1366h182l527 -1366h-199l-139 377h-572l-137 -377h-190zM332 1669q0 53 23.5 75.5t74.5 22.5t76.5 -22.5t25.5 -75.5q0 -100 -102 -100q-98 0 -98 100zM412 535h454l-227 612zM772 1669q0 53 23.5 75.5t75 22.5t77 -22.5t25.5 -75.5q0 -100 -103 -100 q-98 0 -98 100z" />
<glyph unicode="&#xc5;" horiz-adv-x="1286" d="M25 0l495 1288q-123 37 -123 225q0 127 57.5 174.5t186.5 47.5q131 0 188.5 -50.5t57.5 -177.5q0 -188 -125 -219l498 -1288h-197l-141 377h-570l-139 -377h-188zM410 532h454l-227 615zM518 1499q0 -37 5 -60.5t18.5 -36.5t38 -18.5t63.5 -5.5q76 0 100.5 23.5 t24.5 97.5q0 76 -24.5 102.5t-102.5 26.5t-100.5 -26.5t-22.5 -102.5z" />
<glyph unicode="&#xc6;" horiz-adv-x="1906" d="M4 0l914 1366h843v-164h-635v-420h615v-164h-615v-454h635v-164h-813v377h-487l-248 -377h-209zM565 537h383v581z" />
<glyph unicode="&#xc7;" horiz-adv-x="1325" d="M147 684q0 154 9.5 282t61.5 220t166 143t321 51q119 0 211 -18.5t154.5 -63.5t94 -117.5t31.5 -183.5h-176q0 61 -14.5 103.5t-52.5 67t-102.5 35.5t-164.5 11q-129 0 -200.5 -28.5t-106.5 -91t-42 -164t-7 -248.5t7 -247.5t42 -164t106.5 -91t200.5 -27.5 q100 0 164.5 10t102.5 35.5t52.5 66.5t14.5 103h176q0 -104 -28.5 -176t-86 -116t-140.5 -65.5t-193 -23.5v-70q68 -2 100.5 -40t32.5 -101q0 -78 -39 -120t-133 -42q-88 0 -130 32.5t-42 110.5h96q0 -35 17.5 -46t58.5 -11q47 0 58 18.5t11 53.5q0 37 -20.5 51t-50.5 16 q-12 2 -28 2h-34v146q-186 6 -286.5 60t-147.5 146.5t-55.5 217t-8.5 274.5z" />
<glyph unicode="&#xc8;" horiz-adv-x="1214" d="M172 0v1366h897v-164h-715v-420h695v-164h-695v-454h715v-164h-897zM352 1765h197l272 -258h-196z" />
<glyph unicode="&#xc9;" horiz-adv-x="1214" d="M172 0v1366h897v-164h-715v-420h695v-164h-695v-454h715v-164h-897zM416 1507l272 258h197l-273 -258h-196z" />
<glyph unicode="&#xca;" horiz-adv-x="1214" d="M172 0v1366h897v-164h-715v-420h695v-164h-695v-454h715v-164h-897zM279 1505l268 260h155l269 -260h-185l-161 156l-160 -156h-186z" />
<glyph unicode="&#xcb;" horiz-adv-x="1214" d="M172 0v1366h897v-164h-715v-420h695v-164h-695v-454h715v-164h-897zM319 1667q0 53 24 75.5t75 22.5t76.5 -22.5t25.5 -75.5q0 -100 -102 -100q-99 0 -99 100zM760 1667q0 53 23.5 75.5t74.5 22.5t77 -22.5t26 -75.5q0 -100 -103 -100q-98 0 -98 100z" />
<glyph unicode="&#xcc;" horiz-adv-x="526" d="M61 1765h197l272 -258h-196zM172 0v1366h182v-1366h-182z" />
<glyph unicode="&#xcd;" horiz-adv-x="526" d="M72 1507l272 258h197l-273 -258h-196zM172 0v1366h182v-1366h-182z" />
<glyph unicode="&#xce;" horiz-adv-x="526" d="M-43 1505l268 260h156l268 -260h-184l-162 156l-160 -156h-186zM172 0v1366h182v-1366h-182z" />
<glyph unicode="&#xcf;" horiz-adv-x="526" d="M-18 1667q0 53 23.5 75.5t74.5 22.5t76.5 -22.5t25.5 -75.5q0 -100 -102 -100q-98 0 -98 100zM172 0v1366h182v-1366h-182zM422 1667q0 53 23.5 75.5t74.5 22.5t77 -22.5t26 -75.5q0 -100 -103 -100q-98 0 -98 100z" />
<glyph unicode="&#xd0;" horiz-adv-x="1409" d="M51 606v164h156v596h491q188 0 299 -38t179 -140q25 -39 42 -83t26 -102.5t13.5 -136.5t4.5 -184.5t-4.5 -184t-13.5 -136t-25.5 -101.5t-40.5 -82q-35 -51 -78 -86t-100.5 -55.5t-132 -28.5t-169.5 -8h-491v606h-156zM387 166h299q70 0 122 4t91 14.5t65.5 28.5t47.5 47 q18 25 30.5 59.5t20.5 84t12 118t4 160.5t-4 160.5t-12 118t-20.5 84t-30.5 59.5q-20 29 -47 47t-66 29.5t-91 15.5t-122 4h-299v-430h367v-164h-367v-440z" />
<glyph unicode="&#xd1;" horiz-adv-x="1341" d="M172 0v1366h190l631 -1059v1059h176v-1366h-192l-629 1065v-1065h-176zM279 1663l93 50q48 26 98 41q44 14 89 14q6 0 12 -1q51 -2 107 -34l48 -31q22 -14 46.5 -20.5t52 -3.5t66.5 24l121 63l63 -118l-94 -52q-47 -27 -96 -42q-43 -14 -89 -13h-12q-51 2 -106 35l-48 31 q-22 14 -46.5 20t-53 3t-67.5 -23l-121 -62z" />
<glyph unicode="&#xd2;" horiz-adv-x="1380" d="M147 684q0 154 8.5 282t58.5 220t160.5 143t313.5 51t313.5 -50t161.5 -142t60.5 -220t9.5 -282q0 -160 -10.5 -290t-62.5 -221t-161.5 -141t-308.5 -50q-203 0 -313.5 52t-161.5 144t-59.5 221t-8.5 283zM328 682q0 -98 3 -167t10 -117t18.5 -80.5t27.5 -59.5 q35 -57 104.5 -81.5t198.5 -24.5q127 0 195.5 24.5t105.5 81.5q16 27 27.5 59.5t18.5 82t10.5 118t3.5 166.5t-3.5 167t-10.5 117t-18 80.5t-28 59.5q-37 57 -105.5 81.5t-197.5 24.5t-198.5 -25.5t-104.5 -82.5q-16 -27 -27.5 -59.5t-17.5 -80.5t-9 -117t-3 -167zM465 1765 h197l272 -258h-197z" />
<glyph unicode="&#xd3;" horiz-adv-x="1380" d="M147 684q0 154 8.5 282t58.5 220t160.5 143t313.5 51t313.5 -50t161.5 -142t60.5 -220t9.5 -282q0 -160 -10.5 -290t-62.5 -221t-161.5 -141t-308.5 -50q-203 0 -313.5 52t-161.5 144t-59.5 221t-8.5 283zM328 682q0 -98 3 -167t10 -117t18.5 -80.5t27.5 -59.5 q35 -57 104.5 -81.5t198.5 -24.5q127 0 195.5 24.5t105.5 81.5q16 27 27.5 59.5t18.5 82t10.5 118t3.5 166.5t-3.5 167t-10.5 117t-18 80.5t-28 59.5q-37 57 -105.5 81.5t-197.5 24.5t-198.5 -25.5t-104.5 -82.5q-16 -27 -27.5 -59.5t-17.5 -80.5t-9 -117t-3 -167zM442 1507 l273 258h196l-272 -258h-197z" />
<glyph unicode="&#xd4;" horiz-adv-x="1380" d="M147 684q0 154 8.5 282t58.5 220t160.5 143t313.5 51t313.5 -50t161.5 -142t60.5 -220t9.5 -282q0 -160 -10.5 -290t-62.5 -221t-161.5 -141t-308.5 -50q-203 0 -313.5 52t-161.5 144t-59.5 221t-8.5 283zM328 682q0 -98 3 -167t10 -117t18.5 -80.5t27.5 -59.5 q35 -57 104.5 -81.5t198.5 -24.5q127 0 195.5 24.5t105.5 81.5q16 27 27.5 59.5t18.5 82t10.5 118t3.5 166.5t-3.5 167t-10.5 117t-18 80.5t-28 59.5q-37 57 -105.5 81.5t-197.5 24.5t-198.5 -25.5t-104.5 -82.5q-16 -27 -27.5 -59.5t-17.5 -80.5t-9 -117t-3 -167zM342 1505 l268 260h156l268 -260h-184l-162 156l-160 -156h-186z" />
<glyph unicode="&#xd5;" horiz-adv-x="1380" d="M147 684q0 154 8.5 282t58.5 220t160.5 143t313.5 51t313.5 -50t161.5 -142t60.5 -220t9.5 -282q0 -160 -10.5 -290t-62.5 -221t-161.5 -141t-308.5 -50q-203 0 -313.5 52t-161.5 144t-59.5 221t-8.5 283zM291 1663l93 50q48 26 98 41q44 14 90 14q6 0 12 -1 q51 -2 106 -34l48 -31q22 -14 46.5 -20.5t52 -3.5t66.5 24l121 63l63 -118l-94 -52q-47 -27 -96 -42q-43 -14 -88 -13h-12q-51 2 -107 35l-48 31q-22 14 -46.5 20t-53 3t-67.5 -23l-121 -62zM328 682q0 -98 3 -167t10 -117t18.5 -80.5t27.5 -59.5q35 -57 104.5 -81.5 t198.5 -24.5q127 0 195.5 24.5t105.5 81.5q16 27 27.5 59.5t18.5 82t10.5 118t3.5 166.5t-3.5 167t-10.5 117t-18 80.5t-28 59.5q-37 57 -105.5 81.5t-197.5 24.5t-198.5 -25.5t-104.5 -82.5q-16 -27 -27.5 -59.5t-17.5 -80.5t-9 -117t-3 -167z" />
<glyph unicode="&#xd6;" horiz-adv-x="1380" d="M147 684q0 154 8.5 282t58.5 220t160.5 143t313.5 51t313.5 -50t161.5 -142t60.5 -220t9.5 -282q0 -160 -10.5 -290t-62.5 -221t-161.5 -141t-308.5 -50q-203 0 -313.5 52t-161.5 144t-59.5 221t-8.5 283zM328 682q0 -98 3 -167t10 -117t18.5 -80.5t27.5 -59.5 q35 -57 104.5 -81.5t198.5 -24.5q127 0 195.5 24.5t105.5 81.5q16 27 27.5 59.5t18.5 82t10.5 118t3.5 166.5t-3.5 167t-10.5 117t-18 80.5t-28 59.5q-37 57 -105.5 81.5t-197.5 24.5t-198.5 -25.5t-104.5 -82.5q-16 -27 -27.5 -59.5t-17.5 -80.5t-9 -117t-3 -167zM377 1669 q0 53 23.5 75.5t74.5 22.5t77 -22.5t26 -75.5q0 -100 -103 -100q-98 0 -98 100zM817 1669q0 53 23.5 75.5t75 22.5t77 -22.5t25.5 -75.5q0 -100 -103 -100q-98 0 -98 100z" />
<glyph unicode="&#xd7;" d="M119 152l366 364l-366 369l110 110l365 -368l369 368l110 -110l-368 -369l368 -364l-110 -111l-369 367l-365 -367z" />
<glyph unicode="&#xd8;" horiz-adv-x="1380" d="M147 688q2 154 11.5 282t60.5 220t162 142q106 48 298 48h15q25 0 49.5 -1t28.5 -1l62 275l151 -37l-59 -260q113 -31 175 -87.5t92 -141.5t36 -196q5 -84 4 -182v-67q-2 -160 -13.5 -290t-63.5 -221t-163 -140q-106 -47 -293 -47h-16q-16 0 -42 1t-36 1l-63 -279 l-152 33l64 270q-117 29 -179.5 90.5t-91 148.5t-33 198.5t-4.5 240.5zM328 686q0 -98 2 -166.5t8 -118t17.5 -82t27.5 -59.5q27 -41 60.5 -59.5t50.5 -22.5l237 1034q-10 2 -39 2q-10 0 -19 1q-115 0 -178 -24q-69 -26 -106 -83q-16 -27 -27.5 -58.5t-18.5 -79.5t-11 -117 t-4 -167zM647 154q14 -2 21 -2h18q9 0 19 -1q114 0 177 24q69 26 105 81q16 27 28.5 59.5t19.5 80.5t11.5 117t4.5 167t-2 166.5t-8.5 118t-17.5 82t-28 59.5q-6 10 -30.5 37.5t-77.5 44.5z" />
<glyph unicode="&#xd9;" horiz-adv-x="1335" d="M160 507v179v680h182v-680q0 -150 2 -251t31 -163q29 -59 97.5 -90.5t195.5 -31.5q129 0 197.5 30.5t97 90t30.5 162t2 253.5v680h181v-680v-179q0 -71 -5 -120q-6 -96 -32 -166q-49 -125 -170 -181t-301.5 -56t-301 56t-169.5 181q-27 70 -33 166q-4 49 -4 120z M416 1765h196l273 -258h-197z" />
<glyph unicode="&#xda;" horiz-adv-x="1335" d="M160 507v179v680h182v-680q0 -150 2 -251t31 -163q29 -59 97.5 -90.5t195.5 -31.5q129 0 197.5 30.5t97 90t30.5 162t2 253.5v680h181v-680v-179q0 -71 -5 -120q-6 -96 -32 -166q-49 -125 -170 -181t-301.5 -56t-301 56t-169.5 181q-27 70 -33 166q-4 49 -4 120z M471 1507l272 258h197l-272 -258h-197z" />
<glyph unicode="&#xdb;" horiz-adv-x="1335" d="M160 507v179v680h182v-680q0 -150 2 -251t31 -163q29 -59 97.5 -90.5t195.5 -31.5q129 0 197.5 30.5t97 90t30.5 162t2 253.5v680h181v-680v-179q0 -71 -5 -120q-6 -96 -32 -166q-49 -125 -170 -181t-301.5 -56t-301 56t-169.5 181q-27 70 -33 166q-4 49 -4 120z M336 1505l268 260h156l268 -260h-184l-162 156l-160 -156h-186z" />
<glyph unicode="&#xdc;" horiz-adv-x="1335" d="M160 507v179v680h182v-680q0 -150 2 -251t31 -163q29 -59 97.5 -90.5t195.5 -31.5q129 0 197.5 30.5t97 90t30.5 162t2 253.5v680h181v-680v-179q0 -71 -5 -120q-6 -96 -32 -166q-49 -125 -170 -181t-301.5 -56t-301 56t-169.5 181q-27 70 -33 166q-4 49 -4 120z M360 1669q0 53 24 75.5t75 22.5t76.5 -22.5t25.5 -75.5q0 -100 -102 -100q-99 0 -99 100zM801 1669q0 53 23.5 75.5t74.5 22.5t76.5 -22.5t25.5 -75.5q0 -100 -102 -100q-98 0 -98 100z" />
<glyph unicode="&#xdd;" horiz-adv-x="1163" d="M4 1366h209l373 -604l368 604h205l-485 -770v-596h-182v596zM369 1507l272 258h197l-273 -258h-196z" />
<glyph unicode="&#xde;" horiz-adv-x="1259" d="M172 0v1366h182v-287h283q117 0 215 -7t170 -44t112 -115.5t40 -222.5q0 -145 -40 -225t-111 -118t-170 -46t-216 -8h-283v-293h-182zM354 457h279q72 0 145.5 1t122.5 25q37 18 64.5 63.5t27.5 139.5t-27.5 139t-64.5 64q-49 25 -122.5 25.5t-145.5 0.5h-279v-458z" />
<glyph unicode="&#xdf;" horiz-adv-x="1159" d="M143 0v983v92q0 47 7.5 93t25 88t53.5 77q55 53 145.5 81t200.5 28q221 0 329 -83t108 -288q0 -111 -31 -195.5t-117 -123.5q96 -37 129 -127t33 -224q0 -121 -30.5 -198.5t-89 -122.5t-143.5 -62.5t-192 -17.5h-125v158h129q78 0 130.5 10t85 37.5t46 76t13.5 121.5 q0 84 -14.5 136.5t-48 82t-90 40t-138.5 10.5h-113v157h113q68 0 120 7.5t88 31t54.5 68.5t18.5 123q0 63 -11.5 106t-40 70t-80 37t-133.5 10q-92 0 -143 -18.5t-76.5 -54t-32 -91t-6.5 -129.5v-989h-174z" />
<glyph unicode="&#xe0;" horiz-adv-x="1103" d="M96 293q0 104 34 166.5t90 95.5t131 43t155 10h293q0 63 -3 109.5t-27 77t-75 45t-145 14.5q-43 0 -88 -3t-83 -17.5t-61.5 -44t-23.5 -82.5h-168q0 92 34 150t93 92t139 46.5t172 12.5q156 0 240 -39t121 -99.5t42 -130t5 -131.5v-608h-160v96q-45 -53 -129 -82.5 t-201 -29.5q-184 0 -284.5 69.5t-100.5 239.5zM272 295q0 -84 47.5 -123t178.5 -39q104 0 164.5 20.5t91 61.5t39 102.5t8.5 143.5h-303q-57 0 -100.5 -6t-71 -23.5t-41 -50.5t-13.5 -86zM301 1366h197l272 -258h-197z" />
<glyph unicode="&#xe1;" horiz-adv-x="1103" d="M96 293q0 104 34 166.5t90 95.5t131 43t155 10h293q0 63 -3 109.5t-27 77t-75 45t-145 14.5q-43 0 -88 -3t-83 -17.5t-61.5 -44t-23.5 -82.5h-168q0 92 34 150t93 92t139 46.5t172 12.5q156 0 240 -39t121 -99.5t42 -130t5 -131.5v-608h-160v96q-45 -53 -129 -82.5 t-201 -29.5q-184 0 -284.5 69.5t-100.5 239.5zM272 295q0 -84 47.5 -123t178.5 -39q104 0 164.5 20.5t91 61.5t39 102.5t8.5 143.5h-303q-57 0 -100.5 -6t-71 -23.5t-41 -50.5t-13.5 -86zM342 1108l272 258h197l-272 -258h-197z" />
<glyph unicode="&#xe2;" horiz-adv-x="1103" d="M96 293q0 104 34 166.5t90 95.5t131 43t155 10h293q0 63 -3 109.5t-27 77t-75 45t-145 14.5q-43 0 -88 -3t-83 -17.5t-61.5 -44t-23.5 -82.5h-168q0 92 34 150t93 92t139 46.5t172 12.5q156 0 240 -39t121 -99.5t42 -130t5 -131.5v-608h-160v96q-45 -53 -129 -82.5 t-201 -29.5q-184 0 -284.5 69.5t-100.5 239.5zM211 1106l268 260h156l268 -260h-184l-162 156l-160 -156h-186zM272 295q0 -84 47.5 -123t178.5 -39q104 0 164.5 20.5t91 61.5t39 102.5t8.5 143.5h-303q-57 0 -100.5 -6t-71 -23.5t-41 -50.5t-13.5 -86z" />
<glyph unicode="&#xe3;" horiz-adv-x="1103" d="M96 293q0 104 34 166.5t90 95.5t131 43t155 10h293q0 63 -3 109.5t-27 77t-75 45t-145 14.5q-43 0 -88 -3t-83 -17.5t-61.5 -44t-23.5 -82.5h-168q0 92 34 150t93 92t139 46.5t172 12.5q156 0 240 -39t121 -99.5t42 -130t5 -131.5v-608h-160v96q-45 -53 -129 -82.5 t-201 -29.5q-184 0 -284.5 69.5t-100.5 239.5zM156 1264l93 50q48 26 98 41q44 14 89 13h13q51 -2 106 -35l48 -30q22 -14 46.5 -20.5t52 -3.5t66.5 24l121 63l63 -119l-94 -51q-47 -27 -96 -42q-43 -14 -88 -14q-6 0 -12 1q-51 2 -107 35l-48 30q-22 14 -46.5 20.5t-53 3.5 t-67.5 -24l-121 -61zM272 295q0 -84 47.5 -123t178.5 -39q104 0 164.5 20.5t91 61.5t39 102.5t8.5 143.5h-303q-57 0 -100.5 -6t-71 -23.5t-41 -50.5t-13.5 -86z" />
<glyph unicode="&#xe4;" horiz-adv-x="1103" d="M96 293q0 104 34 166.5t90 95.5t131 43t155 10h293q0 63 -3 109.5t-27 77t-75 45t-145 14.5q-43 0 -88 -3t-83 -17.5t-61.5 -44t-23.5 -82.5h-168q0 92 34 150t93 92t139 46.5t172 12.5q156 0 240 -39t121 -99.5t42 -130t5 -131.5v-608h-160v96q-45 -53 -129 -82.5 t-201 -29.5q-184 0 -284.5 69.5t-100.5 239.5zM236 1268q0 53 23.5 75.5t74.5 22.5t76.5 -22.5t25.5 -75.5q0 -100 -102 -101q-98 1 -98 101zM272 295q0 -84 47.5 -123t178.5 -39q104 0 164.5 20.5t91 61.5t39 102.5t8.5 143.5h-303q-57 0 -100.5 -6t-71 -23.5t-41 -50.5 t-13.5 -86zM676 1268q0 53 23.5 75.5t74.5 22.5t77 -22.5t26 -75.5q0 -100 -103 -101q-98 1 -98 101z" />
<glyph unicode="&#xe5;" horiz-adv-x="1103" d="M96 293q0 104 34 166.5t90 95.5t131 43t155 10h293q0 63 -3 109.5t-27 77t-75 45t-145 14.5q-43 0 -88 -3t-83 -17.5t-61.5 -44t-23.5 -82.5h-168q0 127 63.5 191.5t165.5 88.5q-25 23 -32 66t-7 92q0 125 56.5 173t189.5 48t189.5 -47t56.5 -174q0 -49 -10.5 -94 t-32.5 -68q80 -25 122 -68t61.5 -95t21.5 -107.5t2 -104.5v-608h-160v96q-45 -53 -129 -82.5t-201 -29.5q-184 0 -284.5 69.5t-100.5 239.5zM272 295q0 -84 47.5 -123t178.5 -39q104 0 164.5 20.5t91 61.5t39 102.5t8.5 143.5h-303q-57 0 -100.5 -6t-71 -23.5t-41 -50.5 t-13.5 -86zM432 1126q0 -39 5 -63.5t19.5 -37.5t39 -18.5t65.5 -5.5q76 0 100.5 25t24.5 100q0 78 -25.5 106t-103.5 28q-80 0 -102.5 -29t-22.5 -105z" />
<glyph unicode="&#xe6;" horiz-adv-x="1789" d="M96 287q0 104 35 166.5t92.5 95.5t132 42t154.5 9h297q0 72 -7 121t-33 78.5t-76 42t-138 12.5q-43 0 -89 -3t-84 -17.5t-62.5 -44t-24.5 -82.5h-168q0 88 34 146t92 93t136 48.5t168 13.5q129 0 218 -28t136 -99q94 127 332 127q156 0 244 -40t131 -113t52 -176.5 t9 -229.5h-702q0 -78 9 -137.5t39 -98.5t83 -58.5t143 -19.5q41 0 85 4t81 20.5t61.5 46.5t24.5 83h164q0 -92 -36 -151.5t-95 -93.5t-135 -47t-156 -13q-268 0 -356 149q-63 -86 -167 -117.5t-233 -31.5q-184 0 -287.5 66.5t-103.5 236.5zM272 289q0 -84 50.5 -120 t179.5 -36q104 0 164.5 18.5t91 56.5t40 98.5t9.5 144.5h-305q-57 0 -100.5 -5.5t-72 -22.5t-43 -49t-14.5 -85zM977 598h528q0 72 -11 121t-42 79.5t-82 45t-131 14.5q-78 0 -128 -16.5t-80 -48t-42 -80.5t-12 -115z" />
<glyph unicode="&#xe7;" horiz-adv-x="1071" d="M113 498q0 111 13 204t58 161.5t133.5 106.5t239.5 38q74 0 147.5 -11.5t132 -45.5t95.5 -93t37 -156h-166q0 51 -22.5 81t-57.5 44.5t-78 18.5t-84 4q-94 0 -148.5 -20.5t-82 -63.5t-34.5 -109.5t-7 -158.5t7 -159t34.5 -111t82 -65.5t148.5 -21.5q41 0 84 4t78 18.5 t57.5 44.5t22.5 81h166q0 -88 -31 -145.5t-81 -91.5t-115.5 -49t-133.5 -17v-70q68 -2 100.5 -40t32.5 -101q0 -78 -38.5 -120t-133.5 -42q-88 0 -130 32.5t-42 110.5h97q0 -35 17 -46t58 -11q47 0 58.5 18.5t11.5 53.5q0 37 -20.5 51t-51.5 16q-12 2 -27 2h-34v146 q-127 6 -205 44t-120 104.5t-55 157.5t-13 206z" />
<glyph unicode="&#xe8;" horiz-adv-x="1101" d="M113 487q0 117 15 213.5t61.5 164t133.5 105.5t230 38q156 0 244 -42t131 -117t52 -180.5t9 -232.5h-700q0 -78 9 -135t39 -94t83 -54.5t143 -17.5q41 0 85 4t81 20.5t60.5 46.5t23.5 83h164q0 -94 -38 -153.5t-97.5 -93.5t-134 -46t-148.5 -12q-145 0 -233 35.5 t-135.5 101t-62.5 158.5t-15 208zM291 586h526q0 72 -9 123t-38 84.5t-81 49t-136 15.5q-80 0 -131 -17.5t-81 -52t-40 -85.5t-10 -117zM297 1366h197l272 -258h-197z" />
<glyph unicode="&#xe9;" horiz-adv-x="1101" d="M113 487q0 117 15 213.5t61.5 164t133.5 105.5t230 38q156 0 244 -42t131 -117t52 -180.5t9 -232.5h-700q0 -78 9 -135t39 -94t83 -54.5t143 -17.5q41 0 85 4t81 20.5t60.5 46.5t23.5 83h164q0 -94 -38 -153.5t-97.5 -93.5t-134 -46t-148.5 -12q-145 0 -233 35.5 t-135.5 101t-62.5 158.5t-15 208zM291 586h526q0 72 -9 123t-38 84.5t-81 49t-136 15.5q-80 0 -131 -17.5t-81 -52t-40 -85.5t-10 -117zM340 1108l272 258h197l-272 -258h-197z" />
<glyph unicode="&#xea;" horiz-adv-x="1101" d="M113 487q0 117 15 213.5t61.5 164t133.5 105.5t230 38q156 0 244 -42t131 -117t52 -180.5t9 -232.5h-700q0 -78 9 -135t39 -94t83 -54.5t143 -17.5q41 0 85 4t81 20.5t60.5 46.5t23.5 83h164q0 -94 -38 -153.5t-97.5 -93.5t-134 -46t-148.5 -12q-145 0 -233 35.5 t-135.5 101t-62.5 158.5t-15 208zM207 1106l268 260h156l268 -260h-184l-162 156l-160 -156h-186zM291 586h526q0 72 -9 123t-38 84.5t-81 49t-136 15.5q-80 0 -131 -17.5t-81 -52t-40 -85.5t-10 -117z" />
<glyph unicode="&#xeb;" horiz-adv-x="1101" d="M113 487q0 117 15 213.5t61.5 164t133.5 105.5t230 38q156 0 244 -42t131 -117t52 -180.5t9 -232.5h-700q0 -78 9 -135t39 -94t83 -54.5t143 -17.5q41 0 85 4t81 20.5t60.5 46.5t23.5 83h164q0 -94 -38 -153.5t-97.5 -93.5t-134 -46t-148.5 -12q-145 0 -233 35.5 t-135.5 101t-62.5 158.5t-15 208zM233 1268q0 53 24 75.5t75 22.5t76.5 -22.5t25.5 -75.5q0 -100 -102 -101q-99 1 -99 101zM291 586h526q0 72 -9 123t-38 84.5t-81 49t-136 15.5q-80 0 -131 -17.5t-81 -52t-40 -85.5t-10 -117zM674 1268q0 53 23.5 75.5t74.5 22.5 t76.5 -22.5t25.5 -75.5q0 -100 -102 -101q-98 1 -98 101z" />
<glyph unicode="&#xec;" horiz-adv-x="454" d="M14 1366h197l272 -258h-196zM143 0v991h174v-991h-174z" />
<glyph unicode="&#xed;" horiz-adv-x="454" d="M10 1108l273 258h196l-272 -258h-197zM143 0v991h174v-991h-174z" />
<glyph unicode="&#xee;" horiz-adv-x="454" d="M-100 1106l268 260h156l268 -260h-184l-162 156l-160 -156h-186zM143 0v991h174v-991h-174z" />
<glyph unicode="&#xef;" horiz-adv-x="454" d="M-72 1268q0 53 23.5 75.5t75 22.5t77 -22.5t25.5 -75.5q0 -100 -102 -101q-99 1 -99 101zM143 0v991h174v-991h-174zM369 1268q0 53 23.5 75.5t74.5 22.5t76.5 -22.5t25.5 -75.5q0 -100 -102 -101q-98 1 -98 101z" />
<glyph unicode="&#xf0;" horiz-adv-x="1130" d="M113 498q0 92 10 179t47 154.5t110.5 110.5t202.5 51q33 2 65 2t62 -4l-196 199l-117 -98l-90 90l117 100l-95 94l117 105l94 -97l109 97l88 -90l-107 -95l304 -309q51 -53 85.5 -102t56 -106.5t32 -126t10.5 -156.5q0 -129 -18.5 -225.5t-68.5 -160t-138 -95t-228 -31.5 q-141 0 -230 31.5t-138.5 95t-66.5 161t-17 226.5zM285 496q0 -92 6 -159t32.5 -110t83 -63.5t158.5 -20.5q100 0 156.5 21.5t83 64.5t33 110t6.5 157q0 104 -16.5 171.5t-53.5 105.5t-94 53.5t-139 15.5q-86 0 -137.5 -23.5t-78 -67.5t-33.5 -108.5t-7 -146.5z" />
<glyph unicode="&#xf1;" horiz-adv-x="1112" d="M143 0v991h158v-96q47 51 120 82t183 31q152 0 229.5 -42t109.5 -110t34 -150.5t2 -162.5v-543h-174v522q0 80 -1 140.5t-19.5 101.5t-63.5 61.5t-133 20.5q-104 0 -159.5 -33t-80 -86t-28 -124t-3.5 -146v-457h-174zM160 1264l93 50q48 26 98 41q44 14 90 13h12 q51 -2 106 -35l48 -30q22 -14 46.5 -20.5t52 -3.5t66.5 24l121 63l63 -119l-94 -51q-47 -27 -96 -42q-43 -14 -88 -14q-6 0 -12 1q-51 2 -107 35l-48 30q-22 14 -46.5 20.5t-53 3.5t-67.5 -24l-121 -61z" />
<glyph unicode="&#xf2;" horiz-adv-x="1136" d="M113 495.5q0 151.5 20.5 247t79.5 154.5t146 85t210 26q121 0 208 -26t146.5 -85t80 -154.5t20.5 -247t-20.5 -246.5t-80 -154.5t-146.5 -85t-208 -25.5q-123 0 -210 25.5t-146 85t-79.5 154.5t-20.5 246.5zM289 496q0 -90 7 -157t34.5 -111t84 -65.5t155 -21.5 t154.5 21.5t84 65.5t34 111t6 157q0 92 -7 158.5t-35 110.5t-83 64.5t-153.5 20.5t-155 -21.5t-84 -65.5t-34.5 -110.5t-7 -156.5zM356 1366h197l272 -258h-196z" />
<glyph unicode="&#xf3;" horiz-adv-x="1136" d="M113 495.5q0 151.5 20.5 247t79.5 154.5t146 85t210 26q121 0 208 -26t146.5 -85t80 -154.5t20.5 -247t-20.5 -246.5t-80 -154.5t-146.5 -85t-208 -25.5q-123 0 -210 25.5t-146 85t-79.5 154.5t-20.5 246.5zM289 496q0 -90 7 -157t34.5 -111t84 -65.5t155 -21.5 t154.5 21.5t84 65.5t34 111t6 157q0 92 -7 158.5t-35 110.5t-83 64.5t-153.5 20.5t-155 -21.5t-84 -65.5t-34.5 -110.5t-7 -156.5zM317 1108l273 258h196l-272 -258h-197z" />
<glyph unicode="&#xf4;" horiz-adv-x="1136" d="M113 495.5q0 151.5 20.5 247t79.5 154.5t146 85t210 26q121 0 208 -26t146.5 -85t80 -154.5t20.5 -247t-20.5 -246.5t-80 -154.5t-146.5 -85t-208 -25.5q-123 0 -210 25.5t-146 85t-79.5 154.5t-20.5 246.5zM227 1106l269 260h155l269 -260h-185l-162 156l-159 -156h-187 zM289 496q0 -90 7 -157t34.5 -111t84 -65.5t155 -21.5t154.5 21.5t84 65.5t34 111t6 157q0 92 -7 158.5t-35 110.5t-83 64.5t-153.5 20.5t-155 -21.5t-84 -65.5t-34.5 -110.5t-7 -156.5z" />
<glyph unicode="&#xf5;" horiz-adv-x="1136" d="M113 495.5q0 151.5 20.5 247t79.5 154.5t146 85t210 26q121 0 208 -26t146.5 -85t80 -154.5t20.5 -247t-20.5 -246.5t-80 -154.5t-146.5 -85t-208 -25.5q-123 0 -210 25.5t-146 85t-79.5 154.5t-20.5 246.5zM176 1264l93 50q48 26 99 41q44 14 89 13h12q51 -2 106 -35 l49 -30q22 -14 46 -20.5t52 -3.5t66 24l121 63l64 -119l-94 -51q-47 -27 -97 -42q-43 -14 -88 -14q-6 0 -12 1q-51 2 -107 35l-48 30q-22 14 -46 20.5t-53 3.5t-68 -24l-120 -61zM289 496q0 -90 7 -157t34.5 -111t84 -65.5t155 -21.5t154.5 21.5t84 65.5t34 111t6 157 q0 92 -7 158.5t-35 110.5t-83 64.5t-153.5 20.5t-155 -21.5t-84 -65.5t-34.5 -110.5t-7 -156.5z" />
<glyph unicode="&#xf6;" horiz-adv-x="1136" d="M113 495.5q0 151.5 20.5 247t79.5 154.5t146 85t210 26q121 0 208 -26t146.5 -85t80 -154.5t20.5 -247t-20.5 -246.5t-80 -154.5t-146.5 -85t-208 -25.5q-123 0 -210 25.5t-146 85t-79.5 154.5t-20.5 246.5zM254 1268q0 53 23.5 75.5t74.5 22.5t77 -22.5t26 -75.5 q0 -100 -103 -101q-98 1 -98 101zM289 496q0 -90 7 -157t34.5 -111t84 -65.5t155 -21.5t154.5 21.5t84 65.5t34 111t6 157q0 92 -7 158.5t-35 110.5t-83 64.5t-153.5 20.5t-155 -21.5t-84 -65.5t-34.5 -110.5t-7 -156.5zM694 1268q0 53 23.5 75.5t75 22.5t77 -22.5 t25.5 -75.5q0 -100 -102 -101q-99 1 -99 101z" />
<glyph unicode="&#xf7;" d="M78 418v157h1036v-157h-1036zM485 98q0 111 113 111q111 0 111 -111q0 -53 -28 -83.5t-83 -30.5t-84 30.5t-29 83.5zM485 897q0 111 113 111q111 0 111 -111q0 -53 -28 -84t-83 -31t-84 31t-29 84z" />
<glyph unicode="&#xf8;" horiz-adv-x="1136" d="M113 500q2 154 23.5 247t80.5 152q61 59 148 85q80 24 190 24h18h51q26 0 48 -4l67 180l148 -54l-64 -165q74 -31 115 -83.5t60.5 -116t22.5 -134t3 -139.5q-2 -145 -22.5 -242.5t-82 -157t-146.5 -85.5q-79 -24 -190 -24q-9 0 -18 1h-51q-27 0 -49 4l-72 -193l-149 53 l69 181q-74 33 -114.5 83t-60 112.5t-22.5 133t-3 142.5zM289 498v-29q0 -98 12 -164q14 -76 74 -117q6 18 26 74l48 129l56 154l54 147l41 112l16 44q-14 2 -22 2h-21q-98 0 -155.5 -20.5t-85 -64.5t-35.5 -110.5t-8 -156.5zM524 143q14 -2 27 -2h24q98 0 152.5 20.5 t81.5 64.5t33 110.5t6 157.5q0 88 -5 142t-16.5 86t-27 50.5t-33.5 34.5z" />
<glyph unicode="&#xf9;" horiz-adv-x="1112" d="M133 451v540h176v-522v-140q0 -60 18.5 -101.5t63.5 -62t135 -20.5q104 0 159.5 33t79 86t27 124t3.5 147v456h174v-991h-162v98q-47 -51 -120 -82.5t-183 -31.5q-145 0 -221 42t-110 108.5t-37 149.5t-3 167zM326 1366h196l273 -258h-197z" />
<glyph unicode="&#xfa;" horiz-adv-x="1112" d="M133 451v540h176v-522v-140q0 -60 18.5 -101.5t63.5 -62t135 -20.5q104 0 159.5 33t79 86t27 124t3.5 147v456h174v-991h-162v98q-47 -51 -120 -82.5t-183 -31.5q-145 0 -221 42t-110 108.5t-37 149.5t-3 167zM348 1108l273 258h196l-272 -258h-197z" />
<glyph unicode="&#xfb;" horiz-adv-x="1112" d="M133 451v540h176v-522v-140q0 -60 18.5 -101.5t63.5 -62t135 -20.5q104 0 159.5 33t79 86t27 124t3.5 147v456h174v-991h-162v98q-47 -51 -120 -82.5t-183 -31.5q-145 0 -221 42t-110 108.5t-37 149.5t-3 167zM213 1106l268 260h156l268 -260h-184l-162 156l-160 -156 h-186z" />
<glyph unicode="&#xfc;" horiz-adv-x="1112" d="M133 451v540h176v-522v-140q0 -60 18.5 -101.5t63.5 -62t135 -20.5q104 0 159.5 33t79 86t27 124t3.5 147v456h174v-991h-162v98q-47 -51 -120 -82.5t-183 -31.5q-145 0 -221 42t-110 108.5t-37 149.5t-3 167zM242 1268q0 53 23.5 75.5t74.5 22.5t76.5 -22.5t25.5 -75.5 q0 -100 -102 -101q-98 1 -98 101zM682 1268q0 53 23.5 75.5t74.5 22.5t77 -22.5t26 -75.5q0 -100 -103 -101q-98 1 -98 101z" />
<glyph unicode="&#xfd;" horiz-adv-x="966" d="M29 991h182l276 -776l273 776h182l-522 -1382h-178l155 403zM274 1108l273 258h196l-272 -258h-197z" />
<glyph unicode="&#xfe;" horiz-adv-x="1140" d="M143 -391v1818h172v-530q53 55 133 83t177 28q137 0 217 -38t121 -105.5t53 -162t12 -208.5q0 -96 -11 -187.5t-52 -163t-125 -115.5t-228 -44q-98 0 -169.5 24.5t-125.5 85.5v-485h-174zM317 493.5q0 -104.5 14.5 -173t48.5 -107.5t91 -54.5t141 -15.5q78 0 125 20.5 t74 63.5t35 109.5t8 159t-8 158t-35 107.5t-74 62.5t-125 20.5q-86 0 -142 -15.5t-90 -54.5t-48.5 -107.5t-14.5 -173z" />
<glyph unicode="&#xff;" horiz-adv-x="966" d="M29 991h182l276 -776l273 776h182l-522 -1382h-178l155 403zM168 1268q0 53 23.5 75.5t74.5 22.5t77 -22.5t26 -75.5q0 -100 -103 -101q-98 1 -98 101zM608 1268q0 53 23.5 75.5t75 22.5t77 -22.5t25.5 -75.5q0 -100 -102 -101q-99 1 -99 101z" />
<glyph unicode="&#x152;" horiz-adv-x="1878" d="M147 682q0 104 4.5 182t13.5 137.5t26.5 103.5t41.5 83q33 51 77 86t101.5 55.5t131 28.5t168.5 8h1022v-164h-631v-420h610v-164h-610v-454h631v-164h-1022q-96 0 -171 8t-132.5 28.5t-100.5 55.5t-76 86q-25 39 -41 82t-25 101.5t-13.5 136.5t-4.5 184zM330 682 q0 -92 4 -160.5t12 -118t21.5 -84t29.5 -59.5q43 -63 123 -79.5t203 -16.5h199v1038h-199q-141 0 -214 -20.5t-112 -77.5q-18 -25 -30.5 -59.5t-20.5 -84t-12 -118t-4 -160.5z" />
<glyph unicode="&#x153;" horiz-adv-x="1837" d="M113 495.5q0 151.5 20.5 247t79.5 154.5t147.5 85t210.5 26q131 0 224.5 -39t138.5 -113q88 152 354 152q156 0 244 -42t131 -117t52 -180.5t9 -232.5h-700q0 -78 9 -135t39 -94t83 -54.5t143 -17.5q41 0 85 4t81 20.5t60.5 46.5t23.5 83h164q0 -94 -37 -153.5t-97 -93.5 t-135 -46t-149 -12q-133 0 -225 38.5t-135 112.5q-45 -74 -139.5 -112.5t-225.5 -38.5q-123 0 -210 25.5t-146 85t-79.5 154.5t-20.5 246.5zM289 496q0 -90 7 -157t34.5 -111t84 -65.5t155 -21.5t154.5 21.5t84 64.5t34 109.5t6 157.5q0 92 -7 159.5t-35 110.5t-83 64.5 t-153.5 21.5t-155 -21.5t-84 -65.5t-34.5 -110.5t-7 -156.5zM1026 586h526q0 72 -9 123t-37.5 84.5t-81 49t-136.5 15.5q-82 0 -133 -17.5t-79.5 -52t-39 -85.5t-10.5 -117z" />
<glyph unicode="&#x178;" horiz-adv-x="1163" d="M4 1366h209l373 -604l368 604h205l-485 -770v-596h-182v596zM264 1667q0 53 23.5 75.5t75 22.5t77 -22.5t25.5 -75.5q0 -100 -103 -100q-98 0 -98 100zM705 1667q0 53 23.5 75.5t74.5 22.5t76.5 -22.5t25.5 -75.5q0 -100 -102 -100q-98 0 -98 100z" />
<glyph unicode="&#x2c6;" horiz-adv-x="876" d="M92 1106l268 260h156l268 -260h-184l-162 156l-159 -156h-187z" />
<glyph unicode="&#x2dc;" horiz-adv-x="876" d="M41 1264l93 50q48 26 98 41q44 14 90 13h12q51 -2 106 -35l48 -30q22 -14 46.5 -20.5t52 -3.5t66.5 24l121 63l64 -119l-95 -51q-47 -27 -96 -42q-43 -14 -88 -14q-6 0 -12 1q-51 2 -107 35l-48 30q-22 14 -46 20.5t-53 3.5t-68 -24l-121 -61z" />
<glyph unicode="&#x2013;" d="M66 418v157h1060v-157h-1060z" />
<glyph unicode="&#x2014;" horiz-adv-x="2054" d="M203 418v157h1648v-157h-1648z" />
<glyph unicode="&#x2018;" horiz-adv-x="454" d="M152 866v191q0 86 17 143t77 113l76 71l108 -104l-59 -56q-23 -22 -35 -44.5t-17.5 -50t-5.5 -72.5v-191h-161z" />
<glyph unicode="&#x2019;" horiz-adv-x="454" d="M25 952q37 33 59 55.5t34.5 45t17.5 50t5 73.5v190h162v-190q0 -86 -17.5 -143.5t-76.5 -112.5l-76 -72z" />
<glyph unicode="&#x201a;" horiz-adv-x="454" d="M25 -205q37 33 59 55.5t34.5 45t17.5 50t5 72.5v191h162v-191q0 -86 -17.5 -143t-76.5 -113l-76 -71z" />
<glyph unicode="&#x201c;" horiz-adv-x="806" d="M152 866v193q0 86 14 144.5t74 111.5l75 69l111 -102l-58 -56q-22 -22 -34 -44.5t-16.5 -50t-4.5 -72.5v-193h-161zM504 866v191q0 86 17.5 143t76.5 113l76 71l108 -104l-59 -56q-23 -22 -35 -44.5t-17 -50t-5 -72.5v-191h-162z" />
<glyph unicode="&#x201d;" horiz-adv-x="804" d="M25 952q37 33 59 55.5t34.5 45t17.5 50t5 73.5v190h162v-190q0 -86 -17.5 -143.5t-76.5 -112.5l-76 -72zM381 952q37 33 58.5 55.5t32.5 45t15.5 50t4.5 73.5v190h161v-190q0 -86 -15 -143.5t-73 -112.5l-76 -72z" />
<glyph unicode="&#x201e;" horiz-adv-x="806" d="M25 -205q37 33 59 55.5t34.5 45t17.5 50t5 72.5v191h162v-191q0 -86 -17.5 -143t-76.5 -113l-76 -71zM381 -205q37 33 58.5 55.5t33.5 45t16.5 50t4.5 72.5v191h161v-191q0 -86 -15 -143t-73 -113l-75 -71z" />
<glyph unicode="&#x2022;" horiz-adv-x="1017" d="M289 684q0 117 52 169t169 52t168 -52t51 -169t-51 -168t-168 -51t-169 51t-52 168z" />
<glyph unicode="&#x2026;" horiz-adv-x="2027" d="M225 98q0 55 30 83t83 28q111 0 111 -111h2q0 -53 -29 -83.5t-82 -30.5q-55 0 -85 30.5t-30 83.5zM901 98q0 55 30 83t83 28q111 0 110 -111h2q0 -53 -28.5 -83.5t-81.5 -30.5q-55 0 -85 30.5t-30 83.5zM1577 98q0 55 29.5 83t83.5 28q113 0 112 -111q0 -53 -28.5 -83.5 t-81.5 -30.5q-55 0 -85 30.5t-30 83.5z" />
<glyph unicode="&#x2039;" horiz-adv-x="563" d="M88 489q0 61 27.5 122t70.5 116t93 104l92 91l112 -109l-84 -86q-53 -53 -99 -111.5t-46 -123.5q0 -35 14.5 -68t38 -63.5t52.5 -60.5l59 -58l63 -64l-112 -106l-94 88q-50 47 -91 99t-68.5 109.5t-27.5 120.5z" />
<glyph unicode="&#x203a;" horiz-adv-x="563" d="M80 813l113 109l92 -91q49 -49 92 -104t70.5 -115.5t27.5 -122.5q0 -63 -27.5 -120.5t-68.5 -109.5t-91 -99l-93 -88l-113 106l63 64l59 58q30 30 53.5 60.5t37.5 63.5t14 68q0 66 -46 124t-99 111z" />
<glyph unicode="&#x2122;" horiz-adv-x="1732" d="M37 1249v117h655v-117h-260v-772h-133v772h-262zM762 477v889h164l266 -717l268 717h160v-889h-125v658l-242 -658h-131l-235 656v-656h-125z" />
<glyph unicode="&#xe000;" horiz-adv-x="990" d="M0 990h990v-990h-990v990z" />
<glyph unicode="&#xfb01;" horiz-adv-x="1153" d="M45 842v149h160v135q0 170 99 243t265 73q70 0 131.5 -12.5t107.5 -40t71.5 -72.5t25.5 -109h-170q0 25 -14 42.5t-38 27.5t-52.5 15t-59.5 5q-59 0 -97 -11t-59.5 -35.5t-29.5 -60.5t-8 -85v-115h375v-149h-373v-842h-174v842h-160zM836 0v991h174v-991h-174z" />
<glyph unicode="&#xfb02;" horiz-adv-x="1345" d="M45 842v149h160v135q0 170 99 243t265 73q70 0 131.5 -12.5t107.5 -40t71.5 -72.5t25.5 -109h-170q0 25 -14 42.5t-38 27.5t-52.5 15t-59.5 5q-59 0 -97 -11t-59.5 -35.5t-29.5 -60.5t-8 -85v-115h375v-149h-373v-842h-174v842h-160zM1028 0v1427h174v-1427h-174z" />
<glyph unicode="&#xfb03;" horiz-adv-x="2275" d="M45 842v149h160v135q0 170 99 243t265 73q70 0 131.5 -12.5t107.5 -40t71.5 -72.5t25.5 -109h-170q0 25 -14 42.5t-38 27.5t-52.5 15t-59.5 5q-59 0 -97 -11t-59.5 -35.5t-29.5 -60.5t-8 -85v-115h375v-149h-373v-842h-174v842h-160zM952 842v149h160v135q0 170 99.5 243 t265.5 73q70 0 131 -12.5t107 -40t71.5 -72.5t25.5 -109h-170q0 25 -14 42.5t-37.5 27.5t-52.5 15t-59 5q-59 0 -97.5 -11t-60 -35.5t-29.5 -60.5t-8 -85v-115h375v-149h-373v-842h-174v842h-160zM1942 1278q0 31 11 51.5t26.5 31.5t33 15t31.5 4t32.5 -4t34 -15t25.5 -31.5 t10 -51.5t-11 -51.5t-26.5 -31.5t-33 -15t-31.5 -4t-31.5 4t-33 15t-26.5 31.5t-11 51.5zM1958 0v991h174v-991h-174z" />
<glyph unicode="&#xfb04;" horiz-adv-x="2275" d="M45 842v149h160v135q0 170 99 243t265 73q70 0 131.5 -12.5t107.5 -40t71.5 -72.5t25.5 -109h-170q0 25 -14 42.5t-38 27.5t-52.5 15t-59.5 5q-59 0 -97 -11t-59.5 -35.5t-29.5 -60.5t-8 -85v-115h375v-149h-373v-842h-174v842h-160zM952 842v149h160v135q0 170 99.5 243 t265.5 73q70 0 131 -12.5t107 -40t71.5 -72.5t25.5 -109h-170q0 25 -14 42.5t-37.5 27.5t-52.5 15t-59 5q-59 0 -97.5 -11t-60 -35.5t-29.5 -60.5t-8 -85v-115h375v-149h-373v-842h-174v842h-160zM1958 0v1427h174v-1427h-174z" />
</font>
</defs>
</svg>
