<svg version="1.1" id="Layer_1" xmlns="http://www.w3.org/2000/svg" xmlns:xlink="http://www.w3.org/1999/xlink" x="0px" y="0px"
	 width="900px" height="400px" viewBox="0 0 900 400" enable-background="new 0 0 900 400" xml:space="preserve">
<rect y="300" fill="#2D2D2D" width="900" height="100"/>
<g>
	<path fill="#998675" d="M452,262.8c-16.2,0-28.4-4.7-36.6-14c-8.2-9.3-12.3-23.2-12.3-41.6v-59c0-19,4.1-33.2,12.3-42.7
		c8.2-9.5,20.5-14.2,36.8-14.2c15.8,0,27.3,3.3,34.6,9.9c7.3,6.6,11.5,17.6,12.6,32.9l-39.1,4.8c-0.3-8.5-1.3-14.2-3.1-17.1
		c-1.8-2.9-4.3-4.4-7.3-4.4c-3.5,0-5.9,2-7.2,6c-1.3,4-2,10.9-2,20.8v26.6h0.8c3.1-4.9,7-8.5,11.8-11c4.8-2.4,10.6-3.7,17.2-3.7
		c10,0,17.6,3.8,22.7,11.5c5.1,7.7,7.6,19,7.6,34.1v13c0,15.9-4.1,27.9-12.3,36C480.4,258.8,468.2,262.8,452,262.8z M451.8,236.7
		c4,0,6.9-1.6,8.6-4.9c1.7-3.3,2.5-9,2.5-17.2v-11.1c0-8.8-0.8-15-2.5-18.5c-1.7-3.6-4.5-5.3-8.6-5.3c-4,0-6.9,1.8-8.6,5.3
		s-2.5,9.7-2.5,18.5v11.1c0,8.2,0.8,14,2.5,17.2C444.9,235,447.7,236.7,451.8,236.7z"/>
	<path fill="#998675" d="M525.4,260.7v-34.9c0-13,2-23,6.1-30.2c4-7.2,11.8-14.6,23.4-22.3l12.5-8.4c7.5-5,12.2-8.9,13.9-11.5
		c1.7-2.6,2.6-7.1,2.6-13.4v-4.8c0-6-0.8-10.5-2.3-13.4c-1.5-2.9-4-4.4-7.3-4.4c-3.5,0-5.9,2-7.2,6.1c-1.3,4-2.2,11.5-2.6,22.4
		l-37.6-2.1c0.7-18.3,4.8-31.6,12.3-39.9c7.5-8.4,19.2-12.5,34.9-12.5c15.6,0,27.4,3.7,35.4,11c8,7.3,12,18.2,12,32.5v9.8
		c0,10.3-2,18.6-6,24.9s-11.7,13.2-23.1,20.7l-12.5,8.4c-7.7,5.3-12.4,9.3-14.2,12.1c-1.8,2.8-2.7,7.7-2.7,14.6v7.7h60.2v27.6H525.4
		z"/>
	<path fill="#998675" d="M696.2,262.8c-15.8,0-27.3-3.3-34.6-9.9c-7.3-6.6-11.5-17.6-12.6-32.9l39.1-4.8c0.3,8.5,1.1,14.2,2.6,17.1
		c1.5,2.9,4.3,4.4,8.5,4.4c3.2,0,5.5-2.1,6.8-6.4c1.3-4.3,2-11.7,2-22.3v-24.7h-1.5c-3.1,4.9-6.9,8.5-11.5,11
		c-4.6,2.4-10,3.7-16.1,3.7c-10.3,0-18.1-3.8-23.3-11.5c-5.2-7.7-7.8-19-7.8-34.1v-13c0-15.9,4.1-27.9,12.3-36
		c8.2-8.1,20.4-12.1,36.6-12.1c16.2,0,28.4,4.7,36.6,14c8.2,9.3,12.3,23.2,12.3,41.6v59c0,19-4.1,33.2-12.4,42.7
		C724.8,258.1,712.5,262.8,696.2,262.8z M696.6,174.6c4.2,0,7.1-1.8,8.8-5.3c1.7-3.6,2.5-9.7,2.5-18.5v-11.1c0-8.2-0.8-14-2.5-17.2
		c-1.7-3.3-4.6-4.9-8.8-4.9c-4,0-6.9,1.6-8.6,4.9c-1.7,3.3-2.5,9-2.5,17.2v11.1c0,8.8,0.8,15,2.5,18.5
		C689.7,172.8,692.6,174.6,696.6,174.6z"/>
	<path fill="#998675" d="M818.9,262.8c-16.2,0-28.4-4.7-36.6-14c-8.2-9.3-12.3-23.2-12.3-41.6v-59c0-19,4.1-33.2,12.3-42.7
		c8.2-9.5,20.5-14.2,36.8-14.2c15.8,0,27.3,3.3,34.6,9.9c7.3,6.6,11.5,17.6,12.7,32.9l-39.1,4.8c-0.3-8.5-1.3-14.2-3.1-17.1
		c-1.8-2.9-4.3-4.4-7.3-4.4c-3.5,0-5.9,2-7.2,6c-1.3,4-2,10.9-2,20.8v26.6h0.8c3.1-4.9,7-8.5,11.8-11c4.8-2.4,10.6-3.7,17.2-3.7
		c10,0,17.6,3.8,22.7,11.5c5.1,7.7,7.6,19,7.6,34.1v13c0,15.9-4.1,27.9-12.3,36C847.3,258.8,835.1,262.8,818.9,262.8z M818.7,236.7
		c4,0,6.9-1.6,8.6-4.9c1.7-3.3,2.5-9,2.5-17.2v-11.1c0-8.8-0.8-15-2.5-18.5c-1.7-3.6-4.5-5.3-8.6-5.3c-4,0-6.9,1.8-8.6,5.3
		c-1.7,3.6-2.5,9.7-2.5,18.5v11.1c0,8.2,0.8,14,2.5,17.2C811.8,235,814.7,236.7,818.7,236.7z"/>
</g>
<g>
	<g>
		<path fill="#FFFFFF" d="M67.2,374.4c-0.8,0-1.5-0.1-2.3-0.3c-0.8-0.2-1.5-0.6-2.3-1v9.6h-3.9v-34.9h3.9v3.4h1
			c0.4-1.2,1.1-2.1,2.1-2.8c1-0.7,2.2-1,3.7-1c1.9,0,3.5,0.8,4.6,2.5s1.6,3.9,1.6,6.8v8.7c0,2.9-0.7,5.1-2.2,6.7
			C71.8,373.6,69.8,374.4,67.2,374.4z M66.9,371c1.6,0,2.7-0.5,3.5-1.4c0.8-1,1.2-2.4,1.2-4.3v-8.9c0-1.7-0.3-3-0.9-3.9
			c-0.6-0.9-1.5-1.3-2.7-1.3c-1.1,0-2.1,0.3-3,1c-0.9,0.7-1.7,1.7-2.4,3.1v14c0.6,0.6,1.3,1,2,1.3C65.3,370.8,66.1,371,66.9,371z"/>
		<path fill="#FFFFFF" d="M90.3,374.4c-1.9,0-3.4-0.7-4.5-2.2c-1.1-1.5-1.7-3.5-1.7-6v-18.4h3.9v17.8c0,1.7,0.3,2.9,0.9,3.8
			c0.6,0.9,1.5,1.3,2.6,1.3c1,0,2.1-0.3,3-1c1-0.7,1.8-1.6,2.5-2.9v-19h3.9V374h-3.9v-3.4h-1c-0.4,1.2-1.1,2.1-2.1,2.8
			C92.9,374,91.7,374.4,90.3,374.4z"/>
		<path fill="#FFFFFF" d="M109.8,374v-3.6h6.5v-27.8h-6.5v-3.6h10.4v31.3h6.4v3.6H109.8z"/>
		<path fill="#FFFFFF" d="M135.4,374v-3.6h6.5v-27.8h-6.5v-3.6h10.4v31.3h6.4v3.6H135.4z"/>
		<path fill="#FFFFFF" d="M187.7,374v-26.2h4v3.8h1c0.4-1.5,1.1-2.6,2.1-3.3c1-0.7,2.2-1,3.5-1c1.5,0,2.8,0.6,3.8,1.8
			c1,1.2,1.5,2.9,1.5,5.2v4.2h-3.8v-2.7c0-1.6-0.2-2.8-0.7-3.5c-0.5-0.8-1.3-1.1-2.4-1.1c-1,0-1.9,0.3-2.7,1
			c-0.8,0.7-1.5,1.6-2.2,2.9v19H187.7z"/>
		<path fill="#FFFFFF" d="M228.9,368.3c-0.7,2.1-1.6,3.7-2.9,4.7c-1.3,1-3.1,1.5-5.7,1.5c-2.6,0-4.7-0.8-6.2-2.3s-2.3-3.8-2.3-6.8
			v-8.8c0-3.1,0.8-5.4,2.4-6.9c1.6-1.5,3.6-2.3,6.1-2.3c2.5,0,4.6,0.8,6.1,2.4c1.5,1.6,2.3,4,2.3,7.2v4.7h-13v3.6
			c0,2,0.4,3.5,1.1,4.3c0.8,0.9,1.9,1.3,3.4,1.3c1.5,0,2.5-0.3,3.3-0.9c0.7-0.6,1.3-1.6,1.6-2.9L228.9,368.3z M215.7,356.7v1.8h9
			v-1.4c0-2.2-0.4-3.8-1.1-4.8c-0.7-1-1.9-1.5-3.4-1.5c-1.5,0-2.7,0.5-3.4,1.5C216.1,353.3,215.7,354.7,215.7,356.7z"/>
		<path fill="#FFFFFF" d="M250.3,382.7v-12.1h-1c-0.6,1.2-1.3,2.1-2.4,2.8c-1,0.7-2.2,1-3.4,1c-1.9,0-3.4-0.8-4.5-2.5
			c-1.1-1.6-1.7-3.9-1.7-6.8v-8.7c0-2.9,0.8-5.1,2.3-6.7c1.5-1.6,3.7-2.4,6.4-2.4c1.5,0,3,0.2,4.4,0.6c1.5,0.4,2.7,1,3.8,1.7v33.1
			H250.3z M244.9,370.6c1.1,0,2.1-0.3,3-1c0.9-0.7,1.7-1.7,2.4-3.1v-14.4c-0.6-0.4-1.2-0.8-1.9-1c-0.7-0.2-1.5-0.3-2.4-0.3
			c-1.6,0-2.7,0.5-3.5,1.4c-0.8,1-1.2,2.4-1.2,4.3v8.3c0,1.9,0.3,3.4,0.9,4.3C242.8,370.2,243.7,370.6,244.9,370.6z"/>
		<path fill="#FFFFFF" d="M269,374.4c-1.9,0-3.4-0.7-4.5-2.2c-1.1-1.5-1.7-3.5-1.7-6v-18.4h3.9v17.8c0,1.7,0.3,2.9,0.9,3.8
			c0.6,0.9,1.5,1.3,2.6,1.3c1,0,2.1-0.3,3-1c1-0.7,1.8-1.6,2.5-2.9v-19h3.9V374h-3.9v-3.4h-1c-0.4,1.2-1.1,2.1-2.1,2.8
			C271.6,374,270.4,374.4,269,374.4z"/>
		<path fill="#FFFFFF" d="M305.5,368.3c-0.7,2.1-1.6,3.7-2.9,4.7c-1.3,1-3.1,1.5-5.7,1.5c-2.6,0-4.7-0.8-6.2-2.3s-2.3-3.8-2.3-6.8
			v-8.8c0-3.1,0.8-5.4,2.4-6.9c1.6-1.5,3.6-2.3,6.1-2.3c2.5,0,4.6,0.8,6.1,2.4c1.5,1.6,2.3,4,2.3,7.2v4.7h-13v3.6
			c0,2,0.4,3.5,1.1,4.3c0.8,0.9,1.9,1.3,3.4,1.3c1.5,0,2.5-0.3,3.3-0.9c0.7-0.6,1.3-1.6,1.6-2.9L305.5,368.3z M292.3,356.7v1.8h9
			v-1.4c0-2.2-0.4-3.8-1.1-4.8c-0.7-1-1.9-1.5-3.4-1.5c-1.5,0-2.7,0.5-3.4,1.5C292.7,353.3,292.3,354.7,292.3,356.7z"/>
		<path fill="#FFFFFF" d="M322.8,374.4c-1.7,0-3.4-0.3-5-0.8c-1.7-0.6-3.1-1.3-4.3-2.4l1.4-3.2c1.1,0.8,2.3,1.5,3.7,2
			c1.4,0.5,2.8,0.8,4.2,0.8c1.5,0,2.7-0.3,3.4-0.9c0.7-0.6,1.1-1.5,1.1-2.7c0-1.4-0.4-2.4-1.2-3c-0.8-0.6-2.2-1.1-4.3-1.7
			c-2.8-0.7-4.8-1.7-6-2.9c-1.2-1.2-1.7-2.8-1.7-4.9c0-2.4,0.7-4.2,2.1-5.5c1.4-1.3,3.3-2,5.7-2c1.5,0,3,0.3,4.6,0.9
			c1.5,0.6,2.9,1.4,4,2.4l-1.4,3.2c-1-0.8-2.1-1.4-3.4-2c-1.3-0.6-2.5-0.9-3.8-0.9c-1.3,0-2.3,0.3-2.9,0.9c-0.6,0.6-0.9,1.5-0.9,2.7
			c0,1.4,0.4,2.4,1.2,3s2.3,1.1,4.4,1.7c2.7,0.7,4.7,1.7,5.8,2.9c1.1,1.2,1.7,2.8,1.7,4.8c0,2.4-0.8,4.2-2.3,5.5
			C327.5,373.8,325.4,374.4,322.8,374.4z"/>
		<path fill="#FFFFFF" d="M351.8,374.4c-2.4,0-4.2-0.7-5.5-2.2c-1.3-1.5-2-3.5-2-6v-14.7h-5.4v-3.6h5.4v-8.7h3.9v8.7h8.2v3.6h-8.2
			v14.2c0,1.7,0.3,2.9,0.9,3.8s1.5,1.3,2.7,1.3c0.8,0,1.5-0.1,2.2-0.2c0.7-0.1,1.4-0.4,2-0.7l0.7,3.7c-0.6,0.2-1.3,0.5-2.2,0.7
			C353.6,374.2,352.7,374.4,351.8,374.4z"/>
		<path fill="#FFFFFF" d="M373.8,374.4c-1.7,0-3.4-0.3-5-0.8c-1.7-0.6-3.1-1.3-4.3-2.4l1.4-3.2c1.1,0.8,2.3,1.5,3.7,2
			c1.4,0.5,2.8,0.8,4.2,0.8c1.5,0,2.7-0.3,3.4-0.9c0.7-0.6,1.1-1.5,1.1-2.7c0-1.4-0.4-2.4-1.2-3c-0.8-0.6-2.2-1.1-4.3-1.7
			c-2.8-0.7-4.8-1.7-6-2.9c-1.2-1.2-1.7-2.8-1.7-4.9c0-2.4,0.7-4.2,2.1-5.5c1.4-1.3,3.3-2,5.7-2c1.5,0,3,0.3,4.6,0.9
			c1.5,0.6,2.9,1.4,4,2.4l-1.4,3.2c-1-0.8-2.1-1.4-3.4-2c-1.3-0.6-2.5-0.9-3.8-0.9c-1.3,0-2.3,0.3-2.9,0.9c-0.6,0.6-0.9,1.5-0.9,2.7
			c0,1.4,0.4,2.4,1.2,3s2.3,1.1,4.4,1.7c2.7,0.7,4.7,1.7,5.8,2.9c1.1,1.2,1.7,2.8,1.7,4.8c0,2.4-0.8,4.2-2.3,5.5
			C378.5,373.8,376.5,374.4,373.8,374.4z"/>
		<path fill="#FFFFFF" d="M428.4,374.4c-2.4,0-4.2-0.7-5.5-2.2c-1.3-1.5-2-3.5-2-6v-14.7h-5.4v-3.6h5.4v-8.7h3.9v8.7h8.2v3.6h-8.2
			v14.2c0,1.7,0.3,2.9,0.9,3.8s1.5,1.3,2.7,1.3c0.8,0,1.5-0.1,2.2-0.2c0.7-0.1,1.4-0.4,2-0.7l0.7,3.7c-0.6,0.2-1.3,0.5-2.2,0.7
			C430.2,374.2,429.3,374.4,428.4,374.4z"/>
		<path fill="#FFFFFF" d="M441.6,374v-34.9h3.9v12.1h1c0.4-1.2,1.1-2.1,2.1-2.8c1-0.7,2.3-1,3.7-1c1.8,0,3.3,0.7,4.5,2.2
			c1.1,1.5,1.7,3.5,1.7,6V374h-3.9v-17.8c0-1.7-0.3-3-0.9-3.8c-0.6-0.9-1.5-1.3-2.6-1.3c-1.1,0-2.1,0.3-3,1
			c-0.9,0.6-1.8,1.6-2.5,2.9v19H441.6z"/>
		<path fill="#FFFFFF" d="M484.1,368.3c-0.7,2.1-1.6,3.7-2.9,4.7c-1.3,1-3.1,1.5-5.7,1.5c-2.6,0-4.7-0.8-6.2-2.3s-2.3-3.8-2.3-6.8
			v-8.8c0-3.1,0.8-5.4,2.4-6.9c1.6-1.5,3.6-2.3,6.1-2.3c2.5,0,4.6,0.8,6.1,2.4c1.5,1.6,2.3,4,2.3,7.2v4.7h-13v3.6
			c0,2,0.4,3.5,1.1,4.3s1.9,1.3,3.4,1.3c1.5,0,2.5-0.3,3.3-0.9c0.7-0.6,1.3-1.6,1.6-2.9L484.1,368.3z M471,356.7v1.8h9v-1.4
			c0-2.2-0.4-3.8-1.1-4.8c-0.7-1-1.9-1.5-3.4-1.5c-1.5,0-2.7,0.5-3.4,1.5C471.4,353.3,471,354.7,471,356.7z"/>
		<path fill="#FFFFFF" d="M526.6,374.4c-0.8,0-1.5-0.1-2.3-0.3s-1.5-0.6-2.3-1v9.6h-3.9v-34.9h3.9v3.4h1c0.4-1.2,1.1-2.1,2.1-2.8
			c1-0.7,2.2-1,3.7-1c1.9,0,3.5,0.8,4.6,2.5s1.6,3.9,1.6,6.8v8.7c0,2.9-0.7,5.1-2.2,6.7C531.3,373.6,529.3,374.4,526.6,374.4z
			 M526.4,371c1.6,0,2.8-0.5,3.5-1.4s1.2-2.4,1.2-4.3v-8.9c0-1.7-0.3-3-0.9-3.9c-0.6-0.9-1.5-1.3-2.7-1.3c-1.1,0-2.1,0.3-3,1
			s-1.7,1.7-2.4,3.1v14c0.6,0.6,1.3,1,2,1.3C524.8,370.8,525.6,371,526.4,371z"/>
		<path fill="#FFFFFF" d="M549.1,374.4c-2,0-3.6-0.7-4.7-2s-1.7-3.1-1.7-5.5c0-2.3,0.6-4.1,1.8-5.4c1.2-1.3,2.9-2,5-2h5.5v-4.3
			c0-1.3-0.3-2.3-1-3.1c-0.7-0.8-1.7-1.2-3-1.2c-1.4,0-2.5,0.3-3.1,1c-0.6,0.7-1.1,1.9-1.5,3.8l-3.4-1c0.4-2.5,1.3-4.3,2.6-5.5
			c1.3-1.2,3.1-1.8,5.3-1.8c2.3,0,4.2,0.6,5.7,1.8c1.5,1.2,2.2,3.1,2.2,5.5v13c0,1.3,0.3,2.2,0.9,2.7c0.6,0.4,1.5,0.5,2.8,0.1v3.7
			c-1.9,0.3-3.3,0.1-4.3-0.5s-1.5-1.8-1.7-3.6H556c-0.6,1.3-1.5,2.3-2.8,3.1C552,374,550.6,374.4,549.1,374.4z M549.8,370.9
			c1.3,0,2.3-0.3,3.2-0.8c0.9-0.6,1.6-1.5,2.1-2.7v-4.6h-4.9c-1.2,0-2.1,0.3-2.7,0.9c-0.6,0.6-0.9,1.6-0.9,3.1
			c0,1.3,0.2,2.4,0.7,3.1C547.8,370.5,548.6,370.9,549.8,370.9z"/>
		<path fill="#FFFFFF" d="M578.1,374.4c-1.7,0-3.4-0.3-5-0.8c-1.7-0.6-3.1-1.3-4.3-2.4l1.4-3.2c1.1,0.8,2.3,1.5,3.7,2
			s2.8,0.8,4.2,0.8c1.5,0,2.7-0.3,3.4-0.9c0.7-0.6,1.1-1.5,1.1-2.7c0-1.4-0.4-2.4-1.2-3c-0.8-0.6-2.2-1.1-4.3-1.7
			c-2.8-0.7-4.8-1.7-6-2.9c-1.2-1.2-1.7-2.8-1.7-4.9c0-2.4,0.7-4.2,2.1-5.5c1.4-1.3,3.3-2,5.7-2c1.5,0,3,0.3,4.6,0.9
			c1.5,0.6,2.9,1.4,4,2.4l-1.4,3.2c-1-0.8-2.1-1.4-3.4-2c-1.3-0.6-2.5-0.9-3.8-0.9c-1.3,0-2.3,0.3-2.9,0.9c-0.6,0.6-0.9,1.5-0.9,2.7
			c0,1.4,0.4,2.4,1.2,3s2.3,1.1,4.4,1.7c2.7,0.7,4.7,1.7,5.8,2.9c1.1,1.2,1.7,2.8,1.7,4.8c0,2.4-0.8,4.2-2.3,5.5
			C582.7,373.8,580.7,374.4,578.1,374.4z"/>
		<path fill="#FFFFFF" d="M607.1,374.4c-2.4,0-4.2-0.7-5.5-2.2c-1.3-1.5-2-3.5-2-6v-14.7h-5.4v-3.6h5.4v-8.7h3.9v8.7h8.2v3.6h-8.2
			v14.2c0,1.7,0.3,2.9,0.9,3.8c0.6,0.8,1.5,1.3,2.7,1.3c0.8,0,1.5-0.1,2.2-0.2c0.7-0.1,1.4-0.4,2-0.7l0.7,3.7
			c-0.6,0.2-1.3,0.5-2.2,0.7S608,374.4,607.1,374.4z"/>
		<path fill="#FFFFFF" d="M654,374.4c-3.4,0-5.7-0.8-7-2.4c-1.3-1.6-2-4.1-2.1-7.4l4-0.4c0.2,2.7,0.6,4.6,1.3,5.5s2,1.4,3.8,1.4
			c1.9,0,3.3-0.5,4.1-1.5c0.8-1,1.2-2.6,1.2-5v-1.2c0-2.3-0.4-4-1.1-4.9c-0.7-0.9-2.1-1.3-4-1.3h-3.4v-3.6h3.4
			c1.7,0,2.8-0.4,3.4-1.1c0.6-0.7,1-2,1-3.8v-1.4c0-1.9-0.3-3.3-1-4.1c-0.7-0.8-1.9-1.2-3.6-1.2c-1.5,0-2.6,0.4-3.3,1.3
			c-0.7,0.9-1.1,2.5-1.2,4.9l-4-0.4c0.1-3.3,0.9-5.6,2.3-7c1.4-1.4,3.4-2.1,6.1-2.1c2.6,0,4.7,0.7,6.3,2.1c1.6,1.4,2.4,3.6,2.4,6.7
			v1.5c0,1.7-0.5,3.1-1.4,4.1s-2.1,1.6-3.7,1.7v1.3c1.8,0.2,3.2,1,4.2,2.4c1,1.4,1.5,3,1.5,4.9v1.2c0,3-0.7,5.5-2.2,7.2
			C659.6,373.5,657.3,374.4,654,374.4z"/>
		<path fill="#FFFFFF" d="M679.8,374.4c-3,0-5.3-1-6.8-3.1c-1.5-2.1-2.3-5.2-2.3-9.3v-11.5c0-4,0.8-6.9,2.3-8.9
			c1.5-2,3.8-2.9,6.8-2.9c2.8,0,4.8,0.6,6.1,1.8c1.3,1.2,2.2,3.2,2.6,6l-4.3,1c-0.3-2.1-0.8-3.5-1.4-4.2c-0.6-0.7-1.7-1-3.2-1
			c-1.8,0-3.1,0.6-3.8,1.9c-0.8,1.3-1.1,3.4-1.1,6.3v5.1h0.5c0.6-1.2,1.3-2,2.2-2.6c0.9-0.6,2-0.8,3.4-0.8c2.8,0,4.8,1,6.1,2.9
			c1.3,1.9,1.9,4.4,1.9,7.4v1c0,3.6-0.8,6.3-2.3,8.2C685,373.5,682.8,374.4,679.8,374.4z M679.7,370.8c1.7,0,3-0.6,3.8-1.7
			c0.8-1.1,1.2-3,1.2-5.5v-0.6c0-2.5-0.4-4.3-1.2-5.5c-0.8-1.1-2.1-1.7-3.8-1.7c-1.7,0-3,0.6-3.8,1.7c-0.8,1.1-1.2,3-1.2,5.5v0.6
			c0,2.5,0.4,4.3,1.2,5.5C676.7,370.2,678,370.8,679.7,370.8z"/>
		<path fill="#FFFFFF" d="M704.9,374.4c-3.3,0-5.6-0.7-6.9-2.1s-2-4-2.1-7.8l4-0.4c0.1,2.8,0.5,4.6,1.2,5.5s1.9,1.3,3.9,1.3
			c2,0,3.4-0.5,4.2-1.5c0.8-1,1.2-2.5,1.2-4.5v-2.2c0-2-0.3-3.5-1-4.6c-0.7-1.1-1.8-1.6-3.4-1.6h-9.1v-17.3h16.2v3.6h-12.2v9.9h5.6
			c2.5,0,4.4,0.8,5.8,2.3c1.4,1.5,2.1,4,2.1,7.4v2.7c0,2.9-0.8,5.2-2.3,6.8S708.1,374.4,704.9,374.4z"/>
		<path fill="#FFFFFF" d="M759.8,370.6c-0.4,1.2-1.2,2.1-2.2,2.8c-1,0.7-2.2,1-3.6,1c-1.9,0-3.4-0.8-4.5-2.5
			c-1.1-1.6-1.7-3.9-1.7-6.8v-8.7c0-2.9,0.7-5.1,2.2-6.7c1.5-1.6,3.5-2.4,6.2-2.4c0.7,0,1.5,0.1,2.3,0.3c0.8,0.2,1.6,0.6,2.3,1v-9.6
			h3.9V374h-3.9v-3.4H759.8z M755.4,370.6c1.1,0,2.1-0.3,3-1c0.9-0.7,1.7-1.7,2.4-3.1v-14c-0.6-0.6-1.3-1.1-2-1.3s-1.5-0.4-2.3-0.4
			c-1.6,0-2.8,0.5-3.6,1.4c-0.8,0.9-1.1,2.4-1.1,4.4v8.9c0,1.8,0.3,3.1,0.9,4S754.2,370.6,755.4,370.6z"/>
		<path fill="#FFFFFF" d="M778.8,374.4c-2,0-3.6-0.7-4.7-2s-1.7-3.1-1.7-5.5c0-2.3,0.6-4.1,1.8-5.4c1.2-1.3,2.9-2,5-2h5.5v-4.3
			c0-1.3-0.3-2.3-1-3.1c-0.7-0.8-1.7-1.2-3-1.2c-1.4,0-2.5,0.3-3.1,1c-0.6,0.7-1.1,1.9-1.5,3.8l-3.4-1c0.4-2.5,1.3-4.3,2.6-5.5
			c1.3-1.2,3.1-1.8,5.3-1.8c2.3,0,4.2,0.6,5.7,1.8c1.5,1.2,2.2,3.1,2.2,5.5v13c0,1.3,0.3,2.2,0.9,2.7c0.6,0.4,1.5,0.5,2.8,0.1v3.7
			c-1.9,0.3-3.3,0.1-4.3-0.5s-1.5-1.8-1.7-3.6h-0.7c-0.6,1.3-1.5,2.3-2.8,3.1C781.7,374,780.3,374.4,778.8,374.4z M779.5,370.9
			c1.3,0,2.3-0.3,3.2-0.8c0.9-0.6,1.6-1.5,2.1-2.7v-4.6h-4.9c-1.2,0-2.1,0.3-2.7,0.9c-0.6,0.6-0.9,1.6-0.9,3.1
			c0,1.3,0.2,2.4,0.7,3.1C777.5,370.5,778.4,370.9,779.5,370.9z"/>
		<path fill="#FFFFFF" d="M802.2,382.9c-0.6,0-1.2,0-1.9-0.1c-0.7-0.1-1.4-0.2-2.1-0.3l0.5-3.6c0.6,0.1,1.2,0.3,1.8,0.3
			c0.5,0.1,1,0.1,1.5,0.1c1.3,0,2.3-0.4,2.9-1.1s1.2-1.9,1.7-3.5l0.1-0.5h-2l-6.6-26.4h4.2l5.3,22.9l5.2-22.9h4.1l-6.5,27.1
			c-0.8,3.1-1.8,5.2-3.3,6.3C805.5,382.4,803.9,382.9,802.2,382.9z"/>
		<path fill="#FFFFFF" d="M833.3,374.4c-1.7,0-3.4-0.3-5-0.8c-1.7-0.6-3.1-1.3-4.3-2.4l1.4-3.2c1.1,0.8,2.3,1.5,3.7,2
			s2.8,0.8,4.2,0.8c1.5,0,2.7-0.3,3.4-0.9c0.7-0.6,1.1-1.5,1.1-2.7c0-1.4-0.4-2.4-1.2-3c-0.8-0.6-2.2-1.1-4.3-1.7
			c-2.8-0.7-4.8-1.7-6-2.9c-1.2-1.2-1.7-2.8-1.7-4.9c0-2.4,0.7-4.2,2.1-5.5c1.4-1.3,3.3-2,5.7-2c1.5,0,3,0.3,4.6,0.9
			c1.5,0.6,2.9,1.4,4,2.4l-1.4,3.2c-1-0.8-2.1-1.4-3.4-2c-1.3-0.6-2.5-0.9-3.8-0.9c-1.3,0-2.3,0.3-2.9,0.9c-0.6,0.6-0.9,1.5-0.9,2.7
			c0,1.4,0.4,2.4,1.2,3c0.8,0.6,2.3,1.1,4.4,1.7c2.7,0.7,4.7,1.7,5.8,2.9c1.1,1.2,1.7,2.8,1.7,4.8c0,2.4-0.8,4.2-2.3,5.5
			C838,373.8,835.9,374.4,833.3,374.4z"/>
	</g>
</g>
</svg>
