<svg version="1.1" id="Layer_1" xmlns="http://www.w3.org/2000/svg" xmlns:xlink="http://www.w3.org/1999/xlink" x="0px" y="0px"
	 width="900px" height="400px" viewBox="0 0 900 400" enable-background="new 0 0 900 400" xml:space="preserve">
<rect y="300" fill="#2D2D2D" width="900" height="100"/>
<g>
	<path fill="#998675" d="M446.3,262.8c-15.8,0-27.3-3.3-34.6-9.9c-7.3-6.6-11.5-17.6-12.6-32.9l39.1-4.8c0.3,8.5,1.1,14.2,2.6,17.1
		c1.5,2.9,4.3,4.4,8.5,4.4c3.2,0,5.5-2.1,6.8-6.4c1.3-4.3,2-11.7,2-22.3v-24.7h-1.5c-3.1,4.9-6.9,8.5-11.5,11
		c-4.6,2.4-10,3.7-16.1,3.7c-10.3,0-18.1-3.8-23.3-11.5c-5.2-7.7-7.8-19-7.8-34.1v-13c0-15.9,4.1-27.9,12.3-36
		c8.2-8.1,20.4-12.1,36.6-12.1c16.2,0,28.4,4.7,36.6,14c8.2,9.3,12.3,23.2,12.3,41.6v59c0,19-4.1,33.2-12.4,42.7
		C474.9,258.1,462.6,262.8,446.3,262.8z M446.7,174.6c4.2,0,7.1-1.8,8.8-5.3s2.5-9.7,2.5-18.5v-11.1c0-8.2-0.8-14-2.5-17.2
		c-1.7-3.3-4.6-4.9-8.8-4.9c-4,0-6.9,1.6-8.6,4.9c-1.7,3.3-2.5,9-2.5,17.2v11.1c0,8.8,0.8,15,2.5,18.5S442.6,174.6,446.7,174.6z"/>
	<path fill="#998675" d="M530.3,241.3l-7.2-34.5l1.2,53.9h-10.8V188h12l9.1,38.5l9.1-38.5h11.5v72.7h-10.8l1.2-53.2l-7.1,33.7H530.3
		z"/>
	<path fill="#998675" d="M567.7,260.7v-9.6h13.6v-53.5h-13.6V188h39.6v9.6h-13.6v53.5h13.6v9.6H567.7z"/>
	<path fill="#998675" d="M624.4,260.7V188h12.3v63.1h23.9v9.6H624.4z"/>
	<path fill="#998675" d="M677.5,260.7V188h12.3v63.1h23.9v9.6H677.5z"/>
	<path fill="#998675" d="M727.3,260.7v-9.6h13.6v-53.5h-13.6V188h39.6v9.6h-13.6v53.5h13.6v9.6H727.3z"/>
	<path fill="#998675" d="M800.3,261.6c-6.5,0-11.5-2.1-14.9-6.4c-3.5-4.3-5.2-10.3-5.2-18v-25.3c0-7.9,1.7-14,5.2-18.3
		c3.5-4.3,8.4-6.5,14.9-6.5c6.5,0,11.5,2.2,14.9,6.5c3.5,4.3,5.2,10.4,5.2,18.3v25.3c0,7.8-1.7,13.8-5.2,18
		C811.7,259.5,806.8,261.6,800.3,261.6z M800.3,252c2.9,0,4.9-1.1,6-3.3c1.1-2.2,1.7-6.2,1.7-12v-24.3c0-6-0.6-10.1-1.7-12.3
		c-1.1-2.2-3.1-3.3-6-3.3s-4.9,1.1-6,3.3c-1.1,2.2-1.7,6.3-1.7,12.3v24.3c0,5.8,0.6,9.8,1.7,12C795.3,250.9,797.4,252,800.3,252z"/>
	<path fill="#998675" d="M858.5,260.7l-14.4-56.5v56.5h-10.5V188h13.7l15.4,57.3V188h10.5v72.7H858.5z"/>
</g>
<g>
	<g>
		<path fill="#FFFFFF" d="M34.5,374v-26.2h4v3.8h1c0.4-1.5,1.1-2.6,2.1-3.3c1-0.7,2.2-1,3.5-1c1.5,0,2.8,0.6,3.8,1.8
			c1,1.2,1.5,2.9,1.5,5.2v4.2h-3.8v-2.7c0-1.6-0.2-2.8-0.7-3.5c-0.5-0.8-1.3-1.1-2.4-1.1c-1,0-1.9,0.3-2.7,1
			c-0.8,0.7-1.5,1.6-2.2,2.9v19H34.5z"/>
		<path fill="#FFFFFF" d="M75.7,368.3c-0.7,2.1-1.6,3.7-2.9,4.7c-1.3,1-3.1,1.5-5.7,1.5c-2.6,0-4.7-0.8-6.2-2.3s-2.3-3.8-2.3-6.8
			v-8.8c0-3.1,0.8-5.4,2.4-6.9c1.6-1.5,3.6-2.3,6.1-2.3c2.5,0,4.6,0.8,6.1,2.4c1.5,1.6,2.3,4,2.3,7.2v4.7h-13v3.6
			c0,2,0.4,3.5,1.1,4.3c0.8,0.9,1.9,1.3,3.4,1.3c1.5,0,2.5-0.3,3.3-0.9c0.7-0.6,1.3-1.6,1.6-2.9L75.7,368.3z M62.6,356.7v1.8h9v-1.4
			c0-2.2-0.4-3.8-1.1-4.8c-0.7-1-1.9-1.5-3.4-1.5c-1.5,0-2.7,0.5-3.4,1.5C62.9,353.3,62.6,354.7,62.6,356.7z"/>
		<path fill="#FFFFFF" d="M97.1,382.7v-12.1h-1c-0.6,1.2-1.3,2.1-2.4,2.8c-1,0.7-2.2,1-3.4,1c-1.9,0-3.4-0.8-4.5-2.5
			c-1.1-1.6-1.7-3.9-1.7-6.8v-8.7c0-2.9,0.8-5.1,2.3-6.7c1.5-1.6,3.7-2.4,6.4-2.4c1.5,0,3,0.2,4.4,0.6c1.5,0.4,2.7,1,3.8,1.7v33.1
			H97.1z M91.7,370.6c1.1,0,2.1-0.3,3-1c0.9-0.7,1.7-1.7,2.4-3.1v-14.4c-0.6-0.4-1.2-0.8-1.9-1c-0.7-0.2-1.5-0.3-2.4-0.3
			c-1.6,0-2.7,0.5-3.5,1.4c-0.8,1-1.2,2.4-1.2,4.3v8.3c0,1.9,0.3,3.4,0.9,4.3C89.6,370.2,90.5,370.6,91.7,370.6z"/>
		<path fill="#FFFFFF" d="M115.9,374.4c-1.9,0-3.4-0.7-4.5-2.2c-1.1-1.5-1.7-3.5-1.7-6v-18.4h3.9v17.8c0,1.7,0.3,2.9,0.9,3.8
			c0.6,0.9,1.5,1.3,2.6,1.3c1,0,2.1-0.3,3-1c1-0.7,1.8-1.6,2.5-2.9v-19h3.9V374h-3.9v-3.4h-1c-0.4,1.2-1.1,2.1-2.1,2.8
			C118.5,374,117.3,374.4,115.9,374.4z"/>
		<path fill="#FFFFFF" d="M152.3,368.3c-0.7,2.1-1.6,3.7-2.9,4.7c-1.3,1-3.1,1.5-5.7,1.5c-2.6,0-4.7-0.8-6.2-2.3s-2.3-3.8-2.3-6.8
			v-8.8c0-3.1,0.8-5.4,2.4-6.9c1.6-1.5,3.6-2.3,6.1-2.3c2.5,0,4.6,0.8,6.1,2.4c1.5,1.6,2.3,4,2.3,7.2v4.7h-13v3.6
			c0,2,0.4,3.5,1.1,4.3c0.8,0.9,1.9,1.3,3.4,1.3c1.5,0,2.5-0.3,3.3-0.9c0.7-0.6,1.3-1.6,1.6-2.9L152.3,368.3z M139.2,356.7v1.8h9
			v-1.4c0-2.2-0.4-3.8-1.1-4.8c-0.7-1-1.9-1.5-3.4-1.5c-1.5,0-2.7,0.5-3.4,1.5C139.5,353.3,139.2,354.7,139.2,356.7z"/>
		<path fill="#FFFFFF" d="M169.6,374.4c-1.7,0-3.4-0.3-5-0.8c-1.7-0.6-3.1-1.3-4.3-2.4l1.4-3.2c1.1,0.8,2.3,1.5,3.7,2
			c1.4,0.5,2.8,0.8,4.2,0.8c1.5,0,2.7-0.3,3.4-0.9c0.7-0.6,1.1-1.5,1.1-2.7c0-1.4-0.4-2.4-1.2-3c-0.8-0.6-2.2-1.1-4.3-1.7
			c-2.8-0.7-4.8-1.7-6-2.9c-1.2-1.2-1.7-2.8-1.7-4.9c0-2.4,0.7-4.2,2.1-5.5c1.4-1.3,3.3-2,5.7-2c1.5,0,3,0.3,4.6,0.9
			c1.5,0.6,2.9,1.4,4,2.4l-1.4,3.2c-1-0.8-2.1-1.4-3.4-2c-1.3-0.6-2.5-0.9-3.8-0.9c-1.3,0-2.3,0.3-2.9,0.9c-0.6,0.6-0.9,1.5-0.9,2.7
			c0,1.4,0.4,2.4,1.2,3s2.3,1.1,4.4,1.7c2.7,0.7,4.7,1.7,5.8,2.9c1.1,1.2,1.7,2.8,1.7,4.8c0,2.4-0.8,4.2-2.3,5.5
			C174.3,373.8,172.2,374.4,169.6,374.4z"/>
		<path fill="#FFFFFF" d="M198.7,374.4c-2.4,0-4.2-0.7-5.5-2.2c-1.3-1.5-2-3.5-2-6v-14.7h-5.4v-3.6h5.4v-8.7h3.9v8.7h8.2v3.6h-8.2
			v14.2c0,1.7,0.3,2.9,0.9,3.8s1.5,1.3,2.7,1.3c0.8,0,1.5-0.1,2.2-0.2c0.7-0.1,1.4-0.4,2-0.7l0.7,3.7c-0.6,0.2-1.3,0.5-2.2,0.7
			C200.5,374.2,199.6,374.4,198.7,374.4z"/>
		<path fill="#FFFFFF" d="M220.7,374.4c-1.7,0-3.4-0.3-5-0.8c-1.7-0.6-3.1-1.3-4.3-2.4l1.4-3.2c1.1,0.8,2.3,1.5,3.7,2
			c1.4,0.5,2.8,0.8,4.2,0.8c1.5,0,2.7-0.3,3.4-0.9c0.7-0.6,1.1-1.5,1.1-2.7c0-1.4-0.4-2.4-1.2-3c-0.8-0.6-2.2-1.1-4.3-1.7
			c-2.8-0.7-4.8-1.7-6-2.9c-1.2-1.2-1.7-2.8-1.7-4.9c0-2.4,0.7-4.2,2.1-5.5c1.4-1.3,3.3-2,5.7-2c1.5,0,3,0.3,4.6,0.9
			c1.5,0.6,2.9,1.4,4,2.4l-1.4,3.2c-1-0.8-2.1-1.4-3.4-2c-1.3-0.6-2.5-0.9-3.8-0.9c-1.3,0-2.3,0.3-2.9,0.9c-0.6,0.6-0.9,1.5-0.9,2.7
			c0,1.4,0.4,2.4,1.2,3s2.3,1.1,4.4,1.7c2.7,0.7,4.7,1.7,5.8,2.9c1.1,1.2,1.7,2.8,1.7,4.8c0,2.4-0.8,4.2-2.3,5.5
			C225.4,373.8,223.3,374.4,220.7,374.4z"/>
		<path fill="#FFFFFF" d="M267.8,374v-22.6h-5.5v-3.6h5.5V346c0-2.2,0.7-4,2.1-5.3c1.4-1.3,3-1.9,4.9-1.9c1.2,0,2.2,0.2,3.2,0.5
			c1,0.3,1.7,0.6,2.3,1l-0.7,3.3c-0.8-0.4-1.6-0.7-2.4-0.9c-0.8-0.2-1.5-0.3-2.3-0.3c-1,0-1.8,0.3-2.3,0.8c-0.6,0.5-0.9,1.4-0.9,2.6
			v2h7.9v3.6h-7.9V374H267.8z"/>
		<path fill="#FFFFFF" d="M296.9,374.4c-2.7,0-4.8-0.8-6.3-2.4c-1.5-1.6-2.2-3.8-2.2-6.7v-8.8c0-2.9,0.7-5.2,2.2-6.8
			c1.5-1.6,3.6-2.4,6.3-2.4c2.7,0,4.7,0.8,6.2,2.4c1.5,1.6,2.2,3.9,2.2,6.8v8.8c0,2.9-0.7,5.1-2.2,6.7
			C301.6,373.6,299.5,374.4,296.9,374.4z M296.9,370.8c1.5,0,2.6-0.4,3.4-1.2c0.8-0.8,1.1-2.2,1.1-4.1v-8.9c0-1.9-0.4-3.3-1.1-4.2
			c-0.8-0.9-1.9-1.4-3.4-1.4c-1.5,0-2.6,0.5-3.4,1.4c-0.8,0.9-1.1,2.3-1.1,4.2v8.9c0,1.9,0.4,3.3,1.1,4.1
			C294.2,370.4,295.3,370.8,296.9,370.8z"/>
		<path fill="#FFFFFF" d="M315.3,374v-26.2h4v3.8h1c0.4-1.5,1.1-2.6,2.1-3.3c1-0.7,2.2-1,3.5-1c1.5,0,2.8,0.6,3.8,1.8
			c1,1.2,1.5,2.9,1.5,5.2v4.2h-3.8v-2.7c0-1.6-0.2-2.8-0.7-3.5c-0.5-0.8-1.3-1.1-2.4-1.1c-1,0-1.9,0.3-2.7,1
			c-0.8,0.7-1.5,1.6-2.2,2.9v19H315.3z"/>
		<path fill="#FFFFFF" d="M377.4,374.4c-2.4,0-4.2-0.7-5.5-2.2c-1.3-1.5-2-3.5-2-6v-14.7h-5.4v-3.6h5.4v-8.7h3.9v8.7h8.2v3.6h-8.2
			v14.2c0,1.7,0.3,2.9,0.9,3.8s1.5,1.3,2.7,1.3c0.8,0,1.5-0.1,2.2-0.2c0.7-0.1,1.4-0.4,2-0.7l0.7,3.7c-0.6,0.2-1.3,0.5-2.2,0.7
			C379.1,374.2,378.2,374.4,377.4,374.4z"/>
		<path fill="#FFFFFF" d="M391.9,374v-26.2h4v3.8h1c0.4-1.5,1.1-2.6,2.1-3.3c1-0.7,2.2-1,3.5-1c1.5,0,2.8,0.6,3.8,1.8
			c1,1.2,1.5,2.9,1.5,5.2v4.2h-3.8v-2.7c0-1.6-0.2-2.8-0.7-3.5c-0.5-0.8-1.3-1.1-2.4-1.1c-1,0-1.9,0.3-2.7,1
			c-0.8,0.7-1.5,1.6-2.2,2.9v19H391.9z"/>
		<path fill="#FFFFFF" d="M421.4,374.4c-2,0-3.6-0.7-4.7-2c-1.1-1.3-1.7-3.1-1.7-5.5c0-2.3,0.6-4.1,1.8-5.4c1.2-1.3,2.9-2,5-2h5.5
			v-4.3c0-1.3-0.3-2.3-1-3.1c-0.7-0.8-1.7-1.2-3-1.2c-1.4,0-2.5,0.3-3.1,1s-1.1,1.9-1.5,3.8l-3.4-1c0.4-2.5,1.3-4.3,2.6-5.5
			c1.3-1.2,3.1-1.8,5.3-1.8c2.3,0,4.2,0.6,5.7,1.8c1.5,1.2,2.2,3.1,2.2,5.5v13c0,1.3,0.3,2.2,0.9,2.7c0.6,0.4,1.5,0.5,2.8,0.1v3.7
			c-1.9,0.3-3.3,0.1-4.3-0.5s-1.5-1.8-1.7-3.6h-0.7c-0.6,1.3-1.5,2.3-2.7,3.1C424.3,374,423,374.4,421.4,374.4z M422.1,370.9
			c1.3,0,2.3-0.3,3.2-0.8c0.9-0.6,1.6-1.5,2.1-2.7v-4.6h-4.9c-1.2,0-2.1,0.3-2.7,0.9c-0.6,0.6-0.9,1.6-0.9,3.1
			c0,1.3,0.2,2.4,0.7,3.1C420.1,370.5,421,370.9,422.1,370.9z"/>
		<path fill="#FFFFFF" d="M450.4,374.4c-3,0-5.2-0.8-6.7-2.4c-1.5-1.6-2.2-3.8-2.2-6.6v-8.9c0-2.9,0.7-5.2,2.2-6.8
			c1.5-1.6,3.7-2.4,6.6-2.4c2.7,0,4.7,0.7,6,2.1c1.4,1.4,2.1,3.7,2.3,6.7l-3.8,0.2c-0.1-2.2-0.5-3.6-1.2-4.4
			c-0.7-0.7-1.8-1.1-3.3-1.1c-1.6,0-2.8,0.4-3.6,1.2c-0.8,0.8-1.2,2.2-1.2,4.3v9.1c0,1.9,0.4,3.2,1.2,4.1s2,1.2,3.6,1.2
			c1.5,0,2.7-0.3,3.3-0.9c0.7-0.6,1.1-1.8,1.2-3.7l3.8,0.2c-0.1,2.8-0.9,4.8-2.2,6.1S453.1,374.4,450.4,374.4z"/>
		<path fill="#FFFFFF" d="M472.4,361.9V374h-4v-34.9h4v19.5h1.6l6-10.7h4.5L477,360l7.4,14H480l-6.1-12.1H472.4z"/>
		<path fill="#FFFFFF" d="M492.7,374v-3.6h6.4v-19h-6.4v-3.6H503v22.6h6.4v3.6H492.7z M501.1,342.8c-0.9,0-1.6-0.2-2.2-0.5
			c-0.6-0.3-0.9-1-0.9-1.9v-0.3c0-0.9,0.3-1.6,0.9-1.9c0.6-0.3,1.3-0.5,2.2-0.5c0.9,0,1.6,0.2,2.2,0.5c0.6,0.3,0.9,1,0.9,1.9v0.3
			c0,0.9-0.3,1.5-0.9,1.9C502.8,342.7,502,342.8,501.1,342.8z"/>
		<path fill="#FFFFFF" d="M518.1,374v-26.2h3.9v3.4h1c0.6-1.2,1.5-2.1,2.5-2.8c1-0.7,2.2-1,3.4-1c1.9,0,3.4,0.7,4.5,2.2
			c1.1,1.5,1.6,3.5,1.6,6.1V374h-3.9v-17.6c0-1.7-0.3-3.1-0.9-3.9s-1.5-1.3-2.6-1.3c-1.1,0-2.1,0.3-3,1c-0.9,0.7-1.8,1.7-2.5,3V374
			H518.1z"/>
		<path fill="#FFFFFF" d="M562.1,376.2c0,2.4-0.7,4.1-2,5.2c-1.3,1.1-3,1.7-4.9,1.7h-6.1c-2.1,0-3.8-0.5-5.1-1.5
			c-1.3-1-1.9-2.7-1.9-4.9c0-1.4,0.3-2.5,0.9-3.3c0.6-0.8,1.4-1.3,2.5-1.4V371c-0.8-0.1-1.4-0.6-1.9-1.2c-0.5-0.7-0.7-1.7-0.7-3.1
			c0-1.2,0.3-2.3,1-3.3c0.6-1,1.6-1.6,3-1.7v-0.8c-1.1-0.5-1.8-1.2-2.2-2.2s-0.6-1.9-0.6-2.7v-1.4c0-2,0.7-3.6,2-5
			c1.3-1.3,3.1-2,5.4-2h10.1v3.8l-5.1-1.1v0.9c0.8,0.3,1.5,0.9,2,1.8c0.5,0.9,0.7,1.8,0.7,2.7v1.3c0,2-0.6,3.6-1.9,4.8
			c-1.2,1.3-3.1,1.9-5.6,1.9h-3.7c-0.6,0-1.1,0.2-1.4,0.6c-0.3,0.4-0.5,1.1-0.5,2.1c0,0.9,0.2,1.6,0.6,2.1c0.4,0.5,1,0.7,1.9,0.7
			h7.1c1.9,0,3.5,0.5,4.7,1.6S562.1,373.8,562.1,376.2z M549.1,379.9h6.4c0.9,0,1.7-0.3,2.2-0.8c0.6-0.5,0.9-1.4,0.9-2.7
			c0-1.2-0.3-2.1-0.8-2.6c-0.5-0.5-1.2-0.8-2.1-0.8H546v3.1c0,1.3,0.3,2.2,0.8,2.9C547.3,379.5,548.1,379.9,549.1,379.9z
			 M551.5,360.7c1.3,0,2.2-0.3,2.8-1s0.9-1.7,0.9-3.2v-1.3c0-1.5-0.3-2.5-0.9-3.1s-1.6-1-2.8-1s-2.2,0.3-2.8,1
			c-0.6,0.6-0.9,1.7-0.9,3.1v1.3c0,1.5,0.3,2.5,0.9,3.2C549.3,360.3,550.2,360.7,551.5,360.7z"/>
		<path fill="#FFFFFF" d="M603.2,374.4c-2.7,0-4.8-0.8-6.3-2.4c-1.5-1.6-2.2-3.8-2.2-6.7v-8.8c0-2.9,0.7-5.2,2.2-6.8
			c1.5-1.6,3.6-2.4,6.3-2.4c2.7,0,4.7,0.8,6.2,2.4c1.5,1.6,2.2,3.9,2.2,6.8v8.8c0,2.9-0.7,5.1-2.2,6.7S605.9,374.4,603.2,374.4z
			 M603.2,370.8c1.5,0,2.6-0.4,3.4-1.2c0.8-0.8,1.1-2.2,1.1-4.1v-8.9c0-1.9-0.4-3.3-1.1-4.2c-0.8-0.9-1.9-1.4-3.4-1.4
			c-1.5,0-2.6,0.5-3.4,1.4c-0.8,0.9-1.1,2.3-1.1,4.2v8.9c0,1.9,0.4,3.3,1.1,4.1C600.5,370.4,601.7,370.8,603.2,370.8z"/>
		<path fill="#FFFFFF" d="M625.2,374v-22.6h-5.5v-3.6h5.5V346c0-2.2,0.7-4,2.1-5.3c1.4-1.3,3-1.9,4.9-1.9c1.2,0,2.2,0.2,3.2,0.5
			c1,0.3,1.7,0.6,2.3,1l-0.7,3.3c-0.8-0.4-1.6-0.7-2.4-0.9c-0.8-0.2-1.5-0.3-2.3-0.3c-1,0-1.8,0.3-2.3,0.8c-0.6,0.5-0.9,1.4-0.9,2.6
			v2h7.9v3.6h-7.9V374H625.2z"/>
		<path fill="#FFFFFF" d="M679.8,374.4c-0.8,0-1.5-0.1-2.3-0.3c-0.8-0.2-1.5-0.6-2.3-1v9.6h-3.9v-34.9h3.9v3.4h1
			c0.4-1.2,1.1-2.1,2.1-2.8c1-0.7,2.2-1,3.7-1c1.9,0,3.5,0.8,4.6,2.5c1.1,1.6,1.6,3.9,1.6,6.8v8.7c0,2.9-0.7,5.1-2.2,6.7
			C684.5,373.6,682.4,374.4,679.8,374.4z M679.5,371c1.6,0,2.7-0.5,3.5-1.4s1.2-2.4,1.2-4.3v-8.9c0-1.7-0.3-3-0.9-3.9
			c-0.6-0.9-1.5-1.3-2.7-1.3c-1.1,0-2.1,0.3-3,1c-0.9,0.7-1.7,1.7-2.4,3.1v14c0.6,0.6,1.3,1,2,1.3C678,370.8,678.7,371,679.5,371z"
			/>
		<path fill="#FFFFFF" d="M702.2,374.4c-2,0-3.6-0.7-4.7-2c-1.1-1.3-1.7-3.1-1.7-5.5c0-2.3,0.6-4.1,1.8-5.4c1.2-1.3,2.9-2,5-2h5.5
			v-4.3c0-1.3-0.3-2.3-1-3.1c-0.7-0.8-1.7-1.2-3-1.2c-1.4,0-2.5,0.3-3.1,1s-1.1,1.9-1.5,3.8l-3.4-1c0.4-2.5,1.3-4.3,2.6-5.5
			c1.3-1.2,3.1-1.8,5.3-1.8c2.3,0,4.2,0.6,5.7,1.8c1.5,1.2,2.2,3.1,2.2,5.5v13c0,1.3,0.3,2.2,0.9,2.7s1.5,0.5,2.8,0.1v3.7
			c-1.9,0.3-3.3,0.1-4.3-0.5c-1-0.7-1.5-1.8-1.7-3.6h-0.7c-0.6,1.3-1.5,2.3-2.7,3.1C705.1,374,703.8,374.4,702.2,374.4z
			 M702.9,370.9c1.3,0,2.3-0.3,3.2-0.8c0.9-0.6,1.6-1.5,2.1-2.7v-4.6h-4.9c-1.2,0-2.1,0.3-2.7,0.9c-0.6,0.6-0.9,1.6-0.9,3.1
			c0,1.3,0.2,2.4,0.7,3.1C700.9,370.5,701.8,370.9,702.9,370.9z"/>
		<path fill="#FFFFFF" d="M731.2,374.4c-3,0-5.2-0.8-6.7-2.4c-1.5-1.6-2.2-3.8-2.2-6.6v-8.9c0-2.9,0.7-5.2,2.2-6.8
			c1.5-1.6,3.7-2.4,6.6-2.4c2.7,0,4.7,0.7,6,2.1c1.4,1.4,2.1,3.7,2.3,6.7l-3.8,0.2c-0.1-2.2-0.5-3.6-1.2-4.4
			c-0.7-0.7-1.8-1.1-3.3-1.1c-1.6,0-2.8,0.4-3.6,1.2c-0.8,0.8-1.2,2.2-1.2,4.3v9.1c0,1.9,0.4,3.2,1.2,4.1c0.8,0.8,2,1.2,3.6,1.2
			c1.5,0,2.7-0.3,3.3-0.9c0.7-0.6,1.1-1.8,1.2-3.7l3.8,0.2c-0.1,2.8-0.9,4.8-2.2,6.1C736,373.8,733.9,374.4,731.2,374.4z"/>
		<path fill="#FFFFFF" d="M753.2,361.9V374h-4v-34.9h4v19.5h1.6l6-10.7h4.5l-7.5,12.2l7.4,14h-4.4l-6.1-12.1H753.2z"/>
		<path fill="#FFFFFF" d="M778.8,374.4c-2,0-3.6-0.7-4.7-2s-1.7-3.1-1.7-5.5c0-2.3,0.6-4.1,1.8-5.4c1.2-1.3,2.9-2,5-2h5.5v-4.3
			c0-1.3-0.3-2.3-1-3.1c-0.7-0.8-1.7-1.2-3-1.2c-1.4,0-2.5,0.3-3.1,1c-0.6,0.7-1.1,1.9-1.5,3.8l-3.4-1c0.4-2.5,1.3-4.3,2.6-5.5
			c1.3-1.2,3.1-1.8,5.3-1.8c2.3,0,4.2,0.6,5.7,1.8c1.5,1.2,2.2,3.1,2.2,5.5v13c0,1.3,0.3,2.2,0.9,2.7c0.6,0.4,1.5,0.5,2.8,0.1v3.7
			c-1.9,0.3-3.3,0.1-4.3-0.5s-1.5-1.8-1.7-3.6h-0.7c-0.6,1.3-1.5,2.3-2.8,3.1C781.7,374,780.3,374.4,778.8,374.4z M779.5,370.9
			c1.3,0,2.3-0.3,3.2-0.8c0.9-0.6,1.6-1.5,2.1-2.7v-4.6h-4.9c-1.2,0-2.1,0.3-2.7,0.9c-0.6,0.6-0.9,1.6-0.9,3.1
			c0,1.3,0.2,2.4,0.7,3.1C777.5,370.5,778.4,370.9,779.5,370.9z"/>
		<path fill="#FFFFFF" d="M817.3,376.2c0,2.4-0.7,4.1-2,5.2c-1.3,1.1-3,1.7-4.9,1.7h-6.1c-2.1,0-3.8-0.5-5.1-1.5
			c-1.3-1-1.9-2.7-1.9-4.9c0-1.4,0.3-2.5,0.9-3.3s1.4-1.3,2.5-1.4V371c-0.8-0.1-1.4-0.6-1.9-1.2c-0.5-0.7-0.7-1.7-0.7-3.1
			c0-1.2,0.3-2.3,1-3.3c0.6-1,1.6-1.6,3-1.7v-0.8c-1.1-0.5-1.8-1.2-2.2-2.2s-0.6-1.9-0.6-2.7v-1.4c0-2,0.7-3.6,2-5
			c1.3-1.3,3.1-2,5.4-2h10.1v3.8l-5.1-1.1v0.9c0.8,0.3,1.5,0.9,2,1.8c0.5,0.9,0.7,1.8,0.7,2.7v1.3c0,2-0.6,3.6-1.9,4.8
			c-1.2,1.3-3.1,1.9-5.6,1.9h-3.7c-0.6,0-1.1,0.2-1.4,0.6c-0.3,0.4-0.5,1.1-0.5,2.1c0,0.9,0.2,1.6,0.6,2.1c0.4,0.5,1,0.7,1.9,0.7
			h7.1c1.9,0,3.5,0.5,4.7,1.6C816.7,372,817.3,373.8,817.3,376.2z M804.3,379.9h6.4c0.9,0,1.7-0.3,2.2-0.8c0.6-0.5,0.9-1.4,0.9-2.7
			c0-1.2-0.3-2.1-0.8-2.6c-0.5-0.5-1.2-0.8-2.1-0.8h-9.7v3.1c0,1.3,0.3,2.2,0.8,2.9C802.6,379.5,803.4,379.9,804.3,379.9z
			 M806.7,360.7c1.3,0,2.2-0.3,2.8-1c0.6-0.7,0.9-1.7,0.9-3.2v-1.3c0-1.5-0.3-2.5-0.9-3.1c-0.6-0.6-1.6-1-2.8-1
			c-1.2,0-2.2,0.3-2.8,1s-0.9,1.7-0.9,3.1v1.3c0,1.5,0.3,2.5,0.9,3.2S805.5,360.7,806.7,360.7z"/>
		<path fill="#FFFFFF" d="M841.5,368.3c-0.7,2.1-1.6,3.7-2.9,4.7c-1.3,1-3.1,1.5-5.7,1.5c-2.6,0-4.7-0.8-6.2-2.3s-2.3-3.8-2.3-6.8
			v-8.8c0-3.1,0.8-5.4,2.4-6.9c1.6-1.5,3.6-2.3,6.1-2.3c2.5,0,4.6,0.8,6.1,2.4c1.5,1.6,2.3,4,2.3,7.2v4.7h-13v3.6
			c0,2,0.4,3.5,1.1,4.3s1.9,1.3,3.4,1.3c1.5,0,2.5-0.3,3.3-0.9c0.7-0.6,1.3-1.6,1.6-2.9L841.5,368.3z M828.4,356.7v1.8h9v-1.4
			c0-2.2-0.4-3.8-1.1-4.8c-0.7-1-1.9-1.5-3.4-1.5c-1.5,0-2.7,0.5-3.4,1.5C828.8,353.3,828.4,354.7,828.4,356.7z"/>
		<path fill="#FFFFFF" d="M858.8,374.4c-1.7,0-3.4-0.3-5-0.8c-1.7-0.6-3.1-1.3-4.3-2.4l1.4-3.2c1.1,0.8,2.3,1.5,3.7,2
			c1.4,0.5,2.8,0.8,4.2,0.8c1.5,0,2.7-0.3,3.4-0.9s1.1-1.5,1.1-2.7c0-1.4-0.4-2.4-1.2-3c-0.8-0.6-2.2-1.1-4.3-1.7
			c-2.8-0.7-4.8-1.7-6-2.9c-1.2-1.2-1.7-2.8-1.7-4.9c0-2.4,0.7-4.2,2.1-5.5c1.4-1.3,3.3-2,5.7-2c1.5,0,3,0.3,4.6,0.9
			c1.5,0.6,2.9,1.4,4,2.4l-1.4,3.2c-1-0.8-2.1-1.4-3.4-2c-1.3-0.6-2.5-0.9-3.8-0.9c-1.3,0-2.3,0.3-2.9,0.9c-0.6,0.6-0.9,1.5-0.9,2.7
			c0,1.4,0.4,2.4,1.2,3s2.3,1.1,4.4,1.7c2.7,0.7,4.7,1.7,5.8,2.9c1.1,1.2,1.7,2.8,1.7,4.8c0,2.4-0.8,4.2-2.3,5.5
			C863.5,373.8,861.5,374.4,858.8,374.4z"/>
	</g>
</g>
<g>

		<path fill="none" stroke="#333333" stroke-width="2.9942" stroke-linecap="round" stroke-linejoin="round" stroke-miterlimit="10" d="
		M88.1,143.3c0,0-0.8,9.7-0.6,17.2c0.2,7.5-0.6,19.7-0.4,25.7c0.2,6.1,0.3,11.4,0.4,16.8c0.1,5.3-0.7,14.6-0.5,20
		c0.1,5.4,1.4,12.1,1.5,17.1c0.1,5,0.2,6.4,0.2,6.4s40.5,10.8,47.7,13.5c7.2,2.7,13.1,4.3,17.1,4.6c3.9,0.3,11.7,1.9,16.8,3.5
		c5,1.7,14.7,4.7,21.2,6.7c6.5,2,14.8,4.3,14.8,4.3s5.6-4.4,10.9-7.1c5.3-2.6,31.3-17.2,35.9-20.6c4.6-3.3,10.6-4.9,14.4-7.2
		c3.9-2.2,7-4.5,7-4.5s-0.7-13.2,0.2-19.6c0.9-6.4,0.5-34.6,0.4-39.3c-0.1-4.6,0.9-20.4,1.4-29.3c0.5-8.9,1.4-15.7,1.4-15.7
		s-20.6,5.9-24.1,8.5c-3.5,2.6-11.6,5.3-19.8,8.7c-8.1,3.4-22.2,9.9-24,11c-1.8,1.1-6.3,3-6.3,3s-19.3-2-24-2.9
		c-4.7-1-26.6-5.7-32.7-7c-6.1-1.3-23-4.8-26.2-6.1c-3.2-1.3-10.1-2.2-15.1-3.5c-5-1.3-5.4-0.9-7.9-1.9
		C95.2,144.5,88.1,143.3,88.1,143.3z"/>

		<path fill="none" stroke="#333333" stroke-width="2.9942" stroke-linecap="round" stroke-linejoin="round" stroke-miterlimit="10" d="
		M88.1,143.3c0,0-6.1-6.9-9.1-10.1c-2.9-3.3-8.3-9.3-10.3-11.4c-2-2.1-6.9-9.8-8.9-12.6c-2-2.8-3.7-6.1-3.7-6.1s10.3,3.8,14.4,5.1
		c19.4,6.3,39.7,8.7,59.8,11.8c15.9,2.4,32.5,8.9,48.6,9.1c0,0,8.2,12.2,10.1,14.5c2,2.3,9.4,11.7,10.1,13.3
		c0.8,1.6,4.6,10.1,4.6,10.1s0.4,5.2,0.5,10.9c0.1,5.7,0.2,7.6,0.3,12.8c0.1,5.2,0.2,7.6,0.3,12.8c0.3,11.8,1.1,23.6,0.7,35.4
		c-0.1,4-0.6,3.8-0.5,9.8c0.3,10.3-0.6,20,1.1,30.2"/>

		<path fill="none" stroke="#333333" stroke-width="2.9942" stroke-linecap="round" stroke-linejoin="round" stroke-miterlimit="10" d="
		M277.8,135.8c0,0,3.7-4.9,4.8-6.3c1.2-1.5,3.9-6.5,7.1-9.9c3.2-3.4,6.7-7.6,8.8-10.9c2.1-3.4,11.5-16.3,11.5-16.3s-12.7,7-17.1,8.8
		c-4.5,1.8-6.8,3.3-11.3,4.8c-4.5,1.5-14.4,4.7-17.9,5.9c-3.5,1.3-12.7,5.3-15.3,6.6c-2.6,1.3-12.3,3.7-12.3,3.7s-5.5,9.9-8,12.6
		c-2.5,2.7-9.9,13.6-10.3,14.8c-0.4,1.2-14.1,17.5-14.1,17.5"/>

		<path fill="none" stroke="#333333" stroke-width="2.9942" stroke-linecap="round" stroke-linejoin="round" stroke-miterlimit="10" d="
		M131.2,120c2.6-1.3,7.8-5.1,9.2-5.8c1.4-0.8,6.3-4.7,6.3-4.7s5.5,1.3,8.9,1.7c3.3,0.4,5.2,0.6,7.4,0.5c13.1-0.3,25.9,2.7,38.5,5.5
		c9.3,2,19.1,2.9,28.2,5.6c1.4,0.4,5,1.1,5,1.1"/>

		<path fill="none" stroke="#333333" stroke-width="2.9942" stroke-linecap="round" stroke-linejoin="round" stroke-miterlimit="10" d="
		M283.2,104.9c0,0,1.3-5.7,2.6-7.9c1.4-2.2,4.1-8.7,4.7-11.1c0.6-2.4,3.6-9.4,3.6-9.4s-4.3-0.1-7.9-0.7c-19.2-3.3-38.9-4.4-58-8
		c-5.5-1-13.8-1.3-18.8-1.6c-5-0.3-8.6-1.2-12.2-1.3c-3.6-0.1-10.5-0.4-16.2-0.8c-5.7-0.3-11.2-1.1-11.9-1.4
		c-0.7-0.2-3.1-0.6-3.1-0.6s-2,6.5-4.5,11.8c-2.5,5.3-5.6,11.8-7.7,16.1c-2,4.3-3.4,8.2-4.5,10.4c-1.1,2.2-2.6,9.1-2.6,9.1
		s-2.9-2.5-4.4-4.2c-1.5-1.6-9.6-11.2-11-12.6c-1.5-1.4-7.4-10.3-9.6-12.4c-2.2-2.1-3.7-4-4.9-6.1c-1.2-2.1-3.2-4.9-3.2-4.9
		s-6.6,2.1-10.8,3.9c-4.2,1.8-11.3,4.8-16,6.4c-4.7,1.6-12,4.1-15.8,6.1c-3.8,2-6.3,3.3-9.6,4.5c-3.3,1.3-7.3,3.3-7.3,3.3
		s3.8,2.9,6.3,5.5c2.6,2.7,3.5,3.6,4.8,4.8c1.2,1.2,3.4,3.5,3.4,3.5"/>

		<path fill="#FFFFFF" stroke="#ED1C24" stroke-width="2.9942" stroke-linecap="round" stroke-linejoin="round" stroke-miterlimit="10" d="
		M198.8,109.8c0,0-0.4-4.2-1.8-6.2c-1.4-2-3.8-3.7-5-3.9c-1.2-0.2-3.2,0.4-4.1,1c-0.9,0.6-1.1,0.7-2,2.4c-0.9,1.7-1.4,3.7-1.6,4.8
		c-0.2,1.1,0.1,4.7,0.6,5.8c0.6,1,1.3,2.5,2,3.8c1.6,3,3.4,6.6,5.5,9.4c0.7,0.9,1.6,2.2,2.1,3.2c0.5,1,1.2,2.4,1.2,2.4
		s1.6-1.6,2.4-2.5c0.8-0.9,2.2-1.7,3.5-3.1c2.7-3.1,6-5.6,8.7-8.7c1.6-1.8,3.5-6,3.7-7.9c0.3-1.9-0.4-4.5-1.2-5.5
		c-2.2-2.9-7.4-3.5-10.1-1c-1.3,1.2-1.2,1.4-2,2.3C200,106.9,198.8,109.8,198.8,109.8z"/>

		<path fill="#FFFFFF" stroke="#ED1C24" stroke-width="2.9942" stroke-linecap="round" stroke-linejoin="round" stroke-miterlimit="10" d="
		M120.3,87c0,0-2.8-3.1-5.1-3.9c-2.3-0.8-5.3-0.7-6.3-0.2c-1.1,0.6-2.3,2.2-2.7,3.2c-0.4,1-0.4,1.2-0.2,3.1c0.3,1.9,1,3.8,1.5,4.8
		c0.5,1,2.9,3.8,3.9,4.3c1.1,0.5,2.5,1.3,3.9,1.9c3,1.5,6.7,3.3,9.9,4.3c1.1,0.3,2.6,0.8,3.6,1.3c1,0.5,2.4,1.3,2.4,1.3
		s0.3-2.2,0.4-3.4c0.1-1.2,0.8-2.7,1-4.6c0.3-4.1,1.5-8.1,1.9-12.1c0.2-2.4-0.8-6.9-1.6-8.6c-0.9-1.7-3-3.3-4.3-3.7
		c-3.5-1.1-8,1.6-8.7,5.1c-0.4,1.7-0.1,1.8-0.2,3C119.5,84,120.3,87,120.3,87z"/>

		<path fill="#FFFFFF" stroke="#ED1C24" stroke-width="2.9942" stroke-linecap="round" stroke-linejoin="round" stroke-miterlimit="10" d="
		M256.1,75.2c0,0,0.6-4.1-0.2-6.4c-0.8-2.3-2.8-4.5-3.9-5c-1.1-0.5-3.2-0.4-4.2,0c-1,0.3-1.2,0.4-2.5,1.9c-1.3,1.4-2.3,3.2-2.7,4.2
		c-0.4,1-1.1,4.6-0.8,5.7c0.3,1.2,0.6,2.8,1,4.2c0.8,3.3,1.7,7.3,3,10.4c0.4,1,1,2.5,1.2,3.6c0.2,1.1,0.5,2.6,0.5,2.6
		s1.9-1.2,2.9-1.9c1-0.7,2.6-1,4.2-2.2c3.4-2.4,7.2-3.9,10.6-6.2c2-1.4,4.8-5,5.6-6.7c0.7-1.7,0.7-4.4,0.2-5.7
		c-1.4-3.4-6.3-5.2-9.5-3.5c-1.5,0.8-1.5,1.1-2.5,1.8C258,72.7,256.1,75.2,256.1,75.2z"/>

		<path fill="#FFFFFF" stroke="#ED1C24" stroke-width="2.9942" stroke-linecap="round" stroke-linejoin="round" stroke-miterlimit="10" d="
		M138,31.1c0,0-1.3-4-3.1-5.6c-1.8-1.7-4.6-2.7-5.7-2.7c-1.2,0.1-3,1.1-3.7,1.9c-0.7,0.8-0.9,0.9-1.4,2.8c-0.5,1.9-0.6,3.9-0.5,5
		c0.1,1.1,1.1,4.6,1.9,5.5c0.8,0.9,1.8,2.2,2.8,3.3c2.2,2.6,4.8,5.7,7.4,7.9c0.8,0.7,2,1.7,2.7,2.6c0.7,0.9,1.7,2.1,1.7,2.1
		s1.2-1.9,1.8-3c0.6-1.1,1.8-2.1,2.7-3.9c1.9-3.6,4.6-6.8,6.6-10.4c1.2-2.2,2-6.6,1.9-8.5c-0.1-1.9-1.4-4.2-2.5-5.1
		c-2.8-2.4-7.9-1.7-10,1.2c-1,1.4-0.8,1.6-1.4,2.7C138.5,28,138,31.1,138,31.1z"/>

		<path fill="#FFFFFF" stroke="#ED1C24" stroke-width="2.9942" stroke-linecap="round" stroke-linejoin="round" stroke-miterlimit="10" d="
		M194.7,50.6c0,0-2.1-3.6-4.2-4.9c-2.1-1.3-5-1.8-6.2-1.5c-1.1,0.3-2.7,1.7-3.3,2.6c-0.6,0.9-0.7,1.1-0.8,3c-0.1,1.9,0.2,4,0.5,5
		c0.3,1.1,2,4.3,3,5c0.9,0.7,2.2,1.8,3.4,2.7c2.7,2.1,5.9,4.6,8.8,6.3c1,0.5,2.3,1.3,3.2,2c0.9,0.7,2,1.7,2,1.7s0.8-2.1,1.1-3.3
		c0.3-1.2,1.4-2.4,1.9-4.3c1.1-3.9,3.2-7.6,4.4-11.5c0.7-2.3,0.7-6.9,0.2-8.7c-0.5-1.8-2.2-3.9-3.4-4.5c-3.2-1.8-8.1-0.1-9.6,3.2
		c-0.7,1.6-0.5,1.8-0.8,2.9C194.6,47.5,194.7,50.6,194.7,50.6z"/>
</g>
</svg>
