<?xml version="1.0" encoding="UTF-8"?>
<svg xmlns="http://www.w3.org/2000/svg" version="1.1" viewBox="0 0 584.6 212.6">
  <!-- Generator: Adobe Illustrator 29.1.0, SVG Export Plug-In . SVG Version: 2.1.0 Build 142)  -->
  <defs>
    <style>
      .st0 {
        fill: #e32d22;
      }

      .st1 {
        fill: #ffb5af;
      }
    </style>
  </defs>
  <path class="st0" d="M227.4,108c-6.7-.1-14.2,1.4-19.5,6v-4.9h-13.1v82.6h14.5v-24.7c4.2,4.5,9.6,5.5,16.4,5.5,24.2,0,26.9-17,26.9-32.1s-2.9-32.1-25.2-32.4ZM225.1,159.7c-12.4,0-15.9-3.7-15.9-19.3s3.5-19.6,15.9-19.6,13.1,5,13.1,19.6-2.3,19.3-13.1,19.3ZM287.5,108c-10.1,0-17.7,1.8-23,7-5.5,5.2-6.7,13.3-6.7,25.2s1.2,20,6.7,25.2c5.4,5.3,12.9,7,23,7s17.7-1.8,23-7c5.5-5.2,6.7-13.3,6.7-25.2s-1.1-20-6.7-25.2c-5.4-5.2-13.1-7-23-7ZM287.5,159.7c-14,0-15.2-5.4-15.2-19.5s1.3-19.5,15.2-19.5,15.2,5.4,15.2,19.5-1.3,19.5-15.2,19.5ZM459.9,108c-25.1,0-28.7,14.3-28.7,33s4,31.5,29.1,31.5,27.4-2.9,27.4-19.7h-14c-.1,7-7.6,7.8-12.9,7.8-12.4,0-15.1-4.2-15.1-14.9h42.8c0-21.8-1.3-37.8-28.5-37.8ZM445.9,134c0-8.3,1.3-14.1,14-14.1s14.2,5.1,14.2,14.1h-28.2ZM525,108c-8.8,0-14.5,2.8-18,6v-4.9h-12.5v62.4h14.5v-29.1c0-10.9-1.2-21.6,14.5-21.6s11.4,5.8,11.4,17.8v32.9h14.5v-34.1c0-13.6,1-29.4-24.2-29.4ZM407.3,160.7c-7-.1-7.9-3.7-7.9-8.4v-30.7h28.4v-12.5h-28.4v-20.2h-14.5v20.2h-8.4v12.5h8.4v30.7c0,14,8.3,20.2,22.8,20.2s20.3-4.7,20.3-19.7h-13.1c-.2,4-1.1,8.1-7.6,7.9ZM346.1,133.7c-6.3-.4-10.4-.4-10.1-7.4.1-4.1,1.2-7,13.6-6.7,8.4.3,11.1,2,11.1,8.1h13.3c0-14.9-9-19.5-24.5-19.7-16.6-.3-27.7,3.2-27.9,18.7-.4,19.2,14,18.7,27.9,19.5,7.2.4,11.5.5,11.3,7.9-.1,4.5-1.6,7.3-14,6.9-10.2-.3-12.1-2.8-12.1-8.2h-13.3c0,15.4,9.8,19.5,25.6,19.7,16.8.3,28-3.7,28.2-19.1.4-20-14.6-18.8-28.9-19.7Z"/>
  <path class="st0" d="M171.4,109.1c-1.4,18.2-16.7,32.6-35.3,32.6s-33.9-14.4-35.3-32.6H35.5c1.5,37.8,32.6,68,70.8,68s69.3-30.2,70.8-68h-5.7Z"/>
  <path class="st1" d="M100.8,103.5c1.4-18.2,16.7-32.6,35.3-32.6s33.9,14.4,35.3,32.6h5.7c-1.5-37.8-32.6-68-70.8-68s-69.3,30.2-70.8,68h65.2Z"/>
</svg>