<svg xmlns="http://www.w3.org/2000/svg" width="128" height="40" viewBox="0 0 134.85 41.02"><path fill="#e32d22" d="M81.53 25.8c-1.65-.1-2.72-.1-2.66-1.95.04-1.07.32-1.85 3.58-1.75 2.21.07 2.9.54 2.9 2.12h3.5c0-3.9-2.37-5.1-6.44-5.17-4.37-.07-7.26.84-7.33 4.9-.1 5.04 3.66 4.9 7.32 5.11 1.89.1 3.03.13 2.96 2.08-.03 1.18-.42 1.92-3.68 1.82-2.69-.07-3.18-.74-3.18-2.15H75c0 4.03 2.58 5.1 6.72 5.17 4.4.07 7.34-.97 7.4-5 .1-5.25-3.83-4.94-7.59-5.18m16.05 7.1c-1.85-.04-2.07-.98-2.07-2.23v-8.05h7.47v-3.28H95.5v-5.3h-3.8v5.3h-2.2v3.28h2.2v8.05c0 3.67 2.18 5.31 5.98 5.31 3.26 0 5.33-1.24 5.33-5.17h-3.45c-.04 1.04-.28 2.11-1.99 2.08m30.91-13.84c-2.32 0-3.8.73-4.74 1.57v-1.28h-3.3v16.37h3.8V28.1c0-2.86-.3-5.68 3.8-5.68 3.3 0 3 1.5 3 4.67v8.63h3.8v-8.94c0-3.56.26-7.72-6.36-7.72m-20.76 6.82c0-2.19.34-3.7 3.66-3.7 3.53 0 3.73 1.35 3.73 3.7h-7.39zm3.66-6.82c-6.58 0-7.52 3.76-7.52 8.66 0 4.78 1.04 8.27 7.62 8.27 3.1 0 7.2-.77 7.2-5.17H115c-.03 1.85-2 2.05-3.38 2.05-3.26 0-3.97-1.11-3.97-3.9h11.23c0-5.71-.34-9.91-7.5-9.91M66.15 32.62c-3.66 0-4-1.4-4-5.1 0-3.7.34-5.11 4-5.11 3.67 0 4 1.4 4 5.1 0 3.7-.33 5.11-4 5.11m0-13.57c-2.65 0-4.63.47-6.04 1.84-1.45 1.38-1.75 3.5-1.75 6.62 0 3.13.3 5.25 1.75 6.62 1.4 1.38 3.39 1.85 6.04 1.85 2.63 0 4.64-.47 6.05-1.85 1.45-1.37 1.75-3.49 1.75-6.62 0-3.12-.3-5.24-1.75-6.62-1.4-1.37-3.42-1.84-6.05-1.84M49.76 32.62c-3.26 0-4.17-.97-4.17-5.07 0-4.1.91-5.14 4.17-5.14 2.82 0 3.43 1.3 3.43 5.14 0 3.83-.6 5.07-3.43 5.07m.6-13.57c-1.74-.04-3.72.36-5.1 1.57v-1.28h-3.43v21.68h3.8v-6.48c1.1 1.17 2.52 1.44 4.3 1.44 6.35 0 7.05-4.47 7.05-8.43 0-5.21-.77-8.44-6.61-8.5M35.66 19.35a9.3 9.3 0 0 1-18.54 0H0a18.6 18.6 0 0 0 37.17 0h-1.5z"/><path fill="#ffb5af" d="M17.12 17.86a9.3 9.3 0 0 1 18.54 0h1.5a18.6 18.6 0 0 0-37.17 0h17.13z"/></svg>