<svg width="1067" height="800" viewBox="0 0 1067 800" fill="none" xmlns="http://www.w3.org/2000/svg" xmlns:xlink="http://www.w3.org/1999/xlink" x="0px" y="0px">
    <path d="M907.215 407.148H554.816V208.277H894.045L907.215 213.545V407.148Z" fill="#FFF5F0"/>
    <path d="M719.256 559.548C719.632 560.112 720.197 560.489 720.761 560.865C721.89 561.429 723.207 561.429 724.524 561.241C726.782 560.865 729.228 560.489 731.674 561.053C735.06 561.806 737.318 564.628 740.328 566.509C743.715 568.767 745.973 570.084 752.182 569.708C758.39 569.331 772.689 566.697 788.118 564.063C801.288 561.806 828.945 556.161 828.945 556.161C828.945 556.161 831.015 550.329 830.262 548.071C829.51 545.813 826.688 544.496 824.242 543.555C813.329 539.792 801.288 538.664 789.623 538.852C777.958 539.04 766.293 540.733 754.627 542.427C747.854 543.367 741.269 544.308 734.496 545.249C731.109 545.813 727.722 546.189 724.336 546.754C723.019 546.942 721.514 547.13 720.197 547.13C719.444 547.13 719.256 546.189 718.691 546.754C717.939 547.318 717.562 556.161 717.562 556.161C717.562 556.161 718.503 558.607 719.256 559.548Z" fill="#E32D22"/>
    <path d="M765.166 253.998C776.643 253.998 788.308 253.81 799.785 253.622C818.412 253.434 837.227 253.434 855.665 253.057C858.111 253.057 860.557 253.057 863.003 252.869C864.32 252.869 865.637 252.869 866.577 253.245C867.33 253.622 867.706 254.186 867.895 254.751C868.271 256.256 867.706 257.761 867.142 259.266C867.142 259.454 866.954 259.831 866.766 259.831C866.389 260.019 865.637 260.207 865.072 260.207C863.191 260.395 861.309 260.395 859.428 260.583C842.871 260.959 826.314 261.524 809.757 261.524C800.914 261.524 792.071 261.712 783.228 261.9C778.901 261.9 774.386 261.9 770.058 261.9C765.919 261.9 761.968 261.9 757.829 261.524C757.452 261.524 756.888 261.524 756.7 261.336C756.135 261.148 756.135 260.771 756.323 260.395C756.512 258.702 756.7 257.008 757.076 255.315C757.076 254.939 757.264 254.374 757.829 254.186C758.393 253.81 759.334 253.81 760.275 253.81C761.78 253.998 763.473 253.998 765.166 253.998Z" fill="#D6D6D6"/>
    <path d="M756.885 272.812C757.826 271.871 759.519 271.871 761.025 272.059C763.471 272.059 765.728 272.059 768.174 272.059C772.878 272.059 777.582 272.059 782.473 272.059C791.881 272.059 801.476 272.059 810.884 272.247C812.765 272.247 832.897 272.436 837.6 272.436C847.008 272.436 856.227 272.436 865.634 272.436C866.763 272.436 868.08 272.436 868.645 273C869.021 273.376 868.833 273.753 868.833 273.941C868.833 275.07 868.645 276.198 868.645 277.327C868.645 277.704 868.645 278.08 868.268 278.456C867.704 279.021 866.199 279.209 864.882 279.209C829.698 279.773 794.327 280.338 759.143 280.902C758.391 280.902 757.45 280.902 756.885 280.526C756.697 280.338 756.697 279.961 756.509 279.773C756.321 278.268 756.321 276.951 756.133 275.446C756.133 274.317 756.133 273.564 756.885 272.812C756.885 272.812 756.697 272.812 756.885 272.812Z" fill="#D6D6D6"/>
    <path d="M904.208 384.383H557.453V392.097H904.208V384.383Z" fill="#FF8A5F"/>
    <path d="M533.558 408.277C515.684 419.001 497.81 429.538 479.748 440.262C475.609 442.708 470.717 446.847 472.411 451.551C473.916 455.502 479.184 456.255 483.323 456.255C647.951 459.077 812.768 458.512 977.396 454.185C981.159 454.185 992.26 456.443 992.26 449.105C992.26 447.412 916.249 400.751 909.852 395.295C908.723 394.166 909.475 394.354 907.97 393.79C907.03 393.602 905.901 393.602 904.96 393.602C891.225 394.731 877.867 393.037 864.32 393.037C819.729 393.037 775.327 392.661 730.736 392.473C685.957 392.285 641.178 392.097 596.587 391.908C590.567 391.908 584.358 391.908 578.337 391.908C573.633 391.908 568.554 391.344 563.85 392.849C552.937 396.8 543.154 402.633 533.558 408.277Z" fill="#FF8A5F"/>
    <path d="M989.061 449.295C986.427 449.295 983.793 449.483 981.159 449.483C975.514 449.671 918.506 449.107 907.781 449.107C896.681 448.918 885.58 448.918 874.48 448.73C852.278 448.542 830.265 448.354 808.064 448.354C785.862 448.166 763.849 448.166 741.648 448.166C719.447 448.166 697.433 448.166 675.232 448.166C653.031 448.166 631.018 448.166 608.816 448.354C586.803 448.354 564.79 448.542 542.777 448.542C539.578 448.542 536.38 448.542 533.181 448.542C523.774 448.542 514.367 448.542 504.959 448.542C500.256 448.542 495.552 448.542 490.848 448.542C488.402 448.542 486.145 448.542 483.699 448.542C483.134 448.542 481.253 448.542 480.124 448.542C478.995 448.542 478.054 447.978 479.936 446.472C484.075 443.274 497.998 435.748 503.642 432.361C512.673 426.905 521.893 421.261 530.924 415.616C535.439 412.794 539.955 409.972 544.47 407.15C545.599 406.397 548.421 404.516 551.055 402.822C553.689 400.941 556.323 399.248 556.7 399.06C557.64 398.495 558.769 397.931 559.71 397.742C560.839 397.554 562.156 397.554 563.285 397.554C578.901 397.554 594.705 397.554 610.321 397.554C620.858 397.554 692.73 398.495 702.702 398.495C726.596 398.495 909.475 395.673 909.851 395.297C910.227 394.732 910.416 364.252 910.416 350.141C910.416 313.641 908.346 277.14 908.91 240.64C909.099 231.609 909.287 222.39 908.158 213.359C907.97 212.23 907.781 210.913 907.029 210.16C902.513 205.833 892.918 207.15 887.085 206.962C878.995 206.774 870.905 206.585 862.814 206.585C846.822 206.397 830.829 206.397 814.837 206.962C799.221 207.526 746.916 207.714 736.568 207.526C701.949 207.15 667.142 204.328 632.523 206.962C617.471 208.091 601.855 209.031 586.615 208.655C576.455 208.467 566.86 208.843 556.888 210.348C555.571 210.536 554.254 210.913 553.313 211.853C552.184 212.982 552.184 214.676 551.996 216.181C549.55 271.496 550.679 326.999 551.808 382.503C551.808 384.572 551.996 386.642 552.56 388.523C550.491 390.593 548.421 393.227 546.728 394.544C542.212 397.931 537.321 400.941 532.241 403.763C516.06 413.171 499.691 422.39 483.511 431.797C476.925 435.56 470.717 439.323 464.508 443.462C463.943 443.838 463.567 444.215 463.191 444.591C462.814 445.155 462.814 445.72 462.626 446.284C461.874 451.552 461.309 455.692 461.497 460.96C461.497 462.277 461.686 464.346 462.814 465.099C464.884 466.792 473.915 466.604 478.807 466.604C545.223 466.792 818.788 466.604 831.958 466.604C846.069 466.604 860.369 466.604 874.48 466.416C888.402 466.416 975.138 466.98 986.991 466.98C988.873 466.98 990.378 466.98 991.319 465.287C991.695 464.723 991.883 461.901 992.071 460.207C992.259 456.256 992.448 452.681 992.259 448.73C991.13 449.295 990.19 449.295 989.061 449.295ZM566.86 217.874C567.424 217.686 568.177 217.498 568.929 217.498C585.11 216.745 599.033 216.557 615.401 216.557C643.247 216.557 671.281 216.557 699.127 216.557C730.924 216.557 897.622 217.498 899.127 218.062C900.632 218.627 901.949 220.132 901.761 221.825C901.761 224.083 901.761 226.341 901.761 228.599C901.761 235.184 901.761 241.769 901.761 248.354C901.761 257.761 901.761 267.357 901.761 276.764C901.761 287.677 901.761 298.401 901.761 309.313C901.761 320.038 901.761 330.762 901.761 341.487C901.761 350.518 901.761 359.549 901.761 368.58C901.761 371.966 901.761 375.541 901.761 378.928C901.761 380.245 901.761 381.562 901.761 383.067C901.761 385.137 902.513 388.147 899.503 388.147C893.482 388.147 887.838 389.088 882.194 388.9C876.925 388.9 872.034 388.523 866.954 388.335C847.386 387.959 827.819 388.147 808.252 388.335C727.725 388.711 647.386 389.276 566.86 389.652C565.919 389.652 563.849 390.217 563.285 389.088C563.097 388.711 563.097 388.335 563.097 387.959C563.097 387.018 563.285 385.889 563.285 384.949C563.473 380.245 563.473 375.729 563.661 371.026C563.849 364.629 563.849 358.232 564.037 351.835C564.037 344.309 564.226 336.783 564.226 329.257C564.226 321.167 564.414 313.076 564.414 304.986C564.414 297.084 564.602 288.994 564.602 281.091C564.602 273.754 564.602 266.416 564.602 259.078C564.602 253.058 564.602 247.037 564.602 241.016C564.602 236.877 564.602 232.738 564.602 228.599C564.602 226.905 564.602 225.4 564.602 223.707C564.602 221.637 564.79 218.815 566.86 217.874Z" fill="#E32D22"/>
    <path d="M692.351 457.196C692.163 458.325 692.351 459.454 693.291 460.206C694.044 460.959 695.173 461.147 696.114 461.147C698.183 461.335 700.253 461.335 702.323 460.959C703.828 460.582 705.521 460.018 706.085 458.513C708.343 452.492 693.856 451.175 692.351 457.196Z" fill="#980000"/>
    <path d="M714.553 459.266C714.741 461.336 716.434 461.524 716.999 461.524C733.932 461.9 747.29 461.9 763.847 461.712C765.917 461.712 767.422 461.9 768.551 460.583C769.492 459.455 769.304 457.385 769.304 455.88C769.304 453.434 767.987 453.058 766.481 453.058C764.224 453.058 761.401 452.681 759.144 452.681C749.172 452.681 721.514 451.929 718.128 452.493C714.177 453.434 714.365 456.068 714.553 459.266Z" fill="#980000"/>
    <path d="M552.75 205.268C546.917 206.02 546.729 208.09 546.729 213.922C545.976 264.722 548.234 334.901 548.234 385.7C548.234 390.404 547.105 393.791 542.59 397.177C539.391 399.623 532.43 403.951 532.43 403.951C532.43 403.951 541.649 400 548.046 395.484C551.621 393.038 553.126 391.345 554.443 388.334C555.948 384.76 555.76 380.997 555.572 377.046C555.007 361.429 555.572 349.388 555.572 333.772C555.195 296.331 555.195 255.127 557.077 217.685C557.265 215.804 557.453 213.734 558.77 212.605C559.899 211.665 561.592 211.477 563.286 211.477C658.864 209.595 878.808 209.407 896.87 207.149C847.576 203.386 805.995 205.456 749.363 204.515C746.729 204.515 728.667 205.08 726.033 205.08C703.455 204.703 684.076 204.139 661.498 204.139C639.862 204.327 565.544 203.574 552.75 205.268Z" fill="#980000"/>
    <path d="M661.498 444.401C702.326 444.213 756.135 444.213 796.587 443.837C798.469 443.837 801.103 443.461 801.667 441.579C802.043 440.074 801.291 438.757 800.35 437.44C799.409 436.123 798.469 434.994 797.528 433.677C797.151 433.112 796.587 432.36 796.023 432.172C795.27 431.795 794.517 431.795 793.765 431.795C756.7 431.607 708.911 431.984 672.222 432.172C668.647 432.172 666.201 431.795 663.755 434.241C663.191 434.806 661.121 438.757 659.24 441.391C657.17 444.401 659.992 444.401 661.498 444.401Z" fill="#FFF5F0"/>
    <path d="M615.778 411.665C618.6 411.289 620.858 411.289 622.551 409.031C623.68 407.338 626.502 404.892 627.067 403.01C627.631 400.564 623.492 401.317 621.798 401.129C616.154 400.941 610.698 400.941 605.053 400.752C593.765 400.564 582.476 400.564 571.187 400.752C570.246 400.752 569.306 400.752 568.365 401.129C567.424 401.505 566.483 402.258 565.731 402.822C562.909 405.268 559.71 407.338 557.076 409.784C556.888 409.972 556.512 410.536 556.7 410.724C562.156 411.101 581.535 411.289 586.615 411.477C589.625 411.853 609.005 412.606 615.778 411.665Z" fill="#FFF5F0"/>
    <path d="M630.266 407.903C628.761 411.29 635.534 410.913 638.733 411.101C642.684 411.29 646.635 411.478 650.586 411.478C664.509 411.478 673.163 412.042 687.651 411.478C690.285 411.478 692.166 411.101 693.86 409.22C694.8 408.091 699.88 402.635 698.187 401.318C697.622 400.941 697.058 400.941 696.305 400.941C678.055 400.941 659.617 400.941 641.367 400.941C640.238 400.941 638.921 400.941 637.792 401.318C635.346 401.882 633.653 403.764 631.771 405.645C631.019 406.586 630.454 407.338 630.266 407.903Z" fill="#FFF5F0"/>
    <path d="M714.741 401.318C712.86 401.318 710.978 401.506 709.097 401.882C705.334 403.011 703.264 406.774 701.571 410.161C701.383 410.349 701.383 410.725 701.383 410.913C701.571 411.478 702.512 411.289 702.888 411.289C710.79 411.666 762.342 412.23 769.868 412.23C778.335 412.23 887.084 412.23 914.741 411.854C915.494 411.854 916.435 411.478 916.435 410.725C916.435 410.349 916.246 410.161 915.87 409.972C913.424 407.527 909.849 405.269 907.215 403.199C906.651 402.635 905.898 402.258 905.146 401.882C904.205 401.506 903.264 401.694 902.324 401.694C901.759 401.694 901.195 401.694 900.63 401.694C894.421 402.07 875.607 401.506 869.21 401.506C862.06 401.506 819.351 401.318 805.052 401.318C791.505 401.318 777.959 401.13 764.224 401.13C747.855 401.13 731.674 400.941 715.306 400.941C715.306 401.318 714.929 401.318 714.741 401.318Z" fill="#FFF5F0"/>
    <path d="M541.836 427.469C543.153 427.469 544.47 427.469 545.599 427.657C548.985 427.845 552.372 427.845 555.759 427.845C561.027 427.845 566.107 427.845 571.375 427.845C572.127 427.845 572.88 427.845 573.633 427.469C574.385 427.093 575.138 426.528 575.89 425.964C577.395 424.647 578.901 423.33 580.406 421.825C581.535 420.884 582.852 419.943 584.169 418.25C585.486 416.745 583.792 416.933 582.099 416.745C580.218 416.745 578.336 416.557 576.455 416.557C568.929 416.18 561.215 415.804 553.689 415.428C552.936 415.428 552.184 415.428 551.619 415.428C550.867 415.616 550.114 415.992 549.362 416.368C546.539 417.874 538.449 422.954 537.885 423.33C536.944 424.082 535.815 424.647 535.251 425.776C535.063 425.964 535.062 426.152 535.062 426.34C535.062 426.717 535.627 426.905 536.003 426.905C537.885 427.281 539.766 427.281 541.836 427.469Z" fill="#FFF5F0"/>
    <path d="M588.494 427.846C589.435 427.846 590.564 427.846 591.504 427.846C606.932 427.846 622.172 427.657 637.412 427.469C638.541 427.469 639.67 427.469 640.423 426.905C641.175 426.34 641.74 425.4 642.116 424.647C642.68 423.33 643.245 421.825 643.809 420.32C643.997 419.567 644.186 418.815 644.374 418.062C644.562 417.498 644.75 416.933 643.809 416.745C643.621 416.745 643.621 416.745 643.433 416.745C639.294 416.557 634.966 416.557 630.639 416.557C627.629 416.557 624.618 416.557 621.42 416.557C613.141 416.745 605.051 416.933 596.772 416.557C595.832 416.557 594.703 416.369 593.762 416.745C593.01 416.933 592.445 417.498 591.881 417.874C590.187 419.191 588.682 420.32 587.177 421.825C585.672 423.142 584.355 424.647 582.85 426.34C582.661 426.529 582.473 426.717 582.285 427.093V427.281C582.285 427.469 582.473 427.469 582.85 427.657C584.919 427.657 586.801 427.846 588.494 427.846Z" fill="#FFF5F0"/>
    <path d="M647.95 424.082C647.761 424.646 647.573 425.211 647.762 425.775C648.138 426.716 649.455 427.092 650.584 427.092C663.566 427.845 676.736 427.845 689.718 427.468C690.847 427.468 692.164 427.28 693.105 426.716C693.858 426.151 694.422 425.399 694.986 424.646C696.303 422.577 697.62 420.319 698.749 417.873C698.938 417.309 699.314 416.556 698.749 415.992C698.373 415.615 697.809 415.615 697.244 415.615C691.788 415.615 679.935 415.992 670.151 415.992C661.308 415.992 654.723 415.615 652.841 416.18C650.019 417.309 648.89 421.071 647.95 424.082Z" fill="#FFF5F0"/>
    <path d="M710.604 427.657C717.942 427.657 745.788 427.469 747.293 427.469C748.045 427.469 748.986 427.469 749.739 427.281C750.115 427.281 750.68 427.281 751.056 427.281C751.432 427.281 751.62 427.281 751.808 426.905C751.997 426.717 751.997 426.528 751.997 426.152C752.185 424.835 752.185 423.518 752.185 422.201C752.185 421.072 752.373 419.755 751.808 418.626C751.432 417.874 750.491 417.309 749.927 417.121C747.293 416.933 744.847 416.745 742.213 416.745C739.767 416.745 737.509 416.745 735.063 416.745C733.558 416.745 732.241 416.745 730.736 416.745C726.22 416.745 721.705 416.557 717.189 416.557C714.932 416.557 712.674 416.557 710.416 416.557C709.287 416.557 708.158 416.557 707.029 416.557C706.465 416.557 705.901 416.557 705.336 416.557C704.772 416.557 704.395 416.557 704.019 417.309C703.643 418.25 703.455 419.191 703.078 420.131C702.514 422.201 701.761 424.083 701.197 426.152C701.197 426.528 701.009 426.905 701.197 427.093C701.197 427.281 701.385 427.281 701.385 427.281C704.584 427.657 707.594 427.657 710.604 427.657Z" fill="#FFF5F0"/>
    <path d="M762.718 428.034C764.035 428.034 765.164 428.034 765.728 428.034C775.136 428.034 784.543 428.034 793.95 427.845C802.793 427.657 811.824 427.281 820.667 427.469C821.232 427.469 821.796 427.469 821.984 426.905C821.984 426.717 821.984 426.34 821.796 426.152C820.667 423.518 819.726 420.884 818.598 418.25C818.409 418.062 818.409 417.686 818.221 417.497C818.033 417.309 817.657 417.309 817.281 417.309C810.131 416.933 776.641 416.557 766.857 416.557C765.352 416.557 764.035 416.557 762.718 416.745C761.213 416.933 759.896 416.933 758.391 417.121C758.014 417.121 757.826 417.121 757.638 417.309C757.262 417.686 757.262 418.062 757.262 418.626C757.262 419.943 757.262 421.26 757.262 422.577C757.262 423.33 757.262 423.894 757.262 424.647C757.262 425.211 757.262 425.964 757.45 426.34C757.638 427.657 760.272 428.034 762.718 428.034Z" fill="#FFF5F0"/>
    <path d="M824.997 423.142C825.373 424.459 825.749 425.776 826.126 427.093C826.314 428.034 840.989 427.658 844.188 427.846C849.644 427.846 872.033 427.846 874.667 427.658C873.539 424.836 872.222 421.261 870.904 418.627C870.716 418.251 870.528 417.686 870.152 417.498C869.587 416.934 868.647 416.934 867.706 416.934C859.992 416.557 852.278 416.369 844.564 416.369C837.791 416.369 831.206 417.122 824.432 417.31C824.244 417.31 824.056 417.31 823.868 417.498C823.68 417.686 823.68 417.874 823.68 418.062C823.68 418.627 823.868 419.379 824.056 419.944C824.244 420.697 824.62 422.014 824.997 423.142Z" fill="#FFF5F0"/>
    <path d="M882.194 427.846C883.699 428.034 891.225 427.658 893.295 427.658C897.434 427.658 901.573 427.658 905.712 427.658C910.04 427.658 926.973 427.658 931.112 427.281C931.677 427.281 932.429 427.093 932.806 426.529C929.043 422.766 925.468 419.944 922.081 416.745C921.517 416.181 920.764 415.993 920.012 415.993C919.259 415.805 918.506 415.805 917.566 415.993C912.674 416.181 907.594 416.369 902.702 416.557C893.483 416.933 884.452 416.369 875.421 416.933C875.233 416.933 875.045 416.933 875.045 417.122C874.856 417.31 875.045 417.498 875.045 417.498C875.421 419.379 879.56 425.588 880.689 426.905C880.877 427.281 881.253 427.47 881.63 427.658C881.442 427.658 881.818 427.846 882.194 427.846Z" fill="#FFF5F0"/>
    <path d="M775.703 397.741C775.703 397.741 906.841 396.801 909.475 395.672C910.604 395.295 908.347 394.167 906.841 393.226C903.831 390.968 899.316 388.334 899.316 388.334L800.35 388.71C800.35 388.71 794.894 389.275 790.567 391.532C785.487 394.167 775.703 397.741 775.703 397.741Z" fill="#980000"/>
    <path d="M910.79 227.47C910.978 283.725 911.167 340.17 911.355 396.425C910.038 395.861 907.404 395.861 905.334 395.861C904.77 395.485 907.027 394.544 907.404 393.979C907.404 393.979 907.404 219.944 907.404 219.756C907.404 216.181 907.215 210.16 903.641 207.902C911.919 209.219 910.79 224.083 910.79 227.47Z" fill="#980000"/>
    <path d="M760.464 309.876C760.464 308.559 762.345 307.242 762.721 306.301C763.286 304.608 764.603 303.855 768.366 303.855C774.198 303.855 854.913 303.855 860.558 303.855C866.202 303.855 869.212 305.361 869.212 311.569C869.212 317.778 869.212 342.614 869.212 342.614L860.934 348.07C860.934 348.07 759.711 346.377 759.711 345.812C759.711 345.436 761.216 326.998 761.969 316.649C762.157 312.51 760.464 309.876 760.464 309.876Z" fill="#FF8A5F"/>
    <path d="M764.788 343.744C766.105 343.744 862.06 343.744 864.13 343.744C866.387 343.744 868.833 342.615 868.833 339.981C868.833 339.981 868.833 342.051 868.833 343.932C868.833 345.061 868.833 346.754 868.081 347.695C866.764 349.765 865.447 349.765 859.426 349.765C844.374 349.765 767.422 349.765 763.471 349.765C761.025 349.765 759.144 349.576 757.827 348.071C756.886 347.131 755.945 345.625 755.945 342.803C755.945 335.465 755.945 315.71 755.945 311.006C755.945 307.996 756.886 305.738 759.896 304.797C761.59 304.233 764.036 304.045 767.046 304.045C767.046 304.045 761.966 304.045 761.966 311.947C761.966 318.344 762.154 335.654 762.154 341.674C762.53 342.803 763.471 343.744 764.788 343.744Z" fill="#E32D22"/>
    <path d="M799.033 318.344C798.845 318.344 798.845 318.344 798.657 318.344C793.389 318.532 774.386 318.532 774.386 318.532C774.386 318.532 773.257 314.958 772.881 313.641C772.505 312.324 772.317 311.383 771.564 311.007C770.811 310.63 769.871 310.818 769.306 311.571C768.742 312.324 768.742 313.076 769.306 313.829C770.059 314.769 771.376 314.581 771.376 314.581C771.376 314.581 774.951 328.316 775.703 331.891C775.891 332.455 776.268 332.832 776.832 332.832C782.288 332.832 787.556 332.832 793.013 332.832C794.33 332.832 794.706 331.703 795.27 330.574C795.835 329.257 798.281 322.86 799.222 320.978C799.598 320.226 800.162 319.097 799.974 318.721C799.598 318.344 799.222 318.344 799.033 318.344ZM775.703 323.989C775.515 323.236 775.139 321.919 774.951 320.978C774.951 320.79 774.951 320.414 775.327 320.414C776.644 320.414 780.407 320.414 780.407 320.414C780.407 320.414 780.595 323.048 780.595 324.553C779.466 324.553 777.02 324.553 776.268 324.553C776.079 324.553 775.703 324.365 775.703 323.989ZM777.02 330.386C776.832 329.445 776.644 327.752 776.456 326.999C776.456 326.623 776.456 326.435 776.644 326.435C777.585 326.435 780.031 326.246 780.783 326.435C780.971 327.94 781.159 331.138 781.159 331.138C781.159 331.138 778.525 331.138 777.961 331.138C777.208 330.95 777.02 330.574 777.02 330.386ZM787.18 326.999C787.18 327.187 786.616 331.138 786.616 331.138H783.229C783.229 331.138 783.229 327.375 783.229 326.999C783.229 326.246 783.982 326.435 784.734 326.435C785.487 326.435 786.616 326.435 786.804 326.435C786.992 326.435 787.18 326.623 787.18 326.999ZM787.556 324.365C787.556 324.365 784.546 324.365 783.041 324.365C783.041 324.365 782.853 322.107 782.853 321.919C782.853 320.978 782.665 320.602 783.041 320.602C783.982 320.602 788.309 320.602 788.309 320.602L787.556 324.365ZM791.884 330.95C791.507 330.95 789.062 330.95 789.062 330.95C789.062 330.95 789.626 327.752 789.814 326.623C789.814 326.246 790.002 326.246 790.379 326.246C791.507 326.246 793.765 326.246 794.518 326.246C794.706 326.246 794.706 326.246 794.706 326.435C794.142 327.752 793.577 328.88 793.013 330.386C792.825 330.762 792.26 330.95 791.884 330.95ZM795.459 324.365C795.459 324.365 791.884 324.365 789.814 324.365C790.002 323.424 790.19 322.483 790.19 321.543C790.379 320.414 790.379 320.414 791.507 320.414C792.448 320.414 793.201 320.414 794.142 320.414C794.706 320.414 795.082 320.414 795.647 320.414C796.023 320.414 796.399 320.414 796.964 320.414V320.602C796.776 321.166 796.211 322.483 796.023 322.86C795.835 323.236 795.647 323.424 795.647 323.8C795.647 323.989 795.647 324.365 795.459 324.365Z" fill="#FFF5F0"/>
    <path d="M777.77 333.019C777.018 334.147 777.394 335.464 777.77 336.029C778.335 336.593 779.276 336.97 780.028 336.782C780.969 336.593 781.345 336.029 781.533 335.088C781.722 334.336 781.722 333.771 781.157 333.207C780.593 332.642 779.84 332.454 779.276 332.454C778.711 332.266 778.147 332.266 777.77 333.019Z" fill="#FFF5F0"/>
    <path d="M786.048 333.019C785.295 334.147 785.671 335.464 786.048 336.029C786.612 336.593 787.553 336.97 788.305 336.782C789.246 336.593 789.623 336.029 789.811 335.088C789.999 334.336 789.999 333.771 789.434 333.207C788.87 332.642 788.117 332.454 787.553 332.454C786.988 332.266 786.424 332.266 786.048 333.019Z" fill="#FFF5F0"/>
    <path d="M858.863 365.944C859.992 364.815 861.309 362.934 861.873 361.429C864.696 353.903 862.626 345.06 857.922 338.475C857.17 337.346 856.041 336.217 854.912 335.653C853.783 334.9 852.09 334.712 850.961 335.276C848.891 332.831 846.069 332.078 843.247 333.583C842.118 332.266 840.989 331.513 839.108 331.137C837.791 330.949 836.097 331.513 835.157 333.019C834.968 333.207 834.592 332.831 834.404 332.642C832.899 330.761 831.582 328.879 830.265 326.998C829.512 325.681 828.571 324.176 827.066 323.799C826.126 323.423 824.997 323.611 824.244 324.364C822.551 325.681 823.115 327.374 823.868 329.068C826.126 335.276 828.948 341.673 832.146 347.506C831.582 347.882 830.641 347.694 829.888 347.506C828.571 347.13 827.066 346.942 825.749 347.13C824.432 347.318 822.927 347.694 821.986 348.823C821.61 349.199 821.422 349.576 821.422 349.952C821.422 350.516 821.798 351.081 822.174 351.457C825.561 355.784 829.7 359.735 834.216 362.934C837.602 365.38 841.365 367.45 845.505 368.39C849.832 369.519 855.288 369.519 858.863 365.944Z" fill="#980000"/>
    <path d="M825.937 357.855C828.759 360.112 831.017 361.994 833.651 364.063C836.285 366.133 839.107 368.203 842.117 369.52C845.316 370.837 849.079 371.025 852.465 370.084C854.911 369.332 856.981 368.015 858.862 366.133C855.852 367.638 852.277 368.767 848.891 368.579C844.563 368.391 841.177 366.509 838.919 365.004C834.968 362.558 827.63 356.349 826.501 355.409C823.114 352.963 821.421 349.576 821.421 349.576C821.421 349.576 821.045 350.329 821.421 351.834C821.421 352.963 822.738 355.221 825.937 357.855Z" fill="#002F19"/>
    <path d="M824.245 328.128C824.433 328.693 824.621 329.445 824.809 330.01C826.879 335.278 829.136 340.546 831.77 345.626C831.958 346.002 832.147 346.378 832.147 346.943C832.147 347.319 831.77 347.884 831.394 347.884C831.018 347.884 830.641 347.507 830.453 347.131C827.255 342.616 824.809 337.536 822.739 332.456C822.175 330.95 821.61 329.445 821.799 327.94C821.987 326.247 823.304 324.742 824.433 324.365C824.245 324.742 824.244 325.306 824.056 325.87C824.056 326.435 824.056 327.187 824.245 328.128Z" fill="#002F19"/>
    <path d="M834.59 334.524C835.531 336.594 836.472 338.664 837.413 340.921C837.789 341.674 838.165 342.426 838.918 342.615C839.106 342.615 839.294 342.615 839.482 342.615C839.67 342.426 839.859 342.238 839.859 341.862C839.859 341.486 839.67 341.109 839.482 340.733C838.542 338.475 837.413 336.029 836.096 333.96C835.907 333.584 835.343 333.019 834.779 333.207C834.214 333.395 834.402 334.148 834.59 334.524Z" fill="#002F19"/>
    <path d="M843.622 336.219C844.374 337.536 844.939 338.853 845.503 340.358C845.503 340.546 845.691 340.734 845.879 340.923C846.067 341.111 846.256 341.299 846.444 341.111C846.82 340.923 847.008 340.358 846.82 339.982C846.444 338.477 845.691 336.972 844.939 335.466C844.75 334.902 843.622 333.02 843.057 333.585C842.305 334.337 843.245 335.654 843.622 336.219Z" fill="#002F19"/>
    <path d="M853.029 341.298C853.217 341.674 853.406 341.862 853.782 341.862C854.158 341.862 854.346 341.486 854.346 341.298C854.346 340.921 854.346 340.733 854.158 340.357C853.97 339.604 851.712 334.524 850.772 335.277C849.455 336.218 852.465 340.357 853.029 341.298Z" fill="#002F19"/>
    <path d="M807.12 520.979C797.901 522.86 750.864 530.762 736.377 533.773C735.06 533.961 733.931 534.337 732.614 534.525C731.485 534.713 730.168 535.09 729.228 535.466C728.099 535.842 727.158 536.407 726.405 537.347C725.841 537.912 725.653 538.664 725.465 539.417C725.277 540.17 725.841 542.804 724.712 544.121C723.019 546.002 718.691 546.567 718.691 546.567L723.019 554.092C723.019 554.092 729.228 552.775 730.357 552.775C732.614 552.775 734.872 552.964 736.754 553.904C737.13 554.092 737.694 554.281 738.071 554.657C739.576 555.786 743.339 560.678 748.23 561.43C749.924 561.618 751.617 561.43 753.122 561.242C756.697 560.678 760.084 560.113 763.658 559.36C767.61 558.608 771.749 557.855 775.7 557.103C780.592 556.162 785.484 555.409 790.375 554.469C793.574 553.904 796.772 553.34 799.971 552.775C801.852 552.399 828.945 546.755 829.51 546.567C830.074 546.378 830.451 546.378 830.827 546.19C830.451 545.626 829.886 545.249 829.51 544.685C828.381 543.368 827.252 542.051 826.123 540.734C824.618 539.041 823.113 537.159 821.42 535.466C819.726 533.584 818.033 531.515 816.34 529.633C814.834 527.94 813.329 526.059 811.636 524.365C810.695 523.236 807.685 521.355 807.12 520.979Z" fill="#980000"/>
    <path d="M827.817 543.178C828.57 543.93 829.134 544.683 829.322 545.436C829.511 546.188 829.511 553.902 828.946 555.972C834.402 551.268 844.374 549.951 852.841 540.544C837.413 517.025 826.688 519.283 822.737 519.283C818.598 519.283 807.121 520.788 807.121 520.788C807.121 520.788 816.152 530.572 818.786 533.582C821.42 536.405 824.054 539.227 826.876 542.049C827.253 542.425 827.441 542.802 827.817 543.178Z" fill="#FF8A5F"/>
    <path d="M711.73 558.418C711.73 558.418 712.107 555.408 712.295 554.467C712.295 554.279 712.483 553.903 712.483 553.715C712.671 553.15 713.236 552.962 713.612 552.962C715.305 552.398 716.058 552.21 717.751 551.457C718.88 553.339 720.573 556.725 719.821 557.101C719.256 557.29 712.107 559.359 712.107 559.359L711.73 558.418Z" fill="#FF8A5F"/>
    <path d="M712.295 253.057H593.574V367.074H712.295V253.057Z" fill="#FF8A5F"/>
    <path d="M594.516 235.747C594.704 237.441 596.021 238.758 597.526 239.322C599.031 239.887 600.725 240.075 602.418 240.075C605.24 240.075 608.063 240.263 610.885 240.263C618.034 240.263 631.393 240.263 634.591 234.995C635.344 233.866 634.779 232.361 633.839 231.42C632.898 230.479 631.769 229.915 630.452 229.539C627.442 228.598 624.055 228.222 620.857 228.033C616.529 227.845 612.202 228.033 607.874 228.598C605.617 228.786 600.725 228.786 596.962 231.42C595.269 232.361 594.328 234.619 594.516 235.747Z" fill="#E32D22"/>
    <path d="M709.852 231.797C709.099 230.668 707.406 230.48 706.089 230.291C704.019 230.103 701.95 230.103 699.88 230.668C697.811 231.044 696.117 232.173 694.048 232.361C693.295 232.361 692.354 232.361 691.602 232.173C690.661 231.797 689.908 231.232 688.968 230.856C686.71 229.727 684.264 229.351 681.818 229.727C679.372 230.103 677.114 231.232 674.668 232.173C673.728 232.549 672.787 232.737 671.846 232.737C668.836 232.926 666.578 230.856 663.756 230.291C659.993 229.539 656.23 232.549 652.467 231.609C650.209 231.044 648.14 229.163 645.882 229.915C643.248 230.668 642.872 234.807 644.941 236.877C647.011 238.946 650.021 238.946 652.843 238.57C655.666 238.194 658.3 237.253 661.122 237.441C663.191 237.629 667.707 240.451 671.658 240.075C673.351 239.887 675.233 239.699 676.926 239.323C678.808 238.946 680.501 238.194 682.382 238.382C684.452 238.57 686.334 239.699 688.403 240.075C690.661 240.451 692.919 239.887 695.176 239.134C697.811 238.382 700.633 237.629 703.267 238.006C704.772 238.194 707.594 239.699 708.911 238.57C709.287 238.382 709.287 238.006 709.476 237.629C710.04 236.124 710.793 233.866 710.228 232.361C710.04 232.173 709.852 231.985 709.852 231.797Z" fill="#D6D6D6"/>
    <path d="M829.51 546.753C829.51 546.753 828.945 552.398 828.945 556.16C838.164 554.467 852.84 552.209 852.84 540.732L829.51 546.753Z" fill="#D6D6D6"/>
    <path d="M349.549 447.6C350.49 447.224 351.054 446.472 351.619 445.531C365.918 423.33 386.99 406.584 408.251 391.156C433.462 373.094 473.35 364.628 504.394 363.123C484.074 352.586 464.319 356.914 447.762 361.053C409.003 370.46 386.238 389.839 354.065 413.546C348.608 417.497 343.34 421.636 339.013 426.716C336.755 429.162 334.874 431.984 333.368 434.806C332.616 436.312 331.863 437.817 331.111 439.322C330.546 440.451 329.794 441.956 329.605 443.273C329.605 444.966 331.299 444.59 332.428 444.402C334.497 444.026 336.755 443.649 338.825 444.026C340.518 444.402 342.023 445.343 343.716 446.095C345.41 446.66 347.856 448.165 349.549 447.6Z" fill="#E32D22"/>
    <path d="M38.1662 461.524C66.012 455.315 202.042 423.895 202.042 423.895L532.24 564.252C532.24 564.252 322.832 625.964 315.871 628.034C308.909 630.103 300.631 625.964 300.631 625.964L37.2255 464.911C37.0374 464.911 35.1559 462.088 38.1662 461.524Z" fill="#E32D22"/>
    <path d="M41.7408 440.076C75.0428 461.524 277.677 596.426 307.78 616.369C310.226 618.063 312.672 618.627 316.059 617.686C319.445 616.745 532.239 564.253 532.239 564.253L244.375 420.32L43.246 436.501C43.246 436.689 38.9186 438.194 41.7408 440.076Z" fill="#FF8A5F"/>
    <path d="M532.241 564.252C532.241 564.252 586.991 533.961 672.034 534.337C742.212 534.713 735.251 495.579 735.251 495.579C735.251 495.579 559.71 394.544 504.583 363.124C428.572 352.023 347.48 435.184 347.48 435.184L532.241 564.252Z" fill="#D6D6D6"/>
    <path d="M347.478 435.183C347.478 435.183 297.808 396.048 207.309 398.87C135.625 400.94 75.6062 407.901 53.593 410.723C47.7605 411.476 52.4642 417.309 52.4642 417.309L352.935 623.141C352.935 623.141 407.121 594.355 441.175 578.55C475.23 562.746 505.333 578.362 532.238 564.251L347.478 435.183Z" fill="#FFF5F0"/>
    <path d="M50.5832 417.686C45.8796 413.735 41.9285 411.477 58.6735 409.219C103.076 403.387 161.025 397.178 207.121 398.871C169.68 400.753 151.618 401.505 122.643 405.456C102.888 408.09 81.2511 410.913 61.6839 414.299C60.7432 414.487 59.6143 414.675 59.238 415.616C58.6735 416.933 60.1787 417.874 61.3076 418.815C67.5164 423.707 147.855 482.785 174.384 500.659C168.739 497.46 91.0348 452.681 85.3904 449.295C83.3208 448.166 81.2511 446.66 79.5578 444.967C77.8645 443.274 77.1119 441.58 76.9238 439.135C76.7356 438.194 77.8645 439.511 76.9238 439.135C75.6067 438.758 57.9209 424.083 50.5832 417.686Z" fill="#FF8A5F"/>
    <path d="M124.901 426.151C124.901 426.151 161.966 452.68 164.788 454.562C167.422 456.443 170.433 455.69 170.433 455.69L229.511 446.659C229.511 446.659 230.828 445.53 228.946 444.402C218.975 438.757 188.683 421.26 183.791 417.873C177.959 413.922 127.347 422.953 125.466 423.329C123.584 423.894 124.901 426.151 124.901 426.151Z" fill="#FF8A5F"/>
    <path d="M188.871 473.94C189.247 474.316 238.542 511.946 238.542 511.946C238.542 511.946 239.482 513.075 241.928 512.698C244.374 512.322 302.7 501.221 303.452 501.033C304.205 500.845 304.581 500.281 303.828 499.528C302.888 498.964 252.088 463.78 252.088 463.78C252.088 463.78 249.454 462.275 246.067 462.84C243.057 463.404 196.773 471.494 189.247 472.811C188.306 473.188 188.495 473.564 188.871 473.94Z" fill="#FF8A5F"/>
    <path d="M319.258 508.184C319.07 508.748 319.258 509.313 319.822 510.253C321.14 512.135 357.076 534.712 360.462 536.97C362.155 538.099 363.661 539.416 365.73 539.792C368.364 540.545 370.998 539.792 373.632 539.04C389.437 534.712 405.053 529.256 421.045 525.681C426.878 524.364 432.899 523.423 438.355 521.166C438.919 520.978 439.296 520.789 439.672 520.225C440.613 518.908 438.731 517.967 437.79 517.403C436.85 516.65 435.721 516.086 434.78 515.333C432.522 513.64 430.076 512.135 427.819 510.441C425.185 508.748 422.739 506.867 420.105 505.173C417.659 503.48 415.025 501.787 412.579 500.093C410.321 498.588 408.251 497.083 405.994 495.578C403.736 494.073 401.478 492.003 399.032 491.439C396.398 490.686 336.756 503.292 324.15 505.738C322.268 506.302 319.822 506.678 319.258 508.184Z" fill="#FF8A5F"/>
    <path d="M470.526 390.593C477.487 394.92 517.751 419.38 518.88 419.944C520.197 420.697 522.454 420.697 522.454 420.697L568.174 415.617C568.174 415.617 569.867 414.864 568.362 414.111C559.519 409.031 526.97 389.841 514.176 382.127C500.629 377.235 477.299 386.454 471.09 389.088C469.961 389.652 469.773 390.217 470.526 390.593Z" fill="#767676"/>
    <path d="M537.884 433.866C538.636 434.431 577.018 460.019 578.147 460.771C579.088 461.524 580.781 461.336 580.781 461.336L631.957 454.563C631.957 454.563 633.65 454.186 632.521 453.622C631.393 453.057 589.436 428.034 589.436 428.034C589.436 428.034 588.683 427.469 586.99 427.658C585.297 427.846 538.448 433.114 538.448 433.114C538.448 433.114 536.943 433.302 537.884 433.866Z" fill="#767676"/>
    <path d="M591.508 472.437L638.544 504.233C638.544 504.233 653.032 505.362 669.4 504.233C682.947 503.293 695.365 498.401 699.316 496.708C700.068 496.331 700.257 495.955 699.504 495.579C691.79 491.251 645.506 464.534 644.565 464.158C643.624 463.594 642.872 463.594 641.931 463.594C633.841 464.911 592.448 471.308 591.696 471.496C590.755 471.496 591.508 472.437 591.508 472.437Z" fill="#767676"/>
    <path d="M467.893 422.766C452.842 429.351 438.354 436.501 424.432 445.344C423.114 446.096 416.529 450.8 414.648 452.493C414.083 453.058 413.519 454.375 413.895 455.127C414.083 455.503 414.46 455.692 414.648 455.88C415.212 456.256 415.777 456.632 416.529 457.197C417.094 457.573 417.846 458.138 418.599 457.949C418.975 457.949 419.352 457.573 419.728 457.385C426.689 452.869 433.463 448.354 440.612 444.403C447.762 440.452 455.288 436.689 462.625 433.114C464.319 432.361 466.012 431.609 467.705 430.668C468.082 430.48 477.113 426.341 479.747 425.212C481.252 424.459 482.193 423.519 481.252 422.013C478.806 418.062 473.162 420.32 469.587 421.637C469.21 422.39 468.646 422.578 467.893 422.766Z" fill="#FFF5F0"/>
    <path d="M443.247 412.981C442.682 413.169 442.306 413.358 441.742 413.546C438.92 414.863 436.097 416.18 433.275 417.685C430.453 419.19 427.819 420.695 425.185 422.389C416.906 427.469 408.816 433.489 401.29 439.886C400.538 440.451 399.785 441.203 399.409 442.144C399.221 442.709 399.221 443.461 399.597 444.026C399.785 444.214 402.043 446.095 402.984 446.095C404.301 446.283 405.618 445.531 406.746 444.59C420.105 434.995 434.78 427.469 449.456 419.943C450.397 419.566 451.149 419.002 452.09 418.626C453.595 417.873 454.912 417.121 456.229 415.992C456.605 415.615 457.17 415.239 457.358 414.675C457.922 413.358 457.358 411.852 456.417 410.912C456.041 410.535 455.665 410.159 455.288 409.783C454.536 409.03 453.031 409.218 452.09 409.407C450.961 409.595 449.832 409.971 448.703 410.535C446.822 411.476 444.94 412.229 443.247 412.981Z" fill="#FFF5F0"/>
    <path d="M523.207 443.651C523.019 443.651 517.751 444.968 516.434 445.532C513.612 446.285 510.79 447.413 507.967 448.354C505.145 449.483 502.511 450.612 499.877 452.117C497.243 453.434 494.609 454.939 492.163 456.633C489.717 458.326 487.271 460.019 484.825 461.901C483.508 463.03 482.191 464.159 480.874 465.287C479.369 466.604 478.052 467.921 476.923 469.615C476.735 469.991 476.547 470.179 476.547 470.556C476.547 471.12 476.923 471.496 477.299 471.873C478.428 472.813 479.745 473.754 481.062 474.507C481.251 474.695 481.439 474.695 481.815 474.695C483.132 474.695 485.766 472.813 486.33 472.437C487.648 471.496 489.153 470.744 490.658 469.803C491.599 469.238 492.351 468.862 493.292 468.486C505.333 461.901 517.375 455.504 530.169 450.8C530.921 450.612 531.674 450.236 532.238 449.671C532.803 449.107 532.991 448.542 532.991 447.79C532.991 447.225 532.615 446.849 532.238 446.285C531.862 445.72 530.357 444.403 528.852 443.839C527.158 443.462 525.089 443.651 523.207 443.651Z" fill="#FFF5F0"/>
    <path d="M547.666 459.455C545.785 458.702 542.774 459.078 540.14 459.643C538.635 460.019 537.318 460.395 535.813 460.772C532.991 461.524 530.169 462.653 527.346 463.594C524.524 464.723 521.89 465.852 519.256 467.357C516.622 468.674 513.988 470.179 511.542 471.872C509.096 473.566 506.65 475.259 504.204 477.14C502.887 478.269 501.57 479.398 500.253 480.527C498.748 481.844 497.431 483.161 496.302 484.854C496.114 485.231 495.926 485.419 495.926 485.795C495.926 486.36 496.302 486.736 496.678 487.112C497.807 488.053 499.124 488.994 500.441 489.746C500.629 489.934 500.818 489.934 501.194 489.934C501.57 489.934 513.8 481.28 526.406 474.883C535.248 470.367 544.28 467.921 549.548 466.04C550.3 465.852 551.053 465.475 551.617 464.911C552.182 464.346 552.37 463.782 552.37 463.029C552.37 462.465 551.994 462.089 551.617 461.524C550.677 460.584 549.548 459.831 548.231 459.455C548.042 459.643 547.854 459.643 547.666 459.455Z" fill="#FFF5F0"/>
    <path d="M546.35 504.42C545.786 505.549 545.786 507.054 546.726 507.807C547.291 508.559 548.42 508.747 549.36 508.747C550.301 508.747 551.242 508.371 551.994 507.995C552.935 507.618 553.876 507.242 554.817 506.866C557.451 505.737 560.085 504.608 562.907 503.667C570.057 500.657 577.206 497.647 584.732 495.577C586.049 495.201 588.495 494.636 587.742 492.755C586.99 490.873 584.168 488.804 582.098 488.428C580.969 488.239 580.028 488.428 578.899 488.616C568.363 490.873 558.391 495.765 549.549 501.598C548.42 502.35 547.291 503.103 546.538 504.232L546.35 504.42Z" fill="#FFF5F0"/>
    <path d="M557.45 515.897C556.885 517.026 556.697 518.343 557.45 519.284C558.014 520.037 558.955 520.413 559.895 520.413C560.836 520.413 561.777 520.037 562.718 519.848C563.658 519.472 564.599 519.284 565.54 518.908C570.808 517.214 575.888 515.521 580.968 513.828C586.048 512.134 591.316 510.817 596.208 509.124C597.525 508.748 599.03 508.372 599.971 507.431C600.159 507.243 600.535 506.866 600.535 506.49C600.535 506.114 600.347 505.549 600.159 505.361C599.594 504.609 598.842 503.856 598.089 503.292C596.584 502.163 595.079 501.034 593.197 500.846C592.257 500.846 591.316 501.034 590.375 501.222C589.623 501.41 588.87 501.598 588.117 501.975C585.483 502.727 582.849 503.668 580.215 504.609C577.581 505.549 575.135 506.49 572.501 507.619C571.184 508.183 570.055 508.748 568.738 509.312C568.174 509.5 567.609 510.065 566.857 510.253C566.104 510.441 565.352 510.817 564.787 511.194C563.282 511.946 561.777 512.699 560.272 513.451C559.143 514.016 557.826 514.769 557.073 515.897C557.449 515.709 557.45 515.897 557.45 515.897Z" fill="#FFF5F0"/>
    <path d="M253.219 436.876C248.704 437.817 244.188 438.946 240.613 441.391C239.484 442.144 238.544 443.837 239.861 444.59C240.237 444.778 240.801 444.778 241.178 444.966C245.505 445.154 249.644 444.402 253.784 443.837C262.438 442.332 270.905 441.015 279.56 439.51C288.026 438.005 296.681 436.688 305.148 435.183C307.594 434.806 310.604 434.43 310.604 432.549C310.604 430.291 308.158 429.726 305.9 429.914C297.622 430.667 289.155 431.42 280.877 432.36C272.598 433.301 264.32 434.618 256.041 436.123C255.101 436.5 254.16 436.688 253.219 436.876Z" fill="#D6D6D6"/>
    <path d="M301.193 421.825C300.441 421.448 299.688 421.26 298.936 421.26C292.915 420.32 286.894 420.696 280.874 421.072C279.933 421.072 279.18 421.26 278.24 421.26C274.289 421.448 270.526 421.825 266.575 422.201C262.623 422.577 258.86 422.954 255.098 423.518C251.711 423.894 248.512 424.459 245.314 425.023C241.551 425.776 237.788 426.528 234.213 427.469C232.332 427.845 230.45 428.41 228.757 428.974C226.876 429.539 224.806 430.103 222.924 430.856C222.548 431.044 222.172 431.232 222.172 431.608C222.172 431.985 222.36 432.173 222.736 432.361C224.053 433.49 225.747 433.866 227.44 433.866C229.133 433.866 244.373 431.044 245.314 430.856C250.018 430.103 254.533 429.163 259.237 428.598C269.773 426.905 294.42 425.211 295.361 425.211C297.431 425.211 299.5 425.023 301.57 424.459C301.946 424.271 302.322 424.271 302.511 423.894C303.075 423.142 301.946 422.201 301.193 421.825C301.382 421.825 301.193 421.825 301.193 421.825Z" fill="#D6D6D6"/>
    <path d="M286.898 464.345C286.334 464.533 285.957 464.533 285.393 464.721C284.264 464.909 273.352 466.791 273.352 467.731C273.352 468.296 273.916 468.672 274.292 469.048C275.609 469.989 277.114 471.118 278.996 471.118C279.749 471.118 280.689 471.118 281.442 470.93C303.079 467.167 324.904 463.78 346.729 460.582C347.858 460.394 349.175 460.205 350.304 460.017C351.056 459.829 351.809 459.829 352.185 459.265C353.314 457.571 348.422 455.878 347.481 455.69C345.788 455.502 344.095 455.502 342.401 455.69C341.273 455.878 340.332 455.878 339.203 456.066C334.876 456.443 330.548 457.007 326.221 457.571C317.19 458.888 308.159 460.394 299.128 462.087C294.988 462.84 290.849 463.592 286.898 464.345Z" fill="#D6D6D6"/>
    <path d="M365.918 480.903C354.065 482.973 342.024 484.854 329.982 486.924C322.645 488.241 315.307 489.746 308.534 492.568C308.346 492.568 308.157 492.757 307.969 492.945C307.781 493.321 308.157 493.697 308.346 494.074C309.663 495.202 310.98 496.143 312.485 497.084C313.237 497.46 313.802 497.836 314.743 497.836C315.495 497.836 323.021 496.143 326.031 495.391C328.101 494.826 330.359 494.45 332.616 493.885C336.944 492.945 341.083 492.004 345.41 491.063C349.738 490.122 354.065 489.37 358.204 488.617C362.532 487.865 366.859 487.112 371.187 486.36C373.256 485.983 375.514 485.607 377.584 485.231C378.712 485.042 383.04 484.29 383.04 483.725C383.04 482.408 379.841 480.527 379.465 480.151C378.901 479.774 378.336 479.586 377.584 479.398C376.643 479.21 375.702 479.398 374.949 479.398C374.197 479.586 373.632 479.586 372.88 479.774C370.622 479.963 368.176 480.339 365.918 480.903Z" fill="#D6D6D6"/>
    <path d="M360.086 467.355C359.145 467.355 345.786 468.672 332.052 471.118C314.178 474.317 294.987 478.832 294.234 479.021C293.67 479.209 293.105 479.397 292.729 479.397C292.541 479.397 290.848 479.961 290.848 480.526C290.848 481.09 296.492 484.477 296.868 484.477C297.433 484.665 298.562 484.477 299.126 484.289C300.443 483.912 307.216 482.595 308.533 482.219C310.603 481.655 312.861 481.278 315.119 480.714C319.446 479.773 323.585 478.832 327.913 477.892C332.24 476.951 336.567 476.198 340.707 475.446C345.034 474.693 349.361 473.941 353.689 473.188C355.758 472.812 358.016 472.435 360.086 472.059C361.215 471.871 362.155 471.683 363.284 471.495C363.66 471.495 364.225 471.307 364.789 471.307C365.354 471.307 365.542 471.118 365.542 470.366C365.542 469.801 363.284 467.355 360.086 467.355Z" fill="#D6D6D6"/>
    <path d="M388.306 557.667C388.683 557.856 389.059 557.856 389.435 558.044C390.188 558.232 390.94 558.044 391.693 557.856C396.209 556.727 400.724 554.469 405.24 552.964C412.954 550.142 420.856 547.884 428.758 545.626C432.145 544.685 435.719 543.933 439.106 542.992C439.294 542.992 439.482 542.992 439.671 542.804C440.235 542.616 440.988 542.616 441.552 542.427C445.127 541.675 448.513 541.11 452.088 540.546C454.722 540.17 457.168 539.793 459.802 539.417C466.199 538.665 468.081 538.476 468.081 537.724C468.081 536.971 467.704 536.219 467.14 536.03C463.377 534.525 456.227 535.466 453.029 535.842C449.266 536.219 445.691 536.595 441.928 537.159C433.085 538.476 424.431 540.17 415.964 542.427C410.131 543.933 404.299 545.626 398.466 547.696C395.456 548.636 392.634 549.765 389.812 550.706C387.366 551.647 384.543 552.399 382.286 553.904C382.098 553.904 382.098 554.093 381.909 554.281C381.721 554.657 382.098 554.845 382.474 555.033C383.979 555.786 385.296 556.539 386.801 557.291C387.178 557.103 387.742 557.479 388.306 557.667Z" fill="#D6D6D6"/>
    <path d="M398.466 566.699C399.03 567.075 399.407 567.451 399.971 567.639C400.347 567.827 400.724 568.204 401.1 568.204C401.665 568.204 402.041 568.016 402.605 567.827C414.458 562.936 426.688 559.173 439.106 555.598C445.126 553.905 451.335 552.023 457.544 551.082C462.06 550.518 466.763 550.142 471.279 549.577C473.16 549.389 475.606 549.389 477.111 548.072C478.428 546.943 478.428 545.626 476.735 544.874C475.794 544.309 469.397 544.874 466.199 545.25C456.792 546.002 447.384 547.696 438.165 549.577C431.015 551.082 424.054 552.776 417.093 554.845C410.507 556.727 403.546 558.608 397.337 561.43C397.149 561.43 396.961 561.619 396.961 561.619C396.208 561.995 395.456 562.371 395.268 563.124C395.079 564.064 395.832 564.817 396.585 565.193C397.149 565.758 397.713 566.134 398.466 566.699Z" fill="#D6D6D6"/>
    <path d="M411.637 584.571C393.951 593.038 377.959 604.327 362.155 615.992C359.144 618.25 352.747 621.26 343.34 616.556C349.361 621.072 354.064 625.399 357.263 626.904C358.392 627.469 363.095 628.033 367.611 625.023C379.84 616.556 401.477 597.554 433.086 584.195C454.911 574.976 481.628 574.223 503.641 570.648C456.04 568.014 440.8 572.53 425.372 578.551C420.668 580.432 416.153 582.502 411.637 584.571Z" fill="#D6D6D6"/>
    <path d="M300.819 535.842C300.631 535.842 300.442 536.031 300.254 536.031C299.502 536.219 298.561 536.971 298.937 537.724C299.125 538.1 299.314 538.288 299.502 538.476C301.195 539.793 303.076 540.922 304.77 542.239C305.71 542.804 306.651 543.556 307.78 543.556C308.533 543.556 309.097 543.368 309.662 543.18C311.919 542.428 314.177 541.675 316.247 540.922C320.386 539.417 324.525 538.1 328.664 536.595C331.487 535.654 334.121 534.714 336.943 533.585C338.072 533.208 339.389 532.268 338.636 530.951C338.448 530.574 338.072 530.386 337.695 530.01C336.567 529.069 335.438 528.316 334.121 527.564C333.18 526.999 331.11 525.682 329.981 526.059C328.853 526.435 327.912 526.811 326.783 527.188C324.713 527.94 322.456 528.505 320.386 529.257C320.198 529.257 319.822 529.445 319.633 529.445C318.316 529.822 316.999 530.386 315.682 530.762C315.118 530.951 314.365 531.139 313.801 531.327C313.236 531.327 312.672 531.703 312.296 531.891C311.167 532.268 310.226 532.644 309.097 533.02C307.028 533.773 304.958 534.525 302.888 535.278C302.324 535.278 301.571 535.466 300.819 535.842Z" fill="#D6D6D6"/>
    <path d="M284.45 523.8C284.074 523.988 283.886 524.364 283.886 524.552C283.698 525.305 284.074 525.87 284.45 526.434C285.391 527.563 286.708 528.315 287.837 529.256C288.59 529.821 289.342 530.197 290.095 530.761C290.847 531.326 291.6 531.702 292.541 531.89C293.293 531.89 294.046 531.702 294.61 531.514C303.453 528.315 312.484 525.681 321.327 522.671C321.892 522.483 322.456 522.295 322.832 522.107C323.209 521.918 323.585 521.542 323.585 521.166C323.585 520.79 323.209 520.601 323.02 520.413C321.139 518.908 319.258 517.591 317.564 516.086C317.188 515.898 316.812 515.521 316.435 515.521C316.059 515.521 315.683 515.521 315.306 515.71C314.366 515.898 313.425 516.086 312.672 516.274C310.603 516.838 308.345 517.403 306.275 517.967C304.206 518.532 301.948 519.096 299.878 519.661C298.561 520.037 297.244 520.413 295.927 520.79C295.551 520.79 295.363 520.978 294.987 520.978C294.798 520.978 294.798 520.978 294.61 520.978C294.046 521.166 293.481 521.354 293.105 521.542C291.976 521.918 291.036 522.295 289.907 522.483C288.59 522.859 287.273 523.424 286.144 523.8C285.203 523.424 284.827 523.612 284.45 523.8Z" fill="#D6D6D6"/>
    <path d="M616.153 476.387C615.589 476.011 615.024 475.634 614.272 475.446C610.509 473.941 606.181 473.377 602.23 473.189C596.774 472.812 591.318 472.812 585.861 473C580.593 473.189 575.513 474.129 570.433 475.635C565.542 476.952 560.65 478.833 555.946 480.903C546.351 485.23 537.696 491.439 530.358 498.965C522.832 506.679 514.554 517.027 517 528.504C518.129 533.96 521.891 538.099 527.16 539.981C532.428 541.862 538.448 542.427 543.905 541.674C557.075 539.981 571.75 536.594 584.733 533.207C597.338 530.009 608.251 525.87 620.292 520.978C629.511 517.215 638.919 511.759 642.682 501.975C647.197 489.934 640.048 476.952 629.7 470.743C621.986 466.039 612.954 464.534 604.112 464.346C601.289 464.346 598.467 464.346 595.457 464.534C595.269 464.534 594.892 464.534 594.704 464.534C593.011 464.722 591.318 464.722 589.812 465.286C588.872 465.663 587.931 466.415 588.119 467.356C588.307 467.92 588.872 468.485 589.436 468.673C591.506 469.614 595.269 469.802 597.526 469.99C610.885 470.743 620.292 470.555 630.076 478.833C630.64 479.209 631.205 479.774 631.581 480.338C636.097 484.854 638.919 491.627 637.414 497.836C636.473 502.351 633.462 506.302 629.7 509.125C626.125 511.947 621.797 513.828 617.47 515.71C593.011 525.682 572.691 530.761 542.023 535.653C530.734 537.535 525.654 532.831 524.149 530.197C522.644 527.751 522.644 524.929 523.208 522.107C524.149 516.839 527.348 512.323 530.923 508.184C549.549 486.359 579.841 475.446 608.063 479.962C610.32 480.338 612.766 480.903 615.024 480.714C615.589 480.714 616.341 480.526 616.906 480.15C617.658 479.397 617.658 478.269 617.094 477.328C616.529 476.763 616.341 476.575 616.153 476.387Z" fill="#E32D22"/>
</svg>
