<svg xmlns="http://www.w3.org/2000/svg" fill="none" width="128" viewBox="0 0 1067 800"><path fill="#FFF5F0" d="M907.22 407.15h-352.4V208.28h339.22l13.18 5.26v193.6Z"/><path fill="#E32D22" d="M719.26 559.55c.37.56.94.94 1.5 1.32 1.13.56 2.45.56 3.76.37 2.26-.38 4.7-.75 7.15-.19 3.39.76 5.65 3.58 8.66 5.46 3.38 2.26 5.64 3.57 11.85 3.2 6.21-.38 20.5-3.01 35.94-5.65 13.17-2.25 40.83-7.9 40.83-7.9s2.06-5.83 1.31-8.09-3.57-3.57-6.02-4.52c-10.91-3.76-22.95-4.89-34.62-4.7-11.66.19-23.33 1.88-35 3.58l-20.12 2.82c-3.4.56-6.78.94-10.16 1.5-1.32.2-2.83.38-4.14.38-.76 0-.94-.94-1.5-.38-.76.57-1.14 9.41-1.14 9.41s.94 2.45 1.7 3.39Z"/><path fill="#D6D6D6" d="M765.17 254c11.47 0 23.14-.19 34.62-.38 18.62-.19 37.44-.19 55.88-.56 2.44 0 4.89 0 7.33-.2 1.32 0 2.64 0 3.58.38.75.38 1.13.95 1.31 1.51.38 1.5-.18 3.01-.75 4.52 0 .18-.19.56-.37.56a4.5 4.5 0 0 1-1.7.38c-1.88.19-3.76.19-5.64.37-16.56.38-33.12.94-49.67.94-8.85 0-17.69.2-26.53.38h-13.17c-4.14 0-8.1 0-12.23-.38-.38 0-.94 0-1.13-.18-.57-.2-.57-.57-.38-.94.2-1.7.38-3.4.76-5.08 0-.38.18-.95.75-1.13.56-.38 1.5-.38 2.44-.38 1.51.19 3.2.19 4.9.19ZM756.88 272.81c.95-.94 2.64-.94 4.14-.75H782.48c9.41 0 19 0 28.41.19 1.88 0 22.02.19 26.72.19h28.03c1.13 0 2.45 0 3.01.56.38.38.2.75.2.94 0 1.13-.2 2.26-.2 3.39 0 .37 0 .75-.37 1.13-.57.56-2.07.75-3.39.75l-105.74 1.7c-.75 0-1.69 0-2.25-.38-.2-.2-.2-.57-.38-.76-.19-1.5-.19-2.82-.38-4.32 0-1.13 0-1.89.75-2.64 0 0-.18 0 0 0Z"/><path fill="#FF8A5F" d="M904.2 384.38H557.46v7.72h346.76v-7.72Z"/><path fill="#FF8A5F" d="M533.56 408.28c-17.88 10.72-35.75 21.26-53.81 31.98-4.14 2.45-9.03 6.59-7.34 11.3 1.5 3.94 6.77 4.7 10.91 4.7 164.63 2.82 329.45 2.25 494.08-2.07 3.76 0 14.86 2.25 14.86-5.08 0-1.7-76.01-48.36-82.4-53.81-1.14-1.13-.38-.95-1.89-1.51-.94-.19-2.07-.19-3.01-.19-13.74 1.13-27.1-.56-40.64-.56-44.6 0-89-.38-133.58-.57l-134.15-.56h-18.25c-4.7 0-9.79-.57-14.49.94-10.91 3.95-20.7 9.78-30.3 15.43Z"/><path fill="#E32D22" d="M989.06 449.3c-2.63 0-5.27.18-7.9.18-5.65.2-62.65-.37-73.38-.37-11.1-.2-22.2-.2-33.3-.38-22.2-.19-44.22-.38-66.42-.38-22.2-.18-44.21-.18-66.41-.18h-66.42c-22.2 0-44.21 0-66.41.18-22.02 0-44.03.2-66.04.2h-62.66c-1.13 0-2.07-.57-.18-2.08 4.13-3.2 18.06-10.72 23.7-14.1 9.03-5.47 18.25-11.1 27.28-16.75l13.55-8.47a499.6 499.6 0 0 1 6.58-4.33 88.17 88.17 0 0 1 5.65-3.76c.94-.56 2.07-1.13 3.01-1.32 1.13-.19 2.45-.19 3.57-.19h47.04c10.54 0 82.41.94 92.38.94 23.9 0 206.77-2.82 207.15-3.2.38-.56.57-31.04.57-45.15 0-36.5-2.07-73-1.51-109.5.19-9.03.38-18.25-.75-27.28-.19-1.13-.38-2.45-1.13-3.2-4.52-4.33-14.11-3.01-19.94-3.2-8.1-.19-16.19-.38-24.28-.38-15.99-.18-31.98-.18-47.97.38-15.62.57-67.92.75-78.27.57-34.62-.38-69.43-3.2-104.05-.57-15.05 1.13-30.66 2.07-45.9 1.7-10.16-.2-19.76.18-29.73 1.69-1.32.19-2.64.56-3.58 1.5-1.13 1.13-1.13 2.83-1.31 4.33-2.45 55.32-1.32 110.82-.2 166.32 0 2.07.2 4.14.76 6.02-2.07 2.07-4.14 4.7-5.83 6.02-4.52 3.4-9.4 6.4-14.49 9.22-16.18 9.41-32.55 18.63-48.73 28.04a320.24 320.24 0 0 0-19 11.66c-.57.38-.94.75-1.32 1.13-.38.56-.38 1.13-.56 1.7-.76 5.26-1.32 9.4-1.13 14.67 0 1.32.19 3.39 1.31 4.14 2.07 1.7 11.1 1.5 16 1.5 66.41.2 339.98 0 353.15 0 14.1 0 28.4 0 42.52-.18 13.92 0 100.66.56 112.51.56 1.88 0 3.39 0 4.33-1.7.38-.56.56-3.38.75-5.07.19-3.95.38-7.53.19-11.48-1.13.56-2.07.56-3.2.56Zm-422.2-231.43a6.77 6.77 0 0 1 2.07-.37c16.18-.75 30.1-.94 46.47-.94h83.73c31.8 0 198.5.94 200 1.5 1.5.57 2.82 2.07 2.63 3.76V383.07c0 2.07.75 5.08-2.26 5.08-6.02 0-11.66.94-17.3.75-5.28 0-10.17-.38-15.25-.56-19.56-.38-39.13-.2-58.7 0-80.52.37-160.86.94-241.39 1.31-.94 0-3.01.57-3.58-.56-.18-.38-.18-.75-.18-1.13 0-.94.18-2.07.18-3.01.2-4.7.2-9.22.38-13.92.19-6.4.19-12.8.38-19.2 0-7.52.19-15.05.19-22.57 0-8.1.18-16.18.18-24.27 0-7.9.2-16 .2-23.9V223.7c0-2.06.18-4.88 2.25-5.83Z"/><path fill="#980000" d="M692.35 457.2c-.19 1.13 0 2.25.94 3 .75.76 1.88.95 2.82.95 2.07.19 4.14.19 6.21-.2 1.5-.37 3.2-.93 3.76-2.44 2.26-6.02-12.22-7.33-13.73-1.31ZM714.55 459.27c.2 2.07 1.88 2.25 2.45 2.25 16.93.38 30.29.38 46.85.2 2.07 0 3.57.18 4.7-1.14.94-1.13.75-3.2.75-4.7 0-2.45-1.31-2.82-2.82-2.82-2.26 0-5.08-.38-7.34-.38-9.97 0-37.63-.75-41.01-.19-3.95.94-3.76 3.58-3.58 6.78ZM552.75 205.27c-5.83.75-6.02 2.82-6.02 8.65-.75 50.8 1.5 120.98 1.5 171.78 0 4.7-1.13 8.1-5.64 11.48-3.2 2.44-10.16 6.77-10.16 6.77s9.22-3.95 15.62-8.47c3.57-2.44 5.08-4.13 6.4-7.15 1.5-3.57 1.31-7.33 1.12-11.28-.56-15.62 0-27.66 0-43.28-.38-37.44-.38-78.64 1.5-116.08.2-1.89.38-3.96 1.7-5.09 1.13-.94 2.82-1.12 4.52-1.12 95.57-1.88 315.52-2.07 333.58-4.33-49.3-3.76-90.88-1.7-147.5-2.64-2.64 0-20.7.57-23.34.57-22.57-.38-41.95-.94-64.53-.94-21.64.19-95.96-.57-108.75 1.13Z"/><path fill="#FFF5F0" d="M661.5 444.4c40.83-.19 94.63-.19 135.09-.56 1.88 0 4.51-.38 5.08-2.26.37-1.5-.38-2.82-1.32-4.14-.94-1.32-1.88-2.45-2.82-3.76-.38-.57-.94-1.32-1.5-1.5-.76-.38-1.51-.38-2.26-.38-37.07-.2-84.86.18-121.55.37-3.57 0-6.02-.38-8.47 2.07-.56.57-2.63 4.52-4.51 7.15-2.07 3.01.75 3.01 2.26 3.01ZM615.78 411.67c2.82-.38 5.08-.38 6.77-2.64 1.13-1.7 3.95-4.14 4.52-6.02.56-2.45-3.58-1.7-5.27-1.88-5.65-.19-11.1-.19-16.75-.38-11.28-.19-22.57-.19-33.86 0-.94 0-1.88 0-2.83.38-.94.38-1.88 1.13-2.63 1.7-2.82 2.44-6.02 4.5-8.65 6.95-.2.2-.57.76-.38.94 5.46.38 24.83.57 29.91.76 3.01.37 22.4 1.13 29.17.19ZM630.27 407.9c-1.5 3.39 5.26 3.01 8.46 3.2 3.95.19 7.9.38 11.86.38 13.92 0 22.57.56 37.06 0 2.63 0 4.52-.38 6.21-2.26.94-1.13 6.02-6.59 4.33-7.9-.57-.38-1.13-.38-1.89-.38h-54.93c-1.13 0-2.45 0-3.58.38-2.44.56-4.14 2.44-6.02 4.32a9.18 9.18 0 0 0-1.5 2.26ZM714.74 401.32c-1.88 0-3.76.19-5.64.56-3.77 1.13-5.84 4.9-7.53 8.28-.19.19-.19.56-.19.75.2.57 1.13.38 1.5.38 7.91.38 59.46.94 66.99.94 8.47 0 117.21 0 144.87-.38.75 0 1.7-.37 1.7-1.13 0-.37-.2-.56-.57-.75-2.45-2.44-6.02-4.7-8.65-6.77a7.77 7.77 0 0 0-2.07-1.32c-.94-.37-1.89-.19-2.83-.19h-1.69c-6.2.38-25.02-.18-31.42-.18-7.15 0-49.86-.2-64.16-.2-13.54 0-27.1-.18-40.83-.18-16.37 0-32.55-.19-48.91-.19 0 .38-.38.38-.57.38ZM541.84 427.47a24 24 0 0 1 3.76.19c3.38.19 6.77.19 10.16.19h15.62c.75 0 1.5 0 2.25-.38s1.5-.94 2.26-1.5c1.5-1.32 3.01-2.64 4.52-4.15 1.13-.94 2.44-1.88 3.76-3.57 1.32-1.5-.38-1.32-2.07-1.5-1.88 0-3.76-.2-5.64-.2l-22.77-1.12h-2.07c-.75.19-1.5.56-2.26.94a286.58 286.58 0 0 0-11.48 6.96c-.94.75-2.06 1.32-2.63 2.45-.19.18-.19.37-.19.56 0 .38.57.56.94.56 1.88.38 3.77.38 5.84.57ZM588.5 427.85h3c15.43 0 30.67-.2 45.91-.38 1.13 0 2.26 0 3.01-.57a6.5 6.5 0 0 0 1.7-2.25c.56-1.32 1.13-2.82 1.69-4.33l.56-2.26c.2-.56.38-1.13-.56-1.31h-.38c-4.14-.2-8.46-.2-12.8-.2h-9.21c-8.28.2-16.37.38-24.65 0-.94 0-2.07-.18-3 .2-.76.18-1.32.75-1.89 1.12-1.7 1.32-3.2 2.45-4.7 3.95-1.5 1.32-2.82 2.83-4.33 4.52a2.6 2.6 0 0 0-.57.75v.2c0 .18.2.18.57.37 2.07 0 3.95.19 5.64.19ZM647.95 424.08c-.19.57-.38 1.13-.19 1.7.38.94 1.7 1.31 2.82 1.31 12.99.76 26.16.76 39.14.38a6.9 6.9 0 0 0 3.38-.75 9.84 9.84 0 0 0 1.89-2.07 57.63 57.63 0 0 0 3.76-6.78c.19-.56.56-1.31 0-1.88-.38-.38-.94-.38-1.5-.38-5.46 0-17.32.38-27.1.38-8.84 0-15.43-.38-17.3.19-2.83 1.13-3.96 4.9-4.9 7.9ZM710.6 427.66c7.34 0 35.19-.2 36.7-.2.75 0 1.69 0 2.44-.18h1.32c.37 0 .56 0 .75-.38.19-.18.19-.37.19-.75.18-1.31.18-2.63.18-3.95 0-1.13.2-2.44-.37-3.57a3.56 3.56 0 0 0-1.88-1.5c-2.64-.2-5.08-.38-7.72-.38h-11.47c-4.52 0-9.03-.2-13.55-.2h-11.85c-.57 0-.95 0-1.32.76-.38.94-.56 1.88-.94 2.82-.57 2.07-1.32 3.95-1.88 6.02 0 .38-.2.75 0 .94 0 .2.18.2.18.2 3.2.37 6.21.37 9.22.37ZM762.72 428.03h3c9.42 0 18.82 0 28.23-.18 8.84-.2 17.87-.57 26.72-.38.56 0 1.13 0 1.31-.57 0-.18 0-.56-.18-.75-1.13-2.63-2.07-5.27-3.2-7.9-.2-.19-.2-.56-.38-.75-.19-.2-.56-.2-.94-.2-7.15-.37-40.64-.74-50.42-.74-1.5 0-2.83 0-4.14.19-1.5.18-2.82.18-4.33.37-.38 0-.56 0-.75.19-.38.38-.38.75-.38 1.32v6.02c0 .56 0 1.31.19 1.69.19 1.32 2.82 1.7 5.27 1.7ZM825 423.14l1.13 3.95c.18.94 14.86.57 18.06.76 5.45 0 27.84 0 30.48-.2-1.13-2.81-2.45-6.39-3.77-9.02-.18-.38-.37-.94-.75-1.13-.56-.57-1.5-.57-2.44-.57-7.72-.37-15.43-.56-23.15-.56-6.77 0-13.35.75-20.13.94-.19 0-.37 0-.56.19-.19.19-.19.37-.19.56 0 .57.19 1.32.38 1.88.18.76.56 2.07.94 3.2ZM882.2 427.85c1.5.18 9.02-.2 11.1-.2h12.41c4.33 0 21.26 0 25.4-.37.57 0 1.32-.19 1.7-.75-3.77-3.76-7.34-6.59-10.73-9.78a2.83 2.83 0 0 0-2.07-.76 5.36 5.36 0 0 0-2.44 0c-4.9.2-9.98.38-14.87.57-9.22.37-18.25-.2-27.28.37-.19 0-.38 0-.38.2-.18.18 0 .37 0 .37.38 1.88 4.52 8.09 5.65 9.4.19.38.56.57.94.76-.19 0 .19.19.56.19Z"/><path fill="#980000" d="M775.7 397.74s131.14-.94 133.77-2.07c1.13-.38-1.12-1.5-2.63-2.44-3-2.26-7.52-4.9-7.52-4.9l-98.97.38s-5.46.56-9.78 2.82c-5.08 2.64-14.87 6.21-14.87 6.21Z"/><path fill="#980000" d="m910.79 227.47.57 168.96c-1.32-.57-3.96-.57-6.03-.57-.56-.38 1.7-1.32 2.07-1.88V219.76c0-3.58-.18-9.6-3.76-11.86 8.28 1.32 7.15 16.18 7.15 19.57Z"/><path fill="#FF8A5F" d="M760.46 309.88c0-1.32 1.88-2.64 2.26-3.58.57-1.7 1.88-2.44 5.65-2.44h92.19c5.64 0 8.65 1.5 8.65 7.7v31.05l-8.28 5.46s-101.22-1.7-101.22-2.26c0-.37 1.5-18.81 2.26-29.16.19-4.14-1.5-6.77-1.5-6.77Z"/><path fill="#E32D22" d="M764.79 343.74h99.34c2.26 0 4.7-1.13 4.7-3.76v3.95c0 1.13 0 2.82-.75 3.76-1.32 2.07-2.63 2.07-8.65 2.07h-95.96c-2.45 0-4.33-.18-5.64-1.69-.94-.94-1.88-2.44-1.88-5.27V311c0-3 .94-5.26 3.95-6.2 1.69-.57 4.14-.75 7.15-.75 0 0-5.08 0-5.08 7.9 0 6.4.18 23.7.18 29.72.38 1.13 1.32 2.07 2.64 2.07Z"/><path fill="#FFF5F0" d="M799.03 318.34h-.37c-5.27.2-24.27.2-24.27.2s-1.13-3.58-1.5-4.9c-.38-1.32-.57-2.26-1.33-2.63a1.8 1.8 0 0 0-2.25.56c-.57.75-.57 1.5 0 2.26.75.94 2.07.75 2.07.75s3.57 13.74 4.32 17.31c.2.56.57.94 1.13.94h16.18c1.32 0 1.7-1.13 2.26-2.26.57-1.31 3.01-7.71 3.95-9.6.38-.74.94-1.87.75-2.25-.37-.38-.75-.38-.94-.38ZM775.7 324c-.19-.75-.56-2.07-.75-3.01 0-.19 0-.57.38-.57h5.08s.19 2.64.19 4.14h-4.33c-.2 0-.57-.19-.57-.56Zm1.32 6.4c-.19-.94-.38-2.64-.56-3.4 0-.37 0-.56.18-.56.95 0 3.4-.18 4.14 0 .2 1.51.38 4.7.38 4.7h-3.2c-.75-.18-.94-.56-.94-.74Zm10.16-3.4c0 .2-.56 4.15-.56 4.15h-3.4V327c0-.75.76-.56 1.51-.56h2.07c.2 0 .38.18.38.56Zm.38-2.63h-4.52s-.19-2.25-.19-2.44c0-.94-.19-1.32.2-1.32h5.26l-.75 3.76Zm4.32 6.59h-2.82s.57-3.2.75-4.33c0-.37.2-.37.57-.37h4.14c.19 0 .19 0 .19.19-.57 1.31-1.13 2.44-1.7 3.95-.18.37-.75.56-1.13.56Zm3.58-6.58h-5.65c.2-.95.38-1.89.38-2.83.19-1.13.19-1.13 1.32-1.13h5.45v.2c-.18.56-.75 1.87-.94 2.25-.18.38-.37.56-.37.94 0 .19 0 .56-.2.56Z"/><path fill="#FFF5F0" d="M777.77 333.02a2.84 2.84 0 0 0 0 3c.57.57 1.5.95 2.26.76.94-.19 1.32-.75 1.5-1.7.2-.74.2-1.3-.37-1.87a2.7 2.7 0 0 0-1.88-.76c-.57-.18-1.13-.18-1.51.57ZM786.05 333.02a2.84 2.84 0 0 0 0 3c.56.57 1.5.95 2.25.76.95-.19 1.32-.75 1.51-1.7.19-.74.19-1.3-.38-1.87a2.7 2.7 0 0 0-1.88-.76c-.56-.18-1.13-.18-1.5.57Z"/><path fill="#980000" d="M858.86 365.94a14.59 14.59 0 0 0 3.01-4.51c2.83-7.53.76-16.37-3.95-22.95a8.6 8.6 0 0 0-3-2.83 4.25 4.25 0 0 0-3.96-.37c-2.07-2.45-4.9-3.2-7.71-1.7a6.68 6.68 0 0 0-4.14-2.44 4.08 4.08 0 0 0-3.95 1.88c-.2.19-.57-.19-.76-.38-1.5-1.88-2.82-3.76-4.13-5.64-.76-1.32-1.7-2.82-3.2-3.2a2.63 2.63 0 0 0-2.83.56c-1.69 1.32-1.13 3.01-.37 4.7 2.26 6.22 5.08 12.61 8.28 18.45-.57.37-1.5.18-2.26 0-1.32-.38-2.82-.57-4.14-.38-1.32.19-2.82.56-3.76 1.7-.38.37-.57.75-.57 1.12 0 .57.38 1.13.75 1.5a58.12 58.12 0 0 0 12.05 11.48c3.38 2.45 7.14 4.52 11.28 5.46 4.33 1.13 9.79 1.13 13.36-2.45Z"/><path fill="#002F19" d="M825.94 357.86c2.82 2.25 5.08 4.13 7.71 6.2 2.63 2.07 5.46 4.14 8.47 5.46 3.2 1.32 6.96 1.5 10.35.56a15.21 15.21 0 0 0 6.4-3.95c-3.02 1.5-6.6 2.64-9.98 2.45-4.33-.19-7.71-2.07-9.97-3.58-3.95-2.44-11.29-8.65-12.42-9.6a18.01 18.01 0 0 1-5.08-5.82s-.38.75 0 2.25c0 1.13 1.32 3.4 4.52 6.03ZM824.25 328.13c.18.56.37 1.31.56 1.88a164.8 164.8 0 0 0 6.96 15.62c.19.37.38.75.38 1.31 0 .38-.38.94-.76.94-.37 0-.75-.37-.94-.75-3.2-4.51-5.64-9.6-7.71-14.67-.57-1.51-1.13-3.01-.94-4.52.19-1.7 1.5-3.2 2.63-3.57-.18.37-.19.94-.37 1.5 0 .56 0 1.32.19 2.26ZM834.59 334.52c.94 2.07 1.88 4.14 2.82 6.4.38.75.75 1.5 1.5 1.7h.57c.19-.2.38-.38.38-.76 0-.37-.19-.75-.38-1.13a45.4 45.4 0 0 0-3.38-6.77c-.2-.38-.76-.94-1.32-.75-.57.19-.38.94-.19 1.31ZM843.62 336.22a27.72 27.72 0 0 1 1.88 4.14c0 .19.2.37.38.56.19.2.38.38.56.2a.9.9 0 0 0 .38-1.14c-.38-1.5-1.13-3-1.88-4.51-.19-.57-1.32-2.45-1.88-1.89-.75.76.19 2.07.56 2.64ZM853.03 341.3c.19.37.38.56.75.56.38 0 .57-.37.57-.56 0-.38 0-.57-.2-.94-.18-.76-2.44-5.84-3.38-5.08-1.31.94 1.7 5.08 2.26 6.02Z"/><path fill="#980000" d="M807.12 520.98c-9.22 1.88-56.26 9.78-70.74 12.8-1.32.18-2.45.56-3.77.75a17.8 17.8 0 0 0-3.38.94 5.79 5.79 0 0 0-2.83 1.88 4.18 4.18 0 0 0-.93 2.07c-.2.75.37 3.38-.76 4.7-1.7 1.88-6.02 2.45-6.02 2.45l4.33 7.52s6.2-1.32 7.34-1.32c2.25 0 4.51.2 6.4 1.13.37.2.93.38 1.31.76 1.5 1.13 5.27 6.02 10.16 6.77 1.7.19 3.39 0 4.9-.19 3.57-.56 6.95-1.13 10.53-1.88 3.95-.75 8.09-1.5 12.04-2.26 4.9-.94 9.78-1.7 14.67-2.63l9.6-1.7c1.88-.37 28.98-6.01 29.54-6.2.56-.2.94-.2 1.32-.38-.38-.56-.94-.94-1.32-1.5l-3.39-3.96c-1.5-1.69-3-3.57-4.7-5.26-1.7-1.89-3.39-3.96-5.08-5.84-1.5-1.69-3.01-3.57-4.7-5.26-.94-1.13-3.96-3.01-4.52-3.4Z"/><path fill="#FF8A5F" d="M827.82 543.18c.75.75 1.31 1.5 1.5 2.26.2.75.2 8.46-.37 10.53 5.45-4.7 15.42-6.02 23.9-15.43-15.44-23.51-26.16-21.26-30.11-21.26-4.14 0-15.62 1.5-15.62 1.5s9.03 9.8 11.67 12.8a334.6 334.6 0 0 0 8.09 8.47c.37.38.56.75.94 1.13ZM711.73 558.42s.38-3.01.56-3.95c0-.2.2-.57.2-.75.18-.57.75-.76 1.12-.76 1.7-.56 2.45-.75 4.14-1.5 1.13 1.88 2.82 5.26 2.07 5.64-.56.19-7.71 2.26-7.71 2.26l-.38-.94ZM712.3 253.06H593.56v114.01H712.3V253.06Z"/><path fill="#E32D22" d="M594.52 235.75c.18 1.7 1.5 3 3 3.57 1.51.57 3.2.75 4.9.75 2.82 0 5.64.2 8.47.2 7.14 0 20.5 0 23.7-5.28.75-1.12.19-2.63-.75-3.57a7.52 7.52 0 0 0-3.39-1.88 40.87 40.87 0 0 0-9.6-1.5c-4.32-.2-8.65 0-12.98.56-2.25.19-7.14.19-10.9 2.82-1.7.94-2.64 3.2-2.45 4.33Z"/><path fill="#D6D6D6" d="M709.85 231.8c-.75-1.13-2.44-1.32-3.76-1.5a17.3 17.3 0 0 0-6.21.37c-2.07.37-3.76 1.5-5.83 1.7-.75 0-1.7 0-2.45-.2-.94-.37-1.7-.94-2.63-1.31a11.8 11.8 0 0 0-7.15-1.13c-2.45.37-4.7 1.5-7.15 2.44-.94.38-1.88.57-2.82.57-3.01.19-5.27-1.88-8.1-2.45-3.76-.75-7.52 2.26-11.28 1.32-2.26-.57-4.33-2.45-6.59-1.7-2.63.76-3 4.9-.94 6.97 2.07 2.07 5.08 2.07 7.9 1.69 2.83-.38 5.46-1.32 8.28-1.13 2.07.19 6.59 3.01 10.54 2.63 1.7-.18 3.57-.37 5.27-.75 1.88-.37 3.57-1.13 5.45-.94 2.07.19 3.95 1.32 6.02 1.7 2.26.37 4.52-.2 6.78-.95 2.63-.75 5.45-1.5 8.09-1.12 1.5.18 4.32 1.69 5.64.56.38-.19.38-.56.57-.94.56-1.5 1.31-3.76.75-5.27-.19-.19-.38-.38-.38-.56ZM829.51 546.75s-.56 5.65-.56 9.41c9.21-1.7 23.89-3.95 23.89-15.43l-23.33 6.02Z"/><path fill="#E32D22" d="M349.55 447.6c.94-.38 1.5-1.13 2.07-2.07 14.3-22.2 35.37-38.95 56.63-54.37 25.21-18.07 65.1-26.53 96.14-28.04-20.32-10.53-40.07-6.2-56.63-2.07-38.76 9.41-61.52 28.79-93.7 52.5-5.45 3.95-10.72 8.09-15.05 13.17a39.15 39.15 0 0 0-5.64 8.09l-2.26 4.51c-.56 1.13-1.32 2.64-1.5 3.95 0 1.7 1.69 1.32 2.82 1.13 2.07-.37 4.32-.75 6.4-.37 1.69.37 3.2 1.31 4.89 2.07 1.69.56 4.14 2.06 5.83 1.5ZM38.17 461.52c27.84-6.2 163.87-37.63 163.87-37.63l330.2 140.36s-209.4 61.71-216.37 63.78c-6.96 2.07-15.24-2.07-15.24-2.07L37.23 464.91c-.2 0-2.07-2.82.94-3.39Z"/><path fill="#FF8A5F" d="M41.74 440.08c33.3 21.44 235.94 156.35 266.04 176.29 2.45 1.7 4.9 2.26 8.28 1.32 3.38-.95 216.18-53.44 216.18-53.44L244.37 420.32 43.25 436.5c0 .19-4.33 1.7-1.5 3.58Z"/><path fill="#D6D6D6" d="M532.24 564.25s54.75-30.29 139.8-29.91c70.17.37 63.21-38.76 63.21-38.76S559.71 394.54 504.58 363.12c-76-11.1-157.1 72.06-157.1 72.06l184.76 129.07Z"/><path fill="#FFF5F0" d="M347.48 435.18s-49.67-39.13-140.17-36.31a1634.8 1634.8 0 0 0-153.72 11.85c-5.83.76-1.13 6.59-1.13 6.59l300.48 205.83s54.18-28.78 88.24-44.59c34.05-15.8 64.15-.19 91.06-14.3L347.48 435.18Z"/><path fill="#FF8A5F" d="M50.58 417.69c-4.7-3.95-8.65-6.21 8.1-8.47 44.4-5.83 102.35-12.04 148.44-10.35-37.44 1.88-55.5 2.63-84.48 6.59-19.75 2.63-41.39 5.45-60.96 8.84-.94.19-2.07.38-2.44 1.32-.57 1.31.94 2.25 2.07 3.2 6.2 4.89 86.54 63.97 113.07 81.84-5.64-3.2-83.35-47.98-88.99-51.37a26.1 26.1 0 0 1-5.83-4.32 8.43 8.43 0 0 1-2.64-5.84c-.18-.94.94.38 0 0-1.31-.37-19-15.05-26.34-21.44Z"/><path fill="#FF8A5F" d="M124.9 426.15s37.07 26.53 39.89 28.41c2.63 1.88 5.64 1.13 5.64 1.13l59.08-9.03s1.32-1.13-.56-2.26c-9.97-5.64-40.27-23.14-45.16-26.53-5.83-3.95-56.44 5.08-58.32 5.46-1.89.56-.57 2.82-.57 2.82ZM188.87 473.94c.38.38 49.67 38 49.67 38s.94 1.14 3.39.76c2.44-.38 60.77-11.48 61.52-11.67.75-.18 1.13-.75.38-1.5-.94-.57-51.74-35.75-51.74-35.75s-2.64-1.5-6.02-.94c-3.01.56-49.3 8.65-56.82 9.97-.94.38-.75.75-.38 1.13ZM319.26 508.18c-.19.57 0 1.13.56 2.07 1.32 1.88 37.26 24.46 40.64 26.72 1.7 1.13 3.2 2.45 5.27 2.82 2.63.75 5.27 0 7.9-.75 15.8-4.33 31.42-9.78 47.42-13.36 5.83-1.32 11.85-2.26 17.3-4.51.57-.2.95-.38 1.32-.94.94-1.32-.94-2.26-1.88-2.83-.94-.75-2.07-1.31-3.01-2.07-2.26-1.69-4.7-3.2-6.96-4.89-2.63-1.7-5.08-3.57-7.71-5.27-2.45-1.69-5.09-3.38-7.53-5.08-2.26-1.5-4.33-3-6.59-4.51-2.25-1.5-4.51-3.58-6.96-4.14-2.63-.75-62.27 11.85-74.88 14.3-1.88.56-4.33.94-4.9 2.44Z"/><path fill="#767676" d="M470.53 390.6c6.96 4.32 47.22 28.78 48.35 29.34 1.32.76 3.57.76 3.57.76l45.72-5.08s1.7-.76.2-1.5c-8.85-5.09-41.4-24.28-54.2-32-13.54-4.88-36.87 4.33-43.08 6.97-1.13.56-1.32 1.13-.56 1.5ZM537.88 433.87c.76.56 39.14 26.15 40.27 26.9.94.75 2.63.57 2.63.57l51.18-6.78s1.69-.37.56-.94c-1.13-.56-43.08-25.59-43.08-25.59s-.76-.56-2.45-.37l-48.54 5.45s-1.5.2-.57.76ZM591.5 472.44l47.04 31.8s14.5 1.12 30.86 0c13.55-.95 25.97-5.84 29.92-7.53.75-.38.94-.75.18-1.13-7.71-4.33-54-31.05-54.93-31.42-.95-.57-1.7-.57-2.64-.57-8.09 1.32-49.48 7.72-50.23 7.9-.95 0-.2.95-.2.95Z"/><path fill="#FFF5F0" d="M467.9 422.77c-15.06 6.58-29.55 13.73-43.47 22.57-1.32.76-7.9 5.46-9.78 7.15-.57.57-1.13 1.88-.75 2.64.18.37.56.56.75.75.56.38 1.13.75 1.88 1.32.56.37 1.32.94 2.07.75.38 0 .75-.38 1.13-.56 6.96-4.52 13.73-9.04 20.88-12.99a485.92 485.92 0 0 1 22.01-11.29c1.7-.75 3.4-1.5 5.08-2.44.38-.19 9.41-4.33 12.05-5.46 1.5-.75 2.44-1.7 1.5-3.2-2.44-3.95-8.09-1.69-11.66-.37-.38.75-.94.94-1.7 1.13ZM443.25 412.98c-.57.19-.94.38-1.5.57-2.83 1.31-5.65 2.63-8.48 4.13-2.82 1.51-5.45 3.01-8.08 4.7a194.23 194.23 0 0 0-23.9 17.5 5.53 5.53 0 0 0-1.88 2.26c-.19.57-.19 1.32.19 1.89.19.18 2.44 2.07 3.38 2.07 1.32.18 2.64-.57 3.77-1.51 13.36-9.6 28.03-17.12 42.7-24.65.95-.37 1.7-.94 2.64-1.31 1.5-.76 2.82-1.5 4.14-2.64.38-.38.94-.75 1.13-1.31.56-1.32 0-2.83-.94-3.77l-1.13-1.13c-.75-.75-2.26-.56-3.2-.37-1.13.19-2.26.56-3.39 1.13-1.88.94-3.76 1.69-5.45 2.44ZM523.2 443.65a67.1 67.1 0 0 0-6.77 1.88c-2.82.76-5.64 1.88-8.46 2.82a63.23 63.23 0 0 0-8.1 3.77 63.44 63.44 0 0 0-7.7 4.51c-2.45 1.7-4.9 3.39-7.35 5.27l-3.95 3.39a21.62 21.62 0 0 0-3.95 4.32c-.19.38-.37.57-.37.95 0 .56.37.94.75 1.31a27 27 0 0 0 3.76 2.64c.2.19.38.19.75.19 1.32 0 3.96-1.89 4.52-2.26 1.32-.94 2.82-1.7 4.33-2.64.94-.56 1.7-.94 2.63-1.31 12.04-6.59 24.08-12.99 36.88-17.69.75-.19 1.5-.56 2.07-1.13.56-.56.75-1.13.75-1.88 0-.56-.38-.94-.75-1.5a8.68 8.68 0 0 0-3.39-2.45c-1.7-.38-3.76-.19-5.64-.19ZM547.67 459.45c-1.88-.75-4.9-.37-7.53.2-1.5.37-2.82.75-4.33 1.12-2.82.75-5.64 1.88-8.46 2.82a63.23 63.23 0 0 0-8.1 3.77 63.56 63.56 0 0 0-7.7 4.51c-2.45 1.7-4.9 3.39-7.35 5.27l-3.95 3.39a21.64 21.64 0 0 0-3.95 4.32c-.19.38-.37.57-.37.94 0 .57.37.95.75 1.32 1.13.94 2.44 1.88 3.76 2.64.19.18.38.18.75.18.38 0 12.61-8.65 25.22-15.05 8.84-4.51 17.87-6.96 23.14-8.84.75-.19 1.5-.56 2.07-1.13.56-.56.75-1.13.75-1.88 0-.56-.38-.94-.75-1.5a7.87 7.87 0 0 0-3.39-2.07c-.19.18-.38.18-.56 0ZM546.35 504.42c-.56 1.13-.56 2.63.38 3.39.56.75 1.69.94 2.63.94s1.88-.38 2.63-.75l2.83-1.13c2.63-1.13 5.26-2.26 8.09-3.2 7.15-3.01 14.3-6.02 21.82-8.1 1.32-.37 3.76-.93 3.01-2.81-.75-1.89-3.57-3.96-5.64-4.33-1.13-.2-2.07 0-3.2.19-10.54 2.25-20.5 7.14-29.35 12.98-1.13.75-2.26 1.5-3.01 2.63l-.19.19ZM557.45 515.9c-.57 1.13-.75 2.44 0 3.38.56.76 1.5 1.13 2.44 1.13.95 0 1.89-.37 2.83-.56.94-.38 1.88-.57 2.82-.94 5.27-1.7 10.35-3.39 15.43-5.08 5.08-1.7 10.35-3.01 15.24-4.7 1.31-.38 2.82-.76 3.76-1.7.19-.19.56-.56.56-.94 0-.38-.18-.94-.37-1.13-.57-.75-1.32-1.5-2.07-2.07-1.5-1.13-3.01-2.26-4.9-2.44-.93 0-1.87.18-2.82.37-.75.19-1.5.38-2.25.75-2.64.76-5.27 1.7-7.9 2.64-2.64.94-5.09 1.88-7.72 3-1.32.57-2.45 1.14-3.76 1.7-.57.19-1.13.75-1.88.94-.76.2-1.5.57-2.07.94l-4.52 2.26c-1.13.57-2.44 1.32-3.2 2.45.38-.2.38 0 .38 0Z"/><path fill="#D6D6D6" d="M253.22 436.88c-4.52.94-9.03 2.07-12.6 4.51-1.14.75-2.08 2.45-.76 3.2.38.19.94.19 1.32.38 4.32.18 8.46-.57 12.6-1.13 8.66-1.5 17.12-2.82 25.78-4.33 8.47-1.5 17.12-2.82 25.59-4.33 2.44-.37 5.45-.75 5.45-2.63 0-2.26-2.44-2.82-4.7-2.64-8.28.76-16.75 1.51-25.02 2.45-8.28.94-16.56 2.26-24.84 3.76-.94.38-1.88.57-2.82.76ZM301.2 421.82a5 5 0 0 0-2.26-.56c-6.02-.94-12.05-.56-18.07-.19-.94 0-1.69.19-2.63.19-3.95.19-7.71.56-11.67.94-3.95.38-7.71.75-11.47 1.32-3.39.37-6.59.94-9.79 1.5-3.76.76-7.52 1.5-11.1 2.45a46.2 46.2 0 0 0-5.45 1.5c-1.88.57-3.95 1.13-5.84 1.89-.37.18-.75.37-.75.75s.19.56.57.75a7.06 7.06 0 0 0 4.7 1.5c1.7 0 16.93-2.82 17.87-3 4.7-.76 9.22-1.7 13.93-2.26 10.53-1.7 35.18-3.39 36.12-3.39 2.07 0 4.14-.19 6.21-.75.38-.19.75-.19.94-.57.56-.75-.56-1.69-1.32-2.06.2 0 0 0 0 0ZM286.9 464.35c-.57.18-.94.18-1.5.37-1.14.19-12.05 2.07-12.05 3.01 0 .57.57.94.94 1.32 1.32.94 2.82 2.07 4.7 2.07.76 0 1.7 0 2.45-.19a2479.4 2479.4 0 0 1 65.29-10.35c1.13-.19 2.44-.38 3.57-.56.76-.2 1.5-.2 1.88-.75 1.13-1.7-3.76-3.4-4.7-3.58-1.7-.19-3.38-.19-5.08 0-1.13.19-2.07.19-3.2.38-4.32.37-8.65.94-12.98 1.5a678.11 678.11 0 0 0-27.1 4.52c-4.13.75-8.27 1.5-12.22 2.26ZM365.92 480.9c-11.86 2.07-23.9 3.95-35.94 6.02-7.34 1.32-14.67 2.83-21.45 5.65-.18 0-.37.19-.56.38-.19.37.19.75.38 1.12a33.4 33.4 0 0 0 4.13 3.01c.76.38 1.32.76 2.26.76.75 0 8.28-1.7 11.3-2.45 2.06-.56 4.32-.94 6.58-1.5 4.32-.94 8.46-1.89 12.79-2.83 4.33-.94 8.65-1.69 12.8-2.44l12.98-2.26c2.07-.38 4.32-.75 6.4-1.13 1.12-.19 5.45-.94 5.45-1.5 0-1.32-3.2-3.2-3.58-3.58a5.62 5.62 0 0 0-1.88-.75c-.94-.19-1.88 0-2.63 0-.75.19-1.32.19-2.07.37-2.26.2-4.7.57-6.96 1.13ZM360.09 467.36c-.94 0-14.3 1.31-28.04 3.76a793.43 793.43 0 0 0-37.82 7.9c-.56.19-1.13.38-1.5.38-.19 0-1.88.56-1.88 1.13 0 .56 5.64 3.95 6.02 3.95.56.19 1.7 0 2.26-.2 1.31-.37 8.09-1.68 9.4-2.06 2.07-.57 4.33-.94 6.59-1.5 4.33-.95 8.46-1.89 12.8-2.83 4.32-.94 8.65-1.7 12.79-2.44l12.98-2.26c2.07-.38 4.33-.75 6.4-1.13 1.13-.19 2.06-.38 3.2-.56.37 0 .94-.2 1.5-.2s.75-.18.75-.93c0-.57-2.26-3.01-5.45-3.01ZM388.3 557.67c.38.19.76.19 1.13.37.76.2 1.51 0 2.26-.18 4.52-1.13 9.03-3.4 13.55-4.9 7.71-2.82 15.62-5.08 23.52-7.33 3.38-.95 6.96-1.7 10.35-2.64.18 0 .37 0 .56-.19.56-.18 1.32-.18 1.88-.37 3.58-.75 6.96-1.32 10.54-1.88 2.63-.38 5.08-.76 7.71-1.13 6.4-.75 8.28-.94 8.28-1.7 0-.75-.38-1.5-.94-1.69-3.76-1.5-10.91-.56-14.11-.19a235.08 235.08 0 0 0-37.06 6.59c-5.84 1.5-11.67 3.2-17.5 5.27-3.01.94-5.84 2.06-8.66 3-2.44.95-5.27 1.7-7.52 3.2-.2 0-.2.2-.38.38-.19.38.19.57.56.75 1.5.76 2.83 1.5 4.33 2.26.38-.19.94.19 1.5.38ZM398.47 566.7c.56.38.94.75 1.5.94.38.19.75.56 1.13.56.56 0 .94-.18 1.5-.37 11.86-4.9 24.09-8.66 36.5-12.23 6.03-1.7 12.23-3.58 18.44-4.52 4.52-.56 9.22-.94 13.74-1.5 1.88-.2 4.33-.2 5.83-1.5 1.32-1.14 1.32-2.45-.38-3.2-.94-.57-7.33 0-10.53.37-9.4.75-18.82 2.45-28.03 4.33a265.3 265.3 0 0 0-21.08 5.26c-6.58 1.89-13.54 3.77-19.75 6.59-.2 0-.38.19-.38.19-.75.38-1.5.75-1.7 1.5-.18.94.57 1.7 1.32 2.07.57.57 1.13.94 1.89 1.5ZM411.64 584.57c-17.69 8.47-33.68 19.76-49.49 31.42-3 2.26-9.4 5.27-18.81.57 6.02 4.51 10.72 8.84 13.92 10.34 1.13.57 5.84 1.13 10.35-1.88 12.23-8.46 33.87-27.47 65.48-40.82 21.82-9.22 48.54-9.98 70.55-13.55-47.6-2.64-62.84 1.88-78.27 7.9-4.7 1.88-9.22 3.95-13.73 6.02ZM300.82 535.84c-.19 0-.38.2-.57.2-.75.18-1.69.93-1.31 1.68.19.38.37.57.56.76 1.7 1.31 3.58 2.44 5.27 3.76.94.56 1.88 1.32 3.01 1.32.75 0 1.32-.2 1.88-.38 2.26-.75 4.52-1.5 6.59-2.26 4.14-1.5 8.27-2.82 12.41-4.32 2.83-.95 5.46-1.89 8.28-3.01 1.13-.38 2.45-1.32 1.7-2.64-.2-.38-.57-.56-.94-.94a23.85 23.85 0 0 0-3.58-2.45c-.94-.56-3.01-1.88-4.14-1.5-1.13.38-2.07.75-3.2 1.13-2.07.75-4.32 1.31-6.4 2.07-.18 0-.56.19-.75.19-1.31.37-2.63.94-3.95 1.31-.56.2-1.31.38-1.88.57-.56 0-1.13.37-1.5.56-1.13.38-2.07.75-3.2 1.13l-6.21 2.26a4.9 4.9 0 0 0-2.07.56ZM284.45 523.8c-.38.19-.56.56-.56.75-.2.75.18 1.32.56 1.88.94 1.13 2.26 1.89 3.39 2.83.75.56 1.5.94 2.26 1.5.75.57 1.5.94 2.44 1.13.75 0 1.5-.19 2.07-.38 8.84-3.2 17.87-5.83 26.72-8.84a12.9 12.9 0 0 0 1.5-.56c.38-.2.75-.57.75-.94 0-.38-.37-.57-.56-.76-1.88-1.5-3.76-2.82-5.46-4.32-.37-.2-.75-.57-1.13-.57-.37 0-.75 0-1.12.19-.94.19-1.88.38-2.64.56-2.07.57-4.32 1.13-6.4 1.7-2.06.56-4.32 1.13-6.4 1.7l-3.94 1.12c-.38 0-.57.19-.94.19h-.38c-.56.19-1.13.37-1.5.56-1.13.38-2.07.75-3.2.94-1.32.38-2.64.94-3.77 1.32-.94-.38-1.31-.19-1.69 0Z"/><path fill="#E32D22" d="M616.15 476.39c-.56-.38-1.13-.76-1.88-.94-3.76-1.5-8.09-2.07-12.04-2.26-5.46-.38-10.91-.38-16.37-.19a61.65 61.65 0 0 0-15.43 2.63 102.8 102.8 0 0 0-14.48 5.27 84.26 84.26 0 0 0-25.6 18.06c-7.52 7.72-15.8 18.07-13.35 29.54 1.13 5.46 4.9 9.6 10.16 11.48a36.26 36.26 0 0 0 16.75 1.7c13.17-1.7 27.84-5.09 40.82-8.47 12.6-3.2 23.52-7.34 35.56-12.23 9.22-3.76 18.63-9.22 22.4-19 4.5-12.05-2.64-25.03-12.99-31.24-7.71-4.7-16.75-6.2-25.59-6.4-2.82 0-5.64 0-8.65.2h-.76c-1.69.18-3.38.18-4.89.75-.94.37-1.88 1.13-1.7 2.07.2.56.76 1.13 1.33 1.31 2.07.94 5.83 1.13 8.09 1.32 13.36.75 22.76.56 32.55 8.84.56.38 1.13.94 1.5 1.5 4.52 4.52 7.34 11.3 5.83 17.5-.94 4.52-3.95 8.47-7.71 11.3-3.58 2.82-7.9 4.7-12.23 6.58-24.46 9.97-44.78 15.05-75.45 19.94-11.29 1.88-16.37-2.82-17.87-5.45-1.5-2.45-1.5-5.27-.94-8.1.94-5.26 4.14-9.78 7.71-13.92 18.63-21.82 48.92-32.73 77.14-28.22 2.26.38 4.7.94 6.96.75.57 0 1.32-.18 1.89-.56.75-.75.75-1.88.18-2.82l-.94-.94Z"/></svg>
