<svg xmlns="http://www.w3.org/2000/svg" fill="none" width="128" viewBox="0 0 80 81"><g fill="#30623D" clip-path="url(#a)"><path d="M62.36 12.99a35.1 35.1 0 0 1 10.07 13.04c-10.04 5.25-21.27 6.51-31.12 3.43a32.76 32.76 0 0 1-19.69-16.62c8.3-.98 21.37 3.77 31.93 9.22l2.4-4.66c-6.26-3.23-17.97-8.63-28.33-9.74a35.12 35.12 0 0 1 34.74 5.33Zm-51.26-.4a37.94 37.94 0 0 0-1.57 1.75A40.17 40.17 0 0 0 0 40.35h5.25c0-5.87 1.45-11.4 4-16.28h.01a35.37 35.37 0 0 1 5.46-7.68l.04-.04.86-.89.12-.12.48-.46c.13-.1.26-.21.4-.3a38.46 38.46 0 0 0 23.12 19.88 42.24 42.24 0 0 0 12.63 1.9c8.35 0 16.9-2.35 24.69-6.9l1.9-1.11-.77-2.07A40.3 40.3 0 0 0 40.35.03V0c-8.3 0-16.01 2.52-22.43 6.83l-.1.06-.22.15a40.04 40.04 0 0 0-4.73 3.79c-.55.45-1.07.96-1.55 1.52l-.04.05-.18.19M17.64 67.66A35.09 35.09 0 0 1 7.58 54.62c10.04-5.25 21.26-6.5 31.11-3.42a32.76 32.76 0 0 1 19.69 16.62c-8.3.97-21.37-3.77-31.93-9.23l-2.4 4.66C30.3 66.5 42.03 71.88 52.38 73a35.12 35.12 0 0 1-34.73-5.33Zm44.79 5.93a37.96 37.96 0 0 0 1.33-.95l.07-.05a39.94 39.94 0 0 0 2.94-2.43l.42-.39c.52-.43 1-.9 1.45-1.43l.2-.2.69-.74.12-.14.65-.74.08-.1c6-7.04 9.62-16.16 9.62-26.12h-5.24c0 5.88-1.46 11.41-4.01 16.28h-.01a35.38 35.38 0 0 1-5.46 7.68l-.04.05c-.28.3-.57.6-.86.88l-.12.13-.49.46-.39.3A38.46 38.46 0 0 0 40.26 46.2c-11.92-3.73-25.52-1.9-37.32 5l-1.9 1.12.77 2.06a40.3 40.3 0 0 0 37.78 26.26h.06v.02c8.1 0 15.65-2.4 21.98-6.52l.2-.13.6-.4Z"/></g><defs><clipPath id="a"><path fill="#fff" d="M0 0h80v80.65H0z"/></clipPath></defs></svg>
