<svg xmlns="http://www.w3.org/2000/svg" viewBox="0 0 300 250">

  <g id="illustration01">
    <g fill="none" stroke="#444444" stroke-width="2" stroke-linecap="round" stroke-linejoin="round">
      <path d="M62.1,174.7c7.9-7.9,25.6-3.6,36-3.6c7.8,0,15.9,0.9,23.7,0.5c6.9-0.4-3.2-11.3-4.1-13.3c-2-3.9,3.7-12.6,5-16.9c1.6-5.1,3.1-10.1,4.4-15.3c1.4-5.2,2.7-12.4,5.8-16.8c2.3-3.2,7.7-2.7,11.4-3.1"/>
      <path d="M130.7,113.1c-13.9,1.9-28.2,3.1-42.2,3.7c-7.2,0.3-14.5,0.6-21.6,1.4c-2.3,0.3-5,0.2-4.8,3c0.2,3.5,0.5,6.9,0.7,10.4c0.5,6.7,2.4,13.6,2.4,20.2c0,1.6-0.6,6.3,1.8,6.3c2.9,0.1,5.8-0.1,8.7-0.1c13.6-0.3,27.5-1.2,41.1-0.6"/>
      <path d="M110.2,171.7c6.8,1,6.6,11.3-0.5,11.8C100.4,184.2,101.5,170.4,110.2,171.7C113.1,172.1,106.6,171.1,110.2,171.7z"/>
      <path d="M109.8,174.7c4.1,0.6,2.7,5.8-1.1,5.8C104.9,180.5,105.9,174.1,109.8,174.7C111.2,174.9,108,174.4,109.8,174.7z"/>
      <path d="M80.2,174.4c4.1,0.6,2.7,5.8-1.1,5.8C75.3,180.3,76.3,173.9,80.2,174.4C81.6,174.6,78.4,174.2,80.2,174.4z"/>
      <path d="M80.2,171c7.7,0,7.3,11.8-0.1,12.2C70.8,183.8,71.1,171,80.2,171z"/>
      <path d="M74.2,117.9c1.6,13.1,0.9,26.6,1.5,39.8"/>
      <path d="M85.9,117c1.6,13.4,0.9,27.1,1.5,40.7"/>
      <path d="M99.2,116.5c0,13.6,0.3,27.2,0.3,40.8"/>
      <path d="M115.9,114.9c-3.1,13.9-5,28.1-8,42"/>
      <path d="M126.9,125.2c-10.8,0-21.3,1.2-32,1.9c-10.6,0.6-21.6,0.8-32.1,2.6"/>
      <path d="M120.7,146.9c-18.5,0-37.6-0.7-56.1,1.1"/>
      <path d="M124,136.9c-20,0-40.5-0.7-60.4,1.1"/>
      <path d="M42.5,53.2c-2.7,12.6-0.8,27.7-0.9,40.6c-0.2,15,1.3,29.9,2.3,44.9c1,15.3,1.9,56.2,3.4,56.2c5.2-0.1,176.8-1.8,210.6-1.4c-0.6-47.4-0.2-94.7,0.4-142.1C186.5,51.4,114,57.9,42.5,53.2z"/>
      <path d="M41.3,68.7c72,0,144-1.3,216-1.3"/>
      <path d="M167,150.5c7.4-2.6,21.5,0.3,29.5,0.3c11.6,0,23.2-0.3,34.8-0.3"/>
      <path d="M224.1,142.7c-8.3-2.3-19.8-0.7-28.4-0.7c-9.6,0-19.3-0.9-28.9,0.1"/>
      <path d="M229.5,133c-9.3-1.9-19.6,0.2-29,0.5c-11.3,0.4-22.4,0.1-33.7,0.1"/>
      <path d="M229.5,114.3c-9.3-1.9-19.6,0.2-29,0.5c-11.3,0.4-22.4,0.1-33.7,0.1"/>
      <path d="M167.1,124.5c6.6,2.1,14.2,0.5,20.9,0.3c11.9-0.4,23.8-1.2,35.7-0.9"/>
    </g>
    <g fill="#444444">
      <circle cx="50" cy="62" r="2.5"/>
      <circle cx="59" cy="62" r="2.5"/>
      <circle cx="68" cy="62" r="2.5"/>
      <path d="M204.9,168.6c0.3,3.6,17.9,1.9,21.3,2c4.4,0.2,8.8,0.4,13.2,0.6c3.6,0.2,2.2-5.4,2.1-7.7c-0.1-3.4-8.4-2.2-11.6-2.4c-4.7-0.2-9.3-0.4-14-0.5c-3.3-0.1-6.9-0.3-10.2,0.1C203.6,161,204.8,167.3,204.9,168.6C205,170.6,204.8,167.3,204.9,168.6z"/>
      <path d="M95.8,82.1c2.9,0-1.1,5.4-1.6,6.2c-0.5,0.8-2.3,4.3-3.3,4.3c-1.8,0-0.9-1.3-0.4-1.9c1.4-1.8,0.8-1,0.4-2.3c-0.5-1.4-0.7-3-1-4.5c-0.1-0.5-0.1-0.9-0.1-1.4c0-0.5,1.6-0.7,1.6-0.2c0,0.6,0.5,5.7,1,5.7C93.9,88,94.5,82.1,95.8,82.1zM99.3,92.6c-5.2,0-3.1-9.2,0.8-8C103.8,85.7,103.1,92.6,99.3,92.6z M100.9,87.6c0-3.3-2.8-0.4-3,1.4c-0.1,0.9,0.1,2.8,1.5,2.1C100.5,90.5,100.9,88.8,100.9,87.6z M110.3,85.1c0,1.9-0.9,4.1-1.1,6.1c-0.1,0.6,0.1,1.5-0.7,1.3c-0.6-0.2-1-1.7-0.9-1.7c-0.6,0-1.2,1.8-2.2,1.8c-1.6,0-2.1-2-1.9-3.3c0.1-1.5,0.5-3.1,1-4.6c0.3-0.7,1.6,0.3,1.4,1.1c-0.3,1.1-2,6.3,0.4,4.6c1.7-1.2,1.7-2.5,2.1-4.4c0.1-0.3,0.2-1.6,0.7-1.6C109.4,84.5,110.3,84.7,110.3,85.1z M115.3,84.6c0.9,0,0.2,1.8-0.5,2c-1.8,0.5-1.8,1.4-2.1,3.1c-0.1,0.4-0.2,2.9-0.8,2.9c-0.8,0-1.3-0.3-1.2-1.1c0.3-1.7,0.6-3.4,0.8-5.1c0-0.2,0.1-1.5,0.3-1.6c0.3-1.2,2,1,1.6,1C114,85.8,114.5,84.6,115.3,84.6z M125.2,82.7c0.3,1.6,0.3,3.3,0.3,4.9c0,1.1,0.7,5.2-0.9,5c-2.1-0.3,0.6-3-2.4-2.9c-1.2,0-1.4-0.1-2,1.2c-0.1,0.3-0.5,2.1-1.1,1.8c-1-0.5-1.1-3-0.3-3c-1.4-0.2,0.8-1.6,0.8-1.5c0.9-1.8,1.7-3.8,2.9-5.5C122.9,82.3,125,81.5,125.2,82.7C125.4,84.1,125.1,82.5,125.2,82.7z M121.5,88.2c0,0.3,1.8,0.1,2,0.1c0.7,0,0.1-4.6,0.2-4.6C123.3,83.7,121.5,87.8,121.5,88.2z M135.1,84.6c2.7,0,0,5-0.4,6c-0.6,1.3-1.1,2.5-2.7,1.7c-0.8-0.4-1.2-3.9-1-3.9c-0.9,0-0.4,5-2.5,4.2c-2.1-0.8-1.4-3.2-1.3-5.1c0-0.4-0.2-2.8,0.3-2.8c0.3,0,1.5-0.1,1.5,0.5c0,0.4-0.3,5.9-0.3,5.9c1.1,0,1.4-6.4,2.6-6.4c2.7,0,0.6,6.4,1.5,6.4C134.1,90.9,134.2,84.6,135.1,84.6z M140.1,84.5c2.4,0,3.3,2.9,1.3,4.2c-0.5,0.3-3,0.5-3,0.6c0,1.9,1.4,1.8,2.8,1.1c1.8,0.8-2.3,3.6-4,0.8C135.9,89.2,137.2,84.5,140.1,84.5zM138.6,87.9c0,0.6,2.3-0.3,2.3-1.3C140.9,84.8,138.6,86.9,138.6,87.9z M145.2,87.5c0,1,2.3,1.3,2.9,2c1.6,1.8-1.6,3.4-3.1,3.1c-0.5-0.1-2-0.4-2-1.2c0-1.1,0.6-1,1.3-0.6c1.8,0.9,3.4,0,1.1-1.1c-4-1.8-0.1-7,3.1-4.1c1,0.9-0.1,3.3-1.2,2.4c-0.5,0,0.1-1.5-0.1-1.8C146.5,85.2,145.2,86.9,145.2,87.5z M152.7,92.6c-5.2,0-3.1-9.2,0.8-8C157.2,85.7,156.5,92.6,152.7,92.6zM154.3,87.6c0-3.3-2.8-0.4-3,1.4c-0.1,0.9,0.1,2.8,1.5,2.1C153.9,90.5,154.3,88.8,154.3,87.6C154.3,86.7,154.3,89.1,154.3,87.6zM165.5,84.5c2.9,0,1.4,5,1.1,6.3c-0.3,1.3-0.3,2.1-1.8,1.4c-0.6-0.3,0.3-2.5,0.4-2.9c0.2-0.8,0.6-2.1,0.3-3c-0.2-0.7-2.5,1.3-2.5,1.8c-0.2,1.4-0.5,2.8-0.9,4.2c-0.2,0.9-1.5-0.3-1.6-0.6c0.2-0.7,1.5-5.9,0.4-5.5c-1.2,0.5-1.9,1.3-2.1,2.6c-0.1,0.4-0.4,3.7-1,3.7c-2.2,0-0.7-3.7-0.5-5c0.1-0.4,0.2-3,0.7-3c0.9,0,1.4,1.4,1.3,1.4c0.6,0,1.1-1.5,2-1.5c1,0,1.4,1.7,1.9,1.7C163.9,86.2,164.5,84.5,165.5,84.5z M171.5,84.5c2.4,0,3.3,2.9,1.3,4.2c-0.5,0.3-3,0.5-3,0.6c0,1.9,1.4,1.8,2.8,1.1c1.8,0.8-2.3,3.6-4,0.8C167.3,89.2,168.6,84.5,171.5,84.5z M170.1,87.9c0,0.6,2.3-0.3,2.3-1.3C172.3,84.8,170.1,86.9,170.1,87.9zM181.8,90.1c0-1.9-3.9-1.9-3.9-4.4c0-2.4,2.2-4.2,4.4-3.3c0.7,0.3,1.9,0.9,1.9,1.9c0,0.4-0.2,1.9-0.8,1.9c-2.2,0.3-0.2-3.9-2.6-2.5c-3,1.6-0.1,3.3,1.3,4.2c2.4,1.6,0.9,4.9-1.7,4.9c-1.5,0-5.2-3.2-2.4-3.5c0.5,0,0.7,1.6,1.3,1.9C180.2,91.4,181.8,91.1,181.8,90.1z M189.5,84.5c2.1,0,1.7,2.8,1.5,4c-0.2,1-0.4,2.1-0.6,3.1c-0.2,0.8-1.8,1.5-1.8,0.3c0-1.7,1-3.4,1-5.2c0-0.8-0.5-0.5-1-0.3c-1.3,0.7-1.9,1.5-2.1,2.9c-0.1,0.4-0.2,3.2-0.7,3.2c-1.2,0-1.3-0.7-1.2-1.7c0.2-2.1,0.7-4.1,1.1-6.1c0.3-1.4,0.4-3.6,2.2-2.9c0.6,0.2-1.2,4.3-0.8,4.3C187.8,86.2,188.5,84.5,189.5,84.5z M195.2,92.6c-5.2,0-3.1-9.2,0.8-8C199.7,85.7,199,92.6,195.2,92.6z M196.8,87.6c0-3.3-2.8-0.4-3,1.4c-0.1,0.9,0.1,2.8,1.5,2.1C196.4,90.5,196.8,88.8,196.8,87.6z M203.1,84.5c3.7,0,2.8,5.4,1.2,7.1c-0.5,0.5-1,0.9-1.7,1c-0.9,0.2-1.1-0.5-1.9-0.5c-0.3,0-0.5,2.3-0.5,2.5c-0.1,0.8-1.5,0.9-1.5,0.1c0-1.2,0.3-2.4,0.5-3.6c0.2-1.4,0.9-3.1,0.9-4.6C200.1,85,201.6,84.5,203.1,84.5zM204.1,87.6c0-1.1-0.8-1.7-1.9-1.6c-0.8,0.1-1.1,3-1.2,3.7c-0.2,0.9-0.2,1.7,1.1,1.3C203.5,90.6,204.1,88.9,204.1,87.6z"/>
    </g>
  </g>

</svg>
