<svg xmlns="http://www.w3.org/2000/svg" viewBox="0 0 330 140">
    <path class="symbol-top" fill="#bfc0c4" d="M68.6,70c-1,13-11.8,23-24.9,23c-13.1,0-23.9-10-24.9-23h-4c1.1,
        27,23,48,50,48c27,0,48.9-21,50-48H68.6z"/>
    <path class="symbol-bottom" fill="#7bc144" d="M18.7,66c1-12,11.8-23,24.9-23c13.1,0,23.9,11,24.9,
        23h46.1c-1.1-26-23-48-50-48s-48.9,22-50,48H18.7z"/>
    <path class="logotype" fill="#7bc144" d="M150.6,69.3c-4.8,0-9.6,0.5-13.6,4V56h-10v58h9v-3.5c3,2.4,7.1,4.2,12.9,4.2c17.6,0,18.7-11.9,18.7-22.6C167.7,78.8,165.6,69.3,150.6,69.3z M148.6,105.5c-8.7,0-11.3-2.4-11.3-13.4c0-11,2.5-13.4,11.3-13.4c7.6,0,9.2,3.2,9.2,13.4C157.7,102.4,156.1,105.5,148.6,105.5z M194.1,69.2c-5.1,0-9.1,1.7-12.1,4.8v-4h-9v44h10V94.9c0-3.4,0-8.3,1.2-11.4
    c1.1-3,3.8-5.3,8-5.3c4.2,0,6,0.8,6,4.8h10.1C208.3,74,203.5,69.2,194.1,69.2z M251.3,69.3c-6.2,0-10.3,2-12.3,4.2V70h-9v44h10V93.6
    c0-7.7-0.9-15.2,10.1-15.2c8.8,0,7.9,4.1,7.9,12.5V114h10V90.1C268,80.5,269.1,69.3,251.3,69.3z M305,70v3.6
    c-3-3.1-8.9-4.2-13.6-4.2c-15.1,0-17.5,9.1-17.5,22.4c0,10.5,1,22.2,17.7,22.2c4.2,0,9.5-1,12.6-3.9c0,2.3,0.1,5.4-0.2,7.7
    c-0.5,4.1-4.8,6-10.6,6c-5.7,0-7.5-1.8-7.5-4.8h-11.1c0,11,10,13.4,18.8,13.4c8.1,0,18.6-2.2,20.2-12.6c0.4-2.4,0.2-6.4,0.2-10.5V70
    H305L305,70z M293.2,104.8c-7.6,0-9.1-2.8-9.1-13.1c0-10.3,1.5-13.4,9.1-13.4c8.7,0,11.1,2.4,11.1,13.4
    C304.2,102.7,301.9,104.8,293.2,104.8z M213,114h10V70h-10V114z M213,66h10V56h-10V66z"/>
</svg>
