<svg xmlns="http://www.w3.org/2000/svg" x="0px" y="0px" viewBox="0 0 490 210">
    <path class="symbol-top" fill="#7bc144" d="M41.2,103.5c1.4-18.2,16.7-32.6,35.3-32.6s33.9,14.4,35.3,32.6h65.2c-1.5-37.8-32.6-68-70.8-68c-38.2,0-69.3,30.2-70.8,68H41.2z"/>
    <path class="symbol-bottom" fill="#bfc0c4" d="M111.8,109.1c-1.4,18.2-16.7,32.6-35.3,32.6s-33.9-14.4-35.3-32.6h-5.7c1.5,37.8,32.6,68,70.8,68c38.2,0,69.3-30.2,70.8-68H111.8z"/>
    <path class="logotype" fill="#7bc144" d="M228.3,108c-6.8,0-14.2,0.8-18.9,5.6V89h-14.5v82.5h13v-5c3.8,3.5,9.7,6,18,6c24.9,0,26.6-16.9,26.6-32.1C252.6,121.5,249.6,108,228.3,108z M225.1,159.5c-12.4,0-16-3.5-16-19.1c0-15.6,3.6-19.1,16-19.1c10.7,0,13,4.5,13,19.1C238.1,155,235.8,159.5,225.1,159.5z M289.8,108c-7.3,0-13.1,2.3-17.1,6.7v-5.6h-12.5v62.4h14.5v-27.1c0-4.9-0.3-11.8,1.4-16.2c1.5-4.2,5.2-7.4,11.3-7.4c6,0,8.4,1.3,8.4,7H310C310,114.1,303.2,108,289.8,108z M371.3,108c-8.8,0-14.5,2.8-18,6v-4.9h-12.5v62.4h14.5v-29c0-10.9-1.1-21.6,14.5-21.6c12.5,0,11.4,5.8,11.4,17.8v32.9h14.5v-34C395.5,123.9,396.5,108,371.3,108z M447.6,109.1v4.9c-4.9-4.3-12.8-6-19.4-6c-21.5,0-24.9,12.9-24.9,31.9c0,15,1.4,31.6,25.1,31.6c6,0,13.4-1.4,17.9-5.5c0,3.2,0.1,7.7-0.3,10.9c-0.8,5.9-6.8,8.4-15.1,8.4c-8.1,0-10.6-2.3-10.6-6.8h-15.7c0,15.9,14.2,19,26.7,19c11.5,0,26.6-3.1,28.9-17.9c0.5-3.5,0.5-9.1,0.5-14.9v-55.7H447.6z M430.6,158.4c-10.7,0-12.9-4-12.9-18.6c0-14.6,2.2-19.1,12.9-19.1c12.4,0,15.7,3.5,15.7,19.1C446.3,155.5,443,158.4,430.6,158.4z M316.9,171.5h14.5v-62.4h-14.5V171.5z M316.9,103.5h14.5V89h-14.5V103.5z"/>
</svg>
